<?xml version="1.0" standalone="no"?>
<!DOCTYPE svg PUBLIC "-//W3C//DTD SVG 1.1//EN" "http://www.w3.org/Graphics/SVG/1.1/DTD/svg11.dtd">
<svg width="960mm" height="320mm" viewBox="-145 -255 960 320" xmlns="http://www.w3.org/2000/svg" version="1.1">
<title>OpenSCAD Model</title>
<path d="
M 324.412,-234.736 L 324.759,-234.756 L 325.096,-234.79 L 325.423,-234.838 L 325.74,-234.9 L 326.047,-234.975
 L 326.345,-235.064 L 326.633,-235.166 L 326.911,-235.282 L 327.18,-235.412 L 327.439,-235.556 L 327.688,-235.713
 L 327.927,-235.884 L 328.156,-236.068 L 328.376,-236.266 L 328.586,-236.478 L 328.785,-236.702 L 328.971,-236.936
 L 329.144,-237.179 L 329.304,-237.433 L 329.451,-237.696 L 329.586,-237.97 L 329.708,-238.253 L 329.817,-238.547
 L 329.913,-238.85 L 329.996,-239.163 L 330.067,-239.487 L 330.124,-239.82 L 330.169,-240.163 L 330.201,-240.516
 L 330.221,-240.879 L 330.227,-241.252 L 330.221,-241.597 L 330.203,-241.933 L 330.172,-242.26 L 330.13,-242.578
 L 330.075,-242.887 L 330.009,-243.188 L 329.93,-243.479 L 329.839,-243.761 L 329.736,-244.035 L 329.62,-244.3
 L 329.493,-244.555 L 329.353,-244.802 L 329.202,-245.04 L 329.038,-245.269 L 328.862,-245.49 L 328.674,-245.701
 L 328.476,-245.901 L 328.269,-246.089 L 328.053,-246.263 L 327.829,-246.425 L 327.597,-246.573 L 327.356,-246.709
 L 327.106,-246.832 L 326.848,-246.942 L 326.582,-247.039 L 326.307,-247.123 L 326.023,-247.194 L 325.731,-247.252
 L 325.43,-247.297 L 325.121,-247.33 L 324.803,-247.349 L 324.477,-247.355 L 324.283,-247.353 L 324.092,-247.345
 L 323.904,-247.333 L 323.719,-247.315 L 323.536,-247.292 L 323.356,-247.265 L 323.179,-247.232 L 323.005,-247.194
 L 322.833,-247.152 L 322.665,-247.104 L 322.499,-247.051 L 322.335,-246.993 L 322.175,-246.93 L 322.017,-246.862
 L 321.862,-246.789 L 321.71,-246.711 L 321.561,-246.628 L 321.417,-246.541 L 321.276,-246.449 L 321.14,-246.352
 L 321.008,-246.251 L 320.881,-246.145 L 320.757,-246.035 L 320.638,-245.919 L 320.524,-245.8 L 320.413,-245.675
 L 320.307,-245.547 L 320.204,-245.413 L 320.106,-245.275 L 320.013,-245.132 L 319.923,-244.985 L 319.838,-244.833
 L 319.843,-245.287 L 319.856,-245.728 L 319.878,-246.155 L 319.91,-246.568 L 319.95,-246.968 L 319.999,-247.354
 L 320.058,-247.727 L 320.125,-248.086 L 320.201,-248.431 L 320.286,-248.763 L 320.38,-249.081 L 320.483,-249.386
 L 320.595,-249.677 L 320.716,-249.954 L 320.845,-250.218 L 320.984,-250.468 L 321.131,-250.704 L 321.285,-250.924
 L 321.447,-251.129 L 321.616,-251.319 L 321.792,-251.494 L 321.976,-251.654 L 322.167,-251.798 L 322.366,-251.928
 L 322.572,-252.042 L 322.785,-252.141 L 323.005,-252.224 L 323.233,-252.293 L 323.469,-252.346 L 323.711,-252.384
 L 323.961,-252.407 L 324.219,-252.414 L 324.516,-252.405 L 324.799,-252.378 L 325.069,-252.332 L 325.326,-252.268
 L 325.569,-252.186 L 325.799,-252.086 L 326.016,-251.968 L 326.219,-251.831 L 326.409,-251.676 L 326.586,-251.503
 L 326.749,-251.312 L 326.899,-251.102 L 327.036,-250.874 L 327.159,-250.628 L 327.269,-250.364 L 327.365,-250.082
 L 329.698,-250.502 L 329.545,-250.973 L 329.367,-251.414 L 329.163,-251.825 L 328.935,-252.205 L 328.682,-252.555
 L 328.404,-252.874 L 328.101,-253.163 L 327.772,-253.421 L 327.419,-253.649 L 327.041,-253.847 L 326.637,-254.014
 L 326.209,-254.151 L 325.756,-254.258 L 325.278,-254.334 L 324.774,-254.379 L 324.246,-254.394 L 323.842,-254.384
 L 323.449,-254.353 L 323.068,-254.301 L 322.699,-254.228 L 322.342,-254.135 L 321.996,-254.021 L 321.662,-253.886
 L 321.34,-253.73 L 321.03,-253.553 L 320.731,-253.356 L 320.445,-253.138 L 320.17,-252.899 L 319.906,-252.639
 L 319.655,-252.359 L 319.415,-252.058 L 319.187,-251.736 L 318.972,-251.395 L 318.771,-251.035 L 318.583,-250.658
 L 318.41,-250.263 L 318.25,-249.849 L 318.105,-249.418 L 317.973,-248.969 L 317.855,-248.501 L 317.751,-248.016
 L 317.66,-247.513 L 317.584,-246.991 L 317.522,-246.452 L 317.473,-245.894 L 317.438,-245.319 L 317.418,-244.725
 L 317.411,-244.114 L 317.417,-243.549 L 317.437,-243.002 L 317.471,-242.472 L 317.517,-241.958 L 317.577,-241.462
 L 317.651,-240.983 L 317.738,-240.521 L 317.838,-240.076 L 317.951,-239.648 L 318.078,-239.237 L 318.218,-238.843
 L 318.372,-238.466 L 318.539,-238.106 L 318.719,-237.763 L 318.912,-237.438 L 319.119,-237.129 L 319.339,-236.839
 L 319.57,-236.567 L 319.814,-236.313 L 320.069,-236.079 L 320.336,-235.863 L 320.615,-235.666 L 320.905,-235.488
 L 321.208,-235.329 L 321.522,-235.188 L 321.849,-235.066 L 322.187,-234.963 L 322.537,-234.879 L 322.899,-234.813
 L 323.273,-234.766 L 323.659,-234.738 L 324.056,-234.729 z
M 323.764,-236.701 L 323.557,-236.717 L 323.356,-236.745 L 323.159,-236.784 L 322.967,-236.833 L 322.78,-236.894
 L 322.598,-236.965 L 322.42,-237.048 L 322.247,-237.142 L 322.08,-237.246 L 321.917,-237.362 L 321.758,-237.489
 L 321.605,-237.626 L 321.457,-237.775 L 321.313,-237.935 L 321.174,-238.106 L 321.042,-238.285 L 320.918,-238.471
 L 320.803,-238.663 L 320.696,-238.861 L 320.598,-239.066 L 320.509,-239.276 L 320.428,-239.493 L 320.355,-239.716
 L 320.291,-239.946 L 320.236,-240.182 L 320.189,-240.423 L 320.151,-240.672 L 320.121,-240.926 L 320.099,-241.187
 L 320.087,-241.454 L 320.082,-241.727 L 320.087,-241.943 L 320.099,-242.153 L 320.119,-242.357 L 320.148,-242.555
 L 320.185,-242.747 L 320.23,-242.933 L 320.284,-243.114 L 320.345,-243.288 L 320.415,-243.457 L 320.493,-243.62
 L 320.579,-243.777 L 320.674,-243.928 L 320.776,-244.073 L 320.887,-244.212 L 321.006,-244.346 L 321.133,-244.473
 L 321.267,-244.594 L 321.406,-244.707 L 321.551,-244.812 L 321.7,-244.909 L 321.855,-244.999 L 322.014,-245.081
 L 322.179,-245.155 L 322.349,-245.221 L 322.524,-245.279 L 322.704,-245.33 L 322.89,-245.373 L 323.08,-245.408
 L 323.276,-245.435 L 323.476,-245.455 L 323.682,-245.466 L 323.893,-245.47 L 324.117,-245.466 L 324.335,-245.453
 L 324.547,-245.431 L 324.752,-245.4 L 324.951,-245.36 L 325.144,-245.312 L 325.33,-245.255 L 325.511,-245.189
 L 325.685,-245.114 L 325.853,-245.03 L 326.014,-244.938 L 326.169,-244.837 L 326.318,-244.727 L 326.461,-244.608
 L 326.598,-244.481 L 326.728,-244.344 L 326.851,-244.2 L 326.966,-244.048 L 327.074,-243.889 L 327.173,-243.722
 L 327.264,-243.548 L 327.348,-243.367 L 327.423,-243.178 L 327.491,-242.981 L 327.55,-242.778 L 327.602,-242.567
 L 327.646,-242.348 L 327.682,-242.122 L 327.709,-241.889 L 327.729,-241.648 L 327.741,-241.399 L 327.745,-241.144
 L 327.741,-240.888 L 327.73,-240.639 L 327.71,-240.397 L 327.682,-240.162 L 327.647,-239.934 L 327.604,-239.712
 L 327.553,-239.498 L 327.494,-239.291 L 327.428,-239.09 L 327.353,-238.897 L 327.271,-238.71 L 327.181,-238.531
 L 327.083,-238.358 L 326.977,-238.193 L 326.863,-238.034 L 326.741,-237.882 L 326.613,-237.738 L 326.479,-237.604
 L 326.338,-237.479 L 326.192,-237.363 L 326.04,-237.256 L 325.882,-237.159 L 325.718,-237.071 L 325.548,-236.992
 L 325.372,-236.923 L 325.19,-236.862 L 325.003,-236.811 L 324.809,-236.77 L 324.609,-236.737 L 324.404,-236.714
 L 324.192,-236.7 L 323.975,-236.695 z
M 360.224,-237.075 L 350.255,-237.075 L 350.308,-237.194 L 350.365,-237.314 L 350.426,-237.434 L 350.491,-237.554
 L 350.56,-237.676 L 350.633,-237.798 L 350.71,-237.92 L 350.791,-238.043 L 350.876,-238.167 L 350.965,-238.291
 L 351.058,-238.416 L 351.156,-238.541 L 351.257,-238.667 L 351.362,-238.794 L 351.471,-238.921 L 351.584,-239.048
 L 351.702,-239.177 L 351.825,-239.308 L 351.953,-239.441 L 352.085,-239.576 L 352.223,-239.713 L 352.366,-239.852
 L 352.513,-239.992 L 352.666,-240.135 L 352.824,-240.28 L 352.986,-240.426 L 353.154,-240.575 L 353.326,-240.725
 L 353.504,-240.878 L 353.686,-241.032 L 353.874,-241.189 L 354.066,-241.347 L 354.414,-241.631 L 354.746,-241.905
 L 355.065,-242.169 L 355.369,-242.425 L 355.659,-242.67 L 355.935,-242.907 L 356.196,-243.134 L 356.443,-243.351
 L 356.676,-243.559 L 356.894,-243.758 L 357.099,-243.947 L 357.288,-244.127 L 357.464,-244.297 L 357.625,-244.458
 L 357.772,-244.609 L 357.905,-244.751 L 358.028,-244.889 L 358.148,-245.026 L 358.264,-245.163 L 358.376,-245.301
 L 358.484,-245.438 L 358.588,-245.575 L 358.688,-245.713 L 358.784,-245.85 L 358.877,-245.987 L 358.966,-246.125
 L 359.051,-246.262 L 359.132,-246.399 L 359.209,-246.537 L 359.282,-246.674 L 359.351,-246.811 L 359.417,-246.949
 L 359.478,-247.086 L 359.536,-247.223 L 359.59,-247.361 L 359.639,-247.499 L 359.685,-247.637 L 359.727,-247.774
 L 359.765,-247.912 L 359.798,-248.051 L 359.828,-248.189 L 359.854,-248.327 L 359.876,-248.465 L 359.894,-248.604
 L 359.908,-248.743 L 359.917,-248.881 L 359.923,-249.02 L 359.925,-249.159 L 359.919,-249.468 L 359.901,-249.769
 L 359.871,-250.06 L 359.828,-250.342 L 359.774,-250.616 L 359.707,-250.88 L 359.628,-251.135 L 359.537,-251.382
 L 359.434,-251.619 L 359.319,-251.848 L 359.191,-252.068 L 359.052,-252.278 L 358.9,-252.48 L 358.736,-252.673
 L 358.561,-252.857 L 358.372,-253.031 L 358.173,-253.196 L 357.963,-253.351 L 357.743,-253.495 L 357.513,-253.628
 L 357.271,-253.75 L 357.02,-253.862 L 356.758,-253.963 L 356.486,-254.054 L 356.203,-254.133 L 355.91,-254.203
 L 355.606,-254.261 L 355.292,-254.309 L 354.967,-254.346 L 354.632,-254.373 L 354.287,-254.389 L 353.931,-254.394
 L 353.606,-254.389 L 353.288,-254.373 L 352.978,-254.347 L 352.675,-254.31 L 352.38,-254.262 L 352.092,-254.204
 L 351.812,-254.135 L 351.539,-254.055 L 351.273,-253.965 L 351.015,-253.865 L 350.765,-253.753 L 350.522,-253.631
 L 350.286,-253.499 L 350.058,-253.356 L 349.838,-253.202 L 349.625,-253.038 L 349.421,-252.865 L 349.228,-252.684
 L 349.046,-252.497 L 348.875,-252.301 L 348.715,-252.099 L 348.566,-251.889 L 348.428,-251.672 L 348.301,-251.448
 L 348.184,-251.216 L 348.079,-250.977 L 347.985,-250.731 L 347.902,-250.477 L 347.829,-250.216 L 347.768,-249.948
 L 347.718,-249.673 L 347.678,-249.39 L 350.174,-249.159 L 350.199,-249.348 L 350.231,-249.532 L 350.269,-249.71
 L 350.314,-249.883 L 350.366,-250.05 L 350.423,-250.212 L 350.488,-250.369 L 350.559,-250.521 L 350.636,-250.667
 L 350.72,-250.807 L 350.811,-250.943 L 350.908,-251.073 L 351.011,-251.197 L 351.121,-251.317 L 351.238,-251.431
 L 351.361,-251.539 L 351.489,-251.642 L 351.622,-251.738 L 351.759,-251.828 L 351.9,-251.91 L 352.046,-251.986
 L 352.196,-252.056 L 352.35,-252.119 L 352.508,-252.175 L 352.671,-252.225 L 352.838,-252.268 L 353.01,-252.304
 L 353.185,-252.334 L 353.365,-252.357 L 353.549,-252.374 L 353.738,-252.384 L 353.931,-252.387 L 354.133,-252.384
 L 354.33,-252.374 L 354.521,-252.357 L 354.706,-252.333 L 354.886,-252.302 L 355.061,-252.265 L 355.229,-252.221
 L 355.392,-252.17 L 355.55,-252.113 L 355.701,-252.048 L 355.847,-251.977 L 355.988,-251.899 L 356.123,-251.814
 L 356.252,-251.723 L 356.376,-251.624 L 356.494,-251.519 L 356.606,-251.408 L 356.71,-251.291 L 356.808,-251.169
 L 356.898,-251.041 L 356.98,-250.908 L 357.056,-250.769 L 357.125,-250.625 L 357.186,-250.475 L 357.24,-250.32
 L 357.287,-250.159 L 357.326,-249.992 L 357.359,-249.82 L 357.384,-249.643 L 357.402,-249.46 L 357.413,-249.272
 L 357.416,-249.078 L 357.414,-248.933 L 357.408,-248.79 L 357.398,-248.649 L 357.383,-248.51 L 357.364,-248.373
 L 357.341,-248.237 L 357.314,-248.104 L 357.282,-247.973 L 357.247,-247.843 L 357.207,-247.715 L 357.163,-247.59
 L 357.115,-247.466 L 357.063,-247.344 L 357.006,-247.224 L 356.946,-247.105 L 356.881,-246.989 L 356.812,-246.874
 L 356.742,-246.76 L 356.668,-246.646 L 356.592,-246.533 L 356.513,-246.421 L 356.432,-246.309 L 356.348,-246.198
 L 356.262,-246.087 L 356.173,-245.977 L 356.081,-245.868 L 355.987,-245.76 L 355.89,-245.652 L 355.791,-245.544
 L 355.689,-245.438 L 355.584,-245.331 L 355.477,-245.226 L 355.368,-245.121 L 355.257,-245.016 L 355.144,-244.911
 L 355.03,-244.806 L 354.914,-244.7 L 354.796,-244.595 L 354.677,-244.49 L 354.556,-244.385 L 354.434,-244.28
 L 354.31,-244.175 L 354.184,-244.07 L 354.057,-243.965 L 353.928,-243.86 L 353.797,-243.755 L 353.665,-243.649
 L 353.531,-243.544 L 353.396,-243.439 L 353.261,-243.332 L 353.126,-243.224 L 352.99,-243.115 L 352.855,-243.005
 L 352.719,-242.894 L 352.583,-242.781 L 352.447,-242.668 L 352.311,-242.553 L 352.175,-242.438 L 352.038,-242.321
 L 351.902,-242.203 L 351.765,-242.084 L 351.628,-241.964 L 351.491,-241.843 L 351.354,-241.72 L 351.217,-241.596
 L 351.081,-241.471 L 350.946,-241.343 L 350.811,-241.214 L 350.677,-241.083 L 350.544,-240.95 L 350.412,-240.816
 L 350.281,-240.679 L 350.15,-240.541 L 350.02,-240.401 L 349.891,-240.259 L 349.763,-240.116 L 349.636,-239.97
 L 349.509,-239.823 L 349.383,-239.674 L 349.258,-239.523 L 349.135,-239.37 L 349.014,-239.214 L 348.895,-239.055
 L 348.779,-238.893 L 348.665,-238.728 L 348.554,-238.56 L 348.445,-238.39 L 348.338,-238.216 L 348.234,-238.039
 L 348.132,-237.86 L 348.032,-237.678 L 347.935,-237.492 L 347.84,-237.304 L 347.748,-237.113 L 347.658,-236.919
 L 347.57,-236.722 L 347.57,-235 L 360.224,-235 z
M 338.589,-235.33 L 338.596,-235.658 L 338.608,-235.986 L 338.624,-236.311 L 338.645,-236.636 L 338.671,-236.959
 L 338.702,-237.28 L 338.737,-237.601 L 338.777,-237.919 L 338.822,-238.237 L 338.872,-238.553 L 338.926,-238.868
 L 338.985,-239.181 L 339.049,-239.493 L 339.117,-239.804 L 339.19,-240.113 L 339.268,-240.422 L 339.35,-240.731
 L 339.438,-241.041 L 339.53,-241.351 L 339.626,-241.662 L 339.728,-241.974 L 339.834,-242.286 L 339.945,-242.598
 L 340.06,-242.911 L 340.18,-243.225 L 340.305,-243.539 L 340.435,-243.854 L 340.569,-244.169 L 340.708,-244.485
 L 340.852,-244.801 L 341.001,-245.118 L 341.158,-245.442 L 341.329,-245.782 L 341.514,-246.137 L 341.712,-246.507
 L 341.923,-246.892 L 342.148,-247.292 L 342.387,-247.708 L 342.638,-248.139 L 342.904,-248.584 L 343.182,-249.045
 L 343.475,-249.522 L 343.78,-250.013 L 344.099,-250.519 L 344.432,-251.041 L 344.778,-251.578 L 345.137,-252.129
 L 345.137,-254.11 L 332.511,-254.11 L 332.511,-252.035 L 342.777,-252.035 L 342.331,-251.38 L 341.901,-250.735
 L 341.488,-250.099 L 341.09,-249.473 L 340.709,-248.857 L 340.344,-248.25 L 339.995,-247.653 L 339.663,-247.065
 L 339.347,-246.488 L 339.047,-245.919 L 338.764,-245.36 L 338.496,-244.811 L 338.245,-244.271 L 338.01,-243.741
 L 337.792,-243.221 L 337.59,-242.71 L 337.402,-242.206 L 337.226,-241.704 L 337.062,-241.206 L 336.91,-240.71
 L 336.771,-240.218 L 336.643,-239.728 L 336.528,-239.242 L 336.425,-238.758 L 336.334,-238.278 L 336.255,-237.801
 L 336.189,-237.326 L 336.134,-236.855 L 336.092,-236.387 L 336.061,-235.921 L 336.043,-235.459 L 336.037,-235
 L 338.587,-235 z
M 1,-140 L 33,-140 L 33,-60 L 34,-60 L 34,-140 L 68,-140
 L 68,-60 L 69,-60 L 69,-140 L 627,-140 L 627,-60 L 628,-60
 L 628,-140 L 672,-140 L 672,-60 L 673,-60 L 673,-140 L 692,-140
 L 692,-141 L 673,-141 L 673,-220 L 692,-220 L 692,-221 L 673,-221
 L 673,-240 L 672,-240 L 672,-221 L 1,-221 L 1,-240 L 0,-240
 L 0,-221 L -20,-221 L -20,-220 L 0,-220 L 0,-141 L -20,-141
 L -20,-140 L 0,-140 L 0,-60 L 1,-60 z
M 1,-141 L 1,-220 L 672,-220 L 672,-141 L 628,-141 L 628,-160
 L 627,-160 L 627,-141 L 69,-141 L 69,-160 L 68,-160 L 68,-141
 L 34,-141 L 34,-160 L 33,-160 L 33,-141 z
M 23.215,-154.734 L 23.5881,-154.751 L 23.9499,-154.78 L 24.3006,-154.82 L 24.6399,-154.871 L 24.9681,-154.933
 L 25.285,-155.007 L 25.5907,-155.092 L 25.8851,-155.188 L 26.1683,-155.296 L 26.4403,-155.415 L 26.701,-155.545
 L 26.9506,-155.687 L 27.1888,-155.84 L 27.4159,-156.004 L 27.6317,-156.18 L 27.8354,-156.366 L 28.0259,-156.561
 L 28.2033,-156.766 L 28.3675,-156.98 L 28.5186,-157.204 L 28.6566,-157.436 L 28.7814,-157.678 L 28.8931,-157.93
 L 28.9916,-158.19 L 29.077,-158.46 L 29.1493,-158.739 L 29.2084,-159.028 L 29.2544,-159.326 L 29.2872,-159.633
 L 29.3069,-159.95 L 29.3135,-160.276 L 29.3089,-160.502 L 29.2949,-160.724 L 29.2716,-160.94 L 29.2389,-161.152
 L 29.197,-161.359 L 29.1457,-161.561 L 29.0851,-161.758 L 29.0151,-161.951 L 28.9359,-162.138 L 28.8473,-162.321
 L 28.7494,-162.498 L 28.6421,-162.671 L 28.5256,-162.839 L 28.3997,-163.002 L 28.2645,-163.16 L 28.1199,-163.314
 L 27.967,-163.461 L 27.8067,-163.6 L 27.639,-163.732 L 27.4639,-163.856 L 27.2813,-163.973 L 27.0914,-164.082
 L 26.894,-164.183 L 26.6892,-164.277 L 26.4769,-164.363 L 26.2573,-164.441 L 26.0303,-164.512 L 25.7958,-164.575
 L 25.5539,-164.631 L 25.3046,-164.678 L 25.0479,-164.719 L 24.7837,-164.751 L 24.7837,-164.806 L 25.0242,-164.859
 L 25.2574,-164.919 L 25.4834,-164.984 L 25.7021,-165.055 L 25.9136,-165.132 L 26.1178,-165.215 L 26.3148,-165.303
 L 26.5045,-165.397 L 26.6869,-165.497 L 26.8621,-165.603 L 27.03,-165.715 L 27.1907,-165.832 L 27.3441,-165.955
 L 27.4902,-166.084 L 27.6291,-166.218 L 27.7607,-166.359 L 27.8847,-166.505 L 28.0007,-166.656 L 28.1087,-166.812
 L 28.2087,-166.974 L 28.3007,-167.142 L 28.3847,-167.314 L 28.4607,-167.492 L 28.5287,-167.676 L 28.5887,-167.865
 L 28.6407,-168.059 L 28.6847,-168.258 L 28.7207,-168.463 L 28.7487,-168.673 L 28.7687,-168.889 L 28.7807,-169.109
 L 28.7847,-169.336 L 28.7785,-169.63 L 28.7598,-169.916 L 28.7287,-170.194 L 28.6851,-170.463 L 28.6291,-170.725
 L 28.5606,-170.978 L 28.4797,-171.223 L 28.3863,-171.46 L 28.2805,-171.688 L 28.1622,-171.909 L 28.0315,-172.121
 L 27.8883,-172.325 L 27.7327,-172.521 L 27.5646,-172.708 L 27.3841,-172.887 L 27.1911,-173.058 L 26.9869,-173.22
 L 26.7727,-173.372 L 26.5484,-173.512 L 26.3142,-173.643 L 26.0699,-173.763 L 25.8157,-173.873 L 25.5514,-173.972
 L 25.2771,-174.06 L 24.9928,-174.139 L 24.6984,-174.207 L 24.3941,-174.264 L 24.0797,-174.311 L 23.7553,-174.347
 L 23.4209,-174.374 L 23.0765,-174.389 L 22.7221,-174.394 L 22.397,-174.389 L 22.0793,-174.374 L 21.7691,-174.348
 L 21.4664,-174.312 L 21.1711,-174.266 L 20.8833,-174.209 L 20.603,-174.143 L 20.3301,-174.065 L 20.0647,-173.978
 L 19.8068,-173.88 L 19.5564,-173.773 L 19.3134,-173.654 L 19.0779,-173.526 L 18.8498,-173.387 L 18.6292,-173.238
 L 18.4161,-173.079 L 18.2122,-172.91 L 18.0193,-172.734 L 17.8373,-172.549 L 17.6664,-172.357 L 17.5063,-172.156
 L 17.3573,-171.947 L 17.2192,-171.73 L 17.0921,-171.506 L 16.9759,-171.273 L 16.8707,-171.032 L 16.7765,-170.783
 L 16.6933,-170.526 L 16.621,-170.261 L 16.5596,-169.987 L 16.5093,-169.706 L 16.4699,-169.417 L 18.9247,-169.227
 L 18.9483,-169.413 L 18.9785,-169.593 L 19.0151,-169.768 L 19.0582,-169.937 L 19.1079,-170.102 L 19.1641,-170.261
 L 19.2268,-170.415 L 19.296,-170.563 L 19.3717,-170.706 L 19.454,-170.844 L 19.5428,-170.977 L 19.638,-171.104
 L 19.7398,-171.226 L 19.8481,-171.342 L 19.963,-171.454 L 20.0843,-171.56 L 20.2113,-171.66 L 20.3432,-171.754
 L 20.4798,-171.841 L 20.6213,-171.922 L 20.7676,-171.996 L 20.9187,-172.064 L 21.0746,-172.125 L 21.2354,-172.18
 L 21.401,-172.229 L 21.5714,-172.271 L 21.7466,-172.306 L 21.9267,-172.335 L 22.1116,-172.358 L 22.3013,-172.374
 L 22.4958,-172.384 L 22.6951,-172.387 L 22.9138,-172.384 L 23.1256,-172.373 L 23.3306,-172.356 L 23.5287,-172.332
 L 23.7201,-172.3 L 23.9045,-172.262 L 24.0822,-172.217 L 24.253,-172.165 L 24.417,-172.106 L 24.5741,-172.04
 L 24.7245,-171.967 L 24.8679,-171.887 L 25.0046,-171.801 L 25.1344,-171.707 L 25.2574,-171.606 L 25.3735,-171.499
 L 25.4827,-171.385 L 25.5849,-171.267 L 25.6801,-171.143 L 25.7681,-171.014 L 25.8492,-170.881 L 25.9232,-170.742
 L 25.9901,-170.598 L 26.05,-170.449 L 26.1029,-170.296 L 26.1487,-170.137 L 26.1874,-169.973 L 26.2191,-169.804
 L 26.2438,-169.63 L 26.2614,-169.451 L 26.272,-169.267 L 26.2755,-169.078 L 26.2712,-168.887 L 26.2582,-168.702
 L 26.2366,-168.522 L 26.2064,-168.347 L 26.1676,-168.177 L 26.1201,-168.013 L 26.0639,-167.854 L 25.9992,-167.7
 L 25.9258,-167.551 L 25.8437,-167.407 L 25.753,-167.269 L 25.6537,-167.136 L 25.5458,-167.009 L 25.4292,-166.886
 L 25.304,-166.769 L 25.1701,-166.657 L 25.0284,-166.551 L 24.8797,-166.452 L 24.724,-166.36 L 24.5611,-166.274
 L 24.3913,-166.196 L 24.2144,-166.124 L 24.0304,-166.059 L 23.8394,-166.001 L 23.6414,-165.95 L 23.4363,-165.905
 L 23.2241,-165.868 L 23.0049,-165.837 L 22.7787,-165.813 L 22.5454,-165.796 L 22.3051,-165.786 L 22.0577,-165.782
 L 20.7285,-165.782 L 20.7285,-163.666 L 22.1119,-163.666 L 22.3909,-163.663 L 22.6615,-163.653 L 22.9239,-163.636
 L 23.1779,-163.612 L 23.4236,-163.581 L 23.6609,-163.543 L 23.89,-163.499 L 24.1107,-163.448 L 24.3231,-163.39
 L 24.5272,-163.325 L 24.723,-163.253 L 24.9105,-163.174 L 25.0896,-163.089 L 25.2604,-162.997 L 25.4229,-162.898
 L 25.5771,-162.792 L 25.7225,-162.68 L 25.8584,-162.562 L 25.985,-162.439 L 26.1022,-162.311 L 26.21,-162.178
 L 26.3085,-162.039 L 26.3976,-161.895 L 26.4773,-161.746 L 26.5476,-161.591 L 26.6085,-161.431 L 26.6601,-161.265
 L 26.7023,-161.094 L 26.7351,-160.918 L 26.7586,-160.736 L 26.7726,-160.549 L 26.7773,-160.357 L 26.7732,-160.137
 L 26.7609,-159.923 L 26.7404,-159.717 L 26.7116,-159.517 L 26.6747,-159.324 L 26.6295,-159.138 L 26.5761,-158.959
 L 26.5145,-158.787 L 26.4447,-158.622 L 26.3667,-158.464 L 26.2805,-158.312 L 26.186,-158.168 L 26.0834,-158.03
 L 25.9725,-157.899 L 25.8534,-157.775 L 25.7261,-157.658 L 25.5916,-157.548 L 25.451,-157.445 L 25.3041,-157.349
 L 25.151,-157.261 L 24.9918,-157.179 L 24.8263,-157.105 L 24.6546,-157.037 L 24.4768,-156.977 L 24.2927,-156.924
 L 24.1024,-156.877 L 23.906,-156.838 L 23.7033,-156.806 L 23.4945,-156.782 L 23.2794,-156.764 L 23.0582,-156.753
 L 22.8307,-156.75 L 22.3837,-156.763 L 21.9617,-156.803 L 21.5645,-156.869 L 21.1922,-156.962 L 20.8448,-157.081
 L 20.5224,-157.226 L 20.2248,-157.399 L 19.9521,-157.597 L 19.7043,-157.822 L 19.4815,-158.074 L 19.2835,-158.352
 L 19.1104,-158.657 L 18.9622,-158.988 L 18.839,-159.346 L 18.7406,-159.73 L 18.6671,-160.14 L 16.1443,-159.91
 L 16.1905,-159.594 L 16.2477,-159.288 L 16.3158,-158.992 L 16.3948,-158.706 L 16.4849,-158.43 L 16.5859,-158.164
 L 16.6979,-157.907 L 16.8208,-157.66 L 16.9547,-157.423 L 17.0996,-157.196 L 17.2554,-156.978 L 17.4222,-156.77
 L 17.6,-156.572 L 17.7887,-156.384 L 17.9884,-156.206 L 18.1991,-156.038 L 18.4198,-155.879 L 18.6497,-155.731
 L 18.8888,-155.593 L 19.137,-155.465 L 19.3944,-155.347 L 19.661,-155.24 L 19.9367,-155.143 L 20.2216,-155.056
 L 20.5157,-154.979 L 20.8189,-154.913 L 21.1313,-154.857 L 21.4528,-154.811 L 21.7836,-154.775 L 22.1234,-154.749
 L 22.4725,-154.734 L 22.8307,-154.729 z
M 43.1285,-154.734 L 43.5016,-154.751 L 43.8634,-154.78 L 44.214,-154.82 L 44.5534,-154.871 L 44.8815,-154.933
 L 45.1985,-155.007 L 45.5041,-155.092 L 45.7986,-155.188 L 46.0818,-155.296 L 46.3538,-155.415 L 46.6145,-155.545
 L 46.864,-155.687 L 47.1023,-155.84 L 47.3294,-156.004 L 47.5452,-156.18 L 47.7488,-156.366 L 47.9394,-156.561
 L 48.1167,-156.766 L 48.281,-156.98 L 48.4321,-157.204 L 48.57,-157.436 L 48.6949,-157.678 L 48.8065,-157.93
 L 48.9051,-158.19 L 48.9905,-158.46 L 49.0628,-158.739 L 49.1219,-159.028 L 49.1679,-159.326 L 49.2007,-159.633
 L 49.2204,-159.95 L 49.227,-160.276 L 49.2223,-160.502 L 49.2083,-160.724 L 49.185,-160.94 L 49.1524,-161.152
 L 49.1104,-161.359 L 49.0591,-161.561 L 48.9985,-161.758 L 48.9286,-161.951 L 48.8493,-162.138 L 48.7607,-162.321
 L 48.6628,-162.498 L 48.5556,-162.671 L 48.439,-162.839 L 48.3131,-163.002 L 48.1779,-163.16 L 48.0334,-163.314
 L 47.8805,-163.461 L 47.7202,-163.6 L 47.5525,-163.732 L 47.3773,-163.856 L 47.1948,-163.973 L 47.0048,-164.082
 L 46.8074,-164.183 L 46.6026,-164.277 L 46.3904,-164.363 L 46.1708,-164.441 L 45.9437,-164.512 L 45.7093,-164.575
 L 45.4674,-164.631 L 45.2181,-164.678 L 44.9613,-164.719 L 44.6972,-164.751 L 44.6972,-164.806 L 44.9377,-164.859
 L 45.1709,-164.919 L 45.3969,-164.984 L 45.6156,-165.055 L 45.8271,-165.132 L 46.0313,-165.215 L 46.2283,-165.303
 L 46.4179,-165.397 L 46.6004,-165.497 L 46.7756,-165.603 L 46.9435,-165.715 L 47.1041,-165.832 L 47.2575,-165.955
 L 47.4037,-166.084 L 47.5426,-166.218 L 47.6742,-166.359 L 47.7982,-166.505 L 47.9142,-166.656 L 48.0222,-166.812
 L 48.1222,-166.974 L 48.2142,-167.142 L 48.2982,-167.314 L 48.3742,-167.492 L 48.4422,-167.676 L 48.5022,-167.865
 L 48.5542,-168.059 L 48.5982,-168.258 L 48.6342,-168.463 L 48.6622,-168.673 L 48.6822,-168.889 L 48.6942,-169.109
 L 48.6982,-169.336 L 48.692,-169.63 L 48.6733,-169.916 L 48.6422,-170.194 L 48.5986,-170.463 L 48.5426,-170.725
 L 48.4741,-170.978 L 48.3932,-171.223 L 48.2998,-171.46 L 48.194,-171.688 L 48.0757,-171.909 L 47.945,-172.121
 L 47.8018,-172.325 L 47.6462,-172.521 L 47.4781,-172.708 L 47.2976,-172.887 L 47.1046,-173.058 L 46.9004,-173.22
 L 46.6862,-173.372 L 46.4619,-173.512 L 46.2277,-173.643 L 45.9834,-173.763 L 45.7291,-173.873 L 45.4648,-173.972
 L 45.1905,-174.06 L 44.9062,-174.139 L 44.6119,-174.207 L 44.3075,-174.264 L 43.9932,-174.311 L 43.6688,-174.347
 L 43.3344,-174.374 L 42.99,-174.389 L 42.6356,-174.394 L 42.3105,-174.389 L 41.9928,-174.374 L 41.6826,-174.348
 L 41.3798,-174.312 L 41.0846,-174.266 L 40.7968,-174.209 L 40.5164,-174.143 L 40.2436,-174.065 L 39.9782,-173.978
 L 39.7203,-173.88 L 39.4698,-173.773 L 39.2268,-173.654 L 38.9913,-173.526 L 38.7633,-173.387 L 38.5427,-173.238
 L 38.3296,-173.079 L 38.1257,-172.91 L 37.9328,-172.734 L 37.7508,-172.549 L 37.5798,-172.357 L 37.4198,-172.156
 L 37.2708,-171.947 L 37.1327,-171.73 L 37.0055,-171.506 L 36.8894,-171.273 L 36.7842,-171.032 L 36.69,-170.783
 L 36.6067,-170.526 L 36.5344,-170.261 L 36.4731,-169.987 L 36.4228,-169.706 L 36.3834,-169.417 L 38.8382,-169.227
 L 38.8618,-169.413 L 38.8919,-169.593 L 38.9286,-169.768 L 38.9717,-169.937 L 39.0214,-170.102 L 39.0776,-170.261
 L 39.1403,-170.415 L 39.2095,-170.563 L 39.2852,-170.706 L 39.3675,-170.844 L 39.4562,-170.977 L 39.5515,-171.104
 L 39.6533,-171.226 L 39.7616,-171.342 L 39.8764,-171.454 L 39.9978,-171.56 L 40.1248,-171.66 L 40.2566,-171.754
 L 40.3933,-171.841 L 40.5348,-171.922 L 40.6811,-171.996 L 40.8322,-172.064 L 40.9881,-172.125 L 41.1489,-172.18
 L 41.3145,-172.229 L 41.4849,-172.271 L 41.6601,-172.306 L 41.8402,-172.335 L 42.025,-172.358 L 42.2147,-172.374
 L 42.4093,-172.384 L 42.6086,-172.387 L 42.8273,-172.384 L 43.0391,-172.373 L 43.2441,-172.356 L 43.4422,-172.332
 L 43.6335,-172.3 L 43.818,-172.262 L 43.9957,-172.217 L 44.1665,-172.165 L 44.3305,-172.106 L 44.4876,-172.04
 L 44.6379,-171.967 L 44.7814,-171.887 L 44.9181,-171.801 L 45.0479,-171.707 L 45.1709,-171.606 L 45.287,-171.499
 L 45.3962,-171.385 L 45.4984,-171.267 L 45.5935,-171.143 L 45.6816,-171.014 L 45.7626,-170.881 L 45.8367,-170.742
 L 45.9036,-170.598 L 45.9635,-170.449 L 46.0163,-170.296 L 46.0621,-170.137 L 46.1009,-169.973 L 46.1326,-169.804
 L 46.1573,-169.63 L 46.1749,-169.451 L 46.1855,-169.267 L 46.189,-169.078 L 46.1847,-168.887 L 46.1717,-168.702
 L 46.1501,-168.522 L 46.1199,-168.347 L 46.081,-168.177 L 46.0335,-168.013 L 45.9774,-167.854 L 45.9126,-167.7
 L 45.8392,-167.551 L 45.7572,-167.407 L 45.6665,-167.269 L 45.5672,-167.136 L 45.4593,-167.009 L 45.3427,-166.886
 L 45.2175,-166.769 L 45.0836,-166.657 L 44.9419,-166.551 L 44.7932,-166.452 L 44.6374,-166.36 L 44.4746,-166.274
 L 44.3048,-166.196 L 44.1279,-166.124 L 43.9439,-166.059 L 43.7529,-166.001 L 43.5548,-165.95 L 43.3497,-165.905
 L 43.1376,-165.868 L 42.9184,-165.837 L 42.6922,-165.813 L 42.4589,-165.796 L 42.2186,-165.786 L 41.9712,-165.782
 L 40.642,-165.782 L 40.642,-163.666 L 42.0254,-163.666 L 42.3044,-163.663 L 42.575,-163.653 L 42.8373,-163.636
 L 43.0913,-163.612 L 43.337,-163.581 L 43.5744,-163.543 L 43.8035,-163.499 L 44.0242,-163.448 L 44.2366,-163.39
 L 44.4407,-163.325 L 44.6365,-163.253 L 44.8239,-163.174 L 45.0031,-163.089 L 45.1739,-162.997 L 45.3364,-162.898
 L 45.4906,-162.792 L 45.6359,-162.68 L 45.7719,-162.562 L 45.8985,-162.439 L 46.0157,-162.311 L 46.1235,-162.178
 L 46.222,-162.039 L 46.311,-161.895 L 46.3907,-161.746 L 46.4611,-161.591 L 46.522,-161.431 L 46.5736,-161.265
 L 46.6158,-161.094 L 46.6486,-160.918 L 46.672,-160.736 L 46.6861,-160.549 L 46.6908,-160.357 L 46.6867,-160.137
 L 46.6744,-159.923 L 46.6538,-159.717 L 46.6251,-159.517 L 46.5881,-159.324 L 46.543,-159.138 L 46.4896,-158.959
 L 46.428,-158.787 L 46.3582,-158.622 L 46.2802,-158.464 L 46.1939,-158.312 L 46.0995,-158.168 L 45.9968,-158.03
 L 45.886,-157.899 L 45.7669,-157.775 L 45.6396,-157.658 L 45.5051,-157.548 L 45.3644,-157.445 L 45.2176,-157.349
 L 45.0645,-157.261 L 44.9052,-157.179 L 44.7398,-157.105 L 44.5681,-157.037 L 44.3902,-156.977 L 44.2062,-156.924
 L 44.0159,-156.877 L 43.8195,-156.838 L 43.6168,-156.806 L 43.4079,-156.782 L 43.1929,-156.764 L 42.9716,-156.753
 L 42.7442,-156.75 L 42.2972,-156.763 L 41.8751,-156.803 L 41.478,-156.869 L 41.1057,-156.962 L 40.7583,-157.081
 L 40.4358,-157.226 L 40.1383,-157.399 L 39.8656,-157.597 L 39.6178,-157.822 L 39.3949,-158.074 L 39.197,-158.352
 L 39.0239,-158.657 L 38.8757,-158.988 L 38.7524,-159.346 L 38.6541,-159.73 L 38.5806,-160.14 L 36.0578,-159.91
 L 36.104,-159.594 L 36.1611,-159.288 L 36.2292,-158.992 L 36.3083,-158.706 L 36.3984,-158.43 L 36.4994,-158.164
 L 36.6113,-157.907 L 36.7343,-157.66 L 36.8682,-157.423 L 37.0131,-157.196 L 37.1689,-156.978 L 37.3357,-156.77
 L 37.5135,-156.572 L 37.7022,-156.384 L 37.9019,-156.206 L 38.1126,-156.038 L 38.3333,-155.879 L 38.5632,-155.731
 L 38.8023,-155.593 L 39.0505,-155.465 L 39.3079,-155.347 L 39.5745,-155.24 L 39.8502,-155.143 L 40.1351,-155.056
 L 40.4292,-154.979 L 40.7324,-154.913 L 41.0448,-154.857 L 41.3663,-154.811 L 41.697,-154.775 L 42.0369,-154.749
 L 42.386,-154.734 L 42.7442,-154.729 z
M 8.12849,-154.734 L 8.50157,-154.751 L 8.86342,-154.78 L 9.21404,-154.82 L 9.55341,-154.871 L 9.88155,-154.933
 L 10.1985,-155.007 L 10.5041,-155.092 L 10.7986,-155.188 L 11.0818,-155.296 L 11.3538,-155.415 L 11.6145,-155.545
 L 11.864,-155.687 L 12.1023,-155.84 L 12.3294,-156.004 L 12.5452,-156.18 L 12.7488,-156.366 L 12.9394,-156.561
 L 13.1167,-156.766 L 13.281,-156.98 L 13.4321,-157.204 L 13.57,-157.436 L 13.6949,-157.678 L 13.8065,-157.93
 L 13.9051,-158.19 L 13.9905,-158.46 L 14.0628,-158.739 L 14.1219,-159.028 L 14.1679,-159.326 L 14.2007,-159.633
 L 14.2204,-159.95 L 14.227,-160.276 L 14.2223,-160.502 L 14.2083,-160.724 L 14.185,-160.94 L 14.1524,-161.152
 L 14.1104,-161.359 L 14.0591,-161.561 L 13.9985,-161.758 L 13.9286,-161.951 L 13.8493,-162.138 L 13.7607,-162.321
 L 13.6628,-162.498 L 13.5556,-162.671 L 13.439,-162.839 L 13.3131,-163.002 L 13.1779,-163.16 L 13.0334,-163.314
 L 12.8805,-163.461 L 12.7202,-163.6 L 12.5525,-163.732 L 12.3773,-163.856 L 12.1948,-163.973 L 12.0048,-164.082
 L 11.8074,-164.183 L 11.6026,-164.277 L 11.3904,-164.363 L 11.1708,-164.441 L 10.9437,-164.512 L 10.7093,-164.575
 L 10.4674,-164.631 L 10.2181,-164.678 L 9.96133,-164.719 L 9.69719,-164.751 L 9.69719,-164.806 L 9.93768,-164.859
 L 10.1709,-164.919 L 10.3969,-164.984 L 10.6156,-165.055 L 10.8271,-165.132 L 11.0313,-165.215 L 11.2283,-165.303
 L 11.4179,-165.397 L 11.6004,-165.497 L 11.7756,-165.603 L 11.9435,-165.715 L 12.1041,-165.832 L 12.2575,-165.955
 L 12.4037,-166.084 L 12.5426,-166.218 L 12.6742,-166.359 L 12.7982,-166.505 L 12.9142,-166.656 L 13.0222,-166.812
 L 13.1222,-166.974 L 13.2142,-167.142 L 13.2982,-167.314 L 13.3742,-167.492 L 13.4422,-167.676 L 13.5022,-167.865
 L 13.5542,-168.059 L 13.5982,-168.258 L 13.6342,-168.463 L 13.6622,-168.673 L 13.6822,-168.889 L 13.6942,-169.109
 L 13.6982,-169.336 L 13.692,-169.63 L 13.6733,-169.916 L 13.6422,-170.194 L 13.5986,-170.463 L 13.5426,-170.725
 L 13.4741,-170.978 L 13.3932,-171.223 L 13.2998,-171.46 L 13.194,-171.688 L 13.0757,-171.909 L 12.945,-172.121
 L 12.8018,-172.325 L 12.6462,-172.521 L 12.4781,-172.708 L 12.2976,-172.887 L 12.1046,-173.058 L 11.9004,-173.22
 L 11.6862,-173.372 L 11.4619,-173.512 L 11.2277,-173.643 L 10.9834,-173.763 L 10.7291,-173.873 L 10.4648,-173.972
 L 10.1905,-174.06 L 9.90622,-174.139 L 9.61189,-174.207 L 9.30754,-174.264 L 8.99318,-174.311 L 8.66881,-174.347
 L 8.33441,-174.374 L 7.99001,-174.389 L 7.63559,-174.394 L 7.31046,-174.389 L 6.99278,-174.374 L 6.68257,-174.348
 L 6.37984,-174.312 L 6.08458,-174.266 L 5.79678,-174.209 L 5.51645,-174.143 L 5.24359,-174.065 L 4.9782,-173.978
 L 4.72028,-173.88 L 4.46983,-173.773 L 4.22684,-173.654 L 3.99133,-173.526 L 3.76328,-173.387 L 3.54271,-173.238
 L 3.32959,-173.079 L 3.1257,-172.91 L 2.93277,-172.734 L 2.75082,-172.549 L 2.57983,-172.357 L 2.4198,-172.156
 L 2.27075,-171.947 L 2.13266,-171.73 L 2.00554,-171.506 L 1.88939,-171.273 L 1.78419,-171.032 L 1.68999,-170.783
 L 1.60674,-170.526 L 1.53444,-170.261 L 1.47313,-169.987 L 1.42278,-169.706 L 1.38339,-169.417 L 3.8382,-169.227
 L 3.8618,-169.413 L 3.89192,-169.593 L 3.92856,-169.768 L 3.97171,-169.937 L 4.02139,-170.102 L 4.07758,-170.261
 L 4.14027,-170.415 L 4.20949,-170.563 L 4.28523,-170.706 L 4.36748,-170.844 L 4.45624,-170.977 L 4.55151,-171.104
 L 4.65331,-171.226 L 4.76163,-171.342 L 4.87645,-171.454 L 4.99779,-171.56 L 5.1248,-171.66 L 5.25664,-171.754
 L 5.3933,-171.841 L 5.53477,-171.922 L 5.68106,-171.996 L 5.83218,-172.064 L 5.98813,-172.125 L 6.1489,-172.18
 L 6.31448,-172.229 L 6.48488,-172.271 L 6.66011,-172.306 L 6.84016,-172.335 L 7.02504,-172.358 L 7.21474,-172.374
 L 7.40926,-172.384 L 7.6086,-172.387 L 7.82726,-172.384 L 8.03908,-172.373 L 8.24406,-172.356 L 8.44221,-172.332
 L 8.63354,-172.3 L 8.81802,-172.262 L 8.99568,-172.217 L 9.16649,-172.165 L 9.33047,-172.106 L 9.48763,-172.04
 L 9.63794,-171.967 L 9.78142,-171.887 L 9.91806,-171.801 L 10.0479,-171.707 L 10.1709,-171.606 L 10.287,-171.499
 L 10.3962,-171.385 L 10.4984,-171.267 L 10.5935,-171.143 L 10.6816,-171.014 L 10.7626,-170.881 L 10.8367,-170.742
 L 10.9036,-170.598 L 10.9635,-170.449 L 11.0163,-170.296 L 11.0621,-170.137 L 11.1009,-169.973 L 11.1326,-169.804
 L 11.1573,-169.63 L 11.1749,-169.451 L 11.1855,-169.267 L 11.189,-169.078 L 11.1847,-168.887 L 11.1717,-168.702
 L 11.1501,-168.522 L 11.1199,-168.347 L 11.081,-168.177 L 11.0335,-168.013 L 10.9774,-167.854 L 10.9126,-167.7
 L 10.8392,-167.551 L 10.7572,-167.407 L 10.6665,-167.269 L 10.5672,-167.136 L 10.4593,-167.009 L 10.3427,-166.886
 L 10.2175,-166.769 L 10.0836,-166.657 L 9.94193,-166.551 L 9.7932,-166.452 L 9.63744,-166.36 L 9.47462,-166.274
 L 9.30476,-166.196 L 9.12785,-166.124 L 8.94389,-166.059 L 8.7529,-166.001 L 8.55484,-165.95 L 8.34975,-165.905
 L 8.1376,-165.868 L 7.91841,-165.837 L 7.69218,-165.813 L 7.45889,-165.796 L 7.21857,-165.786 L 6.97119,-165.782
 L 5.642,-165.782 L 5.642,-163.666 L 7.02539,-163.666 L 7.30435,-163.663 L 7.57501,-163.653 L 7.83733,-163.636
 L 8.09134,-163.612 L 8.33704,-163.581 L 8.5744,-163.543 L 8.80345,-163.499 L 9.02419,-163.448 L 9.2366,-163.39
 L 9.4407,-163.325 L 9.63649,-163.253 L 9.82394,-163.174 L 10.0031,-163.089 L 10.1739,-162.997 L 10.3364,-162.898
 L 10.4906,-162.792 L 10.6359,-162.68 L 10.7719,-162.562 L 10.8985,-162.439 L 11.0157,-162.311 L 11.1235,-162.178
 L 11.222,-162.039 L 11.311,-161.895 L 11.3907,-161.746 L 11.4611,-161.591 L 11.522,-161.431 L 11.5736,-161.265
 L 11.6158,-161.094 L 11.6486,-160.918 L 11.672,-160.736 L 11.6861,-160.549 L 11.6908,-160.357 L 11.6867,-160.137
 L 11.6744,-159.923 L 11.6538,-159.717 L 11.6251,-159.517 L 11.5881,-159.324 L 11.543,-159.138 L 11.4896,-158.959
 L 11.428,-158.787 L 11.3582,-158.622 L 11.2802,-158.464 L 11.1939,-158.312 L 11.0995,-158.168 L 10.9968,-158.03
 L 10.886,-157.899 L 10.7669,-157.775 L 10.6396,-157.658 L 10.5051,-157.548 L 10.3644,-157.445 L 10.2176,-157.349
 L 10.0645,-157.261 L 9.90524,-157.179 L 9.73978,-157.105 L 9.5681,-157.037 L 9.39024,-156.977 L 9.20618,-156.924
 L 9.01591,-156.877 L 8.81946,-156.838 L 8.61681,-156.806 L 8.40794,-156.782 L 8.1929,-156.764 L 7.97165,-156.753
 L 7.74419,-156.75 L 7.29721,-156.763 L 6.87514,-156.803 L 6.47797,-156.869 L 6.1057,-156.962 L 5.75832,-157.081
 L 5.43584,-157.226 L 5.13826,-157.399 L 4.86559,-157.597 L 4.61781,-157.822 L 4.39494,-158.074 L 4.19696,-158.352
 L 4.0239,-158.657 L 3.87572,-158.988 L 3.75244,-159.346 L 3.65407,-159.73 L 3.5806,-160.14 L 1.05779,-159.91
 L 1.10397,-159.594 L 1.16112,-159.288 L 1.22923,-158.992 L 1.30832,-158.706 L 1.39836,-158.43 L 1.49937,-158.164
 L 1.61134,-157.907 L 1.7343,-157.66 L 1.86819,-157.423 L 2.01308,-157.196 L 2.16891,-156.978 L 2.33572,-156.77
 L 2.51349,-156.572 L 2.70222,-156.384 L 2.90193,-156.206 L 3.11259,-156.038 L 3.33333,-155.879 L 3.56322,-155.731
 L 3.80229,-155.593 L 4.05052,-155.465 L 4.30791,-155.347 L 4.57448,-155.24 L 4.8502,-155.143 L 5.13509,-155.056
 L 5.42915,-154.979 L 5.73238,-154.913 L 6.04477,-154.857 L 6.36632,-154.811 L 6.69704,-154.775 L 7.03693,-154.749
 L 7.38597,-154.734 L 7.74419,-154.729 z
M 353.798,-154.739 L 354.195,-154.77 L 354.581,-154.822 L 354.954,-154.894 L 355.316,-154.987 L 355.666,-155.101
 L 356.004,-155.235 L 356.33,-155.39 L 356.644,-155.566 L 356.946,-155.762 L 357.236,-155.979 L 357.514,-156.216
 L 357.781,-156.475 L 358.035,-156.754 L 358.277,-157.053 L 358.508,-157.373 L 358.726,-157.713 L 358.929,-158.07
 L 359.119,-158.445 L 359.294,-158.838 L 359.456,-159.249 L 359.603,-159.677 L 359.737,-160.124 L 359.856,-160.588
 L 359.961,-161.07 L 360.053,-161.569 L 360.13,-162.087 L 360.193,-162.622 L 360.242,-163.175 L 360.277,-163.746
 L 360.298,-164.335 L 360.305,-164.941 L 360.299,-165.524 L 360.28,-166.088 L 360.248,-166.633 L 360.203,-167.16
 L 360.145,-167.668 L 360.074,-168.158 L 359.991,-168.629 L 359.895,-169.081 L 359.786,-169.515 L 359.664,-169.931
 L 359.53,-170.328 L 359.382,-170.706 L 359.222,-171.066 L 359.049,-171.407 L 358.863,-171.73 L 358.664,-172.034
 L 358.453,-172.32 L 358.23,-172.588 L 357.994,-172.836 L 357.747,-173.067 L 357.487,-173.279 L 357.216,-173.473
 L 356.932,-173.648 L 356.636,-173.804 L 356.329,-173.943 L 356.009,-174.063 L 355.677,-174.164 L 355.333,-174.247
 L 354.977,-174.311 L 354.608,-174.358 L 354.228,-174.385 L 353.836,-174.394 L 353.466,-174.388 L 353.107,-174.368
 L 352.758,-174.334 L 352.419,-174.287 L 352.091,-174.227 L 351.773,-174.153 L 351.465,-174.066 L 351.167,-173.965
 L 350.88,-173.852 L 350.603,-173.724 L 350.336,-173.583 L 350.08,-173.429 L 349.834,-173.262 L 349.598,-173.081
 L 349.372,-172.886 L 349.157,-172.679 L 348.953,-172.459 L 348.763,-172.23 L 348.585,-171.99 L 348.421,-171.741
 L 348.27,-171.481 L 348.132,-171.212 L 348.007,-170.932 L 347.895,-170.643 L 347.797,-170.343 L 347.712,-170.033
 L 347.639,-169.714 L 347.58,-169.384 L 347.534,-169.045 L 347.501,-168.695 L 347.482,-168.335 L 347.475,-167.966
 L 347.481,-167.606 L 347.499,-167.255 L 347.529,-166.913 L 347.572,-166.58 L 347.626,-166.256 L 347.692,-165.941
 L 347.771,-165.635 L 347.862,-165.338 L 347.964,-165.05 L 348.079,-164.771 L 348.206,-164.501 L 348.345,-164.24
 L 348.496,-163.988 L 348.659,-163.745 L 348.834,-163.511 L 349.021,-163.287 L 349.218,-163.073 L 349.424,-162.873
 L 349.637,-162.687 L 349.859,-162.515 L 350.088,-162.357 L 350.326,-162.212 L 350.571,-162.081 L 350.825,-161.964
 L 351.087,-161.861 L 351.356,-161.772 L 351.634,-161.696 L 351.92,-161.634 L 352.214,-161.586 L 352.516,-161.551
 L 352.826,-161.53 L 353.144,-161.524 L 353.34,-161.526 L 353.534,-161.535 L 353.725,-161.55 L 353.915,-161.57
 L 354.102,-161.596 L 354.288,-161.628 L 354.471,-161.665 L 354.653,-161.708 L 354.833,-161.757 L 355.01,-161.812
 L 355.186,-161.873 L 355.359,-161.939 L 355.531,-162.011 L 355.7,-162.089 L 355.868,-162.173 L 356.033,-162.263
 L 356.194,-162.357 L 356.35,-162.455 L 356.499,-162.557 L 356.643,-162.662 L 356.78,-162.772 L 356.911,-162.885
 L 357.036,-163.002 L 357.155,-163.122 L 357.268,-163.247 L 357.376,-163.375 L 357.477,-163.507 L 357.572,-163.642
 L 357.66,-163.782 L 357.743,-163.925 L 357.82,-164.072 L 357.891,-164.223 L 357.88,-163.776 L 357.86,-163.343
 L 357.832,-162.923 L 357.795,-162.516 L 357.75,-162.122 L 357.696,-161.741 L 357.633,-161.373 L 357.562,-161.018
 L 357.482,-160.677 L 357.394,-160.348 L 357.297,-160.032 L 357.192,-159.729 L 357.078,-159.439 L 356.955,-159.163
 L 356.824,-158.899 L 356.684,-158.648 L 356.536,-158.412 L 356.381,-158.191 L 356.218,-157.985 L 356.048,-157.794
 L 355.871,-157.618 L 355.686,-157.458 L 355.494,-157.313 L 355.294,-157.184 L 355.087,-157.069 L 354.872,-156.97
 L 354.65,-156.886 L 354.421,-156.817 L 354.184,-156.764 L 353.94,-156.726 L 353.688,-156.703 L 353.429,-156.695
 L 353.124,-156.705 L 352.833,-156.733 L 352.555,-156.779 L 352.291,-156.845 L 352.041,-156.928 L 351.805,-157.031
 L 351.583,-157.152 L 351.374,-157.292 L 351.179,-157.451 L 350.998,-157.628 L 350.831,-157.824 L 350.677,-158.038
 L 350.538,-158.271 L 350.412,-158.523 L 350.299,-158.793 L 350.201,-159.082 L 347.868,-158.716 L 347.944,-158.458
 L 348.026,-158.209 L 348.114,-157.969 L 348.208,-157.738 L 348.308,-157.516 L 348.414,-157.303 L 348.525,-157.099
 L 348.643,-156.904 L 348.767,-156.718 L 348.897,-156.541 L 349.032,-156.374 L 349.174,-156.215 L 349.322,-156.066
 L 349.476,-155.925 L 349.635,-155.794 L 349.801,-155.671 L 349.973,-155.557 L 350.152,-155.45 L 350.338,-155.351
 L 350.531,-155.259 L 350.731,-155.174 L 350.938,-155.097 L 351.152,-155.027 L 351.373,-154.964 L 351.6,-154.909
 L 351.835,-154.861 L 352.076,-154.821 L 352.325,-154.788 L 352.58,-154.762 L 352.843,-154.744 L 353.112,-154.732
 L 353.388,-154.729 z
M 353.513,-163.454 L 353.305,-163.468 L 353.102,-163.492 L 352.904,-163.525 L 352.713,-163.568 L 352.527,-163.62
 L 352.346,-163.682 L 352.171,-163.753 L 352.002,-163.833 L 351.838,-163.924 L 351.68,-164.023 L 351.528,-164.132
 L 351.381,-164.251 L 351.24,-164.379 L 351.104,-164.516 L 350.974,-164.663 L 350.851,-164.818 L 350.736,-164.98
 L 350.629,-165.149 L 350.529,-165.325 L 350.438,-165.507 L 350.354,-165.697 L 350.279,-165.893 L 350.211,-166.096
 L 350.152,-166.306 L 350.1,-166.522 L 350.056,-166.746 L 350.021,-166.976 L 349.993,-167.213 L 349.973,-167.457
 L 349.961,-167.708 L 349.957,-167.966 L 349.961,-168.218 L 349.973,-168.464 L 349.993,-168.704 L 350.021,-168.937
 L 350.056,-169.163 L 350.1,-169.382 L 350.152,-169.595 L 350.211,-169.802 L 350.279,-170.001 L 350.354,-170.194
 L 350.438,-170.381 L 350.529,-170.561 L 350.629,-170.734 L 350.736,-170.9 L 350.851,-171.06 L 350.974,-171.214
 L 351.104,-171.359 L 351.24,-171.495 L 351.382,-171.622 L 351.529,-171.739 L 351.683,-171.847 L 351.842,-171.945
 L 352.007,-172.034 L 352.178,-172.114 L 352.355,-172.184 L 352.537,-172.245 L 352.725,-172.297 L 352.92,-172.339
 L 353.12,-172.372 L 353.325,-172.395 L 353.537,-172.41 L 353.754,-172.414 L 353.974,-172.409 L 354.187,-172.392
 L 354.395,-172.365 L 354.598,-172.326 L 354.795,-172.277 L 354.986,-172.217 L 355.172,-172.145 L 355.351,-172.063
 L 355.526,-171.97 L 355.695,-171.866 L 355.858,-171.751 L 356.015,-171.625 L 356.167,-171.487 L 356.313,-171.339
 L 356.454,-171.18 L 356.589,-171.01 L 356.717,-170.831 L 356.837,-170.645 L 356.949,-170.452 L 357.052,-170.252
 L 357.147,-170.045 L 357.234,-169.831 L 357.312,-169.61 L 357.382,-169.381 L 357.444,-169.146 L 357.498,-168.904
 L 357.544,-168.654 L 357.581,-168.398 L 357.61,-168.134 L 357.63,-167.863 L 357.643,-167.586 L 357.647,-167.301
 L 357.645,-167.161 L 357.639,-167.024 L 357.628,-166.888 L 357.614,-166.754 L 357.596,-166.622 L 357.573,-166.491
 L 357.547,-166.363 L 357.516,-166.237 L 357.482,-166.112 L 357.443,-165.99 L 357.4,-165.869 L 357.353,-165.75
 L 357.302,-165.633 L 357.247,-165.518 L 357.188,-165.405 L 357.125,-165.294 L 357.058,-165.185 L 356.988,-165.08
 L 356.915,-164.977 L 356.839,-164.878 L 356.761,-164.782 L 356.679,-164.689 L 356.594,-164.599 L 356.506,-164.512
 L 356.415,-164.429 L 356.321,-164.348 L 356.224,-164.271 L 356.124,-164.197 L 356.021,-164.125 L 355.915,-164.057
 L 355.806,-163.993 L 355.694,-163.931 L 355.58,-163.872 L 355.464,-163.818 L 355.348,-163.767 L 355.23,-163.72
 L 355.111,-163.677 L 354.991,-163.637 L 354.87,-163.602 L 354.748,-163.57 L 354.624,-163.542 L 354.5,-163.517
 L 354.374,-163.496 L 354.247,-163.479 L 354.119,-163.466 L 353.99,-163.457 L 353.859,-163.451 L 353.727,-163.449
 z
M 57.9795,-154.736 L 58.3616,-154.756 L 58.7328,-154.79 L 59.0932,-154.837 L 59.4427,-154.898 L 59.7814,-154.973
 L 60.1092,-155.061 L 60.4262,-155.163 L 60.7323,-155.278 L 61.0275,-155.407 L 61.3118,-155.549 L 61.5853,-155.705
 L 61.848,-155.875 L 62.0997,-156.058 L 62.3407,-156.255 L 62.5707,-156.465 L 62.7883,-156.687 L 62.9919,-156.919
 L 63.1815,-157.161 L 63.357,-157.413 L 63.5185,-157.676 L 63.6659,-157.948 L 63.7993,-158.23 L 63.9186,-158.523
 L 64.0239,-158.825 L 64.1152,-159.138 L 64.1924,-159.461 L 64.2556,-159.794 L 64.3047,-160.136 L 64.3398,-160.489
 L 64.3609,-160.852 L 64.3679,-161.225 L 64.3614,-161.554 L 64.3418,-161.874 L 64.309,-162.187 L 64.2632,-162.492
 L 64.2043,-162.789 L 64.1324,-163.078 L 64.0473,-163.359 L 63.9492,-163.632 L 63.8379,-163.898 L 63.7136,-164.156
 L 63.5762,-164.406 L 63.4257,-164.648 L 63.2622,-164.882 L 63.0855,-165.109 L 62.8958,-165.327 L 62.6929,-165.538
 L 62.4791,-165.738 L 62.2563,-165.926 L 62.0245,-166.1 L 61.7838,-166.262 L 61.5341,-166.411 L 61.2755,-166.546
 L 61.0079,-166.669 L 60.7314,-166.779 L 60.4459,-166.876 L 60.1515,-166.96 L 59.8481,-167.031 L 59.5358,-167.089
 L 59.2145,-167.134 L 58.8843,-167.167 L 58.5451,-167.186 L 58.1969,-167.193 L 57.905,-167.188 L 57.619,-167.174
 L 57.3392,-167.15 L 57.0653,-167.116 L 56.7975,-167.073 L 56.5357,-167.021 L 56.28,-166.959 L 56.0303,-166.887
 L 55.7867,-166.806 L 55.549,-166.716 L 55.3175,-166.616 L 55.0919,-166.506 L 54.8724,-166.387 L 54.6589,-166.258
 L 54.4515,-166.12 L 54.2501,-165.972 L 54.6163,-172.035 L 63.2557,-172.035 L 63.2557,-174.11 L 52.3921,-174.11
 L 51.7547,-163.829 L 54.1417,-163.829 L 54.2485,-163.921 L 54.3553,-164.009 L 54.4621,-164.094 L 54.5689,-164.175
 L 54.6757,-164.253 L 54.7825,-164.328 L 54.8893,-164.399 L 54.9961,-164.467 L 55.1029,-164.531 L 55.2097,-164.592
 L 55.3165,-164.65 L 55.4233,-164.704 L 55.5301,-164.755 L 55.6369,-164.802 L 55.7437,-164.846 L 55.8505,-164.887
 L 55.9579,-164.925 L 56.0663,-164.96 L 56.1758,-164.993 L 56.2863,-165.023 L 56.3979,-165.052 L 56.5105,-165.077
 L 56.6242,-165.1 L 56.739,-165.121 L 56.8548,-165.139 L 56.9716,-165.155 L 57.0896,-165.169 L 57.2086,-165.179
 L 57.3286,-165.188 L 57.4497,-165.194 L 57.5719,-165.198 L 57.6951,-165.199 L 57.9294,-165.195 L 58.1576,-165.182
 L 58.3797,-165.16 L 58.5958,-165.129 L 58.8057,-165.09 L 59.0095,-165.043 L 59.2073,-164.986 L 59.3989,-164.921
 L 59.5845,-164.847 L 59.7639,-164.765 L 59.9373,-164.673 L 60.1046,-164.573 L 60.2657,-164.465 L 60.4208,-164.347
 L 60.5698,-164.221 L 60.7127,-164.087 L 60.8482,-163.945 L 60.975,-163.798 L 61.093,-163.645 L 61.2023,-163.488
 L 61.3028,-163.324 L 61.3946,-163.156 L 61.4777,-162.981 L 61.552,-162.802 L 61.6175,-162.617 L 61.6744,-162.427
 L 61.7224,-162.231 L 61.7618,-162.03 L 61.7924,-161.823 L 61.8142,-161.611 L 61.8273,-161.394 L 61.8317,-161.171
 L 61.8274,-160.915 L 61.8143,-160.666 L 61.7926,-160.424 L 61.7622,-160.189 L 61.7231,-159.961 L 61.6753,-159.74
 L 61.6188,-159.525 L 61.5537,-159.318 L 61.4798,-159.117 L 61.3973,-158.924 L 61.306,-158.738 L 61.2061,-158.558
 L 61.0975,-158.385 L 60.9802,-158.22 L 60.8542,-158.061 L 60.7195,-157.909 L 60.5771,-157.765 L 60.4281,-157.631
 L 60.2724,-157.506 L 60.11,-157.39 L 59.941,-157.283 L 59.7652,-157.186 L 59.5828,-157.098 L 59.3938,-157.019
 L 59.198,-156.95 L 58.9956,-156.889 L 58.7865,-156.838 L 58.5707,-156.797 L 58.3483,-156.764 L 58.1192,-156.741
 L 57.8834,-156.727 L 57.6409,-156.722 L 57.2503,-156.733 L 56.8786,-156.767 L 56.526,-156.822 L 56.1923,-156.9
 L 55.8775,-156.999 L 55.5817,-157.121 L 55.3049,-157.265 L 55.0471,-157.431 L 54.8082,-157.619 L 54.5883,-157.83
 L 54.3873,-158.062 L 54.2054,-158.317 L 54.0423,-158.594 L 53.8983,-158.893 L 53.7732,-159.214 L 53.6671,-159.557
 L 51.1987,-159.272 L 51.2577,-159 L 51.3261,-158.736 L 51.4039,-158.48 L 51.4911,-158.232 L 51.5878,-157.993
 L 51.694,-157.761 L 51.8095,-157.538 L 51.9345,-157.323 L 52.0689,-157.116 L 52.2127,-156.917 L 52.366,-156.726
 L 52.5287,-156.544 L 52.7008,-156.369 L 52.8823,-156.203 L 53.0733,-156.045 L 53.2737,-155.895 L 53.4829,-155.754
 L 53.7001,-155.622 L 53.9253,-155.499 L 54.1586,-155.385 L 54.4,-155.28 L 54.6494,-155.184 L 54.9069,-155.098
 L 55.1724,-155.02 L 55.446,-154.952 L 55.7276,-154.893 L 56.0173,-154.843 L 56.315,-154.802 L 56.6208,-154.77
 L 56.9347,-154.747 L 57.2566,-154.733 L 57.5865,-154.729 z
M 659.979,-154.736 L 660.362,-154.756 L 660.733,-154.79 L 661.093,-154.837 L 661.443,-154.898 L 661.781,-154.973
 L 662.109,-155.061 L 662.426,-155.163 L 662.732,-155.278 L 663.027,-155.407 L 663.312,-155.549 L 663.585,-155.705
 L 663.848,-155.875 L 664.1,-156.058 L 664.341,-156.255 L 664.571,-156.465 L 664.788,-156.687 L 664.992,-156.919
 L 665.181,-157.161 L 665.357,-157.413 L 665.518,-157.676 L 665.666,-157.948 L 665.799,-158.23 L 665.919,-158.523
 L 666.024,-158.825 L 666.115,-159.138 L 666.192,-159.461 L 666.256,-159.794 L 666.305,-160.136 L 666.34,-160.489
 L 666.361,-160.852 L 666.368,-161.225 L 666.361,-161.554 L 666.342,-161.874 L 666.309,-162.187 L 666.263,-162.492
 L 666.204,-162.789 L 666.132,-163.078 L 666.047,-163.359 L 665.949,-163.632 L 665.838,-163.898 L 665.714,-164.156
 L 665.576,-164.406 L 665.426,-164.648 L 665.262,-164.882 L 665.085,-165.109 L 664.896,-165.327 L 664.693,-165.538
 L 664.479,-165.738 L 664.256,-165.926 L 664.025,-166.1 L 663.784,-166.262 L 663.534,-166.411 L 663.276,-166.546
 L 663.008,-166.669 L 662.731,-166.779 L 662.446,-166.876 L 662.152,-166.96 L 661.848,-167.031 L 661.536,-167.089
 L 661.215,-167.134 L 660.884,-167.167 L 660.545,-167.186 L 660.197,-167.193 L 659.905,-167.188 L 659.619,-167.174
 L 659.339,-167.15 L 659.065,-167.116 L 658.798,-167.073 L 658.536,-167.021 L 658.28,-166.959 L 658.03,-166.887
 L 657.787,-166.806 L 657.549,-166.716 L 657.317,-166.616 L 657.092,-166.506 L 656.872,-166.387 L 656.659,-166.258
 L 656.452,-166.12 L 656.25,-165.972 L 656.616,-172.035 L 665.256,-172.035 L 665.256,-174.11 L 654.392,-174.11
 L 653.755,-163.829 L 656.142,-163.829 L 656.249,-163.921 L 656.355,-164.009 L 656.462,-164.094 L 656.569,-164.175
 L 656.676,-164.253 L 656.783,-164.328 L 656.889,-164.399 L 656.996,-164.467 L 657.103,-164.531 L 657.21,-164.592
 L 657.317,-164.65 L 657.423,-164.704 L 657.53,-164.755 L 657.637,-164.802 L 657.744,-164.846 L 657.851,-164.887
 L 657.958,-164.925 L 658.066,-164.96 L 658.176,-164.993 L 658.286,-165.023 L 658.398,-165.052 L 658.511,-165.077
 L 658.624,-165.1 L 658.739,-165.121 L 658.855,-165.139 L 658.972,-165.155 L 659.09,-165.169 L 659.209,-165.179
 L 659.329,-165.188 L 659.45,-165.194 L 659.572,-165.198 L 659.695,-165.199 L 659.929,-165.195 L 660.158,-165.182
 L 660.38,-165.16 L 660.596,-165.129 L 660.806,-165.09 L 661.01,-165.043 L 661.207,-164.986 L 661.399,-164.921
 L 661.584,-164.847 L 661.764,-164.765 L 661.937,-164.673 L 662.105,-164.573 L 662.266,-164.465 L 662.421,-164.347
 L 662.57,-164.221 L 662.713,-164.087 L 662.848,-163.945 L 662.975,-163.798 L 663.093,-163.645 L 663.202,-163.488
 L 663.303,-163.324 L 663.395,-163.156 L 663.478,-162.981 L 663.552,-162.802 L 663.618,-162.617 L 663.674,-162.427
 L 663.722,-162.231 L 663.762,-162.03 L 663.792,-161.823 L 663.814,-161.611 L 663.827,-161.394 L 663.832,-161.171
 L 663.827,-160.915 L 663.814,-160.666 L 663.793,-160.424 L 663.762,-160.189 L 663.723,-159.961 L 663.675,-159.74
 L 663.619,-159.525 L 663.554,-159.318 L 663.48,-159.117 L 663.397,-158.924 L 663.306,-158.738 L 663.206,-158.558
 L 663.097,-158.385 L 662.98,-158.22 L 662.854,-158.061 L 662.72,-157.909 L 662.577,-157.765 L 662.428,-157.631
 L 662.272,-157.506 L 662.11,-157.39 L 661.941,-157.283 L 661.765,-157.186 L 661.583,-157.098 L 661.394,-157.019
 L 661.198,-156.95 L 660.996,-156.889 L 660.786,-156.838 L 660.571,-156.797 L 660.348,-156.764 L 660.119,-156.741
 L 659.883,-156.727 L 659.641,-156.722 L 659.25,-156.733 L 658.879,-156.767 L 658.526,-156.822 L 658.192,-156.9
 L 657.878,-156.999 L 657.582,-157.121 L 657.305,-157.265 L 657.047,-157.431 L 656.808,-157.619 L 656.588,-157.83
 L 656.387,-158.062 L 656.205,-158.317 L 656.042,-158.594 L 655.898,-158.893 L 655.773,-159.214 L 655.667,-159.557
 L 653.199,-159.272 L 653.258,-159 L 653.326,-158.736 L 653.404,-158.48 L 653.491,-158.232 L 653.588,-157.993
 L 653.694,-157.761 L 653.809,-157.538 L 653.934,-157.323 L 654.069,-157.116 L 654.213,-156.917 L 654.366,-156.726
 L 654.529,-156.544 L 654.701,-156.369 L 654.882,-156.203 L 655.073,-156.045 L 655.274,-155.895 L 655.483,-155.754
 L 655.7,-155.622 L 655.925,-155.499 L 656.159,-155.385 L 656.4,-155.28 L 656.649,-155.184 L 656.907,-155.098
 L 657.172,-155.02 L 657.446,-154.952 L 657.728,-154.893 L 658.017,-154.843 L 658.315,-154.802 L 658.621,-154.77
 L 658.935,-154.747 L 659.257,-154.733 L 659.587,-154.729 z
M 338.979,-154.736 L 339.362,-154.756 L 339.733,-154.79 L 340.093,-154.837 L 340.443,-154.898 L 340.781,-154.973
 L 341.109,-155.061 L 341.426,-155.163 L 341.732,-155.278 L 342.027,-155.407 L 342.312,-155.549 L 342.585,-155.705
 L 342.848,-155.875 L 343.1,-156.058 L 343.341,-156.255 L 343.571,-156.465 L 343.788,-156.687 L 343.992,-156.919
 L 344.181,-157.161 L 344.357,-157.413 L 344.518,-157.676 L 344.666,-157.948 L 344.799,-158.23 L 344.919,-158.523
 L 345.024,-158.825 L 345.115,-159.138 L 345.192,-159.461 L 345.256,-159.794 L 345.305,-160.136 L 345.34,-160.489
 L 345.361,-160.852 L 345.368,-161.225 L 345.361,-161.554 L 345.342,-161.874 L 345.309,-162.187 L 345.263,-162.492
 L 345.204,-162.789 L 345.132,-163.078 L 345.047,-163.359 L 344.949,-163.632 L 344.838,-163.898 L 344.714,-164.156
 L 344.576,-164.406 L 344.426,-164.648 L 344.262,-164.882 L 344.085,-165.109 L 343.896,-165.327 L 343.693,-165.538
 L 343.479,-165.738 L 343.256,-165.926 L 343.025,-166.1 L 342.784,-166.262 L 342.534,-166.411 L 342.276,-166.546
 L 342.008,-166.669 L 341.731,-166.779 L 341.446,-166.876 L 341.152,-166.96 L 340.848,-167.031 L 340.536,-167.089
 L 340.215,-167.134 L 339.884,-167.167 L 339.545,-167.186 L 339.197,-167.193 L 338.905,-167.188 L 338.619,-167.174
 L 338.339,-167.15 L 338.065,-167.116 L 337.798,-167.073 L 337.536,-167.021 L 337.28,-166.959 L 337.03,-166.887
 L 336.787,-166.806 L 336.549,-166.716 L 336.317,-166.616 L 336.092,-166.506 L 335.872,-166.387 L 335.659,-166.258
 L 335.452,-166.12 L 335.25,-165.972 L 335.616,-172.035 L 344.256,-172.035 L 344.256,-174.11 L 333.392,-174.11
 L 332.755,-163.829 L 335.142,-163.829 L 335.249,-163.921 L 335.355,-164.009 L 335.462,-164.094 L 335.569,-164.175
 L 335.676,-164.253 L 335.783,-164.328 L 335.889,-164.399 L 335.996,-164.467 L 336.103,-164.531 L 336.21,-164.592
 L 336.317,-164.65 L 336.423,-164.704 L 336.53,-164.755 L 336.637,-164.802 L 336.744,-164.846 L 336.851,-164.887
 L 336.958,-164.925 L 337.066,-164.96 L 337.176,-164.993 L 337.286,-165.023 L 337.398,-165.052 L 337.511,-165.077
 L 337.624,-165.1 L 337.739,-165.121 L 337.855,-165.139 L 337.972,-165.155 L 338.09,-165.169 L 338.209,-165.179
 L 338.329,-165.188 L 338.45,-165.194 L 338.572,-165.198 L 338.695,-165.199 L 338.929,-165.195 L 339.158,-165.182
 L 339.38,-165.16 L 339.596,-165.129 L 339.806,-165.09 L 340.01,-165.043 L 340.207,-164.986 L 340.399,-164.921
 L 340.584,-164.847 L 340.764,-164.765 L 340.937,-164.673 L 341.105,-164.573 L 341.266,-164.465 L 341.421,-164.347
 L 341.57,-164.221 L 341.713,-164.087 L 341.848,-163.945 L 341.975,-163.798 L 342.093,-163.645 L 342.202,-163.488
 L 342.303,-163.324 L 342.395,-163.156 L 342.478,-162.981 L 342.552,-162.802 L 342.618,-162.617 L 342.674,-162.427
 L 342.722,-162.231 L 342.762,-162.03 L 342.792,-161.823 L 342.814,-161.611 L 342.827,-161.394 L 342.832,-161.171
 L 342.827,-160.915 L 342.814,-160.666 L 342.793,-160.424 L 342.762,-160.189 L 342.723,-159.961 L 342.675,-159.74
 L 342.619,-159.525 L 342.554,-159.318 L 342.48,-159.117 L 342.397,-158.924 L 342.306,-158.738 L 342.206,-158.558
 L 342.097,-158.385 L 341.98,-158.22 L 341.854,-158.061 L 341.72,-157.909 L 341.577,-157.765 L 341.428,-157.631
 L 341.272,-157.506 L 341.11,-157.39 L 340.941,-157.283 L 340.765,-157.186 L 340.583,-157.098 L 340.394,-157.019
 L 340.198,-156.95 L 339.996,-156.889 L 339.786,-156.838 L 339.571,-156.797 L 339.348,-156.764 L 339.119,-156.741
 L 338.883,-156.727 L 338.641,-156.722 L 338.25,-156.733 L 337.879,-156.767 L 337.526,-156.822 L 337.192,-156.9
 L 336.878,-156.999 L 336.582,-157.121 L 336.305,-157.265 L 336.047,-157.431 L 335.808,-157.619 L 335.588,-157.83
 L 335.387,-158.062 L 335.205,-158.317 L 335.042,-158.594 L 334.898,-158.893 L 334.773,-159.214 L 334.667,-159.557
 L 332.199,-159.272 L 332.258,-159 L 332.326,-158.736 L 332.404,-158.48 L 332.491,-158.232 L 332.588,-157.993
 L 332.694,-157.761 L 332.809,-157.538 L 332.934,-157.323 L 333.069,-157.116 L 333.213,-156.917 L 333.366,-156.726
 L 333.529,-156.544 L 333.701,-156.369 L 333.882,-156.203 L 334.073,-156.045 L 334.274,-155.895 L 334.483,-155.754
 L 334.7,-155.622 L 334.925,-155.499 L 335.159,-155.385 L 335.4,-155.28 L 335.649,-155.184 L 335.907,-155.098
 L 336.172,-155.02 L 336.446,-154.952 L 336.728,-154.893 L 337.017,-154.843 L 337.315,-154.802 L 337.621,-154.77
 L 337.935,-154.747 L 338.257,-154.733 L 338.587,-154.729 z
M 323.893,-154.736 L 324.275,-154.756 L 324.646,-154.79 L 325.007,-154.837 L 325.356,-154.898 L 325.695,-154.973
 L 326.023,-155.061 L 326.34,-155.163 L 326.646,-155.278 L 326.941,-155.407 L 327.225,-155.549 L 327.499,-155.705
 L 327.761,-155.875 L 328.013,-156.058 L 328.254,-156.255 L 328.484,-156.465 L 328.702,-156.687 L 328.905,-156.919
 L 329.095,-157.161 L 329.27,-157.413 L 329.432,-157.676 L 329.579,-157.948 L 329.713,-158.23 L 329.832,-158.523
 L 329.937,-158.825 L 330.029,-159.138 L 330.106,-159.461 L 330.169,-159.794 L 330.218,-160.136 L 330.253,-160.489
 L 330.274,-160.852 L 330.281,-161.225 L 330.275,-161.554 L 330.255,-161.874 L 330.223,-162.187 L 330.177,-162.492
 L 330.118,-162.789 L 330.046,-163.078 L 329.961,-163.359 L 329.863,-163.632 L 329.751,-163.898 L 329.627,-164.156
 L 329.49,-164.406 L 329.339,-164.648 L 329.176,-164.882 L 328.999,-165.109 L 328.809,-165.327 L 328.606,-165.538
 L 328.393,-165.738 L 328.17,-165.926 L 327.938,-166.1 L 327.697,-166.262 L 327.448,-166.411 L 327.189,-166.546
 L 326.921,-166.669 L 326.645,-166.779 L 326.359,-166.876 L 326.065,-166.96 L 325.762,-167.031 L 325.449,-167.089
 L 325.128,-167.134 L 324.798,-167.167 L 324.459,-167.186 L 324.11,-167.193 L 323.818,-167.188 L 323.533,-167.174
 L 323.253,-167.15 L 322.979,-167.116 L 322.711,-167.073 L 322.449,-167.021 L 322.193,-166.959 L 321.944,-166.887
 L 321.7,-166.806 L 321.463,-166.716 L 321.231,-166.616 L 321.005,-166.506 L 320.786,-166.387 L 320.572,-166.258
 L 320.365,-166.12 L 320.164,-165.972 L 320.53,-172.035 L 329.169,-172.035 L 329.169,-174.11 L 318.306,-174.11
 L 317.668,-163.829 L 320.055,-163.829 L 320.162,-163.921 L 320.269,-164.009 L 320.376,-164.094 L 320.482,-164.175
 L 320.589,-164.253 L 320.696,-164.328 L 320.803,-164.399 L 320.91,-164.467 L 321.016,-164.531 L 321.123,-164.592
 L 321.23,-164.65 L 321.337,-164.704 L 321.444,-164.755 L 321.55,-164.802 L 321.657,-164.846 L 321.764,-164.887
 L 321.871,-164.925 L 321.98,-164.96 L 322.089,-164.993 L 322.2,-165.023 L 322.311,-165.052 L 322.424,-165.077
 L 322.538,-165.1 L 322.652,-165.121 L 322.768,-165.139 L 322.885,-165.155 L 323.003,-165.169 L 323.122,-165.179
 L 323.242,-165.188 L 323.363,-165.194 L 323.485,-165.198 L 323.609,-165.199 L 323.843,-165.195 L 324.071,-165.182
 L 324.293,-165.16 L 324.509,-165.129 L 324.719,-165.09 L 324.923,-165.043 L 325.121,-164.986 L 325.312,-164.921
 L 325.498,-164.847 L 325.677,-164.765 L 325.851,-164.673 L 326.018,-164.573 L 326.179,-164.465 L 326.334,-164.347
 L 326.483,-164.221 L 326.626,-164.087 L 326.762,-163.945 L 326.888,-163.798 L 327.006,-163.645 L 327.116,-163.488
 L 327.216,-163.324 L 327.308,-163.156 L 327.391,-162.981 L 327.465,-162.802 L 327.531,-162.617 L 327.588,-162.427
 L 327.636,-162.231 L 327.675,-162.03 L 327.706,-161.823 L 327.728,-161.611 L 327.741,-161.394 L 327.745,-161.171
 L 327.741,-160.915 L 327.728,-160.666 L 327.706,-160.424 L 327.676,-160.189 L 327.637,-159.961 L 327.589,-159.74
 L 327.532,-159.525 L 327.467,-159.318 L 327.393,-159.117 L 327.311,-158.924 L 327.219,-158.738 L 327.12,-158.558
 L 327.011,-158.385 L 326.894,-158.22 L 326.768,-158.061 L 326.633,-157.909 L 326.491,-157.765 L 326.342,-157.631
 L 326.186,-157.506 L 326.023,-157.39 L 325.854,-157.283 L 325.679,-157.186 L 325.496,-157.098 L 325.307,-157.019
 L 325.111,-156.95 L 324.909,-156.889 L 324.7,-156.838 L 324.484,-156.797 L 324.262,-156.764 L 324.033,-156.741
 L 323.797,-156.727 L 323.554,-156.722 L 323.164,-156.733 L 322.792,-156.767 L 322.439,-156.822 L 322.106,-156.9
 L 321.791,-156.999 L 321.495,-157.121 L 321.218,-157.265 L 320.961,-157.431 L 320.722,-157.619 L 320.502,-157.83
 L 320.301,-158.062 L 320.119,-158.317 L 319.956,-158.594 L 319.812,-158.893 L 319.687,-159.214 L 319.581,-159.557
 L 317.112,-159.272 L 317.171,-159 L 317.24,-158.736 L 317.317,-158.48 L 317.405,-158.232 L 317.501,-157.993
 L 317.607,-157.761 L 317.723,-157.538 L 317.848,-157.323 L 317.982,-157.116 L 318.126,-156.917 L 318.279,-156.726
 L 318.442,-156.544 L 318.614,-156.369 L 318.796,-156.203 L 318.987,-156.045 L 319.187,-155.895 L 319.396,-155.754
 L 319.614,-155.622 L 319.839,-155.499 L 320.072,-155.385 L 320.313,-155.28 L 320.563,-155.184 L 320.82,-155.098
 L 321.086,-155.02 L 321.359,-154.952 L 321.641,-154.893 L 321.931,-154.843 L 322.229,-154.802 L 322.534,-154.77
 L 322.848,-154.747 L 323.17,-154.733 L 323.5,-154.729 z
M 648.949,-159.326 L 651.634,-159.326 L 651.634,-161.252 L 648.949,-161.252 L 648.949,-174.11 L 646.385,-174.11
 L 637.637,-161.225 L 637.637,-159.326 L 646.643,-159.326 L 646.643,-155 L 648.949,-155 z
M 639.889,-161.252 L 640.106,-161.524 L 640.838,-162.527 L 645.734,-169.742 L 645.757,-169.776 L 645.781,-169.813
 L 645.807,-169.852 L 645.833,-169.895 L 645.862,-169.941 L 645.891,-169.989 L 645.922,-170.041 L 645.955,-170.095
 L 645.988,-170.153 L 646.024,-170.213 L 646.06,-170.276 L 646.098,-170.343 L 646.137,-170.412 L 646.178,-170.484
 L 646.22,-170.559 L 646.263,-170.638 L 646.306,-170.715 L 646.346,-170.788 L 646.384,-170.857 L 646.419,-170.922
 L 646.452,-170.982 L 646.482,-171.037 L 646.509,-171.089 L 646.534,-171.136 L 646.557,-171.179 L 646.577,-171.217
 L 646.594,-171.251 L 646.609,-171.281 L 646.621,-171.306 L 646.631,-171.327 L 646.638,-171.344 L 646.643,-171.356
 L 646.643,-161.252 z
M 781,46 L 800,46 L 800,45 L 781,45 L 781,1 L 800,1
 L 800,-0 L 781,-0 L 781,-20 L 780,-20 L 780,-0 L 700,-0
 L 700,1 L 780,1 L 780,45 L 700,45 L 700,46 L 780,46
 L 780,55 L 781,55 z
M 68,10.5429 L 627,0.785477 L 627,45 L 672,45 L 672,-0 L 671.729,-15.554
 L -0.169128,-3.82596 L 0.102356,11.728 L 33,11.1538 L 33,45 L 68,45 z
M -110,45 L -30,45 L -30,44 L -110,44 L -110,10 L -30,10
 L -30,9 L -110,9 L -110,-10 L -111,-10 L -111,9 L -130,9
 L -130,10 L -111,10 L -111,44 L -130,44 L -130,45 L -111,45
 L -111,65 L -110,65 z
M 801.252,16.9486 L 814.11,16.9486 L 814.11,14.3852 L 801.225,5.63739 L 799.326,5.63739 L 799.326,14.643
 L 795,14.643 L 795,16.9486 L 799.326,16.9486 L 799.326,19.634 L 801.252,19.634 z
M 801.252,14.643 L 801.252,7.88879 L 801.524,8.10579 L 802.527,8.8382 L 809.742,13.7342 L 809.776,13.7569
 L 809.813,13.7811 L 809.852,13.8065 L 809.895,13.8334 L 809.941,13.8616 L 809.989,13.8913 L 810.041,13.9223
 L 810.095,13.9546 L 810.153,13.9884 L 810.213,14.0235 L 810.276,14.06 L 810.343,14.0979 L 810.412,14.1372
 L 810.484,14.1778 L 810.559,14.2198 L 810.638,14.2632 L 810.715,14.306 L 810.788,14.3463 L 810.857,14.384
 L 810.922,14.4192 L 810.982,14.4518 L 811.037,14.4819 L 811.089,14.5094 L 811.136,14.5344 L 811.179,14.5569
 L 811.217,14.5768 L 811.251,14.5942 L 811.281,14.6091 L 811.306,14.6214 L 811.327,14.6311 L 811.344,14.6383
 L 811.356,14.643 z
M -129,23.7423 L -128.736,23.6739 L -128.48,23.5961 L -128.232,23.5089 L -127.993,23.4122 L -127.761,23.306
 L -127.538,23.1905 L -127.323,23.0655 L -127.116,22.9311 L -126.917,22.7873 L -126.726,22.634 L -126.544,22.4713
 L -126.369,22.2992 L -126.203,22.1177 L -126.045,21.9267 L -125.895,21.7263 L -125.754,21.5171 L -125.622,21.2999
 L -125.499,21.0747 L -125.385,20.8414 L -125.28,20.6 L -125.184,20.3506 L -125.098,20.0931 L -125.02,19.8276
 L -124.952,19.554 L -124.893,19.2724 L -124.843,18.9827 L -124.802,18.685 L -124.77,18.3792 L -124.747,18.0653
 L -124.733,17.7434 L -124.729,17.4135 L -124.736,17.0205 L -124.756,16.6384 L -124.79,16.2672 L -124.837,15.9068
 L -124.898,15.5573 L -124.973,15.2186 L -125.061,14.8908 L -125.163,14.5738 L -125.278,14.2677 L -125.407,13.9725
 L -125.549,13.6882 L -125.705,13.4147 L -125.875,13.152 L -126.058,12.9003 L -126.255,12.6593 L -126.465,12.4293
 L -126.687,12.2117 L -126.919,12.0081 L -127.161,11.8185 L -127.413,11.643 L -127.676,11.4815 L -127.948,11.3341
 L -128.23,11.2007 L -128.523,11.0814 L -128.825,10.9761 L -129.138,10.8848 L -129.461,10.8076 L -129.794,10.7444
 L -130.136,10.6953 L -130.489,10.6602 L -130.852,10.6391 L -131.225,10.6321 L -131.554,10.6386 L -131.874,10.6582
 L -132.187,10.691 L -132.492,10.7368 L -132.789,10.7957 L -133.078,10.8676 L -133.359,10.9527 L -133.632,11.0508
 L -133.898,11.1621 L -134.156,11.2864 L -134.406,11.4238 L -134.648,11.5743 L -134.882,11.7378 L -135.109,11.9145
 L -135.327,12.1042 L -135.538,12.3071 L -135.738,12.5209 L -135.926,12.7437 L -136.1,12.9755 L -136.262,13.2162
 L -136.411,13.4659 L -136.546,13.7245 L -136.669,13.9921 L -136.779,14.2686 L -136.876,14.5541 L -136.96,14.8485
 L -137.031,15.1519 L -137.089,15.4642 L -137.134,15.7855 L -137.167,16.1157 L -137.186,16.4549 L -137.193,16.8031
 L -137.188,17.095 L -137.174,17.381 L -137.15,17.6608 L -137.116,17.9347 L -137.073,18.2025 L -137.021,18.4643
 L -136.959,18.72 L -136.887,18.9697 L -136.806,19.2133 L -136.716,19.451 L -136.616,19.6825 L -136.506,19.9081
 L -136.387,20.1276 L -136.258,20.3411 L -136.12,20.5485 L -135.972,20.7499 L -142.035,20.3837 L -142.035,11.7443
 L -144.11,11.7443 L -144.11,22.6079 L -133.829,23.2453 L -133.829,20.8583 L -133.921,20.7515 L -134.009,20.6447
 L -134.094,20.5379 L -134.175,20.4311 L -134.253,20.3243 L -134.328,20.2175 L -134.399,20.1107 L -134.467,20.0039
 L -134.531,19.8971 L -134.592,19.7903 L -134.65,19.6835 L -134.704,19.5767 L -134.755,19.4699 L -134.802,19.3631
 L -134.846,19.2563 L -134.887,19.1495 L -134.925,19.0421 L -134.96,18.9337 L -134.993,18.8242 L -135.023,18.7137
 L -135.052,18.6021 L -135.077,18.4895 L -135.1,18.3758 L -135.121,18.261 L -135.139,18.1452 L -135.155,18.0284
 L -135.169,17.9104 L -135.179,17.7914 L -135.188,17.6714 L -135.194,17.5503 L -135.198,17.4281 L -135.199,17.3049
 L -135.195,17.0706 L -135.182,16.8424 L -135.16,16.6203 L -135.129,16.4042 L -135.09,16.1943 L -135.043,15.9905
 L -134.986,15.7927 L -134.921,15.6011 L -134.847,15.4155 L -134.765,15.2361 L -134.673,15.0627 L -134.573,14.8954
 L -134.465,14.7343 L -134.347,14.5792 L -134.221,14.4302 L -134.087,14.2873 L -133.945,14.1518 L -133.798,14.025
 L -133.645,13.907 L -133.488,13.7977 L -133.324,13.6972 L -133.156,13.6054 L -132.981,13.5223 L -132.802,13.448
 L -132.617,13.3825 L -132.427,13.3256 L -132.231,13.2776 L -132.03,13.2382 L -131.823,13.2076 L -131.611,13.1858
 L -131.394,13.1727 L -131.171,13.1683 L -130.915,13.1726 L -130.666,13.1857 L -130.424,13.2074 L -130.189,13.2378
 L -129.961,13.2769 L -129.74,13.3247 L -129.525,13.3812 L -129.318,13.4463 L -129.117,13.5202 L -128.924,13.6027
 L -128.738,13.694 L -128.558,13.7939 L -128.385,13.9025 L -128.22,14.0198 L -128.061,14.1458 L -127.909,14.2805
 L -127.765,14.4229 L -127.631,14.5719 L -127.506,14.7276 L -127.39,14.89 L -127.283,15.059 L -127.186,15.2348
 L -127.098,15.4172 L -127.019,15.6062 L -126.95,15.802 L -126.889,16.0044 L -126.838,16.2135 L -126.797,16.4293
 L -126.764,16.6517 L -126.741,16.8808 L -126.727,17.1166 L -126.722,17.3591 L -126.733,17.7497 L -126.767,18.1214
 L -126.822,18.474 L -126.9,18.8077 L -126.999,19.1225 L -127.121,19.4183 L -127.265,19.6951 L -127.431,19.9529
 L -127.619,20.1918 L -127.83,20.4117 L -128.062,20.6127 L -128.317,20.7946 L -128.594,20.9577 L -128.893,21.1017
 L -129.214,21.2268 L -129.557,21.3329 L -129.272,23.8013 z
M 801.554,34.3614 L 801.874,34.3418 L 802.187,34.309 L 802.492,34.2632 L 802.789,34.2043 L 803.078,34.1324
 L 803.359,34.0473 L 803.632,33.9492 L 803.898,33.8379 L 804.156,33.7136 L 804.406,33.5762 L 804.648,33.4257
 L 804.882,33.2622 L 805.109,33.0855 L 805.327,32.8958 L 805.538,32.6929 L 805.738,32.4791 L 805.926,32.2563
 L 806.1,32.0245 L 806.262,31.7838 L 806.411,31.5341 L 806.546,31.2755 L 806.669,31.0079 L 806.779,30.7314
 L 806.876,30.4459 L 806.96,30.1515 L 807.031,29.8481 L 807.089,29.5358 L 807.134,29.2145 L 807.167,28.8843
 L 807.186,28.5451 L 807.193,28.1969 L 807.188,27.905 L 807.174,27.619 L 807.15,27.3392 L 807.116,27.0653
 L 807.073,26.7975 L 807.021,26.5357 L 806.959,26.28 L 806.887,26.0303 L 806.806,25.7867 L 806.716,25.549
 L 806.616,25.3175 L 806.506,25.0919 L 806.387,24.8724 L 806.258,24.6589 L 806.12,24.4515 L 805.972,24.2501
 L 812.035,24.6163 L 812.035,33.2557 L 814.11,33.2557 L 814.11,22.3921 L 803.829,21.7547 L 803.829,24.1417
 L 803.921,24.2485 L 804.009,24.3553 L 804.094,24.4621 L 804.175,24.5689 L 804.253,24.6757 L 804.328,24.7825
 L 804.399,24.8893 L 804.467,24.9961 L 804.531,25.1029 L 804.592,25.2097 L 804.65,25.3165 L 804.704,25.4233
 L 804.755,25.5301 L 804.802,25.6369 L 804.846,25.7437 L 804.887,25.8505 L 804.925,25.9579 L 804.96,26.0663
 L 804.993,26.1758 L 805.023,26.2863 L 805.052,26.3979 L 805.077,26.5105 L 805.1,26.6242 L 805.121,26.739
 L 805.139,26.8548 L 805.155,26.9716 L 805.169,27.0896 L 805.179,27.2086 L 805.188,27.3286 L 805.194,27.4497
 L 805.198,27.5719 L 805.199,27.6951 L 805.195,27.9294 L 805.182,28.1576 L 805.16,28.3797 L 805.129,28.5958
 L 805.09,28.8057 L 805.043,29.0095 L 804.986,29.2073 L 804.921,29.3989 L 804.847,29.5845 L 804.765,29.7639
 L 804.673,29.9373 L 804.573,30.1046 L 804.465,30.2657 L 804.347,30.4208 L 804.221,30.5698 L 804.087,30.7127
 L 803.945,30.8482 L 803.798,30.975 L 803.645,31.093 L 803.488,31.2023 L 803.324,31.3028 L 803.156,31.3946
 L 802.981,31.4777 L 802.802,31.552 L 802.617,31.6175 L 802.427,31.6744 L 802.231,31.7224 L 802.03,31.7618
 L 801.823,31.7924 L 801.611,31.8142 L 801.394,31.8273 L 801.171,31.8317 L 800.915,31.8274 L 800.666,31.8143
 L 800.424,31.7926 L 800.189,31.7622 L 799.961,31.7231 L 799.74,31.6753 L 799.525,31.6188 L 799.318,31.5537
 L 799.117,31.4798 L 798.924,31.3973 L 798.738,31.306 L 798.558,31.2061 L 798.385,31.0975 L 798.22,30.9802
 L 798.061,30.8542 L 797.909,30.7195 L 797.765,30.5771 L 797.631,30.4281 L 797.506,30.2724 L 797.39,30.11
 L 797.283,29.941 L 797.186,29.7652 L 797.098,29.5828 L 797.019,29.3938 L 796.95,29.198 L 796.889,28.9956
 L 796.838,28.7865 L 796.797,28.5707 L 796.764,28.3483 L 796.741,28.1192 L 796.727,27.8834 L 796.722,27.6409
 L 796.733,27.2503 L 796.767,26.8786 L 796.822,26.526 L 796.9,26.1923 L 796.999,25.8775 L 797.121,25.5817
 L 797.265,25.3049 L 797.431,25.0471 L 797.619,24.8082 L 797.83,24.5883 L 798.062,24.3873 L 798.317,24.2054
 L 798.594,24.0423 L 798.893,23.8983 L 799.214,23.7732 L 799.557,23.6671 L 799.272,21.1987 L 799,21.2577
 L 798.736,21.3261 L 798.48,21.4039 L 798.232,21.4911 L 797.993,21.5878 L 797.761,21.694 L 797.538,21.8095
 L 797.323,21.9345 L 797.116,22.0689 L 796.917,22.2127 L 796.726,22.366 L 796.544,22.5287 L 796.369,22.7008
 L 796.203,22.8823 L 796.045,23.0733 L 795.895,23.2737 L 795.754,23.4829 L 795.622,23.7001 L 795.499,23.9253
 L 795.385,24.1586 L 795.28,24.4 L 795.184,24.6494 L 795.098,24.9069 L 795.02,25.1724 L 794.952,25.446
 L 794.893,25.7276 L 794.843,26.0173 L 794.802,26.315 L 794.77,26.6208 L 794.747,26.9347 L 794.733,27.2566
 L 794.729,27.5865 L 794.736,27.9795 L 794.756,28.3616 L 794.79,28.7328 L 794.837,29.0932 L 794.898,29.4427
 L 794.973,29.7814 L 795.061,30.1092 L 795.163,30.4262 L 795.278,30.7323 L 795.407,31.0275 L 795.549,31.3118
 L 795.705,31.5853 L 795.875,31.848 L 796.058,32.0997 L 796.255,32.3407 L 796.465,32.5707 L 796.687,32.7883
 L 796.919,32.9919 L 797.161,33.1815 L 797.413,33.357 L 797.676,33.5185 L 797.948,33.6659 L 798.23,33.7993
 L 798.523,33.9186 L 798.825,34.0239 L 799.138,34.1152 L 799.461,34.1924 L 799.794,34.2556 L 800.136,34.3047
 L 800.489,34.3398 L 800.852,34.3609 L 801.225,34.3679 z
M -129.594,38.896 L -129.288,38.8389 L -128.992,38.7708 L -128.706,38.6917 L -128.43,38.6016 L -128.164,38.5006
 L -127.907,38.3887 L -127.66,38.2657 L -127.423,38.1318 L -127.196,37.9869 L -126.978,37.8311 L -126.77,37.6643
 L -126.572,37.4865 L -126.384,37.2978 L -126.206,37.0981 L -126.038,36.8874 L -125.879,36.6667 L -125.731,36.4368
 L -125.593,36.1977 L -125.465,35.9495 L -125.347,35.6921 L -125.24,35.4255 L -125.143,35.1498 L -125.056,34.8649
 L -124.979,34.5708 L -124.913,34.2676 L -124.857,33.9552 L -124.811,33.6337 L -124.775,33.303 L -124.749,32.9631
 L -124.734,32.614 L -124.729,32.2558 L -124.734,31.8715 L -124.751,31.4984 L -124.78,31.1366 L -124.82,30.786
 L -124.871,30.4466 L -124.933,30.1185 L -125.007,29.8015 L -125.092,29.4959 L -125.188,29.2014 L -125.296,28.9182
 L -125.415,28.6462 L -125.545,28.3855 L -125.687,28.136 L -125.84,27.8977 L -126.004,27.6706 L -126.18,27.4548
 L -126.366,27.2512 L -126.561,27.0606 L -126.766,26.8833 L -126.98,26.719 L -127.204,26.5679 L -127.436,26.43
 L -127.678,26.3051 L -127.93,26.1935 L -128.19,26.0949 L -128.46,26.0095 L -128.739,25.9372 L -129.028,25.8781
 L -129.326,25.8321 L -129.633,25.7993 L -129.95,25.7796 L -130.276,25.773 L -130.502,25.7777 L -130.724,25.7917
 L -130.94,25.815 L -131.152,25.8476 L -131.359,25.8896 L -131.561,25.9409 L -131.758,26.0015 L -131.951,26.0714
 L -132.138,26.1507 L -132.321,26.2393 L -132.498,26.3372 L -132.671,26.4444 L -132.839,26.561 L -133.002,26.6869
 L -133.16,26.8221 L -133.314,26.9666 L -133.461,27.1195 L -133.6,27.2798 L -133.732,27.4475 L -133.856,27.6227
 L -133.973,27.8052 L -134.082,27.9952 L -134.183,28.1926 L -134.277,28.3974 L -134.363,28.6096 L -134.441,28.8292
 L -134.512,29.0563 L -134.575,29.2907 L -134.631,29.5326 L -134.678,29.7819 L -134.719,30.0387 L -134.751,30.3028
 L -134.806,30.3028 L -134.859,30.0623 L -134.919,29.8291 L -134.984,29.6031 L -135.055,29.3844 L -135.132,29.1729
 L -135.215,28.9687 L -135.303,28.7717 L -135.397,28.5821 L -135.497,28.3996 L -135.603,28.2244 L -135.715,28.0565
 L -135.832,27.8959 L -135.955,27.7425 L -136.084,27.5963 L -136.218,27.4574 L -136.359,27.3258 L -136.505,27.2018
 L -136.656,27.0858 L -136.812,26.9778 L -136.974,26.8778 L -137.142,26.7858 L -137.314,26.7018 L -137.492,26.6258
 L -137.676,26.5578 L -137.865,26.4978 L -138.059,26.4458 L -138.258,26.4018 L -138.463,26.3658 L -138.673,26.3378
 L -138.889,26.3178 L -139.109,26.3058 L -139.336,26.3018 L -139.63,26.308 L -139.916,26.3267 L -140.194,26.3578
 L -140.463,26.4014 L -140.725,26.4574 L -140.978,26.5259 L -141.223,26.6068 L -141.46,26.7002 L -141.688,26.806
 L -141.909,26.9243 L -142.121,27.055 L -142.325,27.1982 L -142.521,27.3538 L -142.708,27.5219 L -142.887,27.7024
 L -143.058,27.8954 L -143.22,28.0996 L -143.372,28.3138 L -143.512,28.5381 L -143.643,28.7723 L -143.763,29.0166
 L -143.873,29.2709 L -143.972,29.5352 L -144.06,29.8095 L -144.139,30.0938 L -144.207,30.3881 L -144.264,30.6925
 L -144.311,31.0068 L -144.347,31.3312 L -144.374,31.6656 L -144.389,32.01 L -144.394,32.3644 L -144.389,32.6895
 L -144.374,33.0072 L -144.348,33.3174 L -144.312,33.6202 L -144.266,33.9154 L -144.209,34.2032 L -144.143,34.4836
 L -144.065,34.7564 L -143.978,35.0218 L -143.88,35.2797 L -143.773,35.5302 L -143.654,35.7732 L -143.526,36.0087
 L -143.387,36.2367 L -143.238,36.4573 L -143.079,36.6704 L -142.91,36.8743 L -142.734,37.0672 L -142.549,37.2492
 L -142.357,37.4202 L -142.156,37.5802 L -141.947,37.7292 L -141.73,37.8673 L -141.506,37.9945 L -141.273,38.1106
 L -141.032,38.2158 L -140.783,38.31 L -140.526,38.3933 L -140.261,38.4656 L -139.987,38.5269 L -139.706,38.5772
 L -139.417,38.6166 L -139.227,36.1618 L -139.413,36.1382 L -139.593,36.1081 L -139.768,36.0714 L -139.937,36.0283
 L -140.102,35.9786 L -140.261,35.9224 L -140.415,35.8597 L -140.563,35.7905 L -140.706,35.7148 L -140.844,35.6325
 L -140.977,35.5438 L -141.104,35.4485 L -141.226,35.3467 L -141.342,35.2384 L -141.454,35.1236 L -141.56,35.0022
 L -141.66,34.8752 L -141.754,34.7434 L -141.841,34.6067 L -141.922,34.4652 L -141.996,34.3189 L -142.064,34.1678
 L -142.125,34.0119 L -142.18,33.8511 L -142.229,33.6855 L -142.271,33.5151 L -142.306,33.3399 L -142.335,33.1598
 L -142.358,32.975 L -142.374,32.7853 L -142.384,32.5907 L -142.387,32.3914 L -142.384,32.1727 L -142.373,31.9609
 L -142.356,31.7559 L -142.332,31.5578 L -142.3,31.3665 L -142.262,31.182 L -142.217,31.0043 L -142.165,30.8335
 L -142.106,30.6695 L -142.04,30.5124 L -141.967,30.3621 L -141.887,30.2186 L -141.801,30.0819 L -141.707,29.9521
 L -141.606,29.8291 L -141.499,29.713 L -141.385,29.6038 L -141.267,29.5016 L -141.143,29.4065 L -141.014,29.3184
 L -140.881,29.2374 L -140.742,29.1633 L -140.598,29.0964 L -140.449,29.0365 L -140.296,28.9837 L -140.137,28.9379
 L -139.973,28.8991 L -139.804,28.8674 L -139.63,28.8427 L -139.451,28.8251 L -139.267,28.8145 L -139.078,28.811
 L -138.887,28.8153 L -138.702,28.8283 L -138.522,28.8499 L -138.347,28.8801 L -138.177,28.919 L -138.013,28.9665
 L -137.854,29.0226 L -137.7,29.0874 L -137.551,29.1608 L -137.407,29.2428 L -137.269,29.3335 L -137.136,29.4328
 L -137.009,29.5407 L -136.886,29.6573 L -136.769,29.7825 L -136.657,29.9164 L -136.551,30.0581 L -136.452,30.2068
 L -136.36,30.3626 L -136.274,30.5254 L -136.196,30.6952 L -136.124,30.8721 L -136.059,31.0561 L -136.001,31.2471
 L -135.95,31.4452 L -135.905,31.6503 L -135.868,31.8624 L -135.837,32.0816 L -135.813,32.3078 L -135.796,32.5411
 L -135.786,32.7814 L -135.782,33.0288 L -135.782,34.358 L -133.666,34.358 L -133.666,32.9746 L -133.663,32.6956
 L -133.653,32.425 L -133.636,32.1627 L -133.612,31.9087 L -133.581,31.663 L -133.543,31.4256 L -133.499,31.1965
 L -133.448,30.9758 L -133.39,30.7634 L -133.325,30.5593 L -133.253,30.3635 L -133.174,30.1761 L -133.089,29.9969
 L -132.997,29.8261 L -132.898,29.6636 L -132.792,29.5094 L -132.68,29.3641 L -132.562,29.2281 L -132.439,29.1015
 L -132.311,28.9843 L -132.178,28.8765 L -132.039,28.778 L -131.895,28.689 L -131.746,28.6093 L -131.591,28.5389
 L -131.431,28.478 L -131.265,28.4264 L -131.094,28.3842 L -130.918,28.3514 L -130.736,28.328 L -130.549,28.3139
 L -130.357,28.3092 L -130.137,28.3133 L -129.923,28.3256 L -129.717,28.3462 L -129.517,28.3749 L -129.324,28.4119
 L -129.138,28.457 L -128.959,28.5104 L -128.787,28.572 L -128.622,28.6418 L -128.464,28.7198 L -128.312,28.8061
 L -128.168,28.9005 L -128.03,29.0032 L -127.899,29.114 L -127.775,29.2331 L -127.658,29.3604 L -127.548,29.4949
 L -127.445,29.6356 L -127.349,29.7824 L -127.261,29.9355 L -127.179,30.0948 L -127.105,30.2602 L -127.037,30.4319
 L -126.977,30.6098 L -126.924,30.7938 L -126.877,30.9841 L -126.838,31.1805 L -126.806,31.3832 L -126.782,31.5921
 L -126.764,31.8071 L -126.753,32.0284 L -126.75,32.2558 L -126.763,32.7028 L -126.803,33.1249 L -126.869,33.522
 L -126.962,33.8943 L -127.081,34.2417 L -127.226,34.5642 L -127.399,34.8617 L -127.597,35.1344 L -127.822,35.3822
 L -128.074,35.6051 L -128.352,35.803 L -128.657,35.9761 L -128.988,36.1243 L -129.346,36.2476 L -129.73,36.3459
 L -130.14,36.4194 L -129.91,38.9422 z
" stroke="black" fill="lightgray" stroke-width="0.5"/>
</svg>
