<?xml version="1.0" standalone="no"?>
<!DOCTYPE svg PUBLIC "-//W3C//DTD SVG 1.1//EN" "http://www.w3.org/Graphics/SVG/1.1/DTD/svg11.dtd">
<svg width="80mm" height="255mm" viewBox="-20 -215 80 255" xmlns="http://www.w3.org/2000/svg" version="1.1">
<title>OpenSCAD Model</title>
<path d="
M 28.1822,-194.739 L 28.5753,-194.768 L 28.9559,-194.817 L 29.3239,-194.886 L 29.6793,-194.975 L 30.0222,-195.084
 L 30.3525,-195.212 L 30.6703,-195.359 L 30.9755,-195.527 L 31.2682,-195.714 L 31.5483,-195.921 L 31.8159,-196.148
 L 32.0709,-196.394 L 32.3133,-196.66 L 32.5432,-196.946 L 32.7605,-197.251 L 32.965,-197.576 L 33.1563,-197.917
 L 33.3344,-198.277 L 33.4993,-198.654 L 33.651,-199.049 L 33.7895,-199.462 L 33.9148,-199.892 L 34.027,-200.34
 L 34.1259,-200.806 L 34.2117,-201.289 L 34.2842,-201.791 L 34.3436,-202.309 L 34.3898,-202.846 L 34.4227,-203.4
 L 34.4425,-203.972 L 34.4491,-204.562 L 34.4428,-205.161 L 34.424,-205.742 L 34.3926,-206.304 L 34.3487,-206.847
 L 34.2922,-207.372 L 34.2231,-207.878 L 34.1415,-208.365 L 34.0473,-208.834 L 33.9406,-209.284 L 33.8213,-209.715
 L 33.6895,-210.128 L 33.5451,-210.522 L 33.3881,-210.898 L 33.2186,-211.255 L 33.0365,-211.593 L 32.8419,-211.912
 L 32.6341,-212.213 L 32.4125,-212.494 L 32.1771,-212.756 L 31.9278,-212.998 L 31.6647,-213.221 L 31.3878,-213.425
 L 31.097,-213.609 L 30.7924,-213.774 L 30.474,-213.919 L 30.1418,-214.045 L 29.7957,-214.152 L 29.4358,-214.239
 L 29.0621,-214.307 L 28.6745,-214.356 L 28.2731,-214.385 L 27.8579,-214.394 L 27.4312,-214.385 L 27.0191,-214.356
 L 26.6215,-214.308 L 26.2385,-214.241 L 25.87,-214.155 L 25.5162,-214.049 L 25.1768,-213.925 L 24.8521,-213.781
 L 24.5419,-213.618 L 24.2464,-213.435 L 23.9653,-213.234 L 23.6989,-213.014 L 23.447,-212.774 L 23.2097,-212.515
 L 22.9869,-212.237 L 22.7787,-211.94 L 22.5841,-211.623 L 22.402,-211.287 L 22.2325,-210.932 L 22.0756,-210.558
 L 21.9312,-210.164 L 21.7993,-209.751 L 21.68,-209.319 L 21.5733,-208.868 L 21.4791,-208.397 L 21.3975,-207.907
 L 21.3285,-207.398 L 21.272,-206.869 L 21.228,-206.321 L 21.1966,-205.754 L 21.1778,-205.167 L 21.1715,-204.562
 L 21.178,-203.969 L 21.1974,-203.394 L 21.2297,-202.837 L 21.2749,-202.298 L 21.3331,-201.778 L 21.4042,-201.275
 L 21.4882,-200.79 L 21.5852,-200.323 L 21.695,-199.875 L 21.8178,-199.444 L 21.9536,-199.031 L 22.1022,-198.636
 L 22.2638,-198.26 L 22.4383,-197.901 L 22.6257,-197.56 L 22.8261,-197.238 L 23.0394,-196.934 L 23.2654,-196.65
 L 23.5043,-196.385 L 23.756,-196.14 L 24.0205,-195.915 L 24.2979,-195.709 L 24.588,-195.523 L 24.891,-195.356
 L 25.2068,-195.209 L 25.5355,-195.082 L 25.8769,-194.974 L 26.2312,-194.886 L 26.5983,-194.817 L 26.9782,-194.768
 L 27.371,-194.739 L 27.7765,-194.729 z
M 27.5368,-196.73 L 27.2793,-196.752 L 27.031,-196.789 L 26.7918,-196.84 L 26.5618,-196.906 L 26.341,-196.988
 L 26.1293,-197.083 L 25.9268,-197.194 L 25.7335,-197.319 L 25.5493,-197.459 L 25.3743,-197.613 L 25.2084,-197.783
 L 25.0518,-197.967 L 24.9043,-198.166 L 24.7659,-198.379 L 24.6367,-198.608 L 24.516,-198.852 L 24.4031,-199.113
 L 24.298,-199.391 L 24.2006,-199.687 L 24.1111,-199.999 L 24.0293,-200.329 L 23.9553,-200.675 L 23.8891,-201.039
 L 23.8307,-201.419 L 23.7801,-201.817 L 23.7373,-202.232 L 23.7022,-202.664 L 23.675,-203.113 L 23.6555,-203.579
 L 23.6438,-204.062 L 23.6399,-204.562 L 23.6438,-205.076 L 23.6553,-205.572 L 23.6745,-206.05 L 23.7014,-206.509
 L 23.7359,-206.95 L 23.7782,-207.373 L 23.8281,-207.777 L 23.8857,-208.162 L 23.951,-208.53 L 24.024,-208.878
 L 24.1046,-209.208 L 24.193,-209.52 L 24.289,-209.814 L 24.3927,-210.089 L 24.5041,-210.345 L 24.6231,-210.583
 L 24.751,-210.805 L 24.8888,-211.012 L 25.0365,-211.205 L 25.1941,-211.384 L 25.3616,-211.549 L 25.539,-211.699
 L 25.7263,-211.835 L 25.9235,-211.956 L 26.1306,-212.064 L 26.3477,-212.157 L 26.5746,-212.235 L 26.8115,-212.3
 L 27.0582,-212.35 L 27.3149,-212.386 L 27.5815,-212.407 L 27.8579,-212.414 L 28.1277,-212.407 L 28.3878,-212.385
 L 28.6382,-212.349 L 28.8789,-212.298 L 29.1099,-212.233 L 29.3312,-212.153 L 29.5428,-212.059 L 29.7447,-211.95
 L 29.937,-211.826 L 30.1195,-211.688 L 30.2923,-211.536 L 30.4555,-211.369 L 30.6089,-211.188 L 30.7527,-210.992
 L 30.8867,-210.781 L 31.0111,-210.556 L 31.1269,-210.315 L 31.2352,-210.056 L 31.3361,-209.779 L 31.4295,-209.485
 L 31.5154,-209.172 L 31.5938,-208.842 L 31.6648,-208.494 L 31.7283,-208.129 L 31.7843,-207.745 L 31.8329,-207.344
 L 31.8739,-206.924 L 31.9075,-206.487 L 31.9337,-206.033 L 31.9524,-205.56 L 31.9636,-205.07 L 31.9673,-204.562
 L 31.9634,-204.071 L 31.9516,-203.597 L 31.932,-203.139 L 31.9046,-202.697 L 31.8693,-202.271 L 31.8262,-201.861
 L 31.7752,-201.467 L 31.7164,-201.09 L 31.6498,-200.728 L 31.5753,-200.383 L 31.493,-200.053 L 31.4028,-199.74
 L 31.3048,-199.443 L 31.1989,-199.162 L 31.0853,-198.897 L 30.9637,-198.648 L 30.8338,-198.415 L 30.6948,-198.197
 L 30.5468,-197.994 L 30.3898,-197.806 L 30.2239,-197.633 L 30.0489,-197.475 L 29.8649,-197.332 L 29.6719,-197.204
 L 29.4698,-197.091 L 29.2588,-196.993 L 29.0388,-196.91 L 28.8098,-196.843 L 28.5717,-196.79 L 28.3246,-196.752
 L 28.0686,-196.73 L 27.8035,-196.722 z
M 16.9486,-199.326 L 19.634,-199.326 L 19.634,-201.252 L 16.9486,-201.252 L 16.9486,-214.11 L 14.3852,-214.11
 L 5.63739,-201.225 L 5.63739,-199.326 L 14.643,-199.326 L 14.643,-195 L 16.9486,-195 z
M 7.88879,-201.252 L 8.10579,-201.524 L 8.8382,-202.527 L 13.7342,-209.742 L 13.7569,-209.776 L 13.7811,-209.813
 L 13.8065,-209.852 L 13.8334,-209.895 L 13.8616,-209.941 L 13.8913,-209.989 L 13.9223,-210.041 L 13.9546,-210.095
 L 13.9884,-210.153 L 14.0235,-210.213 L 14.06,-210.276 L 14.0979,-210.343 L 14.1372,-210.412 L 14.1778,-210.484
 L 14.2198,-210.559 L 14.2632,-210.638 L 14.306,-210.715 L 14.3463,-210.788 L 14.384,-210.857 L 14.4192,-210.922
 L 14.4518,-210.982 L 14.4819,-211.037 L 14.5094,-211.089 L 14.5344,-211.136 L 14.5569,-211.179 L 14.5768,-211.217
 L 14.5942,-211.251 L 14.6091,-211.281 L 14.6214,-211.306 L 14.6311,-211.327 L 14.6383,-211.344 L 14.643,-211.356
 L 14.643,-201.252 z
M 1,-100 L 10,-100 L 10,-20 L 11,-20 L 11,-100 L 30,-100
 L 30,-20 L 31,-20 L 31,-100 L 40,-100 L 40,-20 L 41,-20
 L 41,-100 L 60,-100 L 60,-101 L 41,-101 L 41,-180 L 60,-180
 L 60,-181 L 41,-181 L 41,-200 L 40,-200 L 40,-181 L 1,-181
 L 1,-200 L 0,-200 L 0,-181 L -20,-181 L -20,-180 L 0,-180
 L 0,-101 L -20,-101 L -20,-100 L 0,-100 L 0,-20 L 1,-20
 z
M 1,-101 L 1,-180 L 40,-180 L 40,-117.97 L 37.7092,-117.97 L 37.7092,-115
 L 40,-115 L 40,-101 L 31,-101 L 31,-115.543 L 31.2682,-115.714 L 31.5483,-115.921
 L 31.8159,-116.148 L 32.0709,-116.394 L 32.3133,-116.66 L 32.5432,-116.946 L 32.7605,-117.251 L 32.965,-117.576
 L 33.1563,-117.917 L 33.3344,-118.277 L 33.4993,-118.654 L 33.651,-119.049 L 33.7895,-119.462 L 33.9148,-119.892
 L 34.027,-120.34 L 34.1259,-120.806 L 34.2117,-121.289 L 34.2842,-121.791 L 34.3436,-122.309 L 34.3898,-122.846
 L 34.4227,-123.4 L 34.4425,-123.972 L 34.4491,-124.562 L 34.4428,-125.161 L 34.424,-125.742 L 34.3926,-126.304
 L 34.3487,-126.847 L 34.2922,-127.372 L 34.2231,-127.878 L 34.1415,-128.365 L 34.0473,-128.834 L 33.9406,-129.284
 L 33.8213,-129.715 L 33.6895,-130.128 L 33.5451,-130.522 L 33.3881,-130.898 L 33.2186,-131.255 L 33.0365,-131.593
 L 32.8419,-131.912 L 32.6341,-132.213 L 32.4125,-132.494 L 32.1771,-132.756 L 31.9278,-132.998 L 31.6647,-133.221
 L 31.3878,-133.425 L 31.097,-133.609 L 30.7924,-133.774 L 30.474,-133.919 L 30.1418,-134.045 L 29.7957,-134.152
 L 29.4358,-134.239 L 29.0621,-134.307 L 28.6745,-134.356 L 28.2731,-134.385 L 27.8579,-134.394 L 27.4312,-134.385
 L 27.0191,-134.356 L 26.6215,-134.308 L 26.2385,-134.241 L 25.87,-134.155 L 25.5162,-134.049 L 25.1768,-133.925
 L 24.8521,-133.781 L 24.5419,-133.618 L 24.2464,-133.435 L 23.9653,-133.234 L 23.6989,-133.014 L 23.447,-132.774
 L 23.2097,-132.515 L 22.9869,-132.237 L 22.7787,-131.94 L 22.5841,-131.623 L 22.402,-131.287 L 22.2325,-130.932
 L 22.0756,-130.558 L 21.9312,-130.164 L 21.7993,-129.751 L 21.68,-129.319 L 21.5733,-128.868 L 21.4791,-128.397
 L 21.3975,-127.907 L 21.3285,-127.398 L 21.272,-126.869 L 21.228,-126.321 L 21.1966,-125.754 L 21.1778,-125.167
 L 21.1715,-124.562 L 21.178,-123.969 L 21.1974,-123.394 L 21.2297,-122.837 L 21.2749,-122.298 L 21.3331,-121.778
 L 21.4042,-121.275 L 21.4882,-120.79 L 21.5852,-120.323 L 21.695,-119.875 L 21.8178,-119.444 L 21.9536,-119.031
 L 22.1022,-118.636 L 22.2638,-118.26 L 22.4383,-117.901 L 22.6257,-117.56 L 22.8261,-117.238 L 23.0394,-116.934
 L 23.2654,-116.65 L 23.5043,-116.385 L 23.756,-116.14 L 24.0205,-115.915 L 24.2979,-115.709 L 24.588,-115.523
 L 24.891,-115.356 L 25.2068,-115.209 L 25.5355,-115.082 L 25.8769,-114.974 L 26.2312,-114.886 L 26.5983,-114.817
 L 26.9782,-114.768 L 27.371,-114.739 L 27.7765,-114.729 L 28.1822,-114.739 L 28.5753,-114.768 L 28.9559,-114.817
 L 29.3239,-114.886 L 29.6793,-114.975 L 30,-115.077 L 30,-101 L 11,-101 L 11,-115
 L 19.0508,-115 L 19.0508,-117.075 L 11,-117.075 L 11,-119.663 L 11.05,-119.713 L 11.1927,-119.852
 L 11.3404,-119.992 L 11.493,-120.135 L 11.6506,-120.28 L 11.8132,-120.426 L 11.9808,-120.575 L 12.1533,-120.725
 L 12.3309,-120.878 L 12.5134,-121.032 L 12.7009,-121.189 L 12.8934,-121.347 L 13.2406,-121.631 L 13.5734,-121.905
 L 13.892,-122.169 L 14.1963,-122.425 L 14.4862,-122.67 L 14.7619,-122.907 L 15.0232,-123.134 L 15.2702,-123.351
 L 15.503,-123.559 L 15.7214,-123.758 L 15.9255,-123.947 L 16.1154,-124.127 L 16.2909,-124.297 L 16.4521,-124.458
 L 16.599,-124.609 L 16.7316,-124.751 L 16.8551,-124.889 L 16.9748,-125.026 L 17.0905,-125.163 L 17.2025,-125.301
 L 17.3105,-125.438 L 17.4147,-125.575 L 17.515,-125.713 L 17.6114,-125.85 L 17.704,-125.987 L 17.7927,-126.125
 L 17.8776,-126.262 L 17.9586,-126.399 L 18.0357,-126.537 L 18.1089,-126.674 L 18.1783,-126.811 L 18.2438,-126.949
 L 18.3054,-127.086 L 18.363,-127.223 L 18.4166,-127.361 L 18.4663,-127.499 L 18.512,-127.637 L 18.5537,-127.774
 L 18.5915,-127.912 L 18.6252,-128.051 L 18.655,-128.189 L 18.6809,-128.327 L 18.7027,-128.465 L 18.7206,-128.604
 L 18.7345,-128.743 L 18.7444,-128.881 L 18.7504,-129.02 L 18.7524,-129.159 L 18.7463,-129.468 L 18.7281,-129.769
 L 18.6978,-130.06 L 18.6553,-130.342 L 18.6007,-130.616 L 18.534,-130.88 L 18.4551,-131.135 L 18.3641,-131.382
 L 18.261,-131.619 L 18.1458,-131.848 L 18.0184,-132.068 L 17.8788,-132.278 L 17.7272,-132.48 L 17.5634,-132.673
 L 17.3875,-132.857 L 17.1994,-133.031 L 17.0001,-133.196 L 16.7903,-133.351 L 16.5701,-133.495 L 16.3395,-133.628
 L 16.0984,-133.75 L 15.8469,-133.862 L 15.585,-133.963 L 15.3126,-134.054 L 15.0298,-134.133 L 14.7365,-134.203
 L 14.4328,-134.261 L 14.1187,-134.309 L 13.7941,-134.346 L 13.4591,-134.373 L 13.1137,-134.389 L 12.7578,-134.394
 L 12.4326,-134.389 L 12.1149,-134.373 L 11.8047,-134.347 L 11.502,-134.31 L 11.2067,-134.262 L 10.9189,-134.204
 L 10.6385,-134.135 L 10.3656,-134.055 L 10.1002,-133.965 L 9.8423,-133.865 L 9.59184,-133.753 L 9.34886,-133.631
 L 9.11333,-133.499 L 8.88528,-133.356 L 8.6647,-133.202 L 8.4516,-133.038 L 8.2477,-132.865 L 8.05478,-132.684
 L 7.87282,-132.497 L 7.70183,-132.301 L 7.54181,-132.099 L 7.39275,-131.889 L 7.25467,-131.672 L 7.12755,-131.448
 L 7.01138,-131.216 L 6.9062,-130.977 L 6.81198,-130.731 L 6.72873,-130.477 L 6.65645,-130.216 L 6.59512,-129.948
 L 6.54477,-129.673 L 6.50539,-129.39 L 9.00099,-129.159 L 9.02628,-129.348 L 9.05807,-129.532 L 9.09639,-129.71
 L 9.14124,-129.883 L 9.19258,-130.05 L 9.25046,-130.212 L 9.31483,-130.369 L 9.38574,-130.521 L 9.46317,-130.667
 L 9.5471,-130.807 L 9.63756,-130.943 L 9.73453,-131.073 L 9.83801,-131.197 L 9.94803,-131.317 L 10.0645,-131.431
 L 10.1876,-131.539 L 10.316,-131.642 L 10.4488,-131.738 L 10.5858,-131.828 L 10.7271,-131.91 L 10.8727,-131.986
 L 11.0227,-132.056 L 11.1768,-132.119 L 11.3353,-132.175 L 11.4981,-132.225 L 11.6652,-132.268 L 11.8366,-132.304
 L 12.0122,-132.334 L 12.1922,-132.357 L 12.3764,-132.374 L 12.565,-132.384 L 12.7578,-132.387 L 12.9601,-132.384
 L 13.1568,-132.374 L 13.3479,-132.357 L 13.5334,-132.333 L 13.7132,-132.302 L 13.8875,-132.265 L 14.0561,-132.221
 L 14.2191,-132.17 L 14.3765,-132.113 L 14.5283,-132.048 L 14.6744,-131.977 L 14.815,-131.899 L 14.9499,-131.814
 L 15.0792,-131.723 L 15.2029,-131.624 L 15.321,-131.519 L 15.4327,-131.408 L 15.5372,-131.291 L 15.6345,-131.169
 L 15.7245,-131.041 L 15.8074,-130.908 L 15.8831,-130.769 L 15.9515,-130.625 L 16.0128,-130.475 L 16.0668,-130.32
 L 16.1137,-130.159 L 16.1533,-129.992 L 16.1857,-129.82 L 16.211,-129.643 L 16.229,-129.46 L 16.2398,-129.272
 L 16.2434,-129.078 L 16.2413,-128.933 L 16.235,-128.79 L 16.2245,-128.649 L 16.2099,-128.51 L 16.1911,-128.373
 L 16.168,-128.237 L 16.1408,-128.104 L 16.1094,-127.973 L 16.0739,-127.843 L 16.0341,-127.715 L 15.9901,-127.59
 L 15.942,-127.466 L 15.8897,-127.344 L 15.8332,-127.224 L 15.7725,-127.105 L 15.7076,-126.989 L 15.6393,-126.874
 L 15.5685,-126.76 L 15.495,-126.646 L 15.4189,-126.533 L 15.3403,-126.421 L 15.259,-126.309 L 15.1752,-126.198
 L 15.0887,-126.087 L 14.9997,-125.977 L 14.9081,-125.868 L 14.8139,-125.76 L 14.717,-125.652 L 14.6176,-125.544
 L 14.5156,-125.438 L 14.411,-125.331 L 14.3038,-125.226 L 14.1945,-125.121 L 14.0835,-125.016 L 13.9709,-124.911
 L 13.8567,-124.806 L 13.7408,-124.7 L 13.6232,-124.595 L 13.5041,-124.49 L 13.3832,-124.385 L 13.2608,-124.28
 L 13.1367,-124.175 L 13.0109,-124.07 L 12.8836,-123.965 L 12.7545,-123.86 L 12.6239,-123.755 L 12.4915,-123.649
 L 12.3576,-123.544 L 12.2227,-123.439 L 12.0877,-123.332 L 11.9525,-123.224 L 11.8172,-123.115 L 11.6817,-123.005
 L 11.5461,-122.894 L 11.4103,-122.781 L 11.2743,-122.668 L 11.1382,-122.553 L 11.0019,-122.438 L 10.8654,-122.321
 L 10.7288,-122.203 L 10.5921,-122.084 L 10.4551,-121.964 L 10.318,-121.843 L 10.1808,-121.72 L 10.0439,-121.596
 L 9.90778,-121.471 L 9.77246,-121.343 L 9.63792,-121.214 L 9.5042,-121.083 L 9.37125,-120.95 L 9.23911,-120.816
 L 9.10774,-120.679 L 8.97717,-120.541 L 8.8474,-120.401 L 8.71841,-120.259 L 8.59023,-120.116 L 8.46283,-119.97
 L 8.33623,-119.823 L 8.21042,-119.674 L 8.08539,-119.523 L 7.96199,-119.37 L 7.84096,-119.214 L 7.72232,-119.055
 L 7.60606,-118.893 L 7.4922,-118.728 L 7.38071,-118.56 L 7.27161,-118.39 L 7.16489,-118.216 L 7.06056,-118.039
 L 6.95862,-117.86 L 6.85905,-117.678 L 6.76187,-117.492 L 6.66707,-117.304 L 6.57466,-117.113 L 6.48463,-116.919
 L 6.39699,-116.722 L 6.39699,-115 L 10,-115 L 10,-101 z
M 27.5368,-116.73 L 27.2793,-116.752 L 27.031,-116.789 L 26.7918,-116.84 L 26.5618,-116.906 L 26.341,-116.988
 L 26.1293,-117.083 L 25.9268,-117.194 L 25.7335,-117.319 L 25.5493,-117.459 L 25.3743,-117.613 L 25.2084,-117.783
 L 25.0518,-117.967 L 24.9043,-118.166 L 24.7659,-118.379 L 24.6367,-118.608 L 24.516,-118.852 L 24.4031,-119.113
 L 24.298,-119.391 L 24.2006,-119.687 L 24.1111,-119.999 L 24.0293,-120.329 L 23.9553,-120.675 L 23.8891,-121.039
 L 23.8307,-121.419 L 23.7801,-121.817 L 23.7373,-122.232 L 23.7022,-122.664 L 23.675,-123.113 L 23.6555,-123.579
 L 23.6438,-124.062 L 23.6399,-124.562 L 23.6438,-125.076 L 23.6553,-125.572 L 23.6745,-126.05 L 23.7014,-126.509
 L 23.7359,-126.95 L 23.7782,-127.373 L 23.8281,-127.777 L 23.8857,-128.162 L 23.951,-128.53 L 24.024,-128.878
 L 24.1046,-129.208 L 24.193,-129.52 L 24.289,-129.814 L 24.3927,-130.089 L 24.5041,-130.345 L 24.6231,-130.583
 L 24.751,-130.805 L 24.8888,-131.012 L 25.0365,-131.205 L 25.1941,-131.384 L 25.3616,-131.549 L 25.539,-131.699
 L 25.7263,-131.835 L 25.9235,-131.956 L 26.1306,-132.064 L 26.3477,-132.157 L 26.5746,-132.235 L 26.8115,-132.3
 L 27.0582,-132.35 L 27.3149,-132.386 L 27.5815,-132.407 L 27.8579,-132.414 L 28.1277,-132.407 L 28.3878,-132.385
 L 28.6382,-132.349 L 28.8789,-132.298 L 29.1099,-132.233 L 29.3312,-132.153 L 29.5428,-132.059 L 29.7447,-131.95
 L 29.937,-131.826 L 30.1195,-131.688 L 30.2923,-131.536 L 30.4555,-131.369 L 30.6089,-131.188 L 30.7527,-130.992
 L 30.8867,-130.781 L 31.0111,-130.556 L 31.1269,-130.315 L 31.2352,-130.056 L 31.3361,-129.779 L 31.4295,-129.485
 L 31.5154,-129.172 L 31.5938,-128.842 L 31.6648,-128.494 L 31.7283,-128.129 L 31.7843,-127.745 L 31.8329,-127.344
 L 31.8739,-126.924 L 31.9075,-126.487 L 31.9337,-126.033 L 31.9524,-125.56 L 31.9636,-125.07 L 31.9673,-124.562
 L 31.9634,-124.071 L 31.9516,-123.597 L 31.932,-123.139 L 31.9046,-122.697 L 31.8693,-122.271 L 31.8262,-121.861
 L 31.7752,-121.467 L 31.7164,-121.09 L 31.6498,-120.728 L 31.5753,-120.383 L 31.493,-120.053 L 31.4028,-119.74
 L 31.3048,-119.443 L 31.1989,-119.162 L 31.0853,-118.897 L 31,-118.722 L 31,-120 L 30,-120
 L 30,-117.437 L 29.8649,-117.332 L 29.6719,-117.204 L 29.4698,-117.091 L 29.2588,-116.993 L 29.0388,-116.91
 L 28.8098,-116.843 L 28.5717,-116.79 L 28.3246,-116.752 L 28.0686,-116.73 L 27.8035,-116.722 z
M 9.0824,-117.075 L 9.13525,-117.194 L 9.19214,-117.314 L 9.25307,-117.434 L 9.31801,-117.554 L 9.38698,-117.676
 L 9.45998,-117.798 L 9.53699,-117.92 L 9.61804,-118.043 L 9.70312,-118.167 L 9.79222,-118.291 L 9.88535,-118.416
 L 9.9825,-118.541 L 10,-118.563 L 10,-117.075 z
M 56.8012,-117.075 L 52.1494,-117.075 L 52.1494,-134.11 L 49.898,-134.11 L 45.3816,-131.004 L 45.3816,-128.698
 L 49.6944,-131.777 L 49.6944,-117.075 L 44.8256,-117.075 L 44.8256,-115 L 56.8012,-115 z
M 21.0467,39.9726 L 22.0906,39.8904 L 23.1287,39.7538 L 24.1582,39.5629 L 25.1764,39.3185 L 26.1803,39.0211
 L 27.1674,38.6716 L 28.1347,38.2709 L 29.0798,37.8201 L 30,37.3205 L 30.8928,36.7734 L 31.7557,36.1803
 L 32.5864,35.5429 L 33.3826,34.8629 L 34.1421,34.1421 L 34.8629,33.3826 L 35.5429,32.5864 L 36.1803,31.7557
 L 36.7734,30.8928 L 37.3205,30 L 37.8201,29.0798 L 38.2709,28.1347 L 38.6716,27.1674 L 39.0211,26.1803
 L 39.3185,25.1764 L 39.5629,24.1582 L 39.7538,23.1287 L 39.8904,22.0906 L 39.9726,21.0467 L 40,20
 L 39.9726,18.9533 L 39.8904,17.9094 L 39.7538,16.8713 L 39.5629,15.8418 L 39.3185,14.8236 L 39.0211,13.8197
 L 38.6716,12.8326 L 38.2709,11.8653 L 37.8201,10.9202 L 37.3205,10 L 36.7734,9.10722 L 36.1803,8.24431
 L 35.5429,7.4136 L 34.8629,6.6174 L 34.1421,5.85786 L 33.3826,5.13712 L 32.5864,4.45709 L 31.7557,3.81967
 L 30.8928,3.22659 L 30,2.6795 L 29.0798,2.17987 L 28.1347,1.7291 L 27.1674,1.3284 L 26.1803,0.978882
 L 25.1764,0.681488 L 24.1582,0.437057 L 23.1287,0.246246 L 22.0906,0.109573 L 21.0467,0.02742 L 20,-0
 L 18.9533,0.02742 L 17.9094,0.109573 L 16.8713,0.246246 L 15.8418,0.437057 L 14.8236,0.681488 L 13.8197,0.978882
 L 12.8326,1.3284 L 11.8653,1.7291 L 10.9202,2.17987 L 10,2.6795 L 9.10722,3.22659 L 8.24431,3.81967
 L 7.4136,4.45709 L 6.6174,5.13712 L 5.85786,5.85786 L 5.13712,6.6174 L 4.45709,7.4136 L 3.81967,8.24431
 L 3.22659,9.10722 L 2.6795,10 L 2.17987,10.9202 L 1.7291,11.8653 L 1.3284,12.8326 L 0.978882,13.8197
 L 0.681488,14.8236 L 0.437057,15.8418 L 0.246246,16.8713 L 0.109573,17.9094 L 0.02742,18.9533 L 0,20
 L 0.02742,21.0467 L 0.109573,22.0906 L 0.246246,23.1287 L 0.437057,24.1582 L 0.681488,25.1764 L 0.978882,26.1803
 L 1.3284,27.1674 L 1.7291,28.1347 L 2.17987,29.0798 L 2.6795,30 L 3.22659,30.8928 L 3.81967,31.7557
 L 4.45709,32.5864 L 5.13712,33.3826 L 5.85786,34.1421 L 6.6174,34.8629 L 7.4136,35.5429 L 8.24431,36.1803
 L 9.10722,36.7734 L 10,37.3205 L 10.9202,37.8201 L 11.8653,38.2709 L 12.8326,38.6716 L 13.8197,39.0211
 L 14.8236,39.3185 L 15.8418,39.5629 L 16.8713,39.7538 L 17.9094,39.8904 L 18.9533,39.9726 L 20,40
 z
M 19.4701,30.1111 L 18.9417,30.0695 L 18.4161,30.0003 L 17.8949,29.9037 L 17.3795,29.78 L 16.8712,29.6294
 L 16.3715,29.4525 L 15.8818,29.2496 L 15.4034,29.0214 L 14.9375,28.7685 L 14.4855,28.4915 L 14.0487,28.1913
 L 13.6281,27.8686 L 13.2251,27.5243 L 12.8405,27.1595 L 12.4757,26.7749 L 12.1314,26.3719 L 11.8087,25.9513
 L 11.5085,25.5145 L 11.2315,25.0625 L 10.9786,24.5966 L 10.7504,24.1182 L 10.5475,23.6285 L 10.3706,23.1288
 L 10.22,22.6205 L 10.0963,22.1051 L 9.99966,21.5839 L 9.93048,21.0583 L 9.88889,20.5299 L 9.875,20
 L 9.88889,19.4701 L 9.93048,18.9417 L 9.99966,18.4161 L 10.0963,17.8949 L 10.22,17.3795 L 10.3706,16.8712
 L 10.5475,16.3715 L 10.7504,15.8818 L 10.9786,15.4034 L 11.2315,14.9375 L 11.5085,14.4855 L 11.8087,14.0487
 L 12.1314,13.6281 L 12.4757,13.2251 L 12.8405,12.8405 L 13.2251,12.4757 L 13.6281,12.1314 L 14.0487,11.8087
 L 14.4855,11.5085 L 14.9375,11.2315 L 15.4034,10.9786 L 15.8818,10.7504 L 16.3715,10.5475 L 16.8712,10.3706
 L 17.3795,10.22 L 17.8949,10.0963 L 18.4161,9.99966 L 18.9417,9.93048 L 19.4701,9.88889 L 20,9.875
 L 20.5299,9.88889 L 21.0583,9.93048 L 21.5839,9.99966 L 22.1051,10.0963 L 22.6205,10.22 L 23.1288,10.3706
 L 23.6285,10.5475 L 24.1182,10.7504 L 24.5966,10.9786 L 25.0625,11.2315 L 25.5145,11.5085 L 25.9513,11.8087
 L 26.3719,12.1314 L 26.7749,12.4757 L 27.1595,12.8405 L 27.5243,13.2251 L 27.8686,13.6281 L 28.1913,14.0487
 L 28.4915,14.4855 L 28.7685,14.9375 L 29.0214,15.4034 L 29.2496,15.8818 L 29.4525,16.3715 L 29.6294,16.8712
 L 29.78,17.3795 L 29.9037,17.8949 L 30.0003,18.4161 L 30.0695,18.9417 L 30.1111,19.4701 L 30.125,20
 L 30.1111,20.5299 L 30.0695,21.0583 L 30.0003,21.5839 L 29.9037,22.1051 L 29.78,22.6205 L 29.6294,23.1288
 L 29.4525,23.6285 L 29.2496,24.1182 L 29.0214,24.5966 L 28.7685,25.0625 L 28.4915,25.5145 L 28.1913,25.9513
 L 27.8686,26.3719 L 27.5243,26.7749 L 27.1595,27.1595 L 26.7749,27.5243 L 26.3719,27.8686 L 25.9513,28.1913
 L 25.5145,28.4915 L 25.0625,28.7685 L 24.5966,29.0214 L 24.1182,29.2496 L 23.6285,29.4525 L 23.1288,29.6294
 L 22.6205,29.78 L 22.1051,29.9037 L 21.5839,30.0003 L 21.0583,30.0695 L 20.5299,30.1111 L 20,30.125
 z
" stroke="black" fill="lightgray" stroke-width="0.5"/>
</svg>
