<?xml version="1.0" standalone="no"?>
<!DOCTYPE svg PUBLIC "-//W3C//DTD SVG 1.1//EN" "http://www.w3.org/Graphics/SVG/1.1/DTD/svg11.dtd">
<svg width="315mm" height="275mm" viewBox="-20 -215 315 275" xmlns="http://www.w3.org/2000/svg" version="1.1">
<title>OpenSCAD Model</title>
<path d="
M 49.8129,-199.326 L 52.4983,-199.326 L 52.4983,-201.252 L 49.8129,-201.252 L 49.8129,-214.11 L 47.2495,-214.11
 L 38.5017,-201.225 L 38.5017,-199.326 L 47.5073,-199.326 L 47.5073,-195 L 49.8129,-195 z
M 40.7531,-201.252 L 40.9701,-201.524 L 41.7025,-202.527 L 46.5985,-209.742 L 46.6212,-209.776 L 46.6453,-209.813
 L 46.6708,-209.852 L 46.6977,-209.895 L 46.7259,-209.941 L 46.7556,-209.989 L 46.7866,-210.041 L 46.8189,-210.095
 L 46.8527,-210.153 L 46.8878,-210.213 L 46.9243,-210.276 L 46.9622,-210.343 L 47.0014,-210.412 L 47.0421,-210.484
 L 47.0841,-210.559 L 47.1275,-210.638 L 47.1703,-210.715 L 47.2106,-210.788 L 47.2483,-210.857 L 47.2834,-210.922
 L 47.3161,-210.982 L 47.3462,-211.037 L 47.3737,-211.089 L 47.3987,-211.136 L 47.4212,-211.179 L 47.4411,-211.217
 L 47.4585,-211.251 L 47.4733,-211.281 L 47.4856,-211.306 L 47.4954,-211.327 L 47.5026,-211.344 L 47.5073,-211.356
 L 47.5073,-201.252 z
M 30.2801,-195.33 L 30.2872,-195.658 L 30.299,-195.986 L 30.3155,-196.311 L 30.3367,-196.636 L 30.3626,-196.959
 L 30.3933,-197.28 L 30.4287,-197.601 L 30.4688,-197.919 L 30.5135,-198.237 L 30.5631,-198.553 L 30.6173,-198.868
 L 30.6762,-199.181 L 30.7399,-199.493 L 30.8083,-199.804 L 30.8814,-200.113 L 30.9592,-200.422 L 31.0417,-200.731
 L 31.1289,-201.041 L 31.2209,-201.351 L 31.3175,-201.662 L 31.4189,-201.974 L 31.525,-202.286 L 31.6358,-202.598
 L 31.7513,-202.911 L 31.8716,-203.225 L 31.9965,-203.539 L 32.1262,-203.854 L 32.2606,-204.169 L 32.3996,-204.485
 L 32.5434,-204.801 L 32.692,-205.118 L 32.8496,-205.442 L 33.0206,-205.782 L 33.2052,-206.137 L 33.4031,-206.507
 L 33.6146,-206.892 L 33.8394,-207.292 L 34.0778,-207.708 L 34.3296,-208.139 L 34.5949,-208.584 L 34.8736,-209.045
 L 35.1658,-209.522 L 35.4714,-210.013 L 35.7905,-210.519 L 36.1231,-211.041 L 36.4691,-211.578 L 36.8286,-212.129
 L 36.8286,-214.11 L 24.2018,-214.11 L 24.2018,-212.035 L 34.4686,-212.035 L 34.0224,-211.38 L 33.5924,-210.735
 L 33.1788,-210.099 L 32.7814,-209.473 L 32.4002,-208.857 L 32.0353,-208.25 L 31.6867,-207.653 L 31.3544,-207.065
 L 31.0383,-206.488 L 30.7384,-205.919 L 30.4549,-205.36 L 30.1876,-204.811 L 29.9365,-204.271 L 29.7017,-203.741
 L 29.4832,-203.221 L 29.281,-202.71 L 29.0929,-202.206 L 28.917,-201.704 L 28.7533,-201.206 L 28.6016,-200.71
 L 28.4621,-200.218 L 28.3347,-199.728 L 28.2195,-199.242 L 28.1164,-198.758 L 28.0254,-198.278 L 27.9465,-197.801
 L 27.8798,-197.326 L 27.8252,-196.855 L 27.7828,-196.387 L 27.7524,-195.921 L 27.7342,-195.459 L 27.7282,-195
 L 30.2778,-195 z
M 1,-100 L 13.3333,-100 L 13.3333,-20 L 14.3333,-20 L 14.3333,-100 L 60,-100
 L 60,-20 L 61,-20 L 61,-100 L 73.3333,-100 L 73.3333,-20 L 74.3333,-20
 L 74.3333,-100 L 93.3333,-100 L 93.3333,-101 L 74.3333,-101 L 74.3333,-180 L 93.3333,-180
 L 93.3333,-181 L 74.3333,-181 L 74.3333,-200 L 73.3333,-200 L 73.3333,-181 L 1,-181
 L 1,-200 L 0,-200 L 0,-181 L -20,-181 L -20,-180 L 0,-180
 L 0,-101 L -20,-101 L -20,-100 L 0,-100 L 0,-20 L 1,-20
 z
M 1,-101 L 1,-180 L 73.3333,-180 L 73.3333,-101 L 61,-101 L 61,-115
 L 72.4247,-115 L 72.4247,-117.075 L 67.7729,-117.075 L 67.7729,-134.11 L 65.5215,-134.11 L 61.0051,-131.004
 L 61.0051,-128.698 L 65.3179,-131.777 L 65.3179,-117.075 L 61,-117.075 L 61,-120 L 60,-120
 L 60,-101 L 14.3333,-101 L 14.3333,-120 L 14.308,-120 L 14.3135,-120.276 L 14.3089,-120.502
 L 14.2949,-120.724 L 14.2716,-120.94 L 14.2389,-121.152 L 14.197,-121.359 L 14.1457,-121.561 L 14.0851,-121.758
 L 14.0151,-121.951 L 13.9359,-122.138 L 13.8473,-122.321 L 13.7494,-122.498 L 13.6421,-122.671 L 13.5256,-122.839
 L 13.3997,-123.002 L 13.2645,-123.16 L 13.1199,-123.314 L 12.967,-123.461 L 12.8067,-123.6 L 12.639,-123.732
 L 12.4639,-123.856 L 12.2813,-123.973 L 12.0914,-124.082 L 11.894,-124.183 L 11.6892,-124.277 L 11.4769,-124.363
 L 11.2573,-124.441 L 11.0303,-124.512 L 10.7958,-124.575 L 10.5539,-124.631 L 10.3046,-124.678 L 10.0479,-124.719
 L 9.78372,-124.751 L 9.78372,-124.806 L 10.0242,-124.859 L 10.2574,-124.919 L 10.4834,-124.984 L 10.7021,-125.055
 L 10.9136,-125.132 L 11.1178,-125.215 L 11.3148,-125.303 L 11.5045,-125.397 L 11.6869,-125.497 L 11.8621,-125.603
 L 12.03,-125.715 L 12.1907,-125.832 L 12.3441,-125.955 L 12.4902,-126.084 L 12.6291,-126.218 L 12.7607,-126.359
 L 12.8847,-126.505 L 13.0007,-126.656 L 13.1087,-126.812 L 13.2087,-126.974 L 13.3007,-127.142 L 13.3847,-127.314
 L 13.4607,-127.492 L 13.5287,-127.676 L 13.5887,-127.865 L 13.6407,-128.059 L 13.6847,-128.258 L 13.7207,-128.463
 L 13.7487,-128.673 L 13.7687,-128.889 L 13.7807,-129.109 L 13.7847,-129.336 L 13.7785,-129.63 L 13.7598,-129.916
 L 13.7287,-130.194 L 13.6851,-130.463 L 13.6291,-130.725 L 13.5606,-130.978 L 13.4797,-131.223 L 13.3863,-131.46
 L 13.2805,-131.688 L 13.1622,-131.909 L 13.0315,-132.121 L 12.8883,-132.325 L 12.7327,-132.521 L 12.5646,-132.708
 L 12.3841,-132.887 L 12.1911,-133.058 L 11.9869,-133.22 L 11.7727,-133.372 L 11.5484,-133.512 L 11.3142,-133.643
 L 11.0699,-133.763 L 10.8157,-133.873 L 10.5514,-133.972 L 10.2771,-134.06 L 9.99275,-134.139 L 9.69841,-134.207
 L 9.39406,-134.264 L 9.0797,-134.311 L 8.75533,-134.347 L 8.42094,-134.374 L 8.07654,-134.389 L 7.72212,-134.394
 L 7.39697,-134.389 L 7.0793,-134.374 L 6.7691,-134.348 L 6.46637,-134.312 L 6.1711,-134.266 L 5.8833,-134.209
 L 5.60298,-134.143 L 5.33011,-134.065 L 5.06473,-133.978 L 4.80681,-133.88 L 4.55635,-133.773 L 4.31337,-133.654
 L 4.07785,-133.526 L 3.84981,-133.387 L 3.62923,-133.238 L 3.41612,-133.079 L 3.21222,-132.91 L 3.0193,-132.734
 L 2.83734,-132.549 L 2.66635,-132.357 L 2.50633,-132.156 L 2.35727,-131.947 L 2.21919,-131.73 L 2.09207,-131.506
 L 1.97591,-131.273 L 1.87073,-131.032 L 1.7765,-130.783 L 1.69325,-130.526 L 1.62097,-130.261 L 1.55965,-129.987
 L 1.50929,-129.706 L 1.46991,-129.417 L 3.92471,-129.227 L 3.94832,-129.413 L 3.97845,-129.593 L 4.01509,-129.768
 L 4.05824,-129.937 L 4.10791,-130.102 L 4.16409,-130.261 L 4.22679,-130.415 L 4.29602,-130.563 L 4.37175,-130.706
 L 4.45399,-130.844 L 4.54276,-130.977 L 4.63805,-131.104 L 4.73984,-131.226 L 4.84814,-131.342 L 4.96297,-131.454
 L 5.08432,-131.56 L 5.21133,-131.66 L 5.34315,-131.754 L 5.47981,-131.841 L 5.62129,-131.922 L 5.76759,-131.996
 L 5.91872,-132.064 L 6.07465,-132.125 L 6.23541,-132.18 L 6.401,-132.229 L 6.57141,-132.271 L 6.74664,-132.306
 L 6.9267,-132.335 L 7.11156,-132.358 L 7.30125,-132.374 L 7.49577,-132.384 L 7.69511,-132.387 L 7.91377,-132.384
 L 8.1256,-132.373 L 8.33058,-132.356 L 8.52875,-132.332 L 8.72006,-132.3 L 8.90454,-132.262 L 9.0822,-132.217
 L 9.25302,-132.165 L 9.41699,-132.106 L 9.57414,-132.04 L 9.72446,-131.967 L 9.86794,-131.887 L 10.0046,-131.801
 L 10.1344,-131.707 L 10.2574,-131.606 L 10.3735,-131.499 L 10.4827,-131.385 L 10.5849,-131.267 L 10.6801,-131.143
 L 10.7681,-131.014 L 10.8492,-130.881 L 10.9232,-130.742 L 10.9901,-130.598 L 11.05,-130.449 L 11.1029,-130.296
 L 11.1487,-130.137 L 11.1874,-129.973 L 11.2191,-129.804 L 11.2438,-129.63 L 11.2614,-129.451 L 11.272,-129.267
 L 11.2755,-129.078 L 11.2712,-128.887 L 11.2582,-128.702 L 11.2366,-128.522 L 11.2064,-128.347 L 11.1676,-128.177
 L 11.1201,-128.013 L 11.0639,-127.854 L 10.9992,-127.7 L 10.9258,-127.551 L 10.8437,-127.407 L 10.753,-127.269
 L 10.6537,-127.136 L 10.5458,-127.009 L 10.4292,-126.886 L 10.304,-126.769 L 10.1701,-126.657 L 10.0284,-126.551
 L 9.87971,-126.452 L 9.72395,-126.36 L 9.56114,-126.274 L 9.39128,-126.196 L 9.21437,-126.124 L 9.03041,-126.059
 L 8.83942,-126.001 L 8.64137,-125.95 L 8.43628,-125.905 L 8.22414,-125.868 L 8.00494,-125.837 L 7.7787,-125.813
 L 7.54543,-125.796 L 7.3051,-125.786 L 7.05771,-125.782 L 5.72852,-125.782 L 5.72852,-123.666 L 7.11192,-123.666
 L 7.39088,-123.663 L 7.66153,-123.653 L 7.92386,-123.636 L 8.17787,-123.612 L 8.42355,-123.581 L 8.66093,-123.543
 L 8.88998,-123.499 L 9.11072,-123.448 L 9.32314,-123.39 L 9.52722,-123.325 L 9.72301,-123.253 L 9.91046,-123.174
 L 10.0896,-123.089 L 10.2604,-122.997 L 10.4229,-122.898 L 10.5771,-122.792 L 10.7225,-122.68 L 10.8584,-122.562
 L 10.985,-122.439 L 11.1022,-122.311 L 11.21,-122.178 L 11.3085,-122.039 L 11.3976,-121.895 L 11.4773,-121.746
 L 11.5476,-121.591 L 11.6085,-121.431 L 11.6601,-121.265 L 11.7023,-121.094 L 11.7351,-120.918 L 11.7586,-120.736
 L 11.7726,-120.549 L 11.7773,-120.357 L 11.7732,-120.137 L 11.7609,-119.923 L 11.7404,-119.717 L 11.7116,-119.517
 L 11.6747,-119.324 L 11.6295,-119.138 L 11.5761,-118.959 L 11.5145,-118.787 L 11.4447,-118.622 L 11.3667,-118.464
 L 11.2805,-118.312 L 11.186,-118.168 L 11.0834,-118.03 L 10.9725,-117.899 L 10.8534,-117.775 L 10.7261,-117.658
 L 10.5916,-117.548 L 10.451,-117.445 L 10.3041,-117.349 L 10.151,-117.261 L 9.99176,-117.179 L 9.82629,-117.105
 L 9.65463,-117.037 L 9.47676,-116.977 L 9.29271,-116.924 L 9.10245,-116.877 L 8.90599,-116.838 L 8.70332,-116.806
 L 8.49448,-116.782 L 8.27942,-116.764 L 8.05817,-116.753 L 7.83072,-116.75 L 7.38374,-116.763 L 6.96167,-116.803
 L 6.56448,-116.869 L 6.19221,-116.962 L 5.84483,-117.081 L 5.52237,-117.226 L 5.22479,-117.399 L 4.95212,-117.597
 L 4.70435,-117.822 L 4.48146,-118.074 L 4.28349,-118.352 L 4.11041,-118.657 L 3.96223,-118.988 L 3.83896,-119.346
 L 3.74059,-119.73 L 3.66711,-120.14 L 1.14432,-119.91 L 1.19051,-119.594 L 1.24765,-119.288 L 1.31577,-118.992
 L 1.39484,-118.706 L 1.48488,-118.43 L 1.58589,-118.164 L 1.69788,-117.907 L 1.82082,-117.66 L 1.95473,-117.423
 L 2.09959,-117.196 L 2.25543,-116.978 L 2.42224,-116.77 L 2.60001,-116.572 L 2.78874,-116.384 L 2.98845,-116.206
 L 3.19911,-116.038 L 3.41985,-115.879 L 3.64975,-115.731 L 3.88881,-115.593 L 4.13704,-115.465 L 4.39444,-115.347
 L 4.661,-115.24 L 4.93672,-115.143 L 5.22162,-115.056 L 5.51567,-114.979 L 5.81889,-114.913 L 6.13129,-114.857
 L 6.45284,-114.811 L 6.78355,-114.775 L 7.12344,-114.749 L 7.4725,-114.734 L 7.83072,-114.729 L 8.21503,-114.734
 L 8.5881,-114.751 L 8.94994,-114.78 L 9.30055,-114.82 L 9.63992,-114.871 L 9.96808,-114.933 L 10.285,-115.007
 L 10.5907,-115.092 L 10.8851,-115.188 L 11.1683,-115.296 L 11.4403,-115.415 L 11.701,-115.545 L 11.9506,-115.687
 L 12.1888,-115.84 L 12.4159,-116.004 L 12.6317,-116.18 L 12.8354,-116.366 L 13.0259,-116.561 L 13.2033,-116.766
 L 13.3333,-116.936 L 13.3333,-101 z
M 45.9825,-114.735 L 46.3586,-114.752 L 46.7234,-114.781 L 47.0766,-114.821 L 47.4184,-114.873 L 47.7488,-114.937
 L 48.0677,-115.012 L 48.3752,-115.098 L 48.6713,-115.197 L 48.9559,-115.306 L 49.229,-115.427 L 49.4907,-115.56
 L 49.741,-115.705 L 49.9798,-115.861 L 50.2072,-116.028 L 50.4231,-116.207 L 50.6267,-116.396 L 50.8173,-116.595
 L 50.9946,-116.802 L 51.1589,-117.019 L 51.31,-117.245 L 51.4479,-117.48 L 51.5728,-117.724 L 51.6844,-117.977
 L 51.783,-118.239 L 51.8684,-118.511 L 51.9406,-118.791 L 51.9998,-119.081 L 52.0458,-119.379 L 52.0786,-119.687
 L 52.0983,-120.004 L 52.1049,-120.33 L 52.1009,-120.563 L 52.089,-120.791 L 52.0691,-121.015 L 52.0413,-121.233
 L 52.0056,-121.447 L 51.9618,-121.655 L 51.9102,-121.859 L 51.8506,-122.058 L 51.783,-122.251 L 51.7076,-122.44
 L 51.6241,-122.624 L 51.5327,-122.803 L 51.4334,-122.977 L 51.3261,-123.146 L 51.2109,-123.311 L 51.0877,-123.47
 L 50.9574,-123.623 L 50.8207,-123.768 L 50.6776,-123.907 L 50.5282,-124.037 L 50.3725,-124.161 L 50.2104,-124.276
 L 50.0419,-124.385 L 49.8671,-124.485 L 49.6859,-124.579 L 49.4984,-124.664 L 49.3045,-124.743 L 49.1042,-124.814
 L 48.8976,-124.877 L 48.6847,-124.933 L 48.4654,-124.982 L 48.2397,-125.023 L 48.2397,-125.077 L 48.4337,-125.12
 L 48.6226,-125.169 L 48.8063,-125.226 L 48.9848,-125.29 L 49.158,-125.361 L 49.3261,-125.439 L 49.489,-125.524
 L 49.6467,-125.616 L 49.7993,-125.715 L 49.9466,-125.822 L 50.0887,-125.935 L 50.2256,-126.056 L 50.3574,-126.184
 L 50.4839,-126.318 L 50.6053,-126.46 L 50.7215,-126.609 L 50.8315,-126.764 L 50.9345,-126.921 L 51.0303,-127.082
 L 51.1191,-127.246 L 51.2007,-127.413 L 51.2753,-127.584 L 51.3427,-127.758 L 51.4031,-127.935 L 51.4563,-128.116
 L 51.5025,-128.3 L 51.5415,-128.487 L 51.5735,-128.677 L 51.5983,-128.871 L 51.6161,-129.068 L 51.6267,-129.268
 L 51.6303,-129.471 L 51.6239,-129.751 L 51.6048,-130.023 L 51.5728,-130.288 L 51.5281,-130.545 L 51.4707,-130.795
 L 51.4005,-131.038 L 51.3175,-131.274 L 51.2217,-131.502 L 51.1132,-131.723 L 50.9919,-131.937 L 50.8578,-132.143
 L 50.7109,-132.342 L 50.5513,-132.534 L 50.379,-132.718 L 50.1938,-132.895 L 49.9959,-133.065 L 49.787,-133.226
 L 49.5688,-133.377 L 49.3413,-133.517 L 49.1046,-133.647 L 48.8586,-133.766 L 48.6033,-133.875 L 48.3388,-133.974
 L 48.065,-134.062 L 47.7819,-134.14 L 47.4895,-134.207 L 47.1879,-134.265 L 46.877,-134.311 L 46.5568,-134.348
 L 46.2274,-134.374 L 45.8887,-134.389 L 45.5407,-134.394 L 45.2009,-134.389 L 44.8699,-134.373 L 44.5476,-134.347
 L 44.234,-134.31 L 43.9292,-134.262 L 43.6331,-134.204 L 43.3458,-134.135 L 43.0672,-134.055 L 42.7973,-133.965
 L 42.5362,-133.865 L 42.2838,-133.753 L 42.0402,-133.631 L 41.8053,-133.499 L 41.5792,-133.356 L 41.3618,-133.202
 L 41.1531,-133.038 L 40.9552,-132.865 L 40.7701,-132.686 L 40.5977,-132.5 L 40.4381,-132.308 L 40.2913,-132.11
 L 40.1572,-131.905 L 40.036,-131.693 L 39.9274,-131.475 L 39.8317,-131.251 L 39.7487,-131.02 L 39.6785,-130.782
 L 39.621,-130.538 L 39.5763,-130.288 L 39.5444,-130.031 L 39.5253,-129.768 L 39.5189,-129.498 L 39.5224,-129.295
 L 39.533,-129.095 L 39.5506,-128.898 L 39.5753,-128.704 L 39.6069,-128.514 L 39.6457,-128.327 L 39.6915,-128.143
 L 39.7443,-127.962 L 39.8042,-127.785 L 39.8712,-127.611 L 39.9451,-127.441 L 40.0262,-127.273 L 40.1142,-127.109
 L 40.2093,-126.948 L 40.3115,-126.791 L 40.4207,-126.637 L 40.536,-126.487 L 40.6565,-126.345 L 40.7821,-126.209
 L 40.9128,-126.08 L 41.0487,-125.957 L 41.1897,-125.841 L 41.3358,-125.732 L 41.4871,-125.63 L 41.6436,-125.534
 L 41.8051,-125.445 L 41.9718,-125.362 L 42.1437,-125.286 L 42.3207,-125.217 L 42.5028,-125.155 L 42.6901,-125.099
 L 42.8825,-125.05 L 42.8825,-124.996 L 42.6763,-124.958 L 42.4748,-124.912 L 42.2779,-124.859 L 42.0857,-124.797
 L 41.8981,-124.728 L 41.7152,-124.651 L 41.537,-124.566 L 41.3634,-124.473 L 41.1945,-124.373 L 41.0303,-124.264
 L 40.8707,-124.148 L 40.7158,-124.024 L 40.5655,-123.892 L 40.4199,-123.752 L 40.279,-123.605 L 40.1427,-123.449
 L 40.0129,-123.288 L 39.8916,-123.121 L 39.7786,-122.95 L 39.674,-122.775 L 39.5777,-122.594 L 39.4898,-122.409
 L 39.4103,-122.22 L 39.3391,-122.025 L 39.2764,-121.826 L 39.222,-121.623 L 39.1759,-121.414 L 39.1382,-121.201
 L 39.1089,-120.984 L 39.088,-120.762 L 39.0755,-120.535 L 39.0713,-120.303 L 39.078,-119.974 L 39.0983,-119.654
 L 39.1321,-119.344 L 39.1794,-119.043 L 39.2402,-118.752 L 39.3145,-118.471 L 39.4023,-118.199 L 39.5036,-117.936
 L 39.6184,-117.683 L 39.7467,-117.44 L 39.8886,-117.206 L 40.044,-116.982 L 40.2128,-116.767 L 40.3952,-116.562
 L 40.5911,-116.366 L 40.8005,-116.18 L 41.0219,-116.004 L 41.2537,-115.84 L 41.496,-115.687 L 41.7487,-115.545
 L 42.0118,-115.415 L 42.2854,-115.296 L 42.5694,-115.188 L 42.8638,-115.092 L 43.1687,-115.007 L 43.484,-114.933
 L 43.8097,-114.871 L 44.1459,-114.82 L 44.4925,-114.78 L 44.8495,-114.751 L 45.217,-114.734 L 45.5949,-114.729
 z
M 45.359,-125.975 L 45.156,-125.985 L 44.9591,-126.002 L 44.7681,-126.026 L 44.5831,-126.056 L 44.4041,-126.093
 L 44.2311,-126.137 L 44.0641,-126.187 L 43.9031,-126.244 L 43.748,-126.308 L 43.599,-126.379 L 43.4559,-126.456
 L 43.3188,-126.541 L 43.1877,-126.631 L 43.0626,-126.729 L 42.9435,-126.833 L 42.831,-126.944 L 42.7258,-127.061
 L 42.6278,-127.184 L 42.537,-127.313 L 42.4536,-127.448 L 42.3774,-127.589 L 42.3084,-127.736 L 42.2467,-127.889
 L 42.1923,-128.049 L 42.1451,-128.214 L 42.1052,-128.386 L 42.0726,-128.564 L 42.0471,-128.748 L 42.029,-128.938
 L 42.0181,-129.134 L 42.0145,-129.336 L 42.018,-129.534 L 42.0286,-129.727 L 42.0462,-129.913 L 42.0708,-130.093
 L 42.1026,-130.266 L 42.1413,-130.434 L 42.1871,-130.595 L 42.2399,-130.749 L 42.2998,-130.898 L 42.3667,-131.04
 L 42.4407,-131.177 L 42.5217,-131.306 L 42.6098,-131.43 L 42.7049,-131.547 L 42.8071,-131.658 L 42.9163,-131.763
 L 43.0322,-131.862 L 43.1546,-131.954 L 43.2834,-132.04 L 43.4186,-132.119 L 43.5602,-132.192 L 43.7082,-132.259
 L 43.8626,-132.32 L 44.0234,-132.374 L 44.1906,-132.421 L 44.3643,-132.463 L 44.5443,-132.498 L 44.7308,-132.526
 L 44.9236,-132.548 L 45.1229,-132.564 L 45.3286,-132.574 L 45.5407,-132.577 L 45.971,-132.564 L 46.3735,-132.526
 L 46.7483,-132.463 L 47.0953,-132.374 L 47.4146,-132.26 L 47.706,-132.121 L 47.9698,-131.957 L 48.2057,-131.767
 L 48.4139,-131.551 L 48.5944,-131.311 L 48.7471,-131.045 L 48.872,-130.754 L 48.9692,-130.437 L 49.0386,-130.095
 L 49.0802,-129.728 L 49.0941,-129.336 L 49.0906,-129.117 L 49.08,-128.907 L 49.0624,-128.704 L 49.0377,-128.509
 L 49.006,-128.321 L 48.9672,-128.141 L 48.9214,-127.969 L 48.8686,-127.805 L 48.8087,-127.648 L 48.7417,-127.499
 L 48.6678,-127.357 L 48.5867,-127.224 L 48.4986,-127.097 L 48.4035,-126.979 L 48.3013,-126.868 L 48.1921,-126.765
 L 48.0762,-126.669 L 47.9538,-126.579 L 47.8251,-126.496 L 47.6899,-126.418 L 47.5483,-126.347 L 47.4003,-126.282
 L 47.2459,-126.223 L 47.0851,-126.17 L 46.9179,-126.124 L 46.7443,-126.084 L 46.5643,-126.049 L 46.3778,-126.022
 L 46.1849,-126 L 45.9857,-125.984 L 45.78,-125.975 L 45.5679,-125.972 z
M 45.1343,-116.575 L 44.678,-116.621 L 44.2531,-116.698 L 43.8598,-116.806 L 43.4978,-116.945 L 43.1674,-117.115
 L 42.8684,-117.315 L 42.6009,-117.546 L 42.3649,-117.808 L 42.1604,-118.101 L 41.9873,-118.425 L 41.8456,-118.78
 L 41.7355,-119.165 L 41.6568,-119.581 L 41.6096,-120.028 L 41.5939,-120.506 L 41.598,-120.715 L 41.6102,-120.919
 L 41.6306,-121.117 L 41.6592,-121.309 L 41.6959,-121.495 L 41.7408,-121.676 L 41.7938,-121.851 L 41.855,-122.02
 L 41.9243,-122.184 L 42.0019,-122.342 L 42.0875,-122.494 L 42.1814,-122.641 L 42.2834,-122.782 L 42.3935,-122.918
 L 42.5118,-123.047 L 42.6383,-123.171 L 42.772,-123.289 L 42.9121,-123.399 L 43.0585,-123.501 L 43.2113,-123.596
 L 43.3705,-123.683 L 43.536,-123.762 L 43.7079,-123.834 L 43.8861,-123.899 L 44.0707,-123.956 L 44.2616,-124.005
 L 44.4589,-124.046 L 44.6625,-124.081 L 44.8725,-124.107 L 45.0889,-124.126 L 45.3116,-124.137 L 45.5407,-124.141
 L 45.7764,-124.138 L 46.0054,-124.127 L 46.2277,-124.109 L 46.4434,-124.085 L 46.6524,-124.053 L 46.8547,-124.014
 L 47.0503,-123.969 L 47.2393,-123.916 L 47.4216,-123.856 L 47.5972,-123.789 L 47.7661,-123.715 L 47.9284,-123.634
 L 48.084,-123.546 L 48.2329,-123.451 L 48.3751,-123.348 L 48.5107,-123.239 L 48.6388,-123.123 L 48.7587,-123
 L 48.8702,-122.87 L 48.9736,-122.734 L 49.0686,-122.59 L 49.1554,-122.44 L 49.2339,-122.283 L 49.3042,-122.119
 L 49.3662,-121.948 L 49.4199,-121.77 L 49.4654,-121.586 L 49.5026,-121.394 L 49.5315,-121.196 L 49.5522,-120.991
 L 49.5646,-120.779 L 49.5687,-120.561 L 49.5649,-120.304 L 49.5534,-120.056 L 49.5343,-119.817 L 49.5076,-119.587
 L 49.4733,-119.366 L 49.4314,-119.153 L 49.3818,-118.95 L 49.3245,-118.755 L 49.2597,-118.569 L 49.1872,-118.392
 L 49.1071,-118.224 L 49.0193,-118.065 L 48.924,-117.914 L 48.821,-117.773 L 48.7103,-117.64 L 48.5921,-117.516
 L 48.4661,-117.4 L 48.3321,-117.292 L 48.1902,-117.191 L 48.0403,-117.097 L 47.8825,-117.012 L 47.7167,-116.933
 L 47.543,-116.862 L 47.3614,-116.799 L 47.1718,-116.743 L 46.9742,-116.694 L 46.7688,-116.653 L 46.5553,-116.619
 L 46.3339,-116.593 L 46.1046,-116.575 L 45.8673,-116.563 L 45.6221,-116.56 z
M 34.7264,-119.326 L 37.4118,-119.326 L 37.4118,-121.252 L 34.7264,-121.252 L 34.7264,-134.11 L 32.163,-134.11
 L 23.4152,-121.225 L 23.4152,-119.326 L 32.4208,-119.326 L 32.4208,-115 L 34.7264,-115 z
M 25.6666,-121.252 L 25.8836,-121.524 L 26.616,-122.527 L 31.512,-129.742 L 31.5347,-129.776 L 31.5588,-129.813
 L 31.5843,-129.852 L 31.6112,-129.895 L 31.6394,-129.941 L 31.669,-129.989 L 31.7,-130.041 L 31.7324,-130.095
 L 31.7662,-130.153 L 31.8013,-130.213 L 31.8378,-130.276 L 31.8757,-130.343 L 31.9149,-130.412 L 31.9556,-130.484
 L 31.9976,-130.559 L 32.041,-130.638 L 32.0838,-130.715 L 32.124,-130.788 L 32.1617,-130.857 L 32.1969,-130.922
 L 32.2296,-130.982 L 32.2597,-131.037 L 32.2872,-131.089 L 32.3122,-131.136 L 32.3347,-131.179 L 32.3546,-131.217
 L 32.372,-131.251 L 32.3868,-131.281 L 32.3991,-131.306 L 32.4089,-131.327 L 32.4161,-131.344 L 32.4208,-131.356
 L 32.4208,-121.252 z
M 81.5484,-114.734 L 81.9214,-114.751 L 82.2833,-114.78 L 82.6339,-114.82 L 82.9733,-114.871 L 83.3014,-114.933
 L 83.6183,-115.007 L 83.924,-115.092 L 84.2184,-115.188 L 84.5016,-115.296 L 84.7736,-115.415 L 85.0344,-115.545
 L 85.2839,-115.687 L 85.5222,-115.84 L 85.7492,-116.004 L 85.965,-116.18 L 86.1687,-116.366 L 86.3592,-116.561
 L 86.5366,-116.766 L 86.7008,-116.98 L 86.8519,-117.204 L 86.9899,-117.436 L 87.1147,-117.678 L 87.2264,-117.93
 L 87.3249,-118.19 L 87.4103,-118.46 L 87.4826,-118.739 L 87.5417,-119.028 L 87.5877,-119.326 L 87.6206,-119.633
 L 87.6403,-119.95 L 87.6469,-120.276 L 87.6422,-120.502 L 87.6282,-120.724 L 87.6049,-120.94 L 87.5723,-121.152
 L 87.5303,-121.359 L 87.479,-121.561 L 87.4184,-121.758 L 87.3484,-121.951 L 87.2692,-122.138 L 87.1806,-122.321
 L 87.0827,-122.498 L 86.9754,-122.671 L 86.8589,-122.839 L 86.733,-123.002 L 86.5978,-123.16 L 86.4532,-123.314
 L 86.3004,-123.461 L 86.1401,-123.6 L 85.9723,-123.732 L 85.7972,-123.856 L 85.6147,-123.973 L 85.4247,-124.082
 L 85.2273,-124.183 L 85.0225,-124.277 L 84.8103,-124.363 L 84.5906,-124.441 L 84.3636,-124.512 L 84.1291,-124.575
 L 83.8872,-124.631 L 83.6379,-124.678 L 83.3812,-124.719 L 83.1171,-124.751 L 83.1171,-124.806 L 83.3575,-124.859
 L 83.5908,-124.919 L 83.8168,-124.984 L 84.0355,-125.055 L 84.2469,-125.132 L 84.4512,-125.215 L 84.6481,-125.303
 L 84.8378,-125.397 L 85.0202,-125.497 L 85.1954,-125.603 L 85.3633,-125.715 L 85.524,-125.832 L 85.6774,-125.955
 L 85.8235,-126.084 L 85.9624,-126.218 L 86.094,-126.359 L 86.218,-126.505 L 86.334,-126.656 L 86.442,-126.812
 L 86.542,-126.974 L 86.634,-127.142 L 86.718,-127.314 L 86.794,-127.492 L 86.862,-127.676 L 86.922,-127.865
 L 86.974,-128.059 L 87.0181,-128.258 L 87.054,-128.463 L 87.082,-128.673 L 87.1021,-128.889 L 87.114,-129.109
 L 87.118,-129.336 L 87.1118,-129.63 L 87.0931,-129.916 L 87.062,-130.194 L 87.0184,-130.463 L 86.9624,-130.725
 L 86.894,-130.978 L 86.813,-131.223 L 86.7197,-131.46 L 86.6138,-131.688 L 86.4955,-131.909 L 86.3648,-132.121
 L 86.2216,-132.325 L 86.066,-132.521 L 85.8979,-132.708 L 85.7174,-132.887 L 85.5244,-133.058 L 85.3202,-133.22
 L 85.106,-133.372 L 84.8818,-133.512 L 84.6475,-133.643 L 84.4033,-133.763 L 84.149,-133.873 L 83.8847,-133.972
 L 83.6104,-134.06 L 83.3261,-134.139 L 83.0317,-134.207 L 82.7274,-134.264 L 82.413,-134.311 L 82.0887,-134.347
 L 81.7543,-134.374 L 81.4099,-134.389 L 81.0555,-134.394 L 80.7303,-134.389 L 80.4126,-134.374 L 80.1024,-134.348
 L 79.7997,-134.312 L 79.5044,-134.266 L 79.2166,-134.209 L 78.9363,-134.143 L 78.6634,-134.065 L 78.3981,-133.978
 L 78.1401,-133.88 L 77.8897,-133.773 L 77.6467,-133.654 L 77.4112,-133.526 L 77.1831,-133.387 L 76.9626,-133.238
 L 76.7495,-133.079 L 76.5455,-132.91 L 76.3526,-132.734 L 76.1707,-132.549 L 75.9997,-132.357 L 75.8397,-132.156
 L 75.6906,-131.947 L 75.5525,-131.73 L 75.4254,-131.506 L 75.3092,-131.273 L 75.2041,-131.032 L 75.1098,-130.783
 L 75.0266,-130.526 L 74.9543,-130.261 L 74.893,-129.987 L 74.8426,-129.706 L 74.8032,-129.417 L 77.258,-129.227
 L 77.2816,-129.413 L 77.3118,-129.593 L 77.3484,-129.768 L 77.3916,-129.937 L 77.4412,-130.102 L 77.4974,-130.261
 L 77.5601,-130.415 L 77.6293,-130.563 L 77.7051,-130.706 L 77.7873,-130.844 L 77.8761,-130.977 L 77.9714,-131.104
 L 78.0732,-131.226 L 78.1815,-131.342 L 78.2963,-131.454 L 78.4176,-131.56 L 78.5447,-131.66 L 78.6765,-131.754
 L 78.8131,-131.841 L 78.9546,-131.922 L 79.1009,-131.996 L 79.252,-132.064 L 79.408,-132.125 L 79.5687,-132.18
 L 79.7343,-132.229 L 79.9047,-132.271 L 80.08,-132.306 L 80.26,-132.335 L 80.4449,-132.358 L 80.6346,-132.374
 L 80.8291,-132.384 L 81.0284,-132.387 L 81.2471,-132.384 L 81.4589,-132.373 L 81.6639,-132.356 L 81.8621,-132.332
 L 82.0534,-132.3 L 82.2379,-132.262 L 82.4155,-132.217 L 82.5863,-132.165 L 82.7503,-132.106 L 82.9075,-132.04
 L 83.0578,-131.967 L 83.2013,-131.887 L 83.3379,-131.801 L 83.4677,-131.707 L 83.5907,-131.606 L 83.7068,-131.499
 L 83.8161,-131.385 L 83.9182,-131.267 L 84.0134,-131.143 L 84.1015,-131.014 L 84.1825,-130.881 L 84.2565,-130.742
 L 84.3234,-130.598 L 84.3833,-130.449 L 84.4362,-130.296 L 84.482,-130.137 L 84.5208,-129.973 L 84.5525,-129.804
 L 84.5771,-129.63 L 84.5948,-129.451 L 84.6053,-129.267 L 84.6088,-129.078 L 84.6045,-128.887 L 84.5916,-128.702
 L 84.57,-128.522 L 84.5397,-128.347 L 84.5009,-128.177 L 84.4534,-128.013 L 84.3973,-127.854 L 84.3325,-127.7
 L 84.2591,-127.551 L 84.177,-127.407 L 84.0864,-127.269 L 83.9871,-127.136 L 83.8791,-127.009 L 83.7625,-126.886
 L 83.6373,-126.769 L 83.5034,-126.657 L 83.3618,-126.551 L 83.213,-126.452 L 83.0573,-126.36 L 82.8945,-126.274
 L 82.7246,-126.196 L 82.5477,-126.124 L 82.3637,-126.059 L 82.1727,-126.001 L 81.9747,-125.95 L 81.7696,-125.905
 L 81.5575,-125.868 L 81.3383,-125.837 L 81.112,-125.813 L 80.8788,-125.796 L 80.6384,-125.786 L 80.391,-125.782
 L 79.0618,-125.782 L 79.0618,-123.666 L 80.4453,-123.666 L 80.7242,-123.663 L 80.9949,-123.653 L 81.2572,-123.636
 L 81.5112,-123.612 L 81.7569,-123.581 L 81.9943,-123.543 L 82.2233,-123.499 L 82.444,-123.448 L 82.6565,-123.39
 L 82.8605,-123.325 L 83.0563,-123.253 L 83.2438,-123.174 L 83.4229,-123.089 L 83.5938,-122.997 L 83.7563,-122.898
 L 83.9104,-122.792 L 84.0558,-122.68 L 84.1917,-122.562 L 84.3183,-122.439 L 84.4355,-122.311 L 84.5434,-122.178
 L 84.6418,-122.039 L 84.7309,-121.895 L 84.8106,-121.746 L 84.8809,-121.591 L 84.9419,-121.431 L 84.9934,-121.265
 L 85.0356,-121.094 L 85.0685,-120.918 L 85.0919,-120.736 L 85.106,-120.549 L 85.1106,-120.357 L 85.1065,-120.137
 L 85.0942,-119.923 L 85.0737,-119.717 L 85.0449,-119.517 L 85.008,-119.324 L 84.9628,-119.138 L 84.9094,-118.959
 L 84.8478,-118.787 L 84.778,-118.622 L 84.7,-118.464 L 84.6138,-118.312 L 84.5193,-118.168 L 84.4167,-118.03
 L 84.3058,-117.899 L 84.1867,-117.775 L 84.0594,-117.658 L 83.925,-117.548 L 83.7843,-117.445 L 83.6374,-117.349
 L 83.4844,-117.261 L 83.3251,-117.179 L 83.1596,-117.105 L 82.988,-117.037 L 82.8101,-116.977 L 82.626,-116.924
 L 82.4358,-116.877 L 82.2393,-116.838 L 82.0367,-116.806 L 81.8278,-116.782 L 81.6127,-116.764 L 81.3915,-116.753
 L 81.164,-116.75 L 80.7171,-116.763 L 80.295,-116.803 L 79.8978,-116.869 L 79.5255,-116.962 L 79.1782,-117.081
 L 78.8557,-117.226 L 78.5581,-117.399 L 78.2854,-117.597 L 78.0377,-117.822 L 77.8148,-118.074 L 77.6168,-118.352
 L 77.4437,-118.657 L 77.2956,-118.988 L 77.1723,-119.346 L 77.0739,-119.73 L 77.0004,-120.14 L 74.4776,-119.91
 L 74.5238,-119.594 L 74.581,-119.288 L 74.6491,-118.992 L 74.7282,-118.706 L 74.8182,-118.43 L 74.9192,-118.164
 L 75.0312,-117.907 L 75.1541,-117.66 L 75.2881,-117.423 L 75.4329,-117.196 L 75.5888,-116.978 L 75.7556,-116.77
 L 75.9333,-116.572 L 76.1221,-116.384 L 76.3218,-116.206 L 76.5324,-116.038 L 76.7532,-115.879 L 76.9831,-115.731
 L 77.2221,-115.593 L 77.4704,-115.465 L 77.7278,-115.347 L 77.9943,-115.24 L 78.2701,-115.143 L 78.5549,-115.056
 L 78.849,-114.979 L 79.1522,-114.913 L 79.4646,-114.857 L 79.7862,-114.811 L 80.1169,-114.775 L 80.4568,-114.749
 L 80.8058,-114.734 L 81.164,-114.729 z
M -0.908615,-117.075 L -5.56041,-117.075 L -5.56041,-134.11 L -7.81181,-134.11 L -12.3282,-131.004 L -12.3282,-128.698
 L -8.01541,-131.777 L -8.01541,-117.075 L -12.8842,-117.075 L -12.8842,-115 L -0.908615,-115 z
M 181,41 L 260,41 L 260,60 L 261,60 L 261,41 L 280,41
 L 280,40 L 261,40 L 261,1 L 280,1 L 280,-0 L 261,-0
 L 261,-20 L 260,-20 L 260,-0 L 181,-0 L 181,-20 L 180,-20
 L 180,-0 L 100,-0 L 100,1 L 180,1 L 180,10 L 100,10
 L 100,11 L 180,11 L 180,30 L 100,30 L 100,31 L 180,31
 L 180,40 L 100,40 L 100,41 L 180,41 L 180,60 L 181,60
 z
M 181,40 L 181,31 L 195.543,31 L 195.714,31.2682 L 195.921,31.5483 L 196.148,31.8159
 L 196.394,32.0709 L 196.66,32.3133 L 196.946,32.5432 L 197.251,32.7605 L 197.576,32.965 L 197.917,33.1563
 L 198.277,33.3344 L 198.654,33.4993 L 199.049,33.651 L 199.462,33.7895 L 199.892,33.9148 L 200.34,34.027
 L 200.806,34.1259 L 201.289,34.2117 L 201.791,34.2842 L 202.309,34.3436 L 202.846,34.3898 L 203.4,34.4227
 L 203.972,34.4425 L 204.562,34.4491 L 205.161,34.4428 L 205.742,34.424 L 206.304,34.3926 L 206.847,34.3487
 L 207.372,34.2922 L 207.878,34.2231 L 208.365,34.1415 L 208.834,34.0473 L 209.284,33.9406 L 209.715,33.8213
 L 210.128,33.6895 L 210.522,33.5451 L 210.898,33.3881 L 211.255,33.2186 L 211.593,33.0365 L 211.912,32.8419
 L 212.213,32.6341 L 212.494,32.4125 L 212.756,32.1771 L 212.998,31.9278 L 213.221,31.6647 L 213.425,31.3878
 L 213.609,31.097 L 213.774,30.7924 L 213.919,30.474 L 214.045,30.1418 L 214.152,29.7957 L 214.239,29.4358
 L 214.307,29.0621 L 214.356,28.6745 L 214.385,28.2731 L 214.394,27.8579 L 214.385,27.4312 L 214.356,27.0191
 L 214.308,26.6215 L 214.241,26.2385 L 214.155,25.87 L 214.049,25.5162 L 213.925,25.1768 L 213.781,24.8521
 L 213.618,24.5419 L 213.435,24.2464 L 213.234,23.9653 L 213.014,23.6989 L 212.774,23.447 L 212.515,23.2097
 L 212.237,22.9869 L 211.94,22.7787 L 211.623,22.5841 L 211.287,22.402 L 210.932,22.2325 L 210.558,22.0756
 L 210.164,21.9312 L 209.751,21.7993 L 209.319,21.68 L 208.868,21.5733 L 208.397,21.4791 L 207.907,21.3975
 L 207.398,21.3285 L 206.869,21.272 L 206.321,21.228 L 205.754,21.1966 L 205.167,21.1778 L 204.562,21.1715
 L 203.969,21.178 L 203.394,21.1974 L 202.837,21.2297 L 202.298,21.2749 L 201.778,21.3331 L 201.275,21.4042
 L 200.79,21.4882 L 200.323,21.5852 L 199.875,21.695 L 199.444,21.8178 L 199.031,21.9536 L 198.636,22.1022
 L 198.26,22.2638 L 197.901,22.4383 L 197.56,22.6257 L 197.238,22.8261 L 196.934,23.0394 L 196.65,23.2654
 L 196.385,23.5043 L 196.14,23.756 L 195.915,24.0205 L 195.709,24.2979 L 195.523,24.588 L 195.356,24.891
 L 195.209,25.2068 L 195.082,25.5355 L 194.974,25.8769 L 194.886,26.2312 L 194.817,26.5983 L 194.768,26.9782
 L 194.739,27.371 L 194.729,27.7765 L 194.739,28.1822 L 194.768,28.5753 L 194.817,28.9559 L 194.886,29.3239
 L 194.975,29.6793 L 195.077,30 L 181,30 L 181,11 L 195,11 L 195,19.0508
 L 197.075,19.0508 L 197.075,11 L 199.663,11 L 199.713,11.05 L 199.852,11.1927 L 199.992,11.3404
 L 200.135,11.493 L 200.28,11.6506 L 200.426,11.8132 L 200.575,11.9808 L 200.725,12.1533 L 200.878,12.3309
 L 201.032,12.5134 L 201.189,12.7009 L 201.347,12.8934 L 201.631,13.2406 L 201.905,13.5734 L 202.169,13.892
 L 202.425,14.1963 L 202.67,14.4862 L 202.907,14.7619 L 203.134,15.0232 L 203.351,15.2702 L 203.559,15.503
 L 203.758,15.7214 L 203.947,15.9255 L 204.127,16.1154 L 204.297,16.2909 L 204.458,16.4521 L 204.609,16.599
 L 204.751,16.7316 L 204.889,16.8551 L 205.026,16.9748 L 205.163,17.0905 L 205.301,17.2025 L 205.438,17.3105
 L 205.575,17.4147 L 205.713,17.515 L 205.85,17.6114 L 205.987,17.704 L 206.125,17.7927 L 206.262,17.8776
 L 206.399,17.9586 L 206.537,18.0357 L 206.674,18.1089 L 206.811,18.1783 L 206.949,18.2438 L 207.086,18.3054
 L 207.223,18.363 L 207.361,18.4166 L 207.499,18.4663 L 207.637,18.512 L 207.774,18.5537 L 207.912,18.5915
 L 208.051,18.6252 L 208.189,18.655 L 208.327,18.6809 L 208.465,18.7027 L 208.604,18.7206 L 208.743,18.7345
 L 208.881,18.7444 L 209.02,18.7504 L 209.159,18.7524 L 209.468,18.7463 L 209.769,18.7281 L 210.06,18.6978
 L 210.342,18.6553 L 210.616,18.6007 L 210.88,18.534 L 211.135,18.4551 L 211.382,18.3641 L 211.619,18.261
 L 211.848,18.1458 L 212.068,18.0184 L 212.278,17.8788 L 212.48,17.7272 L 212.673,17.5634 L 212.857,17.3875
 L 213.031,17.1994 L 213.196,17.0001 L 213.351,16.7903 L 213.495,16.5701 L 213.628,16.3395 L 213.75,16.0984
 L 213.862,15.8469 L 213.963,15.585 L 214.054,15.3126 L 214.133,15.0298 L 214.203,14.7365 L 214.261,14.4328
 L 214.309,14.1187 L 214.346,13.7941 L 214.373,13.4591 L 214.389,13.1137 L 214.394,12.7578 L 214.389,12.4326
 L 214.373,12.1149 L 214.347,11.8047 L 214.31,11.502 L 214.262,11.2067 L 214.204,10.9189 L 214.135,10.6385
 L 214.055,10.3656 L 213.965,10.1002 L 213.865,9.8423 L 213.753,9.59184 L 213.631,9.34886 L 213.499,9.11333
 L 213.356,8.88528 L 213.202,8.6647 L 213.038,8.4516 L 212.865,8.2477 L 212.684,8.05478 L 212.497,7.87282
 L 212.301,7.70183 L 212.099,7.54181 L 211.889,7.39275 L 211.672,7.25467 L 211.448,7.12755 L 211.216,7.01138
 L 210.977,6.9062 L 210.731,6.81198 L 210.477,6.72873 L 210.216,6.65645 L 209.948,6.59512 L 209.673,6.54477
 L 209.39,6.50539 L 209.159,9.00099 L 209.348,9.02628 L 209.532,9.05807 L 209.71,9.09639 L 209.883,9.14124
 L 210.05,9.19258 L 210.212,9.25046 L 210.369,9.31483 L 210.521,9.38574 L 210.667,9.46317 L 210.807,9.5471
 L 210.943,9.63756 L 211.073,9.73453 L 211.197,9.83801 L 211.317,9.94803 L 211.431,10.0645 L 211.539,10.1876
 L 211.642,10.316 L 211.738,10.4488 L 211.828,10.5858 L 211.91,10.7271 L 211.986,10.8727 L 212.056,11.0227
 L 212.119,11.1768 L 212.175,11.3353 L 212.225,11.4981 L 212.268,11.6652 L 212.304,11.8366 L 212.334,12.0122
 L 212.357,12.1922 L 212.374,12.3764 L 212.384,12.565 L 212.387,12.7578 L 212.384,12.9601 L 212.374,13.1568
 L 212.357,13.3479 L 212.333,13.5334 L 212.302,13.7132 L 212.265,13.8875 L 212.221,14.0561 L 212.17,14.2191
 L 212.113,14.3765 L 212.048,14.5283 L 211.977,14.6744 L 211.899,14.815 L 211.814,14.9499 L 211.723,15.0792
 L 211.624,15.2029 L 211.519,15.321 L 211.408,15.4327 L 211.291,15.5372 L 211.169,15.6345 L 211.041,15.7245
 L 210.908,15.8074 L 210.769,15.8831 L 210.625,15.9515 L 210.475,16.0128 L 210.32,16.0668 L 210.159,16.1137
 L 209.992,16.1533 L 209.82,16.1857 L 209.643,16.211 L 209.46,16.229 L 209.272,16.2398 L 209.078,16.2434
 L 208.933,16.2413 L 208.79,16.235 L 208.649,16.2245 L 208.51,16.2099 L 208.373,16.1911 L 208.237,16.168
 L 208.104,16.1408 L 207.973,16.1094 L 207.843,16.0739 L 207.715,16.0341 L 207.59,15.9901 L 207.466,15.942
 L 207.344,15.8897 L 207.224,15.8332 L 207.105,15.7725 L 206.989,15.7076 L 206.874,15.6393 L 206.76,15.5685
 L 206.646,15.495 L 206.533,15.4189 L 206.421,15.3403 L 206.309,15.259 L 206.198,15.1752 L 206.087,15.0887
 L 205.977,14.9997 L 205.868,14.9081 L 205.76,14.8139 L 205.652,14.717 L 205.544,14.6176 L 205.438,14.5156
 L 205.331,14.411 L 205.226,14.3038 L 205.121,14.1945 L 205.016,14.0835 L 204.911,13.9709 L 204.806,13.8567
 L 204.7,13.7408 L 204.595,13.6232 L 204.49,13.5041 L 204.385,13.3832 L 204.28,13.2608 L 204.175,13.1367
 L 204.07,13.0109 L 203.965,12.8836 L 203.86,12.7545 L 203.755,12.6239 L 203.649,12.4915 L 203.544,12.3576
 L 203.439,12.2227 L 203.332,12.0877 L 203.224,11.9525 L 203.115,11.8172 L 203.005,11.6817 L 202.894,11.5461
 L 202.781,11.4103 L 202.668,11.2743 L 202.553,11.1382 L 202.438,11.0019 L 202.321,10.8654 L 202.203,10.7288
 L 202.084,10.5921 L 201.964,10.4551 L 201.843,10.318 L 201.72,10.1808 L 201.596,10.0439 L 201.471,9.90778
 L 201.343,9.77246 L 201.214,9.63792 L 201.083,9.5042 L 200.95,9.37125 L 200.816,9.23911 L 200.679,9.10774
 L 200.541,8.97717 L 200.401,8.8474 L 200.259,8.71841 L 200.116,8.59023 L 199.97,8.46283 L 199.823,8.33623
 L 199.674,8.21042 L 199.523,8.08539 L 199.37,7.96199 L 199.214,7.84096 L 199.055,7.72232 L 198.893,7.60606
 L 198.728,7.4922 L 198.56,7.38071 L 198.39,7.27161 L 198.216,7.16489 L 198.039,7.06056 L 197.86,6.95862
 L 197.678,6.85905 L 197.492,6.76187 L 197.304,6.66707 L 197.113,6.57466 L 196.919,6.48463 L 196.722,6.39699
 L 195,6.39699 L 195,10 L 181,10 L 181,1 L 260,1 L 260,40
 L 197.97,40 L 197.97,37.7092 L 195,37.7092 L 195,40 z
M 197.075,10 L 197.075,9.0824 L 197.194,9.13525 L 197.314,9.19214 L 197.434,9.25307 L 197.554,9.31801
 L 197.676,9.38698 L 197.798,9.45998 L 197.92,9.53699 L 198.043,9.61804 L 198.167,9.70312 L 198.291,9.79222
 L 198.416,9.88535 L 198.541,9.9825 L 198.563,10 z
M 204.071,31.9634 L 203.597,31.9516 L 203.139,31.932 L 202.697,31.9046 L 202.271,31.8693 L 201.861,31.8262
 L 201.467,31.7752 L 201.09,31.7164 L 200.728,31.6498 L 200.383,31.5753 L 200.053,31.493 L 199.74,31.4028
 L 199.443,31.3048 L 199.162,31.1989 L 198.897,31.0853 L 198.722,31 L 200,31 L 200,30
 L 197.437,30 L 197.332,29.8649 L 197.204,29.6719 L 197.091,29.4698 L 196.993,29.2588 L 196.91,29.0388
 L 196.843,28.8098 L 196.79,28.5717 L 196.752,28.3246 L 196.73,28.0686 L 196.722,27.8035 L 196.73,27.5368
 L 196.752,27.2793 L 196.789,27.031 L 196.84,26.7918 L 196.906,26.5618 L 196.988,26.341 L 197.083,26.1293
 L 197.194,25.9268 L 197.319,25.7335 L 197.459,25.5493 L 197.613,25.3743 L 197.783,25.2084 L 197.967,25.0518
 L 198.166,24.9043 L 198.379,24.7659 L 198.608,24.6367 L 198.852,24.516 L 199.113,24.4031 L 199.391,24.298
 L 199.687,24.2006 L 199.999,24.1111 L 200.329,24.0293 L 200.675,23.9553 L 201.039,23.8891 L 201.419,23.8307
 L 201.817,23.7801 L 202.232,23.7373 L 202.664,23.7022 L 203.113,23.675 L 203.579,23.6555 L 204.062,23.6438
 L 204.562,23.6399 L 205.076,23.6438 L 205.572,23.6553 L 206.05,23.6745 L 206.509,23.7014 L 206.95,23.7359
 L 207.373,23.7782 L 207.777,23.8281 L 208.162,23.8857 L 208.53,23.951 L 208.878,24.024 L 209.208,24.1046
 L 209.52,24.193 L 209.814,24.289 L 210.089,24.3927 L 210.345,24.5041 L 210.583,24.6231 L 210.805,24.751
 L 211.012,24.8888 L 211.205,25.0365 L 211.384,25.1941 L 211.549,25.3616 L 211.699,25.539 L 211.835,25.7263
 L 211.956,25.9235 L 212.064,26.1306 L 212.157,26.3477 L 212.235,26.5746 L 212.3,26.8115 L 212.35,27.0582
 L 212.386,27.3149 L 212.407,27.5815 L 212.414,27.8579 L 212.407,28.1277 L 212.385,28.3878 L 212.349,28.6382
 L 212.298,28.8789 L 212.233,29.1099 L 212.153,29.3312 L 212.059,29.5428 L 211.95,29.7447 L 211.826,29.937
 L 211.688,30.1195 L 211.536,30.2923 L 211.369,30.4555 L 211.188,30.6089 L 210.992,30.7527 L 210.781,30.8867
 L 210.556,31.0111 L 210.315,31.1269 L 210.056,31.2352 L 209.779,31.3361 L 209.485,31.4295 L 209.172,31.5154
 L 208.842,31.5938 L 208.494,31.6648 L 208.129,31.7283 L 207.745,31.7843 L 207.344,31.8329 L 206.924,31.8739
 L 206.487,31.9075 L 206.033,31.9337 L 205.56,31.9524 L 205.07,31.9636 L 204.562,31.9673 z
M 13.3333,35 L 60,35 L 60,40 L 73.3333,40 L 73.3333,-0 L 60,-0
 L 60,5 L 13.3333,5 L 13.3333,-0 L 0,-0 L 0,40 L 13.3333,40
 z
M 281.252,16.9486 L 294.11,16.9486 L 294.11,14.3852 L 281.225,5.63739 L 279.326,5.63739 L 279.326,14.643
 L 275,14.643 L 275,16.9486 L 279.326,16.9486 L 279.326,19.634 L 281.252,19.634 z
M 281.252,14.643 L 281.252,7.88879 L 281.524,8.10579 L 282.527,8.8382 L 289.742,13.7342 L 289.776,13.7569
 L 289.813,13.7811 L 289.852,13.8065 L 289.895,13.8334 L 289.941,13.8616 L 289.989,13.8913 L 290.041,13.9223
 L 290.095,13.9546 L 290.153,13.9884 L 290.213,14.0235 L 290.276,14.06 L 290.343,14.0979 L 290.412,14.1372
 L 290.484,14.1778 L 290.559,14.2198 L 290.638,14.2632 L 290.715,14.306 L 290.788,14.3463 L 290.857,14.384
 L 290.922,14.4192 L 290.982,14.4518 L 291.037,14.4819 L 291.089,14.5094 L 291.136,14.5344 L 291.179,14.5569
 L 291.217,14.5768 L 291.251,14.5942 L 291.281,14.6091 L 291.306,14.6214 L 291.327,14.6311 L 291.344,14.6383
 L 291.356,14.643 z
M 285.161,34.4428 L 285.742,34.424 L 286.304,34.3926 L 286.847,34.3487 L 287.372,34.2922 L 287.878,34.2231
 L 288.365,34.1415 L 288.834,34.0473 L 289.284,33.9406 L 289.715,33.8213 L 290.128,33.6895 L 290.522,33.5451
 L 290.898,33.3881 L 291.255,33.2186 L 291.593,33.0365 L 291.912,32.8419 L 292.213,32.6341 L 292.494,32.4125
 L 292.756,32.1771 L 292.998,31.9278 L 293.221,31.6647 L 293.425,31.3878 L 293.609,31.097 L 293.774,30.7924
 L 293.919,30.474 L 294.045,30.1418 L 294.152,29.7957 L 294.239,29.4358 L 294.307,29.0621 L 294.356,28.6745
 L 294.385,28.2731 L 294.394,27.8579 L 294.385,27.4312 L 294.356,27.0191 L 294.308,26.6215 L 294.241,26.2385
 L 294.155,25.87 L 294.049,25.5162 L 293.925,25.1768 L 293.781,24.8521 L 293.618,24.5419 L 293.435,24.2464
 L 293.234,23.9653 L 293.014,23.6989 L 292.774,23.447 L 292.515,23.2097 L 292.237,22.9869 L 291.94,22.7787
 L 291.623,22.5841 L 291.287,22.402 L 290.932,22.2325 L 290.558,22.0756 L 290.164,21.9312 L 289.751,21.7993
 L 289.319,21.68 L 288.868,21.5733 L 288.397,21.4791 L 287.907,21.3975 L 287.398,21.3285 L 286.869,21.272
 L 286.321,21.228 L 285.754,21.1966 L 285.167,21.1778 L 284.562,21.1715 L 283.969,21.178 L 283.394,21.1974
 L 282.837,21.2297 L 282.298,21.2749 L 281.778,21.3331 L 281.275,21.4042 L 280.79,21.4882 L 280.323,21.5852
 L 279.875,21.695 L 279.444,21.8178 L 279.031,21.9536 L 278.636,22.1022 L 278.26,22.2638 L 277.901,22.4383
 L 277.56,22.6257 L 277.238,22.8261 L 276.934,23.0394 L 276.65,23.2654 L 276.385,23.5043 L 276.14,23.756
 L 275.915,24.0205 L 275.709,24.2979 L 275.523,24.588 L 275.356,24.891 L 275.209,25.2068 L 275.082,25.5355
 L 274.974,25.8769 L 274.886,26.2312 L 274.817,26.5983 L 274.768,26.9782 L 274.739,27.371 L 274.729,27.7765
 L 274.739,28.1822 L 274.768,28.5753 L 274.817,28.9559 L 274.886,29.3239 L 274.975,29.6793 L 275.084,30.0222
 L 275.212,30.3525 L 275.359,30.6703 L 275.527,30.9755 L 275.714,31.2682 L 275.921,31.5483 L 276.148,31.8159
 L 276.394,32.0709 L 276.66,32.3133 L 276.946,32.5432 L 277.251,32.7605 L 277.576,32.965 L 277.917,33.1563
 L 278.277,33.3344 L 278.654,33.4993 L 279.049,33.651 L 279.462,33.7895 L 279.892,33.9148 L 280.34,34.027
 L 280.806,34.1259 L 281.289,34.2117 L 281.791,34.2842 L 282.309,34.3436 L 282.846,34.3898 L 283.4,34.4227
 L 283.972,34.4425 L 284.562,34.4491 z
M 284.071,31.9634 L 283.597,31.9516 L 283.139,31.932 L 282.697,31.9046 L 282.271,31.8693 L 281.861,31.8262
 L 281.467,31.7752 L 281.09,31.7164 L 280.728,31.6498 L 280.383,31.5753 L 280.053,31.493 L 279.74,31.4028
 L 279.443,31.3048 L 279.162,31.1989 L 278.897,31.0853 L 278.648,30.9637 L 278.415,30.8338 L 278.197,30.6948
 L 277.994,30.5468 L 277.806,30.3898 L 277.633,30.2239 L 277.475,30.0489 L 277.332,29.8649 L 277.204,29.6719
 L 277.091,29.4698 L 276.993,29.2588 L 276.91,29.0388 L 276.843,28.8098 L 276.79,28.5717 L 276.752,28.3246
 L 276.73,28.0686 L 276.722,27.8035 L 276.73,27.5368 L 276.752,27.2793 L 276.789,27.031 L 276.84,26.7918
 L 276.906,26.5618 L 276.988,26.341 L 277.083,26.1293 L 277.194,25.9268 L 277.319,25.7335 L 277.459,25.5493
 L 277.613,25.3743 L 277.783,25.2084 L 277.967,25.0518 L 278.166,24.9043 L 278.379,24.7659 L 278.608,24.6367
 L 278.852,24.516 L 279.113,24.4031 L 279.391,24.298 L 279.687,24.2006 L 279.999,24.1111 L 280.329,24.0293
 L 280.675,23.9553 L 281.039,23.8891 L 281.419,23.8307 L 281.817,23.7801 L 282.232,23.7373 L 282.664,23.7022
 L 283.113,23.675 L 283.579,23.6555 L 284.062,23.6438 L 284.562,23.6399 L 285.076,23.6438 L 285.572,23.6553
 L 286.05,23.6745 L 286.509,23.7014 L 286.95,23.7359 L 287.373,23.7782 L 287.777,23.8281 L 288.162,23.8857
 L 288.53,23.951 L 288.878,24.024 L 289.208,24.1046 L 289.52,24.193 L 289.814,24.289 L 290.089,24.3927
 L 290.345,24.5041 L 290.583,24.6231 L 290.805,24.751 L 291.012,24.8888 L 291.205,25.0365 L 291.384,25.1941
 L 291.549,25.3616 L 291.699,25.539 L 291.835,25.7263 L 291.956,25.9235 L 292.064,26.1306 L 292.157,26.3477
 L 292.235,26.5746 L 292.3,26.8115 L 292.35,27.0582 L 292.386,27.3149 L 292.407,27.5815 L 292.414,27.8579
 L 292.407,28.1277 L 292.385,28.3878 L 292.349,28.6382 L 292.298,28.8789 L 292.233,29.1099 L 292.153,29.3312
 L 292.059,29.5428 L 291.95,29.7447 L 291.826,29.937 L 291.688,30.1195 L 291.536,30.2923 L 291.369,30.4555
 L 291.188,30.6089 L 290.992,30.7527 L 290.781,30.8867 L 290.556,31.0111 L 290.315,31.1269 L 290.056,31.2352
 L 289.779,31.3361 L 289.485,31.4295 L 289.172,31.5154 L 288.842,31.5938 L 288.494,31.6648 L 288.129,31.7283
 L 287.745,31.7843 L 287.344,31.8329 L 286.924,31.8739 L 286.487,31.9075 L 286.033,31.9337 L 285.56,31.9524
 L 285.07,31.9636 L 284.562,31.9673 z
M 197.075,52.1494 L 214.11,52.1494 L 214.11,49.898 L 211.004,45.3816 L 208.698,45.3816 L 211.777,49.6944
 L 197.075,49.6944 L 197.075,44.8256 L 195,44.8256 L 195,56.8012 L 197.075,56.8012 z
" stroke="black" fill="lightgray" stroke-width="0.5"/>
</svg>
