<?xml version="1.0" standalone="no"?>
<!DOCTYPE svg PUBLIC "-//W3C//DTD SVG 1.1//EN" "http://www.w3.org/Graphics/SVG/1.1/DTD/svg11.dtd">
<svg width="205mm" height="255mm" viewBox="-20 -175 205 255" xmlns="http://www.w3.org/2000/svg" version="1.1">
<title>OpenSCAD Model</title>
<path d="
M 1,-140 L 20,-140 L 20,-60 L 21,-60 L 21,-140 L 40,-140
 L 40,-141 L 21,-141 L 21,-155.543 L 21.2682,-155.714 L 21.5483,-155.921 L 21.8159,-156.148
 L 22.0709,-156.394 L 22.3133,-156.66 L 22.5432,-156.946 L 22.7605,-157.251 L 22.965,-157.576 L 23.1563,-157.917
 L 23.3344,-158.277 L 23.4993,-158.654 L 23.651,-159.049 L 23.7895,-159.462 L 23.9148,-159.892 L 24.027,-160.34
 L 24.1259,-160.806 L 24.2117,-161.289 L 24.2842,-161.791 L 24.3436,-162.309 L 24.3898,-162.846 L 24.4227,-163.4
 L 24.4425,-163.972 L 24.4491,-164.562 L 24.4428,-165.161 L 24.424,-165.742 L 24.3926,-166.304 L 24.3487,-166.847
 L 24.2922,-167.372 L 24.2231,-167.878 L 24.1415,-168.365 L 24.0473,-168.834 L 23.9406,-169.284 L 23.8213,-169.715
 L 23.6895,-170.128 L 23.5451,-170.522 L 23.3881,-170.898 L 23.2186,-171.255 L 23.0365,-171.593 L 22.8419,-171.912
 L 22.6341,-172.213 L 22.4125,-172.494 L 22.1771,-172.756 L 21.9278,-172.998 L 21.6647,-173.221 L 21.3878,-173.425
 L 21.097,-173.609 L 20.7924,-173.774 L 20.474,-173.919 L 20.1418,-174.045 L 19.7957,-174.152 L 19.4358,-174.239
 L 19.0621,-174.307 L 18.6745,-174.356 L 18.2731,-174.385 L 17.8579,-174.394 L 17.4312,-174.385 L 17.0191,-174.356
 L 16.6215,-174.308 L 16.2385,-174.241 L 15.87,-174.155 L 15.5162,-174.049 L 15.1768,-173.925 L 14.8521,-173.781
 L 14.5419,-173.618 L 14.2464,-173.435 L 13.9653,-173.234 L 13.6989,-173.014 L 13.447,-172.774 L 13.2097,-172.515
 L 12.9869,-172.237 L 12.7787,-171.94 L 12.5841,-171.623 L 12.402,-171.287 L 12.2325,-170.932 L 12.0756,-170.558
 L 11.9312,-170.164 L 11.7993,-169.751 L 11.68,-169.319 L 11.5733,-168.868 L 11.4791,-168.397 L 11.3975,-167.907
 L 11.3285,-167.398 L 11.272,-166.869 L 11.228,-166.321 L 11.1966,-165.754 L 11.1778,-165.167 L 11.1715,-164.562
 L 11.178,-163.969 L 11.1974,-163.394 L 11.2297,-162.837 L 11.2749,-162.298 L 11.3331,-161.778 L 11.4042,-161.275
 L 11.4882,-160.79 L 11.5852,-160.323 L 11.695,-159.875 L 11.8178,-159.444 L 11.9536,-159.031 L 12.1022,-158.636
 L 12.2638,-158.26 L 12.4383,-157.901 L 12.6257,-157.56 L 12.8261,-157.238 L 13.0394,-156.934 L 13.2654,-156.65
 L 13.5043,-156.385 L 13.756,-156.14 L 14.0205,-155.915 L 14.2979,-155.709 L 14.588,-155.523 L 14.891,-155.356
 L 15.2068,-155.209 L 15.5355,-155.082 L 15.8769,-154.974 L 16.2312,-154.886 L 16.5983,-154.817 L 16.9782,-154.768
 L 17.371,-154.739 L 17.7765,-154.729 L 18.1822,-154.739 L 18.5753,-154.768 L 18.9559,-154.817 L 19.3239,-154.886
 L 19.6793,-154.975 L 20,-155.077 L 20,-141 L 1,-141 L 1,-155 L 9.0508,-155
 L 9.0508,-157.075 L 1,-157.075 L 1,-159.663 L 1.05003,-159.713 L 1.1927,-159.852 L 1.34036,-159.992
 L 1.493,-160.135 L 1.6506,-160.28 L 1.8132,-160.426 L 1.98079,-160.575 L 2.15334,-160.725 L 2.33089,-160.878
 L 2.51341,-161.032 L 2.70091,-161.189 L 2.89339,-161.347 L 3.24057,-161.631 L 3.57344,-161.905 L 3.892,-162.169
 L 4.19626,-162.425 L 4.48621,-162.67 L 4.76186,-162.907 L 5.02321,-163.134 L 5.27025,-163.351 L 5.50298,-163.559
 L 5.72141,-163.758 L 5.92554,-163.947 L 6.11536,-164.127 L 6.29088,-164.297 L 6.45209,-164.458 L 6.59898,-164.609
 L 6.7316,-164.751 L 6.8551,-164.889 L 6.97476,-165.026 L 7.09055,-165.163 L 7.20245,-165.301 L 7.3105,-165.438
 L 7.41469,-165.575 L 7.515,-165.713 L 7.61143,-165.85 L 7.70403,-165.987 L 7.79274,-166.125 L 7.87758,-166.262
 L 7.95856,-166.399 L 8.03566,-166.537 L 8.1089,-166.674 L 8.17828,-166.811 L 8.24379,-166.949 L 8.30537,-167.086
 L 8.36299,-167.223 L 8.41664,-167.361 L 8.46631,-167.499 L 8.51199,-167.637 L 8.55373,-167.774 L 8.59146,-167.912
 L 8.62524,-168.051 L 8.65504,-168.189 L 8.68088,-168.327 L 8.70273,-168.465 L 8.72061,-168.604 L 8.73451,-168.743
 L 8.74445,-168.881 L 8.75041,-169.02 L 8.7524,-169.159 L 8.74632,-169.468 L 8.72813,-169.769 L 8.6978,-170.06
 L 8.65533,-170.342 L 8.60074,-170.616 L 8.534,-170.88 L 8.45514,-171.135 L 8.36414,-171.382 L 8.26102,-171.619
 L 8.14575,-171.848 L 8.01836,-172.068 L 7.87883,-172.278 L 7.72717,-172.48 L 7.56337,-172.673 L 7.38745,-172.857
 L 7.19939,-173.031 L 7.00008,-173.196 L 6.79031,-173.351 L 6.57013,-173.495 L 6.33949,-173.628 L 6.09842,-173.75
 L 5.84692,-173.862 L 5.58498,-173.963 L 5.31259,-174.054 L 5.02977,-174.133 L 4.73651,-174.203 L 4.43283,-174.261
 L 4.1187,-174.309 L 3.79413,-174.346 L 3.45912,-174.373 L 3.11368,-174.389 L 2.7578,-174.394 L 2.43263,-174.389
 L 2.11493,-174.373 L 1.8047,-174.347 L 1.50195,-174.31 L 1.20667,-174.262 L 0.918854,-174.204 L 0.638519,-174.135
 L 0.365646,-174.055 L 0.100235,-173.965 L -0.1577,-173.865 L -0.408157,-173.753 L -0.651138,-173.631 L -0.886673,-173.499
 L -1.11472,-173.356 L -1.3353,-173.202 L -1.5484,-173.038 L -1.7523,-172.865 L -1.94522,-172.684 L -2.12718,-172.497
 L -2.29817,-172.301 L -2.45819,-172.099 L -2.60725,-171.889 L -2.74533,-171.672 L -2.87245,-171.448 L -2.98862,-171.216
 L -3.0938,-170.977 L -3.18802,-170.731 L -3.27127,-170.477 L -3.34355,-170.216 L -3.40488,-169.948 L -3.45523,-169.673
 L -3.49461,-169.39 L -0.999008,-169.159 L -0.973724,-169.348 L -0.941925,-169.532 L -0.90361,-169.71 L -0.858765,-169.883
 L -0.807419,-170.05 L -0.749542,-170.212 L -0.685165,-170.369 L -0.614258,-170.521 L -0.536835,-170.667 L -0.452896,-170.807
 L -0.362442,-170.943 L -0.265472,-171.073 L -0.161987,-171.197 L -0.0519714,-171.317 L 0.0645447,-171.431 L 0.187592,-171.539
 L 0.31604,-171.642 L 0.448776,-171.738 L 0.5858,-171.828 L 0.727127,-171.91 L 0.872742,-171.986 L 1.02266,-172.056
 L 1.17685,-172.119 L 1.33534,-172.175 L 1.49812,-172.225 L 1.66521,-172.268 L 1.83656,-172.304 L 2.01222,-172.334
 L 2.19218,-172.357 L 2.37643,-172.374 L 2.56496,-172.384 L 2.7578,-172.387 L 2.96011,-172.384 L 3.15681,-172.374
 L 3.3479,-172.357 L 3.53337,-172.333 L 3.71323,-172.302 L 3.88747,-172.265 L 4.05609,-172.221 L 4.21909,-172.17
 L 4.37648,-172.113 L 4.52826,-172.048 L 4.67442,-171.977 L 4.81497,-171.899 L 4.94989,-171.814 L 5.07921,-171.723
 L 5.20291,-171.624 L 5.321,-171.519 L 5.43269,-171.408 L 5.53719,-171.291 L 5.63446,-171.169 L 5.72455,-171.041
 L 5.80742,-170.908 L 5.88309,-170.769 L 5.95154,-170.625 L 6.01279,-170.475 L 6.06683,-170.32 L 6.11368,-170.159
 L 6.15332,-169.992 L 6.18575,-169.82 L 6.21097,-169.643 L 6.22897,-169.46 L 6.23979,-169.272 L 6.24339,-169.078
 L 6.2413,-168.933 L 6.23502,-168.79 L 6.22455,-168.649 L 6.2099,-168.51 L 6.19107,-168.373 L 6.16805,-168.237
 L 6.14084,-168.104 L 6.10944,-167.973 L 6.07387,-167.843 L 6.03409,-167.715 L 5.99014,-167.59 L 5.942,-167.466
 L 5.88968,-167.344 L 5.83318,-167.224 L 5.77248,-167.105 L 5.7076,-166.989 L 5.63931,-166.874 L 5.56845,-166.76
 L 5.495,-166.646 L 5.41893,-166.533 L 5.34027,-166.421 L 5.25903,-166.309 L 5.17519,-166.198 L 5.08875,-166.087
 L 4.99971,-165.977 L 4.90808,-165.868 L 4.81386,-165.76 L 4.71703,-165.652 L 4.61761,-165.544 L 4.51559,-165.438
 L 4.411,-165.331 L 4.30379,-165.226 L 4.19447,-165.121 L 4.08351,-165.016 L 3.9709,-164.911 L 3.85666,-164.806
 L 3.74077,-164.7 L 3.62323,-164.595 L 3.50406,-164.49 L 3.38324,-164.385 L 3.26079,-164.28 L 3.13669,-164.175
 L 3.01094,-164.07 L 2.88356,-163.965 L 2.75453,-163.86 L 2.62386,-163.755 L 2.49155,-163.649 L 2.35759,-163.544
 L 2.22273,-163.439 L 2.08772,-163.332 L 1.95255,-163.224 L 1.81721,-163.115 L 1.68173,-163.005 L 1.54607,-162.894
 L 1.41026,-162.781 L 1.27429,-162.668 L 1.13817,-162.553 L 1.00188,-162.438 L 0.865433,-162.321 L 0.728821,-162.203
 L 0.592056,-162.084 L 0.455124,-161.964 L 0.318039,-161.843 L 0.180786,-161.72 L 0.0438843,-161.596 L -0.0922241,-161.471
 L -0.227539,-161.343 L -0.362076,-161.214 L -0.495804,-161.083 L -0.628754,-160.95 L -0.760895,-160.816 L -0.892258,-160.679
 L -1.02283,-160.541 L -1.1526,-160.401 L -1.28159,-160.259 L -1.40977,-160.116 L -1.53717,-159.97 L -1.66377,-159.823
 L -1.78958,-159.674 L -1.91461,-159.523 L -2.03801,-159.37 L -2.15904,-159.214 L -2.27768,-159.055 L -2.39394,-158.893
 L -2.5078,-158.728 L -2.61929,-158.56 L -2.72839,-158.39 L -2.83511,-158.216 L -2.93944,-158.039 L -3.04138,-157.86
 L -3.14095,-157.678 L -3.23813,-157.492 L -3.33293,-157.304 L -3.42534,-157.113 L -3.51537,-156.919 L -3.60301,-156.722
 L -3.60301,-155 L 0,-155 L 0,-141 L -20,-141 L -20,-140 L 0,-140
 L 0,-60 L 1,-60 z
M 17.5368,-156.73 L 17.2793,-156.752 L 17.031,-156.789 L 16.7918,-156.84 L 16.5618,-156.906 L 16.341,-156.988
 L 16.1293,-157.083 L 15.9268,-157.194 L 15.7335,-157.319 L 15.5493,-157.459 L 15.3743,-157.613 L 15.2084,-157.783
 L 15.0518,-157.967 L 14.9043,-158.166 L 14.7659,-158.379 L 14.6367,-158.608 L 14.516,-158.852 L 14.4031,-159.113
 L 14.298,-159.391 L 14.2006,-159.687 L 14.1111,-159.999 L 14.0293,-160.329 L 13.9553,-160.675 L 13.8891,-161.039
 L 13.8307,-161.419 L 13.7801,-161.817 L 13.7373,-162.232 L 13.7022,-162.664 L 13.675,-163.113 L 13.6555,-163.579
 L 13.6438,-164.062 L 13.6399,-164.562 L 13.6438,-165.076 L 13.6553,-165.572 L 13.6745,-166.05 L 13.7014,-166.509
 L 13.7359,-166.95 L 13.7782,-167.373 L 13.8281,-167.777 L 13.8857,-168.162 L 13.951,-168.53 L 14.024,-168.878
 L 14.1046,-169.208 L 14.193,-169.52 L 14.289,-169.814 L 14.3927,-170.089 L 14.5041,-170.345 L 14.6231,-170.583
 L 14.751,-170.805 L 14.8888,-171.012 L 15.0365,-171.205 L 15.1941,-171.384 L 15.3616,-171.549 L 15.539,-171.699
 L 15.7263,-171.835 L 15.9235,-171.956 L 16.1306,-172.064 L 16.3477,-172.157 L 16.5746,-172.235 L 16.8115,-172.3
 L 17.0582,-172.35 L 17.3149,-172.386 L 17.5815,-172.407 L 17.8579,-172.414 L 18.1277,-172.407 L 18.3878,-172.385
 L 18.6382,-172.349 L 18.8789,-172.298 L 19.1099,-172.233 L 19.3312,-172.153 L 19.5428,-172.059 L 19.7447,-171.95
 L 19.937,-171.826 L 20.1195,-171.688 L 20.2923,-171.536 L 20.4555,-171.369 L 20.6089,-171.188 L 20.7527,-170.992
 L 20.8867,-170.781 L 21.0111,-170.556 L 21.1269,-170.315 L 21.2352,-170.056 L 21.3361,-169.779 L 21.4295,-169.485
 L 21.5154,-169.172 L 21.5938,-168.842 L 21.6648,-168.494 L 21.7283,-168.129 L 21.7843,-167.745 L 21.8329,-167.344
 L 21.8739,-166.924 L 21.9075,-166.487 L 21.9337,-166.033 L 21.9524,-165.56 L 21.9636,-165.07 L 21.9673,-164.562
 L 21.9634,-164.071 L 21.9516,-163.597 L 21.932,-163.139 L 21.9046,-162.697 L 21.8693,-162.271 L 21.8262,-161.861
 L 21.7752,-161.467 L 21.7164,-161.09 L 21.6498,-160.728 L 21.5753,-160.383 L 21.493,-160.053 L 21.4028,-159.74
 L 21.3048,-159.443 L 21.1989,-159.162 L 21.0853,-158.897 L 21,-158.722 L 21,-160 L 20,-160
 L 20,-157.437 L 19.8649,-157.332 L 19.6719,-157.204 L 19.4698,-157.091 L 19.2588,-156.993 L 19.0388,-156.91
 L 18.8098,-156.843 L 18.5717,-156.79 L 18.3246,-156.752 L 18.0686,-156.73 L 17.8035,-156.722 z
M -0.917603,-157.075 L -0.864746,-157.194 L -0.807861,-157.314 L -0.746933,-157.434 L -0.681992,-157.554 L -0.613022,-157.676
 L -0.540024,-157.798 L -0.463013,-157.92 L -0.381958,-158.043 L -0.296875,-158.167 L -0.207779,-158.291 L -0.114655,-158.416
 L -0.0175018,-158.541 L 0,-158.563 L 0,-157.075 z
M 151,67 L 170,67 L 170,66 L 151,66 L 151,1 L 170,1
 L 170,-0 L 151,-0 L 151,-20 L 150,-20 L 150,-0 L 70,-0
 L 70,1 L 150,1 L 150,66 L 70,66 L 70,67 L 150,67
 L 150,80 L 151,80 z
M 20,-0 L 0,-0 L 0,66 L 20,66 z
M 171.597,29.2209 L 171.933,29.2027 L 172.26,29.1724 L 172.578,29.1299 L 172.887,29.0753 L 173.188,29.0086
 L 173.479,28.9297 L 173.761,28.8387 L 174.035,28.7356 L 174.3,28.6203 L 174.555,28.493 L 174.802,28.3534
 L 175.04,28.2018 L 175.269,28.038 L 175.49,27.862 L 175.701,27.674 L 175.901,27.4756 L 176.089,27.2687
 L 176.263,27.0533 L 176.425,26.8294 L 176.573,26.5969 L 176.709,26.3559 L 176.832,26.1063 L 176.942,25.8482
 L 177.039,25.5816 L 177.123,25.3065 L 177.194,25.0228 L 177.252,24.7307 L 177.297,24.4299 L 177.33,24.1207
 L 177.349,23.8029 L 177.355,23.4766 L 177.353,23.283 L 177.345,23.0921 L 177.333,22.9041 L 177.315,22.7188
 L 177.292,22.5362 L 177.265,22.3564 L 177.232,22.1793 L 177.194,22.005 L 177.152,21.8335 L 177.104,21.6647
 L 177.051,21.4986 L 176.993,21.3353 L 176.93,21.1748 L 176.862,21.0171 L 176.789,20.862 L 176.711,20.7098
 L 176.628,20.561 L 176.541,20.4165 L 176.449,20.2762 L 176.352,20.1402 L 176.251,20.0084 L 176.145,19.8808
 L 176.035,19.7575 L 175.919,19.6384 L 175.8,19.5235 L 175.675,19.4129 L 175.547,19.3065 L 175.413,19.2044
 L 175.275,19.1065 L 175.132,19.0128 L 174.985,18.9234 L 174.833,18.8382 L 175.287,18.8427 L 175.728,18.8561
 L 176.155,18.8785 L 176.568,18.9098 L 176.968,18.9501 L 177.354,18.9993 L 177.727,19.0575 L 178.086,19.1247
 L 178.431,19.2008 L 178.763,19.2858 L 179.081,19.3799 L 179.386,19.4828 L 179.677,19.5947 L 179.954,19.7156
 L 180.218,19.8454 L 180.468,19.9842 L 180.704,20.1311 L 180.924,20.2854 L 181.129,20.4471 L 181.319,20.6161
 L 181.494,20.7925 L 181.654,20.9762 L 181.798,21.1674 L 181.928,21.3658 L 182.042,21.5717 L 182.141,21.7849
 L 182.224,22.0055 L 182.293,22.2334 L 182.346,22.4687 L 182.384,22.7114 L 182.407,22.9614 L 182.414,23.2188
 L 182.405,23.5156 L 182.378,23.799 L 182.332,24.0691 L 182.268,24.3259 L 182.186,24.5693 L 182.086,24.7993
 L 181.968,25.016 L 181.831,25.2193 L 181.676,25.4093 L 181.503,25.586 L 181.312,25.7493 L 181.102,25.8992
 L 180.874,26.0358 L 180.628,26.159 L 180.364,26.2689 L 180.082,26.3654 L 180.502,28.6982 L 180.973,28.545
 L 181.414,28.3667 L 181.825,28.1635 L 182.205,27.9353 L 182.555,27.682 L 182.874,27.4038 L 183.163,27.1005
 L 183.421,26.7722 L 183.649,26.419 L 183.847,26.0407 L 184.014,25.6374 L 184.151,25.2092 L 184.258,24.7559
 L 184.334,24.2776 L 184.379,23.7743 L 184.394,23.246 L 184.384,22.8416 L 184.353,22.449 L 184.301,22.0681
 L 184.228,21.699 L 184.135,21.3416 L 184.021,20.9961 L 183.886,20.6622 L 183.73,20.3402 L 183.553,20.0299
 L 183.356,19.7314 L 183.138,19.4446 L 182.899,19.1696 L 182.639,18.9063 L 182.359,18.6549 L 182.058,18.4151
 L 181.736,18.1872 L 181.395,17.9721 L 181.035,17.7708 L 180.658,17.5834 L 180.263,17.4099 L 179.849,17.2503
 L 179.418,17.1046 L 178.969,16.9727 L 178.501,16.8547 L 178.016,16.7506 L 177.513,16.6604 L 176.991,16.5841
 L 176.452,16.5216 L 175.894,16.4731 L 175.319,16.4384 L 174.725,16.4175 L 174.114,16.4106 L 173.549,16.4173
 L 173.002,16.4373 L 172.472,16.4707 L 171.958,16.5174 L 171.462,16.5775 L 170.983,16.6509 L 170.521,16.7377
 L 170.076,16.8378 L 169.648,16.9513 L 169.237,17.0781 L 168.843,17.2183 L 168.466,17.3718 L 168.106,17.5387
 L 167.763,17.7189 L 167.438,17.9125 L 167.129,18.1194 L 166.839,18.3389 L 166.567,18.5703 L 166.313,18.8136
 L 166.079,19.0687 L 165.863,19.3358 L 165.666,19.6146 L 165.488,19.9054 L 165.329,20.208 L 165.188,20.5225
 L 165.066,20.8488 L 164.963,21.1871 L 164.879,21.5371 L 164.813,21.8991 L 164.766,22.2729 L 164.738,22.6586
 L 164.729,23.0562 L 164.736,23.4124 L 164.756,23.7589 L 164.79,24.0956 L 164.838,24.4226 L 164.9,24.7398
 L 164.975,25.0473 L 165.064,25.3451 L 165.166,25.633 L 165.282,25.9113 L 165.412,26.1798 L 165.556,26.4385
 L 165.713,26.6875 L 165.884,26.9267 L 166.068,27.1562 L 166.266,27.376 L 166.478,27.586 L 166.702,27.7847
 L 166.936,27.9706 L 167.179,28.1437 L 167.433,28.3039 L 167.696,28.4514 L 167.97,28.586 L 168.253,28.7078
 L 168.547,28.8167 L 168.85,28.9129 L 169.163,28.9962 L 169.487,29.0667 L 169.82,29.1244 L 170.163,29.1693
 L 170.516,29.2014 L 170.879,29.2206 L 171.252,29.227 z
M 170.888,26.7413 L 170.639,26.7295 L 170.397,26.7099 L 170.162,26.6824 L 169.934,26.6472 L 169.712,26.604
 L 169.498,26.5531 L 169.291,26.4942 L 169.09,26.4276 L 168.897,26.3531 L 168.71,26.2707 L 168.531,26.1806
 L 168.358,26.0825 L 168.193,25.9767 L 168.034,25.8629 L 167.882,25.7414 L 167.738,25.613 L 167.604,25.4786
 L 167.479,25.3383 L 167.363,25.1921 L 167.256,25.04 L 167.159,24.8819 L 167.071,24.7179 L 166.992,24.5479
 L 166.923,24.3721 L 166.862,24.1902 L 166.811,24.0025 L 166.77,23.8088 L 166.737,23.6092 L 166.714,23.4037
 L 166.7,23.1922 L 166.695,22.9748 L 166.701,22.7636 L 166.717,22.5572 L 166.745,22.3556 L 166.784,22.1589
 L 166.833,21.9669 L 166.894,21.7798 L 166.965,21.5975 L 167.048,21.4201 L 167.142,21.2475 L 167.246,21.0796
 L 167.362,20.9166 L 167.489,20.7585 L 167.626,20.6051 L 167.775,20.4566 L 167.935,20.3129 L 168.106,20.174
 L 168.285,20.0418 L 168.471,19.9182 L 168.663,19.803 L 168.861,19.6964 L 169.066,19.5983 L 169.276,19.5088
 L 169.493,19.4278 L 169.716,19.3553 L 169.946,19.2913 L 170.182,19.2359 L 170.423,19.189 L 170.672,19.1506
 L 170.926,19.1208 L 171.187,19.0994 L 171.454,19.0867 L 171.727,19.0824 L 171.943,19.0865 L 172.153,19.0988
 L 172.357,19.1193 L 172.555,19.1481 L 172.747,19.185 L 172.933,19.2302 L 173.114,19.2836 L 173.288,19.3451
 L 173.457,19.4149 L 173.62,19.4929 L 173.777,19.5791 L 173.928,19.6736 L 174.073,19.7762 L 174.212,19.8871
 L 174.346,20.0061 L 174.473,20.1334 L 174.594,20.2674 L 174.707,20.4065 L 174.812,20.5507 L 174.909,20.7001
 L 174.999,20.8546 L 175.081,21.0143 L 175.155,21.1791 L 175.221,21.349 L 175.279,21.5241 L 175.33,21.7043
 L 175.373,21.8896 L 175.408,22.0801 L 175.435,22.2757 L 175.455,22.4765 L 175.466,22.6824 L 175.47,22.8934
 L 175.466,23.1174 L 175.453,23.3352 L 175.431,23.5468 L 175.4,23.7521 L 175.36,23.9511 L 175.312,24.1439
 L 175.255,24.3305 L 175.189,24.5107 L 175.114,24.6848 L 175.03,24.8526 L 174.938,25.0141 L 174.837,25.1694
 L 174.727,25.3184 L 174.608,25.4612 L 174.481,25.5977 L 174.344,25.728 L 174.2,25.8512 L 174.048,25.9664
 L 173.889,26.0737 L 173.722,26.173 L 173.548,26.2644 L 173.367,26.3479 L 173.178,26.4233 L 172.981,26.4909
 L 172.778,26.5505 L 172.567,26.6021 L 172.348,26.6459 L 172.122,26.6816 L 171.889,26.7094 L 171.648,26.7293
 L 171.399,26.7412 L 171.144,26.7452 z
M 171.597,44.3074 L 171.933,44.2892 L 172.26,44.2589 L 172.578,44.2164 L 172.887,44.1618 L 173.188,44.0951
 L 173.479,44.0163 L 173.761,43.9253 L 174.035,43.8221 L 174.3,43.7069 L 174.555,43.5795 L 174.802,43.44
 L 175.04,43.2883 L 175.269,43.1245 L 175.49,42.9486 L 175.701,42.7605 L 175.901,42.5621 L 176.089,42.3553
 L 176.263,42.1398 L 176.425,41.9159 L 176.573,41.6834 L 176.709,41.4424 L 176.832,41.1928 L 176.942,40.9348
 L 177.039,40.6682 L 177.123,40.393 L 177.194,40.1094 L 177.252,39.8172 L 177.297,39.5165 L 177.33,39.2072
 L 177.349,38.8894 L 177.355,38.5631 L 177.353,38.3695 L 177.345,38.1787 L 177.333,37.9906 L 177.315,37.8053
 L 177.292,37.6227 L 177.265,37.4429 L 177.232,37.2658 L 177.194,37.0915 L 177.152,36.92 L 177.104,36.7512
 L 177.051,36.5851 L 176.993,36.4219 L 176.93,36.2613 L 176.862,36.1036 L 176.789,35.9486 L 176.711,35.7963
 L 176.628,35.6476 L 176.541,35.503 L 176.449,35.3628 L 176.352,35.2267 L 176.251,35.0949 L 176.145,34.9673
 L 176.035,34.844 L 175.919,34.7249 L 175.8,34.6101 L 175.675,34.4994 L 175.547,34.3931 L 175.413,34.2909
 L 175.275,34.193 L 175.132,34.0993 L 174.985,34.0099 L 174.833,33.9247 L 175.287,33.9292 L 175.728,33.9426
 L 176.155,33.965 L 176.568,33.9963 L 176.968,34.0366 L 177.354,34.0859 L 177.727,34.1441 L 178.086,34.2112
 L 178.431,34.2873 L 178.763,34.3724 L 179.081,34.4664 L 179.386,34.5693 L 179.677,34.6813 L 179.954,34.8021
 L 180.218,34.9319 L 180.468,35.0707 L 180.704,35.2177 L 180.924,35.3719 L 181.129,35.5336 L 181.319,35.7026
 L 181.494,35.879 L 181.654,36.0628 L 181.798,36.2539 L 181.928,36.4524 L 182.042,36.6582 L 182.141,36.8714
 L 182.224,37.092 L 182.293,37.3199 L 182.346,37.5552 L 182.384,37.7979 L 182.407,38.0479 L 182.414,38.3053
 L 182.405,38.6021 L 182.378,38.8856 L 182.332,39.1557 L 182.268,39.4124 L 182.186,39.6558 L 182.086,39.8858
 L 181.968,40.1025 L 181.831,40.3059 L 181.676,40.4958 L 181.503,40.6725 L 181.312,40.8358 L 181.102,40.9857
 L 180.874,41.1223 L 180.628,41.2455 L 180.364,41.3554 L 180.082,41.4519 L 180.502,43.7847 L 180.973,43.6315
 L 181.414,43.4533 L 181.825,43.25 L 182.205,43.0218 L 182.555,42.7685 L 182.874,42.4903 L 183.163,42.187
 L 183.421,41.8588 L 183.649,41.5055 L 183.847,41.1272 L 184.014,40.724 L 184.151,40.2957 L 184.258,39.8424
 L 184.334,39.3641 L 184.379,38.8608 L 184.394,38.3325 L 184.384,37.9281 L 184.353,37.5355 L 184.301,37.1546
 L 184.228,36.7855 L 184.135,36.4282 L 184.021,36.0826 L 183.886,35.7488 L 183.73,35.4267 L 183.553,35.1164
 L 183.356,34.8179 L 183.138,34.5311 L 182.899,34.2561 L 182.639,33.9929 L 182.359,33.7414 L 182.058,33.5017
 L 181.736,33.2737 L 181.395,33.0586 L 181.035,32.8573 L 180.658,32.67 L 180.263,32.4965 L 179.849,32.3368
 L 179.418,32.1911 L 178.969,32.0592 L 178.501,31.9413 L 178.016,31.8372 L 177.513,31.7469 L 176.991,31.6706
 L 176.452,31.6082 L 175.894,31.5596 L 175.319,31.5249 L 174.725,31.5041 L 174.114,31.4971 L 173.549,31.5038
 L 173.002,31.5238 L 172.472,31.5572 L 171.958,31.6039 L 171.462,31.664 L 170.983,31.7374 L 170.521,31.8242
 L 170.076,31.9243 L 169.648,32.0378 L 169.237,32.1646 L 168.843,32.3048 L 168.466,32.4583 L 168.106,32.6252
 L 167.763,32.8054 L 167.438,32.999 L 167.129,33.2059 L 166.839,33.4254 L 166.567,33.6569 L 166.313,33.9001
 L 166.079,34.1553 L 165.863,34.4223 L 165.666,34.7012 L 165.488,34.9919 L 165.329,35.2945 L 165.188,35.609
 L 165.066,35.9353 L 164.963,36.2736 L 164.879,36.6237 L 164.813,36.9856 L 164.766,37.3595 L 164.738,37.7451
 L 164.729,38.1427 L 164.736,38.4989 L 164.756,38.8454 L 164.79,39.1821 L 164.838,39.5091 L 164.9,39.8264
 L 164.975,40.1339 L 165.064,40.4316 L 165.166,40.7196 L 165.282,40.9978 L 165.412,41.2663 L 165.556,41.525
 L 165.713,41.774 L 165.884,42.0133 L 166.068,42.2428 L 166.266,42.4625 L 166.478,42.6725 L 166.702,42.8712
 L 166.936,43.0571 L 167.179,43.2302 L 167.433,43.3905 L 167.696,43.5379 L 167.97,43.6725 L 168.253,43.7943
 L 168.547,43.9033 L 168.85,43.9994 L 169.163,44.0827 L 169.487,44.1533 L 169.82,44.211 L 170.163,44.2558
 L 170.516,44.2879 L 170.879,44.3071 L 171.252,44.3135 z
M 170.888,41.8278 L 170.639,41.816 L 170.397,41.7964 L 170.162,41.769 L 169.934,41.7337 L 169.712,41.6906
 L 169.498,41.6396 L 169.291,41.5808 L 169.09,41.5141 L 168.897,41.4396 L 168.71,41.3573 L 168.531,41.2671
 L 168.358,41.1691 L 168.193,41.0632 L 168.034,40.9495 L 167.882,40.8279 L 167.738,40.6995 L 167.604,40.5652
 L 167.479,40.4249 L 167.363,40.2787 L 167.256,40.1265 L 167.159,39.9684 L 167.071,39.8044 L 166.992,39.6345
 L 166.923,39.4586 L 166.862,39.2768 L 166.811,39.089 L 166.77,38.8954 L 166.737,38.6957 L 166.714,38.4902
 L 166.7,38.2787 L 166.695,38.0613 L 166.701,37.8501 L 166.717,37.6437 L 166.745,37.4421 L 166.784,37.2454
 L 166.833,37.0535 L 166.894,36.8664 L 166.965,36.6841 L 167.048,36.5066 L 167.142,36.334 L 167.246,36.1662
 L 167.362,36.0032 L 167.489,35.845 L 167.626,35.6916 L 167.775,35.5431 L 167.935,35.3994 L 168.106,35.2605
 L 168.285,35.1283 L 168.471,35.0047 L 168.663,34.8895 L 168.861,34.7829 L 169.066,34.6849 L 169.276,34.5953
 L 169.493,34.5143 L 169.716,34.4418 L 169.946,34.3779 L 170.182,34.3224 L 170.423,34.2755 L 170.672,34.2371
 L 170.926,34.2073 L 171.187,34.186 L 171.454,34.1732 L 171.727,34.1689 L 171.943,34.173 L 172.153,34.1853
 L 172.357,34.2059 L 172.555,34.2346 L 172.747,34.2715 L 172.933,34.3167 L 173.114,34.3701 L 173.288,34.4317
 L 173.457,34.5015 L 173.62,34.5795 L 173.777,34.6657 L 173.928,34.7601 L 174.073,34.8627 L 174.212,34.9736
 L 174.346,35.0927 L 174.473,35.2199 L 174.594,35.3539 L 174.707,35.493 L 174.812,35.6372 L 174.909,35.7866
 L 174.999,35.9411 L 175.081,36.1008 L 175.155,36.2656 L 175.221,36.4355 L 175.279,36.6106 L 175.33,36.7908
 L 175.373,36.9761 L 175.408,37.1666 L 175.435,37.3622 L 175.455,37.563 L 175.466,37.7689 L 175.47,37.9799
 L 175.466,38.204 L 175.453,38.4218 L 175.431,38.6333 L 175.4,38.8386 L 175.36,39.0376 L 175.312,39.2304
 L 175.255,39.417 L 175.189,39.5973 L 175.114,39.7713 L 175.03,39.9391 L 174.938,40.1006 L 174.837,40.2559
 L 174.727,40.4049 L 174.608,40.5477 L 174.481,40.6842 L 174.344,40.8145 L 174.2,40.9377 L 174.048,41.0529
 L 173.889,41.1602 L 173.722,41.2595 L 173.548,41.3509 L 173.367,41.4344 L 173.178,41.5099 L 172.981,41.5774
 L 172.778,41.637 L 172.567,41.6887 L 172.348,41.7324 L 172.122,41.7681 L 171.889,41.796 L 171.648,41.8158
 L 171.399,41.8277 L 171.144,41.8317 z
" stroke="black" fill="lightgray" stroke-width="0.5"/>
</svg>
