<?xml version="1.0" standalone="no"?>
<!DOCTYPE svg PUBLIC "-//W3C//DTD SVG 1.1//EN" "http://www.w3.org/Graphics/SVG/1.1/DTD/svg11.dtd">
<svg width="186mm" height="267mm" viewBox="-20 -175 186 267" xmlns="http://www.w3.org/2000/svg" version="1.1">
<title>OpenSCAD Model</title>
<path d="
M 1,-140 L 20,-140 L 20,-60 L 21,-60 L 21,-140 L 40,-140
 L 40,-141 L 21,-141 L 21,-155.543 L 21.2682,-155.714 L 21.5483,-155.921 L 21.8159,-156.148
 L 22.0709,-156.394 L 22.3133,-156.66 L 22.5432,-156.946 L 22.7605,-157.251 L 22.965,-157.576 L 23.1563,-157.917
 L 23.3344,-158.277 L 23.4993,-158.654 L 23.651,-159.049 L 23.7895,-159.462 L 23.9148,-159.892 L 24.027,-160.34
 L 24.1259,-160.806 L 24.2117,-161.289 L 24.2842,-161.791 L 24.3436,-162.309 L 24.3898,-162.846 L 24.4227,-163.4
 L 24.4425,-163.972 L 24.4491,-164.562 L 24.4428,-165.161 L 24.424,-165.742 L 24.3926,-166.304 L 24.3487,-166.847
 L 24.2922,-167.372 L 24.2231,-167.878 L 24.1415,-168.365 L 24.0473,-168.834 L 23.9406,-169.284 L 23.8213,-169.715
 L 23.6895,-170.128 L 23.5451,-170.522 L 23.3881,-170.898 L 23.2186,-171.255 L 23.0365,-171.593 L 22.8419,-171.912
 L 22.6341,-172.213 L 22.4125,-172.494 L 22.1771,-172.756 L 21.9278,-172.998 L 21.6647,-173.221 L 21.3878,-173.425
 L 21.097,-173.609 L 20.7924,-173.774 L 20.474,-173.919 L 20.1418,-174.045 L 19.7957,-174.152 L 19.4358,-174.239
 L 19.0621,-174.307 L 18.6745,-174.356 L 18.2731,-174.385 L 17.8579,-174.394 L 17.4312,-174.385 L 17.0191,-174.356
 L 16.6215,-174.308 L 16.2385,-174.241 L 15.87,-174.155 L 15.5162,-174.049 L 15.1768,-173.925 L 14.8521,-173.781
 L 14.5419,-173.618 L 14.2464,-173.435 L 13.9653,-173.234 L 13.6989,-173.014 L 13.447,-172.774 L 13.2097,-172.515
 L 12.9869,-172.237 L 12.7787,-171.94 L 12.5841,-171.623 L 12.402,-171.287 L 12.2325,-170.932 L 12.0756,-170.558
 L 11.9312,-170.164 L 11.7993,-169.751 L 11.68,-169.319 L 11.5733,-168.868 L 11.4791,-168.397 L 11.3975,-167.907
 L 11.3285,-167.398 L 11.272,-166.869 L 11.228,-166.321 L 11.1966,-165.754 L 11.1778,-165.167 L 11.1715,-164.562
 L 11.178,-163.969 L 11.1974,-163.394 L 11.2297,-162.837 L 11.2749,-162.298 L 11.3331,-161.778 L 11.4042,-161.275
 L 11.4882,-160.79 L 11.5852,-160.323 L 11.695,-159.875 L 11.8178,-159.444 L 11.9536,-159.031 L 12.1022,-158.636
 L 12.2638,-158.26 L 12.4383,-157.901 L 12.6257,-157.56 L 12.8261,-157.238 L 13.0394,-156.934 L 13.2654,-156.65
 L 13.5043,-156.385 L 13.756,-156.14 L 14.0205,-155.915 L 14.2979,-155.709 L 14.588,-155.523 L 14.891,-155.356
 L 15.2068,-155.209 L 15.5355,-155.082 L 15.8769,-154.974 L 16.2312,-154.886 L 16.5983,-154.817 L 16.9782,-154.768
 L 17.371,-154.739 L 17.7765,-154.729 L 18.1822,-154.739 L 18.5753,-154.768 L 18.9559,-154.817 L 19.3239,-154.886
 L 19.6793,-154.975 L 20,-155.077 L 20,-141 L 1,-141 L 1,-155 L 9.0508,-155
 L 9.0508,-157.075 L 1,-157.075 L 1,-159.663 L 1.05003,-159.713 L 1.1927,-159.852 L 1.34036,-159.992
 L 1.493,-160.135 L 1.6506,-160.28 L 1.8132,-160.426 L 1.98079,-160.575 L 2.15334,-160.725 L 2.33089,-160.878
 L 2.51341,-161.032 L 2.70091,-161.189 L 2.89339,-161.347 L 3.24057,-161.631 L 3.57344,-161.905 L 3.892,-162.169
 L 4.19626,-162.425 L 4.48621,-162.67 L 4.76186,-162.907 L 5.02321,-163.134 L 5.27025,-163.351 L 5.50298,-163.559
 L 5.72141,-163.758 L 5.92554,-163.947 L 6.11536,-164.127 L 6.29088,-164.297 L 6.45209,-164.458 L 6.59898,-164.609
 L 6.7316,-164.751 L 6.8551,-164.889 L 6.97476,-165.026 L 7.09055,-165.163 L 7.20245,-165.301 L 7.3105,-165.438
 L 7.41469,-165.575 L 7.515,-165.713 L 7.61143,-165.85 L 7.70403,-165.987 L 7.79274,-166.125 L 7.87758,-166.262
 L 7.95856,-166.399 L 8.03566,-166.537 L 8.1089,-166.674 L 8.17828,-166.811 L 8.24379,-166.949 L 8.30537,-167.086
 L 8.36299,-167.223 L 8.41664,-167.361 L 8.46631,-167.499 L 8.51199,-167.637 L 8.55373,-167.774 L 8.59146,-167.912
 L 8.62524,-168.051 L 8.65504,-168.189 L 8.68088,-168.327 L 8.70273,-168.465 L 8.72061,-168.604 L 8.73451,-168.743
 L 8.74445,-168.881 L 8.75041,-169.02 L 8.7524,-169.159 L 8.74632,-169.468 L 8.72813,-169.769 L 8.6978,-170.06
 L 8.65533,-170.342 L 8.60074,-170.616 L 8.534,-170.88 L 8.45514,-171.135 L 8.36414,-171.382 L 8.26102,-171.619
 L 8.14575,-171.848 L 8.01836,-172.068 L 7.87883,-172.278 L 7.72717,-172.48 L 7.56337,-172.673 L 7.38745,-172.857
 L 7.19939,-173.031 L 7.00008,-173.196 L 6.79031,-173.351 L 6.57013,-173.495 L 6.33949,-173.628 L 6.09842,-173.75
 L 5.84692,-173.862 L 5.58498,-173.963 L 5.31259,-174.054 L 5.02977,-174.133 L 4.73651,-174.203 L 4.43283,-174.261
 L 4.1187,-174.309 L 3.79413,-174.346 L 3.45912,-174.373 L 3.11368,-174.389 L 2.7578,-174.394 L 2.43263,-174.389
 L 2.11493,-174.373 L 1.8047,-174.347 L 1.50195,-174.31 L 1.20667,-174.262 L 0.918854,-174.204 L 0.638519,-174.135
 L 0.365646,-174.055 L 0.100235,-173.965 L -0.1577,-173.865 L -0.408157,-173.753 L -0.651138,-173.631 L -0.886673,-173.499
 L -1.11472,-173.356 L -1.3353,-173.202 L -1.5484,-173.038 L -1.7523,-172.865 L -1.94522,-172.684 L -2.12718,-172.497
 L -2.29817,-172.301 L -2.45819,-172.099 L -2.60725,-171.889 L -2.74533,-171.672 L -2.87245,-171.448 L -2.98862,-171.216
 L -3.0938,-170.977 L -3.18802,-170.731 L -3.27127,-170.477 L -3.34355,-170.216 L -3.40488,-169.948 L -3.45523,-169.673
 L -3.49461,-169.39 L -0.999008,-169.159 L -0.973724,-169.348 L -0.941925,-169.532 L -0.90361,-169.71 L -0.858765,-169.883
 L -0.807419,-170.05 L -0.749542,-170.212 L -0.685165,-170.369 L -0.614258,-170.521 L -0.536835,-170.667 L -0.452896,-170.807
 L -0.362442,-170.943 L -0.265472,-171.073 L -0.161987,-171.197 L -0.0519714,-171.317 L 0.0645447,-171.431 L 0.187592,-171.539
 L 0.31604,-171.642 L 0.448776,-171.738 L 0.5858,-171.828 L 0.727127,-171.91 L 0.872742,-171.986 L 1.02266,-172.056
 L 1.17685,-172.119 L 1.33534,-172.175 L 1.49812,-172.225 L 1.66521,-172.268 L 1.83656,-172.304 L 2.01222,-172.334
 L 2.19218,-172.357 L 2.37643,-172.374 L 2.56496,-172.384 L 2.7578,-172.387 L 2.96011,-172.384 L 3.15681,-172.374
 L 3.3479,-172.357 L 3.53337,-172.333 L 3.71323,-172.302 L 3.88747,-172.265 L 4.05609,-172.221 L 4.21909,-172.17
 L 4.37648,-172.113 L 4.52826,-172.048 L 4.67442,-171.977 L 4.81497,-171.899 L 4.94989,-171.814 L 5.07921,-171.723
 L 5.20291,-171.624 L 5.321,-171.519 L 5.43269,-171.408 L 5.53719,-171.291 L 5.63446,-171.169 L 5.72455,-171.041
 L 5.80742,-170.908 L 5.88309,-170.769 L 5.95154,-170.625 L 6.01279,-170.475 L 6.06683,-170.32 L 6.11368,-170.159
 L 6.15332,-169.992 L 6.18575,-169.82 L 6.21097,-169.643 L 6.22897,-169.46 L 6.23979,-169.272 L 6.24339,-169.078
 L 6.2413,-168.933 L 6.23502,-168.79 L 6.22455,-168.649 L 6.2099,-168.51 L 6.19107,-168.373 L 6.16805,-168.237
 L 6.14084,-168.104 L 6.10944,-167.973 L 6.07387,-167.843 L 6.03409,-167.715 L 5.99014,-167.59 L 5.942,-167.466
 L 5.88968,-167.344 L 5.83318,-167.224 L 5.77248,-167.105 L 5.7076,-166.989 L 5.63931,-166.874 L 5.56845,-166.76
 L 5.495,-166.646 L 5.41893,-166.533 L 5.34027,-166.421 L 5.25903,-166.309 L 5.17519,-166.198 L 5.08875,-166.087
 L 4.99971,-165.977 L 4.90808,-165.868 L 4.81386,-165.76 L 4.71703,-165.652 L 4.61761,-165.544 L 4.51559,-165.438
 L 4.411,-165.331 L 4.30379,-165.226 L 4.19447,-165.121 L 4.08351,-165.016 L 3.9709,-164.911 L 3.85666,-164.806
 L 3.74077,-164.7 L 3.62323,-164.595 L 3.50406,-164.49 L 3.38324,-164.385 L 3.26079,-164.28 L 3.13669,-164.175
 L 3.01094,-164.07 L 2.88356,-163.965 L 2.75453,-163.86 L 2.62386,-163.755 L 2.49155,-163.649 L 2.35759,-163.544
 L 2.22273,-163.439 L 2.08772,-163.332 L 1.95255,-163.224 L 1.81721,-163.115 L 1.68173,-163.005 L 1.54607,-162.894
 L 1.41026,-162.781 L 1.27429,-162.668 L 1.13817,-162.553 L 1.00188,-162.438 L 0.865433,-162.321 L 0.728821,-162.203
 L 0.592056,-162.084 L 0.455124,-161.964 L 0.318039,-161.843 L 0.180786,-161.72 L 0.0438843,-161.596 L -0.0922241,-161.471
 L -0.227539,-161.343 L -0.362076,-161.214 L -0.495804,-161.083 L -0.628754,-160.95 L -0.760895,-160.816 L -0.892258,-160.679
 L -1.02283,-160.541 L -1.1526,-160.401 L -1.28159,-160.259 L -1.40977,-160.116 L -1.53717,-159.97 L -1.66377,-159.823
 L -1.78958,-159.674 L -1.91461,-159.523 L -2.03801,-159.37 L -2.15904,-159.214 L -2.27768,-159.055 L -2.39394,-158.893
 L -2.5078,-158.728 L -2.61929,-158.56 L -2.72839,-158.39 L -2.83511,-158.216 L -2.93944,-158.039 L -3.04138,-157.86
 L -3.14095,-157.678 L -3.23813,-157.492 L -3.33293,-157.304 L -3.42534,-157.113 L -3.51537,-156.919 L -3.60301,-156.722
 L -3.60301,-155 L 0,-155 L 0,-141 L -20,-141 L -20,-140 L 0,-140
 L 0,-60 L 1,-60 z
M 17.5368,-156.73 L 17.2793,-156.752 L 17.031,-156.789 L 16.7918,-156.84 L 16.5618,-156.906 L 16.341,-156.988
 L 16.1293,-157.083 L 15.9268,-157.194 L 15.7335,-157.319 L 15.5493,-157.459 L 15.3743,-157.613 L 15.2084,-157.783
 L 15.0518,-157.967 L 14.9043,-158.166 L 14.7659,-158.379 L 14.6367,-158.608 L 14.516,-158.852 L 14.4031,-159.113
 L 14.298,-159.391 L 14.2006,-159.687 L 14.1111,-159.999 L 14.0293,-160.329 L 13.9553,-160.675 L 13.8891,-161.039
 L 13.8307,-161.419 L 13.7801,-161.817 L 13.7373,-162.232 L 13.7022,-162.664 L 13.675,-163.113 L 13.6555,-163.579
 L 13.6438,-164.062 L 13.6399,-164.562 L 13.6438,-165.076 L 13.6553,-165.572 L 13.6745,-166.05 L 13.7014,-166.509
 L 13.7359,-166.95 L 13.7782,-167.373 L 13.8281,-167.777 L 13.8857,-168.162 L 13.951,-168.53 L 14.024,-168.878
 L 14.1046,-169.208 L 14.193,-169.52 L 14.289,-169.814 L 14.3927,-170.089 L 14.5041,-170.345 L 14.6231,-170.583
 L 14.751,-170.805 L 14.8888,-171.012 L 15.0365,-171.205 L 15.1941,-171.384 L 15.3616,-171.549 L 15.539,-171.699
 L 15.7263,-171.835 L 15.9235,-171.956 L 16.1306,-172.064 L 16.3477,-172.157 L 16.5746,-172.235 L 16.8115,-172.3
 L 17.0582,-172.35 L 17.3149,-172.386 L 17.5815,-172.407 L 17.8579,-172.414 L 18.1277,-172.407 L 18.3878,-172.385
 L 18.6382,-172.349 L 18.8789,-172.298 L 19.1099,-172.233 L 19.3312,-172.153 L 19.5428,-172.059 L 19.7447,-171.95
 L 19.937,-171.826 L 20.1195,-171.688 L 20.2923,-171.536 L 20.4555,-171.369 L 20.6089,-171.188 L 20.7527,-170.992
 L 20.8867,-170.781 L 21.0111,-170.556 L 21.1269,-170.315 L 21.2352,-170.056 L 21.3361,-169.779 L 21.4295,-169.485
 L 21.5154,-169.172 L 21.5938,-168.842 L 21.6648,-168.494 L 21.7283,-168.129 L 21.7843,-167.745 L 21.8329,-167.344
 L 21.8739,-166.924 L 21.9075,-166.487 L 21.9337,-166.033 L 21.9524,-165.56 L 21.9636,-165.07 L 21.9673,-164.562
 L 21.9634,-164.071 L 21.9516,-163.597 L 21.932,-163.139 L 21.9046,-162.697 L 21.8693,-162.271 L 21.8262,-161.861
 L 21.7752,-161.467 L 21.7164,-161.09 L 21.6498,-160.728 L 21.5753,-160.383 L 21.493,-160.053 L 21.4028,-159.74
 L 21.3048,-159.443 L 21.1989,-159.162 L 21.0853,-158.897 L 21,-158.722 L 21,-160 L 20,-160
 L 20,-157.437 L 19.8649,-157.332 L 19.6719,-157.204 L 19.4698,-157.091 L 19.2588,-156.993 L 19.0388,-156.91
 L 18.8098,-156.843 L 18.5717,-156.79 L 18.3246,-156.752 L 18.0686,-156.73 L 17.8035,-156.722 z
M -0.917603,-157.075 L -0.864746,-157.194 L -0.807861,-157.314 L -0.746933,-157.434 L -0.681992,-157.554 L -0.613022,-157.676
 L -0.540024,-157.798 L -0.463013,-157.92 L -0.381958,-158.043 L -0.296875,-158.167 L -0.207779,-158.291 L -0.114655,-158.416
 L -0.0175018,-158.541 L 0,-158.563 L 0,-157.075 z
M 132,73 L 151,73 L 151,72 L 132,72 L 132,1 L 151,1
 L 151,-0 L 132,-0 L 132,-20 L 131,-20 L 131,-0 L 51,-0
 L 51,1 L 131,1 L 131,72 L 51,72 L 51,73 L 131,73
 L 131,92 L 132,92 z
M 20,-0 L 0,-0 L 0,72 L 20,72 z
M 165.11,16.424 L 163.035,16.424 L 163.035,26.6908 L 162.38,26.2446 L 161.735,25.8147 L 161.099,25.401
 L 160.473,25.0036 L 159.857,24.6225 L 159.25,24.2576 L 158.653,23.909 L 158.065,23.5766 L 157.488,23.2605
 L 156.919,22.9607 L 156.36,22.6771 L 155.811,22.4098 L 155.271,22.1588 L 154.741,21.924 L 154.221,21.7054
 L 153.71,21.5032 L 153.206,21.3152 L 152.704,21.1393 L 152.206,20.9755 L 151.71,20.8238 L 151.218,20.6843
 L 150.728,20.557 L 150.242,20.4417 L 149.758,20.3386 L 149.278,20.2476 L 148.801,20.1688 L 148.326,20.102
 L 147.855,20.0474 L 147.387,20.005 L 146.921,19.9747 L 146.459,19.9565 L 146,19.9504 L 146,22.5
 L 146.33,22.5023 L 146.658,22.5094 L 146.986,22.5212 L 147.311,22.5377 L 147.636,22.5589 L 147.959,22.5849
 L 148.28,22.6155 L 148.601,22.6509 L 148.919,22.691 L 149.237,22.7358 L 149.553,22.7853 L 149.868,22.8395
 L 150.181,22.8985 L 150.493,22.9621 L 150.804,23.0305 L 151.113,23.1036 L 151.422,23.1814 L 151.731,23.2639
 L 152.041,23.3512 L 152.351,23.4431 L 152.662,23.5398 L 152.974,23.6411 L 153.286,23.7472 L 153.598,23.858
 L 153.911,23.9736 L 154.225,24.0938 L 154.539,24.2188 L 154.854,24.3484 L 155.169,24.4828 L 155.485,24.6219
 L 155.801,24.7657 L 156.118,24.9142 L 156.442,25.0718 L 156.782,25.2429 L 157.137,25.4274 L 157.507,25.6254
 L 157.892,25.8368 L 158.292,26.0617 L 158.708,26.3 L 159.139,26.5518 L 159.584,26.8171 L 160.045,27.0958
 L 160.522,27.388 L 161.013,27.6936 L 161.519,28.0128 L 162.041,28.3453 L 162.578,28.6913 L 163.129,29.0508
 L 165.11,29.0508 z
M 148.075,34.1689 L 148.194,34.2218 L 148.314,34.2787 L 148.434,34.3396 L 148.554,34.4045 L 148.676,34.4735
 L 148.798,34.5465 L 148.92,34.6235 L 149.043,34.7046 L 149.167,34.7896 L 149.291,34.8787 L 149.416,34.9719
 L 149.541,35.069 L 149.667,35.1702 L 149.794,35.2754 L 149.921,35.3847 L 150.048,35.4979 L 150.177,35.6157
 L 150.308,35.7384 L 150.441,35.8661 L 150.576,35.9989 L 150.713,36.1366 L 150.852,36.2792 L 150.992,36.4269
 L 151.135,36.5795 L 151.28,36.7371 L 151.426,36.8997 L 151.575,37.0673 L 151.725,37.2399 L 151.878,37.4174
 L 152.032,37.5999 L 152.189,37.7874 L 152.347,37.9799 L 152.631,38.3271 L 152.905,38.66 L 153.169,38.9785
 L 153.425,39.2828 L 153.67,39.5727 L 153.907,39.8484 L 154.134,40.1097 L 154.351,40.3568 L 154.559,40.5895
 L 154.758,40.8079 L 154.947,41.0121 L 155.127,41.2019 L 155.297,41.3774 L 155.458,41.5386 L 155.609,41.6855
 L 155.751,41.8181 L 155.889,41.9416 L 156.026,42.0613 L 156.163,42.1771 L 156.301,42.289 L 156.438,42.397
 L 156.575,42.5012 L 156.713,42.6015 L 156.85,42.698 L 156.987,42.7905 L 157.125,42.8793 L 157.262,42.9641
 L 157.399,43.0451 L 157.537,43.1222 L 157.674,43.1954 L 157.811,43.2648 L 157.949,43.3303 L 158.086,43.3919
 L 158.223,43.4495 L 158.361,43.5032 L 158.499,43.5528 L 158.637,43.5985 L 158.774,43.6402 L 158.912,43.678
 L 159.051,43.7118 L 159.189,43.7416 L 159.327,43.7674 L 159.465,43.7892 L 159.604,43.8071 L 159.743,43.821
 L 159.881,43.831 L 160.02,43.8369 L 160.159,43.8389 L 160.468,43.8329 L 160.769,43.8147 L 161.06,43.7843
 L 161.342,43.7419 L 161.616,43.6873 L 161.88,43.6205 L 162.135,43.5417 L 162.382,43.4507 L 162.619,43.3475
 L 162.848,43.2323 L 163.068,43.1049 L 163.278,42.9653 L 163.48,42.8137 L 163.673,42.6499 L 163.857,42.474
 L 164.031,42.2859 L 164.196,42.0866 L 164.351,41.8768 L 164.495,41.6566 L 164.628,41.426 L 164.75,41.185
 L 164.862,40.9334 L 164.963,40.6715 L 165.054,40.3991 L 165.133,40.1163 L 165.203,39.823 L 165.261,39.5193
 L 165.309,39.2052 L 165.346,38.8806 L 165.373,38.5456 L 165.389,38.2002 L 165.394,37.8443 L 165.389,37.5191
 L 165.373,37.2015 L 165.347,36.8912 L 165.31,36.5885 L 165.262,36.2932 L 165.204,36.0054 L 165.135,35.725
 L 165.055,35.4522 L 164.965,35.1868 L 164.865,34.9288 L 164.753,34.6784 L 164.631,34.4354 L 164.499,34.1999
 L 164.356,33.9718 L 164.202,33.7512 L 164.038,33.5381 L 163.865,33.3342 L 163.684,33.1413 L 163.497,32.9594
 L 163.301,32.7884 L 163.099,32.6283 L 162.889,32.4793 L 162.672,32.3412 L 162.448,32.2141 L 162.216,32.0979
 L 161.977,31.9927 L 161.731,31.8985 L 161.477,31.8152 L 161.216,31.743 L 160.948,31.6817 L 160.673,31.6313
 L 160.39,31.5919 L 160.159,34.0875 L 160.348,34.1128 L 160.532,34.1446 L 160.71,34.1829 L 160.883,34.2278
 L 161.05,34.2791 L 161.212,34.337 L 161.369,34.4014 L 161.521,34.4723 L 161.667,34.5497 L 161.807,34.6336
 L 161.943,34.7241 L 162.073,34.8211 L 162.197,34.9245 L 162.317,35.0345 L 162.431,35.1511 L 162.539,35.2741
 L 162.642,35.4026 L 162.738,35.5353 L 162.828,35.6723 L 162.91,35.8137 L 162.986,35.9593 L 163.056,36.1092
 L 163.119,36.2634 L 163.175,36.4219 L 163.225,36.5847 L 163.268,36.7517 L 163.304,36.9231 L 163.334,37.0988
 L 163.357,37.2787 L 163.374,37.463 L 163.384,37.6515 L 163.387,37.8443 L 163.384,38.0466 L 163.374,38.2433
 L 163.357,38.4344 L 163.333,38.6199 L 163.302,38.7997 L 163.265,38.974 L 163.221,39.1426 L 163.17,39.3056
 L 163.113,39.463 L 163.048,39.6148 L 162.977,39.7609 L 162.899,39.9015 L 162.814,40.0364 L 162.723,40.1657
 L 162.624,40.2894 L 162.519,40.4075 L 162.408,40.5192 L 162.291,40.6237 L 162.169,40.721 L 162.041,40.8111
 L 161.908,40.8939 L 161.769,40.9696 L 161.625,41.0381 L 161.475,41.0993 L 161.32,41.1534 L 161.159,41.2002
 L 160.992,41.2398 L 160.82,41.2723 L 160.643,41.2975 L 160.46,41.3155 L 160.272,41.3263 L 160.078,41.3299
 L 159.933,41.3278 L 159.79,41.3215 L 159.649,41.3111 L 159.51,41.2964 L 159.373,41.2776 L 159.237,41.2546
 L 159.104,41.2274 L 158.973,41.196 L 158.843,41.1604 L 158.715,41.1206 L 158.59,41.0767 L 158.466,41.0285
 L 158.344,40.9762 L 158.224,40.9197 L 158.105,40.859 L 157.989,40.7941 L 157.874,40.7258 L 157.76,40.655
 L 157.646,40.5815 L 157.533,40.5054 L 157.421,40.4268 L 157.309,40.3456 L 157.198,40.2617 L 157.087,40.1753
 L 156.977,40.0862 L 156.868,39.9946 L 156.76,39.9004 L 156.652,39.8036 L 156.544,39.7041 L 156.438,39.6021
 L 156.331,39.4975 L 156.226,39.3903 L 156.121,39.281 L 156.016,39.17 L 155.911,39.0574 L 155.806,38.9432
 L 155.7,38.8273 L 155.595,38.7098 L 155.49,38.5906 L 155.385,38.4698 L 155.28,38.3473 L 155.175,38.2232
 L 155.07,38.0975 L 154.965,37.9701 L 154.86,37.841 L 154.755,37.7104 L 154.649,37.5781 L 154.544,37.4441
 L 154.439,37.3093 L 154.332,37.1742 L 154.224,37.0391 L 154.115,36.9037 L 154.005,36.7682 L 153.894,36.6326
 L 153.781,36.4968 L 153.668,36.3608 L 153.553,36.2247 L 153.438,36.0884 L 153.321,35.952 L 153.203,35.8153
 L 153.084,35.6786 L 152.964,35.5416 L 152.843,35.4046 L 152.72,35.2673 L 152.596,35.1304 L 152.471,34.9943
 L 152.343,34.859 L 152.214,34.7245 L 152.083,34.5907 L 151.95,34.4578 L 151.816,34.3256 L 151.679,34.1943
 L 151.541,34.0637 L 151.401,33.9339 L 151.259,33.8049 L 151.116,33.6768 L 150.97,33.5494 L 150.823,33.4227
 L 150.674,33.2969 L 150.523,33.1719 L 150.37,33.0485 L 150.214,32.9275 L 150.055,32.8088 L 149.893,32.6926
 L 149.728,32.5787 L 149.56,32.4672 L 149.39,32.3581 L 149.216,32.2514 L 149.039,32.1471 L 148.86,32.0451
 L 148.678,31.9456 L 148.492,31.8484 L 148.304,31.7536 L 148.113,31.6612 L 147.919,31.5712 L 147.722,31.4835
 L 146,31.4835 L 146,44.1373 L 148.075,44.1373 z
" stroke="black" fill="lightgray" stroke-width="0.5"/>
</svg>
