<?xml version="1.0" standalone="no"?>
<!DOCTYPE svg PUBLIC "-//W3C//DTD SVG 1.1//EN" "http://www.w3.org/Graphics/SVG/1.1/DTD/svg11.dtd">
<svg width="245mm" height="325mm" viewBox="-20 -245 245 325" xmlns="http://www.w3.org/2000/svg" version="1.1">
<title>OpenSCAD Model</title>
<path d="
M 44.1373,-227.075 L 34.1689,-227.075 L 34.2218,-227.194 L 34.2787,-227.314 L 34.3396,-227.434 L 34.4045,-227.554
 L 34.4735,-227.676 L 34.5465,-227.798 L 34.6235,-227.92 L 34.7046,-228.043 L 34.7896,-228.167 L 34.8787,-228.291
 L 34.9719,-228.416 L 35.069,-228.541 L 35.1702,-228.667 L 35.2754,-228.794 L 35.3847,-228.921 L 35.4979,-229.048
 L 35.6157,-229.177 L 35.7384,-229.308 L 35.8661,-229.441 L 35.9989,-229.576 L 36.1366,-229.713 L 36.2792,-229.852
 L 36.4269,-229.992 L 36.5795,-230.135 L 36.7371,-230.28 L 36.8997,-230.426 L 37.0673,-230.575 L 37.2399,-230.725
 L 37.4174,-230.878 L 37.5999,-231.032 L 37.7874,-231.189 L 37.9799,-231.347 L 38.3271,-231.631 L 38.66,-231.905
 L 38.9785,-232.169 L 39.2828,-232.425 L 39.5727,-232.67 L 39.8484,-232.907 L 40.1097,-233.134 L 40.3568,-233.351
 L 40.5895,-233.559 L 40.8079,-233.758 L 41.0121,-233.947 L 41.2019,-234.127 L 41.3774,-234.297 L 41.5386,-234.458
 L 41.6855,-234.609 L 41.8181,-234.751 L 41.9416,-234.889 L 42.0613,-235.026 L 42.1771,-235.163 L 42.289,-235.301
 L 42.397,-235.438 L 42.5012,-235.575 L 42.6015,-235.713 L 42.698,-235.85 L 42.7905,-235.987 L 42.8793,-236.125
 L 42.9641,-236.262 L 43.0451,-236.399 L 43.1222,-236.537 L 43.1954,-236.674 L 43.2648,-236.811 L 43.3303,-236.949
 L 43.3919,-237.086 L 43.4495,-237.223 L 43.5032,-237.361 L 43.5528,-237.499 L 43.5985,-237.637 L 43.6402,-237.774
 L 43.678,-237.912 L 43.7118,-238.051 L 43.7416,-238.189 L 43.7674,-238.327 L 43.7892,-238.465 L 43.8071,-238.604
 L 43.821,-238.743 L 43.831,-238.881 L 43.8369,-239.02 L 43.8389,-239.159 L 43.8329,-239.468 L 43.8147,-239.769
 L 43.7843,-240.06 L 43.7419,-240.342 L 43.6873,-240.616 L 43.6205,-240.88 L 43.5417,-241.135 L 43.4507,-241.382
 L 43.3475,-241.619 L 43.2323,-241.848 L 43.1049,-242.068 L 42.9653,-242.278 L 42.8137,-242.48 L 42.6499,-242.673
 L 42.474,-242.857 L 42.2859,-243.031 L 42.0866,-243.196 L 41.8768,-243.351 L 41.6566,-243.495 L 41.426,-243.628
 L 41.185,-243.75 L 40.9334,-243.862 L 40.6715,-243.963 L 40.3991,-244.054 L 40.1163,-244.133 L 39.823,-244.203
 L 39.5193,-244.261 L 39.2052,-244.309 L 38.8806,-244.346 L 38.5456,-244.373 L 38.2002,-244.389 L 37.8443,-244.394
 L 37.5191,-244.389 L 37.2015,-244.373 L 36.8912,-244.347 L 36.5885,-244.31 L 36.2932,-244.262 L 36.0054,-244.204
 L 35.725,-244.135 L 35.4522,-244.055 L 35.1868,-243.965 L 34.9288,-243.865 L 34.6784,-243.753 L 34.4354,-243.631
 L 34.1999,-243.499 L 33.9718,-243.356 L 33.7512,-243.202 L 33.5381,-243.038 L 33.3342,-242.865 L 33.1413,-242.684
 L 32.9594,-242.497 L 32.7884,-242.301 L 32.6283,-242.099 L 32.4793,-241.889 L 32.3412,-241.672 L 32.2141,-241.448
 L 32.0979,-241.216 L 31.9927,-240.977 L 31.8985,-240.731 L 31.8152,-240.477 L 31.743,-240.216 L 31.6817,-239.948
 L 31.6313,-239.673 L 31.5919,-239.39 L 34.0875,-239.159 L 34.1128,-239.348 L 34.1446,-239.532 L 34.1829,-239.71
 L 34.2278,-239.883 L 34.2791,-240.05 L 34.337,-240.212 L 34.4014,-240.369 L 34.4723,-240.521 L 34.5497,-240.667
 L 34.6336,-240.807 L 34.7241,-240.943 L 34.8211,-241.073 L 34.9245,-241.197 L 35.0345,-241.317 L 35.1511,-241.431
 L 35.2741,-241.539 L 35.4026,-241.642 L 35.5353,-241.738 L 35.6723,-241.828 L 35.8137,-241.91 L 35.9593,-241.986
 L 36.1092,-242.056 L 36.2634,-242.119 L 36.4219,-242.175 L 36.5847,-242.225 L 36.7517,-242.268 L 36.9231,-242.304
 L 37.0988,-242.334 L 37.2787,-242.357 L 37.463,-242.374 L 37.6515,-242.384 L 37.8443,-242.387 L 38.0466,-242.384
 L 38.2433,-242.374 L 38.4344,-242.357 L 38.6199,-242.333 L 38.7997,-242.302 L 38.974,-242.265 L 39.1426,-242.221
 L 39.3056,-242.17 L 39.463,-242.113 L 39.6148,-242.048 L 39.7609,-241.977 L 39.9015,-241.899 L 40.0364,-241.814
 L 40.1657,-241.723 L 40.2894,-241.624 L 40.4075,-241.519 L 40.5192,-241.408 L 40.6237,-241.291 L 40.721,-241.169
 L 40.8111,-241.041 L 40.8939,-240.908 L 40.9696,-240.769 L 41.0381,-240.625 L 41.0993,-240.475 L 41.1534,-240.32
 L 41.2002,-240.159 L 41.2398,-239.992 L 41.2723,-239.82 L 41.2975,-239.643 L 41.3155,-239.46 L 41.3263,-239.272
 L 41.3299,-239.078 L 41.3278,-238.933 L 41.3215,-238.79 L 41.3111,-238.649 L 41.2964,-238.51 L 41.2776,-238.373
 L 41.2546,-238.237 L 41.2274,-238.104 L 41.196,-237.973 L 41.1604,-237.843 L 41.1206,-237.715 L 41.0767,-237.59
 L 41.0285,-237.466 L 40.9762,-237.344 L 40.9197,-237.224 L 40.859,-237.105 L 40.7941,-236.989 L 40.7258,-236.874
 L 40.655,-236.76 L 40.5815,-236.646 L 40.5054,-236.533 L 40.4268,-236.421 L 40.3456,-236.309 L 40.2617,-236.198
 L 40.1753,-236.087 L 40.0862,-235.977 L 39.9946,-235.868 L 39.9004,-235.76 L 39.8036,-235.652 L 39.7041,-235.544
 L 39.6021,-235.438 L 39.4975,-235.331 L 39.3903,-235.226 L 39.281,-235.121 L 39.17,-235.016 L 39.0574,-234.911
 L 38.9432,-234.806 L 38.8273,-234.7 L 38.7098,-234.595 L 38.5906,-234.49 L 38.4698,-234.385 L 38.3473,-234.28
 L 38.2232,-234.175 L 38.0975,-234.07 L 37.9701,-233.965 L 37.841,-233.86 L 37.7104,-233.755 L 37.5781,-233.649
 L 37.4441,-233.544 L 37.3093,-233.439 L 37.1742,-233.332 L 37.0391,-233.224 L 36.9037,-233.115 L 36.7682,-233.005
 L 36.6326,-232.894 L 36.4968,-232.781 L 36.3608,-232.668 L 36.2247,-232.553 L 36.0884,-232.438 L 35.952,-232.321
 L 35.8153,-232.203 L 35.6786,-232.084 L 35.5416,-231.964 L 35.4046,-231.843 L 35.2673,-231.72 L 35.1304,-231.596
 L 34.9943,-231.471 L 34.859,-231.343 L 34.7245,-231.214 L 34.5907,-231.083 L 34.4578,-230.95 L 34.3256,-230.816
 L 34.1943,-230.679 L 34.0637,-230.541 L 33.9339,-230.401 L 33.8049,-230.259 L 33.6768,-230.116 L 33.5494,-229.97
 L 33.4227,-229.823 L 33.2969,-229.674 L 33.1719,-229.523 L 33.0485,-229.37 L 32.9275,-229.214 L 32.8088,-229.055
 L 32.6926,-228.893 L 32.5787,-228.728 L 32.4672,-228.56 L 32.3581,-228.39 L 32.2514,-228.216 L 32.1471,-228.039
 L 32.0451,-227.86 L 31.9456,-227.678 L 31.8484,-227.492 L 31.7536,-227.304 L 31.6612,-227.113 L 31.5712,-226.919
 L 31.4835,-226.722 L 31.4835,-225 L 44.1373,-225 z
M 22.5023,-225.33 L 22.5094,-225.658 L 22.5212,-225.986 L 22.5377,-226.311 L 22.5589,-226.636 L 22.5849,-226.959
 L 22.6155,-227.28 L 22.6509,-227.601 L 22.691,-227.919 L 22.7358,-228.237 L 22.7853,-228.553 L 22.8395,-228.868
 L 22.8985,-229.181 L 22.9621,-229.493 L 23.0305,-229.804 L 23.1036,-230.113 L 23.1814,-230.422 L 23.2639,-230.731
 L 23.3512,-231.041 L 23.4431,-231.351 L 23.5398,-231.662 L 23.6411,-231.974 L 23.7472,-232.286 L 23.858,-232.598
 L 23.9736,-232.911 L 24.0938,-233.225 L 24.2188,-233.539 L 24.3484,-233.854 L 24.4828,-234.169 L 24.6219,-234.485
 L 24.7657,-234.801 L 24.9142,-235.118 L 25.0718,-235.442 L 25.2429,-235.782 L 25.4274,-236.137 L 25.6254,-236.507
 L 25.8368,-236.892 L 26.0617,-237.292 L 26.3,-237.708 L 26.5518,-238.139 L 26.8171,-238.584 L 27.0958,-239.045
 L 27.388,-239.522 L 27.6936,-240.013 L 28.0128,-240.519 L 28.3453,-241.041 L 28.6913,-241.578 L 29.0508,-242.129
 L 29.0508,-244.11 L 16.424,-244.11 L 16.424,-242.035 L 26.6908,-242.035 L 26.2446,-241.38 L 25.8147,-240.735
 L 25.401,-240.099 L 25.0036,-239.473 L 24.6225,-238.857 L 24.2576,-238.25 L 23.909,-237.653 L 23.5766,-237.065
 L 23.2605,-236.488 L 22.9607,-235.919 L 22.6771,-235.36 L 22.4098,-234.811 L 22.1588,-234.271 L 21.924,-233.741
 L 21.7054,-233.221 L 21.5032,-232.71 L 21.3152,-232.206 L 21.1393,-231.704 L 20.9755,-231.206 L 20.8238,-230.71
 L 20.6843,-230.218 L 20.557,-229.728 L 20.4417,-229.242 L 20.3386,-228.758 L 20.2476,-228.278 L 20.1688,-227.801
 L 20.102,-227.326 L 20.0474,-226.855 L 20.005,-226.387 L 19.9747,-225.921 L 19.9565,-225.459 L 19.9504,-225
 L 22.5,-225 z
M 1,-130 L 3,-130 L 3,-50 L 4,-50 L 4,-130 L 63,-130
 L 63,-50 L 64,-50 L 64,-130 L 66,-130 L 66,-50 L 67,-50
 L 67,-130 L 69,-130 L 69,-50 L 70,-50 L 70,-130 L 72,-130
 L 72,-50 L 73,-50 L 73,-130 L 92,-130 L 92,-131 L 73,-131
 L 73,-144.733 L 73.1285,-144.734 L 73.5016,-144.751 L 73.8634,-144.78 L 74.214,-144.82 L 74.5534,-144.871
 L 74.8815,-144.933 L 75.1985,-145.007 L 75.5041,-145.092 L 75.7986,-145.188 L 76.0818,-145.296 L 76.3538,-145.415
 L 76.6145,-145.545 L 76.864,-145.687 L 77.1023,-145.84 L 77.3294,-146.004 L 77.5452,-146.18 L 77.7488,-146.366
 L 77.9394,-146.561 L 78.1167,-146.766 L 78.281,-146.98 L 78.4321,-147.204 L 78.57,-147.436 L 78.6949,-147.678
 L 78.8065,-147.93 L 78.9051,-148.19 L 78.9905,-148.46 L 79.0628,-148.739 L 79.1219,-149.028 L 79.1679,-149.326
 L 79.2007,-149.633 L 79.2204,-149.95 L 79.227,-150.276 L 79.2223,-150.502 L 79.2083,-150.724 L 79.185,-150.94
 L 79.1524,-151.152 L 79.1104,-151.359 L 79.0591,-151.561 L 78.9985,-151.758 L 78.9286,-151.951 L 78.8493,-152.138
 L 78.7607,-152.321 L 78.6628,-152.498 L 78.5556,-152.671 L 78.439,-152.839 L 78.3131,-153.002 L 78.1779,-153.16
 L 78.0334,-153.314 L 77.8805,-153.461 L 77.7202,-153.6 L 77.5525,-153.732 L 77.3773,-153.856 L 77.1948,-153.973
 L 77.0048,-154.082 L 76.8074,-154.183 L 76.6026,-154.277 L 76.3904,-154.363 L 76.1708,-154.441 L 75.9437,-154.512
 L 75.7093,-154.575 L 75.4674,-154.631 L 75.2181,-154.678 L 74.9613,-154.719 L 74.6972,-154.751 L 74.6972,-154.806
 L 74.9377,-154.859 L 75.1709,-154.919 L 75.3969,-154.984 L 75.6156,-155.055 L 75.8271,-155.132 L 76.0313,-155.215
 L 76.2283,-155.303 L 76.4179,-155.397 L 76.6004,-155.497 L 76.7756,-155.603 L 76.9435,-155.715 L 77.1041,-155.832
 L 77.2575,-155.955 L 77.4037,-156.084 L 77.5426,-156.218 L 77.6742,-156.359 L 77.7982,-156.505 L 77.9142,-156.656
 L 78.0222,-156.812 L 78.1222,-156.974 L 78.2142,-157.142 L 78.2982,-157.314 L 78.3742,-157.492 L 78.4422,-157.676
 L 78.5022,-157.865 L 78.5542,-158.059 L 78.5982,-158.258 L 78.6342,-158.463 L 78.6622,-158.673 L 78.6822,-158.889
 L 78.6942,-159.109 L 78.6982,-159.336 L 78.692,-159.63 L 78.6733,-159.916 L 78.6422,-160.194 L 78.5986,-160.463
 L 78.5426,-160.725 L 78.4741,-160.978 L 78.3932,-161.223 L 78.2998,-161.46 L 78.194,-161.688 L 78.0757,-161.909
 L 77.945,-162.121 L 77.8018,-162.325 L 77.6462,-162.521 L 77.4781,-162.708 L 77.2976,-162.887 L 77.1046,-163.058
 L 76.9004,-163.22 L 76.6862,-163.372 L 76.4619,-163.512 L 76.2277,-163.643 L 75.9834,-163.763 L 75.7291,-163.873
 L 75.4648,-163.972 L 75.1905,-164.06 L 74.9062,-164.139 L 74.6119,-164.207 L 74.3075,-164.264 L 73.9932,-164.311
 L 73.6688,-164.347 L 73.3344,-164.374 L 73,-164.389 L 73,-210 L 92,-210 L 92,-211
 L 73,-211 L 73,-230 L 72,-230 L 72,-211 L 1,-211 L 1,-230
 L 0,-230 L 0,-211 L -20,-211 L -20,-210 L 0,-210 L 0,-164.392
 L -0.189545,-164.389 L -0.507217,-164.374 L -0.817429,-164.348 L -1.12016,-164.312 L -1.41542,-164.266 L -1.70322,-164.209
 L -1.98355,-164.143 L -2.25641,-164.065 L -2.5218,-163.978 L -2.77972,-163.88 L -3.03017,-163.773 L -3.27316,-163.654
 L -3.50867,-163.526 L -3.73672,-163.387 L -3.95729,-163.238 L -4.17041,-163.079 L -4.3743,-162.91 L -4.56723,-162.734
 L -4.74918,-162.549 L -4.92017,-162.357 L -5.0802,-162.156 L -5.22925,-161.947 L -5.36734,-161.73 L -5.49446,-161.506
 L -5.61061,-161.273 L -5.71581,-161.032 L -5.81001,-160.783 L -5.89326,-160.526 L -5.96556,-160.261 L -6.02687,-159.987
 L -6.07722,-159.706 L -6.11661,-159.417 L -3.6618,-159.227 L -3.6382,-159.413 L -3.60808,-159.593 L -3.57144,-159.768
 L -3.52829,-159.937 L -3.47861,-160.102 L -3.42242,-160.261 L -3.35973,-160.415 L -3.29051,-160.563 L -3.21477,-160.706
 L -3.13252,-160.844 L -3.04376,-160.977 L -2.94849,-161.104 L -2.84669,-161.226 L -2.73837,-161.342 L -2.62355,-161.454
 L -2.50221,-161.56 L -2.3752,-161.66 L -2.24336,-161.754 L -2.1067,-161.841 L -1.96523,-161.922 L -1.81894,-161.996
 L -1.66782,-162.064 L -1.51187,-162.125 L -1.3511,-162.18 L -1.18552,-162.229 L -1.01512,-162.271 L -0.83989,-162.306
 L -0.659836,-162.335 L -0.47496,-162.358 L -0.285263,-162.374 L -0.090744,-162.384 L 0,-162.385 L 0,-155.799
 L -0.0411072,-155.796 L -0.281433,-155.786 L -0.528809,-155.782 L -1.858,-155.782 L -1.858,-153.666 L -0.474609,-153.666
 L -0.195648,-153.663 L 0,-153.656 L 0,-146.757 L -0.202789,-146.763 L -0.624863,-146.803 L -1.02203,-146.869
 L -1.3943,-146.962 L -1.74168,-147.081 L -2.06416,-147.226 L -2.36174,-147.399 L -2.63441,-147.597 L -2.88219,-147.822
 L -3.10506,-148.074 L -3.30304,-148.352 L -3.4761,-148.657 L -3.62428,-148.988 L -3.74756,-149.346 L -3.84593,-149.73
 L -3.9194,-150.14 L -6.44221,-149.91 L -6.39603,-149.594 L -6.33888,-149.288 L -6.27077,-148.992 L -6.19168,-148.706
 L -6.10164,-148.43 L -6.00063,-148.164 L -5.88866,-147.907 L -5.7657,-147.66 L -5.63181,-147.423 L -5.48692,-147.196
 L -5.33109,-146.978 L -5.16428,-146.77 L -4.98651,-146.572 L -4.79778,-146.384 L -4.59807,-146.206 L -4.38741,-146.038
 L -4.16667,-145.879 L -3.93678,-145.731 L -3.69771,-145.593 L -3.44948,-145.465 L -3.19209,-145.347 L -2.92552,-145.24
 L -2.6498,-145.143 L -2.36491,-145.056 L -2.07085,-144.979 L -1.76762,-144.913 L -1.45523,-144.857 L -1.13368,-144.811
 L -0.802963,-144.775 L -0.463074,-144.749 L -0.114029,-144.734 L 0,-144.732 L 0,-131 L -20,-131
 L -20,-130 L 0,-130 L 0,-50 L 1,-50 z
M 4,-131 L 4,-145.488 L 4.11453,-145.545 L 4.36404,-145.687 L 4.60233,-145.84 L 4.82938,-146.004
 L 5.0452,-146.18 L 5.24884,-146.366 L 5.43936,-146.561 L 5.61674,-146.766 L 5.78098,-146.98 L 5.93208,-147.204
 L 6.07004,-147.436 L 6.19485,-147.678 L 6.30655,-147.93 L 6.40509,-148.19 L 6.49049,-148.46 L 6.56276,-148.739
 L 6.62189,-149.028 L 6.66786,-149.326 L 6.70071,-149.633 L 6.72043,-149.95 L 6.72699,-150.276 L 6.72234,-150.502
 L 6.70834,-150.724 L 6.68503,-150.94 L 6.65239,-151.152 L 6.61043,-151.359 L 6.55914,-151.561 L 6.49854,-151.758
 L 6.42859,-151.951 L 6.34933,-152.138 L 6.26074,-152.321 L 6.16283,-152.498 L 6.05559,-152.671 L 5.93903,-152.839
 L 5.81314,-153.002 L 5.67793,-153.16 L 5.53339,-153.314 L 5.38051,-153.461 L 5.22021,-153.6 L 5.05249,-153.732
 L 4.87735,-153.856 L 4.69481,-153.973 L 4.50484,-154.082 L 4.30745,-154.183 L 4.10265,-154.277 L 3.89043,-154.363
 L 3.67078,-154.441 L 3.44373,-154.512 L 3.20926,-154.575 L 2.96736,-154.631 L 2.71806,-154.678 L 2.46133,-154.719
 L 2.19719,-154.751 L 2.19719,-154.806 L 2.43768,-154.859 L 2.67093,-154.919 L 2.89691,-154.984 L 3.11563,-155.055
 L 3.32709,-155.132 L 3.5313,-155.215 L 3.72826,-155.303 L 3.91794,-155.397 L 4.10037,-155.497 L 4.27556,-155.603
 L 4.44347,-155.715 L 4.60413,-155.832 L 4.75754,-155.955 L 4.90367,-156.084 L 5.04256,-156.218 L 5.17419,-156.359
 L 5.29819,-156.505 L 5.4142,-156.656 L 5.52219,-156.812 L 5.62219,-156.974 L 5.71419,-157.142 L 5.79819,-157.314
 L 5.87419,-157.492 L 5.9422,-157.676 L 6.0022,-157.865 L 6.0542,-158.059 L 6.09819,-158.258 L 6.13419,-158.463
 L 6.16219,-158.673 L 6.18219,-158.889 L 6.1942,-159.109 L 6.1982,-159.336 L 6.19197,-159.63 L 6.17329,-159.916
 L 6.14217,-160.194 L 6.09859,-160.463 L 6.04257,-160.725 L 5.97409,-160.978 L 5.89317,-161.223 L 5.79979,-161.46
 L 5.69397,-161.688 L 5.5757,-161.909 L 5.44496,-162.121 L 5.30179,-162.325 L 5.14616,-162.521 L 4.97809,-162.708
 L 4.79756,-162.887 L 4.6046,-163.058 L 4.40039,-163.22 L 4.18616,-163.372 L 3.96193,-163.512 L 3.72768,-163.643
 L 3.48341,-163.763 L 3.22914,-163.873 L 2.96484,-163.972 L 2.69054,-164.06 L 2.40622,-164.139 L 2.11189,-164.207
 L 1.80754,-164.264 L 1.49318,-164.311 L 1.16881,-164.347 L 1,-164.361 L 1,-210 L 72,-210
 L 72,-164.374 L 71.9928,-164.374 L 71.6826,-164.348 L 71.3798,-164.312 L 71.0846,-164.266 L 70.7968,-164.209
 L 70.5164,-164.143 L 70.2436,-164.065 L 69.9782,-163.978 L 69.7203,-163.88 L 69.4698,-163.773 L 69.2268,-163.654
 L 68.9913,-163.526 L 68.7633,-163.387 L 68.5427,-163.238 L 68.3296,-163.079 L 68.1257,-162.91 L 67.9328,-162.734
 L 67.7508,-162.549 L 67.5798,-162.357 L 67.4198,-162.156 L 67.2708,-161.947 L 67.1327,-161.73 L 67.0055,-161.506
 L 66.8894,-161.273 L 66.7842,-161.032 L 66.69,-160.783 L 66.6067,-160.526 L 66.5344,-160.261 L 66.4731,-159.987
 L 66.4228,-159.706 L 66.3834,-159.417 L 68.8382,-159.227 L 68.8618,-159.413 L 68.8919,-159.593 L 68.9286,-159.768
 L 68.9717,-159.937 L 69.0214,-160.102 L 69.0776,-160.261 L 69.1403,-160.415 L 69.2095,-160.563 L 69.2852,-160.706
 L 69.3675,-160.844 L 69.4562,-160.977 L 69.5515,-161.104 L 69.6533,-161.226 L 69.7616,-161.342 L 69.8764,-161.454
 L 69.9978,-161.56 L 70.1248,-161.66 L 70.2566,-161.754 L 70.3933,-161.841 L 70.5348,-161.922 L 70.6811,-161.996
 L 70.8322,-162.064 L 70.9881,-162.125 L 71.1489,-162.18 L 71.3145,-162.229 L 71.4849,-162.271 L 71.6601,-162.306
 L 71.8402,-162.335 L 72,-162.355 L 72,-155.783 L 71.9712,-155.782 L 70.642,-155.782 L 70.642,-153.666
 L 72,-153.666 L 72,-146.791 L 71.8751,-146.803 L 71.478,-146.869 L 71.1057,-146.962 L 70.7583,-147.081
 L 70.4358,-147.226 L 70.1383,-147.399 L 70,-147.499 L 70,-150 L 69,-150 L 69,-148.71
 L 68.8757,-148.988 L 68.7524,-149.346 L 68.6541,-149.73 L 68.5806,-150.14 L 67,-149.996 L 67,-150
 L 66,-150 L 66,-131 L 64,-131 L 64,-150 L 63,-150 L 63,-131
 z
M 23.4124,-144.736 L 23.7589,-144.756 L 24.0956,-144.79 L 24.4226,-144.838 L 24.7398,-144.9 L 25.0473,-144.975
 L 25.3451,-145.064 L 25.633,-145.166 L 25.9113,-145.282 L 26.1798,-145.412 L 26.4385,-145.556 L 26.6875,-145.713
 L 26.9267,-145.884 L 27.1562,-146.068 L 27.376,-146.266 L 27.586,-146.478 L 27.7847,-146.702 L 27.9706,-146.936
 L 28.1437,-147.179 L 28.3039,-147.433 L 28.4514,-147.696 L 28.586,-147.97 L 28.7078,-148.253 L 28.8167,-148.547
 L 28.9129,-148.85 L 28.9962,-149.163 L 29.0667,-149.487 L 29.1244,-149.82 L 29.1693,-150.163 L 29.2014,-150.516
 L 29.2206,-150.879 L 29.227,-151.252 L 29.2209,-151.597 L 29.2027,-151.933 L 29.1724,-152.26 L 29.1299,-152.578
 L 29.0753,-152.887 L 29.0086,-153.188 L 28.9297,-153.479 L 28.8387,-153.761 L 28.7356,-154.035 L 28.6203,-154.3
 L 28.493,-154.555 L 28.3534,-154.802 L 28.2018,-155.04 L 28.038,-155.269 L 27.862,-155.49 L 27.674,-155.701
 L 27.4756,-155.901 L 27.2687,-156.089 L 27.0533,-156.263 L 26.8294,-156.425 L 26.5969,-156.573 L 26.3559,-156.709
 L 26.1063,-156.832 L 25.8482,-156.942 L 25.5816,-157.039 L 25.3065,-157.123 L 25.0228,-157.194 L 24.7307,-157.252
 L 24.4299,-157.297 L 24.1207,-157.33 L 23.8029,-157.349 L 23.4766,-157.355 L 23.283,-157.353 L 23.0921,-157.345
 L 22.9041,-157.333 L 22.7188,-157.315 L 22.5362,-157.292 L 22.3564,-157.265 L 22.1793,-157.232 L 22.005,-157.194
 L 21.8335,-157.152 L 21.6647,-157.104 L 21.4986,-157.051 L 21.3353,-156.993 L 21.1748,-156.93 L 21.0171,-156.862
 L 20.862,-156.789 L 20.7098,-156.711 L 20.561,-156.628 L 20.4165,-156.541 L 20.2762,-156.449 L 20.1402,-156.352
 L 20.0084,-156.251 L 19.8808,-156.145 L 19.7575,-156.035 L 19.6384,-155.919 L 19.5235,-155.8 L 19.4129,-155.675
 L 19.3065,-155.547 L 19.2044,-155.413 L 19.1065,-155.275 L 19.0128,-155.132 L 18.9234,-154.985 L 18.8382,-154.833
 L 18.8427,-155.287 L 18.8561,-155.728 L 18.8785,-156.155 L 18.9098,-156.568 L 18.9501,-156.968 L 18.9993,-157.354
 L 19.0575,-157.727 L 19.1247,-158.086 L 19.2008,-158.431 L 19.2858,-158.763 L 19.3799,-159.081 L 19.4828,-159.386
 L 19.5947,-159.677 L 19.7156,-159.954 L 19.8454,-160.218 L 19.9842,-160.468 L 20.1311,-160.704 L 20.2854,-160.924
 L 20.4471,-161.129 L 20.6161,-161.319 L 20.7925,-161.494 L 20.9762,-161.654 L 21.1674,-161.798 L 21.3658,-161.928
 L 21.5717,-162.042 L 21.7849,-162.141 L 22.0055,-162.224 L 22.2334,-162.293 L 22.4687,-162.346 L 22.7114,-162.384
 L 22.9614,-162.407 L 23.2188,-162.414 L 23.5156,-162.405 L 23.799,-162.378 L 24.0691,-162.332 L 24.3259,-162.268
 L 24.5693,-162.186 L 24.7993,-162.086 L 25.016,-161.968 L 25.2193,-161.831 L 25.4093,-161.676 L 25.586,-161.503
 L 25.7493,-161.312 L 25.8992,-161.102 L 26.0358,-160.874 L 26.159,-160.628 L 26.2689,-160.364 L 26.3654,-160.082
 L 28.6982,-160.502 L 28.545,-160.973 L 28.3667,-161.414 L 28.1635,-161.825 L 27.9353,-162.205 L 27.682,-162.555
 L 27.4038,-162.874 L 27.1005,-163.163 L 26.7722,-163.421 L 26.419,-163.649 L 26.0407,-163.847 L 25.6374,-164.014
 L 25.2092,-164.151 L 24.7559,-164.258 L 24.2776,-164.334 L 23.7743,-164.379 L 23.246,-164.394 L 22.8416,-164.384
 L 22.449,-164.353 L 22.0681,-164.301 L 21.699,-164.228 L 21.3416,-164.135 L 20.9961,-164.021 L 20.6622,-163.886
 L 20.3402,-163.73 L 20.0299,-163.553 L 19.7314,-163.356 L 19.4446,-163.138 L 19.1696,-162.899 L 18.9063,-162.639
 L 18.6549,-162.359 L 18.4151,-162.058 L 18.1872,-161.736 L 17.9721,-161.395 L 17.7708,-161.035 L 17.5834,-160.658
 L 17.4099,-160.263 L 17.2503,-159.849 L 17.1046,-159.418 L 16.9727,-158.969 L 16.8547,-158.501 L 16.7506,-158.016
 L 16.6604,-157.513 L 16.5841,-156.991 L 16.5216,-156.452 L 16.4731,-155.894 L 16.4384,-155.319 L 16.4175,-154.725
 L 16.4106,-154.114 L 16.4173,-153.549 L 16.4373,-153.002 L 16.4707,-152.472 L 16.5174,-151.958 L 16.5775,-151.462
 L 16.6509,-150.983 L 16.7377,-150.521 L 16.8378,-150.076 L 16.9513,-149.648 L 17.0781,-149.237 L 17.2183,-148.843
 L 17.3718,-148.466 L 17.5387,-148.106 L 17.7189,-147.763 L 17.9125,-147.438 L 18.1194,-147.129 L 18.3389,-146.839
 L 18.5703,-146.567 L 18.8136,-146.313 L 19.0687,-146.079 L 19.3358,-145.863 L 19.6146,-145.666 L 19.9054,-145.488
 L 20.208,-145.329 L 20.5225,-145.188 L 20.8488,-145.066 L 21.1871,-144.963 L 21.5371,-144.879 L 21.8991,-144.813
 L 22.2729,-144.766 L 22.6586,-144.738 L 23.0562,-144.729 z
M 22.7636,-146.701 L 22.5572,-146.717 L 22.3556,-146.745 L 22.1589,-146.784 L 21.9669,-146.833 L 21.7798,-146.894
 L 21.5975,-146.965 L 21.4201,-147.048 L 21.2475,-147.142 L 21.0796,-147.246 L 20.9166,-147.362 L 20.7585,-147.489
 L 20.6051,-147.626 L 20.4566,-147.775 L 20.3129,-147.935 L 20.174,-148.106 L 20.0418,-148.285 L 19.9182,-148.471
 L 19.803,-148.663 L 19.6964,-148.861 L 19.5983,-149.066 L 19.5088,-149.276 L 19.4278,-149.493 L 19.3553,-149.716
 L 19.2913,-149.946 L 19.2359,-150.182 L 19.189,-150.423 L 19.1506,-150.672 L 19.1208,-150.926 L 19.0994,-151.187
 L 19.0867,-151.454 L 19.0824,-151.727 L 19.0865,-151.943 L 19.0988,-152.153 L 19.1193,-152.357 L 19.1481,-152.555
 L 19.185,-152.747 L 19.2302,-152.933 L 19.2836,-153.114 L 19.3451,-153.288 L 19.4149,-153.457 L 19.4929,-153.62
 L 19.5791,-153.777 L 19.6736,-153.928 L 19.7762,-154.073 L 19.8871,-154.212 L 20.0061,-154.346 L 20.1334,-154.473
 L 20.2674,-154.594 L 20.4065,-154.707 L 20.5507,-154.812 L 20.7001,-154.909 L 20.8546,-154.999 L 21.0143,-155.081
 L 21.1791,-155.155 L 21.349,-155.221 L 21.5241,-155.279 L 21.7043,-155.33 L 21.8896,-155.373 L 22.0801,-155.408
 L 22.2757,-155.435 L 22.4765,-155.455 L 22.6824,-155.466 L 22.8934,-155.47 L 23.1174,-155.466 L 23.3352,-155.453
 L 23.5468,-155.431 L 23.7521,-155.4 L 23.9511,-155.36 L 24.1439,-155.312 L 24.3305,-155.255 L 24.5107,-155.189
 L 24.6848,-155.114 L 24.8526,-155.03 L 25.0141,-154.938 L 25.1694,-154.837 L 25.3184,-154.727 L 25.4612,-154.608
 L 25.5977,-154.481 L 25.728,-154.344 L 25.8512,-154.2 L 25.9664,-154.048 L 26.0737,-153.889 L 26.173,-153.722
 L 26.2644,-153.548 L 26.3479,-153.367 L 26.4233,-153.178 L 26.4909,-152.981 L 26.5505,-152.778 L 26.6021,-152.567
 L 26.6459,-152.348 L 26.6816,-152.122 L 26.7094,-151.889 L 26.7293,-151.648 L 26.7412,-151.399 L 26.7452,-151.144
 L 26.7413,-150.888 L 26.7295,-150.639 L 26.7099,-150.397 L 26.6824,-150.162 L 26.6472,-149.934 L 26.604,-149.712
 L 26.5531,-149.498 L 26.4942,-149.291 L 26.4276,-149.09 L 26.3531,-148.897 L 26.2707,-148.71 L 26.1806,-148.531
 L 26.0825,-148.358 L 25.9767,-148.193 L 25.8629,-148.034 L 25.7414,-147.882 L 25.613,-147.738 L 25.4786,-147.604
 L 25.3383,-147.479 L 25.1921,-147.363 L 25.04,-147.256 L 24.8819,-147.159 L 24.7179,-147.071 L 24.5479,-146.992
 L 24.3721,-146.923 L 24.1902,-146.862 L 24.0025,-146.811 L 23.8088,-146.77 L 23.6092,-146.737 L 23.4037,-146.714
 L 23.1922,-146.7 L 22.9748,-146.695 z
M 38.1822,-144.739 L 38.5753,-144.768 L 38.9559,-144.817 L 39.3239,-144.886 L 39.6793,-144.975 L 40.0222,-145.084
 L 40.3525,-145.212 L 40.6703,-145.359 L 40.9755,-145.527 L 41.2682,-145.714 L 41.5483,-145.921 L 41.8159,-146.148
 L 42.0709,-146.394 L 42.3133,-146.66 L 42.5432,-146.946 L 42.7605,-147.251 L 42.965,-147.576 L 43.1563,-147.917
 L 43.3344,-148.277 L 43.4993,-148.654 L 43.651,-149.049 L 43.7895,-149.462 L 43.9148,-149.892 L 44.027,-150.34
 L 44.1259,-150.806 L 44.2117,-151.289 L 44.2842,-151.791 L 44.3436,-152.309 L 44.3898,-152.846 L 44.4227,-153.4
 L 44.4425,-153.972 L 44.4491,-154.562 L 44.4428,-155.161 L 44.424,-155.742 L 44.3926,-156.304 L 44.3487,-156.847
 L 44.2922,-157.372 L 44.2231,-157.878 L 44.1415,-158.365 L 44.0473,-158.834 L 43.9406,-159.284 L 43.8213,-159.715
 L 43.6895,-160.128 L 43.5451,-160.522 L 43.3881,-160.898 L 43.2186,-161.255 L 43.0365,-161.593 L 42.8419,-161.912
 L 42.6341,-162.213 L 42.4125,-162.494 L 42.1771,-162.756 L 41.9278,-162.998 L 41.6647,-163.221 L 41.3878,-163.425
 L 41.097,-163.609 L 40.7924,-163.774 L 40.474,-163.919 L 40.1418,-164.045 L 39.7957,-164.152 L 39.4358,-164.239
 L 39.0621,-164.307 L 38.6745,-164.356 L 38.2731,-164.385 L 37.8579,-164.394 L 37.4312,-164.385 L 37.0191,-164.356
 L 36.6215,-164.308 L 36.2385,-164.241 L 35.87,-164.155 L 35.5162,-164.049 L 35.1768,-163.925 L 34.8521,-163.781
 L 34.5419,-163.618 L 34.2464,-163.435 L 33.9653,-163.234 L 33.6989,-163.014 L 33.447,-162.774 L 33.2097,-162.515
 L 32.9869,-162.237 L 32.7787,-161.94 L 32.5841,-161.623 L 32.402,-161.287 L 32.2325,-160.932 L 32.0756,-160.558
 L 31.9312,-160.164 L 31.7993,-159.751 L 31.68,-159.319 L 31.5733,-158.868 L 31.4791,-158.397 L 31.3975,-157.907
 L 31.3285,-157.398 L 31.272,-156.869 L 31.228,-156.321 L 31.1966,-155.754 L 31.1778,-155.167 L 31.1715,-154.562
 L 31.178,-153.969 L 31.1974,-153.394 L 31.2297,-152.837 L 31.2749,-152.298 L 31.3331,-151.778 L 31.4042,-151.275
 L 31.4882,-150.79 L 31.5852,-150.323 L 31.695,-149.875 L 31.8178,-149.444 L 31.9536,-149.031 L 32.1022,-148.636
 L 32.2638,-148.26 L 32.4383,-147.901 L 32.6257,-147.56 L 32.8261,-147.238 L 33.0394,-146.934 L 33.2654,-146.65
 L 33.5043,-146.385 L 33.756,-146.14 L 34.0205,-145.915 L 34.2979,-145.709 L 34.588,-145.523 L 34.891,-145.356
 L 35.2068,-145.209 L 35.5355,-145.082 L 35.8769,-144.974 L 36.2312,-144.886 L 36.5983,-144.817 L 36.9782,-144.768
 L 37.371,-144.739 L 37.7765,-144.729 z
M 37.5368,-146.73 L 37.2793,-146.752 L 37.031,-146.789 L 36.7918,-146.84 L 36.5618,-146.906 L 36.341,-146.988
 L 36.1293,-147.083 L 35.9268,-147.194 L 35.7335,-147.319 L 35.5493,-147.459 L 35.3743,-147.613 L 35.2084,-147.783
 L 35.0518,-147.967 L 34.9043,-148.166 L 34.7659,-148.379 L 34.6367,-148.608 L 34.516,-148.852 L 34.4031,-149.113
 L 34.298,-149.391 L 34.2006,-149.687 L 34.1111,-149.999 L 34.0293,-150.329 L 33.9553,-150.675 L 33.8891,-151.039
 L 33.8307,-151.419 L 33.7801,-151.817 L 33.7373,-152.232 L 33.7022,-152.664 L 33.675,-153.113 L 33.6555,-153.579
 L 33.6438,-154.062 L 33.6399,-154.562 L 33.6438,-155.076 L 33.6553,-155.572 L 33.6745,-156.05 L 33.7014,-156.509
 L 33.7359,-156.95 L 33.7782,-157.373 L 33.8281,-157.777 L 33.8857,-158.162 L 33.951,-158.53 L 34.024,-158.878
 L 34.1046,-159.208 L 34.193,-159.52 L 34.289,-159.814 L 34.3927,-160.089 L 34.5041,-160.345 L 34.6231,-160.583
 L 34.751,-160.805 L 34.8888,-161.012 L 35.0365,-161.205 L 35.1941,-161.384 L 35.3616,-161.549 L 35.539,-161.699
 L 35.7263,-161.835 L 35.9235,-161.956 L 36.1306,-162.064 L 36.3477,-162.157 L 36.5746,-162.235 L 36.8115,-162.3
 L 37.0582,-162.35 L 37.3149,-162.386 L 37.5815,-162.407 L 37.8579,-162.414 L 38.1277,-162.407 L 38.3878,-162.385
 L 38.6382,-162.349 L 38.8789,-162.298 L 39.1099,-162.233 L 39.3312,-162.153 L 39.5428,-162.059 L 39.7447,-161.95
 L 39.937,-161.826 L 40.1195,-161.688 L 40.2923,-161.536 L 40.4555,-161.369 L 40.6089,-161.188 L 40.7527,-160.992
 L 40.8867,-160.781 L 41.0111,-160.556 L 41.1269,-160.315 L 41.2352,-160.056 L 41.3361,-159.779 L 41.4295,-159.485
 L 41.5154,-159.172 L 41.5938,-158.842 L 41.6648,-158.494 L 41.7283,-158.129 L 41.7843,-157.745 L 41.8329,-157.344
 L 41.8739,-156.924 L 41.9075,-156.487 L 41.9337,-156.033 L 41.9524,-155.56 L 41.9636,-155.07 L 41.9673,-154.562
 L 41.9634,-154.071 L 41.9516,-153.597 L 41.932,-153.139 L 41.9046,-152.697 L 41.8693,-152.271 L 41.8262,-151.861
 L 41.7752,-151.467 L 41.7164,-151.09 L 41.6498,-150.728 L 41.5753,-150.383 L 41.493,-150.053 L 41.4028,-149.74
 L 41.3048,-149.443 L 41.1989,-149.162 L 41.0853,-148.897 L 40.9637,-148.648 L 40.8338,-148.415 L 40.6948,-148.197
 L 40.5468,-147.994 L 40.3898,-147.806 L 40.2239,-147.633 L 40.0489,-147.475 L 39.8649,-147.332 L 39.6719,-147.204
 L 39.4698,-147.091 L 39.2588,-146.993 L 39.0388,-146.91 L 38.8098,-146.843 L 38.5717,-146.79 L 38.3246,-146.752
 L 38.0686,-146.73 L 37.8035,-146.722 z
M 73,-162.375 L 73.0391,-162.373 L 73.2441,-162.356 L 73.4422,-162.332 L 73.6335,-162.3 L 73.818,-162.262
 L 73.9957,-162.217 L 74.1665,-162.165 L 74.3305,-162.106 L 74.4876,-162.04 L 74.6379,-161.967 L 74.7814,-161.887
 L 74.9181,-161.801 L 75.0479,-161.707 L 75.1709,-161.606 L 75.287,-161.499 L 75.3962,-161.385 L 75.4984,-161.267
 L 75.5935,-161.143 L 75.6816,-161.014 L 75.7626,-160.881 L 75.8367,-160.742 L 75.9036,-160.598 L 75.9635,-160.449
 L 76.0163,-160.296 L 76.0621,-160.137 L 76.1009,-159.973 L 76.1326,-159.804 L 76.1573,-159.63 L 76.1749,-159.451
 L 76.1855,-159.267 L 76.189,-159.078 L 76.1847,-158.887 L 76.1717,-158.702 L 76.1501,-158.522 L 76.1199,-158.347
 L 76.081,-158.177 L 76.0335,-158.013 L 75.9774,-157.854 L 75.9126,-157.7 L 75.8392,-157.551 L 75.7572,-157.407
 L 75.6665,-157.269 L 75.5672,-157.136 L 75.4593,-157.009 L 75.3427,-156.886 L 75.2175,-156.769 L 75.0836,-156.657
 L 74.9419,-156.551 L 74.7932,-156.452 L 74.6374,-156.36 L 74.4746,-156.274 L 74.3048,-156.196 L 74.1279,-156.124
 L 73.9439,-156.059 L 73.7529,-156.001 L 73.5548,-155.95 L 73.3497,-155.905 L 73.1376,-155.868 L 73,-155.848
 z
M 1,-162.322 L 1.13354,-162.3 L 1.31802,-162.262 L 1.49568,-162.217 L 1.66649,-162.165 L 1.83047,-162.106
 L 1.98763,-162.04 L 2.13794,-161.967 L 2.28142,-161.887 L 2.41806,-161.801 L 2.54787,-161.707 L 2.67085,-161.606
 L 2.78699,-161.499 L 2.89622,-161.385 L 2.9984,-161.267 L 3.09354,-161.143 L 3.18161,-161.014 L 3.26265,-160.881
 L 3.33665,-160.742 L 3.40359,-160.598 L 3.46349,-160.449 L 3.51634,-160.296 L 3.56215,-160.137 L 3.60091,-159.973
 L 3.63261,-159.804 L 3.65729,-159.63 L 3.6749,-159.451 L 3.68547,-159.267 L 3.689,-159.078 L 3.68468,-158.887
 L 3.67172,-158.702 L 3.65013,-158.522 L 3.6199,-158.347 L 3.58104,-158.177 L 3.53354,-158.013 L 3.47742,-157.854
 L 3.41264,-157.7 L 3.33923,-157.551 L 3.2572,-157.407 L 3.16652,-157.269 L 3.0672,-157.136 L 2.95926,-157.009
 L 2.84267,-156.886 L 2.71745,-156.769 L 2.58359,-156.657 L 2.44193,-156.551 L 2.2932,-156.452 L 2.13744,-156.36
 L 1.97462,-156.274 L 1.80476,-156.196 L 1.62785,-156.124 L 1.44389,-156.059 L 1.2529,-156.001 L 1.05484,-155.95
 L 1,-155.938 z
M 73,-153.62 L 73.0913,-153.612 L 73.337,-153.581 L 73.5744,-153.543 L 73.8035,-153.499 L 74.0242,-153.448
 L 74.2366,-153.39 L 74.4407,-153.325 L 74.6365,-153.253 L 74.8239,-153.174 L 75.0031,-153.089 L 75.1739,-152.997
 L 75.3364,-152.898 L 75.4906,-152.792 L 75.6359,-152.68 L 75.7719,-152.562 L 75.8985,-152.439 L 76.0157,-152.311
 L 76.1235,-152.178 L 76.222,-152.039 L 76.311,-151.895 L 76.3907,-151.746 L 76.4611,-151.591 L 76.522,-151.431
 L 76.5736,-151.265 L 76.6158,-151.094 L 76.6486,-150.918 L 76.672,-150.736 L 76.6861,-150.549 L 76.6908,-150.357
 L 76.6867,-150.137 L 76.6744,-149.923 L 76.6538,-149.717 L 76.6251,-149.517 L 76.5881,-149.324 L 76.543,-149.138
 L 76.4896,-148.959 L 76.428,-148.787 L 76.3582,-148.622 L 76.2802,-148.464 L 76.1939,-148.312 L 76.0995,-148.168
 L 75.9968,-148.03 L 75.886,-147.899 L 75.7669,-147.775 L 75.6396,-147.658 L 75.5051,-147.548 L 75.3644,-147.445
 L 75.2176,-147.349 L 75.0645,-147.261 L 74.9052,-147.179 L 74.7398,-147.105 L 74.5681,-147.037 L 74.3902,-146.977
 L 74.2062,-146.924 L 74.0159,-146.877 L 73.8195,-146.838 L 73.6168,-146.806 L 73.4079,-146.782 L 73.1929,-146.764
 L 73,-146.755 z
M 1,-153.555 L 1.0744,-153.543 L 1.30345,-153.499 L 1.52419,-153.448 L 1.7366,-153.39 L 1.9407,-153.325
 L 2.13649,-153.253 L 2.32394,-153.174 L 2.50308,-153.089 L 2.6739,-152.997 L 2.83641,-152.898 L 2.99059,-152.792
 L 3.13593,-152.68 L 3.2719,-152.562 L 3.39847,-152.439 L 3.51569,-152.311 L 3.6235,-152.178 L 3.72197,-152.039
 L 3.81104,-151.895 L 3.89075,-151.746 L 3.96106,-151.591 L 4.02202,-151.431 L 4.07358,-151.265 L 4.11578,-151.094
 L 4.14861,-150.918 L 4.17204,-150.736 L 4.18611,-150.549 L 4.1908,-150.357 L 4.18669,-150.137 L 4.17436,-149.923
 L 4.15384,-149.717 L 4.12509,-149.517 L 4.08813,-149.324 L 4.04297,-149.138 L 4,-148.994 L 4,-150
 L 3,-150 L 3,-147.544 L 2.86444,-147.445 L 2.71758,-147.349 L 2.5645,-147.261 L 2.40524,-147.179
 L 2.23978,-147.105 L 2.0681,-147.037 L 1.89024,-146.977 L 1.70618,-146.924 L 1.51591,-146.877 L 1.31946,-146.838
 L 1.11681,-146.806 L 1,-146.792 z
M 67,-131 L 67,-147.216 L 67.0131,-147.196 L 67.1689,-146.978 L 67.3357,-146.77 L 67.5135,-146.572
 L 67.7022,-146.384 L 67.9019,-146.206 L 68.1126,-146.038 L 68.3333,-145.879 L 68.5632,-145.731 L 68.8023,-145.593
 L 69,-145.491 L 69,-131 z
M 70,-131 L 70,-145.097 L 70.1351,-145.056 L 70.4292,-144.979 L 70.7324,-144.913 L 71.0448,-144.857
 L 71.3663,-144.811 L 71.697,-144.775 L 72,-144.752 L 72,-131 z
M 1,-131 L 1,-144.751 L 1.00157,-144.751 L 1.36342,-144.78 L 1.71404,-144.82 L 2.05341,-144.871
 L 2.38155,-144.933 L 2.69847,-145.007 L 3,-145.09 L 3,-131 z
M 191,67 L 210,67 L 210,66 L 191,66 L 191,21 L 205.232,21
 L 205.296,21.1683 L 205.415,21.4403 L 205.545,21.701 L 205.687,21.9506 L 205.84,22.1888 L 206.004,22.4159
 L 206.18,22.6317 L 206.366,22.8354 L 206.561,23.0259 L 206.766,23.2033 L 206.98,23.3675 L 207.204,23.5186
 L 207.436,23.6566 L 207.678,23.7814 L 207.93,23.8931 L 208.19,23.9916 L 208.46,24.077 L 208.739,24.1493
 L 209.028,24.2084 L 209.326,24.2544 L 209.633,24.2872 L 209.95,24.3069 L 210.276,24.3135 L 210.502,24.3089
 L 210.724,24.2949 L 210.94,24.2716 L 211.152,24.2389 L 211.359,24.197 L 211.561,24.1457 L 211.758,24.0851
 L 211.951,24.0151 L 212.138,23.9359 L 212.321,23.8473 L 212.498,23.7494 L 212.671,23.6421 L 212.839,23.5256
 L 213.002,23.3997 L 213.16,23.2645 L 213.314,23.1199 L 213.461,22.967 L 213.6,22.8067 L 213.732,22.639
 L 213.856,22.4639 L 213.973,22.2813 L 214.082,22.0914 L 214.183,21.894 L 214.277,21.6892 L 214.363,21.4769
 L 214.441,21.2573 L 214.512,21.0303 L 214.575,20.7958 L 214.631,20.5539 L 214.678,20.3046 L 214.719,20.0479
 L 214.751,19.7837 L 214.806,19.7837 L 214.859,20.0242 L 214.919,20.2574 L 214.984,20.4834 L 215.055,20.7021
 L 215.132,20.9136 L 215.215,21.1178 L 215.303,21.3148 L 215.397,21.5045 L 215.497,21.6869 L 215.603,21.8621
 L 215.715,22.03 L 215.832,22.1907 L 215.955,22.3441 L 216.084,22.4902 L 216.218,22.6291 L 216.359,22.7607
 L 216.505,22.8847 L 216.656,23.0007 L 216.812,23.1087 L 216.974,23.2087 L 217.142,23.3007 L 217.314,23.3847
 L 217.492,23.4607 L 217.676,23.5287 L 217.865,23.5887 L 218.059,23.6407 L 218.258,23.6847 L 218.463,23.7207
 L 218.673,23.7487 L 218.889,23.7687 L 219.109,23.7807 L 219.336,23.7847 L 219.63,23.7785 L 219.916,23.7598
 L 220.194,23.7287 L 220.463,23.6851 L 220.725,23.6291 L 220.978,23.5606 L 221.223,23.4797 L 221.46,23.3863
 L 221.688,23.2805 L 221.909,23.1622 L 222.121,23.0315 L 222.325,22.8883 L 222.521,22.7327 L 222.708,22.5646
 L 222.887,22.3841 L 223.058,22.1911 L 223.22,21.9869 L 223.372,21.7727 L 223.512,21.5484 L 223.643,21.3142
 L 223.763,21.0699 L 223.873,20.8157 L 223.972,20.5514 L 224.06,20.2771 L 224.139,19.9928 L 224.207,19.6984
 L 224.264,19.3941 L 224.311,19.0797 L 224.347,18.7553 L 224.374,18.4209 L 224.389,18.0765 L 224.394,17.7221
 L 224.389,17.397 L 224.374,17.0793 L 224.348,16.7691 L 224.312,16.4664 L 224.266,16.1711 L 224.209,15.8833
 L 224.143,15.603 L 224.065,15.3301 L 223.978,15.0647 L 223.88,14.8068 L 223.773,14.5564 L 223.654,14.3134
 L 223.526,14.0779 L 223.387,13.8498 L 223.238,13.6292 L 223.079,13.4161 L 222.91,13.2122 L 222.734,13.0193
 L 222.549,12.8373 L 222.357,12.6664 L 222.156,12.5063 L 221.947,12.3573 L 221.73,12.2192 L 221.506,12.0921
 L 221.273,11.9759 L 221.032,11.8707 L 220.783,11.7765 L 220.526,11.6933 L 220.261,11.621 L 219.987,11.5596
 L 219.706,11.5093 L 219.417,11.4699 L 219.227,13.9247 L 219.413,13.9483 L 219.593,13.9785 L 219.768,14.0151
 L 219.937,14.0582 L 220.102,14.1079 L 220.261,14.1641 L 220.415,14.2268 L 220.563,14.296 L 220.706,14.3717
 L 220.844,14.454 L 220.977,14.5428 L 221.104,14.638 L 221.226,14.7398 L 221.342,14.8481 L 221.454,14.963
 L 221.56,15.0843 L 221.66,15.2113 L 221.754,15.3432 L 221.841,15.4798 L 221.922,15.6213 L 221.996,15.7676
 L 222.064,15.9187 L 222.125,16.0746 L 222.18,16.2354 L 222.229,16.401 L 222.271,16.5714 L 222.306,16.7466
 L 222.335,16.9267 L 222.358,17.1116 L 222.374,17.3013 L 222.384,17.4958 L 222.387,17.6951 L 222.384,17.9138
 L 222.373,18.1256 L 222.356,18.3306 L 222.332,18.5287 L 222.3,18.7201 L 222.262,18.9045 L 222.217,19.0822
 L 222.165,19.253 L 222.106,19.417 L 222.04,19.5741 L 221.967,19.7245 L 221.887,19.8679 L 221.801,20.0046
 L 221.707,20.1344 L 221.606,20.2574 L 221.499,20.3735 L 221.385,20.4827 L 221.267,20.5849 L 221.143,20.6801
 L 221.014,20.7681 L 220.881,20.8492 L 220.742,20.9232 L 220.598,20.9901 L 220.449,21.05 L 220.296,21.1029
 L 220.137,21.1487 L 219.973,21.1874 L 219.804,21.2191 L 219.63,21.2438 L 219.451,21.2614 L 219.267,21.272
 L 219.078,21.2755 L 218.887,21.2712 L 218.702,21.2582 L 218.522,21.2366 L 218.347,21.2064 L 218.177,21.1676
 L 218.013,21.1201 L 217.854,21.0639 L 217.7,20.9992 L 217.551,20.9258 L 217.407,20.8437 L 217.269,20.753
 L 217.136,20.6537 L 217.009,20.5458 L 216.886,20.4292 L 216.769,20.304 L 216.657,20.1701 L 216.551,20.0284
 L 216.452,19.8797 L 216.36,19.724 L 216.274,19.5611 L 216.196,19.3913 L 216.124,19.2144 L 216.059,19.0304
 L 216.001,18.8394 L 215.95,18.6414 L 215.905,18.4363 L 215.868,18.2241 L 215.837,18.0049 L 215.813,17.7787
 L 215.796,17.5454 L 215.786,17.3051 L 215.782,17.0577 L 215.782,15.7285 L 213.666,15.7285 L 213.666,17.1119
 L 213.663,17.3909 L 213.653,17.6615 L 213.636,17.9239 L 213.612,18.1779 L 213.581,18.4236 L 213.543,18.6609
 L 213.499,18.89 L 213.448,19.1107 L 213.39,19.3231 L 213.325,19.5272 L 213.253,19.723 L 213.174,19.9105
 L 213.089,20.0896 L 212.997,20.2604 L 212.898,20.4229 L 212.792,20.5771 L 212.68,20.7225 L 212.562,20.8584
 L 212.439,20.985 L 212.311,21.1022 L 212.178,21.21 L 212.039,21.3085 L 211.895,21.3976 L 211.746,21.4773
 L 211.591,21.5476 L 211.431,21.6085 L 211.265,21.6601 L 211.094,21.7023 L 210.918,21.7351 L 210.736,21.7586
 L 210.549,21.7726 L 210.357,21.7773 L 210.137,21.7732 L 209.923,21.7609 L 209.717,21.7404 L 209.517,21.7116
 L 209.324,21.6747 L 209.138,21.6295 L 208.959,21.5761 L 208.787,21.5145 L 208.622,21.4447 L 208.464,21.3667
 L 208.312,21.2805 L 208.168,21.186 L 208.03,21.0834 L 207.932,21 L 210,21 L 210,20
 L 207.183,20 L 207.179,19.9918 L 207.105,19.8263 L 207.037,19.6546 L 206.977,19.4768 L 206.924,19.2927
 L 206.877,19.1024 L 206.838,18.906 L 206.806,18.7033 L 206.782,18.4945 L 206.764,18.2794 L 206.753,18.0582
 L 206.75,17.8307 L 206.763,17.3837 L 206.803,16.9617 L 206.869,16.5645 L 206.962,16.1922 L 207.081,15.8448
 L 207.226,15.5224 L 207.399,15.2248 L 207.597,14.9521 L 207.822,14.7043 L 208.074,14.4815 L 208.352,14.2835
 L 208.657,14.1104 L 208.988,13.9622 L 209.346,13.839 L 209.73,13.7406 L 210.14,13.6671 L 209.91,11.1443
 L 209.594,11.1905 L 209.288,11.2477 L 208.992,11.3158 L 208.706,11.3948 L 208.43,11.4849 L 208.164,11.5859
 L 207.907,11.6979 L 207.66,11.8208 L 207.423,11.9547 L 207.196,12.0996 L 206.978,12.2554 L 206.77,12.4222
 L 206.572,12.6 L 206.384,12.7887 L 206.206,12.9884 L 206.038,13.1991 L 205.879,13.4198 L 205.731,13.6497
 L 205.593,13.8888 L 205.465,14.137 L 205.347,14.3944 L 205.24,14.661 L 205.143,14.9367 L 205.056,15.2216
 L 204.979,15.5157 L 204.913,15.8189 L 204.857,16.1313 L 204.811,16.4528 L 204.775,16.7836 L 204.749,17.1234
 L 204.734,17.4725 L 204.729,17.8307 L 204.734,18.215 L 204.751,18.5881 L 204.78,18.9499 L 204.82,19.3006
 L 204.871,19.6399 L 204.933,19.9681 L 204.94,20 L 191,20 L 191,1 L 205,1
 L 205,9.0508 L 207.075,9.0508 L 207.075,1 L 209.663,1 L 209.713,1.05003 L 209.852,1.1927
 L 209.992,1.34036 L 210.135,1.493 L 210.28,1.6506 L 210.426,1.8132 L 210.575,1.98079 L 210.725,2.15334
 L 210.878,2.33089 L 211.032,2.51341 L 211.189,2.70091 L 211.347,2.89339 L 211.631,3.24057 L 211.905,3.57344
 L 212.169,3.892 L 212.425,4.19626 L 212.67,4.48621 L 212.907,4.76186 L 213.134,5.02321 L 213.351,5.27025
 L 213.559,5.50298 L 213.758,5.72141 L 213.947,5.92554 L 214.127,6.11536 L 214.297,6.29088 L 214.458,6.45209
 L 214.609,6.59898 L 214.751,6.7316 L 214.889,6.8551 L 215.026,6.97476 L 215.163,7.09055 L 215.301,7.20245
 L 215.438,7.3105 L 215.575,7.41469 L 215.713,7.515 L 215.85,7.61143 L 215.987,7.70403 L 216.125,7.79274
 L 216.262,7.87758 L 216.399,7.95856 L 216.537,8.03566 L 216.674,8.1089 L 216.811,8.17828 L 216.949,8.24379
 L 217.086,8.30537 L 217.223,8.36299 L 217.361,8.41664 L 217.499,8.46631 L 217.637,8.51199 L 217.774,8.55373
 L 217.912,8.59146 L 218.051,8.62524 L 218.189,8.65504 L 218.327,8.68088 L 218.465,8.70273 L 218.604,8.72061
 L 218.743,8.73451 L 218.881,8.74445 L 219.02,8.75041 L 219.159,8.7524 L 219.468,8.74632 L 219.769,8.72813
 L 220.06,8.6978 L 220.342,8.65533 L 220.616,8.60074 L 220.88,8.534 L 221.135,8.45514 L 221.382,8.36414
 L 221.619,8.26102 L 221.848,8.14575 L 222.068,8.01836 L 222.278,7.87883 L 222.48,7.72717 L 222.673,7.56337
 L 222.857,7.38745 L 223.031,7.19939 L 223.196,7.00008 L 223.351,6.79031 L 223.495,6.57013 L 223.628,6.33949
 L 223.75,6.09842 L 223.862,5.84692 L 223.963,5.58498 L 224.054,5.31259 L 224.133,5.02977 L 224.203,4.73651
 L 224.261,4.43283 L 224.309,4.1187 L 224.346,3.79413 L 224.373,3.45912 L 224.389,3.11368 L 224.394,2.7578
 L 224.389,2.43263 L 224.373,2.11493 L 224.347,1.8047 L 224.31,1.50195 L 224.262,1.20667 L 224.204,0.918854
 L 224.135,0.638519 L 224.055,0.365646 L 223.965,0.100235 L 223.865,-0.1577 L 223.753,-0.408157 L 223.631,-0.651138
 L 223.499,-0.886673 L 223.356,-1.11472 L 223.202,-1.3353 L 223.038,-1.5484 L 222.865,-1.7523 L 222.684,-1.94522
 L 222.497,-2.12718 L 222.301,-2.29817 L 222.099,-2.45819 L 221.889,-2.60725 L 221.672,-2.74533 L 221.448,-2.87245
 L 221.216,-2.98862 L 220.977,-3.0938 L 220.731,-3.18802 L 220.477,-3.27127 L 220.216,-3.34355 L 219.948,-3.40488
 L 219.673,-3.45523 L 219.39,-3.49461 L 219.159,-0.999008 L 219.348,-0.973724 L 219.532,-0.941925 L 219.71,-0.90361
 L 219.883,-0.858765 L 220.05,-0.807419 L 220.212,-0.749542 L 220.369,-0.685165 L 220.521,-0.614258 L 220.667,-0.536835
 L 220.807,-0.452896 L 220.943,-0.362442 L 221.073,-0.265472 L 221.197,-0.161987 L 221.317,-0.0519714 L 221.431,0.0645447
 L 221.539,0.187592 L 221.642,0.31604 L 221.738,0.448776 L 221.828,0.5858 L 221.91,0.727127 L 221.986,0.872742
 L 222.056,1.02266 L 222.119,1.17685 L 222.175,1.33534 L 222.225,1.49812 L 222.268,1.66521 L 222.304,1.83656
 L 222.334,2.01222 L 222.357,2.19218 L 222.374,2.37643 L 222.384,2.56496 L 222.387,2.7578 L 222.384,2.96011
 L 222.374,3.15681 L 222.357,3.3479 L 222.333,3.53337 L 222.302,3.71323 L 222.265,3.88747 L 222.221,4.05609
 L 222.17,4.21909 L 222.113,4.37648 L 222.048,4.52826 L 221.977,4.67442 L 221.899,4.81497 L 221.814,4.94989
 L 221.723,5.07921 L 221.624,5.20291 L 221.519,5.321 L 221.408,5.43269 L 221.291,5.53719 L 221.169,5.63446
 L 221.041,5.72455 L 220.908,5.80742 L 220.769,5.88309 L 220.625,5.95154 L 220.475,6.01279 L 220.32,6.06683
 L 220.159,6.11368 L 219.992,6.15332 L 219.82,6.18575 L 219.643,6.21097 L 219.46,6.22897 L 219.272,6.23979
 L 219.078,6.24339 L 218.933,6.2413 L 218.79,6.23502 L 218.649,6.22455 L 218.51,6.2099 L 218.373,6.19107
 L 218.237,6.16805 L 218.104,6.14084 L 217.973,6.10944 L 217.843,6.07387 L 217.715,6.03409 L 217.59,5.99014
 L 217.466,5.942 L 217.344,5.88968 L 217.224,5.83318 L 217.105,5.77248 L 216.989,5.7076 L 216.874,5.63931
 L 216.76,5.56845 L 216.646,5.495 L 216.533,5.41893 L 216.421,5.34027 L 216.309,5.25903 L 216.198,5.17519
 L 216.087,5.08875 L 215.977,4.99971 L 215.868,4.90808 L 215.76,4.81386 L 215.652,4.71703 L 215.544,4.61761
 L 215.438,4.51559 L 215.331,4.411 L 215.226,4.30379 L 215.121,4.19447 L 215.016,4.08351 L 214.911,3.9709
 L 214.806,3.85666 L 214.7,3.74077 L 214.595,3.62323 L 214.49,3.50406 L 214.385,3.38324 L 214.28,3.26079
 L 214.175,3.13669 L 214.07,3.01094 L 213.965,2.88356 L 213.86,2.75453 L 213.755,2.62386 L 213.649,2.49155
 L 213.544,2.35759 L 213.439,2.22273 L 213.332,2.08772 L 213.224,1.95255 L 213.115,1.81721 L 213.005,1.68173
 L 212.894,1.54607 L 212.781,1.41026 L 212.668,1.27429 L 212.553,1.13817 L 212.438,1.00188 L 212.321,0.865433
 L 212.203,0.728821 L 212.084,0.592056 L 211.964,0.455124 L 211.843,0.318039 L 211.72,0.180786 L 211.596,0.0438843
 L 211.471,-0.0922241 L 211.343,-0.227539 L 211.214,-0.362076 L 211.083,-0.495804 L 210.95,-0.628754 L 210.816,-0.760895
 L 210.679,-0.892258 L 210.541,-1.02283 L 210.401,-1.1526 L 210.259,-1.28159 L 210.116,-1.40977 L 209.97,-1.53717
 L 209.823,-1.66377 L 209.674,-1.78958 L 209.523,-1.91461 L 209.37,-2.03801 L 209.214,-2.15904 L 209.055,-2.27768
 L 208.893,-2.39394 L 208.728,-2.5078 L 208.56,-2.61929 L 208.39,-2.72839 L 208.216,-2.83511 L 208.039,-2.93944
 L 207.86,-3.04138 L 207.678,-3.14095 L 207.492,-3.23813 L 207.304,-3.33293 L 207.113,-3.42534 L 206.919,-3.51537
 L 206.722,-3.60301 L 205,-3.60301 L 205,-0 L 191,-0 L 191,-20 L 190,-20
 L 190,-0 L 110,-0 L 110,1 L 190,1 L 190,20 L 110,20
 L 110,21 L 190,21 L 190,66 L 110,66 L 110,67 L 190,67
 L 190,80 L 191,80 z
M 207.075,-0 L 207.075,-0.917603 L 207.194,-0.864746 L 207.314,-0.807861 L 207.434,-0.746933 L 207.554,-0.681992
 L 207.676,-0.613022 L 207.798,-0.540024 L 207.92,-0.463013 L 208.043,-0.381958 L 208.167,-0.296875 L 208.291,-0.207779
 L 208.416,-0.114655 L 208.541,-0.0175018 L 208.563,-0 z
M 66,3 L 69,3 L 69,20 L 72,20 L 72,-0 L 63,-0
 L 63,63 L 3,63 L 3,46 L 0,46 L 0,66 L 66,66
 z
M 211.252,41.9486 L 224.11,41.9486 L 224.11,39.3852 L 211.225,30.6374 L 209.326,30.6374 L 209.326,39.643
 L 205,39.643 L 205,41.9486 L 209.326,41.9486 L 209.326,44.634 L 211.252,44.634 z
M 211.252,39.643 L 211.252,32.8888 L 211.524,33.1058 L 212.527,33.8382 L 219.742,38.7342 L 219.776,38.7569
 L 219.813,38.7811 L 219.852,38.8065 L 219.895,38.8334 L 219.941,38.8616 L 219.989,38.8913 L 220.041,38.9223
 L 220.095,38.9546 L 220.153,38.9884 L 220.213,39.0235 L 220.276,39.06 L 220.343,39.0979 L 220.412,39.1372
 L 220.484,39.1778 L 220.559,39.2198 L 220.638,39.2632 L 220.715,39.306 L 220.788,39.3463 L 220.857,39.384
 L 220.922,39.4192 L 220.982,39.4518 L 221.037,39.4819 L 221.089,39.5094 L 221.136,39.5344 L 221.179,39.5569
 L 221.217,39.5768 L 221.251,39.5942 L 221.281,39.6091 L 221.306,39.6214 L 221.327,39.6311 L 221.344,39.6383
 L 221.356,39.643 z
M 210.502,59.3089 L 210.724,59.2949 L 210.94,59.2716 L 211.152,59.2389 L 211.359,59.197 L 211.561,59.1457
 L 211.758,59.0851 L 211.951,59.0151 L 212.138,58.9359 L 212.321,58.8473 L 212.498,58.7494 L 212.671,58.6421
 L 212.839,58.5256 L 213.002,58.3997 L 213.16,58.2645 L 213.314,58.1199 L 213.461,57.967 L 213.6,57.8067
 L 213.732,57.639 L 213.856,57.4639 L 213.973,57.2813 L 214.082,57.0914 L 214.183,56.894 L 214.277,56.6892
 L 214.363,56.4769 L 214.441,56.2573 L 214.512,56.0303 L 214.575,55.7958 L 214.631,55.5539 L 214.678,55.3046
 L 214.719,55.0479 L 214.751,54.7837 L 214.806,54.7837 L 214.859,55.0242 L 214.919,55.2574 L 214.984,55.4834
 L 215.055,55.7021 L 215.132,55.9136 L 215.215,56.1178 L 215.303,56.3148 L 215.397,56.5045 L 215.497,56.6869
 L 215.603,56.8621 L 215.715,57.03 L 215.832,57.1907 L 215.955,57.3441 L 216.084,57.4902 L 216.218,57.6291
 L 216.359,57.7607 L 216.505,57.8847 L 216.656,58.0007 L 216.812,58.1087 L 216.974,58.2087 L 217.142,58.3007
 L 217.314,58.3847 L 217.492,58.4607 L 217.676,58.5287 L 217.865,58.5887 L 218.059,58.6407 L 218.258,58.6847
 L 218.463,58.7207 L 218.673,58.7487 L 218.889,58.7687 L 219.109,58.7807 L 219.336,58.7847 L 219.63,58.7785
 L 219.916,58.7598 L 220.194,58.7287 L 220.463,58.6851 L 220.725,58.6291 L 220.978,58.5606 L 221.223,58.4797
 L 221.46,58.3863 L 221.688,58.2805 L 221.909,58.1622 L 222.121,58.0315 L 222.325,57.8883 L 222.521,57.7327
 L 222.708,57.5646 L 222.887,57.3841 L 223.058,57.1911 L 223.22,56.9869 L 223.372,56.7727 L 223.512,56.5484
 L 223.643,56.3142 L 223.763,56.0699 L 223.873,55.8157 L 223.972,55.5514 L 224.06,55.2771 L 224.139,54.9928
 L 224.207,54.6984 L 224.264,54.3941 L 224.311,54.0797 L 224.347,53.7553 L 224.374,53.4209 L 224.389,53.0765
 L 224.394,52.7221 L 224.389,52.397 L 224.374,52.0793 L 224.348,51.7691 L 224.312,51.4664 L 224.266,51.1711
 L 224.209,50.8833 L 224.143,50.603 L 224.065,50.3301 L 223.978,50.0647 L 223.88,49.8068 L 223.773,49.5564
 L 223.654,49.3134 L 223.526,49.0779 L 223.387,48.8498 L 223.238,48.6292 L 223.079,48.4161 L 222.91,48.2122
 L 222.734,48.0193 L 222.549,47.8373 L 222.357,47.6664 L 222.156,47.5063 L 221.947,47.3573 L 221.73,47.2192
 L 221.506,47.0921 L 221.273,46.9759 L 221.032,46.8707 L 220.783,46.7765 L 220.526,46.6933 L 220.261,46.621
 L 219.987,46.5596 L 219.706,46.5093 L 219.417,46.4699 L 219.227,48.9247 L 219.413,48.9483 L 219.593,48.9785
 L 219.768,49.0151 L 219.937,49.0582 L 220.102,49.1079 L 220.261,49.1641 L 220.415,49.2268 L 220.563,49.296
 L 220.706,49.3717 L 220.844,49.454 L 220.977,49.5428 L 221.104,49.638 L 221.226,49.7398 L 221.342,49.8481
 L 221.454,49.963 L 221.56,50.0843 L 221.66,50.2113 L 221.754,50.3432 L 221.841,50.4798 L 221.922,50.6213
 L 221.996,50.7676 L 222.064,50.9187 L 222.125,51.0746 L 222.18,51.2354 L 222.229,51.401 L 222.271,51.5714
 L 222.306,51.7466 L 222.335,51.9267 L 222.358,52.1116 L 222.374,52.3013 L 222.384,52.4958 L 222.387,52.6951
 L 222.384,52.9138 L 222.373,53.1256 L 222.356,53.3306 L 222.332,53.5287 L 222.3,53.7201 L 222.262,53.9045
 L 222.217,54.0822 L 222.165,54.253 L 222.106,54.417 L 222.04,54.5741 L 221.967,54.7245 L 221.887,54.8679
 L 221.801,55.0046 L 221.707,55.1344 L 221.606,55.2574 L 221.499,55.3735 L 221.385,55.4827 L 221.267,55.5849
 L 221.143,55.6801 L 221.014,55.7681 L 220.881,55.8492 L 220.742,55.9232 L 220.598,55.9901 L 220.449,56.05
 L 220.296,56.1029 L 220.137,56.1487 L 219.973,56.1874 L 219.804,56.2191 L 219.63,56.2438 L 219.451,56.2614
 L 219.267,56.272 L 219.078,56.2755 L 218.887,56.2712 L 218.702,56.2582 L 218.522,56.2366 L 218.347,56.2064
 L 218.177,56.1676 L 218.013,56.1201 L 217.854,56.0639 L 217.7,55.9992 L 217.551,55.9258 L 217.407,55.8437
 L 217.269,55.753 L 217.136,55.6537 L 217.009,55.5458 L 216.886,55.4292 L 216.769,55.304 L 216.657,55.1701
 L 216.551,55.0284 L 216.452,54.8797 L 216.36,54.724 L 216.274,54.5611 L 216.196,54.3913 L 216.124,54.2144
 L 216.059,54.0304 L 216.001,53.8394 L 215.95,53.6414 L 215.905,53.4363 L 215.868,53.2241 L 215.837,53.0049
 L 215.813,52.7787 L 215.796,52.5454 L 215.786,52.3051 L 215.782,52.0577 L 215.782,50.7285 L 213.666,50.7285
 L 213.666,52.1119 L 213.663,52.3909 L 213.653,52.6615 L 213.636,52.9239 L 213.612,53.1779 L 213.581,53.4236
 L 213.543,53.6609 L 213.499,53.89 L 213.448,54.1107 L 213.39,54.3231 L 213.325,54.5272 L 213.253,54.723
 L 213.174,54.9105 L 213.089,55.0896 L 212.997,55.2604 L 212.898,55.4229 L 212.792,55.5771 L 212.68,55.7225
 L 212.562,55.8584 L 212.439,55.985 L 212.311,56.1022 L 212.178,56.21 L 212.039,56.3085 L 211.895,56.3976
 L 211.746,56.4773 L 211.591,56.5476 L 211.431,56.6085 L 211.265,56.6601 L 211.094,56.7023 L 210.918,56.7351
 L 210.736,56.7586 L 210.549,56.7726 L 210.357,56.7773 L 210.137,56.7732 L 209.923,56.7609 L 209.717,56.7404
 L 209.517,56.7116 L 209.324,56.6747 L 209.138,56.6295 L 208.959,56.5761 L 208.787,56.5145 L 208.622,56.4447
 L 208.464,56.3667 L 208.312,56.2805 L 208.168,56.186 L 208.03,56.0834 L 207.899,55.9725 L 207.775,55.8534
 L 207.658,55.7261 L 207.548,55.5916 L 207.445,55.451 L 207.349,55.3041 L 207.261,55.151 L 207.179,54.9918
 L 207.105,54.8263 L 207.037,54.6546 L 206.977,54.4768 L 206.924,54.2927 L 206.877,54.1024 L 206.838,53.906
 L 206.806,53.7033 L 206.782,53.4945 L 206.764,53.2794 L 206.753,53.0582 L 206.75,52.8307 L 206.763,52.3837
 L 206.803,51.9617 L 206.869,51.5645 L 206.962,51.1922 L 207.081,50.8448 L 207.226,50.5224 L 207.399,50.2248
 L 207.597,49.9521 L 207.822,49.7043 L 208.074,49.4815 L 208.352,49.2835 L 208.657,49.1104 L 208.988,48.9622
 L 209.346,48.839 L 209.73,48.7406 L 210.14,48.6671 L 209.91,46.1443 L 209.594,46.1905 L 209.288,46.2477
 L 208.992,46.3158 L 208.706,46.3948 L 208.43,46.4849 L 208.164,46.5859 L 207.907,46.6979 L 207.66,46.8208
 L 207.423,46.9547 L 207.196,47.0996 L 206.978,47.2554 L 206.77,47.4222 L 206.572,47.6 L 206.384,47.7887
 L 206.206,47.9884 L 206.038,48.1991 L 205.879,48.4198 L 205.731,48.6497 L 205.593,48.8888 L 205.465,49.137
 L 205.347,49.3944 L 205.24,49.661 L 205.143,49.9367 L 205.056,50.2216 L 204.979,50.5157 L 204.913,50.8189
 L 204.857,51.1313 L 204.811,51.4528 L 204.775,51.7836 L 204.749,52.1234 L 204.734,52.4725 L 204.729,52.8307
 L 204.734,53.215 L 204.751,53.5881 L 204.78,53.9499 L 204.82,54.3006 L 204.871,54.6399 L 204.933,54.9681
 L 205.007,55.285 L 205.092,55.5907 L 205.188,55.8851 L 205.296,56.1683 L 205.415,56.4403 L 205.545,56.701
 L 205.687,56.9506 L 205.84,57.1888 L 206.004,57.4159 L 206.18,57.6317 L 206.366,57.8354 L 206.561,58.0259
 L 206.766,58.2033 L 206.98,58.3675 L 207.204,58.5186 L 207.436,58.6566 L 207.678,58.7814 L 207.93,58.8931
 L 208.19,58.9916 L 208.46,59.077 L 208.739,59.1493 L 209.028,59.2084 L 209.326,59.2544 L 209.633,59.2872
 L 209.95,59.3069 L 210.276,59.3135 z
" stroke="black" fill="lightgray" stroke-width="0.5"/>
</svg>
