<?xml version="1.0" standalone="no"?>
<!DOCTYPE svg PUBLIC "-//W3C//DTD SVG 1.1//EN" "http://www.w3.org/Graphics/SVG/1.1/DTD/svg11.dtd">
<svg width="1109mm" height="295mm" viewBox="-20 -215 1109 295" xmlns="http://www.w3.org/2000/svg" version="1.1">
<title>OpenSCAD Model</title>
<path d="
M 471.137,-197.075 L 461.169,-197.075 L 461.222,-197.194 L 461.279,-197.314 L 461.34,-197.434 L 461.405,-197.554
 L 461.473,-197.676 L 461.546,-197.798 L 461.624,-197.92 L 461.705,-198.043 L 461.79,-198.167 L 461.879,-198.291
 L 461.972,-198.416 L 462.069,-198.541 L 462.17,-198.667 L 462.275,-198.794 L 462.385,-198.921 L 462.498,-199.048
 L 462.616,-199.177 L 462.738,-199.308 L 462.866,-199.441 L 462.999,-199.576 L 463.137,-199.713 L 463.279,-199.852
 L 463.427,-199.992 L 463.58,-200.135 L 463.737,-200.28 L 463.9,-200.426 L 464.067,-200.575 L 464.24,-200.725
 L 464.417,-200.878 L 464.6,-201.032 L 464.787,-201.189 L 464.98,-201.347 L 465.327,-201.631 L 465.66,-201.905
 L 465.979,-202.169 L 466.283,-202.425 L 466.573,-202.67 L 466.848,-202.907 L 467.11,-203.134 L 467.357,-203.351
 L 467.59,-203.559 L 467.808,-203.758 L 468.012,-203.947 L 468.202,-204.127 L 468.377,-204.297 L 468.539,-204.458
 L 468.686,-204.609 L 468.818,-204.751 L 468.942,-204.889 L 469.061,-205.026 L 469.177,-205.163 L 469.289,-205.301
 L 469.397,-205.438 L 469.501,-205.575 L 469.602,-205.713 L 469.698,-205.85 L 469.791,-205.987 L 469.879,-206.125
 L 469.964,-206.262 L 470.045,-206.399 L 470.122,-206.537 L 470.195,-206.674 L 470.265,-206.811 L 470.33,-206.949
 L 470.392,-207.086 L 470.45,-207.223 L 470.503,-207.361 L 470.553,-207.499 L 470.599,-207.637 L 470.64,-207.774
 L 470.678,-207.912 L 470.712,-208.051 L 470.742,-208.189 L 470.767,-208.327 L 470.789,-208.465 L 470.807,-208.604
 L 470.821,-208.743 L 470.831,-208.881 L 470.837,-209.02 L 470.839,-209.159 L 470.833,-209.468 L 470.815,-209.769
 L 470.784,-210.06 L 470.742,-210.342 L 470.687,-210.616 L 470.621,-210.88 L 470.542,-211.135 L 470.451,-211.382
 L 470.348,-211.619 L 470.232,-211.848 L 470.105,-212.068 L 469.965,-212.278 L 469.814,-212.48 L 469.65,-212.673
 L 469.474,-212.857 L 469.286,-213.031 L 469.087,-213.196 L 468.877,-213.351 L 468.657,-213.495 L 468.426,-213.628
 L 468.185,-213.75 L 467.933,-213.862 L 467.671,-213.963 L 467.399,-214.054 L 467.116,-214.133 L 466.823,-214.203
 L 466.519,-214.261 L 466.205,-214.309 L 465.881,-214.346 L 465.546,-214.373 L 465.2,-214.389 L 464.844,-214.394
 L 464.519,-214.389 L 464.201,-214.373 L 463.891,-214.347 L 463.588,-214.31 L 463.293,-214.262 L 463.005,-214.204
 L 462.725,-214.135 L 462.452,-214.055 L 462.187,-213.965 L 461.929,-213.865 L 461.678,-213.753 L 461.435,-213.631
 L 461.2,-213.499 L 460.972,-213.356 L 460.751,-213.202 L 460.538,-213.038 L 460.334,-212.865 L 460.141,-212.684
 L 459.959,-212.497 L 459.788,-212.301 L 459.628,-212.099 L 459.479,-211.889 L 459.341,-211.672 L 459.214,-211.448
 L 459.098,-211.216 L 458.993,-210.977 L 458.898,-210.731 L 458.815,-210.477 L 458.743,-210.216 L 458.682,-209.948
 L 458.631,-209.673 L 458.592,-209.39 L 461.088,-209.159 L 461.113,-209.348 L 461.145,-209.532 L 461.183,-209.71
 L 461.228,-209.883 L 461.279,-210.05 L 461.337,-210.212 L 461.401,-210.369 L 461.472,-210.521 L 461.55,-210.667
 L 461.634,-210.807 L 461.724,-210.943 L 461.821,-211.073 L 461.925,-211.197 L 462.035,-211.317 L 462.151,-211.431
 L 462.274,-211.539 L 462.403,-211.642 L 462.535,-211.738 L 462.672,-211.828 L 462.814,-211.91 L 462.959,-211.986
 L 463.109,-212.056 L 463.263,-212.119 L 463.422,-212.175 L 463.585,-212.225 L 463.752,-212.268 L 463.923,-212.304
 L 464.099,-212.334 L 464.279,-212.357 L 464.463,-212.374 L 464.651,-212.384 L 464.844,-212.387 L 465.047,-212.384
 L 465.243,-212.374 L 465.434,-212.357 L 465.62,-212.333 L 465.8,-212.302 L 465.974,-212.265 L 466.143,-212.221
 L 466.306,-212.17 L 466.463,-212.113 L 466.615,-212.048 L 466.761,-211.977 L 466.901,-211.899 L 467.036,-211.814
 L 467.166,-211.723 L 467.289,-211.624 L 467.408,-211.519 L 467.519,-211.408 L 467.624,-211.291 L 467.721,-211.169
 L 467.811,-211.041 L 467.894,-210.908 L 467.97,-210.769 L 468.038,-210.625 L 468.099,-210.475 L 468.153,-210.32
 L 468.2,-210.159 L 468.24,-209.992 L 468.272,-209.82 L 468.297,-209.643 L 468.316,-209.46 L 468.326,-209.272
 L 468.33,-209.078 L 468.328,-208.933 L 468.322,-208.79 L 468.311,-208.649 L 468.296,-208.51 L 468.278,-208.373
 L 468.255,-208.237 L 468.227,-208.104 L 468.196,-207.973 L 468.16,-207.843 L 468.121,-207.715 L 468.077,-207.59
 L 468.029,-207.466 L 467.976,-207.344 L 467.92,-207.224 L 467.859,-207.105 L 467.794,-206.989 L 467.726,-206.874
 L 467.655,-206.76 L 467.582,-206.646 L 467.505,-206.533 L 467.427,-206.421 L 467.346,-206.309 L 467.262,-206.198
 L 467.175,-206.087 L 467.086,-205.977 L 466.995,-205.868 L 466.9,-205.76 L 466.804,-205.652 L 466.704,-205.544
 L 466.602,-205.438 L 466.498,-205.331 L 466.39,-205.226 L 466.281,-205.121 L 466.17,-205.016 L 466.057,-204.911
 L 465.943,-204.806 L 465.827,-204.7 L 465.71,-204.595 L 465.591,-204.49 L 465.47,-204.385 L 465.347,-204.28
 L 465.223,-204.175 L 465.097,-204.07 L 464.97,-203.965 L 464.841,-203.86 L 464.71,-203.755 L 464.578,-203.649
 L 464.444,-203.544 L 464.309,-203.439 L 464.174,-203.332 L 464.039,-203.224 L 463.904,-203.115 L 463.768,-203.005
 L 463.633,-202.894 L 463.497,-202.781 L 463.361,-202.668 L 463.225,-202.553 L 463.088,-202.438 L 462.952,-202.321
 L 462.815,-202.203 L 462.679,-202.084 L 462.542,-201.964 L 462.405,-201.843 L 462.267,-201.72 L 462.13,-201.596
 L 461.994,-201.471 L 461.859,-201.343 L 461.724,-201.214 L 461.591,-201.083 L 461.458,-200.95 L 461.326,-200.816
 L 461.194,-200.679 L 461.064,-200.541 L 460.934,-200.401 L 460.805,-200.259 L 460.677,-200.116 L 460.549,-199.97
 L 460.423,-199.823 L 460.297,-199.674 L 460.172,-199.523 L 460.049,-199.37 L 459.927,-199.214 L 459.809,-199.055
 L 459.693,-198.893 L 459.579,-198.728 L 459.467,-198.56 L 459.358,-198.39 L 459.251,-198.216 L 459.147,-198.039
 L 459.045,-197.86 L 458.946,-197.678 L 458.848,-197.492 L 458.754,-197.304 L 458.661,-197.113 L 458.571,-196.919
 L 458.484,-196.722 L 458.484,-195 L 471.137,-195 z
M 449.625,-194.739 L 450.022,-194.77 L 450.408,-194.822 L 450.781,-194.894 L 451.143,-194.987 L 451.493,-195.101
 L 451.831,-195.235 L 452.157,-195.39 L 452.471,-195.566 L 452.773,-195.762 L 453.063,-195.979 L 453.341,-196.216
 L 453.607,-196.475 L 453.862,-196.754 L 454.104,-197.053 L 454.335,-197.373 L 454.553,-197.713 L 454.756,-198.07
 L 454.946,-198.445 L 455.121,-198.838 L 455.283,-199.249 L 455.43,-199.677 L 455.564,-200.124 L 455.683,-200.588
 L 455.788,-201.07 L 455.879,-201.569 L 455.957,-202.087 L 456.02,-202.622 L 456.069,-203.175 L 456.104,-203.746
 L 456.125,-204.335 L 456.132,-204.941 L 456.126,-205.524 L 456.107,-206.088 L 456.074,-206.633 L 456.03,-207.16
 L 455.972,-207.668 L 455.901,-208.158 L 455.818,-208.629 L 455.722,-209.081 L 455.613,-209.515 L 455.491,-209.931
 L 455.356,-210.328 L 455.209,-210.706 L 455.049,-211.066 L 454.876,-211.407 L 454.69,-211.73 L 454.491,-212.034
 L 454.28,-212.32 L 454.057,-212.588 L 453.821,-212.836 L 453.574,-213.067 L 453.314,-213.279 L 453.043,-213.473
 L 452.759,-213.648 L 452.463,-213.804 L 452.156,-213.943 L 451.836,-214.063 L 451.504,-214.164 L 451.16,-214.247
 L 450.804,-214.311 L 450.435,-214.358 L 450.055,-214.385 L 449.663,-214.394 L 449.293,-214.388 L 448.934,-214.368
 L 448.585,-214.334 L 448.246,-214.287 L 447.918,-214.227 L 447.6,-214.153 L 447.292,-214.066 L 446.994,-213.965
 L 446.707,-213.852 L 446.43,-213.724 L 446.163,-213.583 L 445.907,-213.429 L 445.661,-213.262 L 445.425,-213.081
 L 445.199,-212.886 L 444.984,-212.679 L 444.78,-212.459 L 444.59,-212.23 L 444.412,-211.99 L 444.248,-211.741
 L 444.097,-211.481 L 443.959,-211.212 L 443.834,-210.932 L 443.722,-210.643 L 443.624,-210.343 L 443.538,-210.033
 L 443.466,-209.714 L 443.407,-209.384 L 443.361,-209.045 L 443.328,-208.695 L 443.309,-208.335 L 443.302,-207.966
 L 443.308,-207.606 L 443.326,-207.255 L 443.356,-206.913 L 443.399,-206.58 L 443.453,-206.256 L 443.519,-205.941
 L 443.598,-205.635 L 443.688,-205.338 L 443.791,-205.05 L 443.906,-204.771 L 444.033,-204.501 L 444.172,-204.24
 L 444.323,-203.988 L 444.486,-203.745 L 444.661,-203.511 L 444.848,-203.287 L 445.045,-203.073 L 445.251,-202.873
 L 445.464,-202.687 L 445.686,-202.515 L 445.915,-202.357 L 446.153,-202.212 L 446.398,-202.081 L 446.652,-201.964
 L 446.914,-201.861 L 447.183,-201.772 L 447.461,-201.696 L 447.747,-201.634 L 448.041,-201.586 L 448.343,-201.551
 L 448.653,-201.53 L 448.971,-201.524 L 449.167,-201.526 L 449.36,-201.535 L 449.552,-201.55 L 449.742,-201.57
 L 449.929,-201.596 L 450.115,-201.628 L 450.298,-201.665 L 450.48,-201.708 L 450.66,-201.757 L 450.837,-201.812
 L 451.013,-201.873 L 451.186,-201.939 L 451.358,-202.011 L 451.527,-202.089 L 451.695,-202.173 L 451.86,-202.263
 L 452.021,-202.357 L 452.177,-202.455 L 452.326,-202.557 L 452.469,-202.662 L 452.607,-202.772 L 452.738,-202.885
 L 452.863,-203.002 L 452.982,-203.122 L 453.095,-203.247 L 453.202,-203.375 L 453.303,-203.507 L 453.398,-203.642
 L 453.487,-203.782 L 453.57,-203.925 L 453.647,-204.072 L 453.718,-204.223 L 453.707,-203.776 L 453.687,-203.343
 L 453.659,-202.923 L 453.622,-202.516 L 453.577,-202.122 L 453.523,-201.741 L 453.46,-201.373 L 453.389,-201.018
 L 453.309,-200.677 L 453.221,-200.348 L 453.124,-200.032 L 453.019,-199.729 L 452.905,-199.439 L 452.782,-199.163
 L 452.651,-198.899 L 452.511,-198.648 L 452.363,-198.412 L 452.208,-198.191 L 452.045,-197.985 L 451.875,-197.794
 L 451.698,-197.618 L 451.513,-197.458 L 451.321,-197.313 L 451.121,-197.184 L 450.914,-197.069 L 450.699,-196.97
 L 450.477,-196.886 L 450.248,-196.817 L 450.011,-196.764 L 449.767,-196.726 L 449.515,-196.703 L 449.256,-196.695
 L 448.951,-196.705 L 448.66,-196.733 L 448.382,-196.779 L 448.118,-196.845 L 447.868,-196.928 L 447.632,-197.031
 L 447.41,-197.152 L 447.201,-197.292 L 447.006,-197.451 L 446.825,-197.628 L 446.658,-197.824 L 446.504,-198.038
 L 446.365,-198.271 L 446.239,-198.523 L 446.126,-198.793 L 446.028,-199.082 L 443.695,-198.716 L 443.771,-198.458
 L 443.853,-198.209 L 443.941,-197.969 L 444.035,-197.738 L 444.135,-197.516 L 444.241,-197.303 L 444.352,-197.099
 L 444.47,-196.904 L 444.594,-196.718 L 444.724,-196.541 L 444.859,-196.374 L 445.001,-196.215 L 445.149,-196.066
 L 445.303,-195.925 L 445.462,-195.794 L 445.628,-195.671 L 445.8,-195.557 L 445.979,-195.45 L 446.165,-195.351
 L 446.358,-195.259 L 446.558,-195.174 L 446.765,-195.097 L 446.979,-195.027 L 447.199,-194.964 L 447.427,-194.909
 L 447.662,-194.861 L 447.903,-194.821 L 448.152,-194.788 L 448.407,-194.762 L 448.67,-194.744 L 448.939,-194.732
 L 449.215,-194.729 z
M 449.34,-203.454 L 449.132,-203.468 L 448.929,-203.492 L 448.731,-203.525 L 448.54,-203.568 L 448.353,-203.62
 L 448.173,-203.682 L 447.998,-203.753 L 447.829,-203.833 L 447.665,-203.924 L 447.507,-204.023 L 447.355,-204.132
 L 447.208,-204.251 L 447.067,-204.379 L 446.931,-204.516 L 446.801,-204.663 L 446.678,-204.818 L 446.563,-204.98
 L 446.456,-205.149 L 446.356,-205.325 L 446.265,-205.507 L 446.181,-205.697 L 446.106,-205.893 L 446.038,-206.096
 L 445.979,-206.306 L 445.927,-206.522 L 445.883,-206.746 L 445.848,-206.976 L 445.82,-207.213 L 445.8,-207.457
 L 445.788,-207.708 L 445.784,-207.966 L 445.788,-208.218 L 445.8,-208.464 L 445.82,-208.704 L 445.848,-208.937
 L 445.883,-209.163 L 445.927,-209.382 L 445.979,-209.595 L 446.038,-209.802 L 446.106,-210.001 L 446.181,-210.194
 L 446.265,-210.381 L 446.356,-210.561 L 446.456,-210.734 L 446.563,-210.9 L 446.678,-211.06 L 446.801,-211.214
 L 446.931,-211.359 L 447.067,-211.495 L 447.209,-211.622 L 447.356,-211.739 L 447.51,-211.847 L 447.669,-211.945
 L 447.834,-212.034 L 448.005,-212.114 L 448.182,-212.184 L 448.364,-212.245 L 448.552,-212.297 L 448.747,-212.339
 L 448.946,-212.372 L 449.152,-212.395 L 449.364,-212.41 L 449.581,-212.414 L 449.801,-212.409 L 450.014,-212.392
 L 450.222,-212.365 L 450.425,-212.326 L 450.622,-212.277 L 450.813,-212.217 L 450.998,-212.145 L 451.178,-212.063
 L 451.353,-211.97 L 451.522,-211.866 L 451.685,-211.751 L 451.842,-211.625 L 451.994,-211.487 L 452.14,-211.339
 L 452.281,-211.18 L 452.416,-211.01 L 452.544,-210.831 L 452.664,-210.645 L 452.775,-210.452 L 452.879,-210.252
 L 452.974,-210.045 L 453.061,-209.831 L 453.139,-209.61 L 453.209,-209.381 L 453.271,-209.146 L 453.325,-208.904
 L 453.37,-208.654 L 453.408,-208.398 L 453.437,-208.134 L 453.457,-207.863 L 453.47,-207.586 L 453.474,-207.301
 L 453.472,-207.161 L 453.466,-207.024 L 453.455,-206.888 L 453.441,-206.754 L 453.423,-206.622 L 453.4,-206.491
 L 453.374,-206.363 L 453.343,-206.237 L 453.309,-206.112 L 453.27,-205.99 L 453.227,-205.869 L 453.18,-205.75
 L 453.129,-205.633 L 453.074,-205.518 L 453.015,-205.405 L 452.952,-205.294 L 452.885,-205.185 L 452.815,-205.08
 L 452.742,-204.977 L 452.666,-204.878 L 452.588,-204.782 L 452.506,-204.689 L 452.421,-204.599 L 452.333,-204.512
 L 452.242,-204.429 L 452.148,-204.348 L 452.051,-204.271 L 451.951,-204.197 L 451.848,-204.125 L 451.742,-204.057
 L 451.633,-203.993 L 451.521,-203.931 L 451.407,-203.872 L 451.291,-203.818 L 451.175,-203.767 L 451.057,-203.72
 L 450.938,-203.677 L 450.818,-203.637 L 450.697,-203.602 L 450.575,-203.57 L 450.451,-203.542 L 450.327,-203.517
 L 450.201,-203.496 L 450.074,-203.479 L 449.946,-203.466 L 449.817,-203.457 L 449.686,-203.451 L 449.554,-203.449
 z
M 484.122,-199.326 L 486.807,-199.326 L 486.807,-201.252 L 484.122,-201.252 L 484.122,-214.11 L 481.558,-214.11
 L 472.81,-201.225 L 472.81,-199.326 L 481.816,-199.326 L 481.816,-195 L 484.122,-195 z
M 475.062,-201.252 L 475.279,-201.524 L 476.011,-202.527 L 480.907,-209.742 L 480.93,-209.776 L 480.954,-209.813
 L 480.98,-209.852 L 481.006,-209.895 L 481.035,-209.941 L 481.064,-209.989 L 481.095,-210.041 L 481.128,-210.095
 L 481.161,-210.153 L 481.197,-210.213 L 481.233,-210.276 L 481.271,-210.343 L 481.31,-210.412 L 481.351,-210.484
 L 481.393,-210.559 L 481.436,-210.638 L 481.479,-210.715 L 481.519,-210.788 L 481.557,-210.857 L 481.592,-210.922
 L 481.625,-210.982 L 481.655,-211.037 L 481.682,-211.089 L 481.707,-211.136 L 481.73,-211.179 L 481.75,-211.217
 L 481.767,-211.251 L 481.782,-211.281 L 481.794,-211.306 L 481.804,-211.327 L 481.811,-211.344 L 481.816,-211.356
 L 481.816,-201.252 z
M 1,-180 L 924,-180 L 924,-100 L 925,-100 L 925,-180 L 944,-180
 L 944,-181 L 925,-181 L 925,-200 L 924,-200 L 924,-181 L 1,-181
 L 1,-200 L 0,-200 L 0,-181 L -20,-181 L -20,-180 L 0,-180
 L 0,-100 L 1,-100 z
M 1055,61 L 1074,61 L 1074,60 L 1055,60 L 1055,1 L 1074,1
 L 1074,-0 L 1055,-0 L 1055,-20 L 1054,-20 L 1054,-0 L 974,-0
 L 974,1 L 1054,1 L 1054,60 L 974,60 L 974,61 L 1054,61
 L 1054,80 L 1055,80 z
M 924,-0 L 0,-0 L 0,60 L 924,60 z
M 1075.6,29.2209 L 1075.93,29.2027 L 1076.26,29.1724 L 1076.58,29.1299 L 1076.89,29.0753 L 1077.19,29.0086
 L 1077.48,28.9297 L 1077.76,28.8387 L 1078.03,28.7356 L 1078.3,28.6203 L 1078.56,28.493 L 1078.8,28.3534
 L 1079.04,28.2018 L 1079.27,28.038 L 1079.49,27.862 L 1079.7,27.674 L 1079.9,27.4756 L 1080.09,27.2687
 L 1080.26,27.0533 L 1080.42,26.8294 L 1080.57,26.5969 L 1080.71,26.3559 L 1080.83,26.1063 L 1080.94,25.8482
 L 1081.04,25.5816 L 1081.12,25.3065 L 1081.19,25.0228 L 1081.25,24.7307 L 1081.3,24.4299 L 1081.33,24.1207
 L 1081.35,23.8029 L 1081.36,23.4766 L 1081.35,23.283 L 1081.35,23.0921 L 1081.33,22.9041 L 1081.32,22.7188
 L 1081.29,22.5362 L 1081.26,22.3564 L 1081.23,22.1793 L 1081.19,22.005 L 1081.15,21.8335 L 1081.1,21.6647
 L 1081.05,21.4986 L 1080.99,21.3353 L 1080.93,21.1748 L 1080.86,21.0171 L 1080.79,20.862 L 1080.71,20.7098
 L 1080.63,20.561 L 1080.54,20.4165 L 1080.45,20.2762 L 1080.35,20.1402 L 1080.25,20.0084 L 1080.15,19.8808
 L 1080.03,19.7575 L 1079.92,19.6384 L 1079.8,19.5235 L 1079.68,19.4129 L 1079.55,19.3065 L 1079.41,19.2044
 L 1079.27,19.1065 L 1079.13,19.0128 L 1078.98,18.9234 L 1078.83,18.8382 L 1079.29,18.8427 L 1079.73,18.8561
 L 1080.15,18.8785 L 1080.57,18.9098 L 1080.97,18.9501 L 1081.35,18.9993 L 1081.73,19.0575 L 1082.09,19.1247
 L 1082.43,19.2008 L 1082.76,19.2858 L 1083.08,19.3799 L 1083.39,19.4828 L 1083.68,19.5947 L 1083.95,19.7156
 L 1084.22,19.8454 L 1084.47,19.9842 L 1084.7,20.1311 L 1084.92,20.2854 L 1085.13,20.4471 L 1085.32,20.6161
 L 1085.49,20.7925 L 1085.65,20.9762 L 1085.8,21.1674 L 1085.93,21.3658 L 1086.04,21.5717 L 1086.14,21.7849
 L 1086.22,22.0055 L 1086.29,22.2334 L 1086.35,22.4687 L 1086.38,22.7114 L 1086.41,22.9614 L 1086.41,23.2188
 L 1086.41,23.5156 L 1086.38,23.799 L 1086.33,24.0691 L 1086.27,24.3259 L 1086.19,24.5693 L 1086.09,24.7993
 L 1085.97,25.016 L 1085.83,25.2193 L 1085.68,25.4093 L 1085.5,25.586 L 1085.31,25.7493 L 1085.1,25.8992
 L 1084.87,26.0358 L 1084.63,26.159 L 1084.36,26.2689 L 1084.08,26.3654 L 1084.5,28.6982 L 1084.97,28.545
 L 1085.41,28.3667 L 1085.82,28.1635 L 1086.2,27.9353 L 1086.55,27.682 L 1086.87,27.4038 L 1087.16,27.1005
 L 1087.42,26.7722 L 1087.65,26.419 L 1087.85,26.0407 L 1088.01,25.6374 L 1088.15,25.2092 L 1088.26,24.7559
 L 1088.33,24.2776 L 1088.38,23.7743 L 1088.39,23.246 L 1088.38,22.8416 L 1088.35,22.449 L 1088.3,22.0681
 L 1088.23,21.699 L 1088.13,21.3416 L 1088.02,20.9961 L 1087.89,20.6622 L 1087.73,20.3402 L 1087.55,20.0299
 L 1087.36,19.7314 L 1087.14,19.4446 L 1086.9,19.1696 L 1086.64,18.9063 L 1086.36,18.6549 L 1086.06,18.4151
 L 1085.74,18.1872 L 1085.39,17.9721 L 1085.04,17.7708 L 1084.66,17.5834 L 1084.26,17.4099 L 1083.85,17.2503
 L 1083.42,17.1046 L 1082.97,16.9727 L 1082.5,16.8547 L 1082.02,16.7506 L 1081.51,16.6604 L 1080.99,16.5841
 L 1080.45,16.5216 L 1079.89,16.4731 L 1079.32,16.4384 L 1078.73,16.4175 L 1078.11,16.4106 L 1077.55,16.4173
 L 1077,16.4373 L 1076.47,16.4707 L 1075.96,16.5174 L 1075.46,16.5775 L 1074.98,16.6509 L 1074.52,16.7377
 L 1074.08,16.8378 L 1073.65,16.9513 L 1073.24,17.0781 L 1072.84,17.2183 L 1072.47,17.3718 L 1072.11,17.5387
 L 1071.76,17.7189 L 1071.44,17.9125 L 1071.13,18.1194 L 1070.84,18.3389 L 1070.57,18.5703 L 1070.31,18.8136
 L 1070.08,19.0687 L 1069.86,19.3358 L 1069.67,19.6146 L 1069.49,19.9054 L 1069.33,20.208 L 1069.19,20.5225
 L 1069.07,20.8488 L 1068.96,21.1871 L 1068.88,21.5371 L 1068.81,21.8991 L 1068.77,22.2729 L 1068.74,22.6586
 L 1068.73,23.0562 L 1068.74,23.4124 L 1068.76,23.7589 L 1068.79,24.0956 L 1068.84,24.4226 L 1068.9,24.7398
 L 1068.97,25.0473 L 1069.06,25.3451 L 1069.17,25.633 L 1069.28,25.9113 L 1069.41,26.1798 L 1069.56,26.4385
 L 1069.71,26.6875 L 1069.88,26.9267 L 1070.07,27.1562 L 1070.27,27.376 L 1070.48,27.586 L 1070.7,27.7847
 L 1070.94,27.9706 L 1071.18,28.1437 L 1071.43,28.3039 L 1071.7,28.4514 L 1071.97,28.586 L 1072.25,28.7078
 L 1072.55,28.8167 L 1072.85,28.9129 L 1073.16,28.9962 L 1073.49,29.0667 L 1073.82,29.1244 L 1074.16,29.1693
 L 1074.52,29.2014 L 1074.88,29.2206 L 1075.25,29.227 z
M 1074.89,26.7413 L 1074.64,26.7295 L 1074.4,26.7099 L 1074.16,26.6824 L 1073.93,26.6472 L 1073.71,26.604
 L 1073.5,26.5531 L 1073.29,26.4942 L 1073.09,26.4276 L 1072.9,26.3531 L 1072.71,26.2707 L 1072.53,26.1806
 L 1072.36,26.0825 L 1072.19,25.9767 L 1072.03,25.8629 L 1071.88,25.7414 L 1071.74,25.613 L 1071.6,25.4786
 L 1071.48,25.3383 L 1071.36,25.1921 L 1071.26,25.04 L 1071.16,24.8819 L 1071.07,24.7179 L 1070.99,24.5479
 L 1070.92,24.3721 L 1070.86,24.1902 L 1070.81,24.0025 L 1070.77,23.8088 L 1070.74,23.6092 L 1070.71,23.4037
 L 1070.7,23.1922 L 1070.7,22.9748 L 1070.7,22.7636 L 1070.72,22.5572 L 1070.74,22.3556 L 1070.78,22.1589
 L 1070.83,21.9669 L 1070.89,21.7798 L 1070.97,21.5975 L 1071.05,21.4201 L 1071.14,21.2475 L 1071.25,21.0796
 L 1071.36,20.9166 L 1071.49,20.7585 L 1071.63,20.6051 L 1071.78,20.4566 L 1071.93,20.3129 L 1072.11,20.174
 L 1072.29,20.0418 L 1072.47,19.9182 L 1072.66,19.803 L 1072.86,19.6964 L 1073.07,19.5983 L 1073.28,19.5088
 L 1073.49,19.4278 L 1073.72,19.3553 L 1073.95,19.2913 L 1074.18,19.2359 L 1074.42,19.189 L 1074.67,19.1506
 L 1074.93,19.1208 L 1075.19,19.0994 L 1075.45,19.0867 L 1075.73,19.0824 L 1075.94,19.0865 L 1076.15,19.0988
 L 1076.36,19.1193 L 1076.55,19.1481 L 1076.75,19.185 L 1076.93,19.2302 L 1077.11,19.2836 L 1077.29,19.3451
 L 1077.46,19.4149 L 1077.62,19.4929 L 1077.78,19.5791 L 1077.93,19.6736 L 1078.07,19.7762 L 1078.21,19.8871
 L 1078.35,20.0061 L 1078.47,20.1334 L 1078.59,20.2674 L 1078.71,20.4065 L 1078.81,20.5507 L 1078.91,20.7001
 L 1079,20.8546 L 1079.08,21.0143 L 1079.15,21.1791 L 1079.22,21.349 L 1079.28,21.5241 L 1079.33,21.7043
 L 1079.37,21.8896 L 1079.41,22.0801 L 1079.44,22.2757 L 1079.45,22.4765 L 1079.47,22.6824 L 1079.47,22.8934
 L 1079.47,23.1174 L 1079.45,23.3352 L 1079.43,23.5468 L 1079.4,23.7521 L 1079.36,23.9511 L 1079.31,24.1439
 L 1079.25,24.3305 L 1079.19,24.5107 L 1079.11,24.6848 L 1079.03,24.8526 L 1078.94,25.0141 L 1078.84,25.1694
 L 1078.73,25.3184 L 1078.61,25.4612 L 1078.48,25.5977 L 1078.34,25.728 L 1078.2,25.8512 L 1078.05,25.9664
 L 1077.89,26.0737 L 1077.72,26.173 L 1077.55,26.2644 L 1077.37,26.3479 L 1077.18,26.4233 L 1076.98,26.4909
 L 1076.78,26.5505 L 1076.57,26.6021 L 1076.35,26.6459 L 1076.12,26.6816 L 1075.89,26.7094 L 1075.65,26.7293
 L 1075.4,26.7412 L 1075.14,26.7452 z
M 1079.16,44.4428 L 1079.74,44.424 L 1080.3,44.3926 L 1080.85,44.3487 L 1081.37,44.2922 L 1081.88,44.2231
 L 1082.37,44.1415 L 1082.83,44.0473 L 1083.28,43.9406 L 1083.72,43.8213 L 1084.13,43.6895 L 1084.52,43.5451
 L 1084.9,43.3881 L 1085.25,43.2186 L 1085.59,43.0365 L 1085.91,42.8419 L 1086.21,42.6341 L 1086.49,42.4125
 L 1086.76,42.1771 L 1087,41.9278 L 1087.22,41.6647 L 1087.42,41.3878 L 1087.61,41.097 L 1087.77,40.7924
 L 1087.92,40.474 L 1088.05,40.1418 L 1088.15,39.7957 L 1088.24,39.4358 L 1088.31,39.0621 L 1088.36,38.6745
 L 1088.38,38.2731 L 1088.39,37.8579 L 1088.38,37.4312 L 1088.36,37.0191 L 1088.31,36.6215 L 1088.24,36.2385
 L 1088.15,35.87 L 1088.05,35.5162 L 1087.92,35.1768 L 1087.78,34.8521 L 1087.62,34.5419 L 1087.44,34.2464
 L 1087.23,33.9653 L 1087.01,33.6989 L 1086.77,33.447 L 1086.51,33.2097 L 1086.24,32.9869 L 1085.94,32.7787
 L 1085.62,32.5841 L 1085.29,32.402 L 1084.93,32.2325 L 1084.56,32.0756 L 1084.16,31.9312 L 1083.75,31.7993
 L 1083.32,31.68 L 1082.87,31.5733 L 1082.4,31.4791 L 1081.91,31.3975 L 1081.4,31.3285 L 1080.87,31.272
 L 1080.32,31.228 L 1079.75,31.1966 L 1079.17,31.1778 L 1078.56,31.1715 L 1077.97,31.178 L 1077.39,31.1974
 L 1076.84,31.2297 L 1076.3,31.2749 L 1075.78,31.3331 L 1075.27,31.4042 L 1074.79,31.4882 L 1074.32,31.5852
 L 1073.87,31.695 L 1073.44,31.8178 L 1073.03,31.9536 L 1072.64,32.1022 L 1072.26,32.2638 L 1071.9,32.4383
 L 1071.56,32.6257 L 1071.24,32.8261 L 1070.93,33.0394 L 1070.65,33.2654 L 1070.39,33.5043 L 1070.14,33.756
 L 1069.91,34.0205 L 1069.71,34.2979 L 1069.52,34.588 L 1069.36,34.891 L 1069.21,35.2068 L 1069.08,35.5355
 L 1068.97,35.8769 L 1068.89,36.2312 L 1068.82,36.5983 L 1068.77,36.9782 L 1068.74,37.371 L 1068.73,37.7765
 L 1068.74,38.1822 L 1068.77,38.5753 L 1068.82,38.9559 L 1068.89,39.3239 L 1068.98,39.6793 L 1069.08,40.0222
 L 1069.21,40.3525 L 1069.36,40.6703 L 1069.53,40.9755 L 1069.71,41.2682 L 1069.92,41.5483 L 1070.15,41.8159
 L 1070.39,42.0709 L 1070.66,42.3133 L 1070.95,42.5432 L 1071.25,42.7605 L 1071.58,42.965 L 1071.92,43.1563
 L 1072.28,43.3344 L 1072.65,43.4993 L 1073.05,43.651 L 1073.46,43.7895 L 1073.89,43.9148 L 1074.34,44.027
 L 1074.81,44.1259 L 1075.29,44.2117 L 1075.79,44.2842 L 1076.31,44.3436 L 1076.85,44.3898 L 1077.4,44.4227
 L 1077.97,44.4425 L 1078.56,44.4491 z
M 1078.07,41.9634 L 1077.6,41.9516 L 1077.14,41.932 L 1076.7,41.9046 L 1076.27,41.8693 L 1075.86,41.8262
 L 1075.47,41.7752 L 1075.09,41.7164 L 1074.73,41.6498 L 1074.38,41.5753 L 1074.05,41.493 L 1073.74,41.4028
 L 1073.44,41.3048 L 1073.16,41.1989 L 1072.9,41.0853 L 1072.65,40.9637 L 1072.41,40.8338 L 1072.2,40.6948
 L 1071.99,40.5468 L 1071.81,40.3898 L 1071.63,40.2239 L 1071.47,40.0489 L 1071.33,39.8649 L 1071.2,39.6719
 L 1071.09,39.4698 L 1070.99,39.2588 L 1070.91,39.0388 L 1070.84,38.8098 L 1070.79,38.5717 L 1070.75,38.3246
 L 1070.73,38.0686 L 1070.72,37.8035 L 1070.73,37.5368 L 1070.75,37.2793 L 1070.79,37.031 L 1070.84,36.7918
 L 1070.91,36.5618 L 1070.99,36.341 L 1071.08,36.1293 L 1071.19,35.9268 L 1071.32,35.7335 L 1071.46,35.5493
 L 1071.61,35.3743 L 1071.78,35.2084 L 1071.97,35.0518 L 1072.17,34.9043 L 1072.38,34.7659 L 1072.61,34.6367
 L 1072.85,34.516 L 1073.11,34.4031 L 1073.39,34.298 L 1073.69,34.2006 L 1074,34.1111 L 1074.33,34.0293
 L 1074.68,33.9553 L 1075.04,33.8891 L 1075.42,33.8307 L 1075.82,33.7801 L 1076.23,33.7373 L 1076.66,33.7022
 L 1077.11,33.675 L 1077.58,33.6555 L 1078.06,33.6438 L 1078.56,33.6399 L 1079.08,33.6438 L 1079.57,33.6553
 L 1080.05,33.6745 L 1080.51,33.7014 L 1080.95,33.7359 L 1081.37,33.7782 L 1081.78,33.8281 L 1082.16,33.8857
 L 1082.53,33.951 L 1082.88,34.024 L 1083.21,34.1046 L 1083.52,34.193 L 1083.81,34.289 L 1084.09,34.3927
 L 1084.35,34.5041 L 1084.58,34.6231 L 1084.8,34.751 L 1085.01,34.8888 L 1085.21,35.0365 L 1085.38,35.1941
 L 1085.55,35.3616 L 1085.7,35.539 L 1085.83,35.7263 L 1085.96,35.9235 L 1086.06,36.1306 L 1086.16,36.3477
 L 1086.24,36.5746 L 1086.3,36.8115 L 1086.35,37.0582 L 1086.39,37.3149 L 1086.41,37.5815 L 1086.41,37.8579
 L 1086.41,38.1277 L 1086.39,38.3878 L 1086.35,38.6382 L 1086.3,38.8789 L 1086.23,39.1099 L 1086.15,39.3312
 L 1086.06,39.5428 L 1085.95,39.7447 L 1085.83,39.937 L 1085.69,40.1195 L 1085.54,40.2923 L 1085.37,40.4555
 L 1085.19,40.6089 L 1084.99,40.7527 L 1084.78,40.8867 L 1084.56,41.0111 L 1084.32,41.1269 L 1084.06,41.2352
 L 1083.78,41.3361 L 1083.48,41.4295 L 1083.17,41.5154 L 1082.84,41.5938 L 1082.49,41.6648 L 1082.13,41.7283
 L 1081.74,41.7843 L 1081.34,41.8329 L 1080.92,41.8739 L 1080.49,41.9075 L 1080.03,41.9337 L 1079.56,41.9524
 L 1079.07,41.9636 L 1078.56,41.9673 z
" stroke="black" fill="lightgray" stroke-width="0.5"/>
</svg>
