<?xml version="1.0" standalone="no"?>
<!DOCTYPE svg PUBLIC "-//W3C//DTD SVG 1.1//EN" "http://www.w3.org/Graphics/SVG/1.1/DTD/svg11.dtd">
<svg width="245mm" height="245mm" viewBox="-20 -165 245 245" xmlns="http://www.w3.org/2000/svg" version="1.1">
<title>OpenSCAD Model</title>
<path d="
M 23.4124,-144.736 L 23.7589,-144.756 L 24.0956,-144.79 L 24.4226,-144.838 L 24.7398,-144.9 L 25.0473,-144.975
 L 25.3451,-145.064 L 25.633,-145.166 L 25.9113,-145.282 L 26.1798,-145.412 L 26.4385,-145.556 L 26.6875,-145.713
 L 26.9267,-145.884 L 27.1562,-146.068 L 27.376,-146.266 L 27.586,-146.478 L 27.7847,-146.702 L 27.9706,-146.936
 L 28.1437,-147.179 L 28.3039,-147.433 L 28.4514,-147.696 L 28.586,-147.97 L 28.7078,-148.253 L 28.8167,-148.547
 L 28.9129,-148.85 L 28.9962,-149.163 L 29.0667,-149.487 L 29.1244,-149.82 L 29.1693,-150.163 L 29.2014,-150.516
 L 29.2206,-150.879 L 29.227,-151.252 L 29.2209,-151.597 L 29.2027,-151.933 L 29.1724,-152.26 L 29.1299,-152.578
 L 29.0753,-152.887 L 29.0086,-153.188 L 28.9297,-153.479 L 28.8387,-153.761 L 28.7356,-154.035 L 28.6203,-154.3
 L 28.493,-154.555 L 28.3534,-154.802 L 28.2018,-155.04 L 28.038,-155.269 L 27.862,-155.49 L 27.674,-155.701
 L 27.4756,-155.901 L 27.2687,-156.089 L 27.0533,-156.263 L 26.8294,-156.425 L 26.5969,-156.573 L 26.3559,-156.709
 L 26.1063,-156.832 L 25.8482,-156.942 L 25.5816,-157.039 L 25.3065,-157.123 L 25.0228,-157.194 L 24.7307,-157.252
 L 24.4299,-157.297 L 24.1207,-157.33 L 23.8029,-157.349 L 23.4766,-157.355 L 23.283,-157.353 L 23.0921,-157.345
 L 22.9041,-157.333 L 22.7188,-157.315 L 22.5362,-157.292 L 22.3564,-157.265 L 22.1793,-157.232 L 22.005,-157.194
 L 21.8335,-157.152 L 21.6647,-157.104 L 21.4986,-157.051 L 21.3353,-156.993 L 21.1748,-156.93 L 21.0171,-156.862
 L 20.862,-156.789 L 20.7098,-156.711 L 20.561,-156.628 L 20.4165,-156.541 L 20.2762,-156.449 L 20.1402,-156.352
 L 20.0084,-156.251 L 19.8808,-156.145 L 19.7575,-156.035 L 19.6384,-155.919 L 19.5235,-155.8 L 19.4129,-155.675
 L 19.3065,-155.547 L 19.2044,-155.413 L 19.1065,-155.275 L 19.0128,-155.132 L 18.9234,-154.985 L 18.8382,-154.833
 L 18.8427,-155.287 L 18.8561,-155.728 L 18.8785,-156.155 L 18.9098,-156.568 L 18.9501,-156.968 L 18.9993,-157.354
 L 19.0575,-157.727 L 19.1247,-158.086 L 19.2008,-158.431 L 19.2858,-158.763 L 19.3799,-159.081 L 19.4828,-159.386
 L 19.5947,-159.677 L 19.7156,-159.954 L 19.8454,-160.218 L 19.9842,-160.468 L 20.1311,-160.704 L 20.2854,-160.924
 L 20.4471,-161.129 L 20.6161,-161.319 L 20.7925,-161.494 L 20.9762,-161.654 L 21.1674,-161.798 L 21.3658,-161.928
 L 21.5717,-162.042 L 21.7849,-162.141 L 22.0055,-162.224 L 22.2334,-162.293 L 22.4687,-162.346 L 22.7114,-162.384
 L 22.9614,-162.407 L 23.2188,-162.414 L 23.5156,-162.405 L 23.799,-162.378 L 24.0691,-162.332 L 24.3259,-162.268
 L 24.5693,-162.186 L 24.7993,-162.086 L 25.016,-161.968 L 25.2193,-161.831 L 25.4093,-161.676 L 25.586,-161.503
 L 25.7493,-161.312 L 25.8992,-161.102 L 26.0358,-160.874 L 26.159,-160.628 L 26.2689,-160.364 L 26.3654,-160.082
 L 28.6982,-160.502 L 28.545,-160.973 L 28.3667,-161.414 L 28.1635,-161.825 L 27.9353,-162.205 L 27.682,-162.555
 L 27.4038,-162.874 L 27.1005,-163.163 L 26.7722,-163.421 L 26.419,-163.649 L 26.0407,-163.847 L 25.6374,-164.014
 L 25.2092,-164.151 L 24.7559,-164.258 L 24.2776,-164.334 L 23.7743,-164.379 L 23.246,-164.394 L 22.8416,-164.384
 L 22.449,-164.353 L 22.0681,-164.301 L 21.699,-164.228 L 21.3416,-164.135 L 20.9961,-164.021 L 20.6622,-163.886
 L 20.3402,-163.73 L 20.0299,-163.553 L 19.7314,-163.356 L 19.4446,-163.138 L 19.1696,-162.899 L 18.9063,-162.639
 L 18.6549,-162.359 L 18.4151,-162.058 L 18.1872,-161.736 L 17.9721,-161.395 L 17.7708,-161.035 L 17.5834,-160.658
 L 17.4099,-160.263 L 17.2503,-159.849 L 17.1046,-159.418 L 16.9727,-158.969 L 16.8547,-158.501 L 16.7506,-158.016
 L 16.6604,-157.513 L 16.5841,-156.991 L 16.5216,-156.452 L 16.4731,-155.894 L 16.4384,-155.319 L 16.4175,-154.725
 L 16.4106,-154.114 L 16.4173,-153.549 L 16.4373,-153.002 L 16.4707,-152.472 L 16.5174,-151.958 L 16.5775,-151.462
 L 16.6509,-150.983 L 16.7377,-150.521 L 16.8378,-150.076 L 16.9513,-149.648 L 17.0781,-149.237 L 17.2183,-148.843
 L 17.3718,-148.466 L 17.5387,-148.106 L 17.7189,-147.763 L 17.9125,-147.438 L 18.1194,-147.129 L 18.3389,-146.839
 L 18.5703,-146.567 L 18.8136,-146.313 L 19.0687,-146.079 L 19.3358,-145.863 L 19.6146,-145.666 L 19.9054,-145.488
 L 20.208,-145.329 L 20.5225,-145.188 L 20.8488,-145.066 L 21.1871,-144.963 L 21.5371,-144.879 L 21.8991,-144.813
 L 22.2729,-144.766 L 22.6586,-144.738 L 23.0562,-144.729 z
M 22.7636,-146.701 L 22.5572,-146.717 L 22.3556,-146.745 L 22.1589,-146.784 L 21.9669,-146.833 L 21.7798,-146.894
 L 21.5975,-146.965 L 21.4201,-147.048 L 21.2475,-147.142 L 21.0796,-147.246 L 20.9166,-147.362 L 20.7585,-147.489
 L 20.6051,-147.626 L 20.4566,-147.775 L 20.3129,-147.935 L 20.174,-148.106 L 20.0418,-148.285 L 19.9182,-148.471
 L 19.803,-148.663 L 19.6964,-148.861 L 19.5983,-149.066 L 19.5088,-149.276 L 19.4278,-149.493 L 19.3553,-149.716
 L 19.2913,-149.946 L 19.2359,-150.182 L 19.189,-150.423 L 19.1506,-150.672 L 19.1208,-150.926 L 19.0994,-151.187
 L 19.0867,-151.454 L 19.0824,-151.727 L 19.0865,-151.943 L 19.0988,-152.153 L 19.1193,-152.357 L 19.1481,-152.555
 L 19.185,-152.747 L 19.2302,-152.933 L 19.2836,-153.114 L 19.3451,-153.288 L 19.4149,-153.457 L 19.4929,-153.62
 L 19.5791,-153.777 L 19.6736,-153.928 L 19.7762,-154.073 L 19.8871,-154.212 L 20.0061,-154.346 L 20.1334,-154.473
 L 20.2674,-154.594 L 20.4065,-154.707 L 20.5507,-154.812 L 20.7001,-154.909 L 20.8546,-154.999 L 21.0143,-155.081
 L 21.1791,-155.155 L 21.349,-155.221 L 21.5241,-155.279 L 21.7043,-155.33 L 21.8896,-155.373 L 22.0801,-155.408
 L 22.2757,-155.435 L 22.4765,-155.455 L 22.6824,-155.466 L 22.8934,-155.47 L 23.1174,-155.466 L 23.3352,-155.453
 L 23.5468,-155.431 L 23.7521,-155.4 L 23.9511,-155.36 L 24.1439,-155.312 L 24.3305,-155.255 L 24.5107,-155.189
 L 24.6848,-155.114 L 24.8526,-155.03 L 25.0141,-154.938 L 25.1694,-154.837 L 25.3184,-154.727 L 25.4612,-154.608
 L 25.5977,-154.481 L 25.728,-154.344 L 25.8512,-154.2 L 25.9664,-154.048 L 26.0737,-153.889 L 26.173,-153.722
 L 26.2644,-153.548 L 26.3479,-153.367 L 26.4233,-153.178 L 26.4909,-152.981 L 26.5505,-152.778 L 26.6021,-152.567
 L 26.6459,-152.348 L 26.6816,-152.122 L 26.7094,-151.889 L 26.7293,-151.648 L 26.7412,-151.399 L 26.7452,-151.144
 L 26.7413,-150.888 L 26.7295,-150.639 L 26.7099,-150.397 L 26.6824,-150.162 L 26.6472,-149.934 L 26.604,-149.712
 L 26.5531,-149.498 L 26.4942,-149.291 L 26.4276,-149.09 L 26.3531,-148.897 L 26.2707,-148.71 L 26.1806,-148.531
 L 26.0825,-148.358 L 25.9767,-148.193 L 25.8629,-148.034 L 25.7414,-147.882 L 25.613,-147.738 L 25.4786,-147.604
 L 25.3383,-147.479 L 25.1921,-147.363 L 25.04,-147.256 L 24.8819,-147.159 L 24.7179,-147.071 L 24.5479,-146.992
 L 24.3721,-146.923 L 24.1902,-146.862 L 24.0025,-146.811 L 23.8088,-146.77 L 23.6092,-146.737 L 23.4037,-146.714
 L 23.1922,-146.7 L 22.9748,-146.695 z
M 38.1822,-144.739 L 38.5753,-144.768 L 38.9559,-144.817 L 39.3239,-144.886 L 39.6793,-144.975 L 40.0222,-145.084
 L 40.3525,-145.212 L 40.6703,-145.359 L 40.9755,-145.527 L 41.2682,-145.714 L 41.5483,-145.921 L 41.8159,-146.148
 L 42.0709,-146.394 L 42.3133,-146.66 L 42.5432,-146.946 L 42.7605,-147.251 L 42.965,-147.576 L 43.1563,-147.917
 L 43.3344,-148.277 L 43.4993,-148.654 L 43.651,-149.049 L 43.7895,-149.462 L 43.9148,-149.892 L 44.027,-150.34
 L 44.1259,-150.806 L 44.2117,-151.289 L 44.2842,-151.791 L 44.3436,-152.309 L 44.3898,-152.846 L 44.4227,-153.4
 L 44.4425,-153.972 L 44.4491,-154.562 L 44.4428,-155.161 L 44.424,-155.742 L 44.3926,-156.304 L 44.3487,-156.847
 L 44.2922,-157.372 L 44.2231,-157.878 L 44.1415,-158.365 L 44.0473,-158.834 L 43.9406,-159.284 L 43.8213,-159.715
 L 43.6895,-160.128 L 43.5451,-160.522 L 43.3881,-160.898 L 43.2186,-161.255 L 43.0365,-161.593 L 42.8419,-161.912
 L 42.6341,-162.213 L 42.4125,-162.494 L 42.1771,-162.756 L 41.9278,-162.998 L 41.6647,-163.221 L 41.3878,-163.425
 L 41.097,-163.609 L 40.7924,-163.774 L 40.474,-163.919 L 40.1418,-164.045 L 39.7957,-164.152 L 39.4358,-164.239
 L 39.0621,-164.307 L 38.6745,-164.356 L 38.2731,-164.385 L 37.8579,-164.394 L 37.4312,-164.385 L 37.0191,-164.356
 L 36.6215,-164.308 L 36.2385,-164.241 L 35.87,-164.155 L 35.5162,-164.049 L 35.1768,-163.925 L 34.8521,-163.781
 L 34.5419,-163.618 L 34.2464,-163.435 L 33.9653,-163.234 L 33.6989,-163.014 L 33.447,-162.774 L 33.2097,-162.515
 L 32.9869,-162.237 L 32.7787,-161.94 L 32.5841,-161.623 L 32.402,-161.287 L 32.2325,-160.932 L 32.0756,-160.558
 L 31.9312,-160.164 L 31.7993,-159.751 L 31.68,-159.319 L 31.5733,-158.868 L 31.4791,-158.397 L 31.3975,-157.907
 L 31.3285,-157.398 L 31.272,-156.869 L 31.228,-156.321 L 31.1966,-155.754 L 31.1778,-155.167 L 31.1715,-154.562
 L 31.178,-153.969 L 31.1974,-153.394 L 31.2297,-152.837 L 31.2749,-152.298 L 31.3331,-151.778 L 31.4042,-151.275
 L 31.4882,-150.79 L 31.5852,-150.323 L 31.695,-149.875 L 31.8178,-149.444 L 31.9536,-149.031 L 32.1022,-148.636
 L 32.2638,-148.26 L 32.4383,-147.901 L 32.6257,-147.56 L 32.8261,-147.238 L 33.0394,-146.934 L 33.2654,-146.65
 L 33.5043,-146.385 L 33.756,-146.14 L 34.0205,-145.915 L 34.2979,-145.709 L 34.588,-145.523 L 34.891,-145.356
 L 35.2068,-145.209 L 35.5355,-145.082 L 35.8769,-144.974 L 36.2312,-144.886 L 36.5983,-144.817 L 36.9782,-144.768
 L 37.371,-144.739 L 37.7765,-144.729 z
M 37.5368,-146.73 L 37.2793,-146.752 L 37.031,-146.789 L 36.7918,-146.84 L 36.5618,-146.906 L 36.341,-146.988
 L 36.1293,-147.083 L 35.9268,-147.194 L 35.7335,-147.319 L 35.5493,-147.459 L 35.3743,-147.613 L 35.2084,-147.783
 L 35.0518,-147.967 L 34.9043,-148.166 L 34.7659,-148.379 L 34.6367,-148.608 L 34.516,-148.852 L 34.4031,-149.113
 L 34.298,-149.391 L 34.2006,-149.687 L 34.1111,-149.999 L 34.0293,-150.329 L 33.9553,-150.675 L 33.8891,-151.039
 L 33.8307,-151.419 L 33.7801,-151.817 L 33.7373,-152.232 L 33.7022,-152.664 L 33.675,-153.113 L 33.6555,-153.579
 L 33.6438,-154.062 L 33.6399,-154.562 L 33.6438,-155.076 L 33.6553,-155.572 L 33.6745,-156.05 L 33.7014,-156.509
 L 33.7359,-156.95 L 33.7782,-157.373 L 33.8281,-157.777 L 33.8857,-158.162 L 33.951,-158.53 L 34.024,-158.878
 L 34.1046,-159.208 L 34.193,-159.52 L 34.289,-159.814 L 34.3927,-160.089 L 34.5041,-160.345 L 34.6231,-160.583
 L 34.751,-160.805 L 34.8888,-161.012 L 35.0365,-161.205 L 35.1941,-161.384 L 35.3616,-161.549 L 35.539,-161.699
 L 35.7263,-161.835 L 35.9235,-161.956 L 36.1306,-162.064 L 36.3477,-162.157 L 36.5746,-162.235 L 36.8115,-162.3
 L 37.0582,-162.35 L 37.3149,-162.386 L 37.5815,-162.407 L 37.8579,-162.414 L 38.1277,-162.407 L 38.3878,-162.385
 L 38.6382,-162.349 L 38.8789,-162.298 L 39.1099,-162.233 L 39.3312,-162.153 L 39.5428,-162.059 L 39.7447,-161.95
 L 39.937,-161.826 L 40.1195,-161.688 L 40.2923,-161.536 L 40.4555,-161.369 L 40.6089,-161.188 L 40.7527,-160.992
 L 40.8867,-160.781 L 41.0111,-160.556 L 41.1269,-160.315 L 41.2352,-160.056 L 41.3361,-159.779 L 41.4295,-159.485
 L 41.5154,-159.172 L 41.5938,-158.842 L 41.6648,-158.494 L 41.7283,-158.129 L 41.7843,-157.745 L 41.8329,-157.344
 L 41.8739,-156.924 L 41.9075,-156.487 L 41.9337,-156.033 L 41.9524,-155.56 L 41.9636,-155.07 L 41.9673,-154.562
 L 41.9634,-154.071 L 41.9516,-153.597 L 41.932,-153.139 L 41.9046,-152.697 L 41.8693,-152.271 L 41.8262,-151.861
 L 41.7752,-151.467 L 41.7164,-151.09 L 41.6498,-150.728 L 41.5753,-150.383 L 41.493,-150.053 L 41.4028,-149.74
 L 41.3048,-149.443 L 41.1989,-149.162 L 41.0853,-148.897 L 40.9637,-148.648 L 40.8338,-148.415 L 40.6948,-148.197
 L 40.5468,-147.994 L 40.3898,-147.806 L 40.2239,-147.633 L 40.0489,-147.475 L 39.8649,-147.332 L 39.6719,-147.204
 L 39.4698,-147.091 L 39.2588,-146.993 L 39.0388,-146.91 L 38.8098,-146.843 L 38.5717,-146.79 L 38.3246,-146.752
 L 38.0686,-146.73 L 37.8035,-146.722 z
M 1,-130 L 60,-130 L 60,-50 L 61,-50 L 61,-130 L 80,-130
 L 80,-131 L 61,-131 L 61,-150 L 60,-150 L 60,-131 L 1,-131
 L 1,-150 L 0,-150 L 0,-131 L -20,-131 L -20,-130 L 0,-130
 L 0,-50 L 1,-50 z
M 191,61 L 210,61 L 210,60 L 191,60 L 191,1 L 210,1
 L 210,-0 L 191,-0 L 191,-20 L 190,-20 L 190,-0 L 110,-0
 L 110,1 L 190,1 L 190,60 L 110,60 L 110,61 L 190,61
 L 190,80 L 191,80 z
M 60,-0 L 0,-0 L 0,60 L 60,60 z
M 211.597,29.2209 L 211.933,29.2027 L 212.26,29.1724 L 212.578,29.1299 L 212.887,29.0753 L 213.188,29.0086
 L 213.479,28.9297 L 213.761,28.8387 L 214.035,28.7356 L 214.3,28.6203 L 214.555,28.493 L 214.802,28.3534
 L 215.04,28.2018 L 215.269,28.038 L 215.49,27.862 L 215.701,27.674 L 215.901,27.4756 L 216.089,27.2687
 L 216.263,27.0533 L 216.425,26.8294 L 216.573,26.5969 L 216.709,26.3559 L 216.832,26.1063 L 216.942,25.8482
 L 217.039,25.5816 L 217.123,25.3065 L 217.194,25.0228 L 217.252,24.7307 L 217.297,24.4299 L 217.33,24.1207
 L 217.349,23.8029 L 217.355,23.4766 L 217.353,23.283 L 217.345,23.0921 L 217.333,22.9041 L 217.315,22.7188
 L 217.292,22.5362 L 217.265,22.3564 L 217.232,22.1793 L 217.194,22.005 L 217.152,21.8335 L 217.104,21.6647
 L 217.051,21.4986 L 216.993,21.3353 L 216.93,21.1748 L 216.862,21.0171 L 216.789,20.862 L 216.711,20.7098
 L 216.628,20.561 L 216.541,20.4165 L 216.449,20.2762 L 216.352,20.1402 L 216.251,20.0084 L 216.145,19.8808
 L 216.035,19.7575 L 215.919,19.6384 L 215.8,19.5235 L 215.675,19.4129 L 215.547,19.3065 L 215.413,19.2044
 L 215.275,19.1065 L 215.132,19.0128 L 214.985,18.9234 L 214.833,18.8382 L 215.287,18.8427 L 215.728,18.8561
 L 216.155,18.8785 L 216.568,18.9098 L 216.968,18.9501 L 217.354,18.9993 L 217.727,19.0575 L 218.086,19.1247
 L 218.431,19.2008 L 218.763,19.2858 L 219.081,19.3799 L 219.386,19.4828 L 219.677,19.5947 L 219.954,19.7156
 L 220.218,19.8454 L 220.468,19.9842 L 220.704,20.1311 L 220.924,20.2854 L 221.129,20.4471 L 221.319,20.6161
 L 221.494,20.7925 L 221.654,20.9762 L 221.798,21.1674 L 221.928,21.3658 L 222.042,21.5717 L 222.141,21.7849
 L 222.224,22.0055 L 222.293,22.2334 L 222.346,22.4687 L 222.384,22.7114 L 222.407,22.9614 L 222.414,23.2188
 L 222.405,23.5156 L 222.378,23.799 L 222.332,24.0691 L 222.268,24.3259 L 222.186,24.5693 L 222.086,24.7993
 L 221.968,25.016 L 221.831,25.2193 L 221.676,25.4093 L 221.503,25.586 L 221.312,25.7493 L 221.102,25.8992
 L 220.874,26.0358 L 220.628,26.159 L 220.364,26.2689 L 220.082,26.3654 L 220.502,28.6982 L 220.973,28.545
 L 221.414,28.3667 L 221.825,28.1635 L 222.205,27.9353 L 222.555,27.682 L 222.874,27.4038 L 223.163,27.1005
 L 223.421,26.7722 L 223.649,26.419 L 223.847,26.0407 L 224.014,25.6374 L 224.151,25.2092 L 224.258,24.7559
 L 224.334,24.2776 L 224.379,23.7743 L 224.394,23.246 L 224.384,22.8416 L 224.353,22.449 L 224.301,22.0681
 L 224.228,21.699 L 224.135,21.3416 L 224.021,20.9961 L 223.886,20.6622 L 223.73,20.3402 L 223.553,20.0299
 L 223.356,19.7314 L 223.138,19.4446 L 222.899,19.1696 L 222.639,18.9063 L 222.359,18.6549 L 222.058,18.4151
 L 221.736,18.1872 L 221.395,17.9721 L 221.035,17.7708 L 220.658,17.5834 L 220.263,17.4099 L 219.849,17.2503
 L 219.418,17.1046 L 218.969,16.9727 L 218.501,16.8547 L 218.016,16.7506 L 217.513,16.6604 L 216.991,16.5841
 L 216.452,16.5216 L 215.894,16.4731 L 215.319,16.4384 L 214.725,16.4175 L 214.114,16.4106 L 213.549,16.4173
 L 213.002,16.4373 L 212.472,16.4707 L 211.958,16.5174 L 211.462,16.5775 L 210.983,16.6509 L 210.521,16.7377
 L 210.076,16.8378 L 209.648,16.9513 L 209.237,17.0781 L 208.843,17.2183 L 208.466,17.3718 L 208.106,17.5387
 L 207.763,17.7189 L 207.438,17.9125 L 207.129,18.1194 L 206.839,18.3389 L 206.567,18.5703 L 206.313,18.8136
 L 206.079,19.0687 L 205.863,19.3358 L 205.666,19.6146 L 205.488,19.9054 L 205.329,20.208 L 205.188,20.5225
 L 205.066,20.8488 L 204.963,21.1871 L 204.879,21.5371 L 204.813,21.8991 L 204.766,22.2729 L 204.738,22.6586
 L 204.729,23.0562 L 204.736,23.4124 L 204.756,23.7589 L 204.79,24.0956 L 204.838,24.4226 L 204.9,24.7398
 L 204.975,25.0473 L 205.064,25.3451 L 205.166,25.633 L 205.282,25.9113 L 205.412,26.1798 L 205.556,26.4385
 L 205.713,26.6875 L 205.884,26.9267 L 206.068,27.1562 L 206.266,27.376 L 206.478,27.586 L 206.702,27.7847
 L 206.936,27.9706 L 207.179,28.1437 L 207.433,28.3039 L 207.696,28.4514 L 207.97,28.586 L 208.253,28.7078
 L 208.547,28.8167 L 208.85,28.9129 L 209.163,28.9962 L 209.487,29.0667 L 209.82,29.1244 L 210.163,29.1693
 L 210.516,29.2014 L 210.879,29.2206 L 211.252,29.227 z
M 210.888,26.7413 L 210.639,26.7295 L 210.397,26.7099 L 210.162,26.6824 L 209.934,26.6472 L 209.712,26.604
 L 209.498,26.5531 L 209.291,26.4942 L 209.09,26.4276 L 208.897,26.3531 L 208.71,26.2707 L 208.531,26.1806
 L 208.358,26.0825 L 208.193,25.9767 L 208.034,25.8629 L 207.882,25.7414 L 207.738,25.613 L 207.604,25.4786
 L 207.479,25.3383 L 207.363,25.1921 L 207.256,25.04 L 207.159,24.8819 L 207.071,24.7179 L 206.992,24.5479
 L 206.923,24.3721 L 206.862,24.1902 L 206.811,24.0025 L 206.77,23.8088 L 206.737,23.6092 L 206.714,23.4037
 L 206.7,23.1922 L 206.695,22.9748 L 206.701,22.7636 L 206.717,22.5572 L 206.745,22.3556 L 206.784,22.1589
 L 206.833,21.9669 L 206.894,21.7798 L 206.965,21.5975 L 207.048,21.4201 L 207.142,21.2475 L 207.246,21.0796
 L 207.362,20.9166 L 207.489,20.7585 L 207.626,20.6051 L 207.775,20.4566 L 207.935,20.3129 L 208.106,20.174
 L 208.285,20.0418 L 208.471,19.9182 L 208.663,19.803 L 208.861,19.6964 L 209.066,19.5983 L 209.276,19.5088
 L 209.493,19.4278 L 209.716,19.3553 L 209.946,19.2913 L 210.182,19.2359 L 210.423,19.189 L 210.672,19.1506
 L 210.926,19.1208 L 211.187,19.0994 L 211.454,19.0867 L 211.727,19.0824 L 211.943,19.0865 L 212.153,19.0988
 L 212.357,19.1193 L 212.555,19.1481 L 212.747,19.185 L 212.933,19.2302 L 213.114,19.2836 L 213.288,19.3451
 L 213.457,19.4149 L 213.62,19.4929 L 213.777,19.5791 L 213.928,19.6736 L 214.073,19.7762 L 214.212,19.8871
 L 214.346,20.0061 L 214.473,20.1334 L 214.594,20.2674 L 214.707,20.4065 L 214.812,20.5507 L 214.909,20.7001
 L 214.999,20.8546 L 215.081,21.0143 L 215.155,21.1791 L 215.221,21.349 L 215.279,21.5241 L 215.33,21.7043
 L 215.373,21.8896 L 215.408,22.0801 L 215.435,22.2757 L 215.455,22.4765 L 215.466,22.6824 L 215.47,22.8934
 L 215.466,23.1174 L 215.453,23.3352 L 215.431,23.5468 L 215.4,23.7521 L 215.36,23.9511 L 215.312,24.1439
 L 215.255,24.3305 L 215.189,24.5107 L 215.114,24.6848 L 215.03,24.8526 L 214.938,25.0141 L 214.837,25.1694
 L 214.727,25.3184 L 214.608,25.4612 L 214.481,25.5977 L 214.344,25.728 L 214.2,25.8512 L 214.048,25.9664
 L 213.889,26.0737 L 213.722,26.173 L 213.548,26.2644 L 213.367,26.3479 L 213.178,26.4233 L 212.981,26.4909
 L 212.778,26.5505 L 212.567,26.6021 L 212.348,26.6459 L 212.122,26.6816 L 211.889,26.7094 L 211.648,26.7293
 L 211.399,26.7412 L 211.144,26.7452 z
M 215.161,44.4428 L 215.742,44.424 L 216.304,44.3926 L 216.847,44.3487 L 217.372,44.2922 L 217.878,44.2231
 L 218.365,44.1415 L 218.834,44.0473 L 219.284,43.9406 L 219.715,43.8213 L 220.128,43.6895 L 220.522,43.5451
 L 220.898,43.3881 L 221.255,43.2186 L 221.593,43.0365 L 221.912,42.8419 L 222.213,42.6341 L 222.494,42.4125
 L 222.756,42.1771 L 222.998,41.9278 L 223.221,41.6647 L 223.425,41.3878 L 223.609,41.097 L 223.774,40.7924
 L 223.919,40.474 L 224.045,40.1418 L 224.152,39.7957 L 224.239,39.4358 L 224.307,39.0621 L 224.356,38.6745
 L 224.385,38.2731 L 224.394,37.8579 L 224.385,37.4312 L 224.356,37.0191 L 224.308,36.6215 L 224.241,36.2385
 L 224.155,35.87 L 224.049,35.5162 L 223.925,35.1768 L 223.781,34.8521 L 223.618,34.5419 L 223.435,34.2464
 L 223.234,33.9653 L 223.014,33.6989 L 222.774,33.447 L 222.515,33.2097 L 222.237,32.9869 L 221.94,32.7787
 L 221.623,32.5841 L 221.287,32.402 L 220.932,32.2325 L 220.558,32.0756 L 220.164,31.9312 L 219.751,31.7993
 L 219.319,31.68 L 218.868,31.5733 L 218.397,31.4791 L 217.907,31.3975 L 217.398,31.3285 L 216.869,31.272
 L 216.321,31.228 L 215.754,31.1966 L 215.167,31.1778 L 214.562,31.1715 L 213.969,31.178 L 213.394,31.1974
 L 212.837,31.2297 L 212.298,31.2749 L 211.778,31.3331 L 211.275,31.4042 L 210.79,31.4882 L 210.323,31.5852
 L 209.875,31.695 L 209.444,31.8178 L 209.031,31.9536 L 208.636,32.1022 L 208.26,32.2638 L 207.901,32.4383
 L 207.56,32.6257 L 207.238,32.8261 L 206.934,33.0394 L 206.65,33.2654 L 206.385,33.5043 L 206.14,33.756
 L 205.915,34.0205 L 205.709,34.2979 L 205.523,34.588 L 205.356,34.891 L 205.209,35.2068 L 205.082,35.5355
 L 204.974,35.8769 L 204.886,36.2312 L 204.817,36.5983 L 204.768,36.9782 L 204.739,37.371 L 204.729,37.7765
 L 204.739,38.1822 L 204.768,38.5753 L 204.817,38.9559 L 204.886,39.3239 L 204.975,39.6793 L 205.084,40.0222
 L 205.212,40.3525 L 205.359,40.6703 L 205.527,40.9755 L 205.714,41.2682 L 205.921,41.5483 L 206.148,41.8159
 L 206.394,42.0709 L 206.66,42.3133 L 206.946,42.5432 L 207.251,42.7605 L 207.576,42.965 L 207.917,43.1563
 L 208.277,43.3344 L 208.654,43.4993 L 209.049,43.651 L 209.462,43.7895 L 209.892,43.9148 L 210.34,44.027
 L 210.806,44.1259 L 211.289,44.2117 L 211.791,44.2842 L 212.309,44.3436 L 212.846,44.3898 L 213.4,44.4227
 L 213.972,44.4425 L 214.562,44.4491 z
M 214.071,41.9634 L 213.597,41.9516 L 213.139,41.932 L 212.697,41.9046 L 212.271,41.8693 L 211.861,41.8262
 L 211.467,41.7752 L 211.09,41.7164 L 210.728,41.6498 L 210.383,41.5753 L 210.053,41.493 L 209.74,41.4028
 L 209.443,41.3048 L 209.162,41.1989 L 208.897,41.0853 L 208.648,40.9637 L 208.415,40.8338 L 208.197,40.6948
 L 207.994,40.5468 L 207.806,40.3898 L 207.633,40.2239 L 207.475,40.0489 L 207.332,39.8649 L 207.204,39.6719
 L 207.091,39.4698 L 206.993,39.2588 L 206.91,39.0388 L 206.843,38.8098 L 206.79,38.5717 L 206.752,38.3246
 L 206.73,38.0686 L 206.722,37.8035 L 206.73,37.5368 L 206.752,37.2793 L 206.789,37.031 L 206.84,36.7918
 L 206.906,36.5618 L 206.988,36.341 L 207.083,36.1293 L 207.194,35.9268 L 207.319,35.7335 L 207.459,35.5493
 L 207.613,35.3743 L 207.783,35.2084 L 207.967,35.0518 L 208.166,34.9043 L 208.379,34.7659 L 208.608,34.6367
 L 208.852,34.516 L 209.113,34.4031 L 209.391,34.298 L 209.687,34.2006 L 209.999,34.1111 L 210.329,34.0293
 L 210.675,33.9553 L 211.039,33.8891 L 211.419,33.8307 L 211.817,33.7801 L 212.232,33.7373 L 212.664,33.7022
 L 213.113,33.675 L 213.579,33.6555 L 214.062,33.6438 L 214.562,33.6399 L 215.076,33.6438 L 215.572,33.6553
 L 216.05,33.6745 L 216.509,33.7014 L 216.95,33.7359 L 217.373,33.7782 L 217.777,33.8281 L 218.162,33.8857
 L 218.53,33.951 L 218.878,34.024 L 219.208,34.1046 L 219.52,34.193 L 219.814,34.289 L 220.089,34.3927
 L 220.345,34.5041 L 220.583,34.6231 L 220.805,34.751 L 221.012,34.8888 L 221.205,35.0365 L 221.384,35.1941
 L 221.549,35.3616 L 221.699,35.539 L 221.835,35.7263 L 221.956,35.9235 L 222.064,36.1306 L 222.157,36.3477
 L 222.235,36.5746 L 222.3,36.8115 L 222.35,37.0582 L 222.386,37.3149 L 222.407,37.5815 L 222.414,37.8579
 L 222.407,38.1277 L 222.385,38.3878 L 222.349,38.6382 L 222.298,38.8789 L 222.233,39.1099 L 222.153,39.3312
 L 222.059,39.5428 L 221.95,39.7447 L 221.826,39.937 L 221.688,40.1195 L 221.536,40.2923 L 221.369,40.4555
 L 221.188,40.6089 L 220.992,40.7527 L 220.781,40.8867 L 220.556,41.0111 L 220.315,41.1269 L 220.056,41.2352
 L 219.779,41.3361 L 219.485,41.4295 L 219.172,41.5154 L 218.842,41.5938 L 218.494,41.6648 L 218.129,41.7283
 L 217.745,41.7843 L 217.344,41.8329 L 216.924,41.8739 L 216.487,41.9075 L 216.033,41.9337 L 215.56,41.9524
 L 215.07,41.9636 L 214.562,41.9673 z
" stroke="black" fill="lightgray" stroke-width="0.5"/>
</svg>
