<?xml version="1.0" standalone="no"?>
<!DOCTYPE svg PUBLIC "-//W3C//DTD SVG 1.1//EN" "http://www.w3.org/Graphics/SVG/1.1/DTD/svg11.dtd">
<svg width="1540mm" height="1075mm" viewBox="-20 -375 1540 1075" xmlns="http://www.w3.org/2000/svg" version="1.1">
<title>OpenSCAD Model</title>
<path d="
M 958.269,-354.739 L 958.662,-354.768 L 959.042,-354.817 L 959.41,-354.886 L 959.766,-354.975 L 960.109,-355.084
 L 960.439,-355.212 L 960.757,-355.359 L 961.062,-355.527 L 961.355,-355.714 L 961.635,-355.921 L 961.902,-356.148
 L 962.157,-356.394 L 962.4,-356.66 L 962.63,-356.946 L 962.847,-357.251 L 963.052,-357.576 L 963.243,-357.917
 L 963.421,-358.277 L 963.586,-358.654 L 963.738,-359.049 L 963.876,-359.462 L 964.001,-359.892 L 964.113,-360.34
 L 964.212,-360.806 L 964.298,-361.289 L 964.371,-361.791 L 964.43,-362.309 L 964.476,-362.846 L 964.509,-363.4
 L 964.529,-363.972 L 964.536,-364.562 L 964.529,-365.161 L 964.511,-365.742 L 964.479,-366.304 L 964.435,-366.847
 L 964.379,-367.372 L 964.31,-367.878 L 964.228,-368.365 L 964.134,-368.834 L 964.027,-369.284 L 963.908,-369.715
 L 963.776,-370.128 L 963.632,-370.522 L 963.475,-370.898 L 963.305,-371.255 L 963.123,-371.593 L 962.928,-371.912
 L 962.721,-372.213 L 962.499,-372.494 L 962.264,-372.756 L 962.014,-372.998 L 961.751,-373.221 L 961.474,-373.425
 L 961.184,-373.609 L 960.879,-373.774 L 960.561,-373.919 L 960.228,-374.045 L 959.882,-374.152 L 959.522,-374.239
 L 959.149,-374.307 L 958.761,-374.356 L 958.36,-374.385 L 957.944,-374.394 L 957.518,-374.385 L 957.106,-374.356
 L 956.708,-374.308 L 956.325,-374.241 L 955.957,-374.155 L 955.603,-374.049 L 955.263,-373.925 L 954.939,-373.781
 L 954.628,-373.618 L 954.333,-373.435 L 954.052,-373.234 L 953.785,-373.014 L 953.533,-372.774 L 953.296,-372.515
 L 953.073,-372.237 L 952.865,-371.94 L 952.671,-371.623 L 952.489,-371.287 L 952.319,-370.932 L 952.162,-370.558
 L 952.018,-370.164 L 951.886,-369.751 L 951.767,-369.319 L 951.66,-368.868 L 951.566,-368.397 L 951.484,-367.907
 L 951.415,-367.398 L 951.358,-366.869 L 951.315,-366.321 L 951.283,-365.754 L 951.264,-365.167 L 951.258,-364.562
 L 951.264,-363.969 L 951.284,-363.394 L 951.316,-362.837 L 951.361,-362.298 L 951.42,-361.778 L 951.491,-361.275
 L 951.575,-360.79 L 951.672,-360.323 L 951.782,-359.875 L 951.904,-359.444 L 952.04,-359.031 L 952.189,-358.636
 L 952.35,-358.26 L 952.525,-357.901 L 952.712,-357.56 L 952.913,-357.238 L 953.126,-356.934 L 953.352,-356.65
 L 953.591,-356.385 L 953.843,-356.14 L 954.107,-355.915 L 954.384,-355.709 L 954.675,-355.523 L 954.978,-355.356
 L 955.293,-355.209 L 955.622,-355.082 L 955.963,-354.974 L 956.318,-354.886 L 956.685,-354.817 L 957.065,-354.768
 L 957.457,-354.739 L 957.863,-354.729 z
M 957.623,-356.73 L 957.366,-356.752 L 957.118,-356.789 L 956.878,-356.84 L 956.648,-356.906 L 956.428,-356.988
 L 956.216,-357.083 L 956.013,-357.194 L 955.82,-357.319 L 955.636,-357.459 L 955.461,-357.613 L 955.295,-357.783
 L 955.138,-357.967 L 954.991,-358.166 L 954.852,-358.379 L 954.723,-358.608 L 954.603,-358.852 L 954.49,-359.113
 L 954.384,-359.391 L 954.287,-359.687 L 954.198,-359.999 L 954.116,-360.329 L 954.042,-360.675 L 953.976,-361.039
 L 953.917,-361.419 L 953.867,-361.817 L 953.824,-362.232 L 953.789,-362.664 L 953.761,-363.113 L 953.742,-363.579
 L 953.73,-364.062 L 953.726,-364.562 L 953.73,-365.076 L 953.742,-365.572 L 953.761,-366.05 L 953.788,-366.509
 L 953.822,-366.95 L 953.865,-367.373 L 953.915,-367.777 L 953.972,-368.162 L 954.038,-368.53 L 954.111,-368.878
 L 954.191,-369.208 L 954.279,-369.52 L 954.376,-369.814 L 954.479,-370.089 L 954.591,-370.345 L 954.71,-370.583
 L 954.838,-370.805 L 954.975,-371.012 L 955.123,-371.205 L 955.281,-371.384 L 955.448,-371.549 L 955.626,-371.699
 L 955.813,-371.835 L 956.01,-371.956 L 956.217,-372.064 L 956.434,-372.157 L 956.661,-372.235 L 956.898,-372.3
 L 957.145,-372.35 L 957.401,-372.386 L 957.668,-372.407 L 957.944,-372.414 L 958.214,-372.407 L 958.474,-372.385
 L 958.725,-372.349 L 958.965,-372.298 L 959.196,-372.233 L 959.418,-372.153 L 959.629,-372.059 L 959.831,-371.95
 L 960.023,-371.826 L 960.206,-371.688 L 960.379,-371.536 L 960.542,-371.369 L 960.695,-371.188 L 960.839,-370.992
 L 960.973,-370.781 L 961.098,-370.556 L 961.213,-370.315 L 961.322,-370.056 L 961.423,-369.779 L 961.516,-369.485
 L 961.602,-369.172 L 961.68,-368.842 L 961.751,-368.494 L 961.815,-368.129 L 961.871,-367.745 L 961.919,-367.344
 L 961.96,-366.924 L 961.994,-366.487 L 962.02,-366.033 L 962.039,-365.56 L 962.05,-365.07 L 962.054,-364.562
 L 962.05,-364.071 L 962.038,-363.597 L 962.019,-363.139 L 961.991,-362.697 L 961.956,-362.271 L 961.913,-361.861
 L 961.862,-361.467 L 961.803,-361.09 L 961.736,-360.728 L 961.662,-360.383 L 961.579,-360.053 L 961.489,-359.74
 L 961.391,-359.443 L 961.285,-359.162 L 961.172,-358.897 L 961.05,-358.648 L 960.92,-358.415 L 960.781,-358.197
 L 960.633,-357.994 L 960.476,-357.806 L 960.31,-357.633 L 960.135,-357.475 L 959.951,-357.332 L 959.758,-357.204
 L 959.556,-357.091 L 959.345,-356.993 L 959.125,-356.91 L 958.896,-356.843 L 958.658,-356.79 L 958.411,-356.752
 L 958.155,-356.73 L 957.89,-356.722 z
M 973.355,-354.739 L 973.748,-354.768 L 974.129,-354.817 L 974.497,-354.886 L 974.852,-354.975 L 975.195,-355.084
 L 975.526,-355.212 L 975.843,-355.359 L 976.149,-355.527 L 976.441,-355.714 L 976.721,-355.921 L 976.989,-356.148
 L 977.244,-356.394 L 977.486,-356.66 L 977.716,-356.946 L 977.934,-357.251 L 978.138,-357.576 L 978.329,-357.917
 L 978.507,-358.277 L 978.672,-358.654 L 978.824,-359.049 L 978.963,-359.462 L 979.088,-359.892 L 979.2,-360.34
 L 979.299,-360.806 L 979.385,-361.289 L 979.457,-361.791 L 979.517,-362.309 L 979.563,-362.846 L 979.596,-363.4
 L 979.616,-363.972 L 979.622,-364.562 L 979.616,-365.161 L 979.597,-365.742 L 979.566,-366.304 L 979.522,-366.847
 L 979.465,-367.372 L 979.396,-367.878 L 979.315,-368.365 L 979.22,-368.834 L 979.114,-369.284 L 978.994,-369.715
 L 978.863,-370.128 L 978.718,-370.522 L 978.561,-370.898 L 978.392,-371.255 L 978.21,-371.593 L 978.015,-371.912
 L 977.807,-372.213 L 977.586,-372.494 L 977.35,-372.756 L 977.101,-372.998 L 976.838,-373.221 L 976.561,-373.425
 L 976.27,-373.609 L 975.965,-373.774 L 975.647,-373.919 L 975.315,-374.045 L 974.969,-374.152 L 974.609,-374.239
 L 974.235,-374.307 L 973.848,-374.356 L 973.446,-374.385 L 973.031,-374.394 L 972.604,-374.385 L 972.192,-374.356
 L 971.795,-374.308 L 971.412,-374.241 L 971.043,-374.155 L 970.689,-374.049 L 970.35,-373.925 L 970.025,-373.781
 L 969.715,-373.618 L 969.419,-373.435 L 969.138,-373.234 L 968.872,-373.014 L 968.62,-372.774 L 968.383,-372.515
 L 968.16,-372.237 L 967.952,-371.94 L 967.757,-371.623 L 967.575,-371.287 L 967.406,-370.932 L 967.249,-370.558
 L 967.104,-370.164 L 966.972,-369.751 L 966.853,-369.319 L 966.746,-368.868 L 966.652,-368.397 L 966.571,-367.907
 L 966.502,-367.398 L 966.445,-366.869 L 966.401,-366.321 L 966.37,-365.754 L 966.351,-365.167 L 966.345,-364.562
 L 966.351,-363.969 L 966.37,-363.394 L 966.403,-362.837 L 966.448,-362.298 L 966.506,-361.778 L 966.577,-361.275
 L 966.661,-360.79 L 966.758,-360.323 L 966.868,-359.875 L 966.991,-359.444 L 967.127,-359.031 L 967.275,-358.636
 L 967.437,-358.26 L 967.611,-357.901 L 967.799,-357.56 L 967.999,-357.238 L 968.212,-356.934 L 968.438,-356.65
 L 968.677,-356.385 L 968.929,-356.14 L 969.194,-355.915 L 969.471,-355.709 L 969.761,-355.523 L 970.064,-355.356
 L 970.38,-355.209 L 970.709,-355.082 L 971.05,-354.974 L 971.404,-354.886 L 971.771,-354.817 L 972.151,-354.768
 L 972.544,-354.739 L 972.95,-354.729 z
M 972.71,-356.73 L 972.452,-356.752 L 972.204,-356.789 L 971.965,-356.84 L 971.735,-356.906 L 971.514,-356.988
 L 971.302,-357.083 L 971.1,-357.194 L 970.907,-357.319 L 970.722,-357.459 L 970.547,-357.613 L 970.381,-357.783
 L 970.225,-357.967 L 970.077,-358.166 L 969.939,-358.379 L 969.81,-358.608 L 969.689,-358.852 L 969.576,-359.113
 L 969.471,-359.391 L 969.374,-359.687 L 969.284,-359.999 L 969.202,-360.329 L 969.128,-360.675 L 969.062,-361.039
 L 969.004,-361.419 L 968.953,-361.817 L 968.91,-362.232 L 968.875,-362.664 L 968.848,-363.113 L 968.829,-363.579
 L 968.817,-364.062 L 968.813,-364.562 L 968.817,-365.076 L 968.828,-365.572 L 968.848,-366.05 L 968.874,-366.509
 L 968.909,-366.95 L 968.951,-367.373 L 969.001,-367.777 L 969.059,-368.162 L 969.124,-368.53 L 969.197,-368.878
 L 969.278,-369.208 L 969.366,-369.52 L 969.462,-369.814 L 969.566,-370.089 L 969.677,-370.345 L 969.796,-370.583
 L 969.924,-370.805 L 970.062,-371.012 L 970.21,-371.205 L 970.367,-371.384 L 970.535,-371.549 L 970.712,-371.699
 L 970.899,-371.835 L 971.097,-371.956 L 971.304,-372.064 L 971.521,-372.157 L 971.748,-372.235 L 971.985,-372.3
 L 972.231,-372.35 L 972.488,-372.386 L 972.754,-372.407 L 973.031,-372.414 L 973.301,-372.407 L 973.561,-372.385
 L 973.811,-372.349 L 974.052,-372.298 L 974.283,-372.233 L 974.504,-372.153 L 974.716,-372.059 L 974.918,-371.95
 L 975.11,-371.826 L 975.293,-371.688 L 975.465,-371.536 L 975.629,-371.369 L 975.782,-371.188 L 975.926,-370.992
 L 976.06,-370.781 L 976.184,-370.556 L 976.3,-370.315 L 976.408,-370.056 L 976.509,-369.779 L 976.602,-369.485
 L 976.688,-369.172 L 976.767,-368.842 L 976.838,-368.494 L 976.901,-368.129 L 976.957,-367.745 L 977.006,-367.344
 L 977.047,-366.924 L 977.081,-366.487 L 977.107,-366.033 L 977.125,-365.56 L 977.137,-365.07 L 977.14,-364.562
 L 977.136,-364.071 L 977.125,-363.597 L 977.105,-363.139 L 977.078,-362.697 L 977.042,-362.271 L 976.999,-361.861
 L 976.948,-361.467 L 976.889,-361.09 L 976.823,-360.728 L 976.748,-360.383 L 976.666,-360.053 L 976.576,-359.74
 L 976.478,-359.443 L 976.372,-359.162 L 976.258,-358.897 L 976.137,-358.648 L 976.007,-358.415 L 975.868,-358.197
 L 975.72,-357.994 L 975.563,-357.806 L 975.397,-357.633 L 975.222,-357.475 L 975.038,-357.332 L 974.845,-357.204
 L 974.643,-357.091 L 974.432,-356.993 L 974.212,-356.91 L 973.983,-356.843 L 973.745,-356.79 L 973.498,-356.752
 L 973.242,-356.73 L 972.977,-356.722 z
M 942.979,-354.736 L 943.362,-354.756 L 943.733,-354.79 L 944.093,-354.837 L 944.443,-354.898 L 944.781,-354.973
 L 945.109,-355.061 L 945.426,-355.163 L 945.732,-355.278 L 946.027,-355.407 L 946.312,-355.549 L 946.585,-355.705
 L 946.848,-355.875 L 947.1,-356.058 L 947.341,-356.255 L 947.571,-356.465 L 947.788,-356.687 L 947.992,-356.919
 L 948.181,-357.161 L 948.357,-357.413 L 948.518,-357.676 L 948.666,-357.948 L 948.799,-358.23 L 948.919,-358.523
 L 949.024,-358.825 L 949.115,-359.138 L 949.192,-359.461 L 949.256,-359.794 L 949.305,-360.136 L 949.34,-360.489
 L 949.361,-360.852 L 949.368,-361.225 L 949.361,-361.554 L 949.342,-361.874 L 949.309,-362.187 L 949.263,-362.492
 L 949.204,-362.789 L 949.132,-363.078 L 949.047,-363.359 L 948.949,-363.632 L 948.838,-363.898 L 948.714,-364.156
 L 948.576,-364.406 L 948.426,-364.648 L 948.262,-364.882 L 948.085,-365.109 L 947.896,-365.327 L 947.693,-365.538
 L 947.479,-365.738 L 947.256,-365.926 L 947.025,-366.1 L 946.784,-366.262 L 946.534,-366.411 L 946.276,-366.546
 L 946.008,-366.669 L 945.731,-366.779 L 945.446,-366.876 L 945.152,-366.96 L 944.848,-367.031 L 944.536,-367.089
 L 944.215,-367.134 L 943.884,-367.167 L 943.545,-367.186 L 943.197,-367.193 L 942.905,-367.188 L 942.619,-367.174
 L 942.339,-367.15 L 942.065,-367.116 L 941.798,-367.073 L 941.536,-367.021 L 941.28,-366.959 L 941.03,-366.887
 L 940.787,-366.806 L 940.549,-366.716 L 940.317,-366.616 L 940.092,-366.506 L 939.872,-366.387 L 939.659,-366.258
 L 939.452,-366.12 L 939.25,-365.972 L 939.616,-372.035 L 948.256,-372.035 L 948.256,-374.11 L 937.392,-374.11
 L 936.755,-363.829 L 939.142,-363.829 L 939.249,-363.921 L 939.355,-364.009 L 939.462,-364.094 L 939.569,-364.175
 L 939.676,-364.253 L 939.783,-364.328 L 939.889,-364.399 L 939.996,-364.467 L 940.103,-364.531 L 940.21,-364.592
 L 940.317,-364.65 L 940.423,-364.704 L 940.53,-364.755 L 940.637,-364.802 L 940.744,-364.846 L 940.851,-364.887
 L 940.958,-364.925 L 941.066,-364.96 L 941.176,-364.993 L 941.286,-365.023 L 941.398,-365.052 L 941.511,-365.077
 L 941.624,-365.1 L 941.739,-365.121 L 941.855,-365.139 L 941.972,-365.155 L 942.09,-365.169 L 942.209,-365.179
 L 942.329,-365.188 L 942.45,-365.194 L 942.572,-365.198 L 942.695,-365.199 L 942.929,-365.195 L 943.158,-365.182
 L 943.38,-365.16 L 943.596,-365.129 L 943.806,-365.09 L 944.01,-365.043 L 944.207,-364.986 L 944.399,-364.921
 L 944.584,-364.847 L 944.764,-364.765 L 944.937,-364.673 L 945.105,-364.573 L 945.266,-364.465 L 945.421,-364.347
 L 945.57,-364.221 L 945.713,-364.087 L 945.848,-363.945 L 945.975,-363.798 L 946.093,-363.645 L 946.202,-363.488
 L 946.303,-363.324 L 946.395,-363.156 L 946.478,-362.981 L 946.552,-362.802 L 946.618,-362.617 L 946.674,-362.427
 L 946.722,-362.231 L 946.762,-362.03 L 946.792,-361.823 L 946.814,-361.611 L 946.827,-361.394 L 946.832,-361.171
 L 946.827,-360.915 L 946.814,-360.666 L 946.793,-360.424 L 946.762,-360.189 L 946.723,-359.961 L 946.675,-359.74
 L 946.619,-359.525 L 946.554,-359.318 L 946.48,-359.117 L 946.397,-358.924 L 946.306,-358.738 L 946.206,-358.558
 L 946.097,-358.385 L 945.98,-358.22 L 945.854,-358.061 L 945.72,-357.909 L 945.577,-357.765 L 945.428,-357.631
 L 945.272,-357.506 L 945.11,-357.39 L 944.941,-357.283 L 944.765,-357.186 L 944.583,-357.098 L 944.394,-357.019
 L 944.198,-356.95 L 943.996,-356.889 L 943.786,-356.838 L 943.571,-356.797 L 943.348,-356.764 L 943.119,-356.741
 L 942.883,-356.727 L 942.641,-356.722 L 942.25,-356.733 L 941.879,-356.767 L 941.526,-356.822 L 941.192,-356.9
 L 940.878,-356.999 L 940.582,-357.121 L 940.305,-357.265 L 940.047,-357.431 L 939.808,-357.619 L 939.588,-357.83
 L 939.387,-358.062 L 939.205,-358.317 L 939.042,-358.594 L 938.898,-358.893 L 938.773,-359.214 L 938.667,-359.557
 L 936.199,-359.272 L 936.258,-359 L 936.326,-358.736 L 936.404,-358.48 L 936.491,-358.232 L 936.588,-357.993
 L 936.694,-357.761 L 936.809,-357.538 L 936.934,-357.323 L 937.069,-357.116 L 937.213,-356.917 L 937.366,-356.726
 L 937.529,-356.544 L 937.701,-356.369 L 937.882,-356.203 L 938.073,-356.045 L 938.274,-355.895 L 938.483,-355.754
 L 938.7,-355.622 L 938.925,-355.499 L 939.159,-355.385 L 939.4,-355.28 L 939.649,-355.184 L 939.907,-355.098
 L 940.172,-355.02 L 940.446,-354.952 L 940.728,-354.893 L 941.017,-354.843 L 941.315,-354.802 L 941.621,-354.77
 L 941.935,-354.747 L 942.257,-354.733 L 942.587,-354.729 z
M 934.091,-357.075 L 929.44,-357.075 L 929.44,-374.11 L 927.188,-374.11 L 922.672,-371.004 L 922.672,-368.698
 L 926.985,-371.777 L 926.985,-357.075 L 922.116,-357.075 L 922.116,-355 L 934.091,-355 z
M 1,-180 L 40,-180 L 40,-100 L 41,-100 L 41,-180 L 400,-180
 L 400,-100 L 401,-100 L 401,-180 L 440,-180 L 440,-100 L 441,-100
 L 441,-180 L 480,-180 L 480,-100 L 481,-100 L 481,-180 L 1420,-180
 L 1420,-100 L 1421,-100 L 1421,-180 L 1460,-180 L 1460,-100 L 1461,-100
 L 1461,-180 L 1500,-180 L 1500,-100 L 1501,-100 L 1501,-180 L 1520,-180
 L 1520,-181 L 1501,-181 L 1501,-260 L 1520,-260 L 1520,-261 L 1501,-261
 L 1501,-340 L 1520,-340 L 1520,-341 L 1501,-341 L 1501,-360 L 1500,-360
 L 1500,-341 L 1,-341 L 1,-360 L 0,-360 L 0,-341 L -20,-341
 L -20,-340 L 0,-340 L 0,-261 L -20,-261 L -20,-260 L 0,-260
 L 0,-181 L -20,-181 L -20,-180 L 0,-180 L 0,-100 L 1,-100
 z
M 1,-261 L 1,-340 L 1500,-340 L 1500,-261 L 1461,-261 L 1461,-280
 L 1460,-280 L 1460,-261 L 441,-261 L 441,-280 L 440,-280 L 440,-261
 z
M 1488.18,-274.739 L 1488.58,-274.768 L 1488.96,-274.817 L 1489.32,-274.886 L 1489.68,-274.975 L 1490.02,-275.084
 L 1490.35,-275.212 L 1490.67,-275.359 L 1490.98,-275.527 L 1491.27,-275.714 L 1491.55,-275.921 L 1491.82,-276.148
 L 1492.07,-276.394 L 1492.31,-276.66 L 1492.54,-276.946 L 1492.76,-277.251 L 1492.96,-277.576 L 1493.16,-277.917
 L 1493.33,-278.277 L 1493.5,-278.654 L 1493.65,-279.049 L 1493.79,-279.462 L 1493.91,-279.892 L 1494.03,-280.34
 L 1494.13,-280.806 L 1494.21,-281.289 L 1494.28,-281.791 L 1494.34,-282.309 L 1494.39,-282.846 L 1494.42,-283.4
 L 1494.44,-283.972 L 1494.45,-284.562 L 1494.44,-285.161 L 1494.42,-285.742 L 1494.39,-286.304 L 1494.35,-286.847
 L 1494.29,-287.372 L 1494.22,-287.878 L 1494.14,-288.365 L 1494.05,-288.834 L 1493.94,-289.284 L 1493.82,-289.715
 L 1493.69,-290.128 L 1493.55,-290.522 L 1493.39,-290.898 L 1493.22,-291.255 L 1493.04,-291.593 L 1492.84,-291.912
 L 1492.63,-292.213 L 1492.41,-292.494 L 1492.18,-292.756 L 1491.93,-292.998 L 1491.66,-293.221 L 1491.39,-293.425
 L 1491.1,-293.609 L 1490.79,-293.774 L 1490.47,-293.919 L 1490.14,-294.045 L 1489.8,-294.152 L 1489.44,-294.239
 L 1489.06,-294.307 L 1488.67,-294.356 L 1488.27,-294.385 L 1487.86,-294.394 L 1487.43,-294.385 L 1487.02,-294.356
 L 1486.62,-294.308 L 1486.24,-294.241 L 1485.87,-294.155 L 1485.52,-294.049 L 1485.18,-293.925 L 1484.85,-293.781
 L 1484.54,-293.618 L 1484.25,-293.435 L 1483.97,-293.234 L 1483.7,-293.014 L 1483.45,-292.774 L 1483.21,-292.515
 L 1482.99,-292.237 L 1482.78,-291.94 L 1482.58,-291.623 L 1482.4,-291.287 L 1482.23,-290.932 L 1482.08,-290.558
 L 1481.93,-290.164 L 1481.8,-289.751 L 1481.68,-289.319 L 1481.57,-288.868 L 1481.48,-288.397 L 1481.4,-287.907
 L 1481.33,-287.398 L 1481.27,-286.869 L 1481.23,-286.321 L 1481.2,-285.754 L 1481.18,-285.167 L 1481.17,-284.562
 L 1481.18,-283.969 L 1481.2,-283.394 L 1481.23,-282.837 L 1481.27,-282.298 L 1481.33,-281.778 L 1481.4,-281.275
 L 1481.49,-280.79 L 1481.59,-280.323 L 1481.7,-279.875 L 1481.82,-279.444 L 1481.95,-279.031 L 1482.1,-278.636
 L 1482.26,-278.26 L 1482.44,-277.901 L 1482.63,-277.56 L 1482.83,-277.238 L 1483.04,-276.934 L 1483.27,-276.65
 L 1483.5,-276.385 L 1483.76,-276.14 L 1484.02,-275.915 L 1484.3,-275.709 L 1484.59,-275.523 L 1484.89,-275.356
 L 1485.21,-275.209 L 1485.54,-275.082 L 1485.88,-274.974 L 1486.23,-274.886 L 1486.6,-274.817 L 1486.98,-274.768
 L 1487.37,-274.739 L 1487.78,-274.729 z
M 1487.54,-276.73 L 1487.28,-276.752 L 1487.03,-276.789 L 1486.79,-276.84 L 1486.56,-276.906 L 1486.34,-276.988
 L 1486.13,-277.083 L 1485.93,-277.194 L 1485.73,-277.319 L 1485.55,-277.459 L 1485.37,-277.613 L 1485.21,-277.783
 L 1485.05,-277.967 L 1484.9,-278.166 L 1484.77,-278.379 L 1484.64,-278.608 L 1484.52,-278.852 L 1484.4,-279.113
 L 1484.3,-279.391 L 1484.2,-279.687 L 1484.11,-279.999 L 1484.03,-280.329 L 1483.96,-280.675 L 1483.89,-281.039
 L 1483.83,-281.419 L 1483.78,-281.817 L 1483.74,-282.232 L 1483.7,-282.664 L 1483.67,-283.113 L 1483.66,-283.579
 L 1483.64,-284.062 L 1483.64,-284.562 L 1483.64,-285.076 L 1483.66,-285.572 L 1483.67,-286.05 L 1483.7,-286.509
 L 1483.74,-286.95 L 1483.78,-287.373 L 1483.83,-287.777 L 1483.89,-288.162 L 1483.95,-288.53 L 1484.02,-288.878
 L 1484.1,-289.208 L 1484.19,-289.52 L 1484.29,-289.814 L 1484.39,-290.089 L 1484.5,-290.345 L 1484.62,-290.583
 L 1484.75,-290.805 L 1484.89,-291.012 L 1485.04,-291.205 L 1485.19,-291.384 L 1485.36,-291.549 L 1485.54,-291.699
 L 1485.73,-291.835 L 1485.92,-291.956 L 1486.13,-292.064 L 1486.35,-292.157 L 1486.57,-292.235 L 1486.81,-292.3
 L 1487.06,-292.35 L 1487.31,-292.386 L 1487.58,-292.407 L 1487.86,-292.414 L 1488.13,-292.407 L 1488.39,-292.385
 L 1488.64,-292.349 L 1488.88,-292.298 L 1489.11,-292.233 L 1489.33,-292.153 L 1489.54,-292.059 L 1489.74,-291.95
 L 1489.94,-291.826 L 1490.12,-291.688 L 1490.29,-291.536 L 1490.46,-291.369 L 1490.61,-291.188 L 1490.75,-290.992
 L 1490.89,-290.781 L 1491.01,-290.556 L 1491.13,-290.315 L 1491.24,-290.056 L 1491.34,-289.779 L 1491.43,-289.485
 L 1491.52,-289.172 L 1491.59,-288.842 L 1491.66,-288.494 L 1491.73,-288.129 L 1491.78,-287.745 L 1491.83,-287.344
 L 1491.87,-286.924 L 1491.91,-286.487 L 1491.93,-286.033 L 1491.95,-285.56 L 1491.96,-285.07 L 1491.97,-284.562
 L 1491.96,-284.071 L 1491.95,-283.597 L 1491.93,-283.139 L 1491.9,-282.697 L 1491.87,-282.271 L 1491.83,-281.861
 L 1491.78,-281.467 L 1491.72,-281.09 L 1491.65,-280.728 L 1491.58,-280.383 L 1491.49,-280.053 L 1491.4,-279.74
 L 1491.3,-279.443 L 1491.2,-279.162 L 1491.09,-278.897 L 1490.96,-278.648 L 1490.83,-278.415 L 1490.69,-278.197
 L 1490.55,-277.994 L 1490.39,-277.806 L 1490.22,-277.633 L 1490.05,-277.475 L 1489.86,-277.332 L 1489.67,-277.204
 L 1489.47,-277.091 L 1489.26,-276.993 L 1489.04,-276.91 L 1488.81,-276.843 L 1488.57,-276.79 L 1488.32,-276.752
 L 1488.07,-276.73 L 1487.8,-276.722 z
M 973.355,-274.739 L 973.748,-274.768 L 974.129,-274.817 L 974.497,-274.886 L 974.852,-274.975 L 975.195,-275.084
 L 975.526,-275.212 L 975.843,-275.359 L 976.149,-275.527 L 976.441,-275.714 L 976.721,-275.921 L 976.989,-276.148
 L 977.244,-276.394 L 977.486,-276.66 L 977.716,-276.946 L 977.934,-277.251 L 978.138,-277.576 L 978.329,-277.917
 L 978.507,-278.277 L 978.672,-278.654 L 978.824,-279.049 L 978.963,-279.462 L 979.088,-279.892 L 979.2,-280.34
 L 979.299,-280.806 L 979.385,-281.289 L 979.457,-281.791 L 979.517,-282.309 L 979.563,-282.846 L 979.596,-283.4
 L 979.616,-283.972 L 979.622,-284.562 L 979.616,-285.161 L 979.597,-285.742 L 979.566,-286.304 L 979.522,-286.847
 L 979.465,-287.372 L 979.396,-287.878 L 979.315,-288.365 L 979.22,-288.834 L 979.114,-289.284 L 978.994,-289.715
 L 978.863,-290.128 L 978.718,-290.522 L 978.561,-290.898 L 978.392,-291.255 L 978.21,-291.593 L 978.015,-291.912
 L 977.807,-292.213 L 977.586,-292.494 L 977.35,-292.756 L 977.101,-292.998 L 976.838,-293.221 L 976.561,-293.425
 L 976.27,-293.609 L 975.965,-293.774 L 975.647,-293.919 L 975.315,-294.045 L 974.969,-294.152 L 974.609,-294.239
 L 974.235,-294.307 L 973.848,-294.356 L 973.446,-294.385 L 973.031,-294.394 L 972.604,-294.385 L 972.192,-294.356
 L 971.795,-294.308 L 971.412,-294.241 L 971.043,-294.155 L 970.689,-294.049 L 970.35,-293.925 L 970.025,-293.781
 L 969.715,-293.618 L 969.419,-293.435 L 969.138,-293.234 L 968.872,-293.014 L 968.62,-292.774 L 968.383,-292.515
 L 968.16,-292.237 L 967.952,-291.94 L 967.757,-291.623 L 967.575,-291.287 L 967.406,-290.932 L 967.249,-290.558
 L 967.104,-290.164 L 966.972,-289.751 L 966.853,-289.319 L 966.746,-288.868 L 966.652,-288.397 L 966.571,-287.907
 L 966.502,-287.398 L 966.445,-286.869 L 966.401,-286.321 L 966.37,-285.754 L 966.351,-285.167 L 966.345,-284.562
 L 966.351,-283.969 L 966.37,-283.394 L 966.403,-282.837 L 966.448,-282.298 L 966.506,-281.778 L 966.577,-281.275
 L 966.661,-280.79 L 966.758,-280.323 L 966.868,-279.875 L 966.991,-279.444 L 967.127,-279.031 L 967.275,-278.636
 L 967.437,-278.26 L 967.611,-277.901 L 967.799,-277.56 L 967.999,-277.238 L 968.212,-276.934 L 968.438,-276.65
 L 968.677,-276.385 L 968.929,-276.14 L 969.194,-275.915 L 969.471,-275.709 L 969.761,-275.523 L 970.064,-275.356
 L 970.38,-275.209 L 970.709,-275.082 L 971.05,-274.974 L 971.404,-274.886 L 971.771,-274.817 L 972.151,-274.768
 L 972.544,-274.739 L 972.95,-274.729 z
M 972.71,-276.73 L 972.452,-276.752 L 972.204,-276.789 L 971.965,-276.84 L 971.735,-276.906 L 971.514,-276.988
 L 971.302,-277.083 L 971.1,-277.194 L 970.907,-277.319 L 970.722,-277.459 L 970.547,-277.613 L 970.381,-277.783
 L 970.225,-277.967 L 970.077,-278.166 L 969.939,-278.379 L 969.81,-278.608 L 969.689,-278.852 L 969.576,-279.113
 L 969.471,-279.391 L 969.374,-279.687 L 969.284,-279.999 L 969.202,-280.329 L 969.128,-280.675 L 969.062,-281.039
 L 969.004,-281.419 L 968.953,-281.817 L 968.91,-282.232 L 968.875,-282.664 L 968.848,-283.113 L 968.829,-283.579
 L 968.817,-284.062 L 968.813,-284.562 L 968.817,-285.076 L 968.828,-285.572 L 968.848,-286.05 L 968.874,-286.509
 L 968.909,-286.95 L 968.951,-287.373 L 969.001,-287.777 L 969.059,-288.162 L 969.124,-288.53 L 969.197,-288.878
 L 969.278,-289.208 L 969.366,-289.52 L 969.462,-289.814 L 969.566,-290.089 L 969.677,-290.345 L 969.796,-290.583
 L 969.924,-290.805 L 970.062,-291.012 L 970.21,-291.205 L 970.367,-291.384 L 970.535,-291.549 L 970.712,-291.699
 L 970.899,-291.835 L 971.097,-291.956 L 971.304,-292.064 L 971.521,-292.157 L 971.748,-292.235 L 971.985,-292.3
 L 972.231,-292.35 L 972.488,-292.386 L 972.754,-292.407 L 973.031,-292.414 L 973.301,-292.407 L 973.561,-292.385
 L 973.811,-292.349 L 974.052,-292.298 L 974.283,-292.233 L 974.504,-292.153 L 974.716,-292.059 L 974.918,-291.95
 L 975.11,-291.826 L 975.293,-291.688 L 975.465,-291.536 L 975.629,-291.369 L 975.782,-291.188 L 975.926,-290.992
 L 976.06,-290.781 L 976.184,-290.556 L 976.3,-290.315 L 976.408,-290.056 L 976.509,-289.779 L 976.602,-289.485
 L 976.688,-289.172 L 976.767,-288.842 L 976.838,-288.494 L 976.901,-288.129 L 976.957,-287.745 L 977.006,-287.344
 L 977.047,-286.924 L 977.081,-286.487 L 977.107,-286.033 L 977.125,-285.56 L 977.137,-285.07 L 977.14,-284.562
 L 977.136,-284.071 L 977.125,-283.597 L 977.105,-283.139 L 977.078,-282.697 L 977.042,-282.271 L 976.999,-281.861
 L 976.948,-281.467 L 976.889,-281.09 L 976.823,-280.728 L 976.748,-280.383 L 976.666,-280.053 L 976.576,-279.74
 L 976.478,-279.443 L 976.372,-279.162 L 976.258,-278.897 L 976.137,-278.648 L 976.007,-278.415 L 975.868,-278.197
 L 975.72,-277.994 L 975.563,-277.806 L 975.397,-277.633 L 975.222,-277.475 L 975.038,-277.332 L 974.845,-277.204
 L 974.643,-277.091 L 974.432,-276.993 L 974.212,-276.91 L 973.983,-276.843 L 973.745,-276.79 L 973.498,-276.752
 L 973.242,-276.73 L 972.977,-276.722 z
M 943.182,-274.739 L 943.575,-274.768 L 943.956,-274.817 L 944.324,-274.886 L 944.679,-274.975 L 945.022,-275.084
 L 945.353,-275.212 L 945.67,-275.359 L 945.976,-275.527 L 946.268,-275.714 L 946.548,-275.921 L 946.816,-276.148
 L 947.071,-276.394 L 947.313,-276.66 L 947.543,-276.946 L 947.761,-277.251 L 947.965,-277.576 L 948.156,-277.917
 L 948.334,-278.277 L 948.499,-278.654 L 948.651,-279.049 L 948.79,-279.462 L 948.915,-279.892 L 949.027,-280.34
 L 949.126,-280.806 L 949.212,-281.289 L 949.284,-281.791 L 949.344,-282.309 L 949.39,-282.846 L 949.423,-283.4
 L 949.443,-283.972 L 949.449,-284.562 L 949.443,-285.161 L 949.424,-285.742 L 949.393,-286.304 L 949.349,-286.847
 L 949.292,-287.372 L 949.223,-287.878 L 949.141,-288.365 L 949.047,-288.834 L 948.941,-289.284 L 948.821,-289.715
 L 948.689,-290.128 L 948.545,-290.522 L 948.388,-290.898 L 948.219,-291.255 L 948.037,-291.593 L 947.842,-291.912
 L 947.634,-292.213 L 947.413,-292.494 L 947.177,-292.756 L 946.928,-292.998 L 946.665,-293.221 L 946.388,-293.425
 L 946.097,-293.609 L 945.792,-293.774 L 945.474,-293.919 L 945.142,-294.045 L 944.796,-294.152 L 944.436,-294.239
 L 944.062,-294.307 L 943.675,-294.356 L 943.273,-294.385 L 942.858,-294.394 L 942.431,-294.385 L 942.019,-294.356
 L 941.621,-294.308 L 941.238,-294.241 L 940.87,-294.155 L 940.516,-294.049 L 940.177,-293.925 L 939.852,-293.781
 L 939.542,-293.618 L 939.246,-293.435 L 938.965,-293.234 L 938.699,-293.014 L 938.447,-292.774 L 938.21,-292.515
 L 937.987,-292.237 L 937.779,-291.94 L 937.584,-291.623 L 937.402,-291.287 L 937.233,-290.932 L 937.076,-290.558
 L 936.931,-290.164 L 936.799,-289.751 L 936.68,-289.319 L 936.573,-288.868 L 936.479,-288.397 L 936.398,-287.907
 L 936.328,-287.398 L 936.272,-286.869 L 936.228,-286.321 L 936.197,-285.754 L 936.178,-285.167 L 936.172,-284.562
 L 936.178,-283.969 L 936.197,-283.394 L 936.23,-282.837 L 936.275,-282.298 L 936.333,-281.778 L 936.404,-281.275
 L 936.488,-280.79 L 936.585,-280.323 L 936.695,-279.875 L 936.818,-279.444 L 936.954,-279.031 L 937.102,-278.636
 L 937.264,-278.26 L 937.438,-277.901 L 937.626,-277.56 L 937.826,-277.238 L 938.039,-276.934 L 938.265,-276.65
 L 938.504,-276.385 L 938.756,-276.14 L 939.021,-275.915 L 939.298,-275.709 L 939.588,-275.523 L 939.891,-275.356
 L 940.207,-275.209 L 940.535,-275.082 L 940.877,-274.974 L 941.231,-274.886 L 941.598,-274.817 L 941.978,-274.768
 L 942.371,-274.739 L 942.777,-274.729 z
M 942.537,-276.73 L 942.279,-276.752 L 942.031,-276.789 L 941.792,-276.84 L 941.562,-276.906 L 941.341,-276.988
 L 941.129,-277.083 L 940.927,-277.194 L 940.733,-277.319 L 940.549,-277.459 L 940.374,-277.613 L 940.208,-277.783
 L 940.052,-277.967 L 939.904,-278.166 L 939.766,-278.379 L 939.637,-278.608 L 939.516,-278.852 L 939.403,-279.113
 L 939.298,-279.391 L 939.201,-279.687 L 939.111,-279.999 L 939.029,-280.329 L 938.955,-280.675 L 938.889,-281.039
 L 938.831,-281.419 L 938.78,-281.817 L 938.737,-282.232 L 938.702,-282.664 L 938.675,-283.113 L 938.655,-283.579
 L 938.644,-284.062 L 938.64,-284.562 L 938.644,-285.076 L 938.655,-285.572 L 938.674,-286.05 L 938.701,-286.509
 L 938.736,-286.95 L 938.778,-287.373 L 938.828,-287.777 L 938.886,-288.162 L 938.951,-288.53 L 939.024,-288.878
 L 939.105,-289.208 L 939.193,-289.52 L 939.289,-289.814 L 939.393,-290.089 L 939.504,-290.345 L 939.623,-290.583
 L 939.751,-290.805 L 939.889,-291.012 L 940.036,-291.205 L 940.194,-291.384 L 940.362,-291.549 L 940.539,-291.699
 L 940.726,-291.835 L 940.924,-291.956 L 941.131,-292.064 L 941.348,-292.157 L 941.575,-292.235 L 941.811,-292.3
 L 942.058,-292.35 L 942.315,-292.386 L 942.581,-292.407 L 942.858,-292.414 L 943.128,-292.407 L 943.388,-292.385
 L 943.638,-292.349 L 943.879,-292.298 L 944.11,-292.233 L 944.331,-292.153 L 944.543,-292.059 L 944.745,-291.95
 L 944.937,-291.826 L 945.119,-291.688 L 945.292,-291.536 L 945.455,-291.369 L 945.609,-291.188 L 945.753,-290.992
 L 945.887,-290.781 L 946.011,-290.556 L 946.127,-290.315 L 946.235,-290.056 L 946.336,-289.779 L 946.429,-289.485
 L 946.515,-289.172 L 946.594,-288.842 L 946.665,-288.494 L 946.728,-288.129 L 946.784,-287.745 L 946.833,-287.344
 L 946.874,-286.924 L 946.908,-286.487 L 946.934,-286.033 L 946.952,-285.56 L 946.964,-285.07 L 946.967,-284.562
 L 946.963,-284.071 L 946.952,-283.597 L 946.932,-283.139 L 946.905,-282.697 L 946.869,-282.271 L 946.826,-281.861
 L 946.775,-281.467 L 946.716,-281.09 L 946.65,-280.728 L 946.575,-280.383 L 946.493,-280.053 L 946.403,-279.74
 L 946.305,-279.443 L 946.199,-279.162 L 946.085,-278.897 L 945.964,-278.648 L 945.834,-278.415 L 945.695,-278.197
 L 945.547,-277.994 L 945.39,-277.806 L 945.224,-277.633 L 945.049,-277.475 L 944.865,-277.332 L 944.672,-277.204
 L 944.47,-277.091 L 944.259,-276.993 L 944.039,-276.91 L 943.81,-276.843 L 943.572,-276.79 L 943.325,-276.752
 L 943.069,-276.73 L 942.804,-276.722 z
M 218.269,-274.739 L 218.662,-274.768 L 219.042,-274.817 L 219.41,-274.886 L 219.766,-274.975 L 220.109,-275.084
 L 220.439,-275.212 L 220.757,-275.359 L 221.062,-275.527 L 221.355,-275.714 L 221.635,-275.921 L 221.902,-276.148
 L 222.157,-276.394 L 222.4,-276.66 L 222.63,-276.946 L 222.847,-277.251 L 223.052,-277.576 L 223.243,-277.917
 L 223.421,-278.277 L 223.586,-278.654 L 223.738,-279.049 L 223.876,-279.462 L 224.001,-279.892 L 224.113,-280.34
 L 224.212,-280.806 L 224.298,-281.289 L 224.371,-281.791 L 224.43,-282.309 L 224.476,-282.846 L 224.509,-283.4
 L 224.529,-283.972 L 224.536,-284.562 L 224.529,-285.161 L 224.511,-285.742 L 224.479,-286.304 L 224.435,-286.847
 L 224.379,-287.372 L 224.31,-287.878 L 224.228,-288.365 L 224.134,-288.834 L 224.027,-289.284 L 223.908,-289.715
 L 223.776,-290.128 L 223.632,-290.522 L 223.475,-290.898 L 223.305,-291.255 L 223.123,-291.593 L 222.928,-291.912
 L 222.721,-292.213 L 222.499,-292.494 L 222.264,-292.756 L 222.014,-292.998 L 221.751,-293.221 L 221.474,-293.425
 L 221.184,-293.609 L 220.879,-293.774 L 220.561,-293.919 L 220.228,-294.045 L 219.882,-294.152 L 219.522,-294.239
 L 219.149,-294.307 L 218.761,-294.356 L 218.36,-294.385 L 217.944,-294.394 L 217.518,-294.385 L 217.106,-294.356
 L 216.708,-294.308 L 216.325,-294.241 L 215.957,-294.155 L 215.603,-294.049 L 215.263,-293.925 L 214.939,-293.781
 L 214.628,-293.618 L 214.333,-293.435 L 214.052,-293.234 L 213.785,-293.014 L 213.533,-292.774 L 213.296,-292.515
 L 213.073,-292.237 L 212.865,-291.94 L 212.671,-291.623 L 212.489,-291.287 L 212.319,-290.932 L 212.162,-290.558
 L 212.018,-290.164 L 211.886,-289.751 L 211.767,-289.319 L 211.66,-288.868 L 211.566,-288.397 L 211.484,-287.907
 L 211.415,-287.398 L 211.358,-286.869 L 211.315,-286.321 L 211.283,-285.754 L 211.264,-285.167 L 211.258,-284.562
 L 211.264,-283.969 L 211.284,-283.394 L 211.316,-282.837 L 211.361,-282.298 L 211.42,-281.778 L 211.491,-281.275
 L 211.575,-280.79 L 211.672,-280.323 L 211.782,-279.875 L 211.904,-279.444 L 212.04,-279.031 L 212.189,-278.636
 L 212.35,-278.26 L 212.525,-277.901 L 212.712,-277.56 L 212.913,-277.238 L 213.126,-276.934 L 213.352,-276.65
 L 213.591,-276.385 L 213.843,-276.14 L 214.107,-275.915 L 214.384,-275.709 L 214.675,-275.523 L 214.978,-275.356
 L 215.293,-275.209 L 215.622,-275.082 L 215.963,-274.974 L 216.318,-274.886 L 216.685,-274.817 L 217.065,-274.768
 L 217.457,-274.739 L 217.863,-274.729 z
M 217.623,-276.73 L 217.366,-276.752 L 217.118,-276.789 L 216.878,-276.84 L 216.648,-276.906 L 216.428,-276.988
 L 216.216,-277.083 L 216.013,-277.194 L 215.82,-277.319 L 215.636,-277.459 L 215.461,-277.613 L 215.295,-277.783
 L 215.138,-277.967 L 214.991,-278.166 L 214.852,-278.379 L 214.723,-278.608 L 214.603,-278.852 L 214.49,-279.113
 L 214.384,-279.391 L 214.287,-279.687 L 214.198,-279.999 L 214.116,-280.329 L 214.042,-280.675 L 213.976,-281.039
 L 213.917,-281.419 L 213.867,-281.817 L 213.824,-282.232 L 213.789,-282.664 L 213.761,-283.113 L 213.742,-283.579
 L 213.73,-284.062 L 213.726,-284.562 L 213.73,-285.076 L 213.742,-285.572 L 213.761,-286.05 L 213.788,-286.509
 L 213.822,-286.95 L 213.865,-287.373 L 213.915,-287.777 L 213.972,-288.162 L 214.038,-288.53 L 214.111,-288.878
 L 214.191,-289.208 L 214.279,-289.52 L 214.376,-289.814 L 214.479,-290.089 L 214.591,-290.345 L 214.71,-290.583
 L 214.838,-290.805 L 214.975,-291.012 L 215.123,-291.205 L 215.281,-291.384 L 215.448,-291.549 L 215.626,-291.699
 L 215.813,-291.835 L 216.01,-291.956 L 216.217,-292.064 L 216.434,-292.157 L 216.661,-292.235 L 216.898,-292.3
 L 217.145,-292.35 L 217.401,-292.386 L 217.668,-292.407 L 217.944,-292.414 L 218.214,-292.407 L 218.474,-292.385
 L 218.725,-292.349 L 218.965,-292.298 L 219.196,-292.233 L 219.418,-292.153 L 219.629,-292.059 L 219.831,-291.95
 L 220.023,-291.826 L 220.206,-291.688 L 220.379,-291.536 L 220.542,-291.369 L 220.695,-291.188 L 220.839,-290.992
 L 220.973,-290.781 L 221.098,-290.556 L 221.213,-290.315 L 221.322,-290.056 L 221.423,-289.779 L 221.516,-289.485
 L 221.602,-289.172 L 221.68,-288.842 L 221.751,-288.494 L 221.815,-288.129 L 221.871,-287.745 L 221.919,-287.344
 L 221.96,-286.924 L 221.994,-286.487 L 222.02,-286.033 L 222.039,-285.56 L 222.05,-285.07 L 222.054,-284.562
 L 222.05,-284.071 L 222.038,-283.597 L 222.019,-283.139 L 221.991,-282.697 L 221.956,-282.271 L 221.913,-281.861
 L 221.862,-281.467 L 221.803,-281.09 L 221.736,-280.728 L 221.662,-280.383 L 221.579,-280.053 L 221.489,-279.74
 L 221.391,-279.443 L 221.285,-279.162 L 221.172,-278.897 L 221.05,-278.648 L 220.92,-278.415 L 220.781,-278.197
 L 220.633,-277.994 L 220.476,-277.806 L 220.31,-277.633 L 220.135,-277.475 L 219.951,-277.332 L 219.758,-277.204
 L 219.556,-277.091 L 219.345,-276.993 L 219.125,-276.91 L 218.896,-276.843 L 218.658,-276.79 L 218.411,-276.752
 L 218.155,-276.73 L 217.89,-276.722 z
M 964.224,-277.075 L 954.255,-277.075 L 954.308,-277.194 L 954.365,-277.314 L 954.426,-277.434 L 954.491,-277.554
 L 954.56,-277.676 L 954.633,-277.798 L 954.71,-277.92 L 954.791,-278.043 L 954.876,-278.167 L 954.965,-278.291
 L 955.058,-278.416 L 955.156,-278.541 L 955.257,-278.667 L 955.362,-278.794 L 955.471,-278.921 L 955.584,-279.048
 L 955.702,-279.177 L 955.825,-279.308 L 955.953,-279.441 L 956.085,-279.576 L 956.223,-279.713 L 956.366,-279.852
 L 956.513,-279.992 L 956.666,-280.135 L 956.824,-280.28 L 956.986,-280.426 L 957.154,-280.575 L 957.326,-280.725
 L 957.504,-280.878 L 957.686,-281.032 L 957.874,-281.189 L 958.066,-281.347 L 958.414,-281.631 L 958.746,-281.905
 L 959.065,-282.169 L 959.369,-282.425 L 959.659,-282.67 L 959.935,-282.907 L 960.196,-283.134 L 960.443,-283.351
 L 960.676,-283.559 L 960.894,-283.758 L 961.099,-283.947 L 961.288,-284.127 L 961.464,-284.297 L 961.625,-284.458
 L 961.772,-284.609 L 961.905,-284.751 L 962.028,-284.889 L 962.148,-285.026 L 962.264,-285.163 L 962.376,-285.301
 L 962.484,-285.438 L 962.588,-285.575 L 962.688,-285.713 L 962.784,-285.85 L 962.877,-285.987 L 962.966,-286.125
 L 963.051,-286.262 L 963.132,-286.399 L 963.209,-286.537 L 963.282,-286.674 L 963.351,-286.811 L 963.417,-286.949
 L 963.478,-287.086 L 963.536,-287.223 L 963.59,-287.361 L 963.639,-287.499 L 963.685,-287.637 L 963.727,-287.774
 L 963.765,-287.912 L 963.798,-288.051 L 963.828,-288.189 L 963.854,-288.327 L 963.876,-288.465 L 963.894,-288.604
 L 963.908,-288.743 L 963.917,-288.881 L 963.923,-289.02 L 963.925,-289.159 L 963.919,-289.468 L 963.901,-289.769
 L 963.871,-290.06 L 963.828,-290.342 L 963.774,-290.616 L 963.707,-290.88 L 963.628,-291.135 L 963.537,-291.382
 L 963.434,-291.619 L 963.319,-291.848 L 963.191,-292.068 L 963.052,-292.278 L 962.9,-292.48 L 962.736,-292.673
 L 962.561,-292.857 L 962.372,-293.031 L 962.173,-293.196 L 961.963,-293.351 L 961.743,-293.495 L 961.513,-293.628
 L 961.271,-293.75 L 961.02,-293.862 L 960.758,-293.963 L 960.486,-294.054 L 960.203,-294.133 L 959.91,-294.203
 L 959.606,-294.261 L 959.292,-294.309 L 958.967,-294.346 L 958.632,-294.373 L 958.287,-294.389 L 957.931,-294.394
 L 957.606,-294.389 L 957.288,-294.373 L 956.978,-294.347 L 956.675,-294.31 L 956.38,-294.262 L 956.092,-294.204
 L 955.812,-294.135 L 955.539,-294.055 L 955.273,-293.965 L 955.015,-293.865 L 954.765,-293.753 L 954.522,-293.631
 L 954.286,-293.499 L 954.058,-293.356 L 953.838,-293.202 L 953.625,-293.038 L 953.421,-292.865 L 953.228,-292.684
 L 953.046,-292.497 L 952.875,-292.301 L 952.715,-292.099 L 952.566,-291.889 L 952.428,-291.672 L 952.301,-291.448
 L 952.184,-291.216 L 952.079,-290.977 L 951.985,-290.731 L 951.902,-290.477 L 951.829,-290.216 L 951.768,-289.948
 L 951.718,-289.673 L 951.678,-289.39 L 954.174,-289.159 L 954.199,-289.348 L 954.231,-289.532 L 954.269,-289.71
 L 954.314,-289.883 L 954.366,-290.05 L 954.423,-290.212 L 954.488,-290.369 L 954.559,-290.521 L 954.636,-290.667
 L 954.72,-290.807 L 954.811,-290.943 L 954.908,-291.073 L 955.011,-291.197 L 955.121,-291.317 L 955.238,-291.431
 L 955.361,-291.539 L 955.489,-291.642 L 955.622,-291.738 L 955.759,-291.828 L 955.9,-291.91 L 956.046,-291.986
 L 956.196,-292.056 L 956.35,-292.119 L 956.508,-292.175 L 956.671,-292.225 L 956.838,-292.268 L 957.01,-292.304
 L 957.185,-292.334 L 957.365,-292.357 L 957.549,-292.374 L 957.738,-292.384 L 957.931,-292.387 L 958.133,-292.384
 L 958.33,-292.374 L 958.521,-292.357 L 958.706,-292.333 L 958.886,-292.302 L 959.061,-292.265 L 959.229,-292.221
 L 959.392,-292.17 L 959.55,-292.113 L 959.701,-292.048 L 959.847,-291.977 L 959.988,-291.899 L 960.123,-291.814
 L 960.252,-291.723 L 960.376,-291.624 L 960.494,-291.519 L 960.606,-291.408 L 960.71,-291.291 L 960.808,-291.169
 L 960.898,-291.041 L 960.98,-290.908 L 961.056,-290.769 L 961.125,-290.625 L 961.186,-290.475 L 961.24,-290.32
 L 961.287,-290.159 L 961.326,-289.992 L 961.359,-289.82 L 961.384,-289.643 L 961.402,-289.46 L 961.413,-289.272
 L 961.416,-289.078 L 961.414,-288.933 L 961.408,-288.79 L 961.398,-288.649 L 961.383,-288.51 L 961.364,-288.373
 L 961.341,-288.237 L 961.314,-288.104 L 961.282,-287.973 L 961.247,-287.843 L 961.207,-287.715 L 961.163,-287.59
 L 961.115,-287.466 L 961.063,-287.344 L 961.006,-287.224 L 960.946,-287.105 L 960.881,-286.989 L 960.812,-286.874
 L 960.742,-286.76 L 960.668,-286.646 L 960.592,-286.533 L 960.513,-286.421 L 960.432,-286.309 L 960.348,-286.198
 L 960.262,-286.087 L 960.173,-285.977 L 960.081,-285.868 L 959.987,-285.76 L 959.89,-285.652 L 959.791,-285.544
 L 959.689,-285.438 L 959.584,-285.331 L 959.477,-285.226 L 959.368,-285.121 L 959.257,-285.016 L 959.144,-284.911
 L 959.03,-284.806 L 958.914,-284.7 L 958.796,-284.595 L 958.677,-284.49 L 958.556,-284.385 L 958.434,-284.28
 L 958.31,-284.175 L 958.184,-284.07 L 958.057,-283.965 L 957.928,-283.86 L 957.797,-283.755 L 957.665,-283.649
 L 957.531,-283.544 L 957.396,-283.439 L 957.261,-283.332 L 957.126,-283.224 L 956.99,-283.115 L 956.855,-283.005
 L 956.719,-282.894 L 956.583,-282.781 L 956.447,-282.668 L 956.311,-282.553 L 956.175,-282.438 L 956.038,-282.321
 L 955.902,-282.203 L 955.765,-282.084 L 955.628,-281.964 L 955.491,-281.843 L 955.354,-281.72 L 955.217,-281.596
 L 955.081,-281.471 L 954.946,-281.343 L 954.811,-281.214 L 954.677,-281.083 L 954.544,-280.95 L 954.412,-280.816
 L 954.281,-280.679 L 954.15,-280.541 L 954.02,-280.401 L 953.891,-280.259 L 953.763,-280.116 L 953.636,-279.97
 L 953.509,-279.823 L 953.383,-279.674 L 953.258,-279.523 L 953.135,-279.37 L 953.014,-279.214 L 952.895,-279.055
 L 952.779,-278.893 L 952.665,-278.728 L 952.554,-278.56 L 952.445,-278.39 L 952.338,-278.216 L 952.234,-278.039
 L 952.132,-277.86 L 952.032,-277.678 L 951.935,-277.492 L 951.84,-277.304 L 951.748,-277.113 L 951.658,-276.919
 L 951.57,-276.722 L 951.57,-275 L 964.224,-275 z
M 191.949,-279.326 L 194.634,-279.326 L 194.634,-281.252 L 191.949,-281.252 L 191.949,-294.11 L 189.385,-294.11
 L 180.637,-281.225 L 180.637,-279.326 L 189.643,-279.326 L 189.643,-275 L 191.949,-275 z
M 182.889,-281.252 L 183.106,-281.524 L 183.838,-282.527 L 188.734,-289.742 L 188.757,-289.776 L 188.781,-289.813
 L 188.807,-289.852 L 188.833,-289.895 L 188.862,-289.941 L 188.891,-289.989 L 188.922,-290.041 L 188.955,-290.095
 L 188.988,-290.153 L 189.024,-290.213 L 189.06,-290.276 L 189.098,-290.343 L 189.137,-290.412 L 189.178,-290.484
 L 189.22,-290.559 L 189.263,-290.638 L 189.306,-290.715 L 189.346,-290.788 L 189.384,-290.857 L 189.419,-290.922
 L 189.452,-290.982 L 189.482,-291.037 L 189.509,-291.089 L 189.534,-291.136 L 189.557,-291.179 L 189.577,-291.217
 L 189.594,-291.251 L 189.609,-291.281 L 189.621,-291.306 L 189.631,-291.327 L 189.638,-291.344 L 189.643,-291.356
 L 189.643,-281.252 z
M 1476.95,-279.326 L 1479.63,-279.326 L 1479.63,-281.252 L 1476.95,-281.252 L 1476.95,-294.11 L 1474.39,-294.11
 L 1465.64,-281.225 L 1465.64,-279.326 L 1474.64,-279.326 L 1474.64,-275 L 1476.95,-275 z
M 1467.89,-281.252 L 1468.11,-281.524 L 1468.84,-282.527 L 1473.73,-289.742 L 1473.76,-289.776 L 1473.78,-289.813
 L 1473.81,-289.852 L 1473.83,-289.895 L 1473.86,-289.941 L 1473.89,-289.989 L 1473.92,-290.041 L 1473.95,-290.095
 L 1473.99,-290.153 L 1474.02,-290.213 L 1474.06,-290.276 L 1474.1,-290.343 L 1474.14,-290.412 L 1474.18,-290.484
 L 1474.22,-290.559 L 1474.26,-290.638 L 1474.31,-290.715 L 1474.35,-290.788 L 1474.38,-290.857 L 1474.42,-290.922
 L 1474.45,-290.982 L 1474.48,-291.037 L 1474.51,-291.089 L 1474.53,-291.136 L 1474.56,-291.179 L 1474.58,-291.217
 L 1474.59,-291.251 L 1474.61,-291.281 L 1474.62,-291.306 L 1474.63,-291.327 L 1474.64,-291.344 L 1474.64,-291.356
 L 1474.64,-281.252 z
M 934.091,-277.075 L 929.44,-277.075 L 929.44,-294.11 L 927.188,-294.11 L 922.672,-291.004 L 922.672,-288.698
 L 926.985,-291.777 L 926.985,-277.075 L 922.116,-277.075 L 922.116,-275 L 934.091,-275 z
M 207.035,-279.326 L 209.721,-279.326 L 209.721,-281.252 L 207.035,-281.252 L 207.035,-294.11 L 204.472,-294.11
 L 195.724,-281.225 L 195.724,-279.326 L 204.73,-279.326 L 204.73,-275 L 207.035,-275 z
M 197.975,-281.252 L 198.192,-281.524 L 198.925,-282.527 L 203.821,-289.742 L 203.843,-289.776 L 203.868,-289.813
 L 203.893,-289.852 L 203.92,-289.895 L 203.948,-289.941 L 203.978,-289.989 L 204.009,-290.041 L 204.041,-290.095
 L 204.075,-290.153 L 204.11,-290.213 L 204.147,-290.276 L 204.184,-290.343 L 204.224,-290.412 L 204.264,-290.484
 L 204.306,-290.559 L 204.35,-290.638 L 204.393,-290.715 L 204.433,-290.788 L 204.471,-290.857 L 204.506,-290.922
 L 204.538,-290.982 L 204.568,-291.037 L 204.596,-291.089 L 204.621,-291.136 L 204.643,-291.179 L 204.663,-291.217
 L 204.681,-291.251 L 204.696,-291.281 L 204.708,-291.306 L 204.718,-291.327 L 204.725,-291.344 L 204.73,-291.356
 L 204.73,-281.252 z
M 1,-181 L 1,-260 L 440,-260 L 440,-181 L 401,-181 L 401,-200
 L 400,-200 L 400,-181 L 41,-181 L 41,-200 L 40,-200 L 40,-181
 z
M 203.499,-194.736 L 203.845,-194.756 L 204.182,-194.79 L 204.509,-194.838 L 204.826,-194.9 L 205.134,-194.975
 L 205.432,-195.064 L 205.72,-195.166 L 205.998,-195.282 L 206.266,-195.412 L 206.525,-195.556 L 206.774,-195.713
 L 207.013,-195.884 L 207.243,-196.068 L 207.463,-196.266 L 207.673,-196.478 L 207.871,-196.702 L 208.057,-196.936
 L 208.23,-197.179 L 208.39,-197.433 L 208.538,-197.696 L 208.673,-197.97 L 208.794,-198.253 L 208.903,-198.547
 L 208.999,-198.85 L 209.083,-199.163 L 209.153,-199.487 L 209.211,-199.82 L 209.256,-200.163 L 209.288,-200.516
 L 209.307,-200.879 L 209.314,-201.252 L 209.307,-201.597 L 209.289,-201.933 L 209.259,-202.26 L 209.216,-202.578
 L 209.162,-202.887 L 209.095,-203.188 L 209.016,-203.479 L 208.925,-203.761 L 208.822,-204.035 L 208.707,-204.3
 L 208.579,-204.555 L 208.44,-204.802 L 208.288,-205.04 L 208.124,-205.269 L 207.949,-205.49 L 207.761,-205.701
 L 207.562,-205.901 L 207.355,-206.089 L 207.14,-206.263 L 206.916,-206.425 L 206.683,-206.573 L 206.442,-206.709
 L 206.193,-206.832 L 205.935,-206.942 L 205.668,-207.039 L 205.393,-207.123 L 205.109,-207.194 L 204.817,-207.252
 L 204.516,-207.297 L 204.207,-207.33 L 203.889,-207.349 L 203.563,-207.355 L 203.37,-207.353 L 203.179,-207.345
 L 202.991,-207.333 L 202.805,-207.315 L 202.623,-207.292 L 202.443,-207.265 L 202.266,-207.232 L 202.092,-207.194
 L 201.92,-207.152 L 201.751,-207.104 L 201.585,-207.051 L 201.422,-206.993 L 201.261,-206.93 L 201.104,-206.862
 L 200.949,-206.789 L 200.796,-206.711 L 200.648,-206.628 L 200.503,-206.541 L 200.363,-206.449 L 200.227,-206.352
 L 200.095,-206.251 L 199.967,-206.145 L 199.844,-206.035 L 199.725,-205.919 L 199.61,-205.8 L 199.499,-205.675
 L 199.393,-205.547 L 199.291,-205.413 L 199.193,-205.275 L 199.099,-205.132 L 199.01,-204.985 L 198.925,-204.833
 L 198.929,-205.287 L 198.943,-205.728 L 198.965,-206.155 L 198.996,-206.568 L 199.037,-206.968 L 199.086,-207.354
 L 199.144,-207.727 L 199.211,-208.086 L 199.287,-208.431 L 199.372,-208.763 L 199.466,-209.081 L 199.569,-209.386
 L 199.681,-209.677 L 199.802,-209.954 L 199.932,-210.218 L 200.071,-210.468 L 200.218,-210.704 L 200.372,-210.924
 L 200.534,-211.129 L 200.703,-211.319 L 200.879,-211.494 L 201.063,-211.654 L 201.254,-211.798 L 201.452,-211.928
 L 201.658,-212.042 L 201.871,-212.141 L 202.092,-212.224 L 202.32,-212.293 L 202.555,-212.346 L 202.798,-212.384
 L 203.048,-212.407 L 203.305,-212.414 L 203.602,-212.405 L 203.886,-212.378 L 204.156,-212.332 L 204.412,-212.268
 L 204.656,-212.186 L 204.886,-212.086 L 205.103,-211.968 L 205.306,-211.831 L 205.496,-211.676 L 205.672,-211.503
 L 205.836,-211.312 L 205.986,-211.102 L 206.122,-210.874 L 206.246,-210.628 L 206.355,-210.364 L 206.452,-210.082
 L 208.785,-210.502 L 208.631,-210.973 L 208.453,-211.414 L 208.25,-211.825 L 208.022,-212.205 L 207.769,-212.555
 L 207.49,-212.874 L 207.187,-213.163 L 206.859,-213.421 L 206.506,-213.649 L 206.127,-213.847 L 205.724,-214.014
 L 205.296,-214.151 L 204.842,-214.258 L 204.364,-214.334 L 203.861,-214.379 L 203.333,-214.394 L 202.928,-214.384
 L 202.535,-214.353 L 202.155,-214.301 L 201.786,-214.228 L 201.428,-214.135 L 201.083,-214.021 L 200.749,-213.886
 L 200.427,-213.73 L 200.116,-213.553 L 199.818,-213.356 L 199.531,-213.138 L 199.256,-212.899 L 198.993,-212.639
 L 198.741,-212.359 L 198.502,-212.058 L 198.274,-211.736 L 198.059,-211.395 L 197.857,-211.035 L 197.67,-210.658
 L 197.496,-210.263 L 197.337,-209.849 L 197.191,-209.418 L 197.059,-208.969 L 196.941,-208.501 L 196.837,-208.016
 L 196.747,-207.513 L 196.671,-206.991 L 196.608,-206.452 L 196.56,-205.894 L 196.525,-205.319 L 196.504,-204.725
 L 196.497,-204.114 L 196.504,-203.549 L 196.524,-203.002 L 196.557,-202.472 L 196.604,-201.958 L 196.664,-201.462
 L 196.737,-200.983 L 196.824,-200.521 L 196.924,-200.076 L 197.038,-199.648 L 197.165,-199.237 L 197.305,-198.843
 L 197.458,-198.466 L 197.625,-198.106 L 197.805,-197.763 L 197.999,-197.438 L 198.206,-197.129 L 198.425,-196.839
 L 198.657,-196.567 L 198.9,-196.313 L 199.155,-196.079 L 199.422,-195.863 L 199.701,-195.666 L 199.992,-195.488
 L 200.295,-195.329 L 200.609,-195.188 L 200.935,-195.066 L 201.274,-194.963 L 201.624,-194.879 L 201.986,-194.813
 L 202.359,-194.766 L 202.745,-194.738 L 203.143,-194.729 z
M 202.85,-196.701 L 202.644,-196.717 L 202.442,-196.745 L 202.245,-196.784 L 202.053,-196.833 L 201.866,-196.894
 L 201.684,-196.965 L 201.507,-197.048 L 201.334,-197.142 L 201.166,-197.246 L 201.003,-197.362 L 200.845,-197.489
 L 200.692,-197.626 L 200.543,-197.775 L 200.399,-197.935 L 200.261,-198.106 L 200.128,-198.285 L 200.005,-198.471
 L 199.89,-198.663 L 199.783,-198.861 L 199.685,-199.066 L 199.595,-199.276 L 199.514,-199.493 L 199.442,-199.716
 L 199.378,-199.946 L 199.322,-200.182 L 199.276,-200.423 L 199.237,-200.672 L 199.207,-200.926 L 199.186,-201.187
 L 199.173,-201.454 L 199.169,-201.727 L 199.173,-201.943 L 199.185,-202.153 L 199.206,-202.357 L 199.235,-202.555
 L 199.272,-202.747 L 199.317,-202.933 L 199.37,-203.114 L 199.432,-203.288 L 199.501,-203.457 L 199.579,-203.62
 L 199.666,-203.777 L 199.76,-203.928 L 199.863,-204.073 L 199.974,-204.212 L 200.093,-204.346 L 200.22,-204.473
 L 200.354,-204.594 L 200.493,-204.707 L 200.637,-204.812 L 200.787,-204.909 L 200.941,-204.999 L 201.101,-205.081
 L 201.266,-205.155 L 201.436,-205.221 L 201.611,-205.279 L 201.791,-205.33 L 201.976,-205.373 L 202.167,-205.408
 L 202.362,-205.435 L 202.563,-205.455 L 202.769,-205.466 L 202.98,-205.47 L 203.204,-205.466 L 203.422,-205.453
 L 203.633,-205.431 L 203.839,-205.4 L 204.038,-205.36 L 204.23,-205.312 L 204.417,-205.255 L 204.597,-205.189
 L 204.771,-205.114 L 204.939,-205.03 L 205.101,-204.938 L 205.256,-204.837 L 205.405,-204.727 L 205.548,-204.608
 L 205.684,-204.481 L 205.815,-204.344 L 205.938,-204.2 L 206.053,-204.048 L 206.16,-203.889 L 206.26,-203.722
 L 206.351,-203.548 L 206.434,-203.367 L 206.51,-203.178 L 206.577,-202.981 L 206.637,-202.778 L 206.689,-202.567
 L 206.732,-202.348 L 206.768,-202.122 L 206.796,-201.889 L 206.816,-201.648 L 206.828,-201.399 L 206.832,-201.144
 L 206.828,-200.888 L 206.816,-200.639 L 206.796,-200.397 L 206.769,-200.162 L 206.734,-199.934 L 206.691,-199.712
 L 206.64,-199.498 L 206.581,-199.291 L 206.514,-199.09 L 206.44,-198.897 L 206.357,-198.71 L 206.267,-198.531
 L 206.169,-198.358 L 206.063,-198.193 L 205.949,-198.034 L 205.828,-197.882 L 205.699,-197.738 L 205.565,-197.604
 L 205.425,-197.479 L 205.279,-197.363 L 205.127,-197.256 L 204.968,-197.159 L 204.804,-197.071 L 204.634,-196.992
 L 204.459,-196.923 L 204.277,-196.862 L 204.089,-196.811 L 203.895,-196.77 L 203.696,-196.737 L 203.49,-196.714
 L 203.279,-196.7 L 203.061,-196.695 z
M 188.128,-194.734 L 188.502,-194.751 L 188.863,-194.78 L 189.214,-194.82 L 189.553,-194.871 L 189.882,-194.933
 L 190.198,-195.007 L 190.504,-195.092 L 190.799,-195.188 L 191.082,-195.296 L 191.354,-195.415 L 191.615,-195.545
 L 191.864,-195.687 L 192.102,-195.84 L 192.329,-196.004 L 192.545,-196.18 L 192.749,-196.366 L 192.939,-196.561
 L 193.117,-196.766 L 193.281,-196.98 L 193.432,-197.204 L 193.57,-197.436 L 193.695,-197.678 L 193.807,-197.93
 L 193.905,-198.19 L 193.99,-198.46 L 194.063,-198.739 L 194.122,-199.028 L 194.168,-199.326 L 194.201,-199.633
 L 194.22,-199.95 L 194.227,-200.276 L 194.222,-200.502 L 194.208,-200.724 L 194.185,-200.94 L 194.152,-201.152
 L 194.11,-201.359 L 194.059,-201.561 L 193.999,-201.758 L 193.929,-201.951 L 193.849,-202.138 L 193.761,-202.321
 L 193.663,-202.498 L 193.556,-202.671 L 193.439,-202.839 L 193.313,-203.002 L 193.178,-203.16 L 193.033,-203.314
 L 192.881,-203.461 L 192.72,-203.6 L 192.552,-203.732 L 192.377,-203.856 L 192.195,-203.973 L 192.005,-204.082
 L 191.807,-204.183 L 191.603,-204.277 L 191.39,-204.363 L 191.171,-204.441 L 190.944,-204.512 L 190.709,-204.575
 L 190.467,-204.631 L 190.218,-204.678 L 189.961,-204.719 L 189.697,-204.751 L 189.697,-204.806 L 189.938,-204.859
 L 190.171,-204.919 L 190.397,-204.984 L 190.616,-205.055 L 190.827,-205.132 L 191.031,-205.215 L 191.228,-205.303
 L 191.418,-205.397 L 191.6,-205.497 L 191.776,-205.603 L 191.943,-205.715 L 192.104,-205.832 L 192.258,-205.955
 L 192.404,-206.084 L 192.543,-206.218 L 192.674,-206.359 L 192.798,-206.505 L 192.914,-206.656 L 193.022,-206.812
 L 193.122,-206.974 L 193.214,-207.142 L 193.298,-207.314 L 193.374,-207.492 L 193.442,-207.676 L 193.502,-207.865
 L 193.554,-208.059 L 193.598,-208.258 L 193.634,-208.463 L 193.662,-208.673 L 193.682,-208.889 L 193.694,-209.109
 L 193.698,-209.336 L 193.692,-209.63 L 193.673,-209.916 L 193.642,-210.194 L 193.599,-210.463 L 193.543,-210.725
 L 193.474,-210.978 L 193.393,-211.223 L 193.3,-211.46 L 193.194,-211.688 L 193.076,-211.909 L 192.945,-212.121
 L 192.802,-212.325 L 192.646,-212.521 L 192.478,-212.708 L 192.298,-212.887 L 192.105,-213.058 L 191.9,-213.22
 L 191.686,-213.372 L 191.462,-213.512 L 191.228,-213.643 L 190.983,-213.763 L 190.729,-213.873 L 190.465,-213.972
 L 190.191,-214.06 L 189.906,-214.139 L 189.612,-214.207 L 189.308,-214.264 L 188.993,-214.311 L 188.669,-214.347
 L 188.334,-214.374 L 187.99,-214.389 L 187.636,-214.394 L 187.31,-214.389 L 186.993,-214.374 L 186.683,-214.348
 L 186.38,-214.312 L 186.085,-214.266 L 185.797,-214.209 L 185.516,-214.143 L 185.244,-214.065 L 184.978,-213.978
 L 184.72,-213.88 L 184.47,-213.773 L 184.227,-213.654 L 183.991,-213.526 L 183.763,-213.387 L 183.543,-213.238
 L 183.33,-213.079 L 183.126,-212.91 L 182.933,-212.734 L 182.751,-212.549 L 182.58,-212.357 L 182.42,-212.156
 L 182.271,-211.947 L 182.133,-211.73 L 182.006,-211.506 L 181.889,-211.273 L 181.784,-211.032 L 181.69,-210.783
 L 181.607,-210.526 L 181.534,-210.261 L 181.473,-209.987 L 181.423,-209.706 L 181.383,-209.417 L 183.838,-209.227
 L 183.862,-209.413 L 183.892,-209.593 L 183.929,-209.768 L 183.972,-209.937 L 184.021,-210.102 L 184.078,-210.261
 L 184.14,-210.415 L 184.209,-210.563 L 184.285,-210.706 L 184.367,-210.844 L 184.456,-210.977 L 184.552,-211.104
 L 184.653,-211.226 L 184.762,-211.342 L 184.876,-211.454 L 184.998,-211.56 L 185.125,-211.66 L 185.257,-211.754
 L 185.393,-211.841 L 185.535,-211.922 L 185.681,-211.996 L 185.832,-212.064 L 185.988,-212.125 L 186.149,-212.18
 L 186.314,-212.229 L 186.485,-212.271 L 186.66,-212.306 L 186.84,-212.335 L 187.025,-212.358 L 187.215,-212.374
 L 187.409,-212.384 L 187.609,-212.387 L 187.827,-212.384 L 188.039,-212.373 L 188.244,-212.356 L 188.442,-212.332
 L 188.634,-212.3 L 188.818,-212.262 L 188.996,-212.217 L 189.166,-212.165 L 189.33,-212.106 L 189.488,-212.04
 L 189.638,-211.967 L 189.781,-211.887 L 189.918,-211.801 L 190.048,-211.707 L 190.171,-211.606 L 190.287,-211.499
 L 190.396,-211.385 L 190.498,-211.267 L 190.594,-211.143 L 190.682,-211.014 L 190.763,-210.881 L 190.837,-210.742
 L 190.904,-210.598 L 190.963,-210.449 L 191.016,-210.296 L 191.062,-210.137 L 191.101,-209.973 L 191.133,-209.804
 L 191.157,-209.63 L 191.175,-209.451 L 191.185,-209.267 L 191.189,-209.078 L 191.185,-208.887 L 191.172,-208.702
 L 191.15,-208.522 L 191.12,-208.347 L 191.081,-208.177 L 191.034,-208.013 L 190.977,-207.854 L 190.913,-207.7
 L 190.839,-207.551 L 190.757,-207.407 L 190.667,-207.269 L 190.567,-207.136 L 190.459,-207.009 L 190.343,-206.886
 L 190.217,-206.769 L 190.084,-206.657 L 189.942,-206.551 L 189.793,-206.452 L 189.637,-206.36 L 189.475,-206.274
 L 189.305,-206.196 L 189.128,-206.124 L 188.944,-206.059 L 188.753,-206.001 L 188.555,-205.95 L 188.35,-205.905
 L 188.138,-205.868 L 187.918,-205.837 L 187.692,-205.813 L 187.459,-205.796 L 187.219,-205.786 L 186.971,-205.782
 L 185.642,-205.782 L 185.642,-203.666 L 187.025,-203.666 L 187.304,-203.663 L 187.575,-203.653 L 187.837,-203.636
 L 188.091,-203.612 L 188.337,-203.581 L 188.574,-203.543 L 188.803,-203.499 L 189.024,-203.448 L 189.237,-203.39
 L 189.441,-203.325 L 189.636,-203.253 L 189.824,-203.174 L 190.003,-203.089 L 190.174,-202.997 L 190.336,-202.898
 L 190.491,-202.792 L 190.636,-202.68 L 190.772,-202.562 L 190.898,-202.439 L 191.016,-202.311 L 191.124,-202.178
 L 191.222,-202.039 L 191.311,-201.895 L 191.391,-201.746 L 191.461,-201.591 L 191.522,-201.431 L 191.574,-201.265
 L 191.616,-201.094 L 191.649,-200.918 L 191.672,-200.736 L 191.686,-200.549 L 191.691,-200.357 L 191.687,-200.137
 L 191.674,-199.923 L 191.654,-199.717 L 191.625,-199.517 L 191.588,-199.324 L 191.543,-199.138 L 191.49,-198.959
 L 191.428,-198.787 L 191.358,-198.622 L 191.28,-198.464 L 191.194,-198.312 L 191.099,-198.168 L 190.997,-198.03
 L 190.886,-197.899 L 190.767,-197.775 L 190.64,-197.658 L 190.505,-197.548 L 190.364,-197.445 L 190.218,-197.349
 L 190.064,-197.261 L 189.905,-197.179 L 189.74,-197.105 L 189.568,-197.037 L 189.39,-196.977 L 189.206,-196.924
 L 189.016,-196.877 L 188.819,-196.838 L 188.617,-196.806 L 188.408,-196.782 L 188.193,-196.764 L 187.972,-196.753
 L 187.744,-196.75 L 187.297,-196.763 L 186.875,-196.803 L 186.478,-196.869 L 186.106,-196.962 L 185.758,-197.081
 L 185.436,-197.226 L 185.138,-197.399 L 184.866,-197.597 L 184.618,-197.822 L 184.395,-198.074 L 184.197,-198.352
 L 184.024,-198.657 L 183.876,-198.988 L 183.752,-199.346 L 183.654,-199.73 L 183.581,-200.14 L 181.058,-199.91
 L 181.104,-199.594 L 181.161,-199.288 L 181.229,-198.992 L 181.308,-198.706 L 181.398,-198.43 L 181.499,-198.164
 L 181.611,-197.907 L 181.734,-197.66 L 181.868,-197.423 L 182.013,-197.196 L 182.169,-196.978 L 182.336,-196.77
 L 182.513,-196.572 L 182.702,-196.384 L 182.902,-196.206 L 183.113,-196.038 L 183.333,-195.879 L 183.563,-195.731
 L 183.802,-195.593 L 184.051,-195.465 L 184.308,-195.347 L 184.574,-195.24 L 184.85,-195.143 L 185.135,-195.056
 L 185.429,-194.979 L 185.732,-194.913 L 186.045,-194.857 L 186.366,-194.811 L 186.697,-194.775 L 187.037,-194.749
 L 187.386,-194.734 L 187.744,-194.729 z
M 28.1822,-194.739 L 28.5753,-194.768 L 28.9559,-194.817 L 29.3239,-194.886 L 29.6793,-194.975 L 30.0222,-195.084
 L 30.3525,-195.212 L 30.6703,-195.359 L 30.9755,-195.527 L 31.2682,-195.714 L 31.5483,-195.921 L 31.8159,-196.148
 L 32.0709,-196.394 L 32.3133,-196.66 L 32.5432,-196.946 L 32.7605,-197.251 L 32.965,-197.576 L 33.1563,-197.917
 L 33.3344,-198.277 L 33.4993,-198.654 L 33.651,-199.049 L 33.7895,-199.462 L 33.9148,-199.892 L 34.027,-200.34
 L 34.1259,-200.806 L 34.2117,-201.289 L 34.2842,-201.791 L 34.3436,-202.309 L 34.3898,-202.846 L 34.4227,-203.4
 L 34.4425,-203.972 L 34.4491,-204.562 L 34.4428,-205.161 L 34.424,-205.742 L 34.3926,-206.304 L 34.3487,-206.847
 L 34.2922,-207.372 L 34.2231,-207.878 L 34.1415,-208.365 L 34.0473,-208.834 L 33.9406,-209.284 L 33.8213,-209.715
 L 33.6895,-210.128 L 33.5451,-210.522 L 33.3881,-210.898 L 33.2186,-211.255 L 33.0365,-211.593 L 32.8419,-211.912
 L 32.6341,-212.213 L 32.4125,-212.494 L 32.1771,-212.756 L 31.9278,-212.998 L 31.6647,-213.221 L 31.3878,-213.425
 L 31.097,-213.609 L 30.7924,-213.774 L 30.474,-213.919 L 30.1418,-214.045 L 29.7957,-214.152 L 29.4358,-214.239
 L 29.0621,-214.307 L 28.6745,-214.356 L 28.2731,-214.385 L 27.8579,-214.394 L 27.4312,-214.385 L 27.0191,-214.356
 L 26.6215,-214.308 L 26.2385,-214.241 L 25.87,-214.155 L 25.5162,-214.049 L 25.1768,-213.925 L 24.8521,-213.781
 L 24.5419,-213.618 L 24.2464,-213.435 L 23.9653,-213.234 L 23.6989,-213.014 L 23.447,-212.774 L 23.2097,-212.515
 L 22.9869,-212.237 L 22.7787,-211.94 L 22.5841,-211.623 L 22.402,-211.287 L 22.2325,-210.932 L 22.0756,-210.558
 L 21.9312,-210.164 L 21.7993,-209.751 L 21.68,-209.319 L 21.5733,-208.868 L 21.4791,-208.397 L 21.3975,-207.907
 L 21.3285,-207.398 L 21.272,-206.869 L 21.228,-206.321 L 21.1966,-205.754 L 21.1778,-205.167 L 21.1715,-204.562
 L 21.178,-203.969 L 21.1974,-203.394 L 21.2297,-202.837 L 21.2749,-202.298 L 21.3331,-201.778 L 21.4042,-201.275
 L 21.4882,-200.79 L 21.5852,-200.323 L 21.695,-199.875 L 21.8178,-199.444 L 21.9536,-199.031 L 22.1022,-198.636
 L 22.2638,-198.26 L 22.4383,-197.901 L 22.6257,-197.56 L 22.8261,-197.238 L 23.0394,-196.934 L 23.2654,-196.65
 L 23.5043,-196.385 L 23.756,-196.14 L 24.0205,-195.915 L 24.2979,-195.709 L 24.588,-195.523 L 24.891,-195.356
 L 25.2068,-195.209 L 25.5355,-195.082 L 25.8769,-194.974 L 26.2312,-194.886 L 26.5983,-194.817 L 26.9782,-194.768
 L 27.371,-194.739 L 27.7765,-194.729 z
M 27.5368,-196.73 L 27.2793,-196.752 L 27.031,-196.789 L 26.7918,-196.84 L 26.5618,-196.906 L 26.341,-196.988
 L 26.1293,-197.083 L 25.9268,-197.194 L 25.7335,-197.319 L 25.5493,-197.459 L 25.3743,-197.613 L 25.2084,-197.783
 L 25.0518,-197.967 L 24.9043,-198.166 L 24.7659,-198.379 L 24.6367,-198.608 L 24.516,-198.852 L 24.4031,-199.113
 L 24.298,-199.391 L 24.2006,-199.687 L 24.1111,-199.999 L 24.0293,-200.329 L 23.9553,-200.675 L 23.8891,-201.039
 L 23.8307,-201.419 L 23.7801,-201.817 L 23.7373,-202.232 L 23.7022,-202.664 L 23.675,-203.113 L 23.6555,-203.579
 L 23.6438,-204.062 L 23.6399,-204.562 L 23.6438,-205.076 L 23.6553,-205.572 L 23.6745,-206.05 L 23.7014,-206.509
 L 23.7359,-206.95 L 23.7782,-207.373 L 23.8281,-207.777 L 23.8857,-208.162 L 23.951,-208.53 L 24.024,-208.878
 L 24.1046,-209.208 L 24.193,-209.52 L 24.289,-209.814 L 24.3927,-210.089 L 24.5041,-210.345 L 24.6231,-210.583
 L 24.751,-210.805 L 24.8888,-211.012 L 25.0365,-211.205 L 25.1941,-211.384 L 25.3616,-211.549 L 25.539,-211.699
 L 25.7263,-211.835 L 25.9235,-211.956 L 26.1306,-212.064 L 26.3477,-212.157 L 26.5746,-212.235 L 26.8115,-212.3
 L 27.0582,-212.35 L 27.3149,-212.386 L 27.5815,-212.407 L 27.8579,-212.414 L 28.1277,-212.407 L 28.3878,-212.385
 L 28.6382,-212.349 L 28.8789,-212.298 L 29.1099,-212.233 L 29.3312,-212.153 L 29.5428,-212.059 L 29.7447,-211.95
 L 29.937,-211.826 L 30.1195,-211.688 L 30.2923,-211.536 L 30.4555,-211.369 L 30.6089,-211.188 L 30.7527,-210.992
 L 30.8867,-210.781 L 31.0111,-210.556 L 31.1269,-210.315 L 31.2352,-210.056 L 31.3361,-209.779 L 31.4295,-209.485
 L 31.5154,-209.172 L 31.5938,-208.842 L 31.6648,-208.494 L 31.7283,-208.129 L 31.7843,-207.745 L 31.8329,-207.344
 L 31.8739,-206.924 L 31.9075,-206.487 L 31.9337,-206.033 L 31.9524,-205.56 L 31.9636,-205.07 L 31.9673,-204.562
 L 31.9634,-204.071 L 31.9516,-203.597 L 31.932,-203.139 L 31.9046,-202.697 L 31.8693,-202.271 L 31.8262,-201.861
 L 31.7752,-201.467 L 31.7164,-201.09 L 31.6498,-200.728 L 31.5753,-200.383 L 31.493,-200.053 L 31.4028,-199.74
 L 31.3048,-199.443 L 31.1989,-199.162 L 31.0853,-198.897 L 30.9637,-198.648 L 30.8338,-198.415 L 30.6948,-198.197
 L 30.5468,-197.994 L 30.3898,-197.806 L 30.2239,-197.633 L 30.0489,-197.475 L 29.8649,-197.332 L 29.6719,-197.204
 L 29.4698,-197.091 L 29.2588,-196.993 L 29.0388,-196.91 L 28.8098,-196.843 L 28.5717,-196.79 L 28.3246,-196.752
 L 28.0686,-196.73 L 27.8035,-196.722 z
M 218.269,-194.739 L 218.662,-194.768 L 219.042,-194.817 L 219.41,-194.886 L 219.766,-194.975 L 220.109,-195.084
 L 220.439,-195.212 L 220.757,-195.359 L 221.062,-195.527 L 221.355,-195.714 L 221.635,-195.921 L 221.902,-196.148
 L 222.157,-196.394 L 222.4,-196.66 L 222.63,-196.946 L 222.847,-197.251 L 223.052,-197.576 L 223.243,-197.917
 L 223.421,-198.277 L 223.586,-198.654 L 223.738,-199.049 L 223.876,-199.462 L 224.001,-199.892 L 224.113,-200.34
 L 224.212,-200.806 L 224.298,-201.289 L 224.371,-201.791 L 224.43,-202.309 L 224.476,-202.846 L 224.509,-203.4
 L 224.529,-203.972 L 224.536,-204.562 L 224.529,-205.161 L 224.511,-205.742 L 224.479,-206.304 L 224.435,-206.847
 L 224.379,-207.372 L 224.31,-207.878 L 224.228,-208.365 L 224.134,-208.834 L 224.027,-209.284 L 223.908,-209.715
 L 223.776,-210.128 L 223.632,-210.522 L 223.475,-210.898 L 223.305,-211.255 L 223.123,-211.593 L 222.928,-211.912
 L 222.721,-212.213 L 222.499,-212.494 L 222.264,-212.756 L 222.014,-212.998 L 221.751,-213.221 L 221.474,-213.425
 L 221.184,-213.609 L 220.879,-213.774 L 220.561,-213.919 L 220.228,-214.045 L 219.882,-214.152 L 219.522,-214.239
 L 219.149,-214.307 L 218.761,-214.356 L 218.36,-214.385 L 217.944,-214.394 L 217.518,-214.385 L 217.106,-214.356
 L 216.708,-214.308 L 216.325,-214.241 L 215.957,-214.155 L 215.603,-214.049 L 215.263,-213.925 L 214.939,-213.781
 L 214.628,-213.618 L 214.333,-213.435 L 214.052,-213.234 L 213.785,-213.014 L 213.533,-212.774 L 213.296,-212.515
 L 213.073,-212.237 L 212.865,-211.94 L 212.671,-211.623 L 212.489,-211.287 L 212.319,-210.932 L 212.162,-210.558
 L 212.018,-210.164 L 211.886,-209.751 L 211.767,-209.319 L 211.66,-208.868 L 211.566,-208.397 L 211.484,-207.907
 L 211.415,-207.398 L 211.358,-206.869 L 211.315,-206.321 L 211.283,-205.754 L 211.264,-205.167 L 211.258,-204.562
 L 211.264,-203.969 L 211.284,-203.394 L 211.316,-202.837 L 211.361,-202.298 L 211.42,-201.778 L 211.491,-201.275
 L 211.575,-200.79 L 211.672,-200.323 L 211.782,-199.875 L 211.904,-199.444 L 212.04,-199.031 L 212.189,-198.636
 L 212.35,-198.26 L 212.525,-197.901 L 212.712,-197.56 L 212.913,-197.238 L 213.126,-196.934 L 213.352,-196.65
 L 213.591,-196.385 L 213.843,-196.14 L 214.107,-195.915 L 214.384,-195.709 L 214.675,-195.523 L 214.978,-195.356
 L 215.293,-195.209 L 215.622,-195.082 L 215.963,-194.974 L 216.318,-194.886 L 216.685,-194.817 L 217.065,-194.768
 L 217.457,-194.739 L 217.863,-194.729 z
M 217.623,-196.73 L 217.366,-196.752 L 217.118,-196.789 L 216.878,-196.84 L 216.648,-196.906 L 216.428,-196.988
 L 216.216,-197.083 L 216.013,-197.194 L 215.82,-197.319 L 215.636,-197.459 L 215.461,-197.613 L 215.295,-197.783
 L 215.138,-197.967 L 214.991,-198.166 L 214.852,-198.379 L 214.723,-198.608 L 214.603,-198.852 L 214.49,-199.113
 L 214.384,-199.391 L 214.287,-199.687 L 214.198,-199.999 L 214.116,-200.329 L 214.042,-200.675 L 213.976,-201.039
 L 213.917,-201.419 L 213.867,-201.817 L 213.824,-202.232 L 213.789,-202.664 L 213.761,-203.113 L 213.742,-203.579
 L 213.73,-204.062 L 213.726,-204.562 L 213.73,-205.076 L 213.742,-205.572 L 213.761,-206.05 L 213.788,-206.509
 L 213.822,-206.95 L 213.865,-207.373 L 213.915,-207.777 L 213.972,-208.162 L 214.038,-208.53 L 214.111,-208.878
 L 214.191,-209.208 L 214.279,-209.52 L 214.376,-209.814 L 214.479,-210.089 L 214.591,-210.345 L 214.71,-210.583
 L 214.838,-210.805 L 214.975,-211.012 L 215.123,-211.205 L 215.281,-211.384 L 215.448,-211.549 L 215.626,-211.699
 L 215.813,-211.835 L 216.01,-211.956 L 216.217,-212.064 L 216.434,-212.157 L 216.661,-212.235 L 216.898,-212.3
 L 217.145,-212.35 L 217.401,-212.386 L 217.668,-212.407 L 217.944,-212.414 L 218.214,-212.407 L 218.474,-212.385
 L 218.725,-212.349 L 218.965,-212.298 L 219.196,-212.233 L 219.418,-212.153 L 219.629,-212.059 L 219.831,-211.95
 L 220.023,-211.826 L 220.206,-211.688 L 220.379,-211.536 L 220.542,-211.369 L 220.695,-211.188 L 220.839,-210.992
 L 220.973,-210.781 L 221.098,-210.556 L 221.213,-210.315 L 221.322,-210.056 L 221.423,-209.779 L 221.516,-209.485
 L 221.602,-209.172 L 221.68,-208.842 L 221.751,-208.494 L 221.815,-208.129 L 221.871,-207.745 L 221.919,-207.344
 L 221.96,-206.924 L 221.994,-206.487 L 222.02,-206.033 L 222.039,-205.56 L 222.05,-205.07 L 222.054,-204.562
 L 222.05,-204.071 L 222.038,-203.597 L 222.019,-203.139 L 221.991,-202.697 L 221.956,-202.271 L 221.913,-201.861
 L 221.862,-201.467 L 221.803,-201.09 L 221.736,-200.728 L 221.662,-200.383 L 221.579,-200.053 L 221.489,-199.74
 L 221.391,-199.443 L 221.285,-199.162 L 221.172,-198.897 L 221.05,-198.648 L 220.92,-198.415 L 220.781,-198.197
 L 220.633,-197.994 L 220.476,-197.806 L 220.31,-197.633 L 220.135,-197.475 L 219.951,-197.332 L 219.758,-197.204
 L 219.556,-197.091 L 219.345,-196.993 L 219.125,-196.91 L 218.896,-196.843 L 218.658,-196.79 L 218.411,-196.752
 L 218.155,-196.73 L 217.89,-196.722 z
M 428.182,-194.739 L 428.575,-194.768 L 428.956,-194.817 L 429.324,-194.886 L 429.679,-194.975 L 430.022,-195.084
 L 430.353,-195.212 L 430.67,-195.359 L 430.976,-195.527 L 431.268,-195.714 L 431.548,-195.921 L 431.816,-196.148
 L 432.071,-196.394 L 432.313,-196.66 L 432.543,-196.946 L 432.761,-197.251 L 432.965,-197.576 L 433.156,-197.917
 L 433.334,-198.277 L 433.499,-198.654 L 433.651,-199.049 L 433.79,-199.462 L 433.915,-199.892 L 434.027,-200.34
 L 434.126,-200.806 L 434.212,-201.289 L 434.284,-201.791 L 434.344,-202.309 L 434.39,-202.846 L 434.423,-203.4
 L 434.443,-203.972 L 434.449,-204.562 L 434.443,-205.161 L 434.424,-205.742 L 434.393,-206.304 L 434.349,-206.847
 L 434.292,-207.372 L 434.223,-207.878 L 434.141,-208.365 L 434.047,-208.834 L 433.941,-209.284 L 433.821,-209.715
 L 433.689,-210.128 L 433.545,-210.522 L 433.388,-210.898 L 433.219,-211.255 L 433.037,-211.593 L 432.842,-211.912
 L 432.634,-212.213 L 432.413,-212.494 L 432.177,-212.756 L 431.928,-212.998 L 431.665,-213.221 L 431.388,-213.425
 L 431.097,-213.609 L 430.792,-213.774 L 430.474,-213.919 L 430.142,-214.045 L 429.796,-214.152 L 429.436,-214.239
 L 429.062,-214.307 L 428.675,-214.356 L 428.273,-214.385 L 427.858,-214.394 L 427.431,-214.385 L 427.019,-214.356
 L 426.621,-214.308 L 426.238,-214.241 L 425.87,-214.155 L 425.516,-214.049 L 425.177,-213.925 L 424.852,-213.781
 L 424.542,-213.618 L 424.246,-213.435 L 423.965,-213.234 L 423.699,-213.014 L 423.447,-212.774 L 423.21,-212.515
 L 422.987,-212.237 L 422.779,-211.94 L 422.584,-211.623 L 422.402,-211.287 L 422.233,-210.932 L 422.076,-210.558
 L 421.931,-210.164 L 421.799,-209.751 L 421.68,-209.319 L 421.573,-208.868 L 421.479,-208.397 L 421.398,-207.907
 L 421.328,-207.398 L 421.272,-206.869 L 421.228,-206.321 L 421.197,-205.754 L 421.178,-205.167 L 421.172,-204.562
 L 421.178,-203.969 L 421.197,-203.394 L 421.23,-202.837 L 421.275,-202.298 L 421.333,-201.778 L 421.404,-201.275
 L 421.488,-200.79 L 421.585,-200.323 L 421.695,-199.875 L 421.818,-199.444 L 421.954,-199.031 L 422.102,-198.636
 L 422.264,-198.26 L 422.438,-197.901 L 422.626,-197.56 L 422.826,-197.238 L 423.039,-196.934 L 423.265,-196.65
 L 423.504,-196.385 L 423.756,-196.14 L 424.021,-195.915 L 424.298,-195.709 L 424.588,-195.523 L 424.891,-195.356
 L 425.207,-195.209 L 425.535,-195.082 L 425.877,-194.974 L 426.231,-194.886 L 426.598,-194.817 L 426.978,-194.768
 L 427.371,-194.739 L 427.777,-194.729 z
M 427.537,-196.73 L 427.279,-196.752 L 427.031,-196.789 L 426.792,-196.84 L 426.562,-196.906 L 426.341,-196.988
 L 426.129,-197.083 L 425.927,-197.194 L 425.733,-197.319 L 425.549,-197.459 L 425.374,-197.613 L 425.208,-197.783
 L 425.052,-197.967 L 424.904,-198.166 L 424.766,-198.379 L 424.637,-198.608 L 424.516,-198.852 L 424.403,-199.113
 L 424.298,-199.391 L 424.201,-199.687 L 424.111,-199.999 L 424.029,-200.329 L 423.955,-200.675 L 423.889,-201.039
 L 423.831,-201.419 L 423.78,-201.817 L 423.737,-202.232 L 423.702,-202.664 L 423.675,-203.113 L 423.655,-203.579
 L 423.644,-204.062 L 423.64,-204.562 L 423.644,-205.076 L 423.655,-205.572 L 423.674,-206.05 L 423.701,-206.509
 L 423.736,-206.95 L 423.778,-207.373 L 423.828,-207.777 L 423.886,-208.162 L 423.951,-208.53 L 424.024,-208.878
 L 424.105,-209.208 L 424.193,-209.52 L 424.289,-209.814 L 424.393,-210.089 L 424.504,-210.345 L 424.623,-210.583
 L 424.751,-210.805 L 424.889,-211.012 L 425.036,-211.205 L 425.194,-211.384 L 425.362,-211.549 L 425.539,-211.699
 L 425.726,-211.835 L 425.924,-211.956 L 426.131,-212.064 L 426.348,-212.157 L 426.575,-212.235 L 426.811,-212.3
 L 427.058,-212.35 L 427.315,-212.386 L 427.581,-212.407 L 427.858,-212.414 L 428.128,-212.407 L 428.388,-212.385
 L 428.638,-212.349 L 428.879,-212.298 L 429.11,-212.233 L 429.331,-212.153 L 429.543,-212.059 L 429.745,-211.95
 L 429.937,-211.826 L 430.119,-211.688 L 430.292,-211.536 L 430.455,-211.369 L 430.609,-211.188 L 430.753,-210.992
 L 430.887,-210.781 L 431.011,-210.556 L 431.127,-210.315 L 431.235,-210.056 L 431.336,-209.779 L 431.429,-209.485
 L 431.515,-209.172 L 431.594,-208.842 L 431.665,-208.494 L 431.728,-208.129 L 431.784,-207.745 L 431.833,-207.344
 L 431.874,-206.924 L 431.908,-206.487 L 431.934,-206.033 L 431.952,-205.56 L 431.964,-205.07 L 431.967,-204.562
 L 431.963,-204.071 L 431.952,-203.597 L 431.932,-203.139 L 431.905,-202.697 L 431.869,-202.271 L 431.826,-201.861
 L 431.775,-201.467 L 431.716,-201.09 L 431.65,-200.728 L 431.575,-200.383 L 431.493,-200.053 L 431.403,-199.74
 L 431.305,-199.443 L 431.199,-199.162 L 431.085,-198.897 L 430.964,-198.648 L 430.834,-198.415 L 430.695,-198.197
 L 430.547,-197.994 L 430.39,-197.806 L 430.224,-197.633 L 430.049,-197.475 L 429.865,-197.332 L 429.672,-197.204
 L 429.47,-197.091 L 429.259,-196.993 L 429.039,-196.91 L 428.81,-196.843 L 428.572,-196.79 L 428.325,-196.752
 L 428.069,-196.73 L 427.804,-196.722 z
M 416.949,-199.326 L 419.634,-199.326 L 419.634,-201.252 L 416.949,-201.252 L 416.949,-214.11 L 414.385,-214.11
 L 405.637,-201.225 L 405.637,-199.326 L 414.643,-199.326 L 414.643,-195 L 416.949,-195 z
M 407.889,-201.252 L 408.106,-201.524 L 408.838,-202.527 L 413.734,-209.742 L 413.757,-209.776 L 413.781,-209.813
 L 413.807,-209.852 L 413.833,-209.895 L 413.862,-209.941 L 413.891,-209.989 L 413.922,-210.041 L 413.955,-210.095
 L 413.988,-210.153 L 414.024,-210.213 L 414.06,-210.276 L 414.098,-210.343 L 414.137,-210.412 L 414.178,-210.484
 L 414.22,-210.559 L 414.263,-210.638 L 414.306,-210.715 L 414.346,-210.788 L 414.384,-210.857 L 414.419,-210.922
 L 414.452,-210.982 L 414.482,-211.037 L 414.509,-211.089 L 414.534,-211.136 L 414.557,-211.179 L 414.577,-211.217
 L 414.594,-211.251 L 414.609,-211.281 L 414.621,-211.306 L 414.631,-211.327 L 414.638,-211.344 L 414.643,-211.356
 L 414.643,-201.252 z
M 16.9486,-199.326 L 19.634,-199.326 L 19.634,-201.252 L 16.9486,-201.252 L 16.9486,-214.11 L 14.3852,-214.11
 L 5.63739,-201.225 L 5.63739,-199.326 L 14.643,-199.326 L 14.643,-195 L 16.9486,-195 z
M 7.88879,-201.252 L 8.10579,-201.524 L 8.8382,-202.527 L 13.7342,-209.742 L 13.7569,-209.776 L 13.7811,-209.813
 L 13.8065,-209.852 L 13.8334,-209.895 L 13.8616,-209.941 L 13.8913,-209.989 L 13.9223,-210.041 L 13.9546,-210.095
 L 13.9884,-210.153 L 14.0235,-210.213 L 14.06,-210.276 L 14.0979,-210.343 L 14.1372,-210.412 L 14.1778,-210.484
 L 14.2198,-210.559 L 14.2632,-210.638 L 14.306,-210.715 L 14.3463,-210.788 L 14.384,-210.857 L 14.4192,-210.922
 L 14.4518,-210.982 L 14.4819,-211.037 L 14.5094,-211.089 L 14.5344,-211.136 L 14.5569,-211.179 L 14.5768,-211.217
 L 14.5942,-211.251 L 14.6091,-211.281 L 14.6214,-211.306 L 14.6311,-211.327 L 14.6383,-211.344 L 14.643,-211.356
 L 14.643,-201.252 z
M 441,-181 L 441,-260 L 1460,-260 L 1460,-181 L 1421,-181 L 1421,-200
 L 1420,-200 L 1420,-181 L 481,-181 L 481,-200 L 480,-200 L 480,-181
 z
M 1448.18,-194.739 L 1448.58,-194.768 L 1448.96,-194.817 L 1449.32,-194.886 L 1449.68,-194.975 L 1450.02,-195.084
 L 1450.35,-195.212 L 1450.67,-195.359 L 1450.98,-195.527 L 1451.27,-195.714 L 1451.55,-195.921 L 1451.82,-196.148
 L 1452.07,-196.394 L 1452.31,-196.66 L 1452.54,-196.946 L 1452.76,-197.251 L 1452.96,-197.576 L 1453.16,-197.917
 L 1453.33,-198.277 L 1453.5,-198.654 L 1453.65,-199.049 L 1453.79,-199.462 L 1453.91,-199.892 L 1454.03,-200.34
 L 1454.13,-200.806 L 1454.21,-201.289 L 1454.28,-201.791 L 1454.34,-202.309 L 1454.39,-202.846 L 1454.42,-203.4
 L 1454.44,-203.972 L 1454.45,-204.562 L 1454.44,-205.161 L 1454.42,-205.742 L 1454.39,-206.304 L 1454.35,-206.847
 L 1454.29,-207.372 L 1454.22,-207.878 L 1454.14,-208.365 L 1454.05,-208.834 L 1453.94,-209.284 L 1453.82,-209.715
 L 1453.69,-210.128 L 1453.55,-210.522 L 1453.39,-210.898 L 1453.22,-211.255 L 1453.04,-211.593 L 1452.84,-211.912
 L 1452.63,-212.213 L 1452.41,-212.494 L 1452.18,-212.756 L 1451.93,-212.998 L 1451.66,-213.221 L 1451.39,-213.425
 L 1451.1,-213.609 L 1450.79,-213.774 L 1450.47,-213.919 L 1450.14,-214.045 L 1449.8,-214.152 L 1449.44,-214.239
 L 1449.06,-214.307 L 1448.67,-214.356 L 1448.27,-214.385 L 1447.86,-214.394 L 1447.43,-214.385 L 1447.02,-214.356
 L 1446.62,-214.308 L 1446.24,-214.241 L 1445.87,-214.155 L 1445.52,-214.049 L 1445.18,-213.925 L 1444.85,-213.781
 L 1444.54,-213.618 L 1444.25,-213.435 L 1443.97,-213.234 L 1443.7,-213.014 L 1443.45,-212.774 L 1443.21,-212.515
 L 1442.99,-212.237 L 1442.78,-211.94 L 1442.58,-211.623 L 1442.4,-211.287 L 1442.23,-210.932 L 1442.08,-210.558
 L 1441.93,-210.164 L 1441.8,-209.751 L 1441.68,-209.319 L 1441.57,-208.868 L 1441.48,-208.397 L 1441.4,-207.907
 L 1441.33,-207.398 L 1441.27,-206.869 L 1441.23,-206.321 L 1441.2,-205.754 L 1441.18,-205.167 L 1441.17,-204.562
 L 1441.18,-203.969 L 1441.2,-203.394 L 1441.23,-202.837 L 1441.27,-202.298 L 1441.33,-201.778 L 1441.4,-201.275
 L 1441.49,-200.79 L 1441.59,-200.323 L 1441.7,-199.875 L 1441.82,-199.444 L 1441.95,-199.031 L 1442.1,-198.636
 L 1442.26,-198.26 L 1442.44,-197.901 L 1442.63,-197.56 L 1442.83,-197.238 L 1443.04,-196.934 L 1443.27,-196.65
 L 1443.5,-196.385 L 1443.76,-196.14 L 1444.02,-195.915 L 1444.3,-195.709 L 1444.59,-195.523 L 1444.89,-195.356
 L 1445.21,-195.209 L 1445.54,-195.082 L 1445.88,-194.974 L 1446.23,-194.886 L 1446.6,-194.817 L 1446.98,-194.768
 L 1447.37,-194.739 L 1447.78,-194.729 z
M 1447.54,-196.73 L 1447.28,-196.752 L 1447.03,-196.789 L 1446.79,-196.84 L 1446.56,-196.906 L 1446.34,-196.988
 L 1446.13,-197.083 L 1445.93,-197.194 L 1445.73,-197.319 L 1445.55,-197.459 L 1445.37,-197.613 L 1445.21,-197.783
 L 1445.05,-197.967 L 1444.9,-198.166 L 1444.77,-198.379 L 1444.64,-198.608 L 1444.52,-198.852 L 1444.4,-199.113
 L 1444.3,-199.391 L 1444.2,-199.687 L 1444.11,-199.999 L 1444.03,-200.329 L 1443.96,-200.675 L 1443.89,-201.039
 L 1443.83,-201.419 L 1443.78,-201.817 L 1443.74,-202.232 L 1443.7,-202.664 L 1443.67,-203.113 L 1443.66,-203.579
 L 1443.64,-204.062 L 1443.64,-204.562 L 1443.64,-205.076 L 1443.66,-205.572 L 1443.67,-206.05 L 1443.7,-206.509
 L 1443.74,-206.95 L 1443.78,-207.373 L 1443.83,-207.777 L 1443.89,-208.162 L 1443.95,-208.53 L 1444.02,-208.878
 L 1444.1,-209.208 L 1444.19,-209.52 L 1444.29,-209.814 L 1444.39,-210.089 L 1444.5,-210.345 L 1444.62,-210.583
 L 1444.75,-210.805 L 1444.89,-211.012 L 1445.04,-211.205 L 1445.19,-211.384 L 1445.36,-211.549 L 1445.54,-211.699
 L 1445.73,-211.835 L 1445.92,-211.956 L 1446.13,-212.064 L 1446.35,-212.157 L 1446.57,-212.235 L 1446.81,-212.3
 L 1447.06,-212.35 L 1447.31,-212.386 L 1447.58,-212.407 L 1447.86,-212.414 L 1448.13,-212.407 L 1448.39,-212.385
 L 1448.64,-212.349 L 1448.88,-212.298 L 1449.11,-212.233 L 1449.33,-212.153 L 1449.54,-212.059 L 1449.74,-211.95
 L 1449.94,-211.826 L 1450.12,-211.688 L 1450.29,-211.536 L 1450.46,-211.369 L 1450.61,-211.188 L 1450.75,-210.992
 L 1450.89,-210.781 L 1451.01,-210.556 L 1451.13,-210.315 L 1451.24,-210.056 L 1451.34,-209.779 L 1451.43,-209.485
 L 1451.52,-209.172 L 1451.59,-208.842 L 1451.66,-208.494 L 1451.73,-208.129 L 1451.78,-207.745 L 1451.83,-207.344
 L 1451.87,-206.924 L 1451.91,-206.487 L 1451.93,-206.033 L 1451.95,-205.56 L 1451.96,-205.07 L 1451.97,-204.562
 L 1451.96,-204.071 L 1451.95,-203.597 L 1451.93,-203.139 L 1451.9,-202.697 L 1451.87,-202.271 L 1451.83,-201.861
 L 1451.78,-201.467 L 1451.72,-201.09 L 1451.65,-200.728 L 1451.58,-200.383 L 1451.49,-200.053 L 1451.4,-199.74
 L 1451.3,-199.443 L 1451.2,-199.162 L 1451.09,-198.897 L 1450.96,-198.648 L 1450.83,-198.415 L 1450.69,-198.197
 L 1450.55,-197.994 L 1450.39,-197.806 L 1450.22,-197.633 L 1450.05,-197.475 L 1449.86,-197.332 L 1449.67,-197.204
 L 1449.47,-197.091 L 1449.26,-196.993 L 1449.04,-196.91 L 1448.81,-196.843 L 1448.57,-196.79 L 1448.32,-196.752
 L 1448.07,-196.73 L 1447.8,-196.722 z
M 937.625,-194.739 L 938.022,-194.77 L 938.408,-194.822 L 938.781,-194.894 L 939.143,-194.987 L 939.493,-195.101
 L 939.831,-195.235 L 940.157,-195.39 L 940.471,-195.566 L 940.773,-195.762 L 941.063,-195.979 L 941.341,-196.216
 L 941.607,-196.475 L 941.862,-196.754 L 942.104,-197.053 L 942.335,-197.373 L 942.553,-197.713 L 942.756,-198.07
 L 942.946,-198.445 L 943.121,-198.838 L 943.283,-199.249 L 943.43,-199.677 L 943.564,-200.124 L 943.683,-200.588
 L 943.788,-201.07 L 943.879,-201.569 L 943.957,-202.087 L 944.02,-202.622 L 944.069,-203.175 L 944.104,-203.746
 L 944.125,-204.335 L 944.132,-204.941 L 944.126,-205.524 L 944.107,-206.088 L 944.074,-206.633 L 944.03,-207.16
 L 943.972,-207.668 L 943.901,-208.158 L 943.818,-208.629 L 943.722,-209.081 L 943.613,-209.515 L 943.491,-209.931
 L 943.356,-210.328 L 943.209,-210.706 L 943.049,-211.066 L 942.876,-211.407 L 942.69,-211.73 L 942.491,-212.034
 L 942.28,-212.32 L 942.057,-212.588 L 941.821,-212.836 L 941.574,-213.067 L 941.314,-213.279 L 941.043,-213.473
 L 940.759,-213.648 L 940.463,-213.804 L 940.156,-213.943 L 939.836,-214.063 L 939.504,-214.164 L 939.16,-214.247
 L 938.804,-214.311 L 938.435,-214.358 L 938.055,-214.385 L 937.663,-214.394 L 937.293,-214.388 L 936.934,-214.368
 L 936.585,-214.334 L 936.246,-214.287 L 935.918,-214.227 L 935.6,-214.153 L 935.292,-214.066 L 934.994,-213.965
 L 934.707,-213.852 L 934.43,-213.724 L 934.163,-213.583 L 933.907,-213.429 L 933.661,-213.262 L 933.425,-213.081
 L 933.199,-212.886 L 932.984,-212.679 L 932.78,-212.459 L 932.59,-212.23 L 932.412,-211.99 L 932.248,-211.741
 L 932.097,-211.481 L 931.959,-211.212 L 931.834,-210.932 L 931.722,-210.643 L 931.624,-210.343 L 931.538,-210.033
 L 931.466,-209.714 L 931.407,-209.384 L 931.361,-209.045 L 931.328,-208.695 L 931.309,-208.335 L 931.302,-207.966
 L 931.308,-207.606 L 931.326,-207.255 L 931.356,-206.913 L 931.399,-206.58 L 931.453,-206.256 L 931.519,-205.941
 L 931.598,-205.635 L 931.688,-205.338 L 931.791,-205.05 L 931.906,-204.771 L 932.033,-204.501 L 932.172,-204.24
 L 932.323,-203.988 L 932.486,-203.745 L 932.661,-203.511 L 932.848,-203.287 L 933.045,-203.073 L 933.251,-202.873
 L 933.464,-202.687 L 933.686,-202.515 L 933.915,-202.357 L 934.153,-202.212 L 934.398,-202.081 L 934.652,-201.964
 L 934.914,-201.861 L 935.183,-201.772 L 935.461,-201.696 L 935.747,-201.634 L 936.041,-201.586 L 936.343,-201.551
 L 936.653,-201.53 L 936.971,-201.524 L 937.167,-201.526 L 937.36,-201.535 L 937.552,-201.55 L 937.742,-201.57
 L 937.929,-201.596 L 938.115,-201.628 L 938.298,-201.665 L 938.48,-201.708 L 938.66,-201.757 L 938.837,-201.812
 L 939.013,-201.873 L 939.186,-201.939 L 939.358,-202.011 L 939.527,-202.089 L 939.695,-202.173 L 939.86,-202.263
 L 940.021,-202.357 L 940.177,-202.455 L 940.326,-202.557 L 940.469,-202.662 L 940.607,-202.772 L 940.738,-202.885
 L 940.863,-203.002 L 940.982,-203.122 L 941.095,-203.247 L 941.202,-203.375 L 941.303,-203.507 L 941.398,-203.642
 L 941.487,-203.782 L 941.57,-203.925 L 941.647,-204.072 L 941.718,-204.223 L 941.707,-203.776 L 941.687,-203.343
 L 941.659,-202.923 L 941.622,-202.516 L 941.577,-202.122 L 941.523,-201.741 L 941.46,-201.373 L 941.389,-201.018
 L 941.309,-200.677 L 941.221,-200.348 L 941.124,-200.032 L 941.019,-199.729 L 940.905,-199.439 L 940.782,-199.163
 L 940.651,-198.899 L 940.511,-198.648 L 940.363,-198.412 L 940.208,-198.191 L 940.045,-197.985 L 939.875,-197.794
 L 939.698,-197.618 L 939.513,-197.458 L 939.321,-197.313 L 939.121,-197.184 L 938.914,-197.069 L 938.699,-196.97
 L 938.477,-196.886 L 938.248,-196.817 L 938.011,-196.764 L 937.767,-196.726 L 937.515,-196.703 L 937.256,-196.695
 L 936.951,-196.705 L 936.66,-196.733 L 936.382,-196.779 L 936.118,-196.845 L 935.868,-196.928 L 935.632,-197.031
 L 935.41,-197.152 L 935.201,-197.292 L 935.006,-197.451 L 934.825,-197.628 L 934.658,-197.824 L 934.504,-198.038
 L 934.365,-198.271 L 934.239,-198.523 L 934.126,-198.793 L 934.028,-199.082 L 931.695,-198.716 L 931.771,-198.458
 L 931.853,-198.209 L 931.941,-197.969 L 932.035,-197.738 L 932.135,-197.516 L 932.241,-197.303 L 932.352,-197.099
 L 932.47,-196.904 L 932.594,-196.718 L 932.724,-196.541 L 932.859,-196.374 L 933.001,-196.215 L 933.149,-196.066
 L 933.303,-195.925 L 933.462,-195.794 L 933.628,-195.671 L 933.8,-195.557 L 933.979,-195.45 L 934.165,-195.351
 L 934.358,-195.259 L 934.558,-195.174 L 934.765,-195.097 L 934.979,-195.027 L 935.199,-194.964 L 935.427,-194.909
 L 935.662,-194.861 L 935.903,-194.821 L 936.152,-194.788 L 936.407,-194.762 L 936.67,-194.744 L 936.939,-194.732
 L 937.215,-194.729 z
M 937.34,-203.454 L 937.132,-203.468 L 936.929,-203.492 L 936.731,-203.525 L 936.54,-203.568 L 936.353,-203.62
 L 936.173,-203.682 L 935.998,-203.753 L 935.829,-203.833 L 935.665,-203.924 L 935.507,-204.023 L 935.355,-204.132
 L 935.208,-204.251 L 935.067,-204.379 L 934.931,-204.516 L 934.801,-204.663 L 934.678,-204.818 L 934.563,-204.98
 L 934.456,-205.149 L 934.356,-205.325 L 934.265,-205.507 L 934.181,-205.697 L 934.106,-205.893 L 934.038,-206.096
 L 933.979,-206.306 L 933.927,-206.522 L 933.883,-206.746 L 933.848,-206.976 L 933.82,-207.213 L 933.8,-207.457
 L 933.788,-207.708 L 933.784,-207.966 L 933.788,-208.218 L 933.8,-208.464 L 933.82,-208.704 L 933.848,-208.937
 L 933.883,-209.163 L 933.927,-209.382 L 933.979,-209.595 L 934.038,-209.802 L 934.106,-210.001 L 934.181,-210.194
 L 934.265,-210.381 L 934.356,-210.561 L 934.456,-210.734 L 934.563,-210.9 L 934.678,-211.06 L 934.801,-211.214
 L 934.931,-211.359 L 935.067,-211.495 L 935.209,-211.622 L 935.356,-211.739 L 935.51,-211.847 L 935.669,-211.945
 L 935.834,-212.034 L 936.005,-212.114 L 936.182,-212.184 L 936.364,-212.245 L 936.552,-212.297 L 936.747,-212.339
 L 936.946,-212.372 L 937.152,-212.395 L 937.364,-212.41 L 937.581,-212.414 L 937.801,-212.409 L 938.014,-212.392
 L 938.222,-212.365 L 938.425,-212.326 L 938.622,-212.277 L 938.813,-212.217 L 938.998,-212.145 L 939.178,-212.063
 L 939.353,-211.97 L 939.522,-211.866 L 939.685,-211.751 L 939.842,-211.625 L 939.994,-211.487 L 940.14,-211.339
 L 940.281,-211.18 L 940.416,-211.01 L 940.544,-210.831 L 940.664,-210.645 L 940.775,-210.452 L 940.879,-210.252
 L 940.974,-210.045 L 941.061,-209.831 L 941.139,-209.61 L 941.209,-209.381 L 941.271,-209.146 L 941.325,-208.904
 L 941.37,-208.654 L 941.408,-208.398 L 941.437,-208.134 L 941.457,-207.863 L 941.47,-207.586 L 941.474,-207.301
 L 941.472,-207.161 L 941.466,-207.024 L 941.455,-206.888 L 941.441,-206.754 L 941.423,-206.622 L 941.4,-206.491
 L 941.374,-206.363 L 941.343,-206.237 L 941.309,-206.112 L 941.27,-205.99 L 941.227,-205.869 L 941.18,-205.75
 L 941.129,-205.633 L 941.074,-205.518 L 941.015,-205.405 L 940.952,-205.294 L 940.885,-205.185 L 940.815,-205.08
 L 940.742,-204.977 L 940.666,-204.878 L 940.588,-204.782 L 940.506,-204.689 L 940.421,-204.599 L 940.333,-204.512
 L 940.242,-204.429 L 940.148,-204.348 L 940.051,-204.271 L 939.951,-204.197 L 939.848,-204.125 L 939.742,-204.057
 L 939.633,-203.993 L 939.521,-203.931 L 939.407,-203.872 L 939.291,-203.818 L 939.175,-203.767 L 939.057,-203.72
 L 938.938,-203.677 L 938.818,-203.637 L 938.697,-203.602 L 938.575,-203.57 L 938.451,-203.542 L 938.327,-203.517
 L 938.201,-203.496 L 938.074,-203.479 L 937.946,-203.466 L 937.817,-203.457 L 937.686,-203.451 L 937.554,-203.449
 z
M 468.182,-194.739 L 468.575,-194.768 L 468.956,-194.817 L 469.324,-194.886 L 469.679,-194.975 L 470.022,-195.084
 L 470.353,-195.212 L 470.67,-195.359 L 470.976,-195.527 L 471.268,-195.714 L 471.548,-195.921 L 471.816,-196.148
 L 472.071,-196.394 L 472.313,-196.66 L 472.543,-196.946 L 472.761,-197.251 L 472.965,-197.576 L 473.156,-197.917
 L 473.334,-198.277 L 473.499,-198.654 L 473.651,-199.049 L 473.79,-199.462 L 473.915,-199.892 L 474.027,-200.34
 L 474.126,-200.806 L 474.212,-201.289 L 474.284,-201.791 L 474.344,-202.309 L 474.39,-202.846 L 474.423,-203.4
 L 474.443,-203.972 L 474.449,-204.562 L 474.443,-205.161 L 474.424,-205.742 L 474.393,-206.304 L 474.349,-206.847
 L 474.292,-207.372 L 474.223,-207.878 L 474.141,-208.365 L 474.047,-208.834 L 473.941,-209.284 L 473.821,-209.715
 L 473.689,-210.128 L 473.545,-210.522 L 473.388,-210.898 L 473.219,-211.255 L 473.037,-211.593 L 472.842,-211.912
 L 472.634,-212.213 L 472.413,-212.494 L 472.177,-212.756 L 471.928,-212.998 L 471.665,-213.221 L 471.388,-213.425
 L 471.097,-213.609 L 470.792,-213.774 L 470.474,-213.919 L 470.142,-214.045 L 469.796,-214.152 L 469.436,-214.239
 L 469.062,-214.307 L 468.675,-214.356 L 468.273,-214.385 L 467.858,-214.394 L 467.431,-214.385 L 467.019,-214.356
 L 466.621,-214.308 L 466.238,-214.241 L 465.87,-214.155 L 465.516,-214.049 L 465.177,-213.925 L 464.852,-213.781
 L 464.542,-213.618 L 464.246,-213.435 L 463.965,-213.234 L 463.699,-213.014 L 463.447,-212.774 L 463.21,-212.515
 L 462.987,-212.237 L 462.779,-211.94 L 462.584,-211.623 L 462.402,-211.287 L 462.233,-210.932 L 462.076,-210.558
 L 461.931,-210.164 L 461.799,-209.751 L 461.68,-209.319 L 461.573,-208.868 L 461.479,-208.397 L 461.398,-207.907
 L 461.328,-207.398 L 461.272,-206.869 L 461.228,-206.321 L 461.197,-205.754 L 461.178,-205.167 L 461.172,-204.562
 L 461.178,-203.969 L 461.197,-203.394 L 461.23,-202.837 L 461.275,-202.298 L 461.333,-201.778 L 461.404,-201.275
 L 461.488,-200.79 L 461.585,-200.323 L 461.695,-199.875 L 461.818,-199.444 L 461.954,-199.031 L 462.102,-198.636
 L 462.264,-198.26 L 462.438,-197.901 L 462.626,-197.56 L 462.826,-197.238 L 463.039,-196.934 L 463.265,-196.65
 L 463.504,-196.385 L 463.756,-196.14 L 464.021,-195.915 L 464.298,-195.709 L 464.588,-195.523 L 464.891,-195.356
 L 465.207,-195.209 L 465.535,-195.082 L 465.877,-194.974 L 466.231,-194.886 L 466.598,-194.817 L 466.978,-194.768
 L 467.371,-194.739 L 467.777,-194.729 z
M 467.537,-196.73 L 467.279,-196.752 L 467.031,-196.789 L 466.792,-196.84 L 466.562,-196.906 L 466.341,-196.988
 L 466.129,-197.083 L 465.927,-197.194 L 465.733,-197.319 L 465.549,-197.459 L 465.374,-197.613 L 465.208,-197.783
 L 465.052,-197.967 L 464.904,-198.166 L 464.766,-198.379 L 464.637,-198.608 L 464.516,-198.852 L 464.403,-199.113
 L 464.298,-199.391 L 464.201,-199.687 L 464.111,-199.999 L 464.029,-200.329 L 463.955,-200.675 L 463.889,-201.039
 L 463.831,-201.419 L 463.78,-201.817 L 463.737,-202.232 L 463.702,-202.664 L 463.675,-203.113 L 463.655,-203.579
 L 463.644,-204.062 L 463.64,-204.562 L 463.644,-205.076 L 463.655,-205.572 L 463.674,-206.05 L 463.701,-206.509
 L 463.736,-206.95 L 463.778,-207.373 L 463.828,-207.777 L 463.886,-208.162 L 463.951,-208.53 L 464.024,-208.878
 L 464.105,-209.208 L 464.193,-209.52 L 464.289,-209.814 L 464.393,-210.089 L 464.504,-210.345 L 464.623,-210.583
 L 464.751,-210.805 L 464.889,-211.012 L 465.036,-211.205 L 465.194,-211.384 L 465.362,-211.549 L 465.539,-211.699
 L 465.726,-211.835 L 465.924,-211.956 L 466.131,-212.064 L 466.348,-212.157 L 466.575,-212.235 L 466.811,-212.3
 L 467.058,-212.35 L 467.315,-212.386 L 467.581,-212.407 L 467.858,-212.414 L 468.128,-212.407 L 468.388,-212.385
 L 468.638,-212.349 L 468.879,-212.298 L 469.11,-212.233 L 469.331,-212.153 L 469.543,-212.059 L 469.745,-211.95
 L 469.937,-211.826 L 470.119,-211.688 L 470.292,-211.536 L 470.455,-211.369 L 470.609,-211.188 L 470.753,-210.992
 L 470.887,-210.781 L 471.011,-210.556 L 471.127,-210.315 L 471.235,-210.056 L 471.336,-209.779 L 471.429,-209.485
 L 471.515,-209.172 L 471.594,-208.842 L 471.665,-208.494 L 471.728,-208.129 L 471.784,-207.745 L 471.833,-207.344
 L 471.874,-206.924 L 471.908,-206.487 L 471.934,-206.033 L 471.952,-205.56 L 471.964,-205.07 L 471.967,-204.562
 L 471.963,-204.071 L 471.952,-203.597 L 471.932,-203.139 L 471.905,-202.697 L 471.869,-202.271 L 471.826,-201.861
 L 471.775,-201.467 L 471.716,-201.09 L 471.65,-200.728 L 471.575,-200.383 L 471.493,-200.053 L 471.403,-199.74
 L 471.305,-199.443 L 471.199,-199.162 L 471.085,-198.897 L 470.964,-198.648 L 470.834,-198.415 L 470.695,-198.197
 L 470.547,-197.994 L 470.39,-197.806 L 470.224,-197.633 L 470.049,-197.475 L 469.865,-197.332 L 469.672,-197.204
 L 469.47,-197.091 L 469.259,-196.993 L 469.039,-196.91 L 468.81,-196.843 L 468.572,-196.79 L 468.325,-196.752
 L 468.069,-196.73 L 467.804,-196.722 z
M 968.269,-194.739 L 968.662,-194.768 L 969.042,-194.817 L 969.41,-194.886 L 969.766,-194.975 L 970.109,-195.084
 L 970.439,-195.212 L 970.757,-195.359 L 971.062,-195.527 L 971.355,-195.714 L 971.635,-195.921 L 971.902,-196.148
 L 972.157,-196.394 L 972.4,-196.66 L 972.63,-196.946 L 972.847,-197.251 L 973.052,-197.576 L 973.243,-197.917
 L 973.421,-198.277 L 973.586,-198.654 L 973.738,-199.049 L 973.876,-199.462 L 974.001,-199.892 L 974.113,-200.34
 L 974.212,-200.806 L 974.298,-201.289 L 974.371,-201.791 L 974.43,-202.309 L 974.476,-202.846 L 974.509,-203.4
 L 974.529,-203.972 L 974.536,-204.562 L 974.529,-205.161 L 974.511,-205.742 L 974.479,-206.304 L 974.435,-206.847
 L 974.379,-207.372 L 974.31,-207.878 L 974.228,-208.365 L 974.134,-208.834 L 974.027,-209.284 L 973.908,-209.715
 L 973.776,-210.128 L 973.632,-210.522 L 973.475,-210.898 L 973.305,-211.255 L 973.123,-211.593 L 972.928,-211.912
 L 972.721,-212.213 L 972.499,-212.494 L 972.264,-212.756 L 972.014,-212.998 L 971.751,-213.221 L 971.474,-213.425
 L 971.184,-213.609 L 970.879,-213.774 L 970.561,-213.919 L 970.228,-214.045 L 969.882,-214.152 L 969.522,-214.239
 L 969.149,-214.307 L 968.761,-214.356 L 968.36,-214.385 L 967.944,-214.394 L 967.518,-214.385 L 967.106,-214.356
 L 966.708,-214.308 L 966.325,-214.241 L 965.957,-214.155 L 965.603,-214.049 L 965.263,-213.925 L 964.939,-213.781
 L 964.628,-213.618 L 964.333,-213.435 L 964.052,-213.234 L 963.785,-213.014 L 963.533,-212.774 L 963.296,-212.515
 L 963.073,-212.237 L 962.865,-211.94 L 962.671,-211.623 L 962.489,-211.287 L 962.319,-210.932 L 962.162,-210.558
 L 962.018,-210.164 L 961.886,-209.751 L 961.767,-209.319 L 961.66,-208.868 L 961.566,-208.397 L 961.484,-207.907
 L 961.415,-207.398 L 961.358,-206.869 L 961.315,-206.321 L 961.283,-205.754 L 961.264,-205.167 L 961.258,-204.562
 L 961.264,-203.969 L 961.284,-203.394 L 961.316,-202.837 L 961.361,-202.298 L 961.42,-201.778 L 961.491,-201.275
 L 961.575,-200.79 L 961.672,-200.323 L 961.782,-199.875 L 961.904,-199.444 L 962.04,-199.031 L 962.189,-198.636
 L 962.35,-198.26 L 962.525,-197.901 L 962.712,-197.56 L 962.913,-197.238 L 963.126,-196.934 L 963.352,-196.65
 L 963.591,-196.385 L 963.843,-196.14 L 964.107,-195.915 L 964.384,-195.709 L 964.675,-195.523 L 964.978,-195.356
 L 965.293,-195.209 L 965.622,-195.082 L 965.963,-194.974 L 966.318,-194.886 L 966.685,-194.817 L 967.065,-194.768
 L 967.457,-194.739 L 967.863,-194.729 z
M 967.623,-196.73 L 967.366,-196.752 L 967.118,-196.789 L 966.878,-196.84 L 966.648,-196.906 L 966.428,-196.988
 L 966.216,-197.083 L 966.013,-197.194 L 965.82,-197.319 L 965.636,-197.459 L 965.461,-197.613 L 965.295,-197.783
 L 965.138,-197.967 L 964.991,-198.166 L 964.852,-198.379 L 964.723,-198.608 L 964.603,-198.852 L 964.49,-199.113
 L 964.384,-199.391 L 964.287,-199.687 L 964.198,-199.999 L 964.116,-200.329 L 964.042,-200.675 L 963.976,-201.039
 L 963.917,-201.419 L 963.867,-201.817 L 963.824,-202.232 L 963.789,-202.664 L 963.761,-203.113 L 963.742,-203.579
 L 963.73,-204.062 L 963.726,-204.562 L 963.73,-205.076 L 963.742,-205.572 L 963.761,-206.05 L 963.788,-206.509
 L 963.822,-206.95 L 963.865,-207.373 L 963.915,-207.777 L 963.972,-208.162 L 964.038,-208.53 L 964.111,-208.878
 L 964.191,-209.208 L 964.279,-209.52 L 964.376,-209.814 L 964.479,-210.089 L 964.591,-210.345 L 964.71,-210.583
 L 964.838,-210.805 L 964.975,-211.012 L 965.123,-211.205 L 965.281,-211.384 L 965.448,-211.549 L 965.626,-211.699
 L 965.813,-211.835 L 966.01,-211.956 L 966.217,-212.064 L 966.434,-212.157 L 966.661,-212.235 L 966.898,-212.3
 L 967.145,-212.35 L 967.401,-212.386 L 967.668,-212.407 L 967.944,-212.414 L 968.214,-212.407 L 968.474,-212.385
 L 968.725,-212.349 L 968.965,-212.298 L 969.196,-212.233 L 969.418,-212.153 L 969.629,-212.059 L 969.831,-211.95
 L 970.023,-211.826 L 970.206,-211.688 L 970.379,-211.536 L 970.542,-211.369 L 970.695,-211.188 L 970.839,-210.992
 L 970.973,-210.781 L 971.098,-210.556 L 971.213,-210.315 L 971.322,-210.056 L 971.423,-209.779 L 971.516,-209.485
 L 971.602,-209.172 L 971.68,-208.842 L 971.751,-208.494 L 971.815,-208.129 L 971.871,-207.745 L 971.919,-207.344
 L 971.96,-206.924 L 971.994,-206.487 L 972.02,-206.033 L 972.039,-205.56 L 972.05,-205.07 L 972.054,-204.562
 L 972.05,-204.071 L 972.038,-203.597 L 972.019,-203.139 L 971.991,-202.697 L 971.956,-202.271 L 971.913,-201.861
 L 971.862,-201.467 L 971.803,-201.09 L 971.736,-200.728 L 971.662,-200.383 L 971.579,-200.053 L 971.489,-199.74
 L 971.391,-199.443 L 971.285,-199.162 L 971.172,-198.897 L 971.05,-198.648 L 970.92,-198.415 L 970.781,-198.197
 L 970.633,-197.994 L 970.476,-197.806 L 970.31,-197.633 L 970.135,-197.475 L 969.951,-197.332 L 969.758,-197.204
 L 969.556,-197.091 L 969.345,-196.993 L 969.125,-196.91 L 968.896,-196.843 L 968.658,-196.79 L 968.411,-196.752
 L 968.155,-196.73 L 967.89,-196.722 z
M 1436.95,-199.326 L 1439.63,-199.326 L 1439.63,-201.252 L 1436.95,-201.252 L 1436.95,-214.11 L 1434.39,-214.11
 L 1425.64,-201.225 L 1425.64,-199.326 L 1434.64,-199.326 L 1434.64,-195 L 1436.95,-195 z
M 1427.89,-201.252 L 1428.11,-201.524 L 1428.84,-202.527 L 1433.73,-209.742 L 1433.76,-209.776 L 1433.78,-209.813
 L 1433.81,-209.852 L 1433.83,-209.895 L 1433.86,-209.941 L 1433.89,-209.989 L 1433.92,-210.041 L 1433.95,-210.095
 L 1433.99,-210.153 L 1434.02,-210.213 L 1434.06,-210.276 L 1434.1,-210.343 L 1434.14,-210.412 L 1434.18,-210.484
 L 1434.22,-210.559 L 1434.26,-210.638 L 1434.31,-210.715 L 1434.35,-210.788 L 1434.38,-210.857 L 1434.42,-210.922
 L 1434.45,-210.982 L 1434.48,-211.037 L 1434.51,-211.089 L 1434.53,-211.136 L 1434.56,-211.179 L 1434.58,-211.217
 L 1434.59,-211.251 L 1434.61,-211.281 L 1434.62,-211.306 L 1434.63,-211.327 L 1434.64,-211.344 L 1434.64,-211.356
 L 1434.64,-201.252 z
M 957.035,-199.326 L 959.721,-199.326 L 959.721,-201.252 L 957.035,-201.252 L 957.035,-214.11 L 954.472,-214.11
 L 945.724,-201.225 L 945.724,-199.326 L 954.73,-199.326 L 954.73,-195 L 957.035,-195 z
M 947.975,-201.252 L 948.192,-201.524 L 948.925,-202.527 L 953.821,-209.742 L 953.843,-209.776 L 953.868,-209.813
 L 953.893,-209.852 L 953.92,-209.895 L 953.948,-209.941 L 953.978,-209.989 L 954.009,-210.041 L 954.041,-210.095
 L 954.075,-210.153 L 954.11,-210.213 L 954.147,-210.276 L 954.184,-210.343 L 954.224,-210.412 L 954.264,-210.484
 L 954.306,-210.559 L 954.35,-210.638 L 954.393,-210.715 L 954.433,-210.788 L 954.471,-210.857 L 954.506,-210.922
 L 954.538,-210.982 L 954.568,-211.037 L 954.596,-211.089 L 954.621,-211.136 L 954.643,-211.179 L 954.663,-211.217
 L 954.681,-211.251 L 954.696,-211.281 L 954.708,-211.306 L 954.718,-211.327 L 954.725,-211.344 L 954.73,-211.356
 L 954.73,-201.252 z
M 456.949,-199.326 L 459.634,-199.326 L 459.634,-201.252 L 456.949,-201.252 L 456.949,-214.11 L 454.385,-214.11
 L 445.637,-201.225 L 445.637,-199.326 L 454.643,-199.326 L 454.643,-195 L 456.949,-195 z
M 447.889,-201.252 L 448.106,-201.524 L 448.838,-202.527 L 453.734,-209.742 L 453.757,-209.776 L 453.781,-209.813
 L 453.807,-209.852 L 453.833,-209.895 L 453.862,-209.941 L 453.891,-209.989 L 453.922,-210.041 L 453.955,-210.095
 L 453.988,-210.153 L 454.024,-210.213 L 454.06,-210.276 L 454.098,-210.343 L 454.137,-210.412 L 454.178,-210.484
 L 454.22,-210.559 L 454.263,-210.638 L 454.306,-210.715 L 454.346,-210.788 L 454.384,-210.857 L 454.419,-210.922
 L 454.452,-210.982 L 454.482,-211.037 L 454.509,-211.089 L 454.534,-211.136 L 454.557,-211.179 L 454.577,-211.217
 L 454.594,-211.251 L 454.609,-211.281 L 454.621,-211.306 L 454.631,-211.327 L 454.638,-211.344 L 454.643,-211.356
 L 454.643,-201.252 z
M 1461,-181 L 1461,-260 L 1500,-260 L 1500,-181 z
M 40,600 L 1460,600 L 1460,700 L 1500,700 L 1500,560 L 1460,560
 L 1460,-0 L 440,-0 L 440,270 L 400,270 L 400,560 L 40,560
 L 40,270 L 0,270 L 0,700 L 40,700 z
M 480,560 L 480,40 L 1420,40 L 1420,560 L 1286,560 L 1286,526.133
 L 1266,526.133 L 1266,560 L 1072,560 L 1072,526.133 L 1052,526.133 L 1052,560
 L 858,560 L 858,526.133 L 838,526.133 L 838,560 L 644,560 L 644,526.133
 L 624,526.133 L 624,560 z
" stroke="black" fill="lightgray" stroke-width="0.5"/>
</svg>
