<?xml version="1.0" standalone="no"?>
<!DOCTYPE svg PUBLIC "-//W3C//DTD SVG 1.1//EN" "http://www.w3.org/Graphics/SVG/1.1/DTD/svg11.dtd">
<svg width="975mm" height="363mm" viewBox="0 -20 975 363" xmlns="http://www.w3.org/2000/svg" version="1.1">
<title>OpenSCAD Model</title>
<path d="
M 861,321 L 875.265,321 L 875.296,321.082 L 875.415,321.354 L 875.545,321.615 L 875.687,321.864
 L 875.84,322.102 L 876.004,322.329 L 876.18,322.545 L 876.366,322.749 L 876.561,322.939 L 876.766,323.117
 L 876.98,323.281 L 877.204,323.432 L 877.436,323.57 L 877.678,323.695 L 877.93,323.807 L 878.19,323.905
 L 878.46,323.99 L 878.739,324.063 L 879.028,324.122 L 879.326,324.168 L 879.633,324.201 L 879.95,324.22
 L 880.276,324.227 L 880.502,324.222 L 880.724,324.208 L 880.94,324.185 L 881.152,324.152 L 881.359,324.11
 L 881.561,324.059 L 881.758,323.999 L 881.951,323.929 L 882.138,323.849 L 882.321,323.761 L 882.498,323.663
 L 882.671,323.556 L 882.839,323.439 L 883.002,323.313 L 883.16,323.178 L 883.314,323.033 L 883.461,322.881
 L 883.6,322.72 L 883.732,322.552 L 883.856,322.377 L 883.973,322.195 L 884.082,322.005 L 884.183,321.807
 L 884.277,321.603 L 884.363,321.39 L 884.441,321.171 L 884.512,320.944 L 884.575,320.709 L 884.631,320.467
 L 884.678,320.218 L 884.719,319.961 L 884.751,319.697 L 884.806,319.697 L 884.859,319.938 L 884.919,320.171
 L 884.984,320.397 L 885.055,320.616 L 885.132,320.827 L 885.215,321.031 L 885.303,321.228 L 885.397,321.418
 L 885.497,321.6 L 885.603,321.776 L 885.715,321.943 L 885.832,322.104 L 885.955,322.258 L 886.084,322.404
 L 886.218,322.543 L 886.359,322.674 L 886.505,322.798 L 886.656,322.914 L 886.812,323.022 L 886.974,323.122
 L 887.142,323.214 L 887.314,323.298 L 887.492,323.374 L 887.676,323.442 L 887.865,323.502 L 888.059,323.554
 L 888.258,323.598 L 888.463,323.634 L 888.673,323.662 L 888.889,323.682 L 889.109,323.694 L 889.336,323.698
 L 889.63,323.692 L 889.916,323.673 L 890.194,323.642 L 890.463,323.599 L 890.725,323.543 L 890.978,323.474
 L 891.223,323.393 L 891.46,323.3 L 891.688,323.194 L 891.909,323.076 L 892.121,322.945 L 892.325,322.802
 L 892.521,322.646 L 892.708,322.478 L 892.887,322.298 L 893.058,322.105 L 893.22,321.9 L 893.372,321.686
 L 893.512,321.462 L 893.643,321.228 L 893.763,320.983 L 893.873,320.729 L 893.972,320.465 L 894.06,320.191
 L 894.139,319.906 L 894.207,319.612 L 894.264,319.308 L 894.311,318.993 L 894.347,318.669 L 894.374,318.334
 L 894.389,317.99 L 894.394,317.636 L 894.389,317.31 L 894.374,316.993 L 894.348,316.683 L 894.312,316.38
 L 894.266,316.085 L 894.209,315.797 L 894.143,315.516 L 894.065,315.244 L 893.978,314.978 L 893.88,314.72
 L 893.773,314.47 L 893.654,314.227 L 893.526,313.991 L 893.387,313.763 L 893.238,313.543 L 893.079,313.33
 L 892.91,313.126 L 892.734,312.933 L 892.549,312.751 L 892.357,312.58 L 892.156,312.42 L 891.947,312.271
 L 891.73,312.133 L 891.506,312.006 L 891.273,311.889 L 891.032,311.784 L 890.783,311.69 L 890.526,311.607
 L 890.261,311.534 L 889.987,311.473 L 889.706,311.423 L 889.417,311.383 L 889.227,313.838 L 889.413,313.862
 L 889.593,313.892 L 889.768,313.929 L 889.937,313.972 L 890.102,314.021 L 890.261,314.078 L 890.415,314.14
 L 890.563,314.209 L 890.706,314.285 L 890.844,314.367 L 890.977,314.456 L 891.104,314.552 L 891.226,314.653
 L 891.342,314.762 L 891.454,314.876 L 891.56,314.998 L 891.66,315.125 L 891.754,315.257 L 891.841,315.393
 L 891.922,315.535 L 891.996,315.681 L 892.064,315.832 L 892.125,315.988 L 892.18,316.149 L 892.229,316.314
 L 892.271,316.485 L 892.306,316.66 L 892.335,316.84 L 892.358,317.025 L 892.374,317.215 L 892.384,317.409
 L 892.387,317.609 L 892.384,317.827 L 892.373,318.039 L 892.356,318.244 L 892.332,318.442 L 892.3,318.634
 L 892.262,318.818 L 892.217,318.996 L 892.165,319.166 L 892.106,319.33 L 892.04,319.488 L 891.967,319.638
 L 891.887,319.781 L 891.801,319.918 L 891.707,320.048 L 891.606,320.171 L 891.499,320.287 L 891.385,320.396
 L 891.267,320.498 L 891.143,320.594 L 891.014,320.682 L 890.881,320.763 L 890.742,320.837 L 890.598,320.904
 L 890.449,320.963 L 890.296,321.016 L 890.137,321.062 L 889.973,321.101 L 889.804,321.133 L 889.63,321.157
 L 889.451,321.175 L 889.267,321.185 L 889.078,321.189 L 888.887,321.185 L 888.702,321.172 L 888.522,321.15
 L 888.347,321.12 L 888.177,321.081 L 888.013,321.034 L 887.854,320.977 L 887.7,320.913 L 887.551,320.839
 L 887.407,320.757 L 887.269,320.667 L 887.136,320.567 L 887.009,320.459 L 886.886,320.343 L 886.769,320.217
 L 886.657,320.084 L 886.551,319.942 L 886.452,319.793 L 886.36,319.637 L 886.274,319.475 L 886.196,319.305
 L 886.124,319.128 L 886.059,318.944 L 886.001,318.753 L 885.95,318.555 L 885.905,318.35 L 885.868,318.138
 L 885.837,317.918 L 885.813,317.692 L 885.796,317.459 L 885.786,317.219 L 885.782,316.971 L 885.782,315.642
 L 883.666,315.642 L 883.666,317.025 L 883.663,317.304 L 883.653,317.575 L 883.636,317.837 L 883.612,318.091
 L 883.581,318.337 L 883.543,318.574 L 883.499,318.803 L 883.448,319.024 L 883.39,319.237 L 883.325,319.441
 L 883.253,319.636 L 883.174,319.824 L 883.089,320.003 L 882.997,320.174 L 882.898,320.336 L 882.792,320.491
 L 882.68,320.636 L 882.562,320.772 L 882.439,320.898 L 882.311,321.016 L 882.178,321.124 L 882.039,321.222
 L 881.895,321.311 L 881.746,321.391 L 881.591,321.461 L 881.431,321.522 L 881.265,321.574 L 881.094,321.616
 L 880.918,321.649 L 880.736,321.672 L 880.549,321.686 L 880.357,321.691 L 880.137,321.687 L 879.923,321.674
 L 879.717,321.654 L 879.517,321.625 L 879.324,321.588 L 879.138,321.543 L 878.959,321.49 L 878.787,321.428
 L 878.622,321.358 L 878.464,321.28 L 878.312,321.194 L 878.168,321.099 L 878.034,321 L 880,321
 L 880,320 L 877.228,320 L 877.179,319.905 L 877.105,319.74 L 877.037,319.568 L 876.977,319.39
 L 876.924,319.206 L 876.877,319.016 L 876.838,318.819 L 876.806,318.617 L 876.782,318.408 L 876.764,318.193
 L 876.753,317.972 L 876.75,317.744 L 876.763,317.297 L 876.803,316.875 L 876.869,316.478 L 876.962,316.106
 L 877.081,315.758 L 877.226,315.436 L 877.399,315.138 L 877.597,314.866 L 877.822,314.618 L 878.074,314.395
 L 878.352,314.197 L 878.657,314.024 L 878.988,313.876 L 879.346,313.752 L 879.73,313.654 L 880.14,313.581
 L 879.91,311.058 L 879.594,311.104 L 879.288,311.161 L 878.992,311.229 L 878.706,311.308 L 878.43,311.398
 L 878.164,311.499 L 877.907,311.611 L 877.66,311.734 L 877.423,311.868 L 877.196,312.013 L 876.978,312.169
 L 876.77,312.336 L 876.572,312.513 L 876.384,312.702 L 876.206,312.902 L 876.038,313.113 L 875.879,313.333
 L 875.731,313.563 L 875.593,313.802 L 875.465,314.051 L 875.347,314.308 L 875.24,314.574 L 875.143,314.85
 L 875.056,315.135 L 874.979,315.429 L 874.913,315.732 L 874.857,316.045 L 874.811,316.366 L 874.775,316.697
 L 874.749,317.037 L 874.734,317.386 L 874.729,317.744 L 874.734,318.128 L 874.751,318.502 L 874.78,318.863
 L 874.82,319.214 L 874.871,319.553 L 874.933,319.882 L 874.96,320 L 861,320 L 861,291
 L 880,291 L 880,290 L 861,290 L 861,288 L 940,288 L 940,343
 L 941,343 L 941,288 L 960,288 L 960,287 L 941,287 L 941,1
 L 960,1 L 960,-0 L 941,-0 L 941,-20 L 940,-20 L 940,-0
 L 861,-0 L 861,-20 L 860,-20 L 860,-0 L 780,-0 L 780,1
 L 860,1 L 860,60 L 780,60 L 780,61 L 860,61 L 860,80
 L 780,80 L 780,81 L 860,81 L 860,270 L 780,270 L 780,271
 L 860,271 L 860,287 L 780,287 L 780,288 L 860,288 L 860,290
 L 780,290 L 780,291 L 860,291 L 860,320 L 780,320 L 780,321
 L 860,321 L 860,343 L 861,343 z
M 861,287 L 861,271 L 874.943,271 L 874.886,271.231 L 874.817,271.598 L 874.768,271.978
 L 874.739,272.371 L 874.729,272.777 L 874.739,273.182 L 874.768,273.575 L 874.817,273.956 L 874.886,274.324
 L 874.975,274.679 L 875.084,275.022 L 875.212,275.353 L 875.359,275.67 L 875.527,275.976 L 875.714,276.268
 L 875.921,276.548 L 876.148,276.816 L 876.394,277.071 L 876.66,277.313 L 876.946,277.543 L 877.251,277.761
 L 877.576,277.965 L 877.917,278.156 L 878.277,278.334 L 878.654,278.499 L 879.049,278.651 L 879.462,278.79
 L 879.892,278.915 L 880.34,279.027 L 880.806,279.126 L 881.289,279.212 L 881.791,279.284 L 882.309,279.344
 L 882.846,279.39 L 883.4,279.423 L 883.972,279.443 L 884.562,279.449 L 885.161,279.443 L 885.742,279.424
 L 886.304,279.393 L 886.847,279.349 L 887.372,279.292 L 887.878,279.223 L 888.365,279.141 L 888.834,279.047
 L 889.284,278.941 L 889.715,278.821 L 890.128,278.689 L 890.522,278.545 L 890.898,278.388 L 891.255,278.219
 L 891.593,278.037 L 891.912,277.842 L 892.213,277.634 L 892.494,277.413 L 892.756,277.177 L 892.998,276.928
 L 893.221,276.665 L 893.425,276.388 L 893.609,276.097 L 893.774,275.792 L 893.919,275.474 L 894.045,275.142
 L 894.152,274.796 L 894.239,274.436 L 894.307,274.062 L 894.356,273.675 L 894.385,273.273 L 894.394,272.858
 L 894.385,272.431 L 894.356,272.019 L 894.308,271.621 L 894.241,271.238 L 894.155,270.87 L 894.049,270.516
 L 893.925,270.177 L 893.781,269.852 L 893.618,269.542 L 893.435,269.246 L 893.234,268.965 L 893.014,268.699
 L 892.774,268.447 L 892.515,268.21 L 892.237,267.987 L 891.94,267.779 L 891.623,267.584 L 891.287,267.402
 L 890.932,267.233 L 890.558,267.076 L 890.164,266.931 L 889.751,266.799 L 889.319,266.68 L 888.868,266.573
 L 888.397,266.479 L 887.907,266.398 L 887.398,266.328 L 886.869,266.272 L 886.321,266.228 L 885.754,266.197
 L 885.167,266.178 L 884.562,266.172 L 883.969,266.178 L 883.394,266.197 L 882.837,266.23 L 882.298,266.275
 L 881.778,266.333 L 881.275,266.404 L 880.79,266.488 L 880.323,266.585 L 879.875,266.695 L 879.444,266.818
 L 879.031,266.954 L 878.636,267.102 L 878.26,267.264 L 877.901,267.438 L 877.56,267.626 L 877.238,267.826
 L 876.934,268.039 L 876.65,268.265 L 876.385,268.504 L 876.14,268.756 L 875.915,269.021 L 875.709,269.298
 L 875.523,269.588 L 875.356,269.891 L 875.305,270 L 861,270 L 861,81 L 875.543,81
 L 875.714,81.2682 L 875.921,81.5483 L 876.148,81.8159 L 876.394,82.0709 L 876.66,82.3133 L 876.946,82.5432
 L 877.251,82.7605 L 877.576,82.965 L 877.917,83.1563 L 878.277,83.3344 L 878.654,83.4993 L 879.049,83.651
 L 879.462,83.7895 L 879.892,83.9148 L 880.34,84.027 L 880.806,84.1259 L 881.289,84.2117 L 881.791,84.2842
 L 882.309,84.3436 L 882.846,84.3898 L 883.4,84.4227 L 883.972,84.4425 L 884.562,84.4491 L 885.161,84.4428
 L 885.742,84.424 L 886.304,84.3926 L 886.847,84.3487 L 887.372,84.2922 L 887.878,84.2231 L 888.365,84.1415
 L 888.834,84.0473 L 889.284,83.9406 L 889.715,83.8213 L 890.128,83.6895 L 890.522,83.5451 L 890.898,83.3881
 L 891.255,83.2186 L 891.593,83.0365 L 891.912,82.8419 L 892.213,82.6341 L 892.494,82.4125 L 892.756,82.1771
 L 892.998,81.9278 L 893.221,81.6647 L 893.425,81.3878 L 893.609,81.097 L 893.774,80.7924 L 893.919,80.474
 L 894.045,80.1418 L 894.152,79.7957 L 894.239,79.4358 L 894.307,79.0621 L 894.356,78.6745 L 894.385,78.2731
 L 894.394,77.8579 L 894.385,77.4312 L 894.356,77.0191 L 894.308,76.6215 L 894.241,76.2385 L 894.155,75.87
 L 894.049,75.5162 L 893.925,75.1768 L 893.781,74.8521 L 893.618,74.5419 L 893.435,74.2464 L 893.234,73.9653
 L 893.014,73.6989 L 892.774,73.447 L 892.515,73.2097 L 892.237,72.9869 L 891.94,72.7787 L 891.623,72.5841
 L 891.287,72.402 L 890.932,72.2325 L 890.558,72.0756 L 890.164,71.9312 L 889.751,71.7993 L 889.319,71.68
 L 888.868,71.5733 L 888.397,71.4791 L 887.907,71.3975 L 887.398,71.3285 L 886.869,71.272 L 886.321,71.228
 L 885.754,71.1966 L 885.167,71.1778 L 884.562,71.1715 L 883.969,71.178 L 883.394,71.1974 L 882.837,71.2297
 L 882.298,71.2749 L 881.778,71.3331 L 881.275,71.4042 L 880.79,71.4882 L 880.323,71.5852 L 879.875,71.695
 L 879.444,71.8178 L 879.031,71.9536 L 878.636,72.1022 L 878.26,72.2638 L 877.901,72.4383 L 877.56,72.6257
 L 877.238,72.8261 L 876.934,73.0394 L 876.65,73.2654 L 876.385,73.5043 L 876.14,73.756 L 875.915,74.0205
 L 875.709,74.2979 L 875.523,74.588 L 875.356,74.891 L 875.209,75.2068 L 875.082,75.5355 L 874.974,75.8769
 L 874.886,76.2312 L 874.817,76.5983 L 874.768,76.9782 L 874.739,77.371 L 874.729,77.7765 L 874.739,78.1822
 L 874.768,78.5753 L 874.817,78.9559 L 874.886,79.3239 L 874.975,79.6793 L 875.077,80 L 861,80
 L 861,61 L 875,61 L 875,69.0508 L 877.075,69.0508 L 877.075,61 L 879.663,61
 L 879.713,61.05 L 879.852,61.1927 L 879.992,61.3404 L 880.135,61.493 L 880.28,61.6506 L 880.426,61.8132
 L 880.575,61.9808 L 880.725,62.1533 L 880.878,62.3309 L 881.032,62.5134 L 881.189,62.7009 L 881.347,62.8934
 L 881.631,63.2406 L 881.905,63.5734 L 882.169,63.892 L 882.425,64.1963 L 882.67,64.4862 L 882.907,64.7619
 L 883.134,65.0232 L 883.351,65.2702 L 883.559,65.503 L 883.758,65.7214 L 883.947,65.9255 L 884.127,66.1154
 L 884.297,66.2909 L 884.458,66.4521 L 884.609,66.599 L 884.751,66.7316 L 884.889,66.8551 L 885.026,66.9748
 L 885.163,67.0905 L 885.301,67.2025 L 885.438,67.3105 L 885.575,67.4147 L 885.713,67.515 L 885.85,67.6114
 L 885.987,67.704 L 886.125,67.7927 L 886.262,67.8776 L 886.399,67.9586 L 886.537,68.0357 L 886.674,68.1089
 L 886.811,68.1783 L 886.949,68.2438 L 887.086,68.3054 L 887.223,68.363 L 887.361,68.4166 L 887.499,68.4663
 L 887.637,68.512 L 887.774,68.5537 L 887.912,68.5915 L 888.051,68.6252 L 888.189,68.655 L 888.327,68.6809
 L 888.465,68.7027 L 888.604,68.7206 L 888.743,68.7345 L 888.881,68.7444 L 889.02,68.7504 L 889.159,68.7524
 L 889.468,68.7463 L 889.769,68.7281 L 890.06,68.6978 L 890.342,68.6553 L 890.616,68.6007 L 890.88,68.534
 L 891.135,68.4551 L 891.382,68.3641 L 891.619,68.261 L 891.848,68.1458 L 892.068,68.0184 L 892.278,67.8788
 L 892.48,67.7272 L 892.673,67.5634 L 892.857,67.3875 L 893.031,67.1994 L 893.196,67.0001 L 893.351,66.7903
 L 893.495,66.5701 L 893.628,66.3395 L 893.75,66.0984 L 893.862,65.8469 L 893.963,65.585 L 894.054,65.3126
 L 894.133,65.0298 L 894.203,64.7365 L 894.261,64.4328 L 894.309,64.1187 L 894.346,63.7941 L 894.373,63.4591
 L 894.389,63.1137 L 894.394,62.7578 L 894.389,62.4326 L 894.373,62.1149 L 894.347,61.8047 L 894.31,61.502
 L 894.262,61.2067 L 894.204,60.9189 L 894.135,60.6385 L 894.055,60.3656 L 893.965,60.1002 L 893.865,59.8423
 L 893.753,59.5918 L 893.631,59.3489 L 893.499,59.1133 L 893.356,58.8853 L 893.202,58.6647 L 893.038,58.4516
 L 892.865,58.2477 L 892.684,58.0548 L 892.497,57.8728 L 892.301,57.7018 L 892.099,57.5418 L 891.889,57.3927
 L 891.672,57.2547 L 891.448,57.1275 L 891.216,57.0114 L 890.977,56.9062 L 890.731,56.812 L 890.477,56.7287
 L 890.216,56.6564 L 889.948,56.5951 L 889.673,56.5448 L 889.39,56.5054 L 889.159,59.001 L 889.348,59.0263
 L 889.532,59.0581 L 889.71,59.0964 L 889.883,59.1412 L 890.05,59.1926 L 890.212,59.2505 L 890.369,59.3148
 L 890.521,59.3857 L 890.667,59.4632 L 890.807,59.5471 L 890.943,59.6376 L 891.073,59.7345 L 891.197,59.838
 L 891.317,59.948 L 891.431,60.0645 L 891.539,60.1876 L 891.642,60.316 L 891.738,60.4488 L 891.828,60.5858
 L 891.91,60.7271 L 891.986,60.8727 L 892.056,61.0227 L 892.119,61.1768 L 892.175,61.3353 L 892.225,61.4981
 L 892.268,61.6652 L 892.304,61.8366 L 892.334,62.0122 L 892.357,62.1922 L 892.374,62.3764 L 892.384,62.565
 L 892.387,62.7578 L 892.384,62.9601 L 892.374,63.1568 L 892.357,63.3479 L 892.333,63.5334 L 892.302,63.7132
 L 892.265,63.8875 L 892.221,64.0561 L 892.17,64.2191 L 892.113,64.3765 L 892.048,64.5283 L 891.977,64.6744
 L 891.899,64.815 L 891.814,64.9499 L 891.723,65.0792 L 891.624,65.2029 L 891.519,65.321 L 891.408,65.4327
 L 891.291,65.5372 L 891.169,65.6345 L 891.041,65.7245 L 890.908,65.8074 L 890.769,65.8831 L 890.625,65.9515
 L 890.475,66.0128 L 890.32,66.0668 L 890.159,66.1137 L 889.992,66.1533 L 889.82,66.1857 L 889.643,66.211
 L 889.46,66.229 L 889.272,66.2398 L 889.078,66.2434 L 888.933,66.2413 L 888.79,66.235 L 888.649,66.2245
 L 888.51,66.2099 L 888.373,66.1911 L 888.237,66.168 L 888.104,66.1408 L 887.973,66.1094 L 887.843,66.0739
 L 887.715,66.0341 L 887.59,65.9901 L 887.466,65.942 L 887.344,65.8897 L 887.224,65.8332 L 887.105,65.7725
 L 886.989,65.7076 L 886.874,65.6393 L 886.76,65.5685 L 886.646,65.495 L 886.533,65.4189 L 886.421,65.3403
 L 886.309,65.259 L 886.198,65.1752 L 886.087,65.0887 L 885.977,64.9997 L 885.868,64.9081 L 885.76,64.8139
 L 885.652,64.717 L 885.544,64.6176 L 885.438,64.5156 L 885.331,64.411 L 885.226,64.3038 L 885.121,64.1945
 L 885.016,64.0835 L 884.911,63.9709 L 884.806,63.8567 L 884.7,63.7408 L 884.595,63.6232 L 884.49,63.5041
 L 884.385,63.3832 L 884.28,63.2608 L 884.175,63.1367 L 884.07,63.0109 L 883.965,62.8836 L 883.86,62.7545
 L 883.755,62.6239 L 883.649,62.4915 L 883.544,62.3576 L 883.439,62.2227 L 883.332,62.0877 L 883.224,61.9525
 L 883.115,61.8172 L 883.005,61.6817 L 882.894,61.5461 L 882.781,61.4103 L 882.668,61.2743 L 882.553,61.1382
 L 882.438,61.0019 L 882.321,60.8654 L 882.203,60.7288 L 882.084,60.5921 L 881.964,60.4551 L 881.843,60.318
 L 881.72,60.1808 L 881.596,60.0439 L 881.471,59.9078 L 881.343,59.7725 L 881.214,59.6379 L 881.083,59.5042
 L 880.95,59.3712 L 880.816,59.2391 L 880.679,59.1077 L 880.541,58.9772 L 880.401,58.8474 L 880.259,58.7184
 L 880.116,58.5902 L 879.97,58.4628 L 879.823,58.3362 L 879.674,58.2104 L 879.523,58.0854 L 879.37,57.962
 L 879.214,57.841 L 879.055,57.7223 L 878.893,57.6061 L 878.728,57.4922 L 878.56,57.3807 L 878.39,57.2716
 L 878.216,57.1649 L 878.039,57.0606 L 877.86,56.9586 L 877.678,56.8591 L 877.492,56.7619 L 877.304,56.6671
 L 877.113,56.5747 L 876.919,56.4846 L 876.722,56.397 L 875,56.397 L 875,60 L 861,60
 L 861,1 L 940,1 L 940,287 z
M 881.597,29.2209 L 881.933,29.2027 L 882.26,29.1724 L 882.578,29.1299 L 882.887,29.0753 L 883.188,29.0086
 L 883.479,28.9297 L 883.761,28.8387 L 884.035,28.7356 L 884.3,28.6203 L 884.555,28.493 L 884.802,28.3534
 L 885.04,28.2018 L 885.269,28.038 L 885.49,27.862 L 885.701,27.674 L 885.901,27.4756 L 886.089,27.2687
 L 886.263,27.0533 L 886.425,26.8294 L 886.573,26.5969 L 886.709,26.3559 L 886.832,26.1063 L 886.942,25.8482
 L 887.039,25.5816 L 887.123,25.3065 L 887.194,25.0228 L 887.252,24.7307 L 887.297,24.4299 L 887.33,24.1207
 L 887.349,23.8029 L 887.355,23.4766 L 887.353,23.283 L 887.345,23.0921 L 887.333,22.9041 L 887.315,22.7188
 L 887.292,22.5362 L 887.265,22.3564 L 887.232,22.1793 L 887.194,22.005 L 887.152,21.8335 L 887.104,21.6647
 L 887.051,21.4986 L 886.993,21.3353 L 886.93,21.1748 L 886.862,21.0171 L 886.789,20.862 L 886.711,20.7098
 L 886.628,20.561 L 886.541,20.4165 L 886.449,20.2762 L 886.352,20.1402 L 886.251,20.0084 L 886.145,19.8808
 L 886.035,19.7575 L 885.919,19.6384 L 885.8,19.5235 L 885.675,19.4129 L 885.547,19.3065 L 885.413,19.2044
 L 885.275,19.1065 L 885.132,19.0128 L 884.985,18.9234 L 884.833,18.8382 L 885.287,18.8427 L 885.728,18.8561
 L 886.155,18.8785 L 886.568,18.9098 L 886.968,18.9501 L 887.354,18.9993 L 887.727,19.0575 L 888.086,19.1247
 L 888.431,19.2008 L 888.763,19.2858 L 889.081,19.3799 L 889.386,19.4828 L 889.677,19.5947 L 889.954,19.7156
 L 890.218,19.8454 L 890.468,19.9842 L 890.704,20.1311 L 890.924,20.2854 L 891.129,20.4471 L 891.319,20.6161
 L 891.494,20.7925 L 891.654,20.9762 L 891.798,21.1674 L 891.928,21.3658 L 892.042,21.5717 L 892.141,21.7849
 L 892.224,22.0055 L 892.293,22.2334 L 892.346,22.4687 L 892.384,22.7114 L 892.407,22.9614 L 892.414,23.2188
 L 892.405,23.5156 L 892.378,23.799 L 892.332,24.0691 L 892.268,24.3259 L 892.186,24.5693 L 892.086,24.7993
 L 891.968,25.016 L 891.831,25.2193 L 891.676,25.4093 L 891.503,25.586 L 891.312,25.7493 L 891.102,25.8992
 L 890.874,26.0358 L 890.628,26.159 L 890.364,26.2689 L 890.082,26.3654 L 890.502,28.6982 L 890.973,28.545
 L 891.414,28.3667 L 891.825,28.1635 L 892.205,27.9353 L 892.555,27.682 L 892.874,27.4038 L 893.163,27.1005
 L 893.421,26.7722 L 893.649,26.419 L 893.847,26.0407 L 894.014,25.6374 L 894.151,25.2092 L 894.258,24.7559
 L 894.334,24.2776 L 894.379,23.7743 L 894.394,23.246 L 894.384,22.8416 L 894.353,22.449 L 894.301,22.0681
 L 894.228,21.699 L 894.135,21.3416 L 894.021,20.9961 L 893.886,20.6622 L 893.73,20.3402 L 893.553,20.0299
 L 893.356,19.7314 L 893.138,19.4446 L 892.899,19.1696 L 892.639,18.9063 L 892.359,18.6549 L 892.058,18.4151
 L 891.736,18.1872 L 891.395,17.9721 L 891.035,17.7708 L 890.658,17.5834 L 890.263,17.4099 L 889.849,17.2503
 L 889.418,17.1046 L 888.969,16.9727 L 888.501,16.8547 L 888.016,16.7506 L 887.513,16.6604 L 886.991,16.5841
 L 886.452,16.5216 L 885.894,16.4731 L 885.319,16.4384 L 884.725,16.4175 L 884.114,16.4106 L 883.549,16.4173
 L 883.002,16.4373 L 882.472,16.4707 L 881.958,16.5174 L 881.462,16.5775 L 880.983,16.6509 L 880.521,16.7377
 L 880.076,16.8378 L 879.648,16.9513 L 879.237,17.0781 L 878.843,17.2183 L 878.466,17.3718 L 878.106,17.5387
 L 877.763,17.7189 L 877.438,17.9125 L 877.129,18.1194 L 876.839,18.3389 L 876.567,18.5703 L 876.313,18.8136
 L 876.079,19.0687 L 875.863,19.3358 L 875.666,19.6146 L 875.488,19.9054 L 875.329,20.208 L 875.188,20.5225
 L 875.066,20.8488 L 874.963,21.1871 L 874.879,21.5371 L 874.813,21.8991 L 874.766,22.2729 L 874.738,22.6586
 L 874.729,23.0562 L 874.736,23.4124 L 874.756,23.7589 L 874.79,24.0956 L 874.838,24.4226 L 874.9,24.7398
 L 874.975,25.0473 L 875.064,25.3451 L 875.166,25.633 L 875.282,25.9113 L 875.412,26.1798 L 875.556,26.4385
 L 875.713,26.6875 L 875.884,26.9267 L 876.068,27.1562 L 876.266,27.376 L 876.478,27.586 L 876.702,27.7847
 L 876.936,27.9706 L 877.179,28.1437 L 877.433,28.3039 L 877.696,28.4514 L 877.97,28.586 L 878.253,28.7078
 L 878.547,28.8167 L 878.85,28.9129 L 879.163,28.9962 L 879.487,29.0667 L 879.82,29.1244 L 880.163,29.1693
 L 880.516,29.2014 L 880.879,29.2206 L 881.252,29.227 z
M 880.888,26.7413 L 880.639,26.7295 L 880.397,26.7099 L 880.162,26.6824 L 879.934,26.6472 L 879.712,26.604
 L 879.498,26.5531 L 879.291,26.4942 L 879.09,26.4276 L 878.897,26.3531 L 878.71,26.2707 L 878.531,26.1806
 L 878.358,26.0825 L 878.193,25.9767 L 878.034,25.8629 L 877.882,25.7414 L 877.738,25.613 L 877.604,25.4786
 L 877.479,25.3383 L 877.363,25.1921 L 877.256,25.04 L 877.159,24.8819 L 877.071,24.7179 L 876.992,24.5479
 L 876.923,24.3721 L 876.862,24.1902 L 876.811,24.0025 L 876.77,23.8088 L 876.737,23.6092 L 876.714,23.4037
 L 876.7,23.1922 L 876.695,22.9748 L 876.701,22.7636 L 876.717,22.5572 L 876.745,22.3556 L 876.784,22.1589
 L 876.833,21.9669 L 876.894,21.7798 L 876.965,21.5975 L 877.048,21.4201 L 877.142,21.2475 L 877.246,21.0796
 L 877.362,20.9166 L 877.489,20.7585 L 877.626,20.6051 L 877.775,20.4566 L 877.935,20.3129 L 878.106,20.174
 L 878.285,20.0418 L 878.471,19.9182 L 878.663,19.803 L 878.861,19.6964 L 879.066,19.5983 L 879.276,19.5088
 L 879.493,19.4278 L 879.716,19.3553 L 879.946,19.2913 L 880.182,19.2359 L 880.423,19.189 L 880.672,19.1506
 L 880.926,19.1208 L 881.187,19.0994 L 881.454,19.0867 L 881.727,19.0824 L 881.943,19.0865 L 882.153,19.0988
 L 882.357,19.1193 L 882.555,19.1481 L 882.747,19.185 L 882.933,19.2302 L 883.114,19.2836 L 883.288,19.3451
 L 883.457,19.4149 L 883.62,19.4929 L 883.777,19.5791 L 883.928,19.6736 L 884.073,19.7762 L 884.212,19.8871
 L 884.346,20.0061 L 884.473,20.1334 L 884.594,20.2674 L 884.707,20.4065 L 884.812,20.5507 L 884.909,20.7001
 L 884.999,20.8546 L 885.081,21.0143 L 885.155,21.1791 L 885.221,21.349 L 885.279,21.5241 L 885.33,21.7043
 L 885.373,21.8896 L 885.408,22.0801 L 885.435,22.2757 L 885.455,22.4765 L 885.466,22.6824 L 885.47,22.8934
 L 885.466,23.1174 L 885.453,23.3352 L 885.431,23.5468 L 885.4,23.7521 L 885.36,23.9511 L 885.312,24.1439
 L 885.255,24.3305 L 885.189,24.5107 L 885.114,24.6848 L 885.03,24.8526 L 884.938,25.0141 L 884.837,25.1694
 L 884.727,25.3184 L 884.608,25.4612 L 884.481,25.5977 L 884.344,25.728 L 884.2,25.8512 L 884.048,25.9664
 L 883.889,26.0737 L 883.722,26.173 L 883.548,26.2644 L 883.367,26.3479 L 883.178,26.4233 L 882.981,26.4909
 L 882.778,26.5505 L 882.567,26.6021 L 882.348,26.6459 L 882.122,26.6816 L 881.889,26.7094 L 881.648,26.7293
 L 881.399,26.7412 L 881.144,26.7452 z
M 885.161,44.4428 L 885.742,44.424 L 886.304,44.3926 L 886.847,44.3487 L 887.372,44.2922 L 887.878,44.2231
 L 888.365,44.1415 L 888.834,44.0473 L 889.284,43.9406 L 889.715,43.8213 L 890.128,43.6895 L 890.522,43.5451
 L 890.898,43.3881 L 891.255,43.2186 L 891.593,43.0365 L 891.912,42.8419 L 892.213,42.6341 L 892.494,42.4125
 L 892.756,42.1771 L 892.998,41.9278 L 893.221,41.6647 L 893.425,41.3878 L 893.609,41.097 L 893.774,40.7924
 L 893.919,40.474 L 894.045,40.1418 L 894.152,39.7957 L 894.239,39.4358 L 894.307,39.0621 L 894.356,38.6745
 L 894.385,38.2731 L 894.394,37.8579 L 894.385,37.4312 L 894.356,37.0191 L 894.308,36.6215 L 894.241,36.2385
 L 894.155,35.87 L 894.049,35.5162 L 893.925,35.1768 L 893.781,34.8521 L 893.618,34.5419 L 893.435,34.2464
 L 893.234,33.9653 L 893.014,33.6989 L 892.774,33.447 L 892.515,33.2097 L 892.237,32.9869 L 891.94,32.7787
 L 891.623,32.5841 L 891.287,32.402 L 890.932,32.2325 L 890.558,32.0756 L 890.164,31.9312 L 889.751,31.7993
 L 889.319,31.68 L 888.868,31.5733 L 888.397,31.4791 L 887.907,31.3975 L 887.398,31.3285 L 886.869,31.272
 L 886.321,31.228 L 885.754,31.1966 L 885.167,31.1778 L 884.562,31.1715 L 883.969,31.178 L 883.394,31.1974
 L 882.837,31.2297 L 882.298,31.2749 L 881.778,31.3331 L 881.275,31.4042 L 880.79,31.4882 L 880.323,31.5852
 L 879.875,31.695 L 879.444,31.8178 L 879.031,31.9536 L 878.636,32.1022 L 878.26,32.2638 L 877.901,32.4383
 L 877.56,32.6257 L 877.238,32.8261 L 876.934,33.0394 L 876.65,33.2654 L 876.385,33.5043 L 876.14,33.756
 L 875.915,34.0205 L 875.709,34.2979 L 875.523,34.588 L 875.356,34.891 L 875.209,35.2068 L 875.082,35.5355
 L 874.974,35.8769 L 874.886,36.2312 L 874.817,36.5983 L 874.768,36.9782 L 874.739,37.371 L 874.729,37.7765
 L 874.739,38.1822 L 874.768,38.5753 L 874.817,38.9559 L 874.886,39.3239 L 874.975,39.6793 L 875.084,40.0222
 L 875.212,40.3525 L 875.359,40.6703 L 875.527,40.9755 L 875.714,41.2682 L 875.921,41.5483 L 876.148,41.8159
 L 876.394,42.0709 L 876.66,42.3133 L 876.946,42.5432 L 877.251,42.7605 L 877.576,42.965 L 877.917,43.1563
 L 878.277,43.3344 L 878.654,43.4993 L 879.049,43.651 L 879.462,43.7895 L 879.892,43.9148 L 880.34,44.027
 L 880.806,44.1259 L 881.289,44.2117 L 881.791,44.2842 L 882.309,44.3436 L 882.846,44.3898 L 883.4,44.4227
 L 883.972,44.4425 L 884.562,44.4491 z
M 884.071,41.9634 L 883.597,41.9516 L 883.139,41.932 L 882.697,41.9046 L 882.271,41.8693 L 881.861,41.8262
 L 881.467,41.7752 L 881.09,41.7164 L 880.728,41.6498 L 880.383,41.5753 L 880.053,41.493 L 879.74,41.4028
 L 879.443,41.3048 L 879.162,41.1989 L 878.897,41.0853 L 878.648,40.9637 L 878.415,40.8338 L 878.197,40.6948
 L 877.994,40.5468 L 877.806,40.3898 L 877.633,40.2239 L 877.475,40.0489 L 877.332,39.8649 L 877.204,39.6719
 L 877.091,39.4698 L 876.993,39.2588 L 876.91,39.0388 L 876.843,38.8098 L 876.79,38.5717 L 876.752,38.3246
 L 876.73,38.0686 L 876.722,37.8035 L 876.73,37.5368 L 876.752,37.2793 L 876.789,37.031 L 876.84,36.7918
 L 876.906,36.5618 L 876.988,36.341 L 877.083,36.1293 L 877.194,35.9268 L 877.319,35.7335 L 877.459,35.5493
 L 877.613,35.3743 L 877.783,35.2084 L 877.967,35.0518 L 878.166,34.9043 L 878.379,34.7659 L 878.608,34.6367
 L 878.852,34.516 L 879.113,34.4031 L 879.391,34.298 L 879.687,34.2006 L 879.999,34.1111 L 880.329,34.0293
 L 880.675,33.9553 L 881.039,33.8891 L 881.419,33.8307 L 881.817,33.7801 L 882.232,33.7373 L 882.664,33.7022
 L 883.113,33.675 L 883.579,33.6555 L 884.062,33.6438 L 884.562,33.6399 L 885.076,33.6438 L 885.572,33.6553
 L 886.05,33.6745 L 886.509,33.7014 L 886.95,33.7359 L 887.373,33.7782 L 887.777,33.8281 L 888.162,33.8857
 L 888.53,33.951 L 888.878,34.024 L 889.208,34.1046 L 889.52,34.193 L 889.814,34.289 L 890.089,34.3927
 L 890.345,34.5041 L 890.583,34.6231 L 890.805,34.751 L 891.012,34.8888 L 891.205,35.0365 L 891.384,35.1941
 L 891.549,35.3616 L 891.699,35.539 L 891.835,35.7263 L 891.956,35.9235 L 892.064,36.1306 L 892.157,36.3477
 L 892.235,36.5746 L 892.3,36.8115 L 892.35,37.0582 L 892.386,37.3149 L 892.407,37.5815 L 892.414,37.8579
 L 892.407,38.1277 L 892.385,38.3878 L 892.349,38.6382 L 892.298,38.8789 L 892.233,39.1099 L 892.153,39.3312
 L 892.059,39.5428 L 891.95,39.7447 L 891.826,39.937 L 891.688,40.1195 L 891.536,40.2923 L 891.369,40.4555
 L 891.188,40.6089 L 890.992,40.7527 L 890.781,40.8867 L 890.556,41.0111 L 890.315,41.1269 L 890.056,41.2352
 L 889.779,41.3361 L 889.485,41.4295 L 889.172,41.5154 L 888.842,41.5938 L 888.494,41.6648 L 888.129,41.7283
 L 887.745,41.7843 L 887.344,41.8329 L 886.924,41.8739 L 886.487,41.9075 L 886.033,41.9337 L 885.56,41.9524
 L 885.07,41.9636 L 884.562,41.9673 z
M 877.075,134.44 L 894.11,134.44 L 894.11,132.188 L 891.004,127.672 L 888.698,127.672 L 891.777,131.985
 L 877.075,131.985 L 877.075,127.116 L 875,127.116 L 875,139.091 L 877.075,139.091 z
M 885.524,154.212 L 886.088,154.193 L 886.633,154.161 L 887.16,154.116 L 887.668,154.058 L 888.158,153.988
 L 888.629,153.905 L 889.081,153.808 L 889.515,153.699 L 889.931,153.578 L 890.328,153.443 L 890.706,153.296
 L 891.066,153.135 L 891.407,152.962 L 891.73,152.776 L 892.034,152.578 L 892.32,152.366 L 892.588,152.143
 L 892.836,151.908 L 893.067,151.66 L 893.279,151.401 L 893.473,151.129 L 893.648,150.846 L 893.804,150.55
 L 893.943,150.242 L 894.063,149.922 L 894.164,149.59 L 894.247,149.246 L 894.311,148.89 L 894.358,148.522
 L 894.385,148.142 L 894.394,147.749 L 894.388,147.38 L 894.368,147.021 L 894.334,146.672 L 894.287,146.333
 L 894.227,146.005 L 894.153,145.686 L 894.066,145.379 L 893.965,145.081 L 893.852,144.794 L 893.724,144.517
 L 893.583,144.25 L 893.429,143.993 L 893.262,143.747 L 893.081,143.511 L 892.886,143.286 L 892.679,143.07
 L 892.459,142.867 L 892.23,142.676 L 891.99,142.499 L 891.741,142.335 L 891.481,142.183 L 891.212,142.045
 L 890.932,141.921 L 890.643,141.809 L 890.343,141.71 L 890.033,141.625 L 889.714,141.553 L 889.384,141.494
 L 889.045,141.448 L 888.695,141.415 L 888.335,141.395 L 887.966,141.389 L 887.606,141.395 L 887.255,141.413
 L 886.913,141.443 L 886.58,141.485 L 886.256,141.539 L 885.941,141.606 L 885.635,141.684 L 885.338,141.775
 L 885.05,141.878 L 884.771,141.992 L 884.501,142.119 L 884.24,142.258 L 883.988,142.409 L 883.745,142.572
 L 883.511,142.747 L 883.287,142.935 L 883.073,143.132 L 882.873,143.337 L 882.687,143.551 L 882.515,143.772
 L 882.357,144.002 L 882.212,144.239 L 882.081,144.485 L 881.964,144.738 L 881.861,145 L 881.772,145.27
 L 881.696,145.548 L 881.634,145.834 L 881.586,146.128 L 881.551,146.43 L 881.53,146.74 L 881.524,147.058
 L 881.526,147.253 L 881.535,147.447 L 881.55,147.639 L 881.57,147.828 L 881.596,148.016 L 881.628,148.201
 L 881.665,148.385 L 881.708,148.567 L 881.757,148.746 L 881.812,148.924 L 881.873,149.099 L 881.939,149.273
 L 882.011,149.444 L 882.089,149.614 L 882.173,149.781 L 882.263,149.947 L 882.357,150.108 L 882.455,150.263
 L 882.557,150.413 L 882.662,150.556 L 882.772,150.693 L 882.885,150.824 L 883.002,150.95 L 883.122,151.069
 L 883.247,151.182 L 883.375,151.289 L 883.507,151.39 L 883.642,151.485 L 883.782,151.574 L 883.925,151.657
 L 884.072,151.734 L 884.223,151.805 L 883.776,151.793 L 883.343,151.774 L 882.923,151.746 L 882.516,151.709
 L 882.122,151.663 L 881.741,151.609 L 881.373,151.547 L 881.018,151.476 L 880.677,151.396 L 880.348,151.308
 L 880.032,151.211 L 879.729,151.105 L 879.439,150.991 L 879.163,150.869 L 878.899,150.737 L 878.648,150.598
 L 878.412,150.45 L 878.191,150.294 L 877.985,150.132 L 877.794,149.962 L 877.618,149.784 L 877.458,149.599
 L 877.313,149.407 L 877.184,149.207 L 877.069,149 L 876.97,148.786 L 876.886,148.564 L 876.817,148.334
 L 876.764,148.097 L 876.726,147.853 L 876.703,147.602 L 876.695,147.343 L 876.705,147.037 L 876.733,146.746
 L 876.779,146.469 L 876.845,146.205 L 876.928,145.955 L 877.031,145.719 L 877.152,145.496 L 877.292,145.288
 L 877.451,145.093 L 877.628,144.912 L 877.824,144.744 L 878.038,144.591 L 878.271,144.451 L 878.523,144.325
 L 878.793,144.213 L 879.082,144.115 L 878.716,141.782 L 878.458,141.858 L 878.209,141.94 L 877.969,142.028
 L 877.738,142.121 L 877.516,142.221 L 877.303,142.327 L 877.099,142.439 L 876.904,142.557 L 876.718,142.68
 L 876.541,142.81 L 876.374,142.946 L 876.215,143.088 L 876.066,143.235 L 875.925,143.389 L 875.794,143.549
 L 875.671,143.715 L 875.557,143.887 L 875.45,144.066 L 875.351,144.252 L 875.259,144.445 L 875.174,144.645
 L 875.097,144.852 L 875.027,145.065 L 874.964,145.286 L 874.909,145.514 L 874.861,145.748 L 874.821,145.99
 L 874.788,146.238 L 874.762,146.494 L 874.744,146.756 L 874.732,147.025 L 874.729,147.302 L 874.739,147.711
 L 874.77,148.109 L 874.822,148.494 L 874.894,148.868 L 874.987,149.229 L 875.101,149.579 L 875.235,149.917
 L 875.39,150.243 L 875.566,150.557 L 875.762,150.859 L 875.979,151.149 L 876.216,151.428 L 876.475,151.694
 L 876.754,151.948 L 877.053,152.191 L 877.373,152.422 L 877.713,152.639 L 878.07,152.843 L 878.445,153.032
 L 878.838,153.208 L 879.249,153.369 L 879.677,153.517 L 880.124,153.65 L 880.588,153.769 L 881.07,153.875
 L 881.569,153.966 L 882.087,154.043 L 882.622,154.106 L 883.175,154.156 L 883.746,154.191 L 884.335,154.212
 L 884.941,154.219 z
M 887.161,151.558 L 887.024,151.552 L 886.888,151.542 L 886.754,151.528 L 886.622,151.509 L 886.491,151.487
 L 886.363,151.46 L 886.237,151.43 L 886.112,151.395 L 885.99,151.356 L 885.869,151.313 L 885.75,151.267
 L 885.633,151.216 L 885.518,151.161 L 885.405,151.101 L 885.294,151.038 L 885.185,150.971 L 885.08,150.902
 L 884.977,150.829 L 884.878,150.753 L 884.782,150.674 L 884.689,150.592 L 884.599,150.507 L 884.512,150.419
 L 884.429,150.328 L 884.348,150.235 L 884.271,150.138 L 884.197,150.038 L 884.125,149.935 L 884.057,149.828
 L 883.993,149.719 L 883.931,149.607 L 883.872,149.493 L 883.818,149.378 L 883.767,149.261 L 883.72,149.144
 L 883.677,149.025 L 883.637,148.905 L 883.602,148.784 L 883.57,148.661 L 883.542,148.538 L 883.517,148.413
 L 883.496,148.287 L 883.479,148.16 L 883.466,148.032 L 883.457,147.903 L 883.451,147.773 L 883.449,147.641
 L 883.454,147.427 L 883.468,147.218 L 883.492,147.015 L 883.525,146.818 L 883.568,146.626 L 883.62,146.44
 L 883.682,146.26 L 883.753,146.085 L 883.833,145.915 L 883.924,145.752 L 884.023,145.594 L 884.132,145.441
 L 884.251,145.294 L 884.379,145.153 L 884.516,145.018 L 884.663,144.888 L 884.818,144.765 L 884.98,144.649
 L 885.149,144.542 L 885.325,144.443 L 885.507,144.351 L 885.697,144.268 L 885.893,144.192 L 886.096,144.125
 L 886.306,144.065 L 886.522,144.014 L 886.746,143.97 L 886.976,143.934 L 887.213,143.906 L 887.457,143.886
 L 887.708,143.874 L 887.966,143.871 L 888.218,143.874 L 888.464,143.886 L 888.704,143.906 L 888.937,143.934
 L 889.163,143.97 L 889.382,144.014 L 889.595,144.065 L 889.802,144.125 L 890.001,144.192 L 890.194,144.268
 L 890.381,144.351 L 890.561,144.443 L 890.734,144.542 L 890.9,144.649 L 891.06,144.765 L 891.214,144.888
 L 891.359,145.018 L 891.495,145.154 L 891.622,145.295 L 891.739,145.443 L 891.847,145.596 L 891.945,145.755
 L 892.034,145.921 L 892.114,146.091 L 892.184,146.268 L 892.245,146.451 L 892.297,146.639 L 892.339,146.833
 L 892.372,147.033 L 892.395,147.239 L 892.41,147.45 L 892.414,147.668 L 892.409,147.887 L 892.392,148.101
 L 892.365,148.309 L 892.326,148.511 L 892.277,148.708 L 892.217,148.899 L 892.145,149.085 L 892.063,149.265
 L 891.97,149.439 L 891.866,149.608 L 891.751,149.771 L 891.625,149.929 L 891.487,150.081 L 891.339,150.227
 L 891.18,150.367 L 891.01,150.503 L 890.831,150.631 L 890.645,150.75 L 890.452,150.862 L 890.252,150.965
 L 890.045,151.06 L 889.831,151.147 L 889.61,151.226 L 889.381,151.296 L 889.146,151.358 L 888.904,151.412
 L 888.654,151.457 L 888.398,151.494 L 888.134,151.523 L 887.863,151.544 L 887.586,151.556 L 887.301,151.56
 z
M 885.161,169.529 L 885.742,169.511 L 886.304,169.479 L 886.847,169.435 L 887.372,169.379 L 887.878,169.31
 L 888.365,169.228 L 888.834,169.134 L 889.284,169.027 L 889.715,168.908 L 890.128,168.776 L 890.522,168.632
 L 890.898,168.475 L 891.255,168.305 L 891.593,168.123 L 891.912,167.928 L 892.213,167.721 L 892.494,167.499
 L 892.756,167.264 L 892.998,167.014 L 893.221,166.751 L 893.425,166.474 L 893.609,166.184 L 893.774,165.879
 L 893.919,165.561 L 894.045,165.228 L 894.152,164.882 L 894.239,164.522 L 894.307,164.149 L 894.356,163.761
 L 894.385,163.36 L 894.394,162.944 L 894.385,162.518 L 894.356,162.106 L 894.308,161.708 L 894.241,161.325
 L 894.155,160.957 L 894.049,160.603 L 893.925,160.263 L 893.781,159.939 L 893.618,159.628 L 893.435,159.333
 L 893.234,159.052 L 893.014,158.785 L 892.774,158.533 L 892.515,158.296 L 892.237,158.073 L 891.94,157.865
 L 891.623,157.671 L 891.287,157.489 L 890.932,157.319 L 890.558,157.162 L 890.164,157.018 L 889.751,156.886
 L 889.319,156.767 L 888.868,156.66 L 888.397,156.566 L 887.907,156.484 L 887.398,156.415 L 886.869,156.358
 L 886.321,156.315 L 885.754,156.283 L 885.167,156.264 L 884.562,156.258 L 883.969,156.264 L 883.394,156.284
 L 882.837,156.316 L 882.298,156.361 L 881.778,156.42 L 881.275,156.491 L 880.79,156.575 L 880.323,156.672
 L 879.875,156.782 L 879.444,156.904 L 879.031,157.04 L 878.636,157.189 L 878.26,157.35 L 877.901,157.525
 L 877.56,157.712 L 877.238,157.913 L 876.934,158.126 L 876.65,158.352 L 876.385,158.591 L 876.14,158.843
 L 875.915,159.107 L 875.709,159.384 L 875.523,159.675 L 875.356,159.978 L 875.209,160.293 L 875.082,160.622
 L 874.974,160.963 L 874.886,161.318 L 874.817,161.685 L 874.768,162.065 L 874.739,162.457 L 874.729,162.863
 L 874.739,163.269 L 874.768,163.662 L 874.817,164.042 L 874.886,164.41 L 874.975,164.766 L 875.084,165.109
 L 875.212,165.439 L 875.359,165.757 L 875.527,166.062 L 875.714,166.355 L 875.921,166.635 L 876.148,166.902
 L 876.394,167.157 L 876.66,167.4 L 876.946,167.63 L 877.251,167.847 L 877.576,168.052 L 877.917,168.243
 L 878.277,168.421 L 878.654,168.586 L 879.049,168.738 L 879.462,168.876 L 879.892,169.001 L 880.34,169.113
 L 880.806,169.212 L 881.289,169.298 L 881.791,169.371 L 882.309,169.43 L 882.846,169.476 L 883.4,169.509
 L 883.972,169.529 L 884.562,169.536 z
M 884.071,167.05 L 883.597,167.038 L 883.139,167.019 L 882.697,166.991 L 882.271,166.956 L 881.861,166.913
 L 881.467,166.862 L 881.09,166.803 L 880.728,166.736 L 880.383,166.662 L 880.053,166.579 L 879.74,166.489
 L 879.443,166.391 L 879.162,166.285 L 878.897,166.172 L 878.648,166.05 L 878.415,165.92 L 878.197,165.781
 L 877.994,165.633 L 877.806,165.476 L 877.633,165.31 L 877.475,165.135 L 877.332,164.951 L 877.204,164.758
 L 877.091,164.556 L 876.993,164.345 L 876.91,164.125 L 876.843,163.896 L 876.79,163.658 L 876.752,163.411
 L 876.73,163.155 L 876.722,162.89 L 876.73,162.623 L 876.752,162.366 L 876.789,162.118 L 876.84,161.878
 L 876.906,161.648 L 876.988,161.428 L 877.083,161.216 L 877.194,161.013 L 877.319,160.82 L 877.459,160.636
 L 877.613,160.461 L 877.783,160.295 L 877.967,160.138 L 878.166,159.991 L 878.379,159.852 L 878.608,159.723
 L 878.852,159.603 L 879.113,159.49 L 879.391,159.384 L 879.687,159.287 L 879.999,159.198 L 880.329,159.116
 L 880.675,159.042 L 881.039,158.976 L 881.419,158.917 L 881.817,158.867 L 882.232,158.824 L 882.664,158.789
 L 883.113,158.761 L 883.579,158.742 L 884.062,158.73 L 884.562,158.726 L 885.076,158.73 L 885.572,158.742
 L 886.05,158.761 L 886.509,158.788 L 886.95,158.822 L 887.373,158.865 L 887.777,158.915 L 888.162,158.972
 L 888.53,159.038 L 888.878,159.111 L 889.208,159.191 L 889.52,159.279 L 889.814,159.376 L 890.089,159.479
 L 890.345,159.591 L 890.583,159.71 L 890.805,159.838 L 891.012,159.975 L 891.205,160.123 L 891.384,160.281
 L 891.549,160.448 L 891.699,160.626 L 891.835,160.813 L 891.956,161.01 L 892.064,161.217 L 892.157,161.434
 L 892.235,161.661 L 892.3,161.898 L 892.35,162.145 L 892.386,162.401 L 892.407,162.668 L 892.414,162.944
 L 892.407,163.214 L 892.385,163.474 L 892.349,163.725 L 892.298,163.965 L 892.233,164.196 L 892.153,164.418
 L 892.059,164.629 L 891.95,164.831 L 891.826,165.023 L 891.688,165.206 L 891.536,165.379 L 891.369,165.542
 L 891.188,165.695 L 890.992,165.839 L 890.781,165.973 L 890.556,166.098 L 890.315,166.213 L 890.056,166.322
 L 889.779,166.423 L 889.485,166.516 L 889.172,166.602 L 888.842,166.68 L 888.494,166.751 L 888.129,166.815
 L 887.745,166.871 L 887.344,166.919 L 886.924,166.96 L 886.487,166.994 L 886.033,167.02 L 885.56,167.039
 L 885.07,167.05 L 884.562,167.054 z
M 877.075,254.082 L 877.194,254.135 L 877.314,254.192 L 877.434,254.253 L 877.554,254.318 L 877.676,254.387
 L 877.798,254.46 L 877.92,254.537 L 878.043,254.618 L 878.167,254.703 L 878.291,254.792 L 878.416,254.885
 L 878.541,254.982 L 878.667,255.084 L 878.794,255.189 L 878.921,255.298 L 879.048,255.411 L 879.177,255.529
 L 879.308,255.652 L 879.441,255.78 L 879.576,255.912 L 879.713,256.05 L 879.852,256.193 L 879.992,256.34
 L 880.135,256.493 L 880.28,256.651 L 880.426,256.813 L 880.575,256.981 L 880.725,257.153 L 880.878,257.331
 L 881.032,257.513 L 881.189,257.701 L 881.347,257.893 L 881.631,258.241 L 881.905,258.573 L 882.169,258.892
 L 882.425,259.196 L 882.67,259.486 L 882.907,259.762 L 883.134,260.023 L 883.351,260.27 L 883.559,260.503
 L 883.758,260.721 L 883.947,260.926 L 884.127,261.115 L 884.297,261.291 L 884.458,261.452 L 884.609,261.599
 L 884.751,261.732 L 884.889,261.855 L 885.026,261.975 L 885.163,262.091 L 885.301,262.202 L 885.438,262.311
 L 885.575,262.415 L 885.713,262.515 L 885.85,262.611 L 885.987,262.704 L 886.125,262.793 L 886.262,262.878
 L 886.399,262.959 L 886.537,263.036 L 886.674,263.109 L 886.811,263.178 L 886.949,263.244 L 887.086,263.305
 L 887.223,263.363 L 887.361,263.417 L 887.499,263.466 L 887.637,263.512 L 887.774,263.554 L 887.912,263.591
 L 888.051,263.625 L 888.189,263.655 L 888.327,263.681 L 888.465,263.703 L 888.604,263.721 L 888.743,263.735
 L 888.881,263.744 L 889.02,263.75 L 889.159,263.752 L 889.468,263.746 L 889.769,263.728 L 890.06,263.698
 L 890.342,263.655 L 890.616,263.601 L 890.88,263.534 L 891.135,263.455 L 891.382,263.364 L 891.619,263.261
 L 891.848,263.146 L 892.068,263.018 L 892.278,262.879 L 892.48,262.727 L 892.673,262.563 L 892.857,262.387
 L 893.031,262.199 L 893.196,262 L 893.351,261.79 L 893.495,261.57 L 893.628,261.339 L 893.75,261.098
 L 893.862,260.847 L 893.963,260.585 L 894.054,260.313 L 894.133,260.03 L 894.203,259.737 L 894.261,259.433
 L 894.309,259.119 L 894.346,258.794 L 894.373,258.459 L 894.389,258.114 L 894.394,257.758 L 894.389,257.433
 L 894.373,257.115 L 894.347,256.805 L 894.31,256.502 L 894.262,256.207 L 894.204,255.919 L 894.135,255.639
 L 894.055,255.366 L 893.965,255.1 L 893.865,254.842 L 893.753,254.592 L 893.631,254.349 L 893.499,254.113
 L 893.356,253.885 L 893.202,253.665 L 893.038,253.452 L 892.865,253.248 L 892.684,253.055 L 892.497,252.873
 L 892.301,252.702 L 892.099,252.542 L 891.889,252.393 L 891.672,252.255 L 891.448,252.128 L 891.216,252.011
 L 890.977,251.906 L 890.731,251.812 L 890.477,251.729 L 890.216,251.656 L 889.948,251.595 L 889.673,251.545
 L 889.39,251.505 L 889.159,254.001 L 889.348,254.026 L 889.532,254.058 L 889.71,254.096 L 889.883,254.141
 L 890.05,254.193 L 890.212,254.25 L 890.369,254.315 L 890.521,254.386 L 890.667,254.463 L 890.807,254.547
 L 890.943,254.638 L 891.073,254.735 L 891.197,254.838 L 891.317,254.948 L 891.431,255.065 L 891.539,255.188
 L 891.642,255.316 L 891.738,255.449 L 891.828,255.586 L 891.91,255.727 L 891.986,255.873 L 892.056,256.023
 L 892.119,256.177 L 892.175,256.335 L 892.225,256.498 L 892.268,256.665 L 892.304,256.837 L 892.334,257.012
 L 892.357,257.192 L 892.374,257.376 L 892.384,257.565 L 892.387,257.758 L 892.384,257.96 L 892.374,258.157
 L 892.357,258.348 L 892.333,258.533 L 892.302,258.713 L 892.265,258.887 L 892.221,259.056 L 892.17,259.219
 L 892.113,259.376 L 892.048,259.528 L 891.977,259.674 L 891.899,259.815 L 891.814,259.95 L 891.723,260.079
 L 891.624,260.203 L 891.519,260.321 L 891.408,260.433 L 891.291,260.537 L 891.169,260.634 L 891.041,260.725
 L 890.908,260.807 L 890.769,260.883 L 890.625,260.952 L 890.475,261.013 L 890.32,261.067 L 890.159,261.114
 L 889.992,261.153 L 889.82,261.186 L 889.643,261.211 L 889.46,261.229 L 889.272,261.24 L 889.078,261.243
 L 888.933,261.241 L 888.79,261.235 L 888.649,261.225 L 888.51,261.21 L 888.373,261.191 L 888.237,261.168
 L 888.104,261.141 L 887.973,261.109 L 887.843,261.074 L 887.715,261.034 L 887.59,260.99 L 887.466,260.942
 L 887.344,260.89 L 887.224,260.833 L 887.105,260.772 L 886.989,260.708 L 886.874,260.639 L 886.76,260.568
 L 886.646,260.495 L 886.533,260.419 L 886.421,260.34 L 886.309,260.259 L 886.198,260.175 L 886.087,260.089
 L 885.977,260 L 885.868,259.908 L 885.76,259.814 L 885.652,259.717 L 885.544,259.618 L 885.438,259.516
 L 885.331,259.411 L 885.226,259.304 L 885.121,259.194 L 885.016,259.084 L 884.911,258.971 L 884.806,258.857
 L 884.7,258.741 L 884.595,258.623 L 884.49,258.504 L 884.385,258.383 L 884.28,258.261 L 884.175,258.137
 L 884.07,258.011 L 883.965,257.884 L 883.86,257.755 L 883.755,257.624 L 883.649,257.492 L 883.544,257.358
 L 883.439,257.223 L 883.332,257.088 L 883.224,256.953 L 883.115,256.817 L 883.005,256.682 L 882.894,256.546
 L 882.781,256.41 L 882.668,256.274 L 882.553,256.138 L 882.438,256.002 L 882.321,255.865 L 882.203,255.729
 L 882.084,255.592 L 881.964,255.455 L 881.843,255.318 L 881.72,255.181 L 881.596,255.044 L 881.471,254.908
 L 881.343,254.772 L 881.214,254.638 L 881.083,254.504 L 880.95,254.371 L 880.816,254.239 L 880.679,254.108
 L 880.541,253.977 L 880.401,253.847 L 880.259,253.718 L 880.116,253.59 L 879.97,253.463 L 879.823,253.336
 L 879.674,253.21 L 879.523,253.085 L 879.37,252.962 L 879.214,252.841 L 879.055,252.722 L 878.893,252.606
 L 878.728,252.492 L 878.56,252.381 L 878.39,252.272 L 878.216,252.165 L 878.039,252.061 L 877.86,251.959
 L 877.678,251.859 L 877.492,251.762 L 877.304,251.667 L 877.113,251.575 L 876.919,251.485 L 876.722,251.397
 L 875,251.397 L 875,264.051 L 877.075,264.051 z
M 877.075,60 L 877.075,59.0824 L 877.194,59.1353 L 877.314,59.1921 L 877.434,59.2531 L 877.554,59.318
 L 877.676,59.387 L 877.798,59.46 L 877.92,59.537 L 878.043,59.618 L 878.167,59.7031 L 878.291,59.7922
 L 878.416,59.8853 L 878.541,59.9825 L 878.563,60 z
M 884.071,81.9634 L 883.597,81.9516 L 883.139,81.932 L 882.697,81.9046 L 882.271,81.8693 L 881.861,81.8262
 L 881.467,81.7752 L 881.09,81.7164 L 880.728,81.6498 L 880.383,81.5753 L 880.053,81.493 L 879.74,81.4028
 L 879.443,81.3048 L 879.162,81.1989 L 878.897,81.0853 L 878.722,81 L 880,81 L 880,80
 L 877.437,80 L 877.332,79.8649 L 877.204,79.6719 L 877.091,79.4698 L 876.993,79.2588 L 876.91,79.0388
 L 876.843,78.8098 L 876.79,78.5717 L 876.752,78.3246 L 876.73,78.0686 L 876.722,77.8035 L 876.73,77.5368
 L 876.752,77.2793 L 876.789,77.031 L 876.84,76.7918 L 876.906,76.5618 L 876.988,76.341 L 877.083,76.1293
 L 877.194,75.9268 L 877.319,75.7335 L 877.459,75.5493 L 877.613,75.3743 L 877.783,75.2084 L 877.967,75.0518
 L 878.166,74.9043 L 878.379,74.7659 L 878.608,74.6367 L 878.852,74.516 L 879.113,74.4031 L 879.391,74.298
 L 879.687,74.2006 L 879.999,74.1111 L 880.329,74.0293 L 880.675,73.9553 L 881.039,73.8891 L 881.419,73.8307
 L 881.817,73.7801 L 882.232,73.7373 L 882.664,73.7022 L 883.113,73.675 L 883.579,73.6555 L 884.062,73.6438
 L 884.562,73.6399 L 885.076,73.6438 L 885.572,73.6553 L 886.05,73.6745 L 886.509,73.7014 L 886.95,73.7359
 L 887.373,73.7782 L 887.777,73.8281 L 888.162,73.8857 L 888.53,73.951 L 888.878,74.024 L 889.208,74.1046
 L 889.52,74.193 L 889.814,74.289 L 890.089,74.3927 L 890.345,74.5041 L 890.583,74.6231 L 890.805,74.751
 L 891.012,74.8888 L 891.205,75.0365 L 891.384,75.1941 L 891.549,75.3616 L 891.699,75.539 L 891.835,75.7263
 L 891.956,75.9235 L 892.064,76.1306 L 892.157,76.3477 L 892.235,76.5746 L 892.3,76.8115 L 892.35,77.0582
 L 892.386,77.3149 L 892.407,77.5815 L 892.414,77.8579 L 892.407,78.1277 L 892.385,78.3878 L 892.349,78.6382
 L 892.298,78.8789 L 892.233,79.1099 L 892.153,79.3312 L 892.059,79.5428 L 891.95,79.7447 L 891.826,79.937
 L 891.688,80.1195 L 891.536,80.2923 L 891.369,80.4555 L 891.188,80.6089 L 890.992,80.7527 L 890.781,80.8867
 L 890.556,81.0111 L 890.315,81.1269 L 890.056,81.2352 L 889.779,81.3361 L 889.485,81.4295 L 889.172,81.5154
 L 888.842,81.5938 L 888.494,81.6648 L 888.129,81.7283 L 887.745,81.7843 L 887.344,81.8329 L 886.924,81.8739
 L 886.487,81.9075 L 886.033,81.9337 L 885.56,81.9524 L 885.07,81.9636 L 884.562,81.9673 z
M 884.071,276.963 L 883.597,276.952 L 883.139,276.932 L 882.697,276.905 L 882.271,276.869 L 881.861,276.826
 L 881.467,276.775 L 881.09,276.716 L 880.728,276.65 L 880.383,276.575 L 880.053,276.493 L 879.74,276.403
 L 879.443,276.305 L 879.162,276.199 L 878.897,276.085 L 878.648,275.964 L 878.415,275.834 L 878.197,275.695
 L 877.994,275.547 L 877.806,275.39 L 877.633,275.224 L 877.475,275.049 L 877.332,274.865 L 877.204,274.672
 L 877.091,274.47 L 876.993,274.259 L 876.91,274.039 L 876.843,273.81 L 876.79,273.572 L 876.752,273.325
 L 876.73,273.069 L 876.722,272.804 L 876.73,272.537 L 876.752,272.279 L 876.789,272.031 L 876.84,271.792
 L 876.906,271.562 L 876.988,271.341 L 877.083,271.129 L 877.154,271 L 880,271 L 880,270
 L 878.037,270 L 878.166,269.904 L 878.379,269.766 L 878.608,269.637 L 878.852,269.516 L 879.113,269.403
 L 879.391,269.298 L 879.687,269.201 L 879.999,269.111 L 880.329,269.029 L 880.675,268.955 L 881.039,268.889
 L 881.419,268.831 L 881.817,268.78 L 882.232,268.737 L 882.664,268.702 L 883.113,268.675 L 883.579,268.655
 L 884.062,268.644 L 884.562,268.64 L 885.076,268.644 L 885.572,268.655 L 886.05,268.674 L 886.509,268.701
 L 886.95,268.736 L 887.373,268.778 L 887.777,268.828 L 888.162,268.886 L 888.53,268.951 L 888.878,269.024
 L 889.208,269.105 L 889.52,269.193 L 889.814,269.289 L 890.089,269.393 L 890.345,269.504 L 890.583,269.623
 L 890.805,269.751 L 891.012,269.889 L 891.205,270.036 L 891.384,270.194 L 891.549,270.362 L 891.699,270.539
 L 891.835,270.726 L 891.956,270.924 L 892.064,271.131 L 892.157,271.348 L 892.235,271.575 L 892.3,271.811
 L 892.35,272.058 L 892.386,272.315 L 892.407,272.581 L 892.414,272.858 L 892.407,273.128 L 892.385,273.388
 L 892.349,273.638 L 892.298,273.879 L 892.233,274.11 L 892.153,274.331 L 892.059,274.543 L 891.95,274.745
 L 891.826,274.937 L 891.688,275.119 L 891.536,275.292 L 891.369,275.455 L 891.188,275.609 L 890.992,275.753
 L 890.781,275.887 L 890.556,276.011 L 890.315,276.127 L 890.056,276.235 L 889.779,276.336 L 889.485,276.429
 L 889.172,276.515 L 888.842,276.594 L 888.494,276.665 L 888.129,276.728 L 887.745,276.784 L 887.344,276.833
 L 886.924,276.874 L 886.487,276.908 L 886.033,276.934 L 885.56,276.952 L 885.07,276.964 L 884.562,276.967
 z
M 45,293 L 72,293 L 72,290 L 628,290 L 628,293 L 655,293
 L 655,320 L 658,320 L 658,290 L 700,290 L 700,-0 L 680,-0
 L 680,60 L 615,60 L 615,-0 L 595,-0 L 595,60 L 530,60
 L 530,-0 L 510,-0 L 510,60 L 445,60 L 445,-0 L 425,-0
 L 425,60 L 360,60 L 360,-0 L 340,-0 L 340,60 L 275,60
 L 275,-0 L 255,-0 L 255,60 L 190,60 L 190,-0 L 170,-0
 L 170,60 L 105,60 L 105,-0 L 85,-0 L 85,60 L 20,60
 L 20,-0 L 0,-0 L 0,290 L 42,290 L 42,320 L 45,320
 z
M 615,287 L 615,80 L 680,80 L 680,287 z
M 530,287 L 530,80 L 595,80 L 595,287 z
M 445,287 L 445,80 L 510,80 L 510,287 z
M 360,287 L 360,80 L 425,80 L 425,287 z
M 190,287 L 190,80 L 255,80 L 255,287 z
M 20,287 L 20,80 L 85,80 L 85,287 z
M 105,287 L 105,80 L 170,80 L 170,287 z
M 275,287 L 275,80 L 340,80 L 340,287 z
M 957.075,129.082 L 957.194,129.135 L 957.314,129.192 L 957.434,129.253 L 957.554,129.318 L 957.676,129.387
 L 957.798,129.46 L 957.92,129.537 L 958.043,129.618 L 958.167,129.703 L 958.291,129.792 L 958.416,129.885
 L 958.541,129.982 L 958.667,130.084 L 958.794,130.189 L 958.921,130.298 L 959.048,130.411 L 959.177,130.529
 L 959.308,130.652 L 959.441,130.78 L 959.576,130.912 L 959.713,131.05 L 959.852,131.193 L 959.992,131.34
 L 960.135,131.493 L 960.28,131.651 L 960.426,131.813 L 960.575,131.981 L 960.725,132.153 L 960.878,132.331
 L 961.032,132.513 L 961.189,132.701 L 961.347,132.893 L 961.631,133.241 L 961.905,133.573 L 962.169,133.892
 L 962.425,134.196 L 962.67,134.486 L 962.907,134.762 L 963.134,135.023 L 963.351,135.27 L 963.559,135.503
 L 963.758,135.721 L 963.947,135.926 L 964.127,136.115 L 964.297,136.291 L 964.458,136.452 L 964.609,136.599
 L 964.751,136.732 L 964.889,136.855 L 965.026,136.975 L 965.163,137.091 L 965.301,137.202 L 965.438,137.311
 L 965.575,137.415 L 965.713,137.515 L 965.85,137.611 L 965.987,137.704 L 966.125,137.793 L 966.262,137.878
 L 966.399,137.959 L 966.537,138.036 L 966.674,138.109 L 966.811,138.178 L 966.949,138.244 L 967.086,138.305
 L 967.223,138.363 L 967.361,138.417 L 967.499,138.466 L 967.637,138.512 L 967.774,138.554 L 967.912,138.591
 L 968.051,138.625 L 968.189,138.655 L 968.327,138.681 L 968.465,138.703 L 968.604,138.721 L 968.743,138.735
 L 968.881,138.744 L 969.02,138.75 L 969.159,138.752 L 969.468,138.746 L 969.769,138.728 L 970.06,138.698
 L 970.342,138.655 L 970.616,138.601 L 970.88,138.534 L 971.135,138.455 L 971.382,138.364 L 971.619,138.261
 L 971.848,138.146 L 972.068,138.018 L 972.278,137.879 L 972.48,137.727 L 972.673,137.563 L 972.857,137.387
 L 973.031,137.199 L 973.196,137 L 973.351,136.79 L 973.495,136.57 L 973.628,136.339 L 973.75,136.098
 L 973.862,135.847 L 973.963,135.585 L 974.054,135.313 L 974.133,135.03 L 974.203,134.737 L 974.261,134.433
 L 974.309,134.119 L 974.346,133.794 L 974.373,133.459 L 974.389,133.114 L 974.394,132.758 L 974.389,132.433
 L 974.373,132.115 L 974.347,131.805 L 974.31,131.502 L 974.262,131.207 L 974.204,130.919 L 974.135,130.639
 L 974.055,130.366 L 973.965,130.1 L 973.865,129.842 L 973.753,129.592 L 973.631,129.349 L 973.499,129.113
 L 973.356,128.885 L 973.202,128.665 L 973.038,128.452 L 972.865,128.248 L 972.684,128.055 L 972.497,127.873
 L 972.301,127.702 L 972.099,127.542 L 971.889,127.393 L 971.672,127.255 L 971.448,127.128 L 971.216,127.011
 L 970.977,126.906 L 970.731,126.812 L 970.477,126.729 L 970.216,126.656 L 969.948,126.595 L 969.673,126.545
 L 969.39,126.505 L 969.159,129.001 L 969.348,129.026 L 969.532,129.058 L 969.71,129.096 L 969.883,129.141
 L 970.05,129.193 L 970.212,129.25 L 970.369,129.315 L 970.521,129.386 L 970.667,129.463 L 970.807,129.547
 L 970.943,129.638 L 971.073,129.735 L 971.197,129.838 L 971.317,129.948 L 971.431,130.065 L 971.539,130.188
 L 971.642,130.316 L 971.738,130.449 L 971.828,130.586 L 971.91,130.727 L 971.986,130.873 L 972.056,131.023
 L 972.119,131.177 L 972.175,131.335 L 972.225,131.498 L 972.268,131.665 L 972.304,131.837 L 972.334,132.012
 L 972.357,132.192 L 972.374,132.376 L 972.384,132.565 L 972.387,132.758 L 972.384,132.96 L 972.374,133.157
 L 972.357,133.348 L 972.333,133.533 L 972.302,133.713 L 972.265,133.887 L 972.221,134.056 L 972.17,134.219
 L 972.113,134.376 L 972.048,134.528 L 971.977,134.674 L 971.899,134.815 L 971.814,134.95 L 971.723,135.079
 L 971.624,135.203 L 971.519,135.321 L 971.408,135.433 L 971.291,135.537 L 971.169,135.634 L 971.041,135.725
 L 970.908,135.807 L 970.769,135.883 L 970.625,135.952 L 970.475,136.013 L 970.32,136.067 L 970.159,136.114
 L 969.992,136.153 L 969.82,136.186 L 969.643,136.211 L 969.46,136.229 L 969.272,136.24 L 969.078,136.243
 L 968.933,136.241 L 968.79,136.235 L 968.649,136.225 L 968.51,136.21 L 968.373,136.191 L 968.237,136.168
 L 968.104,136.141 L 967.973,136.109 L 967.843,136.074 L 967.715,136.034 L 967.59,135.99 L 967.466,135.942
 L 967.344,135.89 L 967.224,135.833 L 967.105,135.772 L 966.989,135.708 L 966.874,135.639 L 966.76,135.568
 L 966.646,135.495 L 966.533,135.419 L 966.421,135.34 L 966.309,135.259 L 966.198,135.175 L 966.087,135.089
 L 965.977,135 L 965.868,134.908 L 965.76,134.814 L 965.652,134.717 L 965.544,134.618 L 965.438,134.516
 L 965.331,134.411 L 965.226,134.304 L 965.121,134.194 L 965.016,134.084 L 964.911,133.971 L 964.806,133.857
 L 964.7,133.741 L 964.595,133.623 L 964.49,133.504 L 964.385,133.383 L 964.28,133.261 L 964.175,133.137
 L 964.07,133.011 L 963.965,132.884 L 963.86,132.755 L 963.755,132.624 L 963.649,132.492 L 963.544,132.358
 L 963.439,132.223 L 963.332,132.088 L 963.224,131.953 L 963.115,131.817 L 963.005,131.682 L 962.894,131.546
 L 962.781,131.41 L 962.668,131.274 L 962.553,131.138 L 962.438,131.002 L 962.321,130.865 L 962.203,130.729
 L 962.084,130.592 L 961.964,130.455 L 961.843,130.318 L 961.72,130.181 L 961.596,130.044 L 961.471,129.908
 L 961.343,129.772 L 961.214,129.638 L 961.083,129.504 L 960.95,129.371 L 960.816,129.239 L 960.679,129.108
 L 960.541,128.977 L 960.401,128.847 L 960.259,128.718 L 960.116,128.59 L 959.97,128.463 L 959.823,128.336
 L 959.674,128.21 L 959.523,128.085 L 959.37,127.962 L 959.214,127.841 L 959.055,127.722 L 958.893,127.606
 L 958.728,127.492 L 958.56,127.381 L 958.39,127.272 L 958.216,127.165 L 958.039,127.061 L 957.86,126.959
 L 957.678,126.859 L 957.492,126.762 L 957.304,126.667 L 957.113,126.575 L 956.919,126.485 L 956.722,126.397
 L 955,126.397 L 955,139.051 L 957.075,139.051 z
M 965.524,154.212 L 966.088,154.193 L 966.633,154.161 L 967.16,154.116 L 967.668,154.058 L 968.158,153.988
 L 968.629,153.905 L 969.081,153.808 L 969.515,153.699 L 969.931,153.578 L 970.328,153.443 L 970.706,153.296
 L 971.066,153.135 L 971.407,152.962 L 971.73,152.776 L 972.034,152.578 L 972.32,152.366 L 972.588,152.143
 L 972.836,151.908 L 973.067,151.66 L 973.279,151.401 L 973.473,151.129 L 973.648,150.846 L 973.804,150.55
 L 973.943,150.242 L 974.063,149.922 L 974.164,149.59 L 974.247,149.246 L 974.311,148.89 L 974.358,148.522
 L 974.385,148.142 L 974.394,147.749 L 974.388,147.38 L 974.368,147.021 L 974.334,146.672 L 974.287,146.333
 L 974.227,146.005 L 974.153,145.686 L 974.066,145.379 L 973.965,145.081 L 973.852,144.794 L 973.724,144.517
 L 973.583,144.25 L 973.429,143.993 L 973.262,143.747 L 973.081,143.511 L 972.886,143.286 L 972.679,143.07
 L 972.459,142.867 L 972.23,142.676 L 971.99,142.499 L 971.741,142.335 L 971.481,142.183 L 971.212,142.045
 L 970.932,141.921 L 970.643,141.809 L 970.343,141.71 L 970.033,141.625 L 969.714,141.553 L 969.384,141.494
 L 969.045,141.448 L 968.695,141.415 L 968.335,141.395 L 967.966,141.389 L 967.606,141.395 L 967.255,141.413
 L 966.913,141.443 L 966.58,141.485 L 966.256,141.539 L 965.941,141.606 L 965.635,141.684 L 965.338,141.775
 L 965.05,141.878 L 964.771,141.992 L 964.501,142.119 L 964.24,142.258 L 963.988,142.409 L 963.745,142.572
 L 963.511,142.747 L 963.287,142.935 L 963.073,143.132 L 962.873,143.337 L 962.687,143.551 L 962.515,143.772
 L 962.357,144.002 L 962.212,144.239 L 962.081,144.485 L 961.964,144.738 L 961.861,145 L 961.772,145.27
 L 961.696,145.548 L 961.634,145.834 L 961.586,146.128 L 961.551,146.43 L 961.53,146.74 L 961.524,147.058
 L 961.526,147.253 L 961.535,147.447 L 961.55,147.639 L 961.57,147.828 L 961.596,148.016 L 961.628,148.201
 L 961.665,148.385 L 961.708,148.567 L 961.757,148.746 L 961.812,148.924 L 961.873,149.099 L 961.939,149.273
 L 962.011,149.444 L 962.089,149.614 L 962.173,149.781 L 962.263,149.947 L 962.357,150.108 L 962.455,150.263
 L 962.557,150.413 L 962.662,150.556 L 962.772,150.693 L 962.885,150.824 L 963.002,150.95 L 963.122,151.069
 L 963.247,151.182 L 963.375,151.289 L 963.507,151.39 L 963.642,151.485 L 963.782,151.574 L 963.925,151.657
 L 964.072,151.734 L 964.223,151.805 L 963.776,151.793 L 963.343,151.774 L 962.923,151.746 L 962.516,151.709
 L 962.122,151.663 L 961.741,151.609 L 961.373,151.547 L 961.018,151.476 L 960.677,151.396 L 960.348,151.308
 L 960.032,151.211 L 959.729,151.105 L 959.439,150.991 L 959.163,150.869 L 958.899,150.737 L 958.648,150.598
 L 958.412,150.45 L 958.191,150.294 L 957.985,150.132 L 957.794,149.962 L 957.618,149.784 L 957.458,149.599
 L 957.313,149.407 L 957.184,149.207 L 957.069,149 L 956.97,148.786 L 956.886,148.564 L 956.817,148.334
 L 956.764,148.097 L 956.726,147.853 L 956.703,147.602 L 956.695,147.343 L 956.705,147.037 L 956.733,146.746
 L 956.779,146.469 L 956.845,146.205 L 956.928,145.955 L 957.031,145.719 L 957.152,145.496 L 957.292,145.288
 L 957.451,145.093 L 957.628,144.912 L 957.824,144.744 L 958.038,144.591 L 958.271,144.451 L 958.523,144.325
 L 958.793,144.213 L 959.082,144.115 L 958.716,141.782 L 958.458,141.858 L 958.209,141.94 L 957.969,142.028
 L 957.738,142.121 L 957.516,142.221 L 957.303,142.327 L 957.099,142.439 L 956.904,142.557 L 956.718,142.68
 L 956.541,142.81 L 956.374,142.946 L 956.215,143.088 L 956.066,143.235 L 955.925,143.389 L 955.794,143.549
 L 955.671,143.715 L 955.557,143.887 L 955.45,144.066 L 955.351,144.252 L 955.259,144.445 L 955.174,144.645
 L 955.097,144.852 L 955.027,145.065 L 954.964,145.286 L 954.909,145.514 L 954.861,145.748 L 954.821,145.99
 L 954.788,146.238 L 954.762,146.494 L 954.744,146.756 L 954.732,147.025 L 954.729,147.302 L 954.739,147.711
 L 954.77,148.109 L 954.822,148.494 L 954.894,148.868 L 954.987,149.229 L 955.101,149.579 L 955.235,149.917
 L 955.39,150.243 L 955.566,150.557 L 955.762,150.859 L 955.979,151.149 L 956.216,151.428 L 956.475,151.694
 L 956.754,151.948 L 957.053,152.191 L 957.373,152.422 L 957.713,152.639 L 958.07,152.843 L 958.445,153.032
 L 958.838,153.208 L 959.249,153.369 L 959.677,153.517 L 960.124,153.65 L 960.588,153.769 L 961.07,153.875
 L 961.569,153.966 L 962.087,154.043 L 962.622,154.106 L 963.175,154.156 L 963.746,154.191 L 964.335,154.212
 L 964.941,154.219 z
M 967.161,151.558 L 967.024,151.552 L 966.888,151.542 L 966.754,151.528 L 966.622,151.509 L 966.491,151.487
 L 966.363,151.46 L 966.237,151.43 L 966.112,151.395 L 965.99,151.356 L 965.869,151.313 L 965.75,151.267
 L 965.633,151.216 L 965.518,151.161 L 965.405,151.101 L 965.294,151.038 L 965.185,150.971 L 965.08,150.902
 L 964.977,150.829 L 964.878,150.753 L 964.782,150.674 L 964.689,150.592 L 964.599,150.507 L 964.512,150.419
 L 964.429,150.328 L 964.348,150.235 L 964.271,150.138 L 964.197,150.038 L 964.125,149.935 L 964.057,149.828
 L 963.993,149.719 L 963.931,149.607 L 963.872,149.493 L 963.818,149.378 L 963.767,149.261 L 963.72,149.144
 L 963.677,149.025 L 963.637,148.905 L 963.602,148.784 L 963.57,148.661 L 963.542,148.538 L 963.517,148.413
 L 963.496,148.287 L 963.479,148.16 L 963.466,148.032 L 963.457,147.903 L 963.451,147.773 L 963.449,147.641
 L 963.454,147.427 L 963.468,147.218 L 963.492,147.015 L 963.525,146.818 L 963.568,146.626 L 963.62,146.44
 L 963.682,146.26 L 963.753,146.085 L 963.833,145.915 L 963.924,145.752 L 964.023,145.594 L 964.132,145.441
 L 964.251,145.294 L 964.379,145.153 L 964.516,145.018 L 964.663,144.888 L 964.818,144.765 L 964.98,144.649
 L 965.149,144.542 L 965.325,144.443 L 965.507,144.351 L 965.697,144.268 L 965.893,144.192 L 966.096,144.125
 L 966.306,144.065 L 966.522,144.014 L 966.746,143.97 L 966.976,143.934 L 967.213,143.906 L 967.457,143.886
 L 967.708,143.874 L 967.966,143.871 L 968.218,143.874 L 968.464,143.886 L 968.704,143.906 L 968.937,143.934
 L 969.163,143.97 L 969.382,144.014 L 969.595,144.065 L 969.802,144.125 L 970.001,144.192 L 970.194,144.268
 L 970.381,144.351 L 970.561,144.443 L 970.734,144.542 L 970.9,144.649 L 971.06,144.765 L 971.214,144.888
 L 971.359,145.018 L 971.495,145.154 L 971.622,145.295 L 971.739,145.443 L 971.847,145.596 L 971.945,145.755
 L 972.034,145.921 L 972.114,146.091 L 972.184,146.268 L 972.245,146.451 L 972.297,146.639 L 972.339,146.833
 L 972.372,147.033 L 972.395,147.239 L 972.41,147.45 L 972.414,147.668 L 972.409,147.887 L 972.392,148.101
 L 972.365,148.309 L 972.326,148.511 L 972.277,148.708 L 972.217,148.899 L 972.145,149.085 L 972.063,149.265
 L 971.97,149.439 L 971.866,149.608 L 971.751,149.771 L 971.625,149.929 L 971.487,150.081 L 971.339,150.227
 L 971.18,150.367 L 971.01,150.503 L 970.831,150.631 L 970.645,150.75 L 970.452,150.862 L 970.252,150.965
 L 970.045,151.06 L 969.831,151.147 L 969.61,151.226 L 969.381,151.296 L 969.146,151.358 L 968.904,151.412
 L 968.654,151.457 L 968.398,151.494 L 968.134,151.523 L 967.863,151.544 L 967.586,151.556 L 967.301,151.56
 z
M 965.161,169.529 L 965.742,169.511 L 966.304,169.479 L 966.847,169.435 L 967.372,169.379 L 967.878,169.31
 L 968.365,169.228 L 968.834,169.134 L 969.284,169.027 L 969.715,168.908 L 970.128,168.776 L 970.522,168.632
 L 970.898,168.475 L 971.255,168.305 L 971.593,168.123 L 971.912,167.928 L 972.213,167.721 L 972.494,167.499
 L 972.756,167.264 L 972.998,167.014 L 973.221,166.751 L 973.425,166.474 L 973.609,166.184 L 973.774,165.879
 L 973.919,165.561 L 974.045,165.228 L 974.152,164.882 L 974.239,164.522 L 974.307,164.149 L 974.356,163.761
 L 974.385,163.36 L 974.394,162.944 L 974.385,162.518 L 974.356,162.106 L 974.308,161.708 L 974.241,161.325
 L 974.155,160.957 L 974.049,160.603 L 973.925,160.263 L 973.781,159.939 L 973.618,159.628 L 973.435,159.333
 L 973.234,159.052 L 973.014,158.785 L 972.774,158.533 L 972.515,158.296 L 972.237,158.073 L 971.94,157.865
 L 971.623,157.671 L 971.287,157.489 L 970.932,157.319 L 970.558,157.162 L 970.164,157.018 L 969.751,156.886
 L 969.319,156.767 L 968.868,156.66 L 968.397,156.566 L 967.907,156.484 L 967.398,156.415 L 966.869,156.358
 L 966.321,156.315 L 965.754,156.283 L 965.167,156.264 L 964.562,156.258 L 963.969,156.264 L 963.394,156.284
 L 962.837,156.316 L 962.298,156.361 L 961.778,156.42 L 961.275,156.491 L 960.79,156.575 L 960.323,156.672
 L 959.875,156.782 L 959.444,156.904 L 959.031,157.04 L 958.636,157.189 L 958.26,157.35 L 957.901,157.525
 L 957.56,157.712 L 957.238,157.913 L 956.934,158.126 L 956.65,158.352 L 956.385,158.591 L 956.14,158.843
 L 955.915,159.107 L 955.709,159.384 L 955.523,159.675 L 955.356,159.978 L 955.209,160.293 L 955.082,160.622
 L 954.974,160.963 L 954.886,161.318 L 954.817,161.685 L 954.768,162.065 L 954.739,162.457 L 954.729,162.863
 L 954.739,163.269 L 954.768,163.662 L 954.817,164.042 L 954.886,164.41 L 954.975,164.766 L 955.084,165.109
 L 955.212,165.439 L 955.359,165.757 L 955.527,166.062 L 955.714,166.355 L 955.921,166.635 L 956.148,166.902
 L 956.394,167.157 L 956.66,167.4 L 956.946,167.63 L 957.251,167.847 L 957.576,168.052 L 957.917,168.243
 L 958.277,168.421 L 958.654,168.586 L 959.049,168.738 L 959.462,168.876 L 959.892,169.001 L 960.34,169.113
 L 960.806,169.212 L 961.289,169.298 L 961.791,169.371 L 962.309,169.43 L 962.846,169.476 L 963.4,169.509
 L 963.972,169.529 L 964.562,169.536 z
M 964.071,167.05 L 963.597,167.038 L 963.139,167.019 L 962.697,166.991 L 962.271,166.956 L 961.861,166.913
 L 961.467,166.862 L 961.09,166.803 L 960.728,166.736 L 960.383,166.662 L 960.053,166.579 L 959.74,166.489
 L 959.443,166.391 L 959.162,166.285 L 958.897,166.172 L 958.648,166.05 L 958.415,165.92 L 958.197,165.781
 L 957.994,165.633 L 957.806,165.476 L 957.633,165.31 L 957.475,165.135 L 957.332,164.951 L 957.204,164.758
 L 957.091,164.556 L 956.993,164.345 L 956.91,164.125 L 956.843,163.896 L 956.79,163.658 L 956.752,163.411
 L 956.73,163.155 L 956.722,162.89 L 956.73,162.623 L 956.752,162.366 L 956.789,162.118 L 956.84,161.878
 L 956.906,161.648 L 956.988,161.428 L 957.083,161.216 L 957.194,161.013 L 957.319,160.82 L 957.459,160.636
 L 957.613,160.461 L 957.783,160.295 L 957.967,160.138 L 958.166,159.991 L 958.379,159.852 L 958.608,159.723
 L 958.852,159.603 L 959.113,159.49 L 959.391,159.384 L 959.687,159.287 L 959.999,159.198 L 960.329,159.116
 L 960.675,159.042 L 961.039,158.976 L 961.419,158.917 L 961.817,158.867 L 962.232,158.824 L 962.664,158.789
 L 963.113,158.761 L 963.579,158.742 L 964.062,158.73 L 964.562,158.726 L 965.076,158.73 L 965.572,158.742
 L 966.05,158.761 L 966.509,158.788 L 966.95,158.822 L 967.373,158.865 L 967.777,158.915 L 968.162,158.972
 L 968.53,159.038 L 968.878,159.111 L 969.208,159.191 L 969.52,159.279 L 969.814,159.376 L 970.089,159.479
 L 970.345,159.591 L 970.583,159.71 L 970.805,159.838 L 971.012,159.975 L 971.205,160.123 L 971.384,160.281
 L 971.549,160.448 L 971.699,160.626 L 971.835,160.813 L 971.956,161.01 L 972.064,161.217 L 972.157,161.434
 L 972.235,161.661 L 972.3,161.898 L 972.35,162.145 L 972.386,162.401 L 972.407,162.668 L 972.414,162.944
 L 972.407,163.214 L 972.385,163.474 L 972.349,163.725 L 972.298,163.965 L 972.233,164.196 L 972.153,164.418
 L 972.059,164.629 L 971.95,164.831 L 971.826,165.023 L 971.688,165.206 L 971.536,165.379 L 971.369,165.542
 L 971.188,165.695 L 970.992,165.839 L 970.781,165.973 L 970.556,166.098 L 970.315,166.213 L 970.056,166.322
 L 969.779,166.423 L 969.485,166.516 L 969.172,166.602 L 968.842,166.68 L 968.494,166.751 L 968.129,166.815
 L 967.745,166.871 L 967.344,166.919 L 966.924,166.96 L 966.487,166.994 L 966.033,167.02 L 965.56,167.039
 L 965.07,167.05 L 964.562,167.054 z
M 880.502,304.222 L 880.724,304.208 L 880.94,304.185 L 881.152,304.152 L 881.359,304.11 L 881.561,304.059
 L 881.758,303.999 L 881.951,303.929 L 882.138,303.849 L 882.321,303.761 L 882.498,303.663 L 882.671,303.556
 L 882.839,303.439 L 883.002,303.313 L 883.16,303.178 L 883.314,303.033 L 883.461,302.881 L 883.6,302.72
 L 883.732,302.552 L 883.856,302.377 L 883.973,302.195 L 884.082,302.005 L 884.183,301.807 L 884.277,301.603
 L 884.363,301.39 L 884.441,301.171 L 884.512,300.944 L 884.575,300.709 L 884.631,300.467 L 884.678,300.218
 L 884.719,299.961 L 884.751,299.697 L 884.806,299.697 L 884.859,299.938 L 884.919,300.171 L 884.984,300.397
 L 885.055,300.616 L 885.132,300.827 L 885.215,301.031 L 885.303,301.228 L 885.397,301.418 L 885.497,301.6
 L 885.603,301.776 L 885.715,301.943 L 885.832,302.104 L 885.955,302.258 L 886.084,302.404 L 886.218,302.543
 L 886.359,302.674 L 886.505,302.798 L 886.656,302.914 L 886.812,303.022 L 886.974,303.122 L 887.142,303.214
 L 887.314,303.298 L 887.492,303.374 L 887.676,303.442 L 887.865,303.502 L 888.059,303.554 L 888.258,303.598
 L 888.463,303.634 L 888.673,303.662 L 888.889,303.682 L 889.109,303.694 L 889.336,303.698 L 889.63,303.692
 L 889.916,303.673 L 890.194,303.642 L 890.463,303.599 L 890.725,303.543 L 890.978,303.474 L 891.223,303.393
 L 891.46,303.3 L 891.688,303.194 L 891.909,303.076 L 892.121,302.945 L 892.325,302.802 L 892.521,302.646
 L 892.708,302.478 L 892.887,302.298 L 893.058,302.105 L 893.22,301.9 L 893.372,301.686 L 893.512,301.462
 L 893.643,301.228 L 893.763,300.983 L 893.873,300.729 L 893.972,300.465 L 894.06,300.191 L 894.139,299.906
 L 894.207,299.612 L 894.264,299.308 L 894.311,298.993 L 894.347,298.669 L 894.374,298.334 L 894.389,297.99
 L 894.394,297.636 L 894.389,297.31 L 894.374,296.993 L 894.348,296.683 L 894.312,296.38 L 894.266,296.085
 L 894.209,295.797 L 894.143,295.516 L 894.065,295.244 L 893.978,294.978 L 893.88,294.72 L 893.773,294.47
 L 893.654,294.227 L 893.526,293.991 L 893.387,293.763 L 893.238,293.543 L 893.079,293.33 L 892.91,293.126
 L 892.734,292.933 L 892.549,292.751 L 892.357,292.58 L 892.156,292.42 L 891.947,292.271 L 891.73,292.133
 L 891.506,292.006 L 891.273,291.889 L 891.032,291.784 L 890.783,291.69 L 890.526,291.607 L 890.261,291.534
 L 889.987,291.473 L 889.706,291.423 L 889.417,291.383 L 889.227,293.838 L 889.413,293.862 L 889.593,293.892
 L 889.768,293.929 L 889.937,293.972 L 890.102,294.021 L 890.261,294.078 L 890.415,294.14 L 890.563,294.209
 L 890.706,294.285 L 890.844,294.367 L 890.977,294.456 L 891.104,294.552 L 891.226,294.653 L 891.342,294.762
 L 891.454,294.876 L 891.56,294.998 L 891.66,295.125 L 891.754,295.257 L 891.841,295.393 L 891.922,295.535
 L 891.996,295.681 L 892.064,295.832 L 892.125,295.988 L 892.18,296.149 L 892.229,296.314 L 892.271,296.485
 L 892.306,296.66 L 892.335,296.84 L 892.358,297.025 L 892.374,297.215 L 892.384,297.409 L 892.387,297.609
 L 892.384,297.827 L 892.373,298.039 L 892.356,298.244 L 892.332,298.442 L 892.3,298.634 L 892.262,298.818
 L 892.217,298.996 L 892.165,299.166 L 892.106,299.33 L 892.04,299.488 L 891.967,299.638 L 891.887,299.781
 L 891.801,299.918 L 891.707,300.048 L 891.606,300.171 L 891.499,300.287 L 891.385,300.396 L 891.267,300.498
 L 891.143,300.594 L 891.014,300.682 L 890.881,300.763 L 890.742,300.837 L 890.598,300.904 L 890.449,300.963
 L 890.296,301.016 L 890.137,301.062 L 889.973,301.101 L 889.804,301.133 L 889.63,301.157 L 889.451,301.175
 L 889.267,301.185 L 889.078,301.189 L 888.887,301.185 L 888.702,301.172 L 888.522,301.15 L 888.347,301.12
 L 888.177,301.081 L 888.013,301.034 L 887.854,300.977 L 887.7,300.913 L 887.551,300.839 L 887.407,300.757
 L 887.269,300.667 L 887.136,300.567 L 887.009,300.459 L 886.886,300.343 L 886.769,300.217 L 886.657,300.084
 L 886.551,299.942 L 886.452,299.793 L 886.36,299.637 L 886.274,299.475 L 886.196,299.305 L 886.124,299.128
 L 886.059,298.944 L 886.001,298.753 L 885.95,298.555 L 885.905,298.35 L 885.868,298.138 L 885.837,297.918
 L 885.813,297.692 L 885.796,297.459 L 885.786,297.219 L 885.782,296.971 L 885.782,295.642 L 883.666,295.642
 L 883.666,297.025 L 883.663,297.304 L 883.653,297.575 L 883.636,297.837 L 883.612,298.091 L 883.581,298.337
 L 883.543,298.574 L 883.499,298.803 L 883.448,299.024 L 883.39,299.237 L 883.325,299.441 L 883.253,299.636
 L 883.174,299.824 L 883.089,300.003 L 882.997,300.174 L 882.898,300.336 L 882.792,300.491 L 882.68,300.636
 L 882.562,300.772 L 882.439,300.898 L 882.311,301.016 L 882.178,301.124 L 882.039,301.222 L 881.895,301.311
 L 881.746,301.391 L 881.591,301.461 L 881.431,301.522 L 881.265,301.574 L 881.094,301.616 L 880.918,301.649
 L 880.736,301.672 L 880.549,301.686 L 880.357,301.691 L 880.137,301.687 L 879.923,301.674 L 879.717,301.654
 L 879.517,301.625 L 879.324,301.588 L 879.138,301.543 L 878.959,301.49 L 878.787,301.428 L 878.622,301.358
 L 878.464,301.28 L 878.312,301.194 L 878.168,301.099 L 878.03,300.997 L 877.899,300.886 L 877.775,300.767
 L 877.658,300.64 L 877.548,300.505 L 877.445,300.364 L 877.349,300.218 L 877.261,300.064 L 877.179,299.905
 L 877.105,299.74 L 877.037,299.568 L 876.977,299.39 L 876.924,299.206 L 876.877,299.016 L 876.838,298.819
 L 876.806,298.617 L 876.782,298.408 L 876.764,298.193 L 876.753,297.972 L 876.75,297.744 L 876.763,297.297
 L 876.803,296.875 L 876.869,296.478 L 876.962,296.106 L 877.081,295.758 L 877.226,295.436 L 877.399,295.138
 L 877.597,294.866 L 877.822,294.618 L 878.074,294.395 L 878.352,294.197 L 878.657,294.024 L 878.988,293.876
 L 879.346,293.752 L 879.73,293.654 L 880.14,293.581 L 879.91,291.058 L 879.594,291.104 L 879.288,291.161
 L 878.992,291.229 L 878.706,291.308 L 878.43,291.398 L 878.164,291.499 L 877.907,291.611 L 877.66,291.734
 L 877.423,291.868 L 877.196,292.013 L 876.978,292.169 L 876.77,292.336 L 876.572,292.513 L 876.384,292.702
 L 876.206,292.902 L 876.038,293.113 L 875.879,293.333 L 875.731,293.563 L 875.593,293.802 L 875.465,294.051
 L 875.347,294.308 L 875.24,294.574 L 875.143,294.85 L 875.056,295.135 L 874.979,295.429 L 874.913,295.732
 L 874.857,296.045 L 874.811,296.366 L 874.775,296.697 L 874.749,297.037 L 874.734,297.386 L 874.729,297.744
 L 874.734,298.128 L 874.751,298.502 L 874.78,298.863 L 874.82,299.214 L 874.871,299.553 L 874.933,299.882
 L 875.007,300.198 L 875.092,300.504 L 875.188,300.799 L 875.296,301.082 L 875.415,301.354 L 875.545,301.615
 L 875.687,301.864 L 875.84,302.102 L 876.004,302.329 L 876.18,302.545 L 876.366,302.749 L 876.561,302.939
 L 876.766,303.117 L 876.98,303.281 L 877.204,303.432 L 877.436,303.57 L 877.678,303.695 L 877.93,303.807
 L 878.19,303.905 L 878.46,303.99 L 878.739,304.063 L 879.028,304.122 L 879.326,304.168 L 879.633,304.201
 L 879.95,304.22 L 880.276,304.227 z
M 885.161,339.443 L 885.742,339.424 L 886.304,339.393 L 886.847,339.349 L 887.372,339.292 L 887.878,339.223
 L 888.365,339.141 L 888.834,339.047 L 889.284,338.941 L 889.715,338.821 L 890.128,338.689 L 890.522,338.545
 L 890.898,338.388 L 891.255,338.219 L 891.593,338.037 L 891.912,337.842 L 892.213,337.634 L 892.494,337.413
 L 892.756,337.177 L 892.998,336.928 L 893.221,336.665 L 893.425,336.388 L 893.609,336.097 L 893.774,335.792
 L 893.919,335.474 L 894.045,335.142 L 894.152,334.796 L 894.239,334.436 L 894.307,334.062 L 894.356,333.675
 L 894.385,333.273 L 894.394,332.858 L 894.385,332.431 L 894.356,332.019 L 894.308,331.621 L 894.241,331.238
 L 894.155,330.87 L 894.049,330.516 L 893.925,330.177 L 893.781,329.852 L 893.618,329.542 L 893.435,329.246
 L 893.234,328.965 L 893.014,328.699 L 892.774,328.447 L 892.515,328.21 L 892.237,327.987 L 891.94,327.779
 L 891.623,327.584 L 891.287,327.402 L 890.932,327.233 L 890.558,327.076 L 890.164,326.931 L 889.751,326.799
 L 889.319,326.68 L 888.868,326.573 L 888.397,326.479 L 887.907,326.398 L 887.398,326.328 L 886.869,326.272
 L 886.321,326.228 L 885.754,326.197 L 885.167,326.178 L 884.562,326.172 L 883.969,326.178 L 883.394,326.197
 L 882.837,326.23 L 882.298,326.275 L 881.778,326.333 L 881.275,326.404 L 880.79,326.488 L 880.323,326.585
 L 879.875,326.695 L 879.444,326.818 L 879.031,326.954 L 878.636,327.102 L 878.26,327.264 L 877.901,327.438
 L 877.56,327.626 L 877.238,327.826 L 876.934,328.039 L 876.65,328.265 L 876.385,328.504 L 876.14,328.756
 L 875.915,329.021 L 875.709,329.298 L 875.523,329.588 L 875.356,329.891 L 875.209,330.207 L 875.082,330.535
 L 874.974,330.877 L 874.886,331.231 L 874.817,331.598 L 874.768,331.978 L 874.739,332.371 L 874.729,332.777
 L 874.739,333.182 L 874.768,333.575 L 874.817,333.956 L 874.886,334.324 L 874.975,334.679 L 875.084,335.022
 L 875.212,335.353 L 875.359,335.67 L 875.527,335.976 L 875.714,336.268 L 875.921,336.548 L 876.148,336.816
 L 876.394,337.071 L 876.66,337.313 L 876.946,337.543 L 877.251,337.761 L 877.576,337.965 L 877.917,338.156
 L 878.277,338.334 L 878.654,338.499 L 879.049,338.651 L 879.462,338.79 L 879.892,338.915 L 880.34,339.027
 L 880.806,339.126 L 881.289,339.212 L 881.791,339.284 L 882.309,339.344 L 882.846,339.39 L 883.4,339.423
 L 883.972,339.443 L 884.562,339.449 z
M 884.071,336.963 L 883.597,336.952 L 883.139,336.932 L 882.697,336.905 L 882.271,336.869 L 881.861,336.826
 L 881.467,336.775 L 881.09,336.716 L 880.728,336.65 L 880.383,336.575 L 880.053,336.493 L 879.74,336.403
 L 879.443,336.305 L 879.162,336.199 L 878.897,336.085 L 878.648,335.964 L 878.415,335.834 L 878.197,335.695
 L 877.994,335.547 L 877.806,335.39 L 877.633,335.224 L 877.475,335.049 L 877.332,334.865 L 877.204,334.672
 L 877.091,334.47 L 876.993,334.259 L 876.91,334.039 L 876.843,333.81 L 876.79,333.572 L 876.752,333.325
 L 876.73,333.069 L 876.722,332.804 L 876.73,332.537 L 876.752,332.279 L 876.789,332.031 L 876.84,331.792
 L 876.906,331.562 L 876.988,331.341 L 877.083,331.129 L 877.194,330.927 L 877.319,330.733 L 877.459,330.549
 L 877.613,330.374 L 877.783,330.208 L 877.967,330.052 L 878.166,329.904 L 878.379,329.766 L 878.608,329.637
 L 878.852,329.516 L 879.113,329.403 L 879.391,329.298 L 879.687,329.201 L 879.999,329.111 L 880.329,329.029
 L 880.675,328.955 L 881.039,328.889 L 881.419,328.831 L 881.817,328.78 L 882.232,328.737 L 882.664,328.702
 L 883.113,328.675 L 883.579,328.655 L 884.062,328.644 L 884.562,328.64 L 885.076,328.644 L 885.572,328.655
 L 886.05,328.674 L 886.509,328.701 L 886.95,328.736 L 887.373,328.778 L 887.777,328.828 L 888.162,328.886
 L 888.53,328.951 L 888.878,329.024 L 889.208,329.105 L 889.52,329.193 L 889.814,329.289 L 890.089,329.393
 L 890.345,329.504 L 890.583,329.623 L 890.805,329.751 L 891.012,329.889 L 891.205,330.036 L 891.384,330.194
 L 891.549,330.362 L 891.699,330.539 L 891.835,330.726 L 891.956,330.924 L 892.064,331.131 L 892.157,331.348
 L 892.235,331.575 L 892.3,331.811 L 892.35,332.058 L 892.386,332.315 L 892.407,332.581 L 892.414,332.858
 L 892.407,333.128 L 892.385,333.388 L 892.349,333.638 L 892.298,333.879 L 892.233,334.11 L 892.153,334.331
 L 892.059,334.543 L 891.95,334.745 L 891.826,334.937 L 891.688,335.119 L 891.536,335.292 L 891.369,335.455
 L 891.188,335.609 L 890.992,335.753 L 890.781,335.887 L 890.556,336.011 L 890.315,336.127 L 890.056,336.235
 L 889.779,336.336 L 889.485,336.429 L 889.172,336.515 L 888.842,336.594 L 888.494,336.665 L 888.129,336.728
 L 887.745,336.784 L 887.344,336.833 L 886.924,336.874 L 886.487,336.908 L 886.033,336.934 L 885.56,336.952
 L 885.07,336.964 L 884.562,336.967 z
" stroke="black" fill="lightgray" stroke-width="0.5"/>
</svg>
