<?xml version="1.0" standalone="no"?>
<!DOCTYPE svg PUBLIC "-//W3C//DTD SVG 1.1//EN" "http://www.w3.org/Graphics/SVG/1.1/DTD/svg11.dtd">
<svg width="389mm" height="695mm" viewBox="-20 -375 389 695" xmlns="http://www.w3.org/2000/svg" version="1.1">
<title>OpenSCAD Model</title>
<path d="
M 160.128,-354.734 L 160.502,-354.751 L 160.863,-354.78 L 161.214,-354.82 L 161.553,-354.871 L 161.882,-354.933
 L 162.198,-355.007 L 162.504,-355.092 L 162.799,-355.188 L 163.082,-355.296 L 163.354,-355.415 L 163.615,-355.545
 L 163.864,-355.687 L 164.102,-355.84 L 164.329,-356.004 L 164.545,-356.18 L 164.749,-356.366 L 164.939,-356.561
 L 165.117,-356.766 L 165.281,-356.98 L 165.432,-357.204 L 165.57,-357.436 L 165.695,-357.678 L 165.807,-357.93
 L 165.905,-358.19 L 165.99,-358.46 L 166.063,-358.739 L 166.122,-359.028 L 166.168,-359.326 L 166.201,-359.633
 L 166.22,-359.95 L 166.227,-360.276 L 166.222,-360.502 L 166.208,-360.724 L 166.185,-360.94 L 166.152,-361.152
 L 166.11,-361.359 L 166.059,-361.561 L 165.999,-361.758 L 165.929,-361.951 L 165.849,-362.138 L 165.761,-362.321
 L 165.663,-362.498 L 165.556,-362.671 L 165.439,-362.839 L 165.313,-363.002 L 165.178,-363.16 L 165.033,-363.314
 L 164.881,-363.461 L 164.72,-363.6 L 164.552,-363.732 L 164.377,-363.856 L 164.195,-363.973 L 164.005,-364.082
 L 163.807,-364.183 L 163.603,-364.277 L 163.39,-364.363 L 163.171,-364.441 L 162.944,-364.512 L 162.709,-364.575
 L 162.467,-364.631 L 162.218,-364.678 L 161.961,-364.719 L 161.697,-364.751 L 161.697,-364.806 L 161.938,-364.859
 L 162.171,-364.919 L 162.397,-364.984 L 162.616,-365.055 L 162.827,-365.132 L 163.031,-365.215 L 163.228,-365.303
 L 163.418,-365.397 L 163.6,-365.497 L 163.776,-365.603 L 163.943,-365.715 L 164.104,-365.832 L 164.258,-365.955
 L 164.404,-366.084 L 164.543,-366.218 L 164.674,-366.359 L 164.798,-366.505 L 164.914,-366.656 L 165.022,-366.812
 L 165.122,-366.974 L 165.214,-367.142 L 165.298,-367.314 L 165.374,-367.492 L 165.442,-367.676 L 165.502,-367.865
 L 165.554,-368.059 L 165.598,-368.258 L 165.634,-368.463 L 165.662,-368.673 L 165.682,-368.889 L 165.694,-369.109
 L 165.698,-369.336 L 165.692,-369.63 L 165.673,-369.916 L 165.642,-370.194 L 165.599,-370.463 L 165.543,-370.725
 L 165.474,-370.978 L 165.393,-371.223 L 165.3,-371.46 L 165.194,-371.688 L 165.076,-371.909 L 164.945,-372.121
 L 164.802,-372.325 L 164.646,-372.521 L 164.478,-372.708 L 164.298,-372.887 L 164.105,-373.058 L 163.9,-373.22
 L 163.686,-373.372 L 163.462,-373.512 L 163.228,-373.643 L 162.983,-373.763 L 162.729,-373.873 L 162.465,-373.972
 L 162.191,-374.06 L 161.906,-374.139 L 161.612,-374.207 L 161.308,-374.264 L 160.993,-374.311 L 160.669,-374.347
 L 160.334,-374.374 L 159.99,-374.389 L 159.636,-374.394 L 159.31,-374.389 L 158.993,-374.374 L 158.683,-374.348
 L 158.38,-374.312 L 158.085,-374.266 L 157.797,-374.209 L 157.516,-374.143 L 157.244,-374.065 L 156.978,-373.978
 L 156.72,-373.88 L 156.47,-373.773 L 156.227,-373.654 L 155.991,-373.526 L 155.763,-373.387 L 155.543,-373.238
 L 155.33,-373.079 L 155.126,-372.91 L 154.933,-372.734 L 154.751,-372.549 L 154.58,-372.357 L 154.42,-372.156
 L 154.271,-371.947 L 154.133,-371.73 L 154.006,-371.506 L 153.889,-371.273 L 153.784,-371.032 L 153.69,-370.783
 L 153.607,-370.526 L 153.534,-370.261 L 153.473,-369.987 L 153.423,-369.706 L 153.383,-369.417 L 155.838,-369.227
 L 155.862,-369.413 L 155.892,-369.593 L 155.929,-369.768 L 155.972,-369.937 L 156.021,-370.102 L 156.078,-370.261
 L 156.14,-370.415 L 156.209,-370.563 L 156.285,-370.706 L 156.367,-370.844 L 156.456,-370.977 L 156.552,-371.104
 L 156.653,-371.226 L 156.762,-371.342 L 156.876,-371.454 L 156.998,-371.56 L 157.125,-371.66 L 157.257,-371.754
 L 157.393,-371.841 L 157.535,-371.922 L 157.681,-371.996 L 157.832,-372.064 L 157.988,-372.125 L 158.149,-372.18
 L 158.314,-372.229 L 158.485,-372.271 L 158.66,-372.306 L 158.84,-372.335 L 159.025,-372.358 L 159.215,-372.374
 L 159.409,-372.384 L 159.609,-372.387 L 159.827,-372.384 L 160.039,-372.373 L 160.244,-372.356 L 160.442,-372.332
 L 160.634,-372.3 L 160.818,-372.262 L 160.996,-372.217 L 161.166,-372.165 L 161.33,-372.106 L 161.488,-372.04
 L 161.638,-371.967 L 161.781,-371.887 L 161.918,-371.801 L 162.048,-371.707 L 162.171,-371.606 L 162.287,-371.499
 L 162.396,-371.385 L 162.498,-371.267 L 162.594,-371.143 L 162.682,-371.014 L 162.763,-370.881 L 162.837,-370.742
 L 162.904,-370.598 L 162.963,-370.449 L 163.016,-370.296 L 163.062,-370.137 L 163.101,-369.973 L 163.133,-369.804
 L 163.157,-369.63 L 163.175,-369.451 L 163.185,-369.267 L 163.189,-369.078 L 163.185,-368.887 L 163.172,-368.702
 L 163.15,-368.522 L 163.12,-368.347 L 163.081,-368.177 L 163.034,-368.013 L 162.977,-367.854 L 162.913,-367.7
 L 162.839,-367.551 L 162.757,-367.407 L 162.667,-367.269 L 162.567,-367.136 L 162.459,-367.009 L 162.343,-366.886
 L 162.217,-366.769 L 162.084,-366.657 L 161.942,-366.551 L 161.793,-366.452 L 161.637,-366.36 L 161.475,-366.274
 L 161.305,-366.196 L 161.128,-366.124 L 160.944,-366.059 L 160.753,-366.001 L 160.555,-365.95 L 160.35,-365.905
 L 160.138,-365.868 L 159.918,-365.837 L 159.692,-365.813 L 159.459,-365.796 L 159.219,-365.786 L 158.971,-365.782
 L 157.642,-365.782 L 157.642,-363.666 L 159.025,-363.666 L 159.304,-363.663 L 159.575,-363.653 L 159.837,-363.636
 L 160.091,-363.612 L 160.337,-363.581 L 160.574,-363.543 L 160.803,-363.499 L 161.024,-363.448 L 161.237,-363.39
 L 161.441,-363.325 L 161.636,-363.253 L 161.824,-363.174 L 162.003,-363.089 L 162.174,-362.997 L 162.336,-362.898
 L 162.491,-362.792 L 162.636,-362.68 L 162.772,-362.562 L 162.898,-362.439 L 163.016,-362.311 L 163.124,-362.178
 L 163.222,-362.039 L 163.311,-361.895 L 163.391,-361.746 L 163.461,-361.591 L 163.522,-361.431 L 163.574,-361.265
 L 163.616,-361.094 L 163.649,-360.918 L 163.672,-360.736 L 163.686,-360.549 L 163.691,-360.357 L 163.687,-360.137
 L 163.674,-359.923 L 163.654,-359.717 L 163.625,-359.517 L 163.588,-359.324 L 163.543,-359.138 L 163.49,-358.959
 L 163.428,-358.787 L 163.358,-358.622 L 163.28,-358.464 L 163.194,-358.312 L 163.099,-358.168 L 162.997,-358.03
 L 162.886,-357.899 L 162.767,-357.775 L 162.64,-357.658 L 162.505,-357.548 L 162.364,-357.445 L 162.218,-357.349
 L 162.064,-357.261 L 161.905,-357.179 L 161.74,-357.105 L 161.568,-357.037 L 161.39,-356.977 L 161.206,-356.924
 L 161.016,-356.877 L 160.819,-356.838 L 160.617,-356.806 L 160.408,-356.782 L 160.193,-356.764 L 159.972,-356.753
 L 159.744,-356.75 L 159.297,-356.763 L 158.875,-356.803 L 158.478,-356.869 L 158.106,-356.962 L 157.758,-357.081
 L 157.436,-357.226 L 157.138,-357.399 L 156.866,-357.597 L 156.618,-357.822 L 156.395,-358.074 L 156.197,-358.352
 L 156.024,-358.657 L 155.876,-358.988 L 155.752,-359.346 L 155.654,-359.73 L 155.581,-360.14 L 153.058,-359.91
 L 153.104,-359.594 L 153.161,-359.288 L 153.229,-358.992 L 153.308,-358.706 L 153.398,-358.43 L 153.499,-358.164
 L 153.611,-357.907 L 153.734,-357.66 L 153.868,-357.423 L 154.013,-357.196 L 154.169,-356.978 L 154.336,-356.77
 L 154.513,-356.572 L 154.702,-356.384 L 154.902,-356.206 L 155.113,-356.038 L 155.333,-355.879 L 155.563,-355.731
 L 155.802,-355.593 L 156.051,-355.465 L 156.308,-355.347 L 156.574,-355.24 L 156.85,-355.143 L 157.135,-355.056
 L 157.429,-354.979 L 157.732,-354.913 L 158.045,-354.857 L 158.366,-354.811 L 158.697,-354.775 L 159.037,-354.749
 L 159.386,-354.734 L 159.744,-354.729 z
M 194.122,-359.326 L 196.807,-359.326 L 196.807,-361.252 L 194.122,-361.252 L 194.122,-374.11 L 191.558,-374.11
 L 182.81,-361.225 L 182.81,-359.326 L 191.816,-359.326 L 191.816,-355 L 194.122,-355 z
M 185.062,-361.252 L 185.279,-361.524 L 186.011,-362.527 L 190.907,-369.742 L 190.93,-369.776 L 190.954,-369.813
 L 190.98,-369.852 L 191.006,-369.895 L 191.035,-369.941 L 191.064,-369.989 L 191.095,-370.041 L 191.128,-370.095
 L 191.161,-370.153 L 191.197,-370.213 L 191.233,-370.276 L 191.271,-370.343 L 191.31,-370.412 L 191.351,-370.484
 L 191.393,-370.559 L 191.436,-370.638 L 191.479,-370.715 L 191.519,-370.788 L 191.557,-370.857 L 191.592,-370.922
 L 191.625,-370.982 L 191.655,-371.037 L 191.682,-371.089 L 191.707,-371.136 L 191.73,-371.179 L 191.75,-371.217
 L 191.767,-371.251 L 191.782,-371.281 L 191.794,-371.306 L 191.804,-371.327 L 191.811,-371.344 L 191.816,-371.356
 L 191.816,-361.252 z
M 179.035,-359.326 L 181.721,-359.326 L 181.721,-361.252 L 179.035,-361.252 L 179.035,-374.11 L 176.472,-374.11
 L 167.724,-361.225 L 167.724,-359.326 L 176.73,-359.326 L 176.73,-355 L 179.035,-355 z
M 169.975,-361.252 L 170.192,-361.524 L 170.925,-362.527 L 175.821,-369.742 L 175.843,-369.776 L 175.868,-369.813
 L 175.893,-369.852 L 175.92,-369.895 L 175.948,-369.941 L 175.978,-369.989 L 176.009,-370.041 L 176.041,-370.095
 L 176.075,-370.153 L 176.11,-370.213 L 176.147,-370.276 L 176.184,-370.343 L 176.224,-370.412 L 176.264,-370.484
 L 176.306,-370.559 L 176.35,-370.638 L 176.393,-370.715 L 176.433,-370.788 L 176.471,-370.857 L 176.506,-370.922
 L 176.538,-370.982 L 176.568,-371.037 L 176.596,-371.089 L 176.621,-371.136 L 176.643,-371.179 L 176.663,-371.217
 L 176.681,-371.251 L 176.696,-371.281 L 176.708,-371.306 L 176.718,-371.327 L 176.725,-371.344 L 176.73,-371.356
 L 176.73,-361.252 z
M 1,-180 L 3,-180 L 3,-100 L 4,-100 L 4,-180 L 20,-180
 L 20,-100 L 21,-100 L 21,-180 L 86,-180 L 86,-100 L 87,-100
 L 87,-180 L 258,-180 L 258,-100 L 259,-100 L 259,-180 L 327,-180
 L 327,-100 L 328,-100 L 328,-180 L 347,-180 L 347,-100 L 348,-100
 L 348,-180 L 350,-180 L 350,-100 L 351,-100 L 351,-180 L 366,-180
 L 366,-181 L 351,-181 L 351,-200 L 350,-200 L 350,-181 L 348,-181
 L 348,-260 L 366,-260 L 366,-261 L 348,-261 L 348,-340 L 366,-340
 L 366,-341 L 348,-341 L 348,-360 L 347,-360 L 347,-341 L 4,-341
 L 4,-360 L 3,-360 L 3,-341 L -20,-341 L -20,-340 L 3,-340
 L 3,-261 L -20,-261 L -20,-260 L 3,-260 L 3,-181 L 1,-181
 L 1,-200 L 0,-200 L 0,-181 L -20,-181 L -20,-180 L 0,-180
 L 0,-100 L 1,-100 z
M 4,-261 L 4,-340 L 347,-340 L 347,-261 L 328,-261 L 328,-275
 L 328.051,-275 L 328.051,-277.075 L 328,-277.075 L 328,-280 L 327,-280 L 327,-277.075
 L 318.082,-277.075 L 318.135,-277.194 L 318.192,-277.314 L 318.253,-277.434 L 318.318,-277.554 L 318.387,-277.676
 L 318.46,-277.798 L 318.537,-277.92 L 318.618,-278.043 L 318.703,-278.167 L 318.792,-278.291 L 318.885,-278.416
 L 318.982,-278.541 L 319.084,-278.667 L 319.189,-278.794 L 319.298,-278.921 L 319.411,-279.048 L 319.529,-279.177
 L 319.652,-279.308 L 319.78,-279.441 L 319.912,-279.576 L 320.05,-279.713 L 320.193,-279.852 L 320.34,-279.992
 L 320.493,-280.135 L 320.651,-280.28 L 320.813,-280.426 L 320.981,-280.575 L 321.153,-280.725 L 321.331,-280.878
 L 321.513,-281.032 L 321.701,-281.189 L 321.893,-281.347 L 322.241,-281.631 L 322.573,-281.905 L 322.892,-282.169
 L 323.196,-282.425 L 323.486,-282.67 L 323.762,-282.907 L 324.023,-283.134 L 324.27,-283.351 L 324.503,-283.559
 L 324.721,-283.758 L 324.926,-283.947 L 325.115,-284.127 L 325.291,-284.297 L 325.452,-284.458 L 325.599,-284.609
 L 325.732,-284.751 L 325.855,-284.889 L 325.975,-285.026 L 326.091,-285.163 L 326.202,-285.301 L 326.311,-285.438
 L 326.415,-285.575 L 326.515,-285.713 L 326.611,-285.85 L 326.704,-285.987 L 326.793,-286.125 L 326.878,-286.262
 L 326.959,-286.399 L 327.036,-286.537 L 327.109,-286.674 L 327.178,-286.811 L 327.244,-286.949 L 327.305,-287.086
 L 327.363,-287.223 L 327.417,-287.361 L 327.466,-287.499 L 327.512,-287.637 L 327.554,-287.774 L 327.591,-287.912
 L 327.625,-288.051 L 327.655,-288.189 L 327.681,-288.327 L 327.703,-288.465 L 327.721,-288.604 L 327.735,-288.743
 L 327.744,-288.881 L 327.75,-289.02 L 327.752,-289.159 L 327.746,-289.468 L 327.728,-289.769 L 327.698,-290.06
 L 327.655,-290.342 L 327.601,-290.616 L 327.534,-290.88 L 327.455,-291.135 L 327.364,-291.382 L 327.261,-291.619
 L 327.146,-291.848 L 327.018,-292.068 L 326.879,-292.278 L 326.727,-292.48 L 326.563,-292.673 L 326.387,-292.857
 L 326.199,-293.031 L 326,-293.196 L 325.79,-293.351 L 325.57,-293.495 L 325.339,-293.628 L 325.098,-293.75
 L 324.847,-293.862 L 324.585,-293.963 L 324.313,-294.054 L 324.03,-294.133 L 323.737,-294.203 L 323.433,-294.261
 L 323.119,-294.309 L 322.794,-294.346 L 322.459,-294.373 L 322.114,-294.389 L 321.758,-294.394 L 321.433,-294.389
 L 321.115,-294.373 L 320.805,-294.347 L 320.502,-294.31 L 320.207,-294.262 L 319.919,-294.204 L 319.639,-294.135
 L 319.366,-294.055 L 319.1,-293.965 L 318.842,-293.865 L 318.592,-293.753 L 318.349,-293.631 L 318.113,-293.499
 L 317.885,-293.356 L 317.665,-293.202 L 317.452,-293.038 L 317.248,-292.865 L 317.055,-292.684 L 316.873,-292.497
 L 316.702,-292.301 L 316.542,-292.099 L 316.393,-291.889 L 316.255,-291.672 L 316.128,-291.448 L 316.011,-291.216
 L 315.906,-290.977 L 315.812,-290.731 L 315.729,-290.477 L 315.656,-290.216 L 315.595,-289.948 L 315.545,-289.673
 L 315.505,-289.39 L 318.001,-289.159 L 318.026,-289.348 L 318.058,-289.532 L 318.096,-289.71 L 318.141,-289.883
 L 318.193,-290.05 L 318.25,-290.212 L 318.315,-290.369 L 318.386,-290.521 L 318.463,-290.667 L 318.547,-290.807
 L 318.638,-290.943 L 318.735,-291.073 L 318.838,-291.197 L 318.948,-291.317 L 319.065,-291.431 L 319.188,-291.539
 L 319.316,-291.642 L 319.449,-291.738 L 319.586,-291.828 L 319.727,-291.91 L 319.873,-291.986 L 320.023,-292.056
 L 320.177,-292.119 L 320.335,-292.175 L 320.498,-292.225 L 320.665,-292.268 L 320.837,-292.304 L 321.012,-292.334
 L 321.192,-292.357 L 321.376,-292.374 L 321.565,-292.384 L 321.758,-292.387 L 321.96,-292.384 L 322.157,-292.374
 L 322.348,-292.357 L 322.533,-292.333 L 322.713,-292.302 L 322.887,-292.265 L 323.056,-292.221 L 323.219,-292.17
 L 323.376,-292.113 L 323.528,-292.048 L 323.674,-291.977 L 323.815,-291.899 L 323.95,-291.814 L 324.079,-291.723
 L 324.203,-291.624 L 324.321,-291.519 L 324.433,-291.408 L 324.537,-291.291 L 324.634,-291.169 L 324.725,-291.041
 L 324.807,-290.908 L 324.883,-290.769 L 324.952,-290.625 L 325.013,-290.475 L 325.067,-290.32 L 325.114,-290.159
 L 325.153,-289.992 L 325.186,-289.82 L 325.211,-289.643 L 325.229,-289.46 L 325.24,-289.272 L 325.243,-289.078
 L 325.241,-288.933 L 325.235,-288.79 L 325.225,-288.649 L 325.21,-288.51 L 325.191,-288.373 L 325.168,-288.237
 L 325.141,-288.104 L 325.109,-287.973 L 325.074,-287.843 L 325.034,-287.715 L 324.99,-287.59 L 324.942,-287.466
 L 324.89,-287.344 L 324.833,-287.224 L 324.772,-287.105 L 324.708,-286.989 L 324.639,-286.874 L 324.568,-286.76
 L 324.495,-286.646 L 324.419,-286.533 L 324.34,-286.421 L 324.259,-286.309 L 324.175,-286.198 L 324.089,-286.087
 L 324,-285.977 L 323.908,-285.868 L 323.814,-285.76 L 323.717,-285.652 L 323.618,-285.544 L 323.516,-285.438
 L 323.411,-285.331 L 323.304,-285.226 L 323.194,-285.121 L 323.084,-285.016 L 322.971,-284.911 L 322.857,-284.806
 L 322.741,-284.7 L 322.623,-284.595 L 322.504,-284.49 L 322.383,-284.385 L 322.261,-284.28 L 322.137,-284.175
 L 322.011,-284.07 L 321.884,-283.965 L 321.755,-283.86 L 321.624,-283.755 L 321.492,-283.649 L 321.358,-283.544
 L 321.223,-283.439 L 321.088,-283.332 L 320.953,-283.224 L 320.817,-283.115 L 320.682,-283.005 L 320.546,-282.894
 L 320.41,-282.781 L 320.274,-282.668 L 320.138,-282.553 L 320.002,-282.438 L 319.865,-282.321 L 319.729,-282.203
 L 319.592,-282.084 L 319.455,-281.964 L 319.318,-281.843 L 319.181,-281.72 L 319.044,-281.596 L 318.908,-281.471
 L 318.772,-281.343 L 318.638,-281.214 L 318.504,-281.083 L 318.371,-280.95 L 318.239,-280.816 L 318.108,-280.679
 L 317.977,-280.541 L 317.847,-280.401 L 317.718,-280.259 L 317.59,-280.116 L 317.463,-279.97 L 317.336,-279.823
 L 317.21,-279.674 L 317.085,-279.523 L 316.962,-279.37 L 316.841,-279.214 L 316.722,-279.055 L 316.606,-278.893
 L 316.492,-278.728 L 316.381,-278.56 L 316.272,-278.39 L 316.165,-278.216 L 316.061,-278.039 L 315.959,-277.86
 L 315.859,-277.678 L 315.762,-277.492 L 315.667,-277.304 L 315.575,-277.113 L 315.485,-276.919 L 315.397,-276.722
 L 315.397,-275 L 327,-275 L 327,-261 L 21,-261 L 21,-280 L 20,-280
 L 20,-261 z
M 337.182,-274.739 L 337.575,-274.768 L 337.956,-274.817 L 338.324,-274.886 L 338.679,-274.975 L 339.022,-275.084
 L 339.353,-275.212 L 339.67,-275.359 L 339.976,-275.527 L 340.268,-275.714 L 340.548,-275.921 L 340.816,-276.148
 L 341.071,-276.394 L 341.313,-276.66 L 341.543,-276.946 L 341.761,-277.251 L 341.965,-277.576 L 342.156,-277.917
 L 342.334,-278.277 L 342.499,-278.654 L 342.651,-279.049 L 342.79,-279.462 L 342.915,-279.892 L 343.027,-280.34
 L 343.126,-280.806 L 343.212,-281.289 L 343.284,-281.791 L 343.344,-282.309 L 343.39,-282.846 L 343.423,-283.4
 L 343.443,-283.972 L 343.449,-284.562 L 343.443,-285.161 L 343.424,-285.742 L 343.393,-286.304 L 343.349,-286.847
 L 343.292,-287.372 L 343.223,-287.878 L 343.141,-288.365 L 343.047,-288.834 L 342.941,-289.284 L 342.821,-289.715
 L 342.689,-290.128 L 342.545,-290.522 L 342.388,-290.898 L 342.219,-291.255 L 342.037,-291.593 L 341.842,-291.912
 L 341.634,-292.213 L 341.413,-292.494 L 341.177,-292.756 L 340.928,-292.998 L 340.665,-293.221 L 340.388,-293.425
 L 340.097,-293.609 L 339.792,-293.774 L 339.474,-293.919 L 339.142,-294.045 L 338.796,-294.152 L 338.436,-294.239
 L 338.062,-294.307 L 337.675,-294.356 L 337.273,-294.385 L 336.858,-294.394 L 336.431,-294.385 L 336.019,-294.356
 L 335.621,-294.308 L 335.238,-294.241 L 334.87,-294.155 L 334.516,-294.049 L 334.177,-293.925 L 333.852,-293.781
 L 333.542,-293.618 L 333.246,-293.435 L 332.965,-293.234 L 332.699,-293.014 L 332.447,-292.774 L 332.21,-292.515
 L 331.987,-292.237 L 331.779,-291.94 L 331.584,-291.623 L 331.402,-291.287 L 331.233,-290.932 L 331.076,-290.558
 L 330.931,-290.164 L 330.799,-289.751 L 330.68,-289.319 L 330.573,-288.868 L 330.479,-288.397 L 330.398,-287.907
 L 330.328,-287.398 L 330.272,-286.869 L 330.228,-286.321 L 330.197,-285.754 L 330.178,-285.167 L 330.172,-284.562
 L 330.178,-283.969 L 330.197,-283.394 L 330.23,-282.837 L 330.275,-282.298 L 330.333,-281.778 L 330.404,-281.275
 L 330.488,-280.79 L 330.585,-280.323 L 330.695,-279.875 L 330.818,-279.444 L 330.954,-279.031 L 331.102,-278.636
 L 331.264,-278.26 L 331.438,-277.901 L 331.626,-277.56 L 331.826,-277.238 L 332.039,-276.934 L 332.265,-276.65
 L 332.504,-276.385 L 332.756,-276.14 L 333.021,-275.915 L 333.298,-275.709 L 333.588,-275.523 L 333.891,-275.356
 L 334.207,-275.209 L 334.535,-275.082 L 334.877,-274.974 L 335.231,-274.886 L 335.598,-274.817 L 335.978,-274.768
 L 336.371,-274.739 L 336.777,-274.729 z
M 336.537,-276.73 L 336.279,-276.752 L 336.031,-276.789 L 335.792,-276.84 L 335.562,-276.906 L 335.341,-276.988
 L 335.129,-277.083 L 334.927,-277.194 L 334.733,-277.319 L 334.549,-277.459 L 334.374,-277.613 L 334.208,-277.783
 L 334.052,-277.967 L 333.904,-278.166 L 333.766,-278.379 L 333.637,-278.608 L 333.516,-278.852 L 333.403,-279.113
 L 333.298,-279.391 L 333.201,-279.687 L 333.111,-279.999 L 333.029,-280.329 L 332.955,-280.675 L 332.889,-281.039
 L 332.831,-281.419 L 332.78,-281.817 L 332.737,-282.232 L 332.702,-282.664 L 332.675,-283.113 L 332.655,-283.579
 L 332.644,-284.062 L 332.64,-284.562 L 332.644,-285.076 L 332.655,-285.572 L 332.674,-286.05 L 332.701,-286.509
 L 332.736,-286.95 L 332.778,-287.373 L 332.828,-287.777 L 332.886,-288.162 L 332.951,-288.53 L 333.024,-288.878
 L 333.105,-289.208 L 333.193,-289.52 L 333.289,-289.814 L 333.393,-290.089 L 333.504,-290.345 L 333.623,-290.583
 L 333.751,-290.805 L 333.889,-291.012 L 334.036,-291.205 L 334.194,-291.384 L 334.362,-291.549 L 334.539,-291.699
 L 334.726,-291.835 L 334.924,-291.956 L 335.131,-292.064 L 335.348,-292.157 L 335.575,-292.235 L 335.811,-292.3
 L 336.058,-292.35 L 336.315,-292.386 L 336.581,-292.407 L 336.858,-292.414 L 337.128,-292.407 L 337.388,-292.385
 L 337.638,-292.349 L 337.879,-292.298 L 338.11,-292.233 L 338.331,-292.153 L 338.543,-292.059 L 338.745,-291.95
 L 338.937,-291.826 L 339.119,-291.688 L 339.292,-291.536 L 339.455,-291.369 L 339.609,-291.188 L 339.753,-290.992
 L 339.887,-290.781 L 340.011,-290.556 L 340.127,-290.315 L 340.235,-290.056 L 340.336,-289.779 L 340.429,-289.485
 L 340.515,-289.172 L 340.594,-288.842 L 340.665,-288.494 L 340.728,-288.129 L 340.784,-287.745 L 340.833,-287.344
 L 340.874,-286.924 L 340.908,-286.487 L 340.934,-286.033 L 340.952,-285.56 L 340.964,-285.07 L 340.967,-284.562
 L 340.963,-284.071 L 340.952,-283.597 L 340.932,-283.139 L 340.905,-282.697 L 340.869,-282.271 L 340.826,-281.861
 L 340.775,-281.467 L 340.716,-281.09 L 340.65,-280.728 L 340.575,-280.383 L 340.493,-280.053 L 340.403,-279.74
 L 340.305,-279.443 L 340.199,-279.162 L 340.085,-278.897 L 339.964,-278.648 L 339.834,-278.415 L 339.695,-278.197
 L 339.547,-277.994 L 339.39,-277.806 L 339.224,-277.633 L 339.049,-277.475 L 338.865,-277.332 L 338.672,-277.204
 L 338.47,-277.091 L 338.259,-276.993 L 338.039,-276.91 L 337.81,-276.843 L 337.572,-276.79 L 337.325,-276.752
 L 337.069,-276.73 L 336.804,-276.722 z
M 19.0508,-277.075 L 9.0824,-277.075 L 9.13525,-277.194 L 9.19214,-277.314 L 9.25307,-277.434 L 9.31801,-277.554
 L 9.38698,-277.676 L 9.45998,-277.798 L 9.53699,-277.92 L 9.61804,-278.043 L 9.70312,-278.167 L 9.79222,-278.291
 L 9.88535,-278.416 L 9.9825,-278.541 L 10.0837,-278.667 L 10.1889,-278.794 L 10.2981,-278.921 L 10.4114,-279.048
 L 10.5292,-279.177 L 10.6519,-279.308 L 10.7796,-279.441 L 10.9123,-279.576 L 11.05,-279.713 L 11.1927,-279.852
 L 11.3404,-279.992 L 11.493,-280.135 L 11.6506,-280.28 L 11.8132,-280.426 L 11.9808,-280.575 L 12.1533,-280.725
 L 12.3309,-280.878 L 12.5134,-281.032 L 12.7009,-281.189 L 12.8934,-281.347 L 13.2406,-281.631 L 13.5734,-281.905
 L 13.892,-282.169 L 14.1963,-282.425 L 14.4862,-282.67 L 14.7619,-282.907 L 15.0232,-283.134 L 15.2702,-283.351
 L 15.503,-283.559 L 15.7214,-283.758 L 15.9255,-283.947 L 16.1154,-284.127 L 16.2909,-284.297 L 16.4521,-284.458
 L 16.599,-284.609 L 16.7316,-284.751 L 16.8551,-284.889 L 16.9748,-285.026 L 17.0905,-285.163 L 17.2025,-285.301
 L 17.3105,-285.438 L 17.4147,-285.575 L 17.515,-285.713 L 17.6114,-285.85 L 17.704,-285.987 L 17.7927,-286.125
 L 17.8776,-286.262 L 17.9586,-286.399 L 18.0357,-286.537 L 18.1089,-286.674 L 18.1783,-286.811 L 18.2438,-286.949
 L 18.3054,-287.086 L 18.363,-287.223 L 18.4166,-287.361 L 18.4663,-287.499 L 18.512,-287.637 L 18.5537,-287.774
 L 18.5915,-287.912 L 18.6252,-288.051 L 18.655,-288.189 L 18.6809,-288.327 L 18.7027,-288.465 L 18.7206,-288.604
 L 18.7345,-288.743 L 18.7444,-288.881 L 18.7504,-289.02 L 18.7524,-289.159 L 18.7463,-289.468 L 18.7281,-289.769
 L 18.6978,-290.06 L 18.6553,-290.342 L 18.6007,-290.616 L 18.534,-290.88 L 18.4551,-291.135 L 18.3641,-291.382
 L 18.261,-291.619 L 18.1458,-291.848 L 18.0184,-292.068 L 17.8788,-292.278 L 17.7272,-292.48 L 17.5634,-292.673
 L 17.3875,-292.857 L 17.1994,-293.031 L 17.0001,-293.196 L 16.7903,-293.351 L 16.5701,-293.495 L 16.3395,-293.628
 L 16.0984,-293.75 L 15.8469,-293.862 L 15.585,-293.963 L 15.3126,-294.054 L 15.0298,-294.133 L 14.7365,-294.203
 L 14.4328,-294.261 L 14.1187,-294.309 L 13.7941,-294.346 L 13.4591,-294.373 L 13.1137,-294.389 L 12.7578,-294.394
 L 12.4326,-294.389 L 12.1149,-294.373 L 11.8047,-294.347 L 11.502,-294.31 L 11.2067,-294.262 L 10.9189,-294.204
 L 10.6385,-294.135 L 10.3656,-294.055 L 10.1002,-293.965 L 9.8423,-293.865 L 9.59184,-293.753 L 9.34886,-293.631
 L 9.11333,-293.499 L 8.88528,-293.356 L 8.6647,-293.202 L 8.4516,-293.038 L 8.2477,-292.865 L 8.05478,-292.684
 L 7.87282,-292.497 L 7.70183,-292.301 L 7.54181,-292.099 L 7.39275,-291.889 L 7.25467,-291.672 L 7.12755,-291.448
 L 7.01138,-291.216 L 6.9062,-290.977 L 6.81198,-290.731 L 6.72873,-290.477 L 6.65645,-290.216 L 6.59512,-289.948
 L 6.54477,-289.673 L 6.50539,-289.39 L 9.00099,-289.159 L 9.02628,-289.348 L 9.05807,-289.532 L 9.09639,-289.71
 L 9.14124,-289.883 L 9.19258,-290.05 L 9.25046,-290.212 L 9.31483,-290.369 L 9.38574,-290.521 L 9.46317,-290.667
 L 9.5471,-290.807 L 9.63756,-290.943 L 9.73453,-291.073 L 9.83801,-291.197 L 9.94803,-291.317 L 10.0645,-291.431
 L 10.1876,-291.539 L 10.316,-291.642 L 10.4488,-291.738 L 10.5858,-291.828 L 10.7271,-291.91 L 10.8727,-291.986
 L 11.0227,-292.056 L 11.1768,-292.119 L 11.3353,-292.175 L 11.4981,-292.225 L 11.6652,-292.268 L 11.8366,-292.304
 L 12.0122,-292.334 L 12.1922,-292.357 L 12.3764,-292.374 L 12.565,-292.384 L 12.7578,-292.387 L 12.9601,-292.384
 L 13.1568,-292.374 L 13.3479,-292.357 L 13.5334,-292.333 L 13.7132,-292.302 L 13.8875,-292.265 L 14.0561,-292.221
 L 14.2191,-292.17 L 14.3765,-292.113 L 14.5283,-292.048 L 14.6744,-291.977 L 14.815,-291.899 L 14.9499,-291.814
 L 15.0792,-291.723 L 15.2029,-291.624 L 15.321,-291.519 L 15.4327,-291.408 L 15.5372,-291.291 L 15.6345,-291.169
 L 15.7245,-291.041 L 15.8074,-290.908 L 15.8831,-290.769 L 15.9515,-290.625 L 16.0128,-290.475 L 16.0668,-290.32
 L 16.1137,-290.159 L 16.1533,-289.992 L 16.1857,-289.82 L 16.211,-289.643 L 16.229,-289.46 L 16.2398,-289.272
 L 16.2434,-289.078 L 16.2413,-288.933 L 16.235,-288.79 L 16.2245,-288.649 L 16.2099,-288.51 L 16.1911,-288.373
 L 16.168,-288.237 L 16.1408,-288.104 L 16.1094,-287.973 L 16.0739,-287.843 L 16.0341,-287.715 L 15.9901,-287.59
 L 15.942,-287.466 L 15.8897,-287.344 L 15.8332,-287.224 L 15.7725,-287.105 L 15.7076,-286.989 L 15.6393,-286.874
 L 15.5685,-286.76 L 15.495,-286.646 L 15.4189,-286.533 L 15.3403,-286.421 L 15.259,-286.309 L 15.1752,-286.198
 L 15.0887,-286.087 L 14.9997,-285.977 L 14.9081,-285.868 L 14.8139,-285.76 L 14.717,-285.652 L 14.6176,-285.544
 L 14.5156,-285.438 L 14.411,-285.331 L 14.3038,-285.226 L 14.1945,-285.121 L 14.0835,-285.016 L 13.9709,-284.911
 L 13.8567,-284.806 L 13.7408,-284.7 L 13.6232,-284.595 L 13.5041,-284.49 L 13.3832,-284.385 L 13.2608,-284.28
 L 13.1367,-284.175 L 13.0109,-284.07 L 12.8836,-283.965 L 12.7545,-283.86 L 12.6239,-283.755 L 12.4915,-283.649
 L 12.3576,-283.544 L 12.2227,-283.439 L 12.0877,-283.332 L 11.9525,-283.224 L 11.8172,-283.115 L 11.6817,-283.005
 L 11.5461,-282.894 L 11.4103,-282.781 L 11.2743,-282.668 L 11.1382,-282.553 L 11.0019,-282.438 L 10.8654,-282.321
 L 10.7288,-282.203 L 10.5921,-282.084 L 10.4551,-281.964 L 10.318,-281.843 L 10.1808,-281.72 L 10.0439,-281.596
 L 9.90778,-281.471 L 9.77246,-281.343 L 9.63792,-281.214 L 9.5042,-281.083 L 9.37125,-280.95 L 9.23911,-280.816
 L 9.10774,-280.679 L 8.97717,-280.541 L 8.8474,-280.401 L 8.71841,-280.259 L 8.59023,-280.116 L 8.46283,-279.97
 L 8.33623,-279.823 L 8.21042,-279.674 L 8.08539,-279.523 L 7.96199,-279.37 L 7.84096,-279.214 L 7.72232,-279.055
 L 7.60606,-278.893 L 7.4922,-278.728 L 7.38071,-278.56 L 7.27161,-278.39 L 7.16489,-278.216 L 7.06056,-278.039
 L 6.95862,-277.86 L 6.85905,-277.678 L 6.76187,-277.492 L 6.66707,-277.304 L 6.57466,-277.113 L 6.48463,-276.919
 L 6.39699,-276.722 L 6.39699,-275 L 19.0508,-275 z
M 28.1822,-274.739 L 28.5753,-274.768 L 28.9559,-274.817 L 29.3239,-274.886 L 29.6793,-274.975 L 30.0222,-275.084
 L 30.3525,-275.212 L 30.6703,-275.359 L 30.9755,-275.527 L 31.2682,-275.714 L 31.5483,-275.921 L 31.8159,-276.148
 L 32.0709,-276.394 L 32.3133,-276.66 L 32.5432,-276.946 L 32.7605,-277.251 L 32.965,-277.576 L 33.1563,-277.917
 L 33.3344,-278.277 L 33.4993,-278.654 L 33.651,-279.049 L 33.7895,-279.462 L 33.9148,-279.892 L 34.027,-280.34
 L 34.1259,-280.806 L 34.2117,-281.289 L 34.2842,-281.791 L 34.3436,-282.309 L 34.3898,-282.846 L 34.4227,-283.4
 L 34.4425,-283.972 L 34.4491,-284.562 L 34.4428,-285.161 L 34.424,-285.742 L 34.3926,-286.304 L 34.3487,-286.847
 L 34.2922,-287.372 L 34.2231,-287.878 L 34.1415,-288.365 L 34.0473,-288.834 L 33.9406,-289.284 L 33.8213,-289.715
 L 33.6895,-290.128 L 33.5451,-290.522 L 33.3881,-290.898 L 33.2186,-291.255 L 33.0365,-291.593 L 32.8419,-291.912
 L 32.6341,-292.213 L 32.4125,-292.494 L 32.1771,-292.756 L 31.9278,-292.998 L 31.6647,-293.221 L 31.3878,-293.425
 L 31.097,-293.609 L 30.7924,-293.774 L 30.474,-293.919 L 30.1418,-294.045 L 29.7957,-294.152 L 29.4358,-294.239
 L 29.0621,-294.307 L 28.6745,-294.356 L 28.2731,-294.385 L 27.8579,-294.394 L 27.4312,-294.385 L 27.0191,-294.356
 L 26.6215,-294.308 L 26.2385,-294.241 L 25.87,-294.155 L 25.5162,-294.049 L 25.1768,-293.925 L 24.8521,-293.781
 L 24.5419,-293.618 L 24.2464,-293.435 L 23.9653,-293.234 L 23.6989,-293.014 L 23.447,-292.774 L 23.2097,-292.515
 L 22.9869,-292.237 L 22.7787,-291.94 L 22.5841,-291.623 L 22.402,-291.287 L 22.2325,-290.932 L 22.0756,-290.558
 L 21.9312,-290.164 L 21.7993,-289.751 L 21.68,-289.319 L 21.5733,-288.868 L 21.4791,-288.397 L 21.3975,-287.907
 L 21.3285,-287.398 L 21.272,-286.869 L 21.228,-286.321 L 21.1966,-285.754 L 21.1778,-285.167 L 21.1715,-284.562
 L 21.178,-283.969 L 21.1974,-283.394 L 21.2297,-282.837 L 21.2749,-282.298 L 21.3331,-281.778 L 21.4042,-281.275
 L 21.4882,-280.79 L 21.5852,-280.323 L 21.695,-279.875 L 21.8178,-279.444 L 21.9536,-279.031 L 22.1022,-278.636
 L 22.2638,-278.26 L 22.4383,-277.901 L 22.6257,-277.56 L 22.8261,-277.238 L 23.0394,-276.934 L 23.2654,-276.65
 L 23.5043,-276.385 L 23.756,-276.14 L 24.0205,-275.915 L 24.2979,-275.709 L 24.588,-275.523 L 24.891,-275.356
 L 25.2068,-275.209 L 25.5355,-275.082 L 25.8769,-274.974 L 26.2312,-274.886 L 26.5983,-274.817 L 26.9782,-274.768
 L 27.371,-274.739 L 27.7765,-274.729 z
M 27.5368,-276.73 L 27.2793,-276.752 L 27.031,-276.789 L 26.7918,-276.84 L 26.5618,-276.906 L 26.341,-276.988
 L 26.1293,-277.083 L 25.9268,-277.194 L 25.7335,-277.319 L 25.5493,-277.459 L 25.3743,-277.613 L 25.2084,-277.783
 L 25.0518,-277.967 L 24.9043,-278.166 L 24.7659,-278.379 L 24.6367,-278.608 L 24.516,-278.852 L 24.4031,-279.113
 L 24.298,-279.391 L 24.2006,-279.687 L 24.1111,-279.999 L 24.0293,-280.329 L 23.9553,-280.675 L 23.8891,-281.039
 L 23.8307,-281.419 L 23.7801,-281.817 L 23.7373,-282.232 L 23.7022,-282.664 L 23.675,-283.113 L 23.6555,-283.579
 L 23.6438,-284.062 L 23.6399,-284.562 L 23.6438,-285.076 L 23.6553,-285.572 L 23.6745,-286.05 L 23.7014,-286.509
 L 23.7359,-286.95 L 23.7782,-287.373 L 23.8281,-287.777 L 23.8857,-288.162 L 23.951,-288.53 L 24.024,-288.878
 L 24.1046,-289.208 L 24.193,-289.52 L 24.289,-289.814 L 24.3927,-290.089 L 24.5041,-290.345 L 24.6231,-290.583
 L 24.751,-290.805 L 24.8888,-291.012 L 25.0365,-291.205 L 25.1941,-291.384 L 25.3616,-291.549 L 25.539,-291.699
 L 25.7263,-291.835 L 25.9235,-291.956 L 26.1306,-292.064 L 26.3477,-292.157 L 26.5746,-292.235 L 26.8115,-292.3
 L 27.0582,-292.35 L 27.3149,-292.386 L 27.5815,-292.407 L 27.8579,-292.414 L 28.1277,-292.407 L 28.3878,-292.385
 L 28.6382,-292.349 L 28.8789,-292.298 L 29.1099,-292.233 L 29.3312,-292.153 L 29.5428,-292.059 L 29.7447,-291.95
 L 29.937,-291.826 L 30.1195,-291.688 L 30.2923,-291.536 L 30.4555,-291.369 L 30.6089,-291.188 L 30.7527,-290.992
 L 30.8867,-290.781 L 31.0111,-290.556 L 31.1269,-290.315 L 31.2352,-290.056 L 31.3361,-289.779 L 31.4295,-289.485
 L 31.5154,-289.172 L 31.5938,-288.842 L 31.6648,-288.494 L 31.7283,-288.129 L 31.7843,-287.745 L 31.8329,-287.344
 L 31.8739,-286.924 L 31.9075,-286.487 L 31.9337,-286.033 L 31.9524,-285.56 L 31.9636,-285.07 L 31.9673,-284.562
 L 31.9634,-284.071 L 31.9516,-283.597 L 31.932,-283.139 L 31.9046,-282.697 L 31.8693,-282.271 L 31.8262,-281.861
 L 31.7752,-281.467 L 31.7164,-281.09 L 31.6498,-280.728 L 31.5753,-280.383 L 31.493,-280.053 L 31.4028,-279.74
 L 31.3048,-279.443 L 31.1989,-279.162 L 31.0853,-278.897 L 30.9637,-278.648 L 30.8338,-278.415 L 30.6948,-278.197
 L 30.5468,-277.994 L 30.3898,-277.806 L 30.2239,-277.633 L 30.0489,-277.475 L 29.8649,-277.332 L 29.6719,-277.204
 L 29.4698,-277.091 L 29.2588,-276.993 L 29.0388,-276.91 L 28.8098,-276.843 L 28.5717,-276.79 L 28.3246,-276.752
 L 28.0686,-276.73 L 27.8035,-276.722 z
M 160.128,-274.734 L 160.502,-274.751 L 160.863,-274.78 L 161.214,-274.82 L 161.553,-274.871 L 161.882,-274.933
 L 162.198,-275.007 L 162.504,-275.092 L 162.799,-275.188 L 163.082,-275.296 L 163.354,-275.415 L 163.615,-275.545
 L 163.864,-275.687 L 164.102,-275.84 L 164.329,-276.004 L 164.545,-276.18 L 164.749,-276.366 L 164.939,-276.561
 L 165.117,-276.766 L 165.281,-276.98 L 165.432,-277.204 L 165.57,-277.436 L 165.695,-277.678 L 165.807,-277.93
 L 165.905,-278.19 L 165.99,-278.46 L 166.063,-278.739 L 166.122,-279.028 L 166.168,-279.326 L 166.201,-279.633
 L 166.22,-279.95 L 166.227,-280.276 L 166.222,-280.502 L 166.208,-280.724 L 166.185,-280.94 L 166.152,-281.152
 L 166.11,-281.359 L 166.059,-281.561 L 165.999,-281.758 L 165.929,-281.951 L 165.849,-282.138 L 165.761,-282.321
 L 165.663,-282.498 L 165.556,-282.671 L 165.439,-282.839 L 165.313,-283.002 L 165.178,-283.16 L 165.033,-283.314
 L 164.881,-283.461 L 164.72,-283.6 L 164.552,-283.732 L 164.377,-283.856 L 164.195,-283.973 L 164.005,-284.082
 L 163.807,-284.183 L 163.603,-284.277 L 163.39,-284.363 L 163.171,-284.441 L 162.944,-284.512 L 162.709,-284.575
 L 162.467,-284.631 L 162.218,-284.678 L 161.961,-284.719 L 161.697,-284.751 L 161.697,-284.806 L 161.938,-284.859
 L 162.171,-284.919 L 162.397,-284.984 L 162.616,-285.055 L 162.827,-285.132 L 163.031,-285.215 L 163.228,-285.303
 L 163.418,-285.397 L 163.6,-285.497 L 163.776,-285.603 L 163.943,-285.715 L 164.104,-285.832 L 164.258,-285.955
 L 164.404,-286.084 L 164.543,-286.218 L 164.674,-286.359 L 164.798,-286.505 L 164.914,-286.656 L 165.022,-286.812
 L 165.122,-286.974 L 165.214,-287.142 L 165.298,-287.314 L 165.374,-287.492 L 165.442,-287.676 L 165.502,-287.865
 L 165.554,-288.059 L 165.598,-288.258 L 165.634,-288.463 L 165.662,-288.673 L 165.682,-288.889 L 165.694,-289.109
 L 165.698,-289.336 L 165.692,-289.63 L 165.673,-289.916 L 165.642,-290.194 L 165.599,-290.463 L 165.543,-290.725
 L 165.474,-290.978 L 165.393,-291.223 L 165.3,-291.46 L 165.194,-291.688 L 165.076,-291.909 L 164.945,-292.121
 L 164.802,-292.325 L 164.646,-292.521 L 164.478,-292.708 L 164.298,-292.887 L 164.105,-293.058 L 163.9,-293.22
 L 163.686,-293.372 L 163.462,-293.512 L 163.228,-293.643 L 162.983,-293.763 L 162.729,-293.873 L 162.465,-293.972
 L 162.191,-294.06 L 161.906,-294.139 L 161.612,-294.207 L 161.308,-294.264 L 160.993,-294.311 L 160.669,-294.347
 L 160.334,-294.374 L 159.99,-294.389 L 159.636,-294.394 L 159.31,-294.389 L 158.993,-294.374 L 158.683,-294.348
 L 158.38,-294.312 L 158.085,-294.266 L 157.797,-294.209 L 157.516,-294.143 L 157.244,-294.065 L 156.978,-293.978
 L 156.72,-293.88 L 156.47,-293.773 L 156.227,-293.654 L 155.991,-293.526 L 155.763,-293.387 L 155.543,-293.238
 L 155.33,-293.079 L 155.126,-292.91 L 154.933,-292.734 L 154.751,-292.549 L 154.58,-292.357 L 154.42,-292.156
 L 154.271,-291.947 L 154.133,-291.73 L 154.006,-291.506 L 153.889,-291.273 L 153.784,-291.032 L 153.69,-290.783
 L 153.607,-290.526 L 153.534,-290.261 L 153.473,-289.987 L 153.423,-289.706 L 153.383,-289.417 L 155.838,-289.227
 L 155.862,-289.413 L 155.892,-289.593 L 155.929,-289.768 L 155.972,-289.937 L 156.021,-290.102 L 156.078,-290.261
 L 156.14,-290.415 L 156.209,-290.563 L 156.285,-290.706 L 156.367,-290.844 L 156.456,-290.977 L 156.552,-291.104
 L 156.653,-291.226 L 156.762,-291.342 L 156.876,-291.454 L 156.998,-291.56 L 157.125,-291.66 L 157.257,-291.754
 L 157.393,-291.841 L 157.535,-291.922 L 157.681,-291.996 L 157.832,-292.064 L 157.988,-292.125 L 158.149,-292.18
 L 158.314,-292.229 L 158.485,-292.271 L 158.66,-292.306 L 158.84,-292.335 L 159.025,-292.358 L 159.215,-292.374
 L 159.409,-292.384 L 159.609,-292.387 L 159.827,-292.384 L 160.039,-292.373 L 160.244,-292.356 L 160.442,-292.332
 L 160.634,-292.3 L 160.818,-292.262 L 160.996,-292.217 L 161.166,-292.165 L 161.33,-292.106 L 161.488,-292.04
 L 161.638,-291.967 L 161.781,-291.887 L 161.918,-291.801 L 162.048,-291.707 L 162.171,-291.606 L 162.287,-291.499
 L 162.396,-291.385 L 162.498,-291.267 L 162.594,-291.143 L 162.682,-291.014 L 162.763,-290.881 L 162.837,-290.742
 L 162.904,-290.598 L 162.963,-290.449 L 163.016,-290.296 L 163.062,-290.137 L 163.101,-289.973 L 163.133,-289.804
 L 163.157,-289.63 L 163.175,-289.451 L 163.185,-289.267 L 163.189,-289.078 L 163.185,-288.887 L 163.172,-288.702
 L 163.15,-288.522 L 163.12,-288.347 L 163.081,-288.177 L 163.034,-288.013 L 162.977,-287.854 L 162.913,-287.7
 L 162.839,-287.551 L 162.757,-287.407 L 162.667,-287.269 L 162.567,-287.136 L 162.459,-287.009 L 162.343,-286.886
 L 162.217,-286.769 L 162.084,-286.657 L 161.942,-286.551 L 161.793,-286.452 L 161.637,-286.36 L 161.475,-286.274
 L 161.305,-286.196 L 161.128,-286.124 L 160.944,-286.059 L 160.753,-286.001 L 160.555,-285.95 L 160.35,-285.905
 L 160.138,-285.868 L 159.918,-285.837 L 159.692,-285.813 L 159.459,-285.796 L 159.219,-285.786 L 158.971,-285.782
 L 157.642,-285.782 L 157.642,-283.666 L 159.025,-283.666 L 159.304,-283.663 L 159.575,-283.653 L 159.837,-283.636
 L 160.091,-283.612 L 160.337,-283.581 L 160.574,-283.543 L 160.803,-283.499 L 161.024,-283.448 L 161.237,-283.39
 L 161.441,-283.325 L 161.636,-283.253 L 161.824,-283.174 L 162.003,-283.089 L 162.174,-282.997 L 162.336,-282.898
 L 162.491,-282.792 L 162.636,-282.68 L 162.772,-282.562 L 162.898,-282.439 L 163.016,-282.311 L 163.124,-282.178
 L 163.222,-282.039 L 163.311,-281.895 L 163.391,-281.746 L 163.461,-281.591 L 163.522,-281.431 L 163.574,-281.265
 L 163.616,-281.094 L 163.649,-280.918 L 163.672,-280.736 L 163.686,-280.549 L 163.691,-280.357 L 163.687,-280.137
 L 163.674,-279.923 L 163.654,-279.717 L 163.625,-279.517 L 163.588,-279.324 L 163.543,-279.138 L 163.49,-278.959
 L 163.428,-278.787 L 163.358,-278.622 L 163.28,-278.464 L 163.194,-278.312 L 163.099,-278.168 L 162.997,-278.03
 L 162.886,-277.899 L 162.767,-277.775 L 162.64,-277.658 L 162.505,-277.548 L 162.364,-277.445 L 162.218,-277.349
 L 162.064,-277.261 L 161.905,-277.179 L 161.74,-277.105 L 161.568,-277.037 L 161.39,-276.977 L 161.206,-276.924
 L 161.016,-276.877 L 160.819,-276.838 L 160.617,-276.806 L 160.408,-276.782 L 160.193,-276.764 L 159.972,-276.753
 L 159.744,-276.75 L 159.297,-276.763 L 158.875,-276.803 L 158.478,-276.869 L 158.106,-276.962 L 157.758,-277.081
 L 157.436,-277.226 L 157.138,-277.399 L 156.866,-277.597 L 156.618,-277.822 L 156.395,-278.074 L 156.197,-278.352
 L 156.024,-278.657 L 155.876,-278.988 L 155.752,-279.346 L 155.654,-279.73 L 155.581,-280.14 L 153.058,-279.91
 L 153.104,-279.594 L 153.161,-279.288 L 153.229,-278.992 L 153.308,-278.706 L 153.398,-278.43 L 153.499,-278.164
 L 153.611,-277.907 L 153.734,-277.66 L 153.868,-277.423 L 154.013,-277.196 L 154.169,-276.978 L 154.336,-276.77
 L 154.513,-276.572 L 154.702,-276.384 L 154.902,-276.206 L 155.113,-276.038 L 155.333,-275.879 L 155.563,-275.731
 L 155.802,-275.593 L 156.051,-275.465 L 156.308,-275.347 L 156.574,-275.24 L 156.85,-275.143 L 157.135,-275.056
 L 157.429,-274.979 L 157.732,-274.913 L 158.045,-274.857 L 158.366,-274.811 L 158.697,-274.775 L 159.037,-274.749
 L 159.386,-274.734 L 159.744,-274.729 z
M 175.182,-274.739 L 175.575,-274.768 L 175.956,-274.817 L 176.324,-274.886 L 176.679,-274.975 L 177.022,-275.084
 L 177.353,-275.212 L 177.67,-275.359 L 177.976,-275.527 L 178.268,-275.714 L 178.548,-275.921 L 178.816,-276.148
 L 179.071,-276.394 L 179.313,-276.66 L 179.543,-276.946 L 179.761,-277.251 L 179.965,-277.576 L 180.156,-277.917
 L 180.334,-278.277 L 180.499,-278.654 L 180.651,-279.049 L 180.79,-279.462 L 180.915,-279.892 L 181.027,-280.34
 L 181.126,-280.806 L 181.212,-281.289 L 181.284,-281.791 L 181.344,-282.309 L 181.39,-282.846 L 181.423,-283.4
 L 181.443,-283.972 L 181.449,-284.562 L 181.443,-285.161 L 181.424,-285.742 L 181.393,-286.304 L 181.349,-286.847
 L 181.292,-287.372 L 181.223,-287.878 L 181.141,-288.365 L 181.047,-288.834 L 180.941,-289.284 L 180.821,-289.715
 L 180.689,-290.128 L 180.545,-290.522 L 180.388,-290.898 L 180.219,-291.255 L 180.037,-291.593 L 179.842,-291.912
 L 179.634,-292.213 L 179.413,-292.494 L 179.177,-292.756 L 178.928,-292.998 L 178.665,-293.221 L 178.388,-293.425
 L 178.097,-293.609 L 177.792,-293.774 L 177.474,-293.919 L 177.142,-294.045 L 176.796,-294.152 L 176.436,-294.239
 L 176.062,-294.307 L 175.675,-294.356 L 175.273,-294.385 L 174.858,-294.394 L 174.431,-294.385 L 174.019,-294.356
 L 173.621,-294.308 L 173.238,-294.241 L 172.87,-294.155 L 172.516,-294.049 L 172.177,-293.925 L 171.852,-293.781
 L 171.542,-293.618 L 171.246,-293.435 L 170.965,-293.234 L 170.699,-293.014 L 170.447,-292.774 L 170.21,-292.515
 L 169.987,-292.237 L 169.779,-291.94 L 169.584,-291.623 L 169.402,-291.287 L 169.233,-290.932 L 169.076,-290.558
 L 168.931,-290.164 L 168.799,-289.751 L 168.68,-289.319 L 168.573,-288.868 L 168.479,-288.397 L 168.398,-287.907
 L 168.328,-287.398 L 168.272,-286.869 L 168.228,-286.321 L 168.197,-285.754 L 168.178,-285.167 L 168.172,-284.562
 L 168.178,-283.969 L 168.197,-283.394 L 168.23,-282.837 L 168.275,-282.298 L 168.333,-281.778 L 168.404,-281.275
 L 168.488,-280.79 L 168.585,-280.323 L 168.695,-279.875 L 168.818,-279.444 L 168.954,-279.031 L 169.102,-278.636
 L 169.264,-278.26 L 169.438,-277.901 L 169.626,-277.56 L 169.826,-277.238 L 170.039,-276.934 L 170.265,-276.65
 L 170.504,-276.385 L 170.756,-276.14 L 171.021,-275.915 L 171.298,-275.709 L 171.588,-275.523 L 171.891,-275.356
 L 172.207,-275.209 L 172.535,-275.082 L 172.877,-274.974 L 173.231,-274.886 L 173.598,-274.817 L 173.978,-274.768
 L 174.371,-274.739 L 174.777,-274.729 z
M 174.537,-276.73 L 174.279,-276.752 L 174.031,-276.789 L 173.792,-276.84 L 173.562,-276.906 L 173.341,-276.988
 L 173.129,-277.083 L 172.927,-277.194 L 172.733,-277.319 L 172.549,-277.459 L 172.374,-277.613 L 172.208,-277.783
 L 172.052,-277.967 L 171.904,-278.166 L 171.766,-278.379 L 171.637,-278.608 L 171.516,-278.852 L 171.403,-279.113
 L 171.298,-279.391 L 171.201,-279.687 L 171.111,-279.999 L 171.029,-280.329 L 170.955,-280.675 L 170.889,-281.039
 L 170.831,-281.419 L 170.78,-281.817 L 170.737,-282.232 L 170.702,-282.664 L 170.675,-283.113 L 170.655,-283.579
 L 170.644,-284.062 L 170.64,-284.562 L 170.644,-285.076 L 170.655,-285.572 L 170.674,-286.05 L 170.701,-286.509
 L 170.736,-286.95 L 170.778,-287.373 L 170.828,-287.777 L 170.886,-288.162 L 170.951,-288.53 L 171.024,-288.878
 L 171.105,-289.208 L 171.193,-289.52 L 171.289,-289.814 L 171.393,-290.089 L 171.504,-290.345 L 171.623,-290.583
 L 171.751,-290.805 L 171.889,-291.012 L 172.036,-291.205 L 172.194,-291.384 L 172.362,-291.549 L 172.539,-291.699
 L 172.726,-291.835 L 172.924,-291.956 L 173.131,-292.064 L 173.348,-292.157 L 173.575,-292.235 L 173.811,-292.3
 L 174.058,-292.35 L 174.315,-292.386 L 174.581,-292.407 L 174.858,-292.414 L 175.128,-292.407 L 175.388,-292.385
 L 175.638,-292.349 L 175.879,-292.298 L 176.11,-292.233 L 176.331,-292.153 L 176.543,-292.059 L 176.745,-291.95
 L 176.937,-291.826 L 177.119,-291.688 L 177.292,-291.536 L 177.455,-291.369 L 177.609,-291.188 L 177.753,-290.992
 L 177.887,-290.781 L 178.011,-290.556 L 178.127,-290.315 L 178.235,-290.056 L 178.336,-289.779 L 178.429,-289.485
 L 178.515,-289.172 L 178.594,-288.842 L 178.665,-288.494 L 178.728,-288.129 L 178.784,-287.745 L 178.833,-287.344
 L 178.874,-286.924 L 178.908,-286.487 L 178.934,-286.033 L 178.952,-285.56 L 178.964,-285.07 L 178.967,-284.562
 L 178.963,-284.071 L 178.952,-283.597 L 178.932,-283.139 L 178.905,-282.697 L 178.869,-282.271 L 178.826,-281.861
 L 178.775,-281.467 L 178.716,-281.09 L 178.65,-280.728 L 178.575,-280.383 L 178.493,-280.053 L 178.403,-279.74
 L 178.305,-279.443 L 178.199,-279.162 L 178.085,-278.897 L 177.964,-278.648 L 177.834,-278.415 L 177.695,-278.197
 L 177.547,-277.994 L 177.39,-277.806 L 177.224,-277.633 L 177.049,-277.475 L 176.865,-277.332 L 176.672,-277.204
 L 176.47,-277.091 L 176.259,-276.993 L 176.039,-276.91 L 175.81,-276.843 L 175.572,-276.79 L 175.325,-276.752
 L 175.069,-276.73 L 174.804,-276.722 z
M 194.122,-279.326 L 196.807,-279.326 L 196.807,-281.252 L 194.122,-281.252 L 194.122,-294.11 L 191.558,-294.11
 L 182.81,-281.225 L 182.81,-279.326 L 191.816,-279.326 L 191.816,-275 L 194.122,-275 z
M 185.062,-281.252 L 185.279,-281.524 L 186.011,-282.527 L 190.907,-289.742 L 190.93,-289.776 L 190.954,-289.813
 L 190.98,-289.852 L 191.006,-289.895 L 191.035,-289.941 L 191.064,-289.989 L 191.095,-290.041 L 191.128,-290.095
 L 191.161,-290.153 L 191.197,-290.213 L 191.233,-290.276 L 191.271,-290.343 L 191.31,-290.412 L 191.351,-290.484
 L 191.393,-290.559 L 191.436,-290.638 L 191.479,-290.715 L 191.519,-290.788 L 191.557,-290.857 L 191.592,-290.922
 L 191.625,-290.982 L 191.655,-291.037 L 191.682,-291.089 L 191.707,-291.136 L 191.73,-291.179 L 191.75,-291.217
 L 191.767,-291.251 L 191.782,-291.281 L 191.794,-291.306 L 191.804,-291.327 L 191.811,-291.344 L 191.816,-291.356
 L 191.816,-281.252 z
M 328,-181 L 328,-260 L 347,-260 L 347,-181 z
M 21,-181 L 21,-260 L 327,-260 L 327,-181 L 259,-181 L 259,-200
 L 258,-200 L 258,-181 L 87,-181 L 87,-200 L 86,-200 L 86,-181
 z
M 196.224,-197.075 L 186.255,-197.075 L 186.308,-197.194 L 186.365,-197.314 L 186.426,-197.434 L 186.491,-197.554
 L 186.56,-197.676 L 186.633,-197.798 L 186.71,-197.92 L 186.791,-198.043 L 186.876,-198.167 L 186.965,-198.291
 L 187.058,-198.416 L 187.156,-198.541 L 187.257,-198.667 L 187.362,-198.794 L 187.471,-198.921 L 187.584,-199.048
 L 187.702,-199.177 L 187.825,-199.308 L 187.953,-199.441 L 188.085,-199.576 L 188.223,-199.713 L 188.366,-199.852
 L 188.513,-199.992 L 188.666,-200.135 L 188.824,-200.28 L 188.986,-200.426 L 189.154,-200.575 L 189.326,-200.725
 L 189.504,-200.878 L 189.686,-201.032 L 189.874,-201.189 L 190.066,-201.347 L 190.414,-201.631 L 190.746,-201.905
 L 191.065,-202.169 L 191.369,-202.425 L 191.659,-202.67 L 191.935,-202.907 L 192.196,-203.134 L 192.443,-203.351
 L 192.676,-203.559 L 192.894,-203.758 L 193.099,-203.947 L 193.288,-204.127 L 193.464,-204.297 L 193.625,-204.458
 L 193.772,-204.609 L 193.905,-204.751 L 194.028,-204.889 L 194.148,-205.026 L 194.264,-205.163 L 194.376,-205.301
 L 194.484,-205.438 L 194.588,-205.575 L 194.688,-205.713 L 194.784,-205.85 L 194.877,-205.987 L 194.966,-206.125
 L 195.051,-206.262 L 195.132,-206.399 L 195.209,-206.537 L 195.282,-206.674 L 195.351,-206.811 L 195.417,-206.949
 L 195.478,-207.086 L 195.536,-207.223 L 195.59,-207.361 L 195.639,-207.499 L 195.685,-207.637 L 195.727,-207.774
 L 195.765,-207.912 L 195.798,-208.051 L 195.828,-208.189 L 195.854,-208.327 L 195.876,-208.465 L 195.894,-208.604
 L 195.908,-208.743 L 195.917,-208.881 L 195.923,-209.02 L 195.925,-209.159 L 195.919,-209.468 L 195.901,-209.769
 L 195.871,-210.06 L 195.828,-210.342 L 195.774,-210.616 L 195.707,-210.88 L 195.628,-211.135 L 195.537,-211.382
 L 195.434,-211.619 L 195.319,-211.848 L 195.191,-212.068 L 195.052,-212.278 L 194.9,-212.48 L 194.736,-212.673
 L 194.561,-212.857 L 194.372,-213.031 L 194.173,-213.196 L 193.963,-213.351 L 193.743,-213.495 L 193.513,-213.628
 L 193.271,-213.75 L 193.02,-213.862 L 192.758,-213.963 L 192.486,-214.054 L 192.203,-214.133 L 191.91,-214.203
 L 191.606,-214.261 L 191.292,-214.309 L 190.967,-214.346 L 190.632,-214.373 L 190.287,-214.389 L 189.931,-214.394
 L 189.606,-214.389 L 189.288,-214.373 L 188.978,-214.347 L 188.675,-214.31 L 188.38,-214.262 L 188.092,-214.204
 L 187.812,-214.135 L 187.539,-214.055 L 187.273,-213.965 L 187.015,-213.865 L 186.765,-213.753 L 186.522,-213.631
 L 186.286,-213.499 L 186.058,-213.356 L 185.838,-213.202 L 185.625,-213.038 L 185.421,-212.865 L 185.228,-212.684
 L 185.046,-212.497 L 184.875,-212.301 L 184.715,-212.099 L 184.566,-211.889 L 184.428,-211.672 L 184.301,-211.448
 L 184.184,-211.216 L 184.079,-210.977 L 183.985,-210.731 L 183.902,-210.477 L 183.829,-210.216 L 183.768,-209.948
 L 183.718,-209.673 L 183.678,-209.39 L 186.174,-209.159 L 186.199,-209.348 L 186.231,-209.532 L 186.269,-209.71
 L 186.314,-209.883 L 186.366,-210.05 L 186.423,-210.212 L 186.488,-210.369 L 186.559,-210.521 L 186.636,-210.667
 L 186.72,-210.807 L 186.811,-210.943 L 186.908,-211.073 L 187.011,-211.197 L 187.121,-211.317 L 187.238,-211.431
 L 187.361,-211.539 L 187.489,-211.642 L 187.622,-211.738 L 187.759,-211.828 L 187.9,-211.91 L 188.046,-211.986
 L 188.196,-212.056 L 188.35,-212.119 L 188.508,-212.175 L 188.671,-212.225 L 188.838,-212.268 L 189.01,-212.304
 L 189.185,-212.334 L 189.365,-212.357 L 189.549,-212.374 L 189.738,-212.384 L 189.931,-212.387 L 190.133,-212.384
 L 190.33,-212.374 L 190.521,-212.357 L 190.706,-212.333 L 190.886,-212.302 L 191.061,-212.265 L 191.229,-212.221
 L 191.392,-212.17 L 191.55,-212.113 L 191.701,-212.048 L 191.847,-211.977 L 191.988,-211.899 L 192.123,-211.814
 L 192.252,-211.723 L 192.376,-211.624 L 192.494,-211.519 L 192.606,-211.408 L 192.71,-211.291 L 192.808,-211.169
 L 192.898,-211.041 L 192.98,-210.908 L 193.056,-210.769 L 193.125,-210.625 L 193.186,-210.475 L 193.24,-210.32
 L 193.287,-210.159 L 193.326,-209.992 L 193.359,-209.82 L 193.384,-209.643 L 193.402,-209.46 L 193.413,-209.272
 L 193.416,-209.078 L 193.414,-208.933 L 193.408,-208.79 L 193.398,-208.649 L 193.383,-208.51 L 193.364,-208.373
 L 193.341,-208.237 L 193.314,-208.104 L 193.282,-207.973 L 193.247,-207.843 L 193.207,-207.715 L 193.163,-207.59
 L 193.115,-207.466 L 193.063,-207.344 L 193.006,-207.224 L 192.946,-207.105 L 192.881,-206.989 L 192.812,-206.874
 L 192.742,-206.76 L 192.668,-206.646 L 192.592,-206.533 L 192.513,-206.421 L 192.432,-206.309 L 192.348,-206.198
 L 192.262,-206.087 L 192.173,-205.977 L 192.081,-205.868 L 191.987,-205.76 L 191.89,-205.652 L 191.791,-205.544
 L 191.689,-205.438 L 191.584,-205.331 L 191.477,-205.226 L 191.368,-205.121 L 191.257,-205.016 L 191.144,-204.911
 L 191.03,-204.806 L 190.914,-204.7 L 190.796,-204.595 L 190.677,-204.49 L 190.556,-204.385 L 190.434,-204.28
 L 190.31,-204.175 L 190.184,-204.07 L 190.057,-203.965 L 189.928,-203.86 L 189.797,-203.755 L 189.665,-203.649
 L 189.531,-203.544 L 189.396,-203.439 L 189.261,-203.332 L 189.126,-203.224 L 188.99,-203.115 L 188.855,-203.005
 L 188.719,-202.894 L 188.583,-202.781 L 188.447,-202.668 L 188.311,-202.553 L 188.175,-202.438 L 188.038,-202.321
 L 187.902,-202.203 L 187.765,-202.084 L 187.628,-201.964 L 187.491,-201.843 L 187.354,-201.72 L 187.217,-201.596
 L 187.081,-201.471 L 186.946,-201.343 L 186.811,-201.214 L 186.677,-201.083 L 186.544,-200.95 L 186.412,-200.816
 L 186.281,-200.679 L 186.15,-200.541 L 186.02,-200.401 L 185.891,-200.259 L 185.763,-200.116 L 185.636,-199.97
 L 185.509,-199.823 L 185.383,-199.674 L 185.258,-199.523 L 185.135,-199.37 L 185.014,-199.214 L 184.895,-199.055
 L 184.779,-198.893 L 184.665,-198.728 L 184.554,-198.56 L 184.445,-198.39 L 184.338,-198.216 L 184.234,-198.039
 L 184.132,-197.86 L 184.032,-197.678 L 183.935,-197.492 L 183.84,-197.304 L 183.748,-197.113 L 183.658,-196.919
 L 183.57,-196.722 L 183.57,-195 L 196.224,-195 z
M 64.4989,-194.736 L 64.8454,-194.756 L 65.1821,-194.79 L 65.5091,-194.838 L 65.8264,-194.9 L 66.1339,-194.975
 L 66.4316,-195.064 L 66.7196,-195.166 L 66.9978,-195.282 L 67.2663,-195.412 L 67.525,-195.556 L 67.774,-195.713
 L 68.0133,-195.884 L 68.2428,-196.068 L 68.4625,-196.266 L 68.6725,-196.478 L 68.8712,-196.702 L 69.0571,-196.936
 L 69.2302,-197.179 L 69.3905,-197.433 L 69.5379,-197.696 L 69.6725,-197.97 L 69.7943,-198.253 L 69.9033,-198.547
 L 69.9994,-198.85 L 70.0827,-199.163 L 70.1533,-199.487 L 70.211,-199.82 L 70.2558,-200.163 L 70.2879,-200.516
 L 70.3071,-200.879 L 70.3135,-201.252 L 70.3074,-201.597 L 70.2892,-201.933 L 70.2589,-202.26 L 70.2164,-202.578
 L 70.1618,-202.887 L 70.0951,-203.188 L 70.0163,-203.479 L 69.9253,-203.761 L 69.8221,-204.035 L 69.7069,-204.3
 L 69.5795,-204.555 L 69.44,-204.802 L 69.2883,-205.04 L 69.1245,-205.269 L 68.9486,-205.49 L 68.7605,-205.701
 L 68.5621,-205.901 L 68.3553,-206.089 L 68.1398,-206.263 L 67.9159,-206.425 L 67.6834,-206.573 L 67.4424,-206.709
 L 67.1928,-206.832 L 66.9348,-206.942 L 66.6682,-207.039 L 66.393,-207.123 L 66.1094,-207.194 L 65.8172,-207.252
 L 65.5165,-207.297 L 65.2072,-207.33 L 64.8894,-207.349 L 64.5631,-207.355 L 64.3695,-207.353 L 64.1787,-207.345
 L 63.9906,-207.333 L 63.8053,-207.315 L 63.6227,-207.292 L 63.4429,-207.265 L 63.2658,-207.232 L 63.0915,-207.194
 L 62.92,-207.152 L 62.7512,-207.104 L 62.5851,-207.051 L 62.4219,-206.993 L 62.2613,-206.93 L 62.1036,-206.862
 L 61.9486,-206.789 L 61.7963,-206.711 L 61.6476,-206.628 L 61.503,-206.541 L 61.3628,-206.449 L 61.2267,-206.352
 L 61.0949,-206.251 L 60.9673,-206.145 L 60.844,-206.035 L 60.7249,-205.919 L 60.6101,-205.8 L 60.4994,-205.675
 L 60.3931,-205.547 L 60.2909,-205.413 L 60.193,-205.275 L 60.0993,-205.132 L 60.0099,-204.985 L 59.9247,-204.833
 L 59.9292,-205.287 L 59.9426,-205.728 L 59.965,-206.155 L 59.9963,-206.568 L 60.0366,-206.968 L 60.0859,-207.354
 L 60.1441,-207.727 L 60.2112,-208.086 L 60.2873,-208.431 L 60.3724,-208.763 L 60.4664,-209.081 L 60.5693,-209.386
 L 60.6813,-209.677 L 60.8021,-209.954 L 60.9319,-210.218 L 61.0707,-210.468 L 61.2177,-210.704 L 61.3719,-210.924
 L 61.5336,-211.129 L 61.7026,-211.319 L 61.879,-211.494 L 62.0628,-211.654 L 62.2539,-211.798 L 62.4524,-211.928
 L 62.6582,-212.042 L 62.8714,-212.141 L 63.092,-212.224 L 63.3199,-212.293 L 63.5552,-212.346 L 63.7979,-212.384
 L 64.0479,-212.407 L 64.3053,-212.414 L 64.6021,-212.405 L 64.8856,-212.378 L 65.1557,-212.332 L 65.4124,-212.268
 L 65.6558,-212.186 L 65.8858,-212.086 L 66.1025,-211.968 L 66.3059,-211.831 L 66.4958,-211.676 L 66.6725,-211.503
 L 66.8358,-211.312 L 66.9857,-211.102 L 67.1223,-210.874 L 67.2455,-210.628 L 67.3554,-210.364 L 67.4519,-210.082
 L 69.7847,-210.502 L 69.6315,-210.973 L 69.4533,-211.414 L 69.25,-211.825 L 69.0218,-212.205 L 68.7685,-212.555
 L 68.4903,-212.874 L 68.187,-213.163 L 67.8588,-213.421 L 67.5055,-213.649 L 67.1272,-213.847 L 66.724,-214.014
 L 66.2957,-214.151 L 65.8424,-214.258 L 65.3641,-214.334 L 64.8608,-214.379 L 64.3325,-214.394 L 63.9281,-214.384
 L 63.5355,-214.353 L 63.1546,-214.301 L 62.7855,-214.228 L 62.4282,-214.135 L 62.0826,-214.021 L 61.7488,-213.886
 L 61.4267,-213.73 L 61.1164,-213.553 L 60.8179,-213.356 L 60.5311,-213.138 L 60.2561,-212.899 L 59.9929,-212.639
 L 59.7414,-212.359 L 59.5017,-212.058 L 59.2737,-211.736 L 59.0586,-211.395 L 58.8573,-211.035 L 58.67,-210.658
 L 58.4965,-210.263 L 58.3368,-209.849 L 58.1911,-209.418 L 58.0592,-208.969 L 57.9413,-208.501 L 57.8372,-208.016
 L 57.7469,-207.513 L 57.6706,-206.991 L 57.6082,-206.452 L 57.5596,-205.894 L 57.5249,-205.319 L 57.5041,-204.725
 L 57.4971,-204.114 L 57.5038,-203.549 L 57.5238,-203.002 L 57.5572,-202.472 L 57.6039,-201.958 L 57.664,-201.462
 L 57.7374,-200.983 L 57.8242,-200.521 L 57.9243,-200.076 L 58.0378,-199.648 L 58.1646,-199.237 L 58.3048,-198.843
 L 58.4583,-198.466 L 58.6252,-198.106 L 58.8054,-197.763 L 58.999,-197.438 L 59.2059,-197.129 L 59.4254,-196.839
 L 59.6569,-196.567 L 59.9001,-196.313 L 60.1553,-196.079 L 60.4223,-195.863 L 60.7012,-195.666 L 60.9919,-195.488
 L 61.2945,-195.329 L 61.609,-195.188 L 61.9353,-195.066 L 62.2736,-194.963 L 62.6237,-194.879 L 62.9856,-194.813
 L 63.3595,-194.766 L 63.7451,-194.738 L 64.1427,-194.729 z
M 63.8501,-196.701 L 63.6437,-196.717 L 63.4421,-196.745 L 63.2454,-196.784 L 63.0535,-196.833 L 62.8664,-196.894
 L 62.6841,-196.965 L 62.5066,-197.048 L 62.334,-197.142 L 62.1662,-197.246 L 62.0032,-197.362 L 61.845,-197.489
 L 61.6916,-197.626 L 61.5431,-197.775 L 61.3994,-197.935 L 61.2605,-198.106 L 61.1283,-198.285 L 61.0047,-198.471
 L 60.8895,-198.663 L 60.7829,-198.861 L 60.6849,-199.066 L 60.5953,-199.276 L 60.5143,-199.493 L 60.4418,-199.716
 L 60.3779,-199.946 L 60.3224,-200.182 L 60.2755,-200.423 L 60.2371,-200.672 L 60.2073,-200.926 L 60.186,-201.187
 L 60.1732,-201.454 L 60.1689,-201.727 L 60.173,-201.943 L 60.1853,-202.153 L 60.2059,-202.357 L 60.2346,-202.555
 L 60.2715,-202.747 L 60.3167,-202.933 L 60.3701,-203.114 L 60.4317,-203.288 L 60.5015,-203.457 L 60.5795,-203.62
 L 60.6657,-203.777 L 60.7601,-203.928 L 60.8627,-204.073 L 60.9736,-204.212 L 61.0927,-204.346 L 61.2199,-204.473
 L 61.3539,-204.594 L 61.493,-204.707 L 61.6372,-204.812 L 61.7866,-204.909 L 61.9411,-204.999 L 62.1008,-205.081
 L 62.2656,-205.155 L 62.4355,-205.221 L 62.6106,-205.279 L 62.7908,-205.33 L 62.9761,-205.373 L 63.1666,-205.408
 L 63.3622,-205.435 L 63.563,-205.455 L 63.7689,-205.466 L 63.9799,-205.47 L 64.204,-205.466 L 64.4218,-205.453
 L 64.6333,-205.431 L 64.8386,-205.4 L 65.0376,-205.36 L 65.2304,-205.312 L 65.417,-205.255 L 65.5973,-205.189
 L 65.7713,-205.114 L 65.9391,-205.03 L 66.1006,-204.938 L 66.2559,-204.837 L 66.4049,-204.727 L 66.5477,-204.608
 L 66.6842,-204.481 L 66.8145,-204.344 L 66.9377,-204.2 L 67.0529,-204.048 L 67.1602,-203.889 L 67.2595,-203.722
 L 67.3509,-203.548 L 67.4344,-203.367 L 67.5099,-203.178 L 67.5774,-202.981 L 67.637,-202.778 L 67.6887,-202.567
 L 67.7324,-202.348 L 67.7681,-202.122 L 67.796,-201.889 L 67.8158,-201.648 L 67.8277,-201.399 L 67.8317,-201.144
 L 67.8278,-200.888 L 67.816,-200.639 L 67.7964,-200.397 L 67.769,-200.162 L 67.7337,-199.934 L 67.6906,-199.712
 L 67.6396,-199.498 L 67.5808,-199.291 L 67.5141,-199.09 L 67.4396,-198.897 L 67.3573,-198.71 L 67.2671,-198.531
 L 67.1691,-198.358 L 67.0632,-198.193 L 66.9495,-198.034 L 66.8279,-197.882 L 66.6995,-197.738 L 66.5652,-197.604
 L 66.4249,-197.479 L 66.2787,-197.363 L 66.1265,-197.256 L 65.9684,-197.159 L 65.8044,-197.071 L 65.6345,-196.992
 L 65.4586,-196.923 L 65.2768,-196.862 L 65.089,-196.811 L 64.8954,-196.77 L 64.6957,-196.737 L 64.4902,-196.714
 L 64.2787,-196.7 L 64.0613,-196.695 z
M 288.412,-194.736 L 288.759,-194.756 L 289.096,-194.79 L 289.423,-194.838 L 289.74,-194.9 L 290.047,-194.975
 L 290.345,-195.064 L 290.633,-195.166 L 290.911,-195.282 L 291.18,-195.412 L 291.439,-195.556 L 291.688,-195.713
 L 291.927,-195.884 L 292.156,-196.068 L 292.376,-196.266 L 292.586,-196.478 L 292.785,-196.702 L 292.971,-196.936
 L 293.144,-197.179 L 293.304,-197.433 L 293.451,-197.696 L 293.586,-197.97 L 293.708,-198.253 L 293.817,-198.547
 L 293.913,-198.85 L 293.996,-199.163 L 294.067,-199.487 L 294.124,-199.82 L 294.169,-200.163 L 294.201,-200.516
 L 294.221,-200.879 L 294.227,-201.252 L 294.221,-201.597 L 294.203,-201.933 L 294.172,-202.26 L 294.13,-202.578
 L 294.075,-202.887 L 294.009,-203.188 L 293.93,-203.479 L 293.839,-203.761 L 293.736,-204.035 L 293.62,-204.3
 L 293.493,-204.555 L 293.353,-204.802 L 293.202,-205.04 L 293.038,-205.269 L 292.862,-205.49 L 292.674,-205.701
 L 292.476,-205.901 L 292.269,-206.089 L 292.053,-206.263 L 291.829,-206.425 L 291.597,-206.573 L 291.356,-206.709
 L 291.106,-206.832 L 290.848,-206.942 L 290.582,-207.039 L 290.307,-207.123 L 290.023,-207.194 L 289.731,-207.252
 L 289.43,-207.297 L 289.121,-207.33 L 288.803,-207.349 L 288.477,-207.355 L 288.283,-207.353 L 288.092,-207.345
 L 287.904,-207.333 L 287.719,-207.315 L 287.536,-207.292 L 287.356,-207.265 L 287.179,-207.232 L 287.005,-207.194
 L 286.833,-207.152 L 286.665,-207.104 L 286.499,-207.051 L 286.335,-206.993 L 286.175,-206.93 L 286.017,-206.862
 L 285.862,-206.789 L 285.71,-206.711 L 285.561,-206.628 L 285.417,-206.541 L 285.276,-206.449 L 285.14,-206.352
 L 285.008,-206.251 L 284.881,-206.145 L 284.757,-206.035 L 284.638,-205.919 L 284.524,-205.8 L 284.413,-205.675
 L 284.307,-205.547 L 284.204,-205.413 L 284.106,-205.275 L 284.013,-205.132 L 283.923,-204.985 L 283.838,-204.833
 L 283.843,-205.287 L 283.856,-205.728 L 283.878,-206.155 L 283.91,-206.568 L 283.95,-206.968 L 283.999,-207.354
 L 284.058,-207.727 L 284.125,-208.086 L 284.201,-208.431 L 284.286,-208.763 L 284.38,-209.081 L 284.483,-209.386
 L 284.595,-209.677 L 284.716,-209.954 L 284.845,-210.218 L 284.984,-210.468 L 285.131,-210.704 L 285.285,-210.924
 L 285.447,-211.129 L 285.616,-211.319 L 285.792,-211.494 L 285.976,-211.654 L 286.167,-211.798 L 286.366,-211.928
 L 286.572,-212.042 L 286.785,-212.141 L 287.005,-212.224 L 287.233,-212.293 L 287.469,-212.346 L 287.711,-212.384
 L 287.961,-212.407 L 288.219,-212.414 L 288.516,-212.405 L 288.799,-212.378 L 289.069,-212.332 L 289.326,-212.268
 L 289.569,-212.186 L 289.799,-212.086 L 290.016,-211.968 L 290.219,-211.831 L 290.409,-211.676 L 290.586,-211.503
 L 290.749,-211.312 L 290.899,-211.102 L 291.036,-210.874 L 291.159,-210.628 L 291.269,-210.364 L 291.365,-210.082
 L 293.698,-210.502 L 293.545,-210.973 L 293.367,-211.414 L 293.163,-211.825 L 292.935,-212.205 L 292.682,-212.555
 L 292.404,-212.874 L 292.101,-213.163 L 291.772,-213.421 L 291.419,-213.649 L 291.041,-213.847 L 290.637,-214.014
 L 290.209,-214.151 L 289.756,-214.258 L 289.278,-214.334 L 288.774,-214.379 L 288.246,-214.394 L 287.842,-214.384
 L 287.449,-214.353 L 287.068,-214.301 L 286.699,-214.228 L 286.342,-214.135 L 285.996,-214.021 L 285.662,-213.886
 L 285.34,-213.73 L 285.03,-213.553 L 284.731,-213.356 L 284.445,-213.138 L 284.17,-212.899 L 283.906,-212.639
 L 283.655,-212.359 L 283.415,-212.058 L 283.187,-211.736 L 282.972,-211.395 L 282.771,-211.035 L 282.583,-210.658
 L 282.41,-210.263 L 282.25,-209.849 L 282.105,-209.418 L 281.973,-208.969 L 281.855,-208.501 L 281.751,-208.016
 L 281.66,-207.513 L 281.584,-206.991 L 281.522,-206.452 L 281.473,-205.894 L 281.438,-205.319 L 281.418,-204.725
 L 281.411,-204.114 L 281.417,-203.549 L 281.437,-203.002 L 281.471,-202.472 L 281.517,-201.958 L 281.577,-201.462
 L 281.651,-200.983 L 281.738,-200.521 L 281.838,-200.076 L 281.951,-199.648 L 282.078,-199.237 L 282.218,-198.843
 L 282.372,-198.466 L 282.539,-198.106 L 282.719,-197.763 L 282.912,-197.438 L 283.119,-197.129 L 283.339,-196.839
 L 283.57,-196.567 L 283.814,-196.313 L 284.069,-196.079 L 284.336,-195.863 L 284.615,-195.666 L 284.905,-195.488
 L 285.208,-195.329 L 285.522,-195.188 L 285.849,-195.066 L 286.187,-194.963 L 286.537,-194.879 L 286.899,-194.813
 L 287.273,-194.766 L 287.659,-194.738 L 288.056,-194.729 z
M 287.764,-196.701 L 287.557,-196.717 L 287.356,-196.745 L 287.159,-196.784 L 286.967,-196.833 L 286.78,-196.894
 L 286.598,-196.965 L 286.42,-197.048 L 286.247,-197.142 L 286.08,-197.246 L 285.917,-197.362 L 285.758,-197.489
 L 285.605,-197.626 L 285.457,-197.775 L 285.313,-197.935 L 285.174,-198.106 L 285.042,-198.285 L 284.918,-198.471
 L 284.803,-198.663 L 284.696,-198.861 L 284.598,-199.066 L 284.509,-199.276 L 284.428,-199.493 L 284.355,-199.716
 L 284.291,-199.946 L 284.236,-200.182 L 284.189,-200.423 L 284.151,-200.672 L 284.121,-200.926 L 284.099,-201.187
 L 284.087,-201.454 L 284.082,-201.727 L 284.087,-201.943 L 284.099,-202.153 L 284.119,-202.357 L 284.148,-202.555
 L 284.185,-202.747 L 284.23,-202.933 L 284.284,-203.114 L 284.345,-203.288 L 284.415,-203.457 L 284.493,-203.62
 L 284.579,-203.777 L 284.674,-203.928 L 284.776,-204.073 L 284.887,-204.212 L 285.006,-204.346 L 285.133,-204.473
 L 285.267,-204.594 L 285.406,-204.707 L 285.551,-204.812 L 285.7,-204.909 L 285.855,-204.999 L 286.014,-205.081
 L 286.179,-205.155 L 286.349,-205.221 L 286.524,-205.279 L 286.704,-205.33 L 286.89,-205.373 L 287.08,-205.408
 L 287.276,-205.435 L 287.476,-205.455 L 287.682,-205.466 L 287.893,-205.47 L 288.117,-205.466 L 288.335,-205.453
 L 288.547,-205.431 L 288.752,-205.4 L 288.951,-205.36 L 289.144,-205.312 L 289.33,-205.255 L 289.511,-205.189
 L 289.685,-205.114 L 289.853,-205.03 L 290.014,-204.938 L 290.169,-204.837 L 290.318,-204.727 L 290.461,-204.608
 L 290.598,-204.481 L 290.728,-204.344 L 290.851,-204.2 L 290.966,-204.048 L 291.074,-203.889 L 291.173,-203.722
 L 291.264,-203.548 L 291.348,-203.367 L 291.423,-203.178 L 291.491,-202.981 L 291.55,-202.778 L 291.602,-202.567
 L 291.646,-202.348 L 291.682,-202.122 L 291.709,-201.889 L 291.729,-201.648 L 291.741,-201.399 L 291.745,-201.144
 L 291.741,-200.888 L 291.73,-200.639 L 291.71,-200.397 L 291.682,-200.162 L 291.647,-199.934 L 291.604,-199.712
 L 291.553,-199.498 L 291.494,-199.291 L 291.428,-199.09 L 291.353,-198.897 L 291.271,-198.71 L 291.181,-198.531
 L 291.083,-198.358 L 290.977,-198.193 L 290.863,-198.034 L 290.741,-197.882 L 290.613,-197.738 L 290.479,-197.604
 L 290.338,-197.479 L 290.192,-197.363 L 290.04,-197.256 L 289.882,-197.159 L 289.718,-197.071 L 289.548,-196.992
 L 289.372,-196.923 L 289.19,-196.862 L 289.003,-196.811 L 288.809,-196.77 L 288.609,-196.737 L 288.404,-196.714
 L 288.192,-196.7 L 287.975,-196.695 z
M 49.4124,-194.736 L 49.7589,-194.756 L 50.0956,-194.79 L 50.4226,-194.838 L 50.7398,-194.9 L 51.0473,-194.975
 L 51.3451,-195.064 L 51.633,-195.166 L 51.9113,-195.282 L 52.1798,-195.412 L 52.4385,-195.556 L 52.6875,-195.713
 L 52.9267,-195.884 L 53.1562,-196.068 L 53.376,-196.266 L 53.586,-196.478 L 53.7847,-196.702 L 53.9706,-196.936
 L 54.1437,-197.179 L 54.3039,-197.433 L 54.4514,-197.696 L 54.586,-197.97 L 54.7078,-198.253 L 54.8167,-198.547
 L 54.9129,-198.85 L 54.9962,-199.163 L 55.0667,-199.487 L 55.1244,-199.82 L 55.1693,-200.163 L 55.2014,-200.516
 L 55.2206,-200.879 L 55.227,-201.252 L 55.2209,-201.597 L 55.2027,-201.933 L 55.1724,-202.26 L 55.1299,-202.578
 L 55.0753,-202.887 L 55.0086,-203.188 L 54.9297,-203.479 L 54.8387,-203.761 L 54.7356,-204.035 L 54.6203,-204.3
 L 54.493,-204.555 L 54.3534,-204.802 L 54.2018,-205.04 L 54.038,-205.269 L 53.862,-205.49 L 53.674,-205.701
 L 53.4756,-205.901 L 53.2687,-206.089 L 53.0533,-206.263 L 52.8294,-206.425 L 52.5969,-206.573 L 52.3559,-206.709
 L 52.1063,-206.832 L 51.8482,-206.942 L 51.5816,-207.039 L 51.3065,-207.123 L 51.0228,-207.194 L 50.7307,-207.252
 L 50.4299,-207.297 L 50.1207,-207.33 L 49.8029,-207.349 L 49.4766,-207.355 L 49.283,-207.353 L 49.0921,-207.345
 L 48.9041,-207.333 L 48.7188,-207.315 L 48.5362,-207.292 L 48.3564,-207.265 L 48.1793,-207.232 L 48.005,-207.194
 L 47.8335,-207.152 L 47.6647,-207.104 L 47.4986,-207.051 L 47.3353,-206.993 L 47.1748,-206.93 L 47.0171,-206.862
 L 46.862,-206.789 L 46.7098,-206.711 L 46.561,-206.628 L 46.4165,-206.541 L 46.2762,-206.449 L 46.1402,-206.352
 L 46.0084,-206.251 L 45.8808,-206.145 L 45.7575,-206.035 L 45.6384,-205.919 L 45.5235,-205.8 L 45.4129,-205.675
 L 45.3065,-205.547 L 45.2044,-205.413 L 45.1065,-205.275 L 45.0128,-205.132 L 44.9234,-204.985 L 44.8382,-204.833
 L 44.8427,-205.287 L 44.8561,-205.728 L 44.8785,-206.155 L 44.9098,-206.568 L 44.9501,-206.968 L 44.9993,-207.354
 L 45.0575,-207.727 L 45.1247,-208.086 L 45.2008,-208.431 L 45.2858,-208.763 L 45.3799,-209.081 L 45.4828,-209.386
 L 45.5947,-209.677 L 45.7156,-209.954 L 45.8454,-210.218 L 45.9842,-210.468 L 46.1311,-210.704 L 46.2854,-210.924
 L 46.4471,-211.129 L 46.6161,-211.319 L 46.7925,-211.494 L 46.9762,-211.654 L 47.1674,-211.798 L 47.3658,-211.928
 L 47.5717,-212.042 L 47.7849,-212.141 L 48.0055,-212.224 L 48.2334,-212.293 L 48.4687,-212.346 L 48.7114,-212.384
 L 48.9614,-212.407 L 49.2188,-212.414 L 49.5156,-212.405 L 49.799,-212.378 L 50.0691,-212.332 L 50.3259,-212.268
 L 50.5693,-212.186 L 50.7993,-212.086 L 51.016,-211.968 L 51.2193,-211.831 L 51.4093,-211.676 L 51.586,-211.503
 L 51.7493,-211.312 L 51.8992,-211.102 L 52.0358,-210.874 L 52.159,-210.628 L 52.2689,-210.364 L 52.3654,-210.082
 L 54.6982,-210.502 L 54.545,-210.973 L 54.3667,-211.414 L 54.1635,-211.825 L 53.9353,-212.205 L 53.682,-212.555
 L 53.4038,-212.874 L 53.1005,-213.163 L 52.7722,-213.421 L 52.419,-213.649 L 52.0407,-213.847 L 51.6374,-214.014
 L 51.2092,-214.151 L 50.7559,-214.258 L 50.2776,-214.334 L 49.7743,-214.379 L 49.246,-214.394 L 48.8416,-214.384
 L 48.449,-214.353 L 48.0681,-214.301 L 47.699,-214.228 L 47.3416,-214.135 L 46.9961,-214.021 L 46.6622,-213.886
 L 46.3402,-213.73 L 46.0299,-213.553 L 45.7314,-213.356 L 45.4446,-213.138 L 45.1696,-212.899 L 44.9063,-212.639
 L 44.6549,-212.359 L 44.4151,-212.058 L 44.1872,-211.736 L 43.9721,-211.395 L 43.7708,-211.035 L 43.5834,-210.658
 L 43.4099,-210.263 L 43.2503,-209.849 L 43.1046,-209.418 L 42.9727,-208.969 L 42.8547,-208.501 L 42.7506,-208.016
 L 42.6604,-207.513 L 42.5841,-206.991 L 42.5216,-206.452 L 42.4731,-205.894 L 42.4384,-205.319 L 42.4175,-204.725
 L 42.4106,-204.114 L 42.4173,-203.549 L 42.4373,-203.002 L 42.4707,-202.472 L 42.5174,-201.958 L 42.5775,-201.462
 L 42.6509,-200.983 L 42.7377,-200.521 L 42.8378,-200.076 L 42.9513,-199.648 L 43.0781,-199.237 L 43.2183,-198.843
 L 43.3718,-198.466 L 43.5387,-198.106 L 43.7189,-197.763 L 43.9125,-197.438 L 44.1194,-197.129 L 44.3389,-196.839
 L 44.5703,-196.567 L 44.8136,-196.313 L 45.0687,-196.079 L 45.3358,-195.863 L 45.6146,-195.666 L 45.9054,-195.488
 L 46.208,-195.329 L 46.5225,-195.188 L 46.8488,-195.066 L 47.1871,-194.963 L 47.5371,-194.879 L 47.8991,-194.813
 L 48.2729,-194.766 L 48.6586,-194.738 L 49.0562,-194.729 z
M 48.7636,-196.701 L 48.5572,-196.717 L 48.3556,-196.745 L 48.1589,-196.784 L 47.9669,-196.833 L 47.7798,-196.894
 L 47.5975,-196.965 L 47.4201,-197.048 L 47.2475,-197.142 L 47.0796,-197.246 L 46.9166,-197.362 L 46.7585,-197.489
 L 46.6051,-197.626 L 46.4566,-197.775 L 46.3129,-197.935 L 46.174,-198.106 L 46.0418,-198.285 L 45.9182,-198.471
 L 45.803,-198.663 L 45.6964,-198.861 L 45.5983,-199.066 L 45.5088,-199.276 L 45.4278,-199.493 L 45.3553,-199.716
 L 45.2913,-199.946 L 45.2359,-200.182 L 45.189,-200.423 L 45.1506,-200.672 L 45.1208,-200.926 L 45.0994,-201.187
 L 45.0867,-201.454 L 45.0824,-201.727 L 45.0865,-201.943 L 45.0988,-202.153 L 45.1193,-202.357 L 45.1481,-202.555
 L 45.185,-202.747 L 45.2302,-202.933 L 45.2836,-203.114 L 45.3451,-203.288 L 45.4149,-203.457 L 45.4929,-203.62
 L 45.5791,-203.777 L 45.6736,-203.928 L 45.7762,-204.073 L 45.8871,-204.212 L 46.0061,-204.346 L 46.1334,-204.473
 L 46.2674,-204.594 L 46.4065,-204.707 L 46.5507,-204.812 L 46.7001,-204.909 L 46.8546,-204.999 L 47.0143,-205.081
 L 47.1791,-205.155 L 47.349,-205.221 L 47.5241,-205.279 L 47.7043,-205.33 L 47.8896,-205.373 L 48.0801,-205.408
 L 48.2757,-205.435 L 48.4765,-205.455 L 48.6824,-205.466 L 48.8934,-205.47 L 49.1174,-205.466 L 49.3352,-205.453
 L 49.5468,-205.431 L 49.7521,-205.4 L 49.9511,-205.36 L 50.1439,-205.312 L 50.3305,-205.255 L 50.5107,-205.189
 L 50.6848,-205.114 L 50.8526,-205.03 L 51.0141,-204.938 L 51.1694,-204.837 L 51.3184,-204.727 L 51.4612,-204.608
 L 51.5977,-204.481 L 51.728,-204.344 L 51.8512,-204.2 L 51.9664,-204.048 L 52.0737,-203.889 L 52.173,-203.722
 L 52.2644,-203.548 L 52.3479,-203.367 L 52.4233,-203.178 L 52.4909,-202.981 L 52.5505,-202.778 L 52.6021,-202.567
 L 52.6459,-202.348 L 52.6816,-202.122 L 52.7094,-201.889 L 52.7293,-201.648 L 52.7412,-201.399 L 52.7452,-201.144
 L 52.7413,-200.888 L 52.7295,-200.639 L 52.7099,-200.397 L 52.6824,-200.162 L 52.6472,-199.934 L 52.604,-199.712
 L 52.5531,-199.498 L 52.4942,-199.291 L 52.4276,-199.09 L 52.3531,-198.897 L 52.2707,-198.71 L 52.1806,-198.531
 L 52.0825,-198.358 L 51.9767,-198.193 L 51.8629,-198.034 L 51.7414,-197.882 L 51.613,-197.738 L 51.4786,-197.604
 L 51.3383,-197.479 L 51.1921,-197.363 L 51.04,-197.256 L 50.8819,-197.159 L 50.7179,-197.071 L 50.5479,-196.992
 L 50.3721,-196.923 L 50.1902,-196.862 L 50.0025,-196.811 L 49.8088,-196.77 L 49.6092,-196.737 L 49.4037,-196.714
 L 49.1922,-196.7 L 48.9748,-196.695 z
M 303.499,-194.736 L 303.845,-194.756 L 304.182,-194.79 L 304.509,-194.838 L 304.826,-194.9 L 305.134,-194.975
 L 305.432,-195.064 L 305.72,-195.166 L 305.998,-195.282 L 306.266,-195.412 L 306.525,-195.556 L 306.774,-195.713
 L 307.013,-195.884 L 307.243,-196.068 L 307.463,-196.266 L 307.673,-196.478 L 307.871,-196.702 L 308.057,-196.936
 L 308.23,-197.179 L 308.39,-197.433 L 308.538,-197.696 L 308.673,-197.97 L 308.794,-198.253 L 308.903,-198.547
 L 308.999,-198.85 L 309.083,-199.163 L 309.153,-199.487 L 309.211,-199.82 L 309.256,-200.163 L 309.288,-200.516
 L 309.307,-200.879 L 309.314,-201.252 L 309.307,-201.597 L 309.289,-201.933 L 309.259,-202.26 L 309.216,-202.578
 L 309.162,-202.887 L 309.095,-203.188 L 309.016,-203.479 L 308.925,-203.761 L 308.822,-204.035 L 308.707,-204.3
 L 308.579,-204.555 L 308.44,-204.802 L 308.288,-205.04 L 308.124,-205.269 L 307.949,-205.49 L 307.761,-205.701
 L 307.562,-205.901 L 307.355,-206.089 L 307.14,-206.263 L 306.916,-206.425 L 306.683,-206.573 L 306.442,-206.709
 L 306.193,-206.832 L 305.935,-206.942 L 305.668,-207.039 L 305.393,-207.123 L 305.109,-207.194 L 304.817,-207.252
 L 304.516,-207.297 L 304.207,-207.33 L 303.889,-207.349 L 303.563,-207.355 L 303.37,-207.353 L 303.179,-207.345
 L 302.991,-207.333 L 302.805,-207.315 L 302.623,-207.292 L 302.443,-207.265 L 302.266,-207.232 L 302.092,-207.194
 L 301.92,-207.152 L 301.751,-207.104 L 301.585,-207.051 L 301.422,-206.993 L 301.261,-206.93 L 301.104,-206.862
 L 300.949,-206.789 L 300.796,-206.711 L 300.648,-206.628 L 300.503,-206.541 L 300.363,-206.449 L 300.227,-206.352
 L 300.095,-206.251 L 299.967,-206.145 L 299.844,-206.035 L 299.725,-205.919 L 299.61,-205.8 L 299.499,-205.675
 L 299.393,-205.547 L 299.291,-205.413 L 299.193,-205.275 L 299.099,-205.132 L 299.01,-204.985 L 298.925,-204.833
 L 298.929,-205.287 L 298.943,-205.728 L 298.965,-206.155 L 298.996,-206.568 L 299.037,-206.968 L 299.086,-207.354
 L 299.144,-207.727 L 299.211,-208.086 L 299.287,-208.431 L 299.372,-208.763 L 299.466,-209.081 L 299.569,-209.386
 L 299.681,-209.677 L 299.802,-209.954 L 299.932,-210.218 L 300.071,-210.468 L 300.218,-210.704 L 300.372,-210.924
 L 300.534,-211.129 L 300.703,-211.319 L 300.879,-211.494 L 301.063,-211.654 L 301.254,-211.798 L 301.452,-211.928
 L 301.658,-212.042 L 301.871,-212.141 L 302.092,-212.224 L 302.32,-212.293 L 302.555,-212.346 L 302.798,-212.384
 L 303.048,-212.407 L 303.305,-212.414 L 303.602,-212.405 L 303.886,-212.378 L 304.156,-212.332 L 304.412,-212.268
 L 304.656,-212.186 L 304.886,-212.086 L 305.103,-211.968 L 305.306,-211.831 L 305.496,-211.676 L 305.672,-211.503
 L 305.836,-211.312 L 305.986,-211.102 L 306.122,-210.874 L 306.246,-210.628 L 306.355,-210.364 L 306.452,-210.082
 L 308.785,-210.502 L 308.631,-210.973 L 308.453,-211.414 L 308.25,-211.825 L 308.022,-212.205 L 307.769,-212.555
 L 307.49,-212.874 L 307.187,-213.163 L 306.859,-213.421 L 306.506,-213.649 L 306.127,-213.847 L 305.724,-214.014
 L 305.296,-214.151 L 304.842,-214.258 L 304.364,-214.334 L 303.861,-214.379 L 303.333,-214.394 L 302.928,-214.384
 L 302.535,-214.353 L 302.155,-214.301 L 301.786,-214.228 L 301.428,-214.135 L 301.083,-214.021 L 300.749,-213.886
 L 300.427,-213.73 L 300.116,-213.553 L 299.818,-213.356 L 299.531,-213.138 L 299.256,-212.899 L 298.993,-212.639
 L 298.741,-212.359 L 298.502,-212.058 L 298.274,-211.736 L 298.059,-211.395 L 297.857,-211.035 L 297.67,-210.658
 L 297.496,-210.263 L 297.337,-209.849 L 297.191,-209.418 L 297.059,-208.969 L 296.941,-208.501 L 296.837,-208.016
 L 296.747,-207.513 L 296.671,-206.991 L 296.608,-206.452 L 296.56,-205.894 L 296.525,-205.319 L 296.504,-204.725
 L 296.497,-204.114 L 296.504,-203.549 L 296.524,-203.002 L 296.557,-202.472 L 296.604,-201.958 L 296.664,-201.462
 L 296.737,-200.983 L 296.824,-200.521 L 296.924,-200.076 L 297.038,-199.648 L 297.165,-199.237 L 297.305,-198.843
 L 297.458,-198.466 L 297.625,-198.106 L 297.805,-197.763 L 297.999,-197.438 L 298.206,-197.129 L 298.425,-196.839
 L 298.657,-196.567 L 298.9,-196.313 L 299.155,-196.079 L 299.422,-195.863 L 299.701,-195.666 L 299.992,-195.488
 L 300.295,-195.329 L 300.609,-195.188 L 300.935,-195.066 L 301.274,-194.963 L 301.624,-194.879 L 301.986,-194.813
 L 302.359,-194.766 L 302.745,-194.738 L 303.143,-194.729 z
M 302.85,-196.701 L 302.644,-196.717 L 302.442,-196.745 L 302.245,-196.784 L 302.053,-196.833 L 301.866,-196.894
 L 301.684,-196.965 L 301.507,-197.048 L 301.334,-197.142 L 301.166,-197.246 L 301.003,-197.362 L 300.845,-197.489
 L 300.692,-197.626 L 300.543,-197.775 L 300.399,-197.935 L 300.261,-198.106 L 300.128,-198.285 L 300.005,-198.471
 L 299.89,-198.663 L 299.783,-198.861 L 299.685,-199.066 L 299.595,-199.276 L 299.514,-199.493 L 299.442,-199.716
 L 299.378,-199.946 L 299.322,-200.182 L 299.276,-200.423 L 299.237,-200.672 L 299.207,-200.926 L 299.186,-201.187
 L 299.173,-201.454 L 299.169,-201.727 L 299.173,-201.943 L 299.185,-202.153 L 299.206,-202.357 L 299.235,-202.555
 L 299.272,-202.747 L 299.317,-202.933 L 299.37,-203.114 L 299.432,-203.288 L 299.501,-203.457 L 299.579,-203.62
 L 299.666,-203.777 L 299.76,-203.928 L 299.863,-204.073 L 299.974,-204.212 L 300.093,-204.346 L 300.22,-204.473
 L 300.354,-204.594 L 300.493,-204.707 L 300.637,-204.812 L 300.787,-204.909 L 300.941,-204.999 L 301.101,-205.081
 L 301.266,-205.155 L 301.436,-205.221 L 301.611,-205.279 L 301.791,-205.33 L 301.976,-205.373 L 302.167,-205.408
 L 302.362,-205.435 L 302.563,-205.455 L 302.769,-205.466 L 302.98,-205.47 L 303.204,-205.466 L 303.422,-205.453
 L 303.633,-205.431 L 303.839,-205.4 L 304.038,-205.36 L 304.23,-205.312 L 304.417,-205.255 L 304.597,-205.189
 L 304.771,-205.114 L 304.939,-205.03 L 305.101,-204.938 L 305.256,-204.837 L 305.405,-204.727 L 305.548,-204.608
 L 305.684,-204.481 L 305.815,-204.344 L 305.938,-204.2 L 306.053,-204.048 L 306.16,-203.889 L 306.26,-203.722
 L 306.351,-203.548 L 306.434,-203.367 L 306.51,-203.178 L 306.577,-202.981 L 306.637,-202.778 L 306.689,-202.567
 L 306.732,-202.348 L 306.768,-202.122 L 306.796,-201.889 L 306.816,-201.648 L 306.828,-201.399 L 306.832,-201.144
 L 306.828,-200.888 L 306.816,-200.639 L 306.796,-200.397 L 306.769,-200.162 L 306.734,-199.934 L 306.691,-199.712
 L 306.64,-199.498 L 306.581,-199.291 L 306.514,-199.09 L 306.44,-198.897 L 306.357,-198.71 L 306.267,-198.531
 L 306.169,-198.358 L 306.063,-198.193 L 305.949,-198.034 L 305.828,-197.882 L 305.699,-197.738 L 305.565,-197.604
 L 305.425,-197.479 L 305.279,-197.363 L 305.127,-197.256 L 304.968,-197.159 L 304.804,-197.071 L 304.634,-196.992
 L 304.459,-196.923 L 304.277,-196.862 L 304.089,-196.811 L 303.895,-196.77 L 303.696,-196.737 L 303.49,-196.714
 L 303.279,-196.7 L 303.061,-196.695 z
M 166.091,-197.075 L 161.44,-197.075 L 161.44,-214.11 L 159.188,-214.11 L 154.672,-211.004 L 154.672,-208.698
 L 158.985,-211.777 L 158.985,-197.075 L 154.116,-197.075 L 154.116,-195 L 166.091,-195 z
M 174.589,-195.33 L 174.596,-195.658 L 174.608,-195.986 L 174.624,-196.311 L 174.645,-196.636 L 174.671,-196.959
 L 174.702,-197.28 L 174.737,-197.601 L 174.777,-197.919 L 174.822,-198.237 L 174.872,-198.553 L 174.926,-198.868
 L 174.985,-199.181 L 175.049,-199.493 L 175.117,-199.804 L 175.19,-200.113 L 175.268,-200.422 L 175.35,-200.731
 L 175.438,-201.041 L 175.53,-201.351 L 175.626,-201.662 L 175.728,-201.974 L 175.834,-202.286 L 175.945,-202.598
 L 176.06,-202.911 L 176.18,-203.225 L 176.305,-203.539 L 176.435,-203.854 L 176.569,-204.169 L 176.708,-204.485
 L 176.852,-204.801 L 177.001,-205.118 L 177.158,-205.442 L 177.329,-205.782 L 177.514,-206.137 L 177.712,-206.507
 L 177.923,-206.892 L 178.148,-207.292 L 178.387,-207.708 L 178.638,-208.139 L 178.904,-208.584 L 179.182,-209.045
 L 179.475,-209.522 L 179.78,-210.013 L 180.099,-210.519 L 180.432,-211.041 L 180.778,-211.578 L 181.137,-212.129
 L 181.137,-214.11 L 168.511,-214.11 L 168.511,-212.035 L 178.777,-212.035 L 178.331,-211.38 L 177.901,-210.735
 L 177.488,-210.099 L 177.09,-209.473 L 176.709,-208.857 L 176.344,-208.25 L 175.995,-207.653 L 175.663,-207.065
 L 175.347,-206.488 L 175.047,-205.919 L 174.764,-205.36 L 174.496,-204.811 L 174.245,-204.271 L 174.01,-203.741
 L 173.792,-203.221 L 173.59,-202.71 L 173.402,-202.206 L 173.226,-201.704 L 173.062,-201.206 L 172.91,-200.71
 L 172.771,-200.218 L 172.643,-199.728 L 172.528,-199.242 L 172.425,-198.758 L 172.334,-198.278 L 172.255,-197.801
 L 172.189,-197.326 L 172.134,-196.855 L 172.092,-196.387 L 172.061,-195.921 L 172.043,-195.459 L 172.037,-195
 L 174.587,-195 z
M 4,-181 L 4,-260 L 20,-260 L 20,-181 z
M -11.8715,-194.734 L -11.4984,-194.751 L -11.1366,-194.78 L -10.786,-194.82 L -10.4466,-194.871 L -10.1185,-194.933
 L -9.80153,-195.007 L -9.49586,-195.092 L -9.20142,-195.188 L -8.9182,-195.296 L -8.64622,-195.415 L -8.38547,-195.545
 L -8.13596,-195.687 L -7.89767,-195.84 L -7.67062,-196.004 L -7.4548,-196.18 L -7.25116,-196.366 L -7.06064,-196.561
 L -6.88326,-196.766 L -6.71902,-196.98 L -6.56792,-197.204 L -6.42996,-197.436 L -6.30515,-197.678 L -6.19345,-197.93
 L -6.09491,-198.19 L -6.00951,-198.46 L -5.93724,-198.739 L -5.87811,-199.028 L -5.83214,-199.326 L -5.79929,-199.633
 L -5.77957,-199.95 L -5.77301,-200.276 L -5.77766,-200.502 L -5.79166,-200.724 L -5.81497,-200.94 L -5.84761,-201.152
 L -5.88957,-201.359 L -5.94086,-201.561 L -6.00146,-201.758 L -6.07141,-201.951 L -6.15067,-202.138 L -6.23926,-202.321
 L -6.33717,-202.498 L -6.44441,-202.671 L -6.56097,-202.839 L -6.68686,-203.002 L -6.82207,-203.16 L -6.96661,-203.314
 L -7.11949,-203.461 L -7.27979,-203.6 L -7.44751,-203.732 L -7.62265,-203.856 L -7.80519,-203.973 L -7.99516,-204.082
 L -8.19255,-204.183 L -8.39735,-204.277 L -8.60957,-204.363 L -8.82922,-204.441 L -9.05627,-204.512 L -9.29074,-204.575
 L -9.53264,-204.631 L -9.78194,-204.678 L -10.0387,-204.719 L -10.3028,-204.751 L -10.3028,-204.806 L -10.0623,-204.859
 L -9.82907,-204.919 L -9.60309,-204.984 L -9.38437,-205.055 L -9.17291,-205.132 L -8.9687,-205.215 L -8.77174,-205.303
 L -8.58206,-205.397 L -8.39963,-205.497 L -8.22444,-205.603 L -8.05653,-205.715 L -7.89587,-205.832 L -7.74246,-205.955
 L -7.59633,-206.084 L -7.45744,-206.218 L -7.32581,-206.359 L -7.20181,-206.505 L -7.0858,-206.656 L -6.97781,-206.812
 L -6.87781,-206.974 L -6.78581,-207.142 L -6.70181,-207.314 L -6.62581,-207.492 L -6.5578,-207.676 L -6.4978,-207.865
 L -6.4458,-208.059 L -6.40181,-208.258 L -6.36581,-208.463 L -6.33781,-208.673 L -6.31781,-208.889 L -6.3058,-209.109
 L -6.3018,-209.336 L -6.30803,-209.63 L -6.32671,-209.916 L -6.35783,-210.194 L -6.40141,-210.463 L -6.45743,-210.725
 L -6.52591,-210.978 L -6.60683,-211.223 L -6.70021,-211.46 L -6.80603,-211.688 L -6.9243,-211.909 L -7.05504,-212.121
 L -7.19821,-212.325 L -7.35384,-212.521 L -7.52191,-212.708 L -7.70244,-212.887 L -7.8954,-213.058 L -8.09961,-213.22
 L -8.31384,-213.372 L -8.53807,-213.512 L -8.77232,-213.643 L -9.01659,-213.763 L -9.27086,-213.873 L -9.53516,-213.972
 L -9.80946,-214.06 L -10.0938,-214.139 L -10.3881,-214.207 L -10.6925,-214.264 L -11.0068,-214.311 L -11.3312,-214.347
 L -11.6656,-214.374 L -12.01,-214.389 L -12.3644,-214.394 L -12.6895,-214.389 L -13.0072,-214.374 L -13.3174,-214.348
 L -13.6202,-214.312 L -13.9154,-214.266 L -14.2032,-214.209 L -14.4836,-214.143 L -14.7564,-214.065 L -15.0218,-213.978
 L -15.2797,-213.88 L -15.5302,-213.773 L -15.7732,-213.654 L -16.0087,-213.526 L -16.2367,-213.387 L -16.4573,-213.238
 L -16.6704,-213.079 L -16.8743,-212.91 L -17.0672,-212.734 L -17.2492,-212.549 L -17.4202,-212.357 L -17.5802,-212.156
 L -17.7292,-211.947 L -17.8673,-211.73 L -17.9945,-211.506 L -18.1106,-211.273 L -18.2158,-211.032 L -18.31,-210.783
 L -18.3933,-210.526 L -18.4656,-210.261 L -18.5269,-209.987 L -18.5772,-209.706 L -18.6166,-209.417 L -16.1618,-209.227
 L -16.1382,-209.413 L -16.1081,-209.593 L -16.0714,-209.768 L -16.0283,-209.937 L -15.9786,-210.102 L -15.9224,-210.261
 L -15.8597,-210.415 L -15.7905,-210.563 L -15.7148,-210.706 L -15.6325,-210.844 L -15.5438,-210.977 L -15.4485,-211.104
 L -15.3467,-211.226 L -15.2384,-211.342 L -15.1236,-211.454 L -15.0022,-211.56 L -14.8752,-211.66 L -14.7434,-211.754
 L -14.6067,-211.841 L -14.4652,-211.922 L -14.3189,-211.996 L -14.1678,-212.064 L -14.0119,-212.125 L -13.8511,-212.18
 L -13.6855,-212.229 L -13.5151,-212.271 L -13.3399,-212.306 L -13.1598,-212.335 L -12.975,-212.358 L -12.7853,-212.374
 L -12.5907,-212.384 L -12.3914,-212.387 L -12.1727,-212.384 L -11.9609,-212.373 L -11.7559,-212.356 L -11.5578,-212.332
 L -11.3665,-212.3 L -11.182,-212.262 L -11.0043,-212.217 L -10.8335,-212.165 L -10.6695,-212.106 L -10.5124,-212.04
 L -10.3621,-211.967 L -10.2186,-211.887 L -10.0819,-211.801 L -9.95213,-211.707 L -9.82915,-211.606 L -9.71301,-211.499
 L -9.60378,-211.385 L -9.5016,-211.267 L -9.40646,-211.143 L -9.31839,-211.014 L -9.23735,-210.881 L -9.16335,-210.742
 L -9.09641,-210.598 L -9.03651,-210.449 L -8.98366,-210.296 L -8.93785,-210.137 L -8.89909,-209.973 L -8.86739,-209.804
 L -8.84271,-209.63 L -8.8251,-209.451 L -8.81453,-209.267 L -8.811,-209.078 L -8.81532,-208.887 L -8.82828,-208.702
 L -8.84987,-208.522 L -8.8801,-208.347 L -8.91896,-208.177 L -8.96646,-208.013 L -9.02258,-207.854 L -9.08736,-207.7
 L -9.16077,-207.551 L -9.2428,-207.407 L -9.33348,-207.269 L -9.4328,-207.136 L -9.54074,-207.009 L -9.65733,-206.886
 L -9.78255,-206.769 L -9.91641,-206.657 L -10.0581,-206.551 L -10.2068,-206.452 L -10.3626,-206.36 L -10.5254,-206.274
 L -10.6952,-206.196 L -10.8721,-206.124 L -11.0561,-206.059 L -11.2471,-206.001 L -11.4452,-205.95 L -11.6503,-205.905
 L -11.8624,-205.868 L -12.0816,-205.837 L -12.3078,-205.813 L -12.5411,-205.796 L -12.7814,-205.786 L -13.0288,-205.782
 L -14.358,-205.782 L -14.358,-203.666 L -12.9746,-203.666 L -12.6956,-203.663 L -12.425,-203.653 L -12.1627,-203.636
 L -11.9087,-203.612 L -11.663,-203.581 L -11.4256,-203.543 L -11.1965,-203.499 L -10.9758,-203.448 L -10.7634,-203.39
 L -10.5593,-203.325 L -10.3635,-203.253 L -10.1761,-203.174 L -9.99692,-203.089 L -9.8261,-202.997 L -9.66359,-202.898
 L -9.50941,-202.792 L -9.36407,-202.68 L -9.2281,-202.562 L -9.10153,-202.439 L -8.98431,-202.311 L -8.8765,-202.178
 L -8.77803,-202.039 L -8.68896,-201.895 L -8.60925,-201.746 L -8.53894,-201.591 L -8.47798,-201.431 L -8.42642,-201.265
 L -8.38422,-201.094 L -8.35139,-200.918 L -8.32796,-200.736 L -8.31389,-200.549 L -8.3092,-200.357 L -8.31331,-200.137
 L -8.32564,-199.923 L -8.34616,-199.717 L -8.37491,-199.517 L -8.41187,-199.324 L -8.45703,-199.138 L -8.51041,-198.959
 L -8.57201,-198.787 L -8.64182,-198.622 L -8.71983,-198.464 L -8.80606,-198.312 L -8.90051,-198.168 L -9.00316,-198.03
 L -9.11403,-197.899 L -9.23311,-197.775 L -9.36041,-197.658 L -9.49489,-197.548 L -9.63556,-197.445 L -9.78242,-197.349
 L -9.9355,-197.261 L -10.0948,-197.179 L -10.2602,-197.105 L -10.4319,-197.037 L -10.6098,-196.977 L -10.7938,-196.924
 L -10.9841,-196.877 L -11.1805,-196.838 L -11.3832,-196.806 L -11.5921,-196.782 L -11.8071,-196.764 L -12.0284,-196.753
 L -12.2558,-196.75 L -12.7028,-196.763 L -13.1249,-196.803 L -13.522,-196.869 L -13.8943,-196.962 L -14.2417,-197.081
 L -14.5642,-197.226 L -14.8617,-197.399 L -15.1344,-197.597 L -15.3822,-197.822 L -15.6051,-198.074 L -15.803,-198.352
 L -15.9761,-198.657 L -16.1243,-198.988 L -16.2476,-199.346 L -16.3459,-199.73 L -16.4194,-200.14 L -18.9422,-199.91
 L -18.896,-199.594 L -18.8389,-199.288 L -18.7708,-198.992 L -18.6917,-198.706 L -18.6016,-198.43 L -18.5006,-198.164
 L -18.3887,-197.907 L -18.2657,-197.66 L -18.1318,-197.423 L -17.9869,-197.196 L -17.8311,-196.978 L -17.6643,-196.77
 L -17.4865,-196.572 L -17.2978,-196.384 L -17.0981,-196.206 L -16.8874,-196.038 L -16.6667,-195.879 L -16.4368,-195.731
 L -16.1977,-195.593 L -15.9495,-195.465 L -15.6921,-195.347 L -15.4255,-195.24 L -15.1498,-195.143 L -14.8649,-195.056
 L -14.5708,-194.979 L -14.2676,-194.913 L -13.9552,-194.857 L -13.6337,-194.811 L -13.303,-194.775 L -12.9631,-194.749
 L -12.614,-194.734 L -12.2558,-194.729 z
M 362.128,-194.734 L 362.502,-194.751 L 362.863,-194.78 L 363.214,-194.82 L 363.553,-194.871 L 363.882,-194.933
 L 364.198,-195.007 L 364.504,-195.092 L 364.799,-195.188 L 365.082,-195.296 L 365.354,-195.415 L 365.615,-195.545
 L 365.864,-195.687 L 366.102,-195.84 L 366.329,-196.004 L 366.545,-196.18 L 366.749,-196.366 L 366.939,-196.561
 L 367.117,-196.766 L 367.281,-196.98 L 367.432,-197.204 L 367.57,-197.436 L 367.695,-197.678 L 367.807,-197.93
 L 367.905,-198.19 L 367.99,-198.46 L 368.063,-198.739 L 368.122,-199.028 L 368.168,-199.326 L 368.201,-199.633
 L 368.22,-199.95 L 368.227,-200.276 L 368.222,-200.502 L 368.208,-200.724 L 368.185,-200.94 L 368.152,-201.152
 L 368.11,-201.359 L 368.059,-201.561 L 367.999,-201.758 L 367.929,-201.951 L 367.849,-202.138 L 367.761,-202.321
 L 367.663,-202.498 L 367.556,-202.671 L 367.439,-202.839 L 367.313,-203.002 L 367.178,-203.16 L 367.033,-203.314
 L 366.881,-203.461 L 366.72,-203.6 L 366.552,-203.732 L 366.377,-203.856 L 366.195,-203.973 L 366.005,-204.082
 L 365.807,-204.183 L 365.603,-204.277 L 365.39,-204.363 L 365.171,-204.441 L 364.944,-204.512 L 364.709,-204.575
 L 364.467,-204.631 L 364.218,-204.678 L 363.961,-204.719 L 363.697,-204.751 L 363.697,-204.806 L 363.938,-204.859
 L 364.171,-204.919 L 364.397,-204.984 L 364.616,-205.055 L 364.827,-205.132 L 365.031,-205.215 L 365.228,-205.303
 L 365.418,-205.397 L 365.6,-205.497 L 365.776,-205.603 L 365.943,-205.715 L 366.104,-205.832 L 366.258,-205.955
 L 366.404,-206.084 L 366.543,-206.218 L 366.674,-206.359 L 366.798,-206.505 L 366.914,-206.656 L 367.022,-206.812
 L 367.122,-206.974 L 367.214,-207.142 L 367.298,-207.314 L 367.374,-207.492 L 367.442,-207.676 L 367.502,-207.865
 L 367.554,-208.059 L 367.598,-208.258 L 367.634,-208.463 L 367.662,-208.673 L 367.682,-208.889 L 367.694,-209.109
 L 367.698,-209.336 L 367.692,-209.63 L 367.673,-209.916 L 367.642,-210.194 L 367.599,-210.463 L 367.543,-210.725
 L 367.474,-210.978 L 367.393,-211.223 L 367.3,-211.46 L 367.194,-211.688 L 367.076,-211.909 L 366.945,-212.121
 L 366.802,-212.325 L 366.646,-212.521 L 366.478,-212.708 L 366.298,-212.887 L 366.105,-213.058 L 365.9,-213.22
 L 365.686,-213.372 L 365.462,-213.512 L 365.228,-213.643 L 364.983,-213.763 L 364.729,-213.873 L 364.465,-213.972
 L 364.191,-214.06 L 363.906,-214.139 L 363.612,-214.207 L 363.308,-214.264 L 362.993,-214.311 L 362.669,-214.347
 L 362.334,-214.374 L 361.99,-214.389 L 361.636,-214.394 L 361.31,-214.389 L 360.993,-214.374 L 360.683,-214.348
 L 360.38,-214.312 L 360.085,-214.266 L 359.797,-214.209 L 359.516,-214.143 L 359.244,-214.065 L 358.978,-213.978
 L 358.72,-213.88 L 358.47,-213.773 L 358.227,-213.654 L 357.991,-213.526 L 357.763,-213.387 L 357.543,-213.238
 L 357.33,-213.079 L 357.126,-212.91 L 356.933,-212.734 L 356.751,-212.549 L 356.58,-212.357 L 356.42,-212.156
 L 356.271,-211.947 L 356.133,-211.73 L 356.006,-211.506 L 355.889,-211.273 L 355.784,-211.032 L 355.69,-210.783
 L 355.607,-210.526 L 355.534,-210.261 L 355.473,-209.987 L 355.423,-209.706 L 355.383,-209.417 L 357.838,-209.227
 L 357.862,-209.413 L 357.892,-209.593 L 357.929,-209.768 L 357.972,-209.937 L 358.021,-210.102 L 358.078,-210.261
 L 358.14,-210.415 L 358.209,-210.563 L 358.285,-210.706 L 358.367,-210.844 L 358.456,-210.977 L 358.552,-211.104
 L 358.653,-211.226 L 358.762,-211.342 L 358.876,-211.454 L 358.998,-211.56 L 359.125,-211.66 L 359.257,-211.754
 L 359.393,-211.841 L 359.535,-211.922 L 359.681,-211.996 L 359.832,-212.064 L 359.988,-212.125 L 360.149,-212.18
 L 360.314,-212.229 L 360.485,-212.271 L 360.66,-212.306 L 360.84,-212.335 L 361.025,-212.358 L 361.215,-212.374
 L 361.409,-212.384 L 361.609,-212.387 L 361.827,-212.384 L 362.039,-212.373 L 362.244,-212.356 L 362.442,-212.332
 L 362.634,-212.3 L 362.818,-212.262 L 362.996,-212.217 L 363.166,-212.165 L 363.33,-212.106 L 363.488,-212.04
 L 363.638,-211.967 L 363.781,-211.887 L 363.918,-211.801 L 364.048,-211.707 L 364.171,-211.606 L 364.287,-211.499
 L 364.396,-211.385 L 364.498,-211.267 L 364.594,-211.143 L 364.682,-211.014 L 364.763,-210.881 L 364.837,-210.742
 L 364.904,-210.598 L 364.963,-210.449 L 365.016,-210.296 L 365.062,-210.137 L 365.101,-209.973 L 365.133,-209.804
 L 365.157,-209.63 L 365.175,-209.451 L 365.185,-209.267 L 365.189,-209.078 L 365.185,-208.887 L 365.172,-208.702
 L 365.15,-208.522 L 365.12,-208.347 L 365.081,-208.177 L 365.034,-208.013 L 364.977,-207.854 L 364.913,-207.7
 L 364.839,-207.551 L 364.757,-207.407 L 364.667,-207.269 L 364.567,-207.136 L 364.459,-207.009 L 364.343,-206.886
 L 364.217,-206.769 L 364.084,-206.657 L 363.942,-206.551 L 363.793,-206.452 L 363.637,-206.36 L 363.475,-206.274
 L 363.305,-206.196 L 363.128,-206.124 L 362.944,-206.059 L 362.753,-206.001 L 362.555,-205.95 L 362.35,-205.905
 L 362.138,-205.868 L 361.918,-205.837 L 361.692,-205.813 L 361.459,-205.796 L 361.219,-205.786 L 360.971,-205.782
 L 359.642,-205.782 L 359.642,-203.666 L 361.025,-203.666 L 361.304,-203.663 L 361.575,-203.653 L 361.837,-203.636
 L 362.091,-203.612 L 362.337,-203.581 L 362.574,-203.543 L 362.803,-203.499 L 363.024,-203.448 L 363.237,-203.39
 L 363.441,-203.325 L 363.636,-203.253 L 363.824,-203.174 L 364.003,-203.089 L 364.174,-202.997 L 364.336,-202.898
 L 364.491,-202.792 L 364.636,-202.68 L 364.772,-202.562 L 364.898,-202.439 L 365.016,-202.311 L 365.124,-202.178
 L 365.222,-202.039 L 365.311,-201.895 L 365.391,-201.746 L 365.461,-201.591 L 365.522,-201.431 L 365.574,-201.265
 L 365.616,-201.094 L 365.649,-200.918 L 365.672,-200.736 L 365.686,-200.549 L 365.691,-200.357 L 365.687,-200.137
 L 365.674,-199.923 L 365.654,-199.717 L 365.625,-199.517 L 365.588,-199.324 L 365.543,-199.138 L 365.49,-198.959
 L 365.428,-198.787 L 365.358,-198.622 L 365.28,-198.464 L 365.194,-198.312 L 365.099,-198.168 L 364.997,-198.03
 L 364.886,-197.899 L 364.767,-197.775 L 364.64,-197.658 L 364.505,-197.548 L 364.364,-197.445 L 364.218,-197.349
 L 364.064,-197.261 L 363.905,-197.179 L 363.74,-197.105 L 363.568,-197.037 L 363.39,-196.977 L 363.206,-196.924
 L 363.016,-196.877 L 362.819,-196.838 L 362.617,-196.806 L 362.408,-196.782 L 362.193,-196.764 L 361.972,-196.753
 L 361.744,-196.75 L 361.297,-196.763 L 360.875,-196.803 L 360.478,-196.869 L 360.106,-196.962 L 359.758,-197.081
 L 359.436,-197.226 L 359.138,-197.399 L 358.866,-197.597 L 358.618,-197.822 L 358.395,-198.074 L 358.197,-198.352
 L 358.024,-198.657 L 357.876,-198.988 L 357.752,-199.346 L 357.654,-199.73 L 357.581,-200.14 L 355.058,-199.91
 L 355.104,-199.594 L 355.161,-199.288 L 355.229,-198.992 L 355.308,-198.706 L 355.398,-198.43 L 355.499,-198.164
 L 355.611,-197.907 L 355.734,-197.66 L 355.868,-197.423 L 356.013,-197.196 L 356.169,-196.978 L 356.336,-196.77
 L 356.513,-196.572 L 356.702,-196.384 L 356.902,-196.206 L 357.113,-196.038 L 357.333,-195.879 L 357.563,-195.731
 L 357.802,-195.593 L 358.051,-195.465 L 358.308,-195.347 L 358.574,-195.24 L 358.85,-195.143 L 359.135,-195.056
 L 359.429,-194.979 L 359.732,-194.913 L 360.045,-194.857 L 360.366,-194.811 L 360.697,-194.775 L 361.037,-194.749
 L 361.386,-194.734 L 361.744,-194.729 z
M 261,287 L 347,287 L 347,80 L 350,80 L 350,60 L 347,60
 L 347,-0 L 327,-0 L 327,267 L 23,267 L 23,-0 L 3,-0
 L 3,60 L 0,60 L 0,80 L 3,80 L 3,287 L 89,287
 L 89,320 L 261,320 z
M 109,290 L 109,287 L 241,287 L 241,290 z
" stroke="black" fill="lightgray" stroke-width="0.5"/>
</svg>
