<?xml version="1.0" standalone="no"?>
<!DOCTYPE svg PUBLIC "-//W3C//DTD SVG 1.1//EN" "http://www.w3.org/Graphics/SVG/1.1/DTD/svg11.dtd">
<svg width="345mm" height="281mm" viewBox="-130 -195 345 281" xmlns="http://www.w3.org/2000/svg" version="1.1">
<title>OpenSCAD Model</title>
<path d="
M 42.9795,-174.736 L 43.3616,-174.756 L 43.7328,-174.79 L 44.0932,-174.837 L 44.4427,-174.898 L 44.7814,-174.973
 L 45.1092,-175.061 L 45.4262,-175.163 L 45.7323,-175.278 L 46.0275,-175.407 L 46.3118,-175.549 L 46.5853,-175.705
 L 46.848,-175.875 L 47.0997,-176.058 L 47.3407,-176.255 L 47.5707,-176.465 L 47.7883,-176.687 L 47.9919,-176.919
 L 48.1815,-177.161 L 48.357,-177.413 L 48.5185,-177.676 L 48.6659,-177.948 L 48.7993,-178.23 L 48.9186,-178.523
 L 49.0239,-178.825 L 49.1152,-179.138 L 49.1924,-179.461 L 49.2556,-179.794 L 49.3047,-180.136 L 49.3398,-180.489
 L 49.3609,-180.852 L 49.3679,-181.225 L 49.3614,-181.554 L 49.3418,-181.874 L 49.309,-182.187 L 49.2632,-182.492
 L 49.2043,-182.789 L 49.1324,-183.078 L 49.0473,-183.359 L 48.9492,-183.632 L 48.8379,-183.898 L 48.7136,-184.156
 L 48.5762,-184.406 L 48.4257,-184.648 L 48.2622,-184.882 L 48.0855,-185.109 L 47.8958,-185.327 L 47.6929,-185.538
 L 47.4791,-185.738 L 47.2563,-185.926 L 47.0245,-186.1 L 46.7838,-186.262 L 46.5341,-186.411 L 46.2755,-186.546
 L 46.0079,-186.669 L 45.7314,-186.779 L 45.4459,-186.876 L 45.1515,-186.96 L 44.8481,-187.031 L 44.5358,-187.089
 L 44.2145,-187.134 L 43.8843,-187.167 L 43.5451,-187.186 L 43.1969,-187.193 L 42.905,-187.188 L 42.619,-187.174
 L 42.3392,-187.15 L 42.0653,-187.116 L 41.7975,-187.073 L 41.5357,-187.021 L 41.28,-186.959 L 41.0303,-186.887
 L 40.7867,-186.806 L 40.549,-186.716 L 40.3175,-186.616 L 40.0919,-186.506 L 39.8724,-186.387 L 39.6589,-186.258
 L 39.4515,-186.12 L 39.2501,-185.972 L 39.6163,-192.035 L 48.2557,-192.035 L 48.2557,-194.11 L 37.3921,-194.11
 L 36.7547,-183.829 L 39.1417,-183.829 L 39.2485,-183.921 L 39.3553,-184.009 L 39.4621,-184.094 L 39.5689,-184.175
 L 39.6757,-184.253 L 39.7825,-184.328 L 39.8893,-184.399 L 39.9961,-184.467 L 40.1029,-184.531 L 40.2097,-184.592
 L 40.3165,-184.65 L 40.4233,-184.704 L 40.5301,-184.755 L 40.6369,-184.802 L 40.7437,-184.846 L 40.8505,-184.887
 L 40.9579,-184.925 L 41.0663,-184.96 L 41.1758,-184.993 L 41.2863,-185.023 L 41.3979,-185.052 L 41.5105,-185.077
 L 41.6242,-185.1 L 41.739,-185.121 L 41.8548,-185.139 L 41.9716,-185.155 L 42.0896,-185.169 L 42.2086,-185.179
 L 42.3286,-185.188 L 42.4497,-185.194 L 42.5719,-185.198 L 42.6951,-185.199 L 42.9294,-185.195 L 43.1576,-185.182
 L 43.3797,-185.16 L 43.5958,-185.129 L 43.8057,-185.09 L 44.0095,-185.043 L 44.2073,-184.986 L 44.3989,-184.921
 L 44.5845,-184.847 L 44.7639,-184.765 L 44.9373,-184.673 L 45.1046,-184.573 L 45.2657,-184.465 L 45.4208,-184.347
 L 45.5698,-184.221 L 45.7127,-184.087 L 45.8482,-183.945 L 45.975,-183.798 L 46.093,-183.645 L 46.2023,-183.488
 L 46.3028,-183.324 L 46.3946,-183.156 L 46.4777,-182.981 L 46.552,-182.802 L 46.6175,-182.617 L 46.6744,-182.427
 L 46.7224,-182.231 L 46.7618,-182.03 L 46.7924,-181.823 L 46.8142,-181.611 L 46.8273,-181.394 L 46.8317,-181.171
 L 46.8274,-180.915 L 46.8143,-180.666 L 46.7926,-180.424 L 46.7622,-180.189 L 46.7231,-179.961 L 46.6753,-179.74
 L 46.6188,-179.525 L 46.5537,-179.318 L 46.4798,-179.117 L 46.3973,-178.924 L 46.306,-178.738 L 46.2061,-178.558
 L 46.0975,-178.385 L 45.9802,-178.22 L 45.8542,-178.061 L 45.7195,-177.909 L 45.5771,-177.765 L 45.4281,-177.631
 L 45.2724,-177.506 L 45.11,-177.39 L 44.941,-177.283 L 44.7652,-177.186 L 44.5828,-177.098 L 44.3938,-177.019
 L 44.198,-176.95 L 43.9956,-176.889 L 43.7865,-176.838 L 43.5707,-176.797 L 43.3483,-176.764 L 43.1192,-176.741
 L 42.8834,-176.727 L 42.6409,-176.722 L 42.2503,-176.733 L 41.8786,-176.767 L 41.526,-176.822 L 41.1923,-176.9
 L 40.8775,-176.999 L 40.5817,-177.121 L 40.3049,-177.265 L 40.0471,-177.431 L 39.8082,-177.619 L 39.5883,-177.83
 L 39.3873,-178.062 L 39.2054,-178.317 L 39.0423,-178.594 L 38.8983,-178.893 L 38.7732,-179.214 L 38.6671,-179.557
 L 36.1987,-179.272 L 36.2577,-179 L 36.3261,-178.736 L 36.4039,-178.48 L 36.4911,-178.232 L 36.5878,-177.993
 L 36.694,-177.761 L 36.8095,-177.538 L 36.9345,-177.323 L 37.0689,-177.116 L 37.2127,-176.917 L 37.366,-176.726
 L 37.5287,-176.544 L 37.7008,-176.369 L 37.8823,-176.203 L 38.0733,-176.045 L 38.2737,-175.895 L 38.4829,-175.754
 L 38.7001,-175.622 L 38.9253,-175.499 L 39.1586,-175.385 L 39.4,-175.28 L 39.6494,-175.184 L 39.9069,-175.098
 L 40.1724,-175.02 L 40.446,-174.952 L 40.7276,-174.893 L 41.0173,-174.843 L 41.315,-174.802 L 41.6208,-174.77
 L 41.9347,-174.747 L 42.2566,-174.733 L 42.5865,-174.729 z
M 27.5023,-175.33 L 27.5094,-175.658 L 27.5212,-175.986 L 27.5377,-176.311 L 27.5589,-176.636 L 27.5849,-176.959
 L 27.6155,-177.28 L 27.6509,-177.601 L 27.691,-177.919 L 27.7358,-178.237 L 27.7853,-178.553 L 27.8395,-178.868
 L 27.8985,-179.181 L 27.9621,-179.493 L 28.0305,-179.804 L 28.1036,-180.113 L 28.1814,-180.422 L 28.2639,-180.731
 L 28.3512,-181.041 L 28.4431,-181.351 L 28.5398,-181.662 L 28.6411,-181.974 L 28.7472,-182.286 L 28.858,-182.598
 L 28.9736,-182.911 L 29.0938,-183.225 L 29.2188,-183.539 L 29.3484,-183.854 L 29.4828,-184.169 L 29.6219,-184.485
 L 29.7657,-184.801 L 29.9142,-185.118 L 30.0718,-185.442 L 30.2429,-185.782 L 30.4274,-186.137 L 30.6254,-186.507
 L 30.8368,-186.892 L 31.0617,-187.292 L 31.3,-187.708 L 31.5518,-188.139 L 31.8171,-188.584 L 32.0958,-189.045
 L 32.388,-189.522 L 32.6936,-190.013 L 33.0128,-190.519 L 33.3453,-191.041 L 33.6913,-191.578 L 34.0508,-192.129
 L 34.0508,-194.11 L 21.424,-194.11 L 21.424,-192.035 L 31.6908,-192.035 L 31.2446,-191.38 L 30.8147,-190.735
 L 30.401,-190.099 L 30.0036,-189.473 L 29.6225,-188.857 L 29.2576,-188.25 L 28.909,-187.653 L 28.5766,-187.065
 L 28.2605,-186.488 L 27.9607,-185.919 L 27.6771,-185.36 L 27.4098,-184.811 L 27.1588,-184.271 L 26.924,-183.741
 L 26.7054,-183.221 L 26.5032,-182.71 L 26.3152,-182.206 L 26.1393,-181.704 L 25.9755,-181.206 L 25.8238,-180.71
 L 25.6843,-180.218 L 25.557,-179.728 L 25.4417,-179.242 L 25.3386,-178.758 L 25.2476,-178.278 L 25.1688,-177.801
 L 25.102,-177.326 L 25.0474,-176.855 L 25.005,-176.387 L 24.9747,-175.921 L 24.9565,-175.459 L 24.9504,-175
 L 27.5,-175 z
M 11,19.9488 L 11.0453,19.9452 L 70.5226,14.9726 L 70.7822,14.9384 L 71.0396,14.8907 L 71.2941,14.8296
 L 71.5451,14.7553 L 71.7918,14.6679 L 72.0337,14.5677 L 72.2699,14.455 L 72.5,14.3301 L 72.7232,14.1933
 L 72.9389,14.0451 L 73.1466,13.8857 L 73.3456,13.7157 L 73.5355,13.5355 L 73.7157,13.3456 L 73.8857,13.1466
 L 74.0451,12.9389 L 74.1933,12.7232 L 74.3301,12.5 L 74.455,12.2699 L 74.5677,12.0337 L 74.6679,11.7918
 L 74.7553,11.5451 L 74.8296,11.2941 L 74.8907,11.0396 L 74.9384,10.7822 L 74.9726,10.5226 L 74.9931,10.2617
 L 75,10 L 74.9931,9.73833 L 74.9726,9.47737 L 74.9384,9.21783 L 74.8907,8.96045 L 74.8296,8.70592
 L 74.7553,8.45493 L 74.6679,8.20816 L 74.5677,7.96632 L 74.455,7.73006 L 74.3301,7.5 L 74.1933,7.27681
 L 74.0451,7.06108 L 73.8857,6.85341 L 73.7157,6.65436 L 73.5355,6.46448 L 73.3456,6.28429 L 73.1466,6.11427
 L 72.9389,5.95493 L 72.7232,5.80666 L 72.5,5.66988 L 72.2699,5.54497 L 72.0337,5.43228 L 71.7918,5.33211
 L 71.5451,5.24472 L 71.2941,5.17038 L 71.0396,5.10927 L 70.7822,5.06157 L 70.5226,5.0274 L 11.0453,0.0547943
 L 11,0.0512238 L 11,-80 L 75,-80 L 75,-0 L 76,-0 L 76,-80
 L 95,-80 L 95,-81 L 76,-81 L 76,-160 L 95,-160 L 95,-161
 L 76,-161 L 76,-180 L 75,-180 L 75,-161 L 1,-161 L 1,-180
 L 0,-180 L 0,-161 L -20,-161 L -20,-160 L 0,-160 L 0,-113.846
 L -0.147888,-113.781 L -0.458054,-113.618 L -0.753647,-113.435 L -1.03467,-113.234 L -1.30113,-113.014 L -1.55302,-112.774
 L -1.79034,-112.515 L -2.01311,-112.237 L -2.22128,-111.94 L -2.41591,-111.623 L -2.59798,-111.287 L -2.76749,-110.932
 L -2.92444,-110.558 L -3.06883,-110.164 L -3.20067,-109.751 L -3.31996,-109.319 L -3.42668,-108.868 L -3.52086,-108.397
 L -3.60248,-107.907 L -3.67152,-107.398 L -3.72803,-106.869 L -3.77199,-106.321 L -3.80338,-105.754 L -3.8222,-105.167
 L -3.82849,-104.562 L -3.82202,-103.969 L -3.80263,-103.394 L -3.77031,-102.837 L -3.72507,-102.298 L -3.6669,-101.778
 L -3.59581,-101.275 L -3.51178,-100.79 L -3.41484,-100.323 L -3.30496,-99.8745 L -3.18216,-99.4438 L -3.04643,-99.0311
 L -2.89777,-98.6364 L -2.73619,-98.2597 L -2.56168,-97.9011 L -2.37425,-97.5604 L -2.17389,-97.2378 L -1.96065,-96.934
 L -1.73459,-96.6497 L -1.49571,-96.3851 L -1.244,-96.1401 L -0.979492,-95.9147 L -0.702133,-95.7089 L -0.411972,-95.5227
 L -0.108978,-95.356 L 0,-95.3053 L 0,-81 L -20,-81 L -20,-80 L 0,-80
 L 0,-0 L 1,-0 L 1,-80 L 10,-80 L 10,-0 L 9.47664,0.0137177
 L 8.95473,0.0547943 L 8.43565,0.123123 L 7.92088,0.218536 L 7.41182,0.340744 L 6.90984,0.489441 L 6.41632,0.6642
 L 5.93263,0.864548 L 5.4601,1.08994 L 5,1.33975 L 4.55362,1.6133 L 4.12215,1.90984 L 3.7068,2.22855
 L 3.3087,2.56856 L 2.92894,2.92894 L 2.56856,3.3087 L 2.22855,3.7068 L 1.90984,4.12216 L 1.6133,4.55362
 L 1.33975,5 L 1.08994,5.4601 L 0.864548,5.93265 L 0.6642,6.41632 L 0.489441,6.90984 L 0.340744,7.41182
 L 0.218521,7.92088 L 0.123123,8.43567 L 0.0547791,8.95473 L 0.0137024,9.47665 L 0,10 L 0.0137024,10.5233
 L 0.0547791,11.0453 L 0.123123,11.5643 L 0.218521,12.0791 L 0.340744,12.5882 L 0.489441,13.0902 L 0.6642,13.5837
 L 0.864548,14.0674 L 1.08994,14.5399 L 1.33975,15 L 1.6133,15.4464 L 1.90984,15.8778 L 2.22855,16.2932
 L 2.56856,16.6913 L 2.92894,17.0711 L 3.3087,17.4314 L 3.7068,17.7715 L 4.12215,18.0902 L 4.55362,18.3867
 L 5,18.6602 L 5.4601,18.9101 L 5.93263,19.1355 L 6.41632,19.3358 L 6.90984,19.5106 L 7.41182,19.6593
 L 7.92088,19.7815 L 8.43565,19.8769 L 8.95473,19.9452 L 9.47664,19.9863 L 10,20 L 10,60
 L 11,60 z
M 1,-81 L 1,-94.9432 L 1.23119,-94.8856 L 1.59828,-94.817 L 1.97821,-94.768 L 2.37096,-94.7386
 L 2.77652,-94.7288 L 3.18219,-94.7387 L 3.5753,-94.7682 L 3.95586,-94.8175 L 4.32387,-94.8865 L 4.67931,-94.9752
 L 5.0222,-95.0835 L 5.35254,-95.2116 L 5.67032,-95.3594 L 5.97554,-95.527 L 6.2682,-95.7142 L 6.54831,-95.9211
 L 6.81587,-96.1478 L 7.07086,-96.3941 L 7.31331,-96.6602 L 7.54318,-96.9459 L 7.76051,-97.2514 L 7.965,-97.5756
 L 8.15628,-97.9174 L 8.33438,-98.277 L 8.49928,-98.6543 L 8.65099,-99.0492 L 8.78951,-99.4619 L 8.91483,-99.8922
 L 9.02696,-100.34 L 9.1259,-100.806 L 9.21165,-101.289 L 9.28421,-101.791 L 9.34358,-102.309 L 9.38976,-102.846
 L 9.42273,-103.4 L 9.44252,-103.972 L 9.44911,-104.562 L 9.44284,-105.161 L 9.424,-105.742 L 9.39261,-106.304
 L 9.34866,-106.847 L 9.29216,-107.372 L 9.2231,-107.878 L 9.14149,-108.365 L 9.04732,-108.834 L 8.94058,-109.284
 L 8.8213,-109.715 L 8.68947,-110.128 L 8.54506,-110.522 L 8.38811,-110.898 L 8.2186,-111.255 L 8.03654,-111.593
 L 7.84192,-111.912 L 7.63412,-112.213 L 7.41251,-112.494 L 7.17706,-112.756 L 6.9278,-112.998 L 6.66469,-113.221
 L 6.38776,-113.425 L 6.097,-113.609 L 5.79242,-113.774 L 5.474,-113.919 L 5.14175,-114.045 L 4.79568,-114.152
 L 4.43579,-114.239 L 4.06206,-114.307 L 3.67451,-114.356 L 3.27313,-114.385 L 2.85791,-114.394 L 2.4312,-114.385
 L 2.01906,-114.356 L 1.62148,-114.308 L 1.23846,-114.241 L 1,-114.185 L 1,-160 L 75,-160
 L 75,-81 L 11,-81 L 11,-100 L 10,-100 L 10,-81 z
M 28.4124,-94.7356 L 28.7589,-94.7561 L 29.0956,-94.7903 L 29.4226,-94.8382 L 29.7398,-94.8996 L 30.0473,-94.9748
 L 30.3451,-95.0636 L 30.633,-95.1661 L 30.9113,-95.2823 L 31.1798,-95.4122 L 31.4385,-95.5557 L 31.6875,-95.7128
 L 31.9267,-95.8837 L 32.1562,-96.0682 L 32.376,-96.2664 L 32.586,-96.4782 L 32.7847,-96.7019 L 32.9706,-96.9355
 L 33.1437,-97.1791 L 33.3039,-97.4327 L 33.4514,-97.6962 L 33.586,-97.9697 L 33.7078,-98.2531 L 33.8167,-98.5465
 L 33.9129,-98.8499 L 33.9962,-99.1632 L 34.0667,-99.4865 L 34.1244,-99.8198 L 34.1693,-100.163 L 34.2014,-100.516
 L 34.2206,-100.879 L 34.227,-101.252 L 34.2209,-101.597 L 34.2027,-101.933 L 34.1724,-102.26 L 34.1299,-102.578
 L 34.0753,-102.887 L 34.0086,-103.188 L 33.9297,-103.479 L 33.8387,-103.761 L 33.7356,-104.035 L 33.6203,-104.3
 L 33.493,-104.555 L 33.3534,-104.802 L 33.2018,-105.04 L 33.038,-105.269 L 32.862,-105.49 L 32.674,-105.701
 L 32.4756,-105.901 L 32.2687,-106.089 L 32.0533,-106.263 L 31.8294,-106.425 L 31.5969,-106.573 L 31.3559,-106.709
 L 31.1063,-106.832 L 30.8482,-106.942 L 30.5816,-107.039 L 30.3065,-107.123 L 30.0228,-107.194 L 29.7307,-107.252
 L 29.4299,-107.297 L 29.1207,-107.33 L 28.8029,-107.349 L 28.4766,-107.355 L 28.283,-107.353 L 28.0921,-107.345
 L 27.9041,-107.333 L 27.7188,-107.315 L 27.5362,-107.292 L 27.3564,-107.265 L 27.1793,-107.232 L 27.005,-107.194
 L 26.8335,-107.152 L 26.6647,-107.104 L 26.4986,-107.051 L 26.3353,-106.993 L 26.1748,-106.93 L 26.0171,-106.862
 L 25.862,-106.789 L 25.7098,-106.711 L 25.561,-106.628 L 25.4165,-106.541 L 25.2762,-106.449 L 25.1402,-106.352
 L 25.0084,-106.251 L 24.8808,-106.145 L 24.7575,-106.035 L 24.6384,-105.919 L 24.5235,-105.8 L 24.4129,-105.675
 L 24.3065,-105.547 L 24.2044,-105.413 L 24.1065,-105.275 L 24.0128,-105.132 L 23.9234,-104.985 L 23.8382,-104.833
 L 23.8427,-105.287 L 23.8561,-105.728 L 23.8785,-106.155 L 23.9098,-106.568 L 23.9501,-106.968 L 23.9993,-107.354
 L 24.0575,-107.727 L 24.1247,-108.086 L 24.2008,-108.431 L 24.2858,-108.763 L 24.3799,-109.081 L 24.4828,-109.386
 L 24.5947,-109.677 L 24.7156,-109.954 L 24.8454,-110.218 L 24.9842,-110.468 L 25.1311,-110.704 L 25.2854,-110.924
 L 25.4471,-111.129 L 25.6161,-111.319 L 25.7925,-111.494 L 25.9762,-111.654 L 26.1674,-111.798 L 26.3658,-111.928
 L 26.5717,-112.042 L 26.7849,-112.141 L 27.0055,-112.224 L 27.2334,-112.293 L 27.4687,-112.346 L 27.7114,-112.384
 L 27.9614,-112.407 L 28.2188,-112.414 L 28.5156,-112.405 L 28.799,-112.378 L 29.0691,-112.332 L 29.3259,-112.268
 L 29.5693,-112.186 L 29.7993,-112.086 L 30.016,-111.968 L 30.2193,-111.831 L 30.4093,-111.676 L 30.586,-111.503
 L 30.7493,-111.312 L 30.8992,-111.102 L 31.0358,-110.874 L 31.159,-110.628 L 31.2689,-110.364 L 31.3654,-110.082
 L 33.6982,-110.502 L 33.545,-110.973 L 33.3667,-111.414 L 33.1635,-111.825 L 32.9353,-112.205 L 32.682,-112.555
 L 32.4038,-112.874 L 32.1005,-113.163 L 31.7722,-113.421 L 31.419,-113.649 L 31.0407,-113.847 L 30.6374,-114.014
 L 30.2092,-114.151 L 29.7559,-114.258 L 29.2776,-114.334 L 28.7743,-114.379 L 28.246,-114.394 L 27.8416,-114.384
 L 27.449,-114.353 L 27.0681,-114.301 L 26.699,-114.228 L 26.3416,-114.135 L 25.9961,-114.021 L 25.6622,-113.886
 L 25.3402,-113.73 L 25.0299,-113.553 L 24.7314,-113.356 L 24.4446,-113.138 L 24.1696,-112.899 L 23.9063,-112.639
 L 23.6549,-112.359 L 23.4151,-112.058 L 23.1872,-111.736 L 22.9721,-111.395 L 22.7708,-111.035 L 22.5834,-110.658
 L 22.4099,-110.263 L 22.2503,-109.849 L 22.1046,-109.418 L 21.9727,-108.969 L 21.8547,-108.501 L 21.7506,-108.016
 L 21.6604,-107.513 L 21.5841,-106.991 L 21.5216,-106.452 L 21.4731,-105.894 L 21.4384,-105.319 L 21.4175,-104.725
 L 21.4106,-104.114 L 21.4173,-103.549 L 21.4373,-103.002 L 21.4707,-102.472 L 21.5174,-101.958 L 21.5775,-101.462
 L 21.6509,-100.983 L 21.7377,-100.521 L 21.8378,-100.076 L 21.9513,-99.6477 L 22.0781,-99.2367 L 22.2183,-98.8428
 L 22.3718,-98.466 L 22.5387,-98.1062 L 22.7189,-97.7635 L 22.9125,-97.4378 L 23.1194,-97.1292 L 23.3389,-96.8385
 L 23.5703,-96.5666 L 23.8136,-96.3134 L 24.0687,-96.079 L 24.3358,-95.8634 L 24.6146,-95.6664 L 24.9054,-95.4883
 L 25.208,-95.3289 L 25.5225,-95.1882 L 25.8488,-95.0663 L 26.1871,-94.9632 L 26.5371,-94.8788 L 26.8991,-94.8132
 L 27.2729,-94.7663 L 27.6586,-94.7382 L 28.0562,-94.7288 z
M 27.7636,-96.7009 L 27.5572,-96.7174 L 27.3556,-96.745 L 27.1589,-96.7835 L 26.9669,-96.8331 L 26.7798,-96.8937
 L 26.5975,-96.9653 L 26.4201,-97.048 L 26.2475,-97.1416 L 26.0796,-97.2463 L 25.9166,-97.362 L 25.7585,-97.4887
 L 25.6051,-97.6265 L 25.4566,-97.7752 L 25.3129,-97.935 L 25.174,-98.1058 L 25.0418,-98.2852 L 24.9182,-98.4709
 L 24.803,-98.6629 L 24.6964,-98.8611 L 24.5983,-99.0655 L 24.5088,-99.2762 L 24.4278,-99.4932 L 24.3553,-99.7164
 L 24.2913,-99.9458 L 24.2359,-100.182 L 24.189,-100.423 L 24.1506,-100.672 L 24.1208,-100.926 L 24.0994,-101.187
 L 24.0867,-101.454 L 24.0824,-101.727 L 24.0865,-101.943 L 24.0988,-102.153 L 24.1193,-102.357 L 24.1481,-102.555
 L 24.185,-102.747 L 24.2302,-102.933 L 24.2836,-103.114 L 24.3451,-103.288 L 24.4149,-103.457 L 24.4929,-103.62
 L 24.5791,-103.777 L 24.6736,-103.928 L 24.7762,-104.073 L 24.8871,-104.212 L 25.0061,-104.346 L 25.1334,-104.473
 L 25.2674,-104.594 L 25.4065,-104.707 L 25.5507,-104.812 L 25.7001,-104.909 L 25.8546,-104.999 L 26.0143,-105.081
 L 26.1791,-105.155 L 26.349,-105.221 L 26.5241,-105.279 L 26.7043,-105.33 L 26.8896,-105.373 L 27.0801,-105.408
 L 27.2757,-105.435 L 27.4765,-105.455 L 27.6824,-105.466 L 27.8934,-105.47 L 28.1174,-105.466 L 28.3352,-105.453
 L 28.5468,-105.431 L 28.7521,-105.4 L 28.9511,-105.36 L 29.1439,-105.312 L 29.3305,-105.255 L 29.5107,-105.189
 L 29.6848,-105.114 L 29.8526,-105.03 L 30.0141,-104.938 L 30.1694,-104.837 L 30.3184,-104.727 L 30.4612,-104.608
 L 30.5977,-104.481 L 30.728,-104.344 L 30.8512,-104.2 L 30.9664,-104.048 L 31.0737,-103.889 L 31.173,-103.722
 L 31.2644,-103.548 L 31.3479,-103.367 L 31.4233,-103.178 L 31.4909,-102.981 L 31.5505,-102.778 L 31.6021,-102.567
 L 31.6459,-102.348 L 31.6816,-102.122 L 31.7094,-101.889 L 31.7293,-101.648 L 31.7412,-101.399 L 31.7452,-101.144
 L 31.7413,-100.888 L 31.7295,-100.639 L 31.7099,-100.397 L 31.6824,-100.162 L 31.6472,-99.9337 L 31.604,-99.7124
 L 31.5531,-99.4982 L 31.4942,-99.2908 L 31.4276,-99.0905 L 31.3531,-98.897 L 31.2707,-98.7105 L 31.1806,-98.5309
 L 31.0825,-98.3583 L 30.9767,-98.1926 L 30.8629,-98.0338 L 30.7414,-97.882 L 30.613,-97.7383 L 30.4786,-97.6039
 L 30.3383,-97.4787 L 30.1921,-97.3629 L 30.04,-97.2562 L 29.8819,-97.1589 L 29.7179,-97.0708 L 29.5479,-96.992
 L 29.3721,-96.9225 L 29.1902,-96.8623 L 29.0025,-96.8113 L 28.8088,-96.7696 L 28.6092,-96.7371 L 28.4037,-96.7139
 L 28.1922,-96.7 L 27.9748,-96.6954 z
M 42.9795,-94.7356 L 43.3616,-94.7559 L 43.7328,-94.7898 L 44.0932,-94.8373 L 44.4427,-94.8983 L 44.7814,-94.9729
 L 45.1092,-95.0611 L 45.4262,-95.1628 L 45.7323,-95.2781 L 46.0275,-95.4069 L 46.3118,-95.5493 L 46.5853,-95.7053
 L 46.848,-95.8748 L 47.0997,-96.0579 L 47.3407,-96.2546 L 47.5707,-96.4648 L 47.7883,-96.6868 L 47.9919,-96.9189
 L 48.1815,-97.1611 L 48.357,-97.4133 L 48.5185,-97.6756 L 48.6659,-97.948 L 48.7993,-98.2304 L 48.9186,-98.5229
 L 49.0239,-98.8255 L 49.1152,-99.1381 L 49.1924,-99.4608 L 49.2556,-99.7935 L 49.3047,-100.136 L 49.3398,-100.489
 L 49.3609,-100.852 L 49.3679,-101.225 L 49.3614,-101.554 L 49.3418,-101.874 L 49.309,-102.187 L 49.2632,-102.492
 L 49.2043,-102.789 L 49.1324,-103.078 L 49.0473,-103.359 L 48.9492,-103.632 L 48.8379,-103.898 L 48.7136,-104.156
 L 48.5762,-104.406 L 48.4257,-104.648 L 48.2622,-104.882 L 48.0855,-105.109 L 47.8958,-105.327 L 47.6929,-105.538
 L 47.4791,-105.738 L 47.2563,-105.926 L 47.0245,-106.1 L 46.7838,-106.262 L 46.5341,-106.411 L 46.2755,-106.546
 L 46.0079,-106.669 L 45.7314,-106.779 L 45.4459,-106.876 L 45.1515,-106.96 L 44.8481,-107.031 L 44.5358,-107.089
 L 44.2145,-107.134 L 43.8843,-107.167 L 43.5451,-107.186 L 43.1969,-107.193 L 42.905,-107.188 L 42.619,-107.174
 L 42.3392,-107.15 L 42.0653,-107.116 L 41.7975,-107.073 L 41.5357,-107.021 L 41.28,-106.959 L 41.0303,-106.887
 L 40.7867,-106.806 L 40.549,-106.716 L 40.3175,-106.616 L 40.0919,-106.506 L 39.8724,-106.387 L 39.6589,-106.258
 L 39.4515,-106.12 L 39.2501,-105.972 L 39.6163,-112.035 L 48.2557,-112.035 L 48.2557,-114.11 L 37.3921,-114.11
 L 36.7547,-103.829 L 39.1417,-103.829 L 39.2485,-103.921 L 39.3553,-104.009 L 39.4621,-104.094 L 39.5689,-104.175
 L 39.6757,-104.253 L 39.7825,-104.328 L 39.8893,-104.399 L 39.9961,-104.467 L 40.1029,-104.531 L 40.2097,-104.592
 L 40.3165,-104.65 L 40.4233,-104.704 L 40.5301,-104.755 L 40.6369,-104.802 L 40.7437,-104.846 L 40.8505,-104.887
 L 40.9579,-104.925 L 41.0663,-104.96 L 41.1758,-104.993 L 41.2863,-105.023 L 41.3979,-105.052 L 41.5105,-105.077
 L 41.6242,-105.1 L 41.739,-105.121 L 41.8548,-105.139 L 41.9716,-105.155 L 42.0896,-105.169 L 42.2086,-105.179
 L 42.3286,-105.188 L 42.4497,-105.194 L 42.5719,-105.198 L 42.6951,-105.199 L 42.9294,-105.195 L 43.1576,-105.182
 L 43.3797,-105.16 L 43.5958,-105.129 L 43.8057,-105.09 L 44.0095,-105.043 L 44.2073,-104.986 L 44.3989,-104.921
 L 44.5845,-104.847 L 44.7639,-104.765 L 44.9373,-104.673 L 45.1046,-104.573 L 45.2657,-104.465 L 45.4208,-104.347
 L 45.5698,-104.221 L 45.7127,-104.087 L 45.8482,-103.945 L 45.975,-103.798 L 46.093,-103.645 L 46.2023,-103.488
 L 46.3028,-103.324 L 46.3946,-103.156 L 46.4777,-102.981 L 46.552,-102.802 L 46.6175,-102.617 L 46.6744,-102.427
 L 46.7224,-102.231 L 46.7618,-102.03 L 46.7924,-101.823 L 46.8142,-101.611 L 46.8273,-101.394 L 46.8317,-101.171
 L 46.8274,-100.915 L 46.8143,-100.666 L 46.7926,-100.424 L 46.7622,-100.189 L 46.7231,-99.9608 L 46.6753,-99.7395
 L 46.6188,-99.5252 L 46.5537,-99.3179 L 46.4798,-99.1175 L 46.3973,-98.924 L 46.306,-98.7375 L 46.2061,-98.5579
 L 46.0975,-98.3853 L 45.9802,-98.2196 L 45.8542,-98.0608 L 45.7195,-97.909 L 45.5771,-97.7653 L 45.4281,-97.6309
 L 45.2724,-97.5057 L 45.11,-97.3899 L 44.941,-97.2832 L 44.7652,-97.1859 L 44.5828,-97.0978 L 44.3938,-97.019
 L 44.198,-96.9495 L 43.9956,-96.8893 L 43.7865,-96.8383 L 43.5707,-96.7966 L 43.3483,-96.7641 L 43.1192,-96.7409
 L 42.8834,-96.727 L 42.6409,-96.7224 L 42.2503,-96.7335 L 41.8786,-96.7667 L 41.526,-96.8221 L 41.1923,-96.8996
 L 40.8775,-96.9992 L 40.5817,-97.121 L 40.3049,-97.265 L 40.0471,-97.431 L 39.8082,-97.6193 L 39.5883,-97.8297
 L 39.3873,-98.0622 L 39.2054,-98.3168 L 39.0423,-98.5937 L 38.8983,-98.8926 L 38.7732,-99.2137 L 38.6671,-99.557
 L 36.1987,-99.2722 L 36.2577,-98.9999 L 36.3261,-98.7359 L 36.4039,-98.4799 L 36.4911,-98.2322 L 36.5878,-97.9925
 L 36.694,-97.7611 L 36.8095,-97.5378 L 36.9345,-97.3226 L 37.0689,-97.1157 L 37.2127,-96.9168 L 37.366,-96.7262
 L 37.5287,-96.5437 L 37.7008,-96.3693 L 37.8823,-96.2031 L 38.0733,-96.0451 L 38.2737,-95.8952 L 38.4829,-95.754
 L 38.7001,-95.6218 L 38.9253,-95.4988 L 39.1586,-95.3849 L 39.4,-95.2801 L 39.6494,-95.1844 L 39.9069,-95.0979
 L 40.1724,-95.0204 L 40.446,-94.9521 L 40.7276,-94.8928 L 41.0173,-94.8427 L 41.315,-94.8017 L 41.6208,-94.7698
 L 41.9347,-94.747 L 42.2566,-94.7334 L 42.5865,-94.7288 z
M 2.53685,-96.7298 L 2.27934,-96.7518 L 2.03101,-96.7887 L 1.79184,-96.8402 L 1.56183,-96.9065 L 1.341,-96.9875
 L 1.12932,-97.0832 L 1,-97.1538 L 1,-111.996 L 1.13065,-112.064 L 1.34767,-112.157 L 1.57462,-112.235
 L 1.81146,-112.3 L 2.05821,-112.35 L 2.31488,-112.386 L 2.58145,-112.407 L 2.85791,-112.414 L 3.1277,-112.407
 L 3.38777,-112.385 L 3.63817,-112.349 L 3.87886,-112.298 L 4.10986,-112.233 L 4.33118,-112.153 L 4.5428,-112.059
 L 4.74472,-111.95 L 4.93695,-111.826 L 5.11948,-111.688 L 5.29231,-111.536 L 5.45546,-111.369 L 5.60892,-111.188
 L 5.75269,-110.992 L 5.88675,-110.781 L 6.01111,-110.556 L 6.12691,-110.315 L 6.23523,-110.056 L 6.33607,-109.779
 L 6.42946,-109.485 L 6.51537,-109.172 L 6.5938,-108.842 L 6.66476,-108.494 L 6.72827,-108.129 L 6.78429,-107.745
 L 6.83286,-107.344 L 6.87393,-106.924 L 6.90755,-106.487 L 6.9337,-106.033 L 6.95238,-105.56 L 6.96358,-105.07
 L 6.96732,-104.562 L 6.96339,-104.071 L 6.95163,-103.597 L 6.93204,-103.139 L 6.90459,-102.697 L 6.86931,-102.271
 L 6.82619,-101.861 L 6.77522,-101.467 L 6.71642,-101.09 L 6.64977,-100.728 L 6.57529,-100.383 L 6.49295,-100.053
 L 6.40279,-99.74 L 6.30478,-99.4429 L 6.19893,-99.1619 L 6.08525,-98.897 L 5.96371,-98.6482 L 5.83376,-98.415
 L 5.69479,-98.1968 L 5.54683,-97.9937 L 5.38985,-97.8056 L 5.22386,-97.6326 L 5.04887,-97.4747 L 4.86487,-97.3317
 L 4.67186,-97.2038 L 4.46985,-97.091 L 4.25882,-96.9932 L 4.03879,-96.9105 L 3.80975,-96.8428 L 3.5717,-96.7901
 L 3.32465,-96.7525 L 3.06859,-96.7299 L 2.80351,-96.7224 z
M -0.0957489,-98.1658 L -0.2341,-98.3793 L -0.363281,-98.6076 L -0.483994,-98.8518 L -0.596909,-99.113 L -0.702042,-99.3913
 L -0.799377,-99.6867 L -0.888947,-99.9991 L -0.970703,-100.329 L -1.04469,-100.675 L -1.11089,-101.039 L -1.1693,-101.419
 L -1.21991,-101.817 L -1.26274,-102.232 L -1.29779,-102.664 L -1.32504,-103.113 L -1.34451,-103.579 L -1.35619,-104.062
 L -1.36008,-104.562 L -1.35625,-105.076 L -1.34473,-105.572 L -1.32552,-106.05 L -1.29863,-106.509 L -1.26407,-106.95
 L -1.22182,-107.373 L -1.17189,-107.777 L -1.11429,-108.162 L -1.049,-108.53 L -0.976028,-108.878 L -0.89537,-109.208
 L -0.807037,-109.52 L -0.711014,-109.814 L -0.607315,-110.089 L -0.495941,-110.345 L -0.376877,-110.583 L -0.249008,-110.805
 L -0.111221,-111.012 L 0,-111.158 L 0,-98.0367 z
M 9.83777,13.0957 L 9.67596,13.083 L 9.51506,13.0618 L 9.35548,13.0323 L 9.19766,12.9944 L 9.04205,12.9483
 L 8.88907,12.8941 L 8.73912,12.832 L 8.59264,12.7621 L 8.45001,12.6847 L 8.31163,12.5999 L 8.17787,12.5079
 L 8.04912,12.4091 L 7.9257,12.3037 L 7.80797,12.192 L 7.69626,12.0743 L 7.59085,11.9509 L 7.49205,11.8221
 L 7.40013,11.6884 L 7.31532,11.55 L 7.23788,11.4074 L 7.16801,11.2609 L 7.10591,11.1109 L 7.05173,10.9579
 L 7.00563,10.8023 L 6.96774,10.6445 L 6.93817,10.4849 L 6.91699,10.324 L 6.90425,10.1622 L 6.90001,10
 L 6.90425,9.83777 L 6.91699,9.67596 L 6.93817,9.51506 L 6.96774,9.35548 L 7.00563,9.19766 L 7.05173,9.04205
 L 7.10591,8.88907 L 7.16801,8.73912 L 7.23788,8.59264 L 7.31532,8.45001 L 7.40013,8.31163 L 7.49205,8.17787
 L 7.59085,8.04912 L 7.69626,7.9257 L 7.80797,7.80798 L 7.9257,7.69626 L 8.04912,7.59085 L 8.17787,7.49205
 L 8.31163,7.40013 L 8.45001,7.31532 L 8.59264,7.23788 L 8.73912,7.16801 L 8.88907,7.10591 L 9.04205,7.05173
 L 9.19766,7.00563 L 9.35548,6.96774 L 9.51506,6.93817 L 9.67596,6.91699 L 9.83777,6.90425 L 10,6.90001
 L 10,13.1 z
M 11,7.06662 L 11.1109,7.10591 L 11.2609,7.16801 L 11.4074,7.23788 L 11.55,7.31532 L 11.6884,7.40013
 L 11.8221,7.49205 L 11.9509,7.59085 L 12.0743,7.69626 L 12.192,7.80798 L 12.3038,7.9257 L 12.4092,8.04912
 L 12.508,8.17787 L 12.5999,8.31163 L 12.6847,8.45001 L 12.7621,8.59264 L 12.832,8.73912 L 12.8941,8.88907
 L 12.9483,9.04205 L 12.9944,9.19766 L 13.0323,9.35548 L 13.0618,9.51506 L 13.083,9.67596 L 13.0958,9.83777
 L 13.1,10 L 13.0958,10.1622 L 13.083,10.324 L 13.0618,10.4849 L 13.0323,10.6445 L 12.9944,10.8023
 L 12.9483,10.9579 L 12.8941,11.1109 L 12.832,11.2609 L 12.7621,11.4074 L 12.6847,11.55 L 12.5999,11.6884
 L 12.508,11.8221 L 12.4092,11.9509 L 12.3038,12.0743 L 12.192,12.192 L 12.0743,12.3037 L 11.9509,12.4091
 L 11.8221,12.5079 L 11.6884,12.5999 L 11.55,12.6847 L 11.4074,12.7621 L 11.2609,12.832 L 11.1109,12.8941
 L 11,12.9334 z
M -5.90862,-97.075 L -10.5604,-97.075 L -10.5604,-114.11 L -12.8118,-114.11 L -17.3282,-111.004 L -17.3282,-108.698
 L -13.0154,-111.777 L -13.0154,-97.075 L -17.8842,-97.075 L -17.8842,-95 L -5.90862,-95 z
M 181,16 L 194.943,16 L 194.886,16.2312 L 194.817,16.5983 L 194.768,16.9782 L 194.739,17.371
 L 194.729,17.7765 L 194.739,18.1822 L 194.768,18.5753 L 194.817,18.9559 L 194.886,19.3239 L 194.975,19.6793
 L 195.084,20.0222 L 195.212,20.3525 L 195.359,20.6703 L 195.527,20.9755 L 195.714,21.2682 L 195.921,21.5483
 L 196.148,21.8159 L 196.394,22.0709 L 196.66,22.3133 L 196.946,22.5432 L 197.251,22.7605 L 197.576,22.965
 L 197.917,23.1563 L 198.277,23.3344 L 198.654,23.4993 L 199.049,23.651 L 199.462,23.7895 L 199.892,23.9148
 L 200.34,24.027 L 200.806,24.1259 L 201.289,24.2117 L 201.791,24.2842 L 202.309,24.3436 L 202.846,24.3898
 L 203.4,24.4227 L 203.972,24.4425 L 204.562,24.4491 L 205.161,24.4428 L 205.742,24.424 L 206.304,24.3926
 L 206.847,24.3487 L 207.372,24.2922 L 207.878,24.2231 L 208.365,24.1415 L 208.834,24.0473 L 209.284,23.9406
 L 209.715,23.8213 L 210.128,23.6895 L 210.522,23.5451 L 210.898,23.3881 L 211.255,23.2186 L 211.593,23.0365
 L 211.912,22.8419 L 212.213,22.6341 L 212.494,22.4125 L 212.756,22.1771 L 212.998,21.9278 L 213.221,21.6647
 L 213.425,21.3878 L 213.609,21.097 L 213.774,20.7924 L 213.919,20.474 L 214.045,20.1418 L 214.152,19.7957
 L 214.239,19.4358 L 214.307,19.0621 L 214.356,18.6745 L 214.385,18.2731 L 214.394,17.8579 L 214.385,17.4312
 L 214.356,17.0191 L 214.308,16.6215 L 214.241,16.2385 L 214.155,15.87 L 214.049,15.5162 L 213.925,15.1768
 L 213.781,14.8521 L 213.618,14.5419 L 213.435,14.2464 L 213.234,13.9653 L 213.014,13.6989 L 212.774,13.447
 L 212.515,13.2097 L 212.237,12.9869 L 211.94,12.7787 L 211.623,12.5841 L 211.287,12.402 L 210.932,12.2325
 L 210.558,12.0756 L 210.164,11.9312 L 209.751,11.7993 L 209.319,11.68 L 208.868,11.5733 L 208.397,11.4791
 L 207.907,11.3975 L 207.398,11.3285 L 206.869,11.272 L 206.321,11.228 L 205.754,11.1966 L 205.167,11.1778
 L 204.562,11.1715 L 203.969,11.178 L 203.394,11.1974 L 202.837,11.2297 L 202.298,11.2749 L 201.778,11.3331
 L 201.275,11.4042 L 200.79,11.4882 L 200.323,11.5852 L 199.875,11.695 L 199.444,11.8178 L 199.031,11.9536
 L 198.636,12.1022 L 198.26,12.2638 L 197.901,12.4383 L 197.56,12.6257 L 197.238,12.8261 L 196.934,13.0394
 L 196.65,13.2654 L 196.385,13.5043 L 196.14,13.756 L 195.915,14.0205 L 195.709,14.2979 L 195.523,14.588
 L 195.356,14.891 L 195.305,15 L 181,15 L 181,6 L 195,6 L 195,9.09138
 L 197.075,9.09138 L 197.075,6 L 200,6 L 200,5 L 197.075,5 L 197.075,4.43959
 L 214.11,4.43959 L 214.11,2.18819 L 211.004,-2.3282 L 208.698,-2.3282 L 211.777,1.98459 L 197.075,1.98459
 L 197.075,-2.8842 L 195,-2.8842 L 195,5 L 181,5 L 181,-20 L 180,-20
 L 180,5 L 100,5 L 100,6 L 180,6 L 180,15 L 100,15
 L 100,16 L 180,16 L 180,40 L 181,40 z
M 204.071,21.9634 L 203.597,21.9516 L 203.139,21.932 L 202.697,21.9046 L 202.271,21.8693 L 201.861,21.8262
 L 201.467,21.7752 L 201.09,21.7164 L 200.728,21.6498 L 200.383,21.5753 L 200.053,21.493 L 199.74,21.4028
 L 199.443,21.3048 L 199.162,21.1989 L 198.897,21.0853 L 198.648,20.9637 L 198.415,20.8338 L 198.197,20.6948
 L 197.994,20.5468 L 197.806,20.3898 L 197.633,20.2239 L 197.475,20.0489 L 197.332,19.8649 L 197.204,19.6719
 L 197.091,19.4698 L 196.993,19.2588 L 196.91,19.0388 L 196.843,18.8098 L 196.79,18.5717 L 196.752,18.3246
 L 196.73,18.0686 L 196.722,17.8035 L 196.73,17.5368 L 196.752,17.2793 L 196.789,17.031 L 196.84,16.7918
 L 196.906,16.5618 L 196.988,16.341 L 197.083,16.1293 L 197.154,16 L 200,16 L 200,15
 L 198.037,15 L 198.166,14.9043 L 198.379,14.7659 L 198.608,14.6367 L 198.852,14.516 L 199.113,14.4031
 L 199.391,14.298 L 199.687,14.2006 L 199.999,14.1111 L 200.329,14.0293 L 200.675,13.9553 L 201.039,13.8891
 L 201.419,13.8307 L 201.817,13.7801 L 202.232,13.7373 L 202.664,13.7022 L 203.113,13.675 L 203.579,13.6555
 L 204.062,13.6438 L 204.562,13.6399 L 205.076,13.6438 L 205.572,13.6553 L 206.05,13.6745 L 206.509,13.7014
 L 206.95,13.7359 L 207.373,13.7782 L 207.777,13.8281 L 208.162,13.8857 L 208.53,13.951 L 208.878,14.024
 L 209.208,14.1046 L 209.52,14.193 L 209.814,14.289 L 210.089,14.3927 L 210.345,14.5041 L 210.583,14.6231
 L 210.805,14.751 L 211.012,14.8888 L 211.205,15.0365 L 211.384,15.1941 L 211.549,15.3616 L 211.699,15.539
 L 211.835,15.7263 L 211.956,15.9235 L 212.064,16.1306 L 212.157,16.3477 L 212.235,16.5746 L 212.3,16.8115
 L 212.35,17.0582 L 212.386,17.3149 L 212.407,17.5815 L 212.414,17.8579 L 212.407,18.1277 L 212.385,18.3878
 L 212.349,18.6382 L 212.298,18.8789 L 212.233,19.1099 L 212.153,19.3312 L 212.059,19.5428 L 211.95,19.7447
 L 211.826,19.937 L 211.688,20.1195 L 211.536,20.2923 L 211.369,20.4555 L 211.188,20.6089 L 210.992,20.7527
 L 210.781,20.8867 L 210.556,21.0111 L 210.315,21.1269 L 210.056,21.2352 L 209.779,21.3361 L 209.485,21.4295
 L 209.172,21.5154 L 208.842,21.5938 L 208.494,21.6648 L 208.129,21.7283 L 207.745,21.7843 L 207.344,21.8329
 L 206.924,21.8739 L 206.487,21.9075 L 206.033,21.9337 L 205.56,21.9524 L 205.07,21.9636 L 204.562,21.9673
 z
M -109,21 L -94.4574,21 L -94.2858,21.2682 L -94.0789,21.5483 L -93.8522,21.8159 L -93.6059,22.0709
 L -93.3398,22.3133 L -93.0541,22.5432 L -92.7486,22.7605 L -92.4244,22.965 L -92.0826,23.1563 L -91.723,23.3344
 L -91.3457,23.4993 L -90.9508,23.651 L -90.5381,23.7895 L -90.1078,23.9148 L -89.6598,24.027 L -89.194,24.1259
 L -88.7106,24.2117 L -88.2095,24.2842 L -87.6906,24.3436 L -87.1541,24.3898 L -86.5999,24.4227 L -86.028,24.4425
 L -85.4384,24.4491 L -84.8391,24.4428 L -84.2585,24.424 L -83.6965,24.3926 L -83.1531,24.3487 L -82.6284,24.2922
 L -82.1224,24.2231 L -81.635,24.1415 L -81.1662,24.0473 L -80.7161,23.9406 L -80.2847,23.8213 L -79.8719,23.6895
 L -79.4777,23.5451 L -79.1022,23.3881 L -78.7454,23.2186 L -78.4072,23.0365 L -78.0876,22.8419 L -77.787,22.6341
 L -77.5059,22.4125 L -77.2441,22.1771 L -77.0017,21.9278 L -76.7787,21.6647 L -76.5751,21.3878 L -76.3909,21.097
 L -76.3384,21 L -30,21 L -30,20 L -75.9109,20 L -75.848,19.7957 L -75.7607,19.4358
 L -75.6929,19.0621 L -75.6444,18.6745 L -75.6153,18.2731 L -75.6056,17.8579 L -75.6152,17.4312 L -75.644,17.0191
 L -75.6919,16.6215 L -75.759,16.2385 L -75.8453,15.87 L -75.9508,15.5162 L -76.0755,15.1768 L -76.2193,14.8521
 L -76.3823,14.5419 L -76.5645,14.2464 L -76.7659,13.9653 L -76.9864,13.6989 L -77.2262,13.447 L -77.4851,13.2097
 L -77.7632,12.9869 L -78.0604,12.7787 L -78.3769,12.5841 L -78.7127,12.402 L -79.0677,12.2325 L -79.4421,12.0756
 L -79.8357,11.9312 L -80.2486,11.7993 L -80.6808,11.68 L -81.1323,11.5733 L -81.6031,11.4791 L -82.0931,11.3975
 L -82.6025,11.3285 L -83.1311,11.272 L -83.679,11.228 L -84.2462,11.1966 L -84.8327,11.1778 L -85.4384,11.1715
 L -86.0312,11.178 L -86.6061,11.1974 L -87.1629,11.2297 L -87.7017,11.2749 L -88.2225,11.3331 L -88.7253,11.4042
 L -89.21,11.4882 L -89.6768,11.5852 L -90.1255,11.695 L -90.5562,11.8178 L -90.9689,11.9536 L -91.3636,12.1022
 L -91.7403,12.2638 L -92.0989,12.4383 L -92.4396,12.6257 L -92.7622,12.8261 L -93.066,13.0394 L -93.3503,13.2654
 L -93.6149,13.5043 L -93.8599,13.756 L -94.0853,14.0205 L -94.2911,14.2979 L -94.4773,14.588 L -94.644,14.891
 L -94.791,15.2068 L -94.9184,15.5355 L -95.0262,15.8769 L -95.1144,16.2312 L -95.183,16.5983 L -95.232,16.9782
 L -95.2614,17.371 L -95.2712,17.7765 L -95.2613,18.1822 L -95.2318,18.5753 L -95.1825,18.9559 L -95.1135,19.3239
 L -95.0248,19.6793 L -94.9235,20 L -109,20 L -109,1 L -95,1 L -95,9.0508
 L -92.925,9.0508 L -92.925,1 L -90.3368,1 L -90.2871,1.05003 L -90.1483,1.1927 L -90.0076,1.34036
 L -89.8649,1.493 L -89.7202,1.6506 L -89.5736,1.8132 L -89.4251,1.98079 L -89.2745,2.15334 L -89.122,2.33089
 L -88.9676,2.51341 L -88.8112,2.70091 L -88.6528,2.89339 L -88.3693,3.24057 L -88.0953,3.57344 L -87.8306,3.892
 L -87.5754,4.19626 L -87.3297,4.48621 L -87.0933,4.76186 L -86.8664,5.02321 L -86.649,5.27025 L -86.4409,5.50298
 L -86.2423,5.72141 L -86.0531,5.92554 L -85.8734,6.11536 L -85.703,6.29088 L -85.5421,6.45209 L -85.3906,6.59898
 L -85.2486,6.7316 L -85.1113,6.8551 L -84.974,6.97476 L -84.8366,7.09055 L -84.6993,7.20245 L -84.562,7.3105
 L -84.4247,7.41469 L -84.2873,7.515 L -84.15,7.61143 L -84.0127,7.70403 L -83.8754,7.79274 L -83.738,7.87758
 L -83.6007,7.95856 L -83.4634,8.03566 L -83.3261,8.1089 L -83.1887,8.17828 L -83.0514,8.24379 L -82.914,8.30537
 L -82.7766,8.36299 L -82.639,8.41664 L -82.5013,8.46631 L -82.3635,8.51199 L -82.2256,8.55373 L -82.0876,8.59146
 L -81.9495,8.62524 L -81.8112,8.65504 L -81.6729,8.68088 L -81.5345,8.70273 L -81.396,8.72061 L -81.2573,8.73451
 L -81.1186,8.74445 L -80.9798,8.75041 L -80.8408,8.7524 L -80.5316,8.74632 L -80.2314,8.72813 L -79.9402,8.6978
 L -79.6579,8.65533 L -79.3845,8.60074 L -79.1201,8.534 L -78.8647,8.45514 L -78.6182,8.36414 L -78.3806,8.26102
 L -78.152,8.14575 L -77.9324,8.01836 L -77.7217,7.87883 L -77.52,7.72717 L -77.3273,7.56337 L -77.1435,7.38745
 L -76.9686,7.19939 L -76.8036,7.00008 L -76.6492,6.79031 L -76.5054,6.57013 L -76.3723,6.33949 L -76.2498,6.09842
 L -76.138,5.84692 L -76.0369,5.58498 L -75.9464,5.31259 L -75.8665,5.02977 L -75.7973,4.73651 L -75.7387,4.43283
 L -75.6908,4.1187 L -75.6535,3.79413 L -75.6269,3.45912 L -75.6109,3.11368 L -75.6056,2.7578 L -75.6109,2.43263
 L -75.6268,2.11493 L -75.6533,1.8047 L -75.6904,1.50195 L -75.7381,1.20667 L -75.7799,1 L -30,1
 L -30,-0 L -76.0739,-0 L -76.1355,-0.1577 L -76.2467,-0.408157 L -76.3686,-0.651138 L -76.501,-0.886673
 L -76.6441,-1.11472 L -76.7978,-1.3353 L -76.962,-1.5484 L -77.1352,-1.7523 L -77.3157,-1.94522 L -77.5035,-2.12718
 L -77.6986,-2.29817 L -77.901,-2.45819 L -78.1107,-2.60725 L -78.3278,-2.74533 L -78.5522,-2.87245 L -78.7838,-2.98862
 L -79.0228,-3.0938 L -79.2691,-3.18802 L -79.5227,-3.27127 L -79.7836,-3.34355 L -80.0518,-3.40488 L -80.3274,-3.45523
 L -80.6102,-3.49461 L -80.8408,-0.999008 L -80.6519,-0.973724 L -80.4684,-0.941925 L -80.2902,-0.90361 L -80.1173,-0.858765
 L -79.9498,-0.807419 L -79.7877,-0.749542 L -79.6309,-0.685165 L -79.4795,-0.614258 L -79.3334,-0.536835 L -79.1926,-0.452896
 L -79.0573,-0.362442 L -78.9272,-0.265472 L -78.8025,-0.161987 L -78.6832,-0.0519714 L -78.6324,-0 L -88.4441,-0
 L -88.5292,-0.0922241 L -88.6566,-0.227539 L -88.7858,-0.362076 L -88.9168,-0.495804 L -89.0497,-0.628754 L -89.1843,-0.760895
 L -89.3207,-0.892258 L -89.4589,-1.02283 L -89.599,-1.1526 L -89.7408,-1.28159 L -89.8844,-1.40977 L -90.0299,-1.53717
 L -90.1771,-1.66377 L -90.3262,-1.78958 L -90.477,-1.91461 L -90.6302,-2.03801 L -90.7863,-2.15904 L -90.9453,-2.27768
 L -91.1072,-2.39394 L -91.2721,-2.5078 L -91.4398,-2.61929 L -91.6105,-2.72839 L -91.7841,-2.83511 L -91.9606,-2.93944
 L -92.14,-3.04138 L -92.3223,-3.14095 L -92.5075,-3.23813 L -92.6957,-3.33293 L -92.8867,-3.42534 L -93.0807,-3.51537
 L -93.2776,-3.60301 L -95,-3.60301 L -95,-0 L -109,-0 L -109,-20 L -110,-20
 L -110,-0 L -130,-0 L -130,1 L -110,1 L -110,20 L -130,20
 L -130,21 L -110,21 L -110,40 L -109,40 z
M -92.925,-0 L -92.925,-0.917603 L -92.806,-0.864746 L -92.6865,-0.807861 L -92.5664,-0.746933 L -92.4456,-0.681992
 L -92.3243,-0.613022 L -92.2025,-0.540024 L -92.08,-0.463013 L -91.957,-0.381958 L -91.8333,-0.296875 L -91.7091,-0.207779
 L -91.5843,-0.114655 L -91.4589,-0.0175018 L -91.4371,-0 z
M -81.067,6.2413 L -81.2099,6.23502 L -81.351,6.22455 L -81.4901,6.2099 L -81.6273,6.19107 L -81.7626,6.16805
 L -81.896,6.14084 L -82.0275,6.10944 L -82.157,6.07387 L -82.2847,6.03409 L -82.4105,5.99014 L -82.5344,5.942
 L -82.6563,5.88968 L -82.7764,5.83318 L -82.8946,5.77248 L -83.0108,5.7076 L -83.1258,5.63931 L -83.2401,5.56845
 L -83.3538,5.495 L -83.4668,5.41893 L -83.5793,5.34027 L -83.691,5.25903 L -83.8022,5.17519 L -83.9127,5.08875
 L -84.0226,4.99971 L -84.1318,4.90808 L -84.2404,4.81386 L -84.3484,4.71703 L -84.4558,4.61761 L -84.5625,4.51559
 L -84.6686,4.411 L -84.774,4.30379 L -84.8791,4.19447 L -84.9842,4.08351 L -85.0893,3.9709 L -85.1944,3.85666
 L -85.2995,3.74077 L -85.4046,3.62323 L -85.5097,3.50406 L -85.6148,3.38324 L -85.7199,3.26079 L -85.825,3.13669
 L -85.9301,3.01094 L -86.0352,2.88356 L -86.1403,2.75453 L -86.2454,2.62386 L -86.3505,2.49155 L -86.4556,2.35759
 L -86.5613,2.22273 L -86.668,2.08772 L -86.7759,1.95255 L -86.8849,1.81721 L -86.995,1.68173 L -87.1063,1.54607
 L -87.2186,1.41026 L -87.3321,1.27429 L -87.4466,1.13817 L -87.5639,1 L -77.9545,1 L -77.944,1.02266
 L -77.8811,1.17685 L -77.8248,1.33534 L -77.7751,1.49812 L -77.732,1.66521 L -77.6956,1.83656 L -77.6658,2.01222
 L -77.6426,2.19218 L -77.6261,2.37643 L -77.6161,2.56496 L -77.6128,2.7578 L -77.6162,2.96011 L -77.6264,3.15681
 L -77.6433,3.3479 L -77.6671,3.53337 L -77.6976,3.71323 L -77.7349,3.88747 L -77.7789,4.05609 L -77.8298,4.21909
 L -77.8875,4.37648 L -77.9519,4.52826 L -78.0231,4.67442 L -78.1011,4.81497 L -78.1858,4.94989 L -78.2774,5.07921
 L -78.3757,5.20291 L -78.4808,5.321 L -78.5921,5.43269 L -78.7088,5.53719 L -78.8311,5.63446 L -78.9589,5.72455
 L -79.0922,5.80742 L -79.231,5.88309 L -79.3753,5.95154 L -79.5252,6.01279 L -79.6805,6.06683 L -79.8414,6.11368
 L -80.0077,6.15332 L -80.1796,6.18575 L -80.357,6.21097 L -80.5399,6.22897 L -80.7283,6.23979 L -80.9222,6.24339
 z
M -92.5633,20 L -92.6683,19.8649 L -92.7962,19.6719 L -92.909,19.4698 L -93.0068,19.2588 L -93.0895,19.0388
 L -93.1572,18.8098 L -93.2099,18.5717 L -93.2475,18.3246 L -93.2701,18.0686 L -93.2776,17.8035 L -93.2702,17.5368
 L -93.2482,17.2793 L -93.2113,17.031 L -93.1598,16.7918 L -93.0935,16.5618 L -93.0125,16.341 L -92.9168,16.1293
 L -92.8063,15.9268 L -92.6811,15.7335 L -92.5412,15.5493 L -92.3866,15.3743 L -92.2172,15.2084 L -92.0331,15.0518
 L -91.8342,14.9043 L -91.6207,14.7659 L -91.3924,14.6367 L -91.1482,14.516 L -90.887,14.4031 L -90.6087,14.298
 L -90.3133,14.2006 L -90.0009,14.1111 L -89.6714,14.0293 L -89.3249,13.9553 L -88.9613,13.8891 L -88.5807,13.8307
 L -88.1829,13.7801 L -87.7682,13.7373 L -87.3363,13.7022 L -86.8874,13.675 L -86.4215,13.6555 L -85.9385,13.6438
 L -85.4384,13.6399 L -84.9238,13.6438 L -84.4276,13.6553 L -83.9498,13.6745 L -83.4905,13.7014 L -83.0496,13.7359
 L -82.6272,13.7782 L -82.2232,13.8281 L -81.8376,13.8857 L -81.4705,13.951 L -81.1218,14.024 L -80.7915,14.1046
 L -80.4797,14.193 L -80.1863,14.289 L -79.9114,14.3927 L -79.6549,14.5041 L -79.4168,14.6231 L -79.1951,14.751
 L -78.9877,14.8888 L -78.7946,15.0365 L -78.6157,15.1941 L -78.4512,15.3616 L -78.301,15.539 L -78.1651,15.7263
 L -78.0436,15.9235 L -77.9363,16.1306 L -77.8433,16.3477 L -77.7646,16.5746 L -77.7002,16.8115 L -77.6502,17.0582
 L -77.6144,17.3149 L -77.593,17.5815 L -77.5858,17.8579 L -77.5931,18.1277 L -77.6148,18.3878 L -77.6511,18.6382
 L -77.7019,18.8789 L -77.7673,19.1099 L -77.8471,19.3312 L -77.9414,19.5428 L -78.0503,19.7447 L -78.1737,19.937
 L -78.2213,20 z
M -85.9288,21.9634 L -86.403,21.9516 L -86.8612,21.932 L -87.3033,21.9046 L -87.7292,21.8693 L -88.1391,21.8262
 L -88.5328,21.7752 L -88.9105,21.7164 L -89.272,21.6498 L -89.6174,21.5753 L -89.9467,21.493 L -90.26,21.4028
 L -90.5571,21.3048 L -90.8381,21.1989 L -91.103,21.0853 L -91.2775,21 L -79.4237,21 L -79.4438,21.0111
 L -79.685,21.1269 L -79.9439,21.2352 L -80.2207,21.3361 L -80.5152,21.4295 L -80.8276,21.5154 L -81.1577,21.5938
 L -81.5057,21.6648 L -81.8715,21.7283 L -82.255,21.7843 L -82.6564,21.8329 L -83.0755,21.8739 L -83.5125,21.9075
 L -83.9673,21.9337 L -84.4399,21.9524 L -84.9302,21.9636 L -85.4384,21.9673 z
M 27.5471,71.3472 L 27.5511,71.0978 L 27.5633,70.8549 L 27.5835,70.6185 L 27.6119,70.3885 L 27.6484,70.165
 L 27.693,69.948 L 27.7456,69.7374 L 27.8064,69.5333 L 27.8753,69.3356 L 27.9523,69.1444 L 28.0374,68.9597
 L 28.1306,68.7814 L 28.2319,68.6096 L 28.3413,68.4443 L 28.4588,68.2854 L 28.5845,68.133 L 28.7168,67.9885
 L 28.8546,67.8533 L 28.9977,67.7274 L 29.1461,67.6108 L 29.2999,67.5036 L 29.459,67.4057 L 29.6234,67.3171
 L 29.7933,67.2378 L 29.9684,67.1679 L 30.149,67.1073 L 30.3349,67.056 L 30.5261,67.014 L 30.7227,66.9814
 L 30.9246,66.9581 L 31.1319,66.9441 L 31.3445,66.9394 L 31.4866,66.9408 L 31.6248,66.9449 L 31.7591,66.9518
 L 31.8895,66.9614 L 32.016,66.9738 L 32.1385,66.989 L 32.2571,67.0069 L 32.3718,67.0276 L 32.4826,67.051
 L 32.5895,67.0771 L 32.6924,67.1061 L 32.7914,67.1377 L 32.8865,67.1722 L 32.9777,67.2094 L 33.0649,67.2493
 L 33.1483,67.292 L 33.2282,67.3376 L 33.3053,67.3864 L 33.3795,67.4383 L 33.4509,67.4933 L 33.5194,67.5515
 L 33.585,67.6127 L 33.6478,67.6771 L 33.7077,67.7447 L 33.7648,67.8153 L 33.819,67.8891 L 33.8703,67.966
 L 33.9188,68.046 L 33.9644,68.1292 L 34.0072,68.2155 L 34.047,68.3049 L 34.0841,68.3974 L 34.1186,68.4946
 L 34.1508,68.598 L 34.1809,68.7075 L 34.2087,68.8233 L 34.2343,68.9453 L 34.2576,69.0735 L 34.2788,69.2078
 L 34.2977,69.3484 L 34.3144,69.4952 L 34.3288,69.6482 L 34.3411,69.8073 L 34.3511,69.9727 L 34.3589,70.1443
 L 34.3644,70.3221 L 34.3678,70.506 L 34.3689,70.6962 L 34.3689,80 L 36.8237,80 L 36.8237,70.2214
 L 36.8192,69.8785 L 36.806,69.5481 L 36.7839,69.2302 L 36.7529,68.925 L 36.7131,68.6322 L 36.6644,68.3521
 L 36.6069,68.0845 L 36.5406,67.8294 L 36.4654,67.5869 L 36.3813,67.357 L 36.2884,67.1396 L 36.1867,66.9348
 L 36.0761,66.7425 L 35.9567,66.5628 L 35.8284,66.3956 L 35.6913,66.241 L 35.5448,66.0973 L 35.3886,65.9628
 L 35.2225,65.8377 L 35.0467,65.7218 L 34.861,65.6152 L 34.6655,65.5178 L 34.4603,65.4297 L 34.2452,65.3509
 L 34.0204,65.2814 L 33.7857,65.2211 L 33.5412,65.1701 L 33.287,65.1284 L 33.0229,65.0959 L 32.749,65.0728
 L 32.4653,65.0588 L 32.1719,65.0542 L 31.9622,65.0568 L 31.7572,65.0647 L 31.5568,65.0778 L 31.3611,65.0962
 L 31.1699,65.1198 L 30.9833,65.1486 L 30.8013,65.1827 L 30.624,65.2221 L 30.4512,65.2666 L 30.2831,65.3165
 L 30.1196,65.3716 L 29.9606,65.4319 L 29.8063,65.4974 L 29.6566,65.5683 L 29.5116,65.6443 L 29.3711,65.7256
 L 29.2342,65.8125 L 29.0997,65.9054 L 28.9678,66.0043 L 28.8384,66.1091 L 28.7114,66.22 L 28.587,66.3368
 L 28.465,66.4596 L 28.3455,66.5884 L 28.2285,66.7232 L 28.114,66.864 L 28.002,67.0108 L 27.8925,67.1635
 L 27.7854,67.3223 L 27.6809,67.487 L 27.5788,67.6577 L 27.4793,67.8344 L 27.4385,67.8344 L 27.4403,67.8145
 L 27.4424,67.7888 L 27.4448,67.7573 L 27.4474,67.72 L 27.4503,67.6768 L 27.4534,67.6278 L 27.4568,67.573
 L 27.4605,67.5123 L 27.4645,67.4458 L 27.4687,67.3735 L 27.4731,67.2953 L 27.4779,67.2114 L 27.4829,67.1216
 L 27.4882,67.026 L 27.4995,66.8172 L 27.5052,66.7072 L 27.5106,66.5977 L 27.5157,66.4885 L 27.5203,66.3798
 L 27.5246,66.2715 L 27.5285,66.1637 L 27.532,66.0562 L 27.5352,65.9492 L 27.538,65.8426 L 27.5404,65.7365
 L 27.5424,65.6307 L 27.5441,65.5254 L 27.5454,65.4205 L 27.5463,65.3161 L 27.5469,65.212 L 27.5471,65.1084
 L 27.5471,59.8732 L 25.1057,59.8732 L 25.1057,80 L 27.5471,80 z
M 136.77,77.925 L 126.802,77.925 L 126.855,77.806 L 126.911,77.6865 L 126.972,77.5664 L 127.037,77.4456
 L 127.106,77.3243 L 127.179,77.2025 L 127.256,77.08 L 127.337,76.957 L 127.422,76.8333 L 127.512,76.7091
 L 127.605,76.5843 L 127.702,76.4589 L 127.803,76.333 L 127.908,76.2064 L 128.017,76.0793 L 128.131,75.9516
 L 128.248,75.8226 L 128.371,75.6917 L 128.499,75.5588 L 128.632,75.4239 L 128.769,75.2871 L 128.912,75.1483
 L 129.06,75.0076 L 129.212,74.8649 L 129.37,74.7202 L 129.533,74.5736 L 129.7,74.4251 L 129.873,74.2745
 L 130.05,74.122 L 130.233,73.9676 L 130.42,73.8112 L 130.613,73.6528 L 130.96,73.3693 L 131.293,73.0953
 L 131.611,72.8306 L 131.916,72.5754 L 132.206,72.3297 L 132.481,72.0933 L 132.743,71.8664 L 132.99,71.649
 L 133.222,71.4409 L 133.441,71.2423 L 133.645,71.0531 L 133.835,70.8734 L 134.01,70.703 L 134.171,70.5421
 L 134.318,70.3906 L 134.451,70.2486 L 134.574,70.1113 L 134.694,69.974 L 134.81,69.8366 L 134.922,69.6993
 L 135.03,69.562 L 135.134,69.4247 L 135.234,69.2873 L 135.331,69.15 L 135.423,69.0127 L 135.512,68.8754
 L 135.597,68.738 L 135.678,68.6007 L 135.755,68.4634 L 135.828,68.3261 L 135.898,68.1887 L 135.963,68.0514
 L 136.025,67.914 L 136.082,67.7766 L 136.136,67.639 L 136.186,67.5013 L 136.231,67.3635 L 136.273,67.2256
 L 136.311,67.0876 L 136.345,66.9495 L 136.374,66.8112 L 136.4,66.6729 L 136.422,66.5345 L 136.44,66.396
 L 136.454,66.2573 L 136.464,66.1186 L 136.47,65.9798 L 136.472,65.8408 L 136.466,65.5316 L 136.447,65.2314
 L 136.417,64.9402 L 136.375,64.6579 L 136.32,64.3845 L 136.253,64.1201 L 136.174,63.8647 L 136.083,63.6182
 L 135.98,63.3806 L 135.865,63.152 L 135.738,62.9324 L 135.598,62.7217 L 135.447,62.52 L 135.283,62.3273
 L 135.107,62.1435 L 134.919,61.9686 L 134.719,61.8036 L 134.51,61.6492 L 134.289,61.5054 L 134.059,61.3723
 L 133.818,61.2498 L 133.566,61.138 L 133.304,61.0369 L 133.032,60.9464 L 132.749,60.8665 L 132.456,60.7973
 L 132.152,60.7387 L 131.838,60.6908 L 131.513,60.6535 L 131.178,60.6269 L 130.833,60.6109 L 130.477,60.6056
 L 130.152,60.6109 L 129.834,60.6268 L 129.524,60.6533 L 129.221,60.6904 L 128.926,60.7381 L 128.638,60.7964
 L 128.358,60.8652 L 128.085,60.9447 L 127.82,61.0348 L 127.562,61.1355 L 127.311,61.2467 L 127.068,61.3686
 L 126.833,61.501 L 126.605,61.6441 L 126.384,61.7978 L 126.171,61.962 L 125.967,62.1352 L 125.774,62.3157
 L 125.592,62.5035 L 125.421,62.6986 L 125.261,62.901 L 125.112,63.1107 L 124.974,63.3278 L 124.847,63.5522
 L 124.731,63.7838 L 124.626,64.0228 L 124.531,64.2691 L 124.448,64.5227 L 124.376,64.7836 L 124.314,65.0518
 L 124.264,65.3274 L 124.225,65.6102 L 126.72,65.8408 L 126.746,65.6519 L 126.777,65.4684 L 126.816,65.2902
 L 126.861,65.1173 L 126.912,64.9498 L 126.97,64.7877 L 127.034,64.6309 L 127.105,64.4795 L 127.182,64.3334
 L 127.266,64.1926 L 127.357,64.0573 L 127.454,63.9272 L 127.557,63.8025 L 127.667,63.6832 L 127.784,63.5692
 L 127.907,63.4606 L 128.035,63.3579 L 128.168,63.2619 L 128.305,63.1725 L 128.446,63.0897 L 128.592,63.0135
 L 128.742,62.944 L 128.896,62.8811 L 129.055,62.8248 L 129.217,62.7751 L 129.385,62.732 L 129.556,62.6956
 L 129.732,62.6658 L 129.912,62.6426 L 130.096,62.6261 L 130.284,62.6161 L 130.477,62.6128 L 130.679,62.6162
 L 130.876,62.6264 L 131.067,62.6433 L 131.253,62.6671 L 131.433,62.6976 L 131.607,62.7349 L 131.775,62.7789
 L 131.938,62.8298 L 132.096,62.8875 L 132.248,62.9519 L 132.394,63.0231 L 132.534,63.1011 L 132.669,63.1858
 L 132.799,63.2774 L 132.922,63.3757 L 133.04,63.4808 L 133.152,63.5921 L 133.257,63.7088 L 133.354,63.8311
 L 133.444,63.9589 L 133.527,64.0922 L 133.602,64.231 L 133.671,64.3753 L 133.732,64.5252 L 133.786,64.6805
 L 133.833,64.8414 L 133.873,65.0077 L 133.905,65.1796 L 133.93,65.357 L 133.948,65.5399 L 133.959,65.7283
 L 133.963,65.9222 L 133.961,66.067 L 133.954,66.2099 L 133.944,66.351 L 133.929,66.4901 L 133.91,66.6273
 L 133.887,66.7626 L 133.86,66.896 L 133.829,67.0275 L 133.793,67.157 L 133.753,67.2847 L 133.709,67.4105
 L 133.661,67.5344 L 133.609,67.6563 L 133.553,67.7764 L 133.492,67.8946 L 133.427,68.0108 L 133.359,68.1258
 L 133.288,68.2401 L 133.214,68.3538 L 133.138,68.4668 L 133.06,68.5793 L 132.978,68.691 L 132.895,68.8022
 L 132.808,68.9127 L 132.719,69.0226 L 132.627,69.1318 L 132.533,69.2404 L 132.436,69.3484 L 132.337,69.4558
 L 132.235,69.5625 L 132.13,69.6686 L 132.023,69.774 L 131.914,69.8791 L 131.803,69.9842 L 131.69,70.0893
 L 131.576,70.1944 L 131.46,70.2995 L 131.343,70.4046 L 131.223,70.5097 L 131.103,70.6148 L 130.98,70.7199
 L 130.856,70.825 L 130.73,70.9301 L 130.603,71.0352 L 130.474,71.1403 L 130.343,71.2454 L 130.211,71.3505
 L 130.077,71.4556 L 129.942,71.5613 L 129.807,71.668 L 129.672,71.7759 L 129.537,71.8849 L 129.401,71.995
 L 129.265,72.1063 L 129.13,72.2186 L 128.994,72.3321 L 128.857,72.4466 L 128.721,72.5623 L 128.585,72.6791
 L 128.448,72.797 L 128.311,72.916 L 128.174,73.0362 L 128.037,73.1574 L 127.9,73.2798 L 127.763,73.4036
 L 127.627,73.5292 L 127.492,73.6566 L 127.357,73.7858 L 127.224,73.9168 L 127.091,74.0497 L 126.958,74.1843
 L 126.827,74.3207 L 126.697,74.4589 L 126.567,74.599 L 126.438,74.7408 L 126.31,74.8844 L 126.182,75.0299
 L 126.056,75.1771 L 125.93,75.3262 L 125.805,75.477 L 125.681,75.6302 L 125.56,75.7863 L 125.442,75.9453
 L 125.325,76.1072 L 125.212,76.2721 L 125.1,76.4398 L 124.991,76.6105 L 124.884,76.7841 L 124.78,76.9606
 L 124.678,77.14 L 124.578,77.3223 L 124.481,77.5075 L 124.386,77.6957 L 124.294,77.8867 L 124.204,78.0807
 L 124.116,78.2776 L 124.116,80 L 136.77,80 z
M 108.509,80.2644 L 108.855,80.2439 L 109.192,80.2097 L 109.519,80.1618 L 109.836,80.1004 L 110.143,80.0252
 L 110.441,79.9364 L 110.729,79.8339 L 111.007,79.7177 L 111.276,79.5878 L 111.535,79.4443 L 111.784,79.2872
 L 112.023,79.1163 L 112.252,78.9318 L 112.472,78.7336 L 112.682,78.5218 L 112.881,78.2981 L 113.067,78.0645
 L 113.24,77.8209 L 113.4,77.5673 L 113.547,77.3038 L 113.682,77.0303 L 113.804,76.7469 L 113.913,76.4535
 L 114.009,76.1501 L 114.092,75.8368 L 114.163,75.5135 L 114.221,75.1802 L 114.265,74.837 L 114.297,74.4838
 L 114.317,74.1207 L 114.323,73.7476 L 114.317,73.4028 L 114.299,73.067 L 114.268,72.74 L 114.226,72.4219
 L 114.171,72.1127 L 114.105,71.8125 L 114.026,71.5211 L 113.935,71.2386 L 113.832,70.965 L 113.716,70.7004
 L 113.589,70.4446 L 113.45,70.1977 L 113.298,69.9597 L 113.134,69.7307 L 112.958,69.5105 L 112.77,69.2992
 L 112.572,69.0988 L 112.365,68.9114 L 112.149,68.7369 L 111.925,68.5753 L 111.693,68.4267 L 111.452,68.2909
 L 111.202,68.1681 L 110.944,68.0583 L 110.678,67.9613 L 110.403,67.8773 L 110.119,67.8062 L 109.827,67.748
 L 109.526,67.7028 L 109.217,67.6705 L 108.899,67.6511 L 108.573,67.6446 L 108.379,67.6471 L 108.188,67.6547
 L 108,67.6673 L 107.815,67.6849 L 107.632,67.7075 L 107.452,67.7352 L 107.275,67.7679 L 107.101,67.8057
 L 106.93,67.8484 L 106.761,67.8963 L 106.595,67.9491 L 106.431,68.007 L 106.271,68.0699 L 106.113,68.1378
 L 105.958,68.2108 L 105.806,68.2888 L 105.657,68.3716 L 105.513,68.4591 L 105.372,68.5511 L 105.236,68.6478
 L 105.104,68.7491 L 104.977,68.8549 L 104.854,68.9654 L 104.734,69.0805 L 104.62,69.2002 L 104.509,69.3245
 L 104.403,69.4534 L 104.3,69.587 L 104.203,69.7251 L 104.109,69.8679 L 104.019,70.0152 L 103.934,70.1672
 L 103.939,69.7129 L 103.952,69.2722 L 103.975,68.8451 L 104.006,68.4316 L 104.046,68.0318 L 104.095,67.6455
 L 104.154,67.2729 L 104.221,66.9139 L 104.297,66.5685 L 104.382,66.2367 L 104.476,65.9186 L 104.579,65.614
 L 104.691,65.3231 L 104.812,65.0458 L 104.942,64.7821 L 105.08,64.532 L 105.227,64.2963 L 105.382,64.0759
 L 105.543,63.8706 L 105.712,63.6805 L 105.889,63.5057 L 106.072,63.346 L 106.263,63.2016 L 106.462,63.0724
 L 106.668,62.9583 L 106.881,62.8595 L 107.102,62.7759 L 107.329,62.7074 L 107.565,62.6542 L 107.807,62.6162
 L 108.057,62.5934 L 108.315,62.5858 L 108.612,62.5949 L 108.895,62.6223 L 109.165,62.6678 L 109.422,62.7316
 L 109.665,62.8136 L 109.895,62.9138 L 110.112,63.0323 L 110.315,63.169 L 110.505,63.3239 L 110.682,63.497
 L 110.845,63.6883 L 110.995,63.8979 L 111.132,64.1257 L 111.255,64.3717 L 111.365,64.6359 L 111.461,64.9184
 L 113.794,64.498 L 113.641,64.0267 L 113.463,63.5857 L 113.26,63.1752 L 113.031,62.7951 L 112.778,62.4454
 L 112.5,62.1261 L 112.197,61.8372 L 111.868,61.5787 L 111.515,61.3506 L 111.137,61.153 L 110.734,60.9857
 L 110.305,60.8489 L 109.852,60.7424 L 109.374,60.6664 L 108.87,60.6208 L 108.342,60.6056 L 107.938,60.616
 L 107.545,60.6471 L 107.164,60.6991 L 106.795,60.7718 L 106.438,60.8652 L 106.092,60.9794 L 105.758,61.1144
 L 105.436,61.2702 L 105.126,61.4467 L 104.827,61.644 L 104.541,61.8621 L 104.266,62.101 L 104.002,62.3606
 L 103.751,62.6409 L 103.511,62.9421 L 103.283,63.264 L 103.068,63.6053 L 102.867,63.9646 L 102.68,64.3419
 L 102.506,64.7372 L 102.346,65.1505 L 102.201,65.5819 L 102.069,66.0312 L 101.951,66.4986 L 101.847,66.984
 L 101.757,67.4874 L 101.68,68.0088 L 101.618,68.5482 L 101.569,69.1056 L 101.534,69.6811 L 101.514,70.2745
 L 101.507,70.886 L 101.513,71.4505 L 101.533,71.9979 L 101.567,72.5283 L 101.613,73.0416 L 101.674,73.5379
 L 101.747,74.0171 L 101.834,74.4792 L 101.934,74.9243 L 102.047,75.3523 L 102.174,75.7633 L 102.314,76.1572
 L 102.468,76.534 L 102.635,76.8938 L 102.815,77.2365 L 103.009,77.5622 L 103.215,77.8708 L 103.435,78.1615
 L 103.666,78.4334 L 103.91,78.6866 L 104.165,78.921 L 104.432,79.1366 L 104.711,79.3336 L 105.001,79.5117
 L 105.304,79.6711 L 105.619,79.8118 L 105.945,79.9337 L 106.283,80.0368 L 106.633,80.1212 L 106.995,80.1868
 L 107.369,80.2337 L 107.755,80.2618 L 108.152,80.2712 z
M 107.86,78.2991 L 107.653,78.2826 L 107.452,78.255 L 107.255,78.2165 L 107.063,78.1669 L 106.876,78.1063
 L 106.694,78.0347 L 106.516,77.952 L 106.344,77.8584 L 106.176,77.7537 L 106.013,77.638 L 105.855,77.5113
 L 105.701,77.3735 L 105.553,77.2248 L 105.409,77.065 L 105.27,76.8942 L 105.138,76.7148 L 105.014,76.5291
 L 104.899,76.3371 L 104.793,76.1389 L 104.694,75.9345 L 104.605,75.7238 L 104.524,75.5068 L 104.451,75.2836
 L 104.387,75.0542 L 104.332,74.8185 L 104.285,74.5765 L 104.247,74.3283 L 104.217,74.0739 L 104.196,73.8132
 L 104.183,73.5462 L 104.178,73.273 L 104.183,73.0573 L 104.195,72.8474 L 104.215,72.6434 L 104.244,72.4453
 L 104.281,72.253 L 104.326,72.0667 L 104.38,71.8862 L 104.441,71.7116 L 104.511,71.5429 L 104.589,71.3801
 L 104.675,71.2231 L 104.77,71.0721 L 104.872,70.9269 L 104.983,70.7876 L 105.102,70.6541 L 105.229,70.5266
 L 105.363,70.4059 L 105.503,70.293 L 105.647,70.1879 L 105.796,70.0905 L 105.951,70.0009 L 106.11,69.9192
 L 106.275,69.8452 L 106.445,69.779 L 106.62,69.7206 L 106.8,69.67 L 106.986,69.6272 L 107.176,69.5921
 L 107.372,69.5648 L 107.573,69.5454 L 107.778,69.5337 L 107.989,69.5298 L 108.214,69.5342 L 108.431,69.5474
 L 108.643,69.5694 L 108.848,69.6002 L 109.047,69.6398 L 109.24,69.6881 L 109.427,69.7453 L 109.607,69.8113
 L 109.781,69.886 L 109.949,69.9696 L 110.11,70.0619 L 110.265,70.1631 L 110.415,70.273 L 110.557,70.3918
 L 110.694,70.5193 L 110.824,70.6556 L 110.947,70.8 L 111.062,70.9518 L 111.17,71.1111 L 111.269,71.2777
 L 111.361,71.4518 L 111.444,71.6333 L 111.519,71.8222 L 111.587,72.0186 L 111.647,72.2223 L 111.698,72.4335
 L 111.742,72.6521 L 111.778,72.8781 L 111.806,73.1115 L 111.825,73.3523 L 111.837,73.6005 L 111.841,73.8562
 L 111.837,74.1121 L 111.826,74.3611 L 111.806,74.6031 L 111.779,74.8382 L 111.743,75.0663 L 111.7,75.2876
 L 111.649,75.5018 L 111.59,75.7092 L 111.524,75.9095 L 111.449,76.103 L 111.367,76.2895 L 111.277,76.4691
 L 111.179,76.6417 L 111.073,76.8074 L 110.959,76.9662 L 110.837,77.118 L 110.709,77.2617 L 110.575,77.3961
 L 110.434,77.5213 L 110.288,77.6371 L 110.136,77.7438 L 109.978,77.8411 L 109.814,77.9292 L 109.644,78.008
 L 109.468,78.0775 L 109.286,78.1377 L 109.099,78.1887 L 108.905,78.2304 L 108.705,78.2629 L 108.5,78.2861
 L 108.288,78.3 L 108.071,78.3046 z
M 0.444199,79.9945 L 0.840866,79.9779 L 1.2262,79.9502 L 1.60017,79.9114 L 1.96283,79.8616 L 2.31413,79.8007
 L 2.65411,79.7287 L 2.98274,79.6457 L 3.30003,79.5516 L 3.60599,79.4464 L 3.9006,79.3302 L 4.18388,79.2028
 L 4.45581,79.0644 L 4.71642,78.915 L 4.96567,78.7544 L 5.2036,78.5828 L 5.42859,78.4012 L 5.63907,78.2108
 L 5.83502,78.0115 L 6.01646,77.8033 L 6.1834,77.5863 L 6.33582,77.3605 L 6.47371,77.1258 L 6.59709,76.8823
 L 6.70596,76.6299 L 6.80031,76.3687 L 6.88014,76.0986 L 6.94547,75.8197 L 6.99628,75.532 L 7.03256,75.2354
 L 7.05434,74.9299 L 7.0616,74.6156 L 7.05678,74.3792 L 7.04231,74.1478 L 7.0182,73.9217 L 6.98445,73.7006
 L 6.94107,73.4847 L 6.88803,73.274 L 6.82536,73.0683 L 6.75304,72.8679 L 6.67108,72.6725 L 6.57948,72.4823
 L 6.47824,72.2972 L 6.36736,72.1173 L 6.24683,71.9425 L 6.11665,71.7729 L 5.97685,71.6084 L 5.82739,71.449
 L 5.66904,71.296 L 5.50253,71.1507 L 5.32785,71.0131 L 5.14503,70.8832 L 4.95404,70.7609 L 4.7549,70.6463
 L 4.54761,70.5394 L 4.33214,70.4402 L 4.10852,70.3487 L 3.87675,70.2648 L 3.63683,70.1886 L 3.38873,70.1202
 L 3.13248,70.0593 L 2.86807,70.0062 L 2.59552,69.9608 L 2.31479,69.923 L 2.52872,69.8709 L 2.7365,69.8128
 L 2.93814,69.7489 L 3.13364,69.6789 L 3.32298,69.6031 L 3.50618,69.5213 L 3.68323,69.4336 L 3.85414,69.3399
 L 4.01891,69.2403 L 4.17752,69.1348 L 4.33,69.0233 L 4.47633,68.9059 L 4.61652,68.7826 L 4.75055,68.6533
 L 4.87845,68.5181 L 5.0002,68.377 L 5.11516,68.2308 L 5.2227,68.0803 L 5.32285,67.9256 L 5.41556,67.7667
 L 5.50085,67.6035 L 5.57874,67.4361 L 5.6492,67.2645 L 5.71225,67.0886 L 5.76787,66.9084 L 5.81609,66.7241
 L 5.85687,66.5354 L 5.89026,66.3426 L 5.91621,66.1455 L 5.93475,65.9442 L 5.94588,65.7386 L 5.94958,65.5288
 L 5.92331,64.9671 L 5.84448,64.4417 L 5.71309,63.9525 L 5.52916,63.4995 L 5.29266,63.0828 L 5.0036,62.7023
 L 4.662,62.358 L 4.26784,62.05 L 3.82112,61.7782 L 3.32185,61.5427 L 2.77003,61.3434 L 2.16565,61.1803
 L 1.50873,61.0535 L 0.79924,60.9629 L 0.0371857,60.9085 L -0.777405,60.8904 L -7.72141,60.8904 L -7.72141,80
 L 0.0361938,80 z
M -5.13101,69.0144 L -5.13101,62.9654 L -0.777405,62.9654 L -0.530212,62.968 L -0.290436,62.9758 L -0.0580902,62.9888
 L 0.166855,63.0069 L 0.384384,63.0303 L 0.594482,63.0589 L 0.797165,63.0926 L 0.992447,63.1316 L 1.1803,63.1757
 L 1.36073,63.225 L 1.53375,63.2795 L 1.69936,63.3392 L 1.85754,63.4041 L 2.0083,63.4742 L 2.15166,63.5495
 L 2.2876,63.63 L 2.41571,63.7165 L 2.53557,63.8099 L 2.64714,63.9102 L 2.75047,64.0174 L 2.84552,64.1315
 L 2.93231,64.2524 L 3.01083,64.3803 L 3.08109,64.515 L 3.14308,64.6566 L 3.19681,64.8051 L 3.24228,64.9605
 L 3.27946,65.1228 L 3.3084,65.292 L 3.32906,65.468 L 3.34146,65.651 L 3.3456,65.8408 L 3.3416,66.0393
 L 3.32959,66.2312 L 3.30959,66.4167 L 3.28159,66.5956 L 3.24559,66.768 L 3.2016,66.9339 L 3.1496,67.0933
 L 3.0896,67.2462 L 3.02159,67.3925 L 2.94559,67.5323 L 2.86159,67.6657 L 2.76959,67.7925 L 2.66959,67.9128
 L 2.5616,68.0266 L 2.44559,68.1339 L 2.32159,68.2346 L 2.18948,68.329 L 2.04916,68.4174 L 1.90065,68.4996
 L 1.74391,68.5758 L 1.57895,68.6458 L 1.40579,68.7098 L 1.22443,68.7677 L 1.03484,68.8195 L 0.837051,68.8651
 L 0.631042,68.9048 L 0.416824,68.9382 L 0.194412,68.9657 L -0.0362244,68.987 L -0.275085,69.0022 L -0.522141,69.0114
 L -0.777405,69.0144 z
M -5.13101,77.925 L -5.13101,71.0352 L -0.302811,71.0352 L 0.272003,71.0484 L 0.809723,71.088 L 1.31036,71.1539
 L 1.77391,71.2463 L 2.20039,71.365 L 2.58977,71.5101 L 2.94208,71.6816 L 3.25729,71.8795 L 3.53543,72.1037
 L 3.77647,72.3544 L 3.98044,72.6314 L 4.14732,72.9348 L 4.27711,73.2646 L 4.36983,73.6207 L 4.42545,74.0033
 L 4.44398,74.4122 L 4.43976,74.6275 L 4.42703,74.836 L 4.40585,75.0378 L 4.37617,75.2328 L 4.33803,75.4209
 L 4.29141,75.6023 L 4.23631,75.777 L 4.17274,75.9448 L 4.10069,76.1059 L 4.02016,76.2601 L 3.93117,76.4076
 L 3.83368,76.5484 L 3.72772,76.6823 L 3.6133,76.8094 L 3.49037,76.9298 L 3.35899,77.0434 L 3.21834,77.1502
 L 3.06761,77.25 L 2.90681,77.343 L 2.73596,77.4291 L 2.55505,77.5083 L 2.36406,77.5806 L 2.16301,77.6461
 L 1.95189,77.7046 L 1.73071,77.7563 L 1.49947,77.801 L 1.25815,77.8389 L 1.00677,77.8699 L 0.745316,77.894
 L 0.473816,77.9112 L 0.19223,77.9216 L -0.099411,77.925 z
M 42.6336,72.3508 L 42.6367,72.0501 L 42.6461,71.7582 L 42.6617,71.4751 L 42.6836,71.2009 L 42.7117,70.9356
 L 42.7461,70.6791 L 42.7868,70.4314 L 42.8336,70.1926 L 42.8868,69.9627 L 42.9462,69.7416 L 43.0118,69.5293
 L 43.0837,69.3259 L 43.1618,69.1314 L 43.2462,68.9457 L 43.3369,68.7688 L 43.4338,68.6008 L 43.5366,68.4423
 L 43.6451,68.2941 L 43.7591,68.156 L 43.8788,68.0282 L 44.0041,67.9106 L 44.135,67.8033 L 44.2716,67.7061
 L 44.4137,67.6192 L 44.5615,67.5425 L 44.7148,67.4761 L 44.8738,67.4198 L 45.0384,67.3738 L 45.2086,67.338
 L 45.3845,67.3125 L 45.5659,67.2971 L 45.753,67.292 L 45.8534,67.2925 L 45.9513,67.2941 L 46.0467,67.2968
 L 46.1395,67.3005 L 46.2297,67.3053 L 46.3175,67.3111 L 46.4026,67.318 L 46.4853,67.3259 L 46.5654,67.3349
 L 46.643,67.345 L 46.718,67.3561 L 46.7905,67.3683 L 46.8604,67.3815 L 46.9278,67.3958 L 46.9927,67.4112
 L 47.055,67.4276 L 47.055,65.1898 L 46.9923,65.1734 L 46.9297,65.158 L 46.8672,65.1437 L 46.8049,65.1305
 L 46.7426,65.1183 L 46.6804,65.1072 L 46.6184,65.0971 L 46.5564,65.0881 L 46.4946,65.0802 L 46.4329,65.0733
 L 46.3713,65.0674 L 46.3098,65.0627 L 46.2484,65.059 L 46.1871,65.0563 L 46.1259,65.0547 L 46.0648,65.0542
 L 45.8943,65.0569 L 45.7287,65.065 L 45.5679,65.0785 L 45.4121,65.0974 L 45.2611,65.1217 L 45.115,65.1515
 L 44.9737,65.1866 L 44.8373,65.2271 L 44.7058,65.273 L 44.5792,65.3244 L 44.4575,65.3811 L 44.3406,65.4432
 L 44.2286,65.5108 L 44.1214,65.5837 L 44.0192,65.6621 L 43.9218,65.7458 L 43.8276,65.8369 L 43.7347,65.9374
 L 43.6432,66.0471 L 43.5531,66.1662 L 43.4644,66.2946 L 43.377,66.4324 L 43.291,66.5794 L 43.2065,66.7358
 L 43.1232,66.9015 L 43.0414,67.0766 L 42.9609,67.2609 L 42.8818,67.4546 L 42.8041,67.6576 L 42.7278,67.87
 L 42.6528,68.0916 L 42.5792,68.3226 L 42.525,68.3226 L 42.5246,68.2521 L 42.5233,68.166 L 42.5212,68.0643
 L 42.5182,67.9471 L 42.5144,67.8143 L 42.5098,67.6659 L 42.5043,67.5019 L 42.4979,67.3224 L 42.4907,67.1273
 L 42.4827,66.9166 L 42.4738,66.6903 L 42.464,66.4485 L 42.4534,66.1911 L 42.442,65.9181 L 42.4297,65.6295
 L 42.4166,65.3254 L 40.111,65.3254 L 40.1208,65.5581 L 40.13,65.7882 L 40.1386,66.0158 L 40.1465,66.2409
 L 40.1538,66.4634 L 40.1605,66.6833 L 40.1665,66.9008 L 40.1719,67.1157 L 40.1767,67.328 L 40.1808,67.5378
 L 40.1843,67.7451 L 40.1871,67.9498 L 40.1893,68.1519 L 40.1909,68.3516 L 40.1919,68.5487 L 40.1922,68.7432
 L 40.1922,80 L 42.6336,80 z
M 66.7535,71.4964 L 66.7575,71.2322 L 66.7694,70.9753 L 66.7893,70.7257 L 66.8171,70.4834 L 66.8529,70.2484
 L 66.8966,70.0208 L 66.9482,69.8004 L 67.0078,69.5874 L 67.0754,69.3817 L 67.1509,69.1833 L 67.2343,68.9922
 L 67.3257,68.8084 L 67.425,68.6319 L 67.5323,68.4628 L 67.6475,68.3009 L 67.7707,68.1464 L 67.9008,68.0002
 L 68.0367,67.8635 L 68.1784,67.7362 L 68.3259,67.6183 L 68.4793,67.5099 L 68.6385,67.4109 L 68.8035,67.3213
 L 68.9744,67.2412 L 69.151,67.1704 L 69.3335,67.1091 L 69.5219,67.0573 L 69.716,67.0148 L 69.916,66.9818
 L 70.1218,66.9583 L 70.3335,66.9441 L 70.5509,66.9394 L 70.6995,66.9408 L 70.8436,66.9449 L 70.983,66.9518
 L 71.118,66.9614 L 71.2483,66.9738 L 71.3742,66.989 L 71.4954,67.0069 L 71.6121,67.0276 L 71.7243,67.051
 L 71.8319,67.0771 L 71.9349,67.1061 L 72.0334,67.1377 L 72.1273,67.1722 L 72.2167,67.2094 L 72.3015,67.2493
 L 72.3817,67.292 L 72.4584,67.3378 L 72.5324,67.3871 L 72.6038,67.44 L 72.6725,67.4963 L 72.7386,67.5561
 L 72.802,67.6194 L 72.8628,67.6862 L 72.9209,67.7565 L 72.9764,67.8303 L 73.0292,67.9076 L 73.0794,67.9884
 L 73.1269,68.0727 L 73.1718,68.1605 L 73.214,68.2518 L 73.2536,68.3465 L 73.2905,68.4448 L 73.325,68.5474
 L 73.3573,68.655 L 73.3873,68.7678 L 73.4151,68.8856 L 73.4407,69.0085 L 73.4641,69.1365 L 73.4852,69.2696
 L 73.5041,69.4078 L 73.5208,69.551 L 73.5353,69.6994 L 73.5475,69.8528 L 73.5575,70.0113 L 73.5653,70.1749
 L 73.5709,70.3436 L 73.5742,70.5173 L 73.5753,70.6962 L 73.5753,80 L 76.0301,80 L 76.0301,70.2214
 L 76.0258,69.8817 L 76.0126,69.5542 L 75.9908,69.2389 L 75.9602,68.9359 L 75.9208,68.6451 L 75.8728,68.3666
 L 75.8159,68.1003 L 75.7504,67.8463 L 75.6761,67.6044 L 75.593,67.3749 L 75.5012,67.1575 L 75.4007,66.9524
 L 75.2914,66.7596 L 75.1734,66.5789 L 75.0466,66.4106 L 74.9111,66.2544 L 74.7662,66.1091 L 74.6112,65.9731
 L 74.446,65.8465 L 74.2708,65.7293 L 74.0854,65.6215 L 73.8899,65.523 L 73.6843,65.434 L 73.4685,65.3543
 L 73.2427,65.2839 L 73.0067,65.223 L 72.7606,65.1714 L 72.5044,65.1292 L 72.238,65.0964 L 71.9616,65.073
 L 71.675,65.0589 L 71.3783,65.0542 L 71.1753,65.0567 L 70.9764,65.0641 L 70.7817,65.0764 L 70.5912,65.0936
 L 70.4049,65.1158 L 70.2228,65.1429 L 70.0448,65.1749 L 69.8711,65.2119 L 69.7015,65.2537 L 69.5361,65.3005
 L 69.3749,65.3523 L 69.2179,65.4089 L 69.0651,65.4705 L 68.9164,65.537 L 68.772,65.6084 L 68.6317,65.6848
 L 68.4946,65.7671 L 68.3596,65.8563 L 68.2266,65.9525 L 68.0956,66.0556 L 67.9668,66.1657 L 67.84,66.2827
 L 67.7153,66.4066 L 67.5926,66.5375 L 67.472,66.6753 L 67.3535,66.8201 L 67.237,66.9718 L 67.1227,67.1304
 L 67.0103,67.296 L 66.9001,67.4685 L 66.7919,67.648 L 66.6857,67.8344 L 66.6449,67.8344 L 66.6416,67.7032
 L 66.6383,67.5773 L 66.635,67.4567 L 66.6318,67.3415 L 66.6287,67.2317 L 66.6256,67.1272 L 66.6226,67.028
 L 66.6196,66.9343 L 66.6166,66.8458 L 66.6138,66.7627 L 66.6109,66.685 L 66.6081,66.6126 L 66.6054,66.5456
 L 66.6027,66.4839 L 66.6001,66.4276 L 66.5975,66.3766 L 66.5901,66.2347 L 66.5832,66.0991 L 66.5767,65.9696
 L 66.5727,65.8867 L 66.567,65.7676 L 66.5618,65.6552 L 66.5601,65.6206 L 66.5584,65.5878 L 66.5567,65.5568
 L 66.555,65.5276 L 66.5533,65.5002 L 66.5517,65.4746 L 66.55,65.4509 L 66.5483,65.4289 L 66.5466,65.4087
 L 66.5449,65.3903 L 66.5432,65.3737 L 66.5415,65.3589 L 66.5399,65.346 L 66.5382,65.3348 L 66.5365,65.3254
 L 64.2309,65.3254 L 64.2408,65.4044 L 64.25,65.499 L 64.2585,65.6091 L 64.2664,65.7348 L 64.2737,65.8761
 L 64.2804,66.033 L 64.2864,66.2054 L 64.2918,66.3935 L 64.2966,66.5971 L 64.3007,66.8162 L 64.3042,67.051
 L 64.3071,67.3013 L 64.3093,67.5672 L 64.3109,67.8487 L 64.3118,68.1458 L 64.3121,68.4584 L 64.3121,80
 L 66.7535,80 z
M 142.159,71.4964 L 142.163,71.229 L 142.174,70.9692 L 142.191,70.717 L 142.216,70.4724 L 142.248,70.2355
 L 142.287,70.0062 L 142.333,69.7846 L 142.387,69.5706 L 142.447,69.3642 L 142.514,69.1654 L 142.589,68.9743
 L 142.671,68.7907 L 142.759,68.6149 L 142.855,68.4466 L 142.958,68.286 L 143.068,68.133 L 143.184,67.9885
 L 143.305,67.8533 L 143.432,67.7274 L 143.563,67.6108 L 143.7,67.5036 L 143.841,67.4057 L 143.988,67.3171
 L 144.14,67.2378 L 144.296,67.1679 L 144.458,67.1073 L 144.625,67.056 L 144.797,67.014 L 144.974,66.9814
 L 145.157,66.9581 L 145.344,66.9441 L 145.536,66.9394 L 145.723,66.9426 L 145.902,66.9521 L 146.073,66.968
 L 146.237,66.9903 L 146.394,67.0189 L 146.544,67.0538 L 146.686,67.0952 L 146.822,67.1429 L 146.949,67.1969
 L 147.07,67.2573 L 147.183,67.3241 L 147.289,67.3972 L 147.387,67.4766 L 147.478,67.5625 L 147.562,67.6547
 L 147.639,67.7532 L 147.709,67.86 L 147.775,67.9772 L 147.837,68.1046 L 147.894,68.2422 L 147.946,68.3902
 L 147.994,68.5484 L 148.037,68.717 L 148.076,68.8958 L 148.11,69.0848 L 148.14,69.2842 L 148.165,69.4938
 L 148.185,69.7137 L 148.201,69.9439 L 148.213,70.1844 L 148.22,70.4352 L 148.222,70.6962 L 148.222,80
 L 150.636,80 L 150.636,71.4964 L 150.64,71.2274 L 150.65,70.9661 L 150.667,70.7126 L 150.692,70.4669
 L 150.723,70.229 L 150.761,69.9989 L 150.806,69.7766 L 150.858,69.5621 L 150.917,69.3553 L 150.983,69.1564
 L 151.056,68.9652 L 151.136,68.7818 L 151.222,68.6062 L 151.316,68.4384 L 151.417,68.2784 L 151.524,68.1262
 L 151.638,67.9825 L 151.757,67.8481 L 151.882,67.7229 L 152.013,67.607 L 152.149,67.5004 L 152.291,67.403
 L 152.438,67.3149 L 152.591,67.2361 L 152.749,67.1666 L 152.913,67.1063 L 153.082,67.0553 L 153.257,67.0136
 L 153.438,66.9811 L 153.624,66.9579 L 153.816,66.944 L 154.013,66.9394 L 154.199,66.9426 L 154.378,66.9521
 L 154.55,66.968 L 154.714,66.9903 L 154.871,67.0189 L 155.021,67.0538 L 155.163,67.0952 L 155.298,67.1429
 L 155.426,67.1969 L 155.546,67.2573 L 155.659,67.3241 L 155.765,67.3972 L 155.864,67.4766 L 155.955,67.5625
 L 156.039,67.6547 L 156.115,67.7532 L 156.186,67.86 L 156.252,67.9772 L 156.313,68.1046 L 156.37,68.2422
 L 156.423,68.3902 L 156.471,68.5484 L 156.514,68.717 L 156.553,68.8958 L 156.587,69.0848 L 156.616,69.2842
 L 156.641,69.4938 L 156.662,69.7137 L 156.678,69.9439 L 156.689,70.1844 L 156.696,70.4352 L 156.698,70.6962
 L 156.698,80 L 159.112,80 L 159.112,70.2214 L 159.109,69.8833 L 159.097,69.5573 L 159.077,69.2433
 L 159.049,68.9415 L 159.014,68.6517 L 158.97,68.3739 L 158.919,68.1083 L 158.86,67.8548 L 158.793,67.6133
 L 158.718,67.3839 L 158.635,67.1666 L 158.544,66.9613 L 158.445,66.7682 L 158.339,66.5871 L 158.224,66.4181
 L 158.102,66.2612 L 157.971,66.1151 L 157.83,65.9783 L 157.68,65.851 L 157.521,65.7331 L 157.352,65.6247
 L 157.174,65.5257 L 156.986,65.4361 L 156.788,65.356 L 156.581,65.2852 L 156.365,65.2239 L 156.139,65.1721
 L 155.904,65.1296 L 155.659,65.0966 L 155.405,65.0731 L 155.141,65.0589 L 154.867,65.0542 L 154.678,65.0567
 L 154.491,65.0644 L 154.309,65.0771 L 154.13,65.0949 L 153.954,65.1178 L 153.782,65.1458 L 153.613,65.1788
 L 153.448,65.217 L 153.287,65.2602 L 153.129,65.3085 L 152.975,65.3619 L 152.824,65.4204 L 152.677,65.484
 L 152.533,65.5526 L 152.393,65.6264 L 152.257,65.7052 L 152.123,65.7898 L 151.992,65.8809 L 151.864,65.9784
 L 151.737,66.0824 L 151.614,66.1929 L 151.493,66.3098 L 151.374,66.4332 L 151.258,66.563 L 151.145,66.6993
 L 151.033,66.8421 L 150.925,66.9913 L 150.819,67.147 L 150.715,67.3092 L 150.614,67.4778 L 150.515,67.6529
 L 150.419,67.8344 L 150.378,67.8344 L 150.328,67.6561 L 150.274,67.4839 L 150.215,67.3179 L 150.151,67.158
 L 150.083,67.0042 L 150.01,66.8567 L 149.933,66.7152 L 149.851,66.5799 L 149.764,66.4508 L 149.673,66.3278
 L 149.577,66.2109 L 149.477,66.1002 L 149.372,65.9956 L 149.262,65.8972 L 149.148,65.8049 L 149.029,65.7188
 L 148.905,65.6383 L 148.775,65.563 L 148.64,65.493 L 148.5,65.428 L 148.354,65.3683 L 148.203,65.3138
 L 148.047,65.2645 L 147.884,65.2204 L 147.717,65.1814 L 147.544,65.1477 L 147.365,65.1191 L 147.181,65.0957
 L 146.992,65.0776 L 146.797,65.0646 L 146.597,65.0568 L 146.391,65.0542 L 146.21,65.0566 L 146.032,65.0638
 L 145.857,65.0757 L 145.687,65.0924 L 145.519,65.1138 L 145.355,65.14 L 145.195,65.171 L 145.038,65.2068
 L 144.885,65.2473 L 144.735,65.2926 L 144.588,65.3427 L 144.446,65.3976 L 144.306,65.4572 L 144.17,65.5215
 L 144.038,65.5907 L 143.909,65.6646 L 143.783,65.7446 L 143.658,65.832 L 143.536,65.9268 L 143.415,66.0291
 L 143.296,66.1387 L 143.179,66.2558 L 143.063,66.3802 L 142.95,66.5122 L 142.838,66.6515 L 142.728,66.7982
 L 142.619,66.9524 L 142.513,67.114 L 142.408,67.2829 L 142.306,67.4593 L 142.204,67.6432 L 142.105,67.8344
 L 142.064,67.8344 L 142.061,67.7032 L 142.058,67.5773 L 142.055,67.4567 L 142.051,67.3415 L 142.048,67.2317
 L 142.045,67.1272 L 142.042,67.028 L 142.039,66.9343 L 142.036,66.8458 L 142.033,66.7627 L 142.03,66.685
 L 142.028,66.6126 L 142.025,66.5456 L 142.022,66.4839 L 142.02,66.4276 L 142.017,66.3766 L 142.012,66.2813
 L 142.005,66.1436 L 141.996,65.9696 L 141.99,65.8463 L 141.985,65.7292 L 141.981,65.6552 L 141.98,65.6206
 L 141.978,65.5878 L 141.976,65.5568 L 141.975,65.5276 L 141.973,65.5002 L 141.971,65.4746 L 141.969,65.4509
 L 141.968,65.4289 L 141.966,65.4087 L 141.964,65.3903 L 141.963,65.3737 L 141.961,65.3589 L 141.959,65.346
 L 141.958,65.3348 L 141.956,65.3254 L 139.65,65.3254 L 139.66,65.4044 L 139.669,65.499 L 139.678,65.6091
 L 139.686,65.7348 L 139.693,65.8761 L 139.7,66.033 L 139.706,66.2054 L 139.711,66.3935 L 139.716,66.5971
 L 139.72,66.8162 L 139.724,67.051 L 139.727,67.3013 L 139.729,67.5672 L 139.73,67.8487 L 139.731,68.1458
 L 139.732,68.4584 L 139.732,80 L 142.159,80 z
M 16.1536,80.2638 L 16.5392,80.2417 L 16.9127,80.2049 L 17.2743,80.1534 L 17.6239,80.0871 L 17.9615,80.0061
 L 18.2872,79.9104 L 18.6008,79.7999 L 18.9026,79.6747 L 19.1923,79.5348 L 19.4701,79.3802 L 19.7359,79.2108
 L 19.9897,79.0267 L 20.2316,78.8279 L 20.4614,78.6143 L 20.6794,78.386 L 20.8847,78.1427 L 21.0767,77.884
 L 21.2555,77.6099 L 21.4211,77.3205 L 21.5734,77.0157 L 21.7125,76.6956 L 21.8383,76.3601 L 21.9509,76.0092
 L 22.0502,75.643 L 22.1363,75.2614 L 22.2092,74.8644 L 22.2688,74.4521 L 22.3152,74.0244 L 22.3483,73.5814
 L 22.3681,73.123 L 22.3748,72.6492 L 22.3685,72.1706 L 22.35,71.708 L 22.319,71.2612 L 22.2756,70.8305
 L 22.2198,70.4157 L 22.1516,70.0168 L 22.071,69.6339 L 21.978,69.267 L 21.8726,68.9159 L 21.7548,68.5809
 L 21.6246,68.2618 L 21.4821,67.9586 L 21.3271,67.6714 L 21.1597,67.4001 L 20.9799,67.1448 L 20.7878,66.9054
 L 20.5825,66.6812 L 20.3633,66.4715 L 20.1302,66.2763 L 19.8833,66.0955 L 19.6225,65.9292 L 19.3478,65.7773
 L 19.0592,65.6399 L 18.7568,65.517 L 18.4405,65.4085 L 18.1103,65.3145 L 17.7662,65.235 L 17.4082,65.1699
 L 17.0364,65.1193 L 16.6506,65.0831 L 16.251,65.0614 L 15.8376,65.0542 L 15.041,65.0839 L 14.2959,65.1729
 L 13.6021,65.3212 L 12.9598,65.5289 L 12.3688,65.7959 L 11.8292,66.1223 L 11.341,66.5079 L 10.9042,66.953
 L 10.5188,67.4573 L 10.1848,68.021 L 9.90211,68.644 L 9.67087,69.3264 L 9.491,70.0681 L 9.36253,70.8691
 L 9.28545,71.7295 L 9.25975,72.6492 L 9.26616,73.1052 L 9.28539,73.5476 L 9.31744,73.9763 L 9.36232,74.3915
 L 9.42,74.793 L 9.49052,75.181 L 9.57385,75.5553 L 9.67,75.916 L 9.77898,76.263 L 9.90077,76.5965
 L 10.0354,76.9164 L 10.1828,77.2226 L 10.3431,77.5152 L 10.5161,77.7942 L 10.702,78.0596 L 10.9008,78.3114
 L 11.112,78.5487 L 11.3356,78.7707 L 11.5715,78.9774 L 11.8197,79.1688 L 12.0801,79.3449 L 12.3529,79.5057
 L 12.6379,79.6511 L 12.9352,79.7812 L 13.2448,79.8961 L 13.5667,79.9956 L 13.9009,80.0798 L 14.2474,80.1487
 L 14.6061,80.2023 L 14.9772,80.2406 L 15.3605,80.2635 L 15.7561,80.2712 z
M 15.4806,78.4617 L 15.2406,78.4446 L 15.0091,78.4162 L 14.7859,78.3763 L 14.5712,78.325 L 14.365,78.2624
 L 14.1671,78.1883 L 13.9777,78.1029 L 13.7967,78.0061 L 13.6241,77.8979 L 13.46,77.7783 L 13.3042,77.6473
 L 13.1569,77.5049 L 13.0181,77.3511 L 12.8876,77.186 L 12.7655,77.0094 L 12.6514,76.8215 L 12.5446,76.6223
 L 12.4452,76.4119 L 12.3532,76.1901 L 12.2685,75.9571 L 12.1912,75.7128 L 12.1212,75.4572 L 12.0586,75.1904
 L 12.0034,74.9122 L 11.9555,74.6228 L 11.915,74.3221 L 11.8819,74.01 L 11.8561,73.6868 L 11.8377,73.3522
 L 11.8266,73.0063 L 11.823,72.6492 L 11.8267,72.2824 L 11.8379,71.9279 L 11.8566,71.5858 L 11.8827,71.2561
 L 11.9163,70.9386 L 11.9574,70.6336 L 12.006,70.3408 L 12.062,70.0605 L 12.1255,69.7924 L 12.1965,69.5367
 L 12.2749,69.2934 L 12.3608,69.0624 L 12.4542,68.8437 L 12.555,68.6374 L 12.6634,68.4434 L 12.7791,68.2618
 L 12.9033,68.0918 L 13.0367,67.9328 L 13.1794,67.7847 L 13.3314,67.6476 L 13.4927,67.5215 L 13.6632,67.4064
 L 13.843,67.3022 L 14.032,67.209 L 14.2303,67.1267 L 14.4379,67.0554 L 14.6548,66.9951 L 14.8809,66.9457
 L 15.1163,66.9074 L 15.361,66.8799 L 15.6149,66.8635 L 15.8782,66.858 L 16.1395,66.8634 L 16.3913,66.8795
 L 16.6335,66.9064 L 16.8661,66.944 L 17.0891,66.9924 L 17.3026,67.0516 L 17.5064,67.1215 L 17.7007,67.2022
 L 17.8853,67.2936 L 18.0604,67.3957 L 18.2258,67.5087 L 18.3817,67.6323 L 18.528,67.7668 L 18.6647,67.912
 L 18.7918,68.0679 L 18.9093,68.2346 L 19.0186,68.4132 L 19.1208,68.6047 L 19.2159,68.8092 L 19.304,69.0267
 L 19.385,69.2572 L 19.459,69.5007 L 19.526,69.7571 L 19.5858,70.0266 L 19.6387,70.309 L 19.6845,70.6043
 L 19.7233,70.9127 L 19.755,71.234 L 19.7796,71.5684 L 19.7973,71.9157 L 19.8078,72.2759 L 19.8114,72.6492
 L 19.8077,73.0177 L 19.7966,73.3737 L 19.7782,73.7174 L 19.7524,74.0486 L 19.7193,74.3675 L 19.6788,74.674
 L 19.6309,74.9681 L 19.5757,75.2498 L 19.5131,75.519 L 19.4431,75.7759 L 19.3658,76.0204 L 19.2811,76.2525
 L 19.1891,76.4723 L 19.0897,76.6796 L 18.9829,76.8745 L 18.8688,77.057 L 18.746,77.2278 L 18.6135,77.3876
 L 18.4712,77.5363 L 18.319,77.6741 L 18.1571,77.8008 L 17.9854,77.9165 L 17.8038,78.0211 L 17.6125,78.1148
 L 17.4114,78.1974 L 17.2004,78.2691 L 16.9797,78.3297 L 16.7491,78.3793 L 16.5088,78.4178 L 16.2587,78.4454
 L 15.9987,78.4619 L 15.729,78.4674 z
M 164.756,71.4964 L 164.76,71.229 L 164.771,70.9692 L 164.788,70.717 L 164.813,70.4724 L 164.845,70.2355
 L 164.884,70.0062 L 164.93,69.7846 L 164.983,69.5706 L 165.044,69.3642 L 165.111,69.1654 L 165.186,68.9743
 L 165.267,68.7907 L 165.356,68.6149 L 165.452,68.4466 L 165.555,68.286 L 165.665,68.133 L 165.781,67.9885
 L 165.902,67.8533 L 166.029,67.7274 L 166.16,67.6108 L 166.296,67.5036 L 166.438,67.4057 L 166.585,67.3171
 L 166.736,67.2378 L 166.893,67.1679 L 167.055,67.1073 L 167.222,67.056 L 167.394,67.014 L 167.571,66.9814
 L 167.754,66.9581 L 167.941,66.9441 L 168.133,66.9394 L 168.32,66.9426 L 168.498,66.9521 L 168.67,66.968
 L 168.834,66.9903 L 168.991,67.0189 L 169.141,67.0538 L 169.283,67.0952 L 169.418,67.1429 L 169.546,67.1969
 L 169.667,67.2573 L 169.78,67.3241 L 169.885,67.3972 L 169.984,67.4766 L 170.075,67.5625 L 170.159,67.6547
 L 170.236,67.7532 L 170.306,67.86 L 170.372,67.9772 L 170.434,68.1046 L 170.491,68.2422 L 170.543,68.3902
 L 170.591,68.5484 L 170.634,68.717 L 170.673,68.8958 L 170.707,69.0848 L 170.737,69.2842 L 170.762,69.4938
 L 170.782,69.7137 L 170.798,69.9439 L 170.81,70.1844 L 170.816,70.4352 L 170.819,70.6962 L 170.819,80
 L 173.233,80 L 173.233,71.4964 L 173.236,71.2274 L 173.247,70.9661 L 173.264,70.7126 L 173.288,70.4669
 L 173.32,70.229 L 173.358,69.9989 L 173.403,69.7766 L 173.455,69.5621 L 173.514,69.3553 L 173.58,69.1564
 L 173.653,68.9652 L 173.733,68.7818 L 173.819,68.6062 L 173.913,68.4384 L 174.014,68.2784 L 174.121,68.1262
 L 174.235,67.9825 L 174.354,67.8481 L 174.479,67.7229 L 174.61,67.607 L 174.746,67.5004 L 174.888,67.403
 L 175.035,67.3149 L 175.188,67.2361 L 175.346,67.1666 L 175.51,67.1063 L 175.679,67.0553 L 175.854,67.0136
 L 176.035,66.9811 L 176.221,66.9579 L 176.413,66.944 L 176.61,66.9394 L 176.796,66.9426 L 176.975,66.9521
 L 177.147,66.968 L 177.311,66.9903 L 177.468,67.0189 L 177.618,67.0538 L 177.76,67.0952 L 177.895,67.1429
 L 178.023,67.1969 L 178.143,67.2573 L 178.256,67.3241 L 178.362,67.3972 L 178.461,67.4766 L 178.552,67.5625
 L 178.636,67.6547 L 178.712,67.7532 L 178.783,67.86 L 178.849,67.9772 L 178.91,68.1046 L 178.967,68.2422
 L 179.02,68.3902 L 179.068,68.5484 L 179.111,68.717 L 179.15,68.8958 L 179.184,69.0848 L 179.213,69.2842
 L 179.238,69.4938 L 179.259,69.7137 L 179.275,69.9439 L 179.286,70.1844 L 179.293,70.4352 L 179.295,70.6962
 L 179.295,80 L 181.709,80 L 181.709,70.2214 L 181.705,69.8833 L 181.694,69.5573 L 181.674,69.2433
 L 181.646,68.9415 L 181.611,68.6517 L 181.567,68.3739 L 181.516,68.1083 L 181.457,67.8548 L 181.39,67.6133
 L 181.315,67.3839 L 181.232,67.1666 L 181.141,66.9613 L 181.042,66.7682 L 180.936,66.5871 L 180.821,66.4181
 L 180.699,66.2612 L 180.568,66.1151 L 180.427,65.9783 L 180.277,65.851 L 180.118,65.7331 L 179.949,65.6247
 L 179.77,65.5257 L 179.583,65.4361 L 179.385,65.356 L 179.178,65.2852 L 178.962,65.2239 L 178.736,65.1721
 L 178.501,65.1296 L 178.256,65.0966 L 178.001,65.0731 L 177.738,65.0589 L 177.464,65.0542 L 177.275,65.0567
 L 177.088,65.0644 L 176.906,65.0771 L 176.726,65.0949 L 176.551,65.1178 L 176.379,65.1458 L 176.21,65.1788
 L 176.045,65.217 L 175.884,65.2602 L 175.726,65.3085 L 175.572,65.3619 L 175.421,65.4204 L 175.274,65.484
 L 175.13,65.5526 L 174.99,65.6264 L 174.854,65.7052 L 174.72,65.7898 L 174.589,65.8809 L 174.46,65.9784
 L 174.334,66.0824 L 174.211,66.1929 L 174.09,66.3098 L 173.971,66.4332 L 173.855,66.563 L 173.741,66.6993
 L 173.63,66.8421 L 173.522,66.9913 L 173.416,67.147 L 173.312,67.3092 L 173.211,67.4778 L 173.112,67.6529
 L 173.016,67.8344 L 172.975,67.8344 L 172.925,67.6561 L 172.871,67.4839 L 172.812,67.3179 L 172.748,67.158
 L 172.68,67.0042 L 172.607,66.8567 L 172.53,66.7152 L 172.448,66.5799 L 172.361,66.4508 L 172.27,66.3278
 L 172.174,66.2109 L 172.074,66.1002 L 171.968,65.9956 L 171.859,65.8972 L 171.744,65.8049 L 171.626,65.7188
 L 171.502,65.6383 L 171.372,65.563 L 171.237,65.493 L 171.097,65.428 L 170.951,65.3683 L 170.8,65.3138
 L 170.643,65.2645 L 170.481,65.2204 L 170.314,65.1814 L 170.141,65.1477 L 169.962,65.1191 L 169.778,65.0957
 L 169.589,65.0776 L 169.394,65.0646 L 169.194,65.0568 L 168.988,65.0542 L 168.806,65.0566 L 168.629,65.0638
 L 168.454,65.0757 L 168.283,65.0924 L 168.116,65.1138 L 167.952,65.14 L 167.792,65.171 L 167.635,65.2068
 L 167.482,65.2473 L 167.332,65.2926 L 167.185,65.3427 L 167.042,65.3976 L 166.903,65.4572 L 166.767,65.5215
 L 166.635,65.5907 L 166.506,65.6646 L 166.38,65.7446 L 166.255,65.832 L 166.133,65.9268 L 166.012,66.0291
 L 165.893,66.1387 L 165.775,66.2558 L 165.66,66.3802 L 165.546,66.5122 L 165.435,66.6515 L 165.325,66.7982
 L 165.216,66.9524 L 165.11,67.114 L 165.005,67.2829 L 164.902,67.4593 L 164.801,67.6432 L 164.702,67.8344
 L 164.661,67.8344 L 164.658,67.7032 L 164.655,67.5773 L 164.651,67.4567 L 164.648,67.3415 L 164.645,67.2317
 L 164.642,67.1272 L 164.639,67.028 L 164.636,66.9343 L 164.633,66.8458 L 164.63,66.7627 L 164.627,66.685
 L 164.625,66.6126 L 164.622,66.5456 L 164.619,66.4839 L 164.617,66.4276 L 164.614,66.3766 L 164.607,66.2347
 L 164.6,66.0991 L 164.593,65.9696 L 164.587,65.8463 L 164.582,65.7292 L 164.578,65.6552 L 164.577,65.6206
 L 164.575,65.5878 L 164.573,65.5568 L 164.571,65.5276 L 164.57,65.5002 L 164.568,65.4746 L 164.566,65.4509
 L 164.565,65.4289 L 164.563,65.4087 L 164.561,65.3903 L 164.56,65.3737 L 164.558,65.3589 L 164.556,65.346
 L 164.555,65.3348 L 164.553,65.3254 L 162.247,65.3254 L 162.257,65.4044 L 162.266,65.499 L 162.275,65.6091
 L 162.283,65.7348 L 162.29,65.8761 L 162.297,66.033 L 162.303,66.2054 L 162.308,66.3935 L 162.313,66.5971
 L 162.317,66.8162 L 162.321,67.051 L 162.323,67.3013 L 162.326,67.5672 L 162.327,67.8487 L 162.328,68.1458
 L 162.329,68.4584 L 162.329,80 L 164.756,80 z
M 85.649,85.7398 L 86.345,85.6674 L 86.993,85.5466 L 87.593,85.3775 L 88.1449,85.16 L 88.6489,84.8943
 L 89.1049,84.5803 L 89.5129,84.2179 L 89.8729,83.8072 L 90.1849,83.3482 L 90.4489,82.8409 L 90.6649,82.2853
 L 90.8329,81.6813 L 90.9529,81.0291 L 91.0248,80.3285 L 91.0488,79.5796 L 91.0488,68.3634 L 91.0492,68.0814
 L 91.0501,67.8116 L 91.0517,67.5541 L 91.0539,67.3089 L 91.0568,67.076 L 91.0603,66.8554 L 91.0644,66.6471
 L 91.0692,66.4511 L 91.0746,66.2674 L 91.0806,66.0959 L 91.0873,65.9368 L 91.0946,65.7899 L 91.1026,65.6554
 L 91.1112,65.5331 L 91.1204,65.4231 L 91.1302,65.3254 L 88.8111,65.3254 L 88.8043,65.3408 L 88.7975,65.3634
 L 88.7907,65.393 L 88.784,65.4297 L 88.7772,65.4735 L 88.7704,65.5244 L 88.7636,65.5824 L 88.7569,65.6476
 L 88.7501,65.7198 L 88.7433,65.7991 L 88.7365,65.8855 L 88.7297,65.979 L 88.723,66.0796 L 88.7162,66.1873
 L 88.7094,66.3021 L 88.7026,66.424 L 88.6961,66.5471 L 88.6899,66.6656 L 88.6842,66.7794 L 88.6789,66.8885
 L 88.6741,66.993 L 88.6696,67.0928 L 88.6656,67.1879 L 88.662,67.2784 L 88.6588,67.3642 L 88.6561,67.4454
 L 88.6537,67.5219 L 88.6518,67.5937 L 88.6503,67.6609 L 88.6493,67.7234 L 88.6487,67.7812 L 88.6484,67.8344
 L 88.6212,67.8344 L 88.5412,67.6723 L 88.4571,67.5149 L 88.369,67.3623 L 88.2767,67.2143 L 88.1804,67.0711
 L 88.0799,66.9326 L 87.9754,66.7988 L 87.8668,66.6697 L 87.7542,66.5453 L 87.6374,66.4257 L 87.5166,66.3108
 L 87.3917,66.2005 L 87.2627,66.095 L 87.1296,65.9942 L 86.9925,65.8982 L 86.8512,65.8068 L 86.7064,65.7206
 L 86.5583,65.6399 L 86.407,65.5648 L 86.2524,65.4953 L 86.0946,65.4313 L 85.9336,65.3729 L 85.7693,65.3201
 L 85.6018,65.2728 L 85.4311,65.2311 L 85.2572,65.1949 L 85.08,65.1643 L 84.8996,65.1393 L 84.716,65.1198
 L 84.5291,65.1059 L 84.339,65.0976 L 84.1456,65.0948 L 83.8036,65.102 L 83.4727,65.1237 L 83.1528,65.1599
 L 82.844,65.2105 L 82.5463,65.2756 L 82.2597,65.3552 L 81.9841,65.4492 L 81.7196,65.5577 L 81.4662,65.6806
 L 81.2238,65.818 L 80.9925,65.9699 L 80.7723,66.1362 L 80.5632,66.317 L 80.3651,66.5123 L 80.1782,66.722
 L 80.0022,66.9462 L 79.8372,67.1856 L 79.6828,67.4409 L 79.539,67.7122 L 79.4059,67.9994 L 79.2835,68.3025
 L 79.1717,68.6217 L 79.0705,68.9567 L 78.98,69.3077 L 78.9001,69.6747 L 78.8309,70.0576 L 78.7724,70.4564
 L 78.7244,70.8712 L 78.6872,71.3019 L 78.6605,71.7486 L 78.6446,72.2112 L 78.6392,72.6898 L 78.6442,73.1616
 L 78.6591,73.6174 L 78.6838,74.0571 L 78.7185,74.4809 L 78.7631,74.8887 L 78.8176,75.2805 L 78.8819,75.6563
 L 78.9562,76.0161 L 79.0405,76.3598 L 79.1346,76.6876 L 79.2386,76.9994 L 79.3525,77.2952 L 79.4763,77.575
 L 79.6101,77.8388 L 79.7537,78.0866 L 79.9072,78.3184 L 80.0714,78.5352 L 80.2466,78.738 L 80.4331,78.9268
 L 80.6308,79.1016 L 80.8396,79.2625 L 81.0596,79.4093 L 81.2908,79.5422 L 81.5331,79.6611 L 81.7867,79.7659
 L 82.0514,79.8569 L 82.3273,79.9338 L 82.6144,79.9967 L 82.9126,80.0457 L 83.222,80.0806 L 83.5427,80.1016
 L 83.8745,80.1086 L 84.0746,80.1058 L 84.2715,80.0975 L 84.4653,80.0836 L 84.6559,80.0641 L 84.8433,80.0391
 L 85.0276,80.0085 L 85.2086,79.9723 L 85.3866,79.9306 L 85.5612,79.8833 L 85.7328,79.8305 L 85.9011,79.7721
 L 86.0663,79.7081 L 86.2283,79.6386 L 86.3871,79.5635 L 86.5428,79.4828 L 86.6953,79.3966 L 86.8441,79.3049
 L 86.989,79.2076 L 87.1298,79.105 L 87.2666,78.9969 L 87.3994,78.8833 L 87.5281,78.7643 L 87.6528,78.6398
 L 87.7735,78.5099 L 87.8902,78.3745 L 88.0028,78.2336 L 88.1114,78.0873 L 88.216,77.9356 L 88.3166,77.7784
 L 88.4131,77.6157 L 88.5056,77.4476 L 88.594,77.274 L 88.6212,77.274 L 88.6212,79.6338 L 88.607,80.1511
 L 88.5642,80.6351 L 88.493,81.0857 L 88.3932,81.5029 L 88.265,81.8867 L 88.1082,82.2372 L 87.9229,82.5542
 L 87.7091,82.8379 L 87.4669,83.0883 L 87.1961,83.3052 L 86.8968,83.4888 L 86.569,83.639 L 86.2127,83.7558
 L 85.8279,83.8392 L 85.4146,83.8893 L 84.9728,83.906 L 84.8054,83.9038 L 84.642,83.8974 L 84.4826,83.8867
 L 84.3274,83.8717 L 84.1762,83.8523 L 84.0291,83.8287 L 83.8861,83.8008 L 83.7471,83.7686 L 83.6123,83.7322
 L 83.4815,83.6914 L 83.3548,83.6463 L 83.2322,83.597 L 83.1136,83.5433 L 82.9991,83.4854 L 82.8888,83.4231
 L 82.7824,83.3566 L 82.6805,83.2861 L 82.5832,83.212 L 82.4904,83.1342 L 82.4023,83.0527 L 82.3188,82.9676
 L 82.2399,82.8789 L 82.1656,82.7865 L 82.0959,82.6904 L 82.0309,82.5907 L 81.9704,82.4873 L 81.9146,82.3802
 L 81.8633,82.2695 L 81.8167,82.1552 L 81.7747,82.0372 L 81.7372,81.9155 L 81.7044,81.7902 L 79.2495,82.1428
 L 79.3043,82.3567 L 79.3671,82.5644 L 79.4378,82.7659 L 79.5165,82.9612 L 79.6031,83.1503 L 79.6977,83.3332
 L 79.8002,83.5099 L 79.9107,83.6804 L 80.0291,83.8448 L 80.1555,84.0029 L 80.2898,84.1548 L 80.432,84.3005
 L 80.5822,84.44 L 80.7403,84.5733 L 80.9064,84.7005 L 81.0804,84.8214 L 81.2623,84.9355 L 81.4517,85.0423
 L 81.6488,85.1417 L 81.8535,85.2338 L 82.0658,85.3185 L 82.2858,85.3958 L 82.5134,85.4657 L 82.7486,85.5283
 L 82.9914,85.5836 L 83.2419,85.6314 L 83.5,85.6719 L 83.7658,85.7051 L 84.0392,85.7309 L 84.3202,85.7493
 L 84.6088,85.7603 L 84.905,85.764 z
M 84.4637,78.2995 L 84.2346,78.2841 L 84.0144,78.2584 L 83.8031,78.2224 L 83.6008,78.1761 L 83.4073,78.1196
 L 83.2227,78.0528 L 83.047,77.9758 L 82.8803,77.8884 L 82.7224,77.7908 L 82.5734,77.6829 L 82.4333,77.5647
 L 82.3022,77.4362 L 82.1799,77.2975 L 82.0665,77.1485 L 81.9621,76.9892 L 81.8651,76.8181 L 81.7745,76.6338
 L 81.6901,76.4362 L 81.612,76.2254 L 81.5401,76.0014 L 81.4744,75.7641 L 81.415,75.5135 L 81.3619,75.2498
 L 81.315,74.9727 L 81.2744,74.6824 L 81.24,74.3789 L 81.2119,74.0621 L 81.19,73.7321 L 81.1743,73.3889
 L 81.165,73.0324 L 81.1618,72.6626 L 81.1652,72.2894 L 81.1752,71.9294 L 81.1919,71.5825 L 81.2152,71.2487
 L 81.2453,70.9281 L 81.282,70.6206 L 81.3254,70.3263 L 81.3754,70.0451 L 81.4322,69.777 L 81.4956,69.5221
 L 81.5657,69.2803 L 81.6424,69.0516 L 81.7259,68.8361 L 81.816,68.6337 L 81.9128,68.4445 L 82.0163,68.2684
 L 82.127,68.1042 L 82.2457,67.9505 L 82.3724,67.8075 L 82.507,67.6751 L 82.6496,67.5532 L 82.8001,67.442
 L 82.9586,67.3413 L 83.125,67.2513 L 83.2994,67.1718 L 83.4817,67.1029 L 83.6719,67.0446 L 83.8701,66.997
 L 84.0763,66.9599 L 84.2904,66.9334 L 84.5124,66.9175 L 84.7424,66.9122 L 84.8822,66.9149 L 85.0201,66.9229
 L 85.1562,66.9363 L 85.2904,66.955 L 85.4228,66.9791 L 85.5533,67.0085 L 85.6819,67.0433 L 85.8087,67.0835
 L 85.9336,67.129 L 86.0567,67.1798 L 86.1779,67.236 L 86.2973,67.2975 L 86.4148,67.3644 L 86.5305,67.4367
 L 86.6443,67.5143 L 86.7562,67.5972 L 86.8657,67.6852 L 86.9721,67.7779 L 87.0753,67.8755 L 87.1754,67.9778
 L 87.2724,68.0848 L 87.3663,68.1966 L 87.457,68.3132 L 87.5446,68.4346 L 87.6291,68.5607 L 87.7104,68.6917
 L 87.7886,68.8273 L 87.8637,68.9678 L 87.9357,69.113 L 88.0045,69.2629 L 88.0703,69.4177 L 88.1328,69.5772
 L 88.192,69.741 L 88.2473,69.9087 L 88.2988,70.0803 L 88.3465,70.2558 L 88.3904,70.435 L 88.4305,70.6182
 L 88.4667,70.8053 L 88.4991,70.9962 L 88.5278,71.1909 L 88.5526,71.3896 L 88.5735,71.5921 L 88.5907,71.7984
 L 88.6041,72.0087 L 88.6136,72.2228 L 88.6193,72.4408 L 88.6212,72.6626 L 88.6193,72.8794 L 88.6136,73.0925
 L 88.6041,73.3018 L 88.5907,73.5073 L 88.5735,73.7091 L 88.5526,73.9071 L 88.5278,74.1014 L 88.4991,74.2919
 L 88.4667,74.4786 L 88.4305,74.6616 L 88.3904,74.8408 L 88.3465,75.0162 L 88.2988,75.1879 L 88.2473,75.3558
 L 88.192,75.52 L 88.1328,75.6804 L 88.0702,75.8366 L 88.0044,75.9882 L 87.9355,76.1352 L 87.8633,76.2775
 L 87.788,76.4153 L 87.7095,76.5485 L 87.6278,76.677 L 87.5429,76.801 L 87.4548,76.9203 L 87.3636,77.035
 L 87.2692,77.1451 L 87.1716,77.2506 L 87.0708,77.3515 L 86.9669,77.4478 L 86.8598,77.5395 L 86.7495,77.6266
 L 86.6366,77.7087 L 86.5217,77.7855 L 86.4048,77.857 L 86.2858,77.9232 L 86.1649,77.9841 L 86.0419,78.0398
 L 85.917,78.0901 L 85.79,78.1351 L 85.661,78.1748 L 85.53,78.2093 L 85.397,78.2384 L 85.2619,78.2622
 L 85.1249,78.2808 L 84.9858,78.294 L 84.8447,78.302 L 84.7016,78.3046 z
M 53.9586,80.2687 L 54.1575,80.2613 L 54.3521,80.249 L 54.5426,80.2318 L 54.7289,80.2096 L 54.911,80.1825
 L 55.089,80.1505 L 55.2627,80.1135 L 55.4323,80.0717 L 55.5976,80.0249 L 55.7588,79.9731 L 55.9158,79.9165
 L 56.0686,79.8549 L 56.2173,79.7884 L 56.3617,79.717 L 56.502,79.6406 L 56.6391,79.5583 L 56.7742,79.4691
 L 56.9072,79.3729 L 57.0382,79.2698 L 57.167,79.1597 L 57.2938,79.0427 L 57.4186,78.9188 L 57.5412,78.7879
 L 57.6618,78.6501 L 57.7804,78.5053 L 57.8969,78.3536 L 58.0113,78.195 L 58.1236,78.0294 L 58.2339,77.8569
 L 58.3421,77.6774 L 58.4482,77.491 L 58.4888,77.491 L 58.4922,77.6223 L 58.4955,77.7482 L 58.4987,77.8687
 L 58.502,77.9839 L 58.5051,78.0938 L 58.5082,78.1983 L 58.5113,78.2974 L 58.5143,78.3912 L 58.5172,78.4797
 L 58.5201,78.5628 L 58.5229,78.6405 L 58.5257,78.7129 L 58.5284,78.78 L 58.531,78.8417 L 58.5336,78.898
 L 58.5362,78.949 L 58.5436,79.0908 L 58.5527,79.2703 L 58.559,79.3976 L 58.5649,79.5188 L 58.5719,79.6702
 L 58.5736,79.7048 L 58.5753,79.7376 L 58.577,79.7686 L 58.5787,79.7978 L 58.5804,79.8252 L 58.5821,79.8508
 L 58.5838,79.8746 L 58.5855,79.8965 L 58.5872,79.9167 L 58.5889,79.9351 L 58.5906,79.9517 L 58.5923,79.9665
 L 58.594,79.9795 L 58.5957,79.9906 L 58.5974,80 L 60.903,80 L 60.8931,79.921 L 60.8839,79.8265
 L 60.8753,79.7163 L 60.8674,79.5906 L 60.8601,79.4493 L 60.8534,79.2924 L 60.8474,79.12 L 60.8419,78.932
 L 60.8372,78.7284 L 60.833,78.5092 L 60.8295,78.2744 L 60.8267,78.0241 L 60.8245,77.7582 L 60.8229,77.4767
 L 60.8219,77.1796 L 60.8216,76.867 L 60.8216,65.3254 L 58.3804,65.3254 L 58.3804,73.829 L 58.3764,74.0932
 L 58.3645,74.3501 L 58.3446,74.5997 L 58.3168,74.842 L 58.2811,75.077 L 58.2374,75.3046 L 58.1857,75.525
 L 58.1261,75.738 L 58.0585,75.9437 L 57.983,76.1421 L 57.8996,76.3332 L 57.8082,76.517 L 57.7089,76.6935
 L 57.6016,76.8626 L 57.4864,77.0245 L 57.3632,77.179 L 57.2331,77.3252 L 57.0972,77.4619 L 56.9555,77.5892
 L 56.808,77.7071 L 56.6546,77.8155 L 56.4954,77.9145 L 56.3304,78.0041 L 56.1595,78.0843 L 55.9828,78.155
 L 55.8003,78.2163 L 55.6119,78.2681 L 55.4178,78.3106 L 55.2178,78.3436 L 55.0119,78.3671 L 54.8003,78.3813
 L 54.5828,78.386 L 54.4342,78.3846 L 54.2902,78.3805 L 54.1507,78.3736 L 54.0157,78.364 L 53.8854,78.3516
 L 53.7595,78.3364 L 53.6383,78.3185 L 53.5215,78.2979 L 53.4094,78.2744 L 53.3018,78.2483 L 53.1987,78.2193
 L 53.1002,78.1877 L 53.0063,78.1532 L 52.9169,78.116 L 52.8321,78.0761 L 52.7518,78.0334 L 52.6751,77.9876
 L 52.6012,77.9383 L 52.5298,77.8855 L 52.4611,77.8291 L 52.395,77.7693 L 52.3316,77.706 L 52.2709,77.6392
 L 52.2128,77.5689 L 52.1573,77.4951 L 52.1045,77.4178 L 52.0543,77.337 L 52.0068,77.2527 L 51.9619,77.1649
 L 51.9197,77.0737 L 51.8801,76.9789 L 51.8432,76.8806 L 51.8087,76.778 L 51.7764,76.6704 L 51.7464,76.5576
 L 51.7186,76.4398 L 51.693,76.3169 L 51.6696,76.1889 L 51.6485,76.0558 L 51.6296,75.9177 L 51.6129,75.7744
 L 51.5984,75.6261 L 51.5862,75.4726 L 51.5762,75.3141 L 51.5684,75.1505 L 51.5629,74.9818 L 51.5595,74.8081
 L 51.5584,74.6292 L 51.5584,65.3254 L 49.1036,65.3254 L 49.1036,75.104 L 49.108,75.4437 L 49.1211,75.7712
 L 49.1429,76.0864 L 49.1735,76.3894 L 49.2129,76.6802 L 49.2609,76.9587 L 49.3177,77.225 L 49.3833,77.4791
 L 49.4576,77.7209 L 49.5406,77.9505 L 49.6324,78.1678 L 49.7329,78.3729 L 49.8422,78.5658 L 49.9602,78.7464
 L 50.0869,78.9148 L 50.2224,79.071 L 50.3673,79.2163 L 50.5224,79.3523 L 50.6876,79.4789 L 50.8629,79.5961
 L 51.0483,79.7039 L 51.2438,79.8024 L 51.4494,79.8915 L 51.6652,79.9712 L 51.8911,80.0415 L 52.1271,80.1024
 L 52.3732,80.154 L 52.6294,80.1962 L 52.8958,80.229 L 53.1723,80.2524 L 53.4589,80.2665 L 53.7556,80.2712
 z
M 120.363,77.0298 L 117.719,77.0298 L 117.719,80 L 120.363,80 z
" stroke="black" fill="lightgray" stroke-width="0.5"/>
</svg>
