<?xml version="1.0" standalone="no"?>
<!DOCTYPE svg PUBLIC "-//W3C//DTD SVG 1.1//EN" "http://www.w3.org/Graphics/SVG/1.1/DTD/svg11.dtd">
<svg width="975mm" height="725mm" viewBox="-20 -255 975 725" xmlns="http://www.w3.org/2000/svg" version="1.1">
<title>OpenSCAD Model</title>
<path d="
M 368.269,-234.739 L 368.662,-234.768 L 369.042,-234.817 L 369.41,-234.886 L 369.766,-234.975 L 370.109,-235.084
 L 370.439,-235.212 L 370.757,-235.359 L 371.062,-235.527 L 371.355,-235.714 L 371.635,-235.921 L 371.902,-236.148
 L 372.157,-236.394 L 372.4,-236.66 L 372.63,-236.946 L 372.847,-237.251 L 373.052,-237.576 L 373.243,-237.917
 L 373.421,-238.277 L 373.586,-238.654 L 373.738,-239.049 L 373.876,-239.462 L 374.001,-239.892 L 374.113,-240.34
 L 374.212,-240.806 L 374.298,-241.289 L 374.371,-241.791 L 374.43,-242.309 L 374.476,-242.846 L 374.509,-243.4
 L 374.529,-243.972 L 374.536,-244.562 L 374.529,-245.161 L 374.511,-245.742 L 374.479,-246.304 L 374.435,-246.847
 L 374.379,-247.372 L 374.31,-247.878 L 374.228,-248.365 L 374.134,-248.834 L 374.027,-249.284 L 373.908,-249.715
 L 373.776,-250.128 L 373.632,-250.522 L 373.475,-250.898 L 373.305,-251.255 L 373.123,-251.593 L 372.928,-251.912
 L 372.721,-252.213 L 372.499,-252.494 L 372.264,-252.756 L 372.014,-252.998 L 371.751,-253.221 L 371.474,-253.425
 L 371.184,-253.609 L 370.879,-253.774 L 370.561,-253.919 L 370.228,-254.045 L 369.882,-254.152 L 369.522,-254.239
 L 369.149,-254.307 L 368.761,-254.356 L 368.36,-254.385 L 367.944,-254.394 L 367.518,-254.385 L 367.106,-254.356
 L 366.708,-254.308 L 366.325,-254.241 L 365.957,-254.155 L 365.603,-254.049 L 365.263,-253.925 L 364.939,-253.781
 L 364.628,-253.618 L 364.333,-253.435 L 364.052,-253.234 L 363.785,-253.014 L 363.533,-252.774 L 363.296,-252.515
 L 363.073,-252.237 L 362.865,-251.94 L 362.671,-251.623 L 362.489,-251.287 L 362.319,-250.932 L 362.162,-250.558
 L 362.018,-250.164 L 361.886,-249.751 L 361.767,-249.319 L 361.66,-248.868 L 361.566,-248.397 L 361.484,-247.907
 L 361.415,-247.398 L 361.358,-246.869 L 361.315,-246.321 L 361.283,-245.754 L 361.264,-245.167 L 361.258,-244.562
 L 361.264,-243.969 L 361.284,-243.394 L 361.316,-242.837 L 361.361,-242.298 L 361.42,-241.778 L 361.491,-241.275
 L 361.575,-240.79 L 361.672,-240.323 L 361.782,-239.875 L 361.904,-239.444 L 362.04,-239.031 L 362.189,-238.636
 L 362.35,-238.26 L 362.525,-237.901 L 362.712,-237.56 L 362.913,-237.238 L 363.126,-236.934 L 363.352,-236.65
 L 363.591,-236.385 L 363.843,-236.14 L 364.107,-235.915 L 364.384,-235.709 L 364.675,-235.523 L 364.978,-235.356
 L 365.293,-235.209 L 365.622,-235.082 L 365.963,-234.974 L 366.318,-234.886 L 366.685,-234.817 L 367.065,-234.768
 L 367.457,-234.739 L 367.863,-234.729 z
M 367.623,-236.73 L 367.366,-236.752 L 367.118,-236.789 L 366.878,-236.84 L 366.648,-236.906 L 366.428,-236.988
 L 366.216,-237.083 L 366.013,-237.194 L 365.82,-237.319 L 365.636,-237.459 L 365.461,-237.613 L 365.295,-237.783
 L 365.138,-237.967 L 364.991,-238.166 L 364.852,-238.379 L 364.723,-238.608 L 364.603,-238.852 L 364.49,-239.113
 L 364.384,-239.391 L 364.287,-239.687 L 364.198,-239.999 L 364.116,-240.329 L 364.042,-240.675 L 363.976,-241.039
 L 363.917,-241.419 L 363.867,-241.817 L 363.824,-242.232 L 363.789,-242.664 L 363.761,-243.113 L 363.742,-243.579
 L 363.73,-244.062 L 363.726,-244.562 L 363.73,-245.076 L 363.742,-245.572 L 363.761,-246.05 L 363.788,-246.509
 L 363.822,-246.95 L 363.865,-247.373 L 363.915,-247.777 L 363.972,-248.162 L 364.038,-248.53 L 364.111,-248.878
 L 364.191,-249.208 L 364.279,-249.52 L 364.376,-249.814 L 364.479,-250.089 L 364.591,-250.345 L 364.71,-250.583
 L 364.838,-250.805 L 364.975,-251.012 L 365.123,-251.205 L 365.281,-251.384 L 365.448,-251.549 L 365.626,-251.699
 L 365.813,-251.835 L 366.01,-251.956 L 366.217,-252.064 L 366.434,-252.157 L 366.661,-252.235 L 366.898,-252.3
 L 367.145,-252.35 L 367.401,-252.386 L 367.668,-252.407 L 367.944,-252.414 L 368.214,-252.407 L 368.474,-252.385
 L 368.725,-252.349 L 368.965,-252.298 L 369.196,-252.233 L 369.418,-252.153 L 369.629,-252.059 L 369.831,-251.95
 L 370.023,-251.826 L 370.206,-251.688 L 370.379,-251.536 L 370.542,-251.369 L 370.695,-251.188 L 370.839,-250.992
 L 370.973,-250.781 L 371.098,-250.556 L 371.213,-250.315 L 371.322,-250.056 L 371.423,-249.779 L 371.516,-249.485
 L 371.602,-249.172 L 371.68,-248.842 L 371.751,-248.494 L 371.815,-248.129 L 371.871,-247.745 L 371.919,-247.344
 L 371.96,-246.924 L 371.994,-246.487 L 372.02,-246.033 L 372.039,-245.56 L 372.05,-245.07 L 372.054,-244.562
 L 372.05,-244.071 L 372.038,-243.597 L 372.019,-243.139 L 371.991,-242.697 L 371.956,-242.271 L 371.913,-241.861
 L 371.862,-241.467 L 371.803,-241.09 L 371.736,-240.728 L 371.662,-240.383 L 371.579,-240.053 L 371.489,-239.74
 L 371.391,-239.443 L 371.285,-239.162 L 371.172,-238.897 L 371.05,-238.648 L 370.92,-238.415 L 370.781,-238.197
 L 370.633,-237.994 L 370.476,-237.806 L 370.31,-237.633 L 370.135,-237.475 L 369.951,-237.332 L 369.758,-237.204
 L 369.556,-237.091 L 369.345,-236.993 L 369.125,-236.91 L 368.896,-236.843 L 368.658,-236.79 L 368.411,-236.752
 L 368.155,-236.73 L 367.89,-236.722 z
M 353.182,-234.739 L 353.575,-234.768 L 353.956,-234.817 L 354.324,-234.886 L 354.679,-234.975 L 355.022,-235.084
 L 355.353,-235.212 L 355.67,-235.359 L 355.976,-235.527 L 356.268,-235.714 L 356.548,-235.921 L 356.816,-236.148
 L 357.071,-236.394 L 357.313,-236.66 L 357.543,-236.946 L 357.761,-237.251 L 357.965,-237.576 L 358.156,-237.917
 L 358.334,-238.277 L 358.499,-238.654 L 358.651,-239.049 L 358.79,-239.462 L 358.915,-239.892 L 359.027,-240.34
 L 359.126,-240.806 L 359.212,-241.289 L 359.284,-241.791 L 359.344,-242.309 L 359.39,-242.846 L 359.423,-243.4
 L 359.443,-243.972 L 359.449,-244.562 L 359.443,-245.161 L 359.424,-245.742 L 359.393,-246.304 L 359.349,-246.847
 L 359.292,-247.372 L 359.223,-247.878 L 359.141,-248.365 L 359.047,-248.834 L 358.941,-249.284 L 358.821,-249.715
 L 358.689,-250.128 L 358.545,-250.522 L 358.388,-250.898 L 358.219,-251.255 L 358.037,-251.593 L 357.842,-251.912
 L 357.634,-252.213 L 357.413,-252.494 L 357.177,-252.756 L 356.928,-252.998 L 356.665,-253.221 L 356.388,-253.425
 L 356.097,-253.609 L 355.792,-253.774 L 355.474,-253.919 L 355.142,-254.045 L 354.796,-254.152 L 354.436,-254.239
 L 354.062,-254.307 L 353.675,-254.356 L 353.273,-254.385 L 352.858,-254.394 L 352.431,-254.385 L 352.019,-254.356
 L 351.621,-254.308 L 351.238,-254.241 L 350.87,-254.155 L 350.516,-254.049 L 350.177,-253.925 L 349.852,-253.781
 L 349.542,-253.618 L 349.246,-253.435 L 348.965,-253.234 L 348.699,-253.014 L 348.447,-252.774 L 348.21,-252.515
 L 347.987,-252.237 L 347.779,-251.94 L 347.584,-251.623 L 347.402,-251.287 L 347.233,-250.932 L 347.076,-250.558
 L 346.931,-250.164 L 346.799,-249.751 L 346.68,-249.319 L 346.573,-248.868 L 346.479,-248.397 L 346.398,-247.907
 L 346.328,-247.398 L 346.272,-246.869 L 346.228,-246.321 L 346.197,-245.754 L 346.178,-245.167 L 346.172,-244.562
 L 346.178,-243.969 L 346.197,-243.394 L 346.23,-242.837 L 346.275,-242.298 L 346.333,-241.778 L 346.404,-241.275
 L 346.488,-240.79 L 346.585,-240.323 L 346.695,-239.875 L 346.818,-239.444 L 346.954,-239.031 L 347.102,-238.636
 L 347.264,-238.26 L 347.438,-237.901 L 347.626,-237.56 L 347.826,-237.238 L 348.039,-236.934 L 348.265,-236.65
 L 348.504,-236.385 L 348.756,-236.14 L 349.021,-235.915 L 349.298,-235.709 L 349.588,-235.523 L 349.891,-235.356
 L 350.207,-235.209 L 350.535,-235.082 L 350.877,-234.974 L 351.231,-234.886 L 351.598,-234.817 L 351.978,-234.768
 L 352.371,-234.739 L 352.777,-234.729 z
M 352.537,-236.73 L 352.279,-236.752 L 352.031,-236.789 L 351.792,-236.84 L 351.562,-236.906 L 351.341,-236.988
 L 351.129,-237.083 L 350.927,-237.194 L 350.733,-237.319 L 350.549,-237.459 L 350.374,-237.613 L 350.208,-237.783
 L 350.052,-237.967 L 349.904,-238.166 L 349.766,-238.379 L 349.637,-238.608 L 349.516,-238.852 L 349.403,-239.113
 L 349.298,-239.391 L 349.201,-239.687 L 349.111,-239.999 L 349.029,-240.329 L 348.955,-240.675 L 348.889,-241.039
 L 348.831,-241.419 L 348.78,-241.817 L 348.737,-242.232 L 348.702,-242.664 L 348.675,-243.113 L 348.655,-243.579
 L 348.644,-244.062 L 348.64,-244.562 L 348.644,-245.076 L 348.655,-245.572 L 348.674,-246.05 L 348.701,-246.509
 L 348.736,-246.95 L 348.778,-247.373 L 348.828,-247.777 L 348.886,-248.162 L 348.951,-248.53 L 349.024,-248.878
 L 349.105,-249.208 L 349.193,-249.52 L 349.289,-249.814 L 349.393,-250.089 L 349.504,-250.345 L 349.623,-250.583
 L 349.751,-250.805 L 349.889,-251.012 L 350.036,-251.205 L 350.194,-251.384 L 350.362,-251.549 L 350.539,-251.699
 L 350.726,-251.835 L 350.924,-251.956 L 351.131,-252.064 L 351.348,-252.157 L 351.575,-252.235 L 351.811,-252.3
 L 352.058,-252.35 L 352.315,-252.386 L 352.581,-252.407 L 352.858,-252.414 L 353.128,-252.407 L 353.388,-252.385
 L 353.638,-252.349 L 353.879,-252.298 L 354.11,-252.233 L 354.331,-252.153 L 354.543,-252.059 L 354.745,-251.95
 L 354.937,-251.826 L 355.119,-251.688 L 355.292,-251.536 L 355.455,-251.369 L 355.609,-251.188 L 355.753,-250.992
 L 355.887,-250.781 L 356.011,-250.556 L 356.127,-250.315 L 356.235,-250.056 L 356.336,-249.779 L 356.429,-249.485
 L 356.515,-249.172 L 356.594,-248.842 L 356.665,-248.494 L 356.728,-248.129 L 356.784,-247.745 L 356.833,-247.344
 L 356.874,-246.924 L 356.908,-246.487 L 356.934,-246.033 L 356.952,-245.56 L 356.964,-245.07 L 356.967,-244.562
 L 356.963,-244.071 L 356.952,-243.597 L 356.932,-243.139 L 356.905,-242.697 L 356.869,-242.271 L 356.826,-241.861
 L 356.775,-241.467 L 356.716,-241.09 L 356.65,-240.728 L 356.575,-240.383 L 356.493,-240.053 L 356.403,-239.74
 L 356.305,-239.443 L 356.199,-239.162 L 356.085,-238.897 L 355.964,-238.648 L 355.834,-238.415 L 355.695,-238.197
 L 355.547,-237.994 L 355.39,-237.806 L 355.224,-237.633 L 355.049,-237.475 L 354.865,-237.332 L 354.672,-237.204
 L 354.47,-237.091 L 354.259,-236.993 L 354.039,-236.91 L 353.81,-236.843 L 353.572,-236.79 L 353.325,-236.752
 L 353.069,-236.73 L 352.804,-236.722 z
M 337.502,-235.33 L 337.509,-235.658 L 337.521,-235.986 L 337.538,-236.311 L 337.559,-236.636 L 337.585,-236.959
 L 337.616,-237.28 L 337.651,-237.601 L 337.691,-237.919 L 337.736,-238.237 L 337.785,-238.553 L 337.84,-238.868
 L 337.898,-239.181 L 337.962,-239.493 L 338.031,-239.804 L 338.104,-240.113 L 338.181,-240.422 L 338.264,-240.731
 L 338.351,-241.041 L 338.443,-241.351 L 338.54,-241.662 L 338.641,-241.974 L 338.747,-242.286 L 338.858,-242.598
 L 338.974,-242.911 L 339.094,-243.225 L 339.219,-243.539 L 339.348,-243.854 L 339.483,-244.169 L 339.622,-244.485
 L 339.766,-244.801 L 339.914,-245.118 L 340.072,-245.442 L 340.243,-245.782 L 340.427,-246.137 L 340.625,-246.507
 L 340.837,-246.892 L 341.062,-247.292 L 341.3,-247.708 L 341.552,-248.139 L 341.817,-248.584 L 342.096,-249.045
 L 342.388,-249.522 L 342.694,-250.013 L 343.013,-250.519 L 343.345,-251.041 L 343.691,-251.578 L 344.051,-252.129
 L 344.051,-254.11 L 331.424,-254.11 L 331.424,-252.035 L 341.691,-252.035 L 341.245,-251.38 L 340.815,-250.735
 L 340.401,-250.099 L 340.004,-249.473 L 339.622,-248.857 L 339.258,-248.25 L 338.909,-247.653 L 338.577,-247.065
 L 338.26,-246.488 L 337.961,-245.919 L 337.677,-245.36 L 337.41,-244.811 L 337.159,-244.271 L 336.924,-243.741
 L 336.705,-243.221 L 336.503,-242.71 L 336.315,-242.206 L 336.139,-241.704 L 335.975,-241.206 L 335.824,-240.71
 L 335.684,-240.218 L 335.557,-239.728 L 335.442,-239.242 L 335.339,-238.758 L 335.248,-238.278 L 335.169,-237.801
 L 335.102,-237.326 L 335.047,-236.855 L 335.005,-236.387 L 334.975,-235.921 L 334.956,-235.459 L 334.95,-235
 L 337.5,-235 z
M 1,-140 L 70.7107,-140 L 70.7107,-60 L 71.7107,-60 L 71.7107,-140 L 629.289,-140
 L 629.289,-60 L 630.289,-60 L 630.289,-140 L 700,-140 L 700,-60 L 701,-60
 L 701,-140 L 720,-140 L 720,-141 L 701,-141 L 701,-220 L 720,-220
 L 720,-221 L 701,-221 L 701,-240 L 700,-240 L 700,-221 L 1,-221
 L 1,-240 L 0,-240 L 0,-221 L -20,-221 L -20,-220 L 0,-220
 L 0,-141 L -20,-141 L -20,-140 L 0,-140 L 0,-60 L 1,-60
 z
M 1,-141 L 1,-220 L 700,-220 L 700,-141 L 630.289,-141 L 630.289,-160
 L 629.289,-160 L 629.289,-141 L 71.7107,-141 L 71.7107,-160 L 70.7107,-160 L 70.7107,-141
 z
M 368.291,-154.735 L 368.667,-154.752 L 369.032,-154.781 L 369.385,-154.821 L 369.727,-154.873 L 370.058,-154.937
 L 370.377,-155.012 L 370.684,-155.098 L 370.98,-155.197 L 371.265,-155.306 L 371.538,-155.427 L 371.799,-155.56
 L 372.05,-155.705 L 372.289,-155.861 L 372.516,-156.028 L 372.732,-156.207 L 372.936,-156.396 L 373.126,-156.595
 L 373.303,-156.802 L 373.468,-157.019 L 373.619,-157.245 L 373.757,-157.48 L 373.882,-157.724 L 373.993,-157.977
 L 374.092,-158.239 L 374.177,-158.511 L 374.249,-158.791 L 374.309,-159.081 L 374.355,-159.379 L 374.387,-159.687
 L 374.407,-160.004 L 374.414,-160.33 L 374.41,-160.563 L 374.398,-160.791 L 374.378,-161.015 L 374.35,-161.233
 L 374.314,-161.447 L 374.271,-161.655 L 374.219,-161.859 L 374.159,-162.058 L 374.092,-162.251 L 374.016,-162.44
 L 373.933,-162.624 L 373.841,-162.803 L 373.742,-162.977 L 373.635,-163.146 L 373.52,-163.311 L 373.396,-163.47
 L 373.266,-163.623 L 373.129,-163.768 L 372.986,-163.907 L 372.837,-164.037 L 372.681,-164.161 L 372.519,-164.276
 L 372.351,-164.385 L 372.176,-164.485 L 371.995,-164.579 L 371.807,-164.664 L 371.613,-164.743 L 371.413,-164.814
 L 371.206,-164.877 L 370.993,-164.933 L 370.774,-164.982 L 370.548,-165.023 L 370.548,-165.077 L 370.742,-165.12
 L 370.931,-165.169 L 371.115,-165.226 L 371.294,-165.29 L 371.467,-165.361 L 371.635,-165.439 L 371.798,-165.524
 L 371.955,-165.616 L 372.108,-165.715 L 372.255,-165.822 L 372.397,-165.935 L 372.534,-166.056 L 372.666,-166.184
 L 372.793,-166.318 L 372.914,-166.46 L 373.03,-166.609 L 373.14,-166.764 L 373.243,-166.921 L 373.339,-167.082
 L 373.428,-167.246 L 373.509,-167.413 L 373.584,-167.584 L 373.651,-167.758 L 373.712,-167.935 L 373.765,-168.116
 L 373.811,-168.3 L 373.85,-168.487 L 373.882,-168.677 L 373.907,-168.871 L 373.925,-169.068 L 373.935,-169.268
 L 373.939,-169.471 L 373.933,-169.751 L 373.913,-170.023 L 373.882,-170.288 L 373.837,-170.545 L 373.779,-170.795
 L 373.709,-171.038 L 373.626,-171.274 L 373.53,-171.502 L 373.422,-171.723 L 373.301,-171.937 L 373.167,-172.143
 L 373.02,-172.342 L 372.86,-172.534 L 372.688,-172.718 L 372.503,-172.895 L 372.305,-173.065 L 372.096,-173.226
 L 371.878,-173.377 L 371.65,-173.517 L 371.413,-173.647 L 371.167,-173.766 L 370.912,-173.875 L 370.648,-173.974
 L 370.374,-174.062 L 370.091,-174.14 L 369.798,-174.207 L 369.497,-174.265 L 369.186,-174.311 L 368.866,-174.348
 L 368.536,-174.374 L 368.197,-174.389 L 367.849,-174.394 L 367.51,-174.389 L 367.179,-174.373 L 366.856,-174.347
 L 366.543,-174.31 L 366.238,-174.262 L 365.942,-174.204 L 365.655,-174.135 L 365.376,-174.055 L 365.106,-173.965
 L 364.845,-173.865 L 364.593,-173.753 L 364.349,-173.631 L 364.114,-173.499 L 363.888,-173.356 L 363.671,-173.202
 L 363.462,-173.038 L 363.264,-172.865 L 363.079,-172.686 L 362.906,-172.5 L 362.747,-172.308 L 362.6,-172.11
 L 362.466,-171.905 L 362.345,-171.693 L 362.236,-171.475 L 362.14,-171.251 L 362.057,-171.02 L 361.987,-170.782
 L 361.93,-170.538 L 361.885,-170.288 L 361.853,-170.031 L 361.834,-169.768 L 361.828,-169.498 L 361.831,-169.295
 L 361.842,-169.095 L 361.859,-168.898 L 361.884,-168.704 L 361.916,-168.514 L 361.954,-168.327 L 362,-168.143
 L 362.053,-167.962 L 362.113,-167.785 L 362.18,-167.611 L 362.254,-167.441 L 362.335,-167.273 L 362.423,-167.109
 L 362.518,-166.948 L 362.62,-166.791 L 362.729,-166.637 L 362.845,-166.487 L 362.965,-166.345 L 363.091,-166.209
 L 363.222,-166.08 L 363.357,-165.957 L 363.498,-165.841 L 363.645,-165.732 L 363.796,-165.63 L 363.952,-165.534
 L 364.114,-165.445 L 364.281,-165.362 L 364.452,-165.286 L 364.629,-165.217 L 364.812,-165.155 L 364.999,-165.099
 L 365.191,-165.05 L 365.191,-164.996 L 364.985,-164.958 L 364.784,-164.912 L 364.587,-164.859 L 364.394,-164.797
 L 364.207,-164.728 L 364.024,-164.651 L 363.846,-164.566 L 363.672,-164.473 L 363.503,-164.373 L 363.339,-164.264
 L 363.179,-164.148 L 363.025,-164.024 L 362.874,-163.892 L 362.729,-163.752 L 362.588,-163.605 L 362.451,-163.449
 L 362.322,-163.288 L 362.2,-163.121 L 362.087,-162.95 L 361.983,-162.775 L 361.886,-162.594 L 361.799,-162.409
 L 361.719,-162.22 L 361.648,-162.025 L 361.585,-161.826 L 361.531,-161.623 L 361.485,-161.414 L 361.447,-161.201
 L 361.418,-160.984 L 361.397,-160.762 L 361.384,-160.535 L 361.38,-160.303 L 361.387,-159.974 L 361.407,-159.654
 L 361.441,-159.344 L 361.488,-159.043 L 361.549,-158.752 L 361.623,-158.471 L 361.711,-158.199 L 361.812,-157.936
 L 361.927,-157.683 L 362.056,-157.44 L 362.197,-157.206 L 362.353,-156.982 L 362.522,-156.767 L 362.704,-156.562
 L 362.9,-156.366 L 363.109,-156.18 L 363.331,-156.004 L 363.562,-155.84 L 363.805,-155.687 L 364.057,-155.545
 L 364.321,-155.415 L 364.594,-155.296 L 364.878,-155.188 L 365.173,-155.092 L 365.477,-155.007 L 365.793,-154.933
 L 366.118,-154.871 L 366.455,-154.82 L 366.801,-154.78 L 367.158,-154.751 L 367.526,-154.734 L 367.904,-154.729
 z
M 367.668,-165.975 L 367.465,-165.985 L 367.268,-166.002 L 367.077,-166.026 L 366.892,-166.056 L 366.713,-166.093
 L 366.54,-166.137 L 366.373,-166.187 L 366.212,-166.244 L 366.057,-166.308 L 365.908,-166.379 L 365.765,-166.456
 L 365.628,-166.541 L 365.496,-166.631 L 365.371,-166.729 L 365.252,-166.833 L 365.14,-166.944 L 365.035,-167.061
 L 364.937,-167.184 L 364.846,-167.313 L 364.762,-167.448 L 364.686,-167.589 L 364.617,-167.736 L 364.555,-167.889
 L 364.501,-168.049 L 364.454,-168.214 L 364.414,-168.386 L 364.381,-168.564 L 364.356,-168.748 L 364.338,-168.938
 L 364.327,-169.134 L 364.323,-169.336 L 364.327,-169.534 L 364.337,-169.727 L 364.355,-169.913 L 364.38,-170.093
 L 364.411,-170.266 L 364.45,-170.434 L 364.496,-170.595 L 364.549,-170.749 L 364.609,-170.898 L 364.676,-171.04
 L 364.749,-171.177 L 364.831,-171.306 L 364.919,-171.43 L 365.014,-171.547 L 365.116,-171.658 L 365.225,-171.763
 L 365.341,-171.862 L 365.463,-171.954 L 365.592,-172.04 L 365.727,-172.119 L 365.869,-172.192 L 366.017,-172.259
 L 366.171,-172.32 L 366.332,-172.374 L 366.499,-172.421 L 366.673,-172.463 L 366.853,-172.498 L 367.04,-172.526
 L 367.232,-172.548 L 367.432,-172.564 L 367.637,-172.574 L 367.849,-172.577 L 368.28,-172.564 L 368.682,-172.526
 L 369.057,-172.463 L 369.404,-172.374 L 369.723,-172.26 L 370.015,-172.121 L 370.279,-171.957 L 370.514,-171.767
 L 370.723,-171.551 L 370.903,-171.311 L 371.056,-171.045 L 371.181,-170.754 L 371.278,-170.437 L 371.347,-170.095
 L 371.389,-169.728 L 371.403,-169.336 L 371.399,-169.117 L 371.389,-168.907 L 371.371,-168.704 L 371.346,-168.509
 L 371.315,-168.321 L 371.276,-168.141 L 371.23,-167.969 L 371.177,-167.805 L 371.117,-167.648 L 371.05,-167.499
 L 370.977,-167.357 L 370.895,-167.224 L 370.807,-167.097 L 370.712,-166.979 L 370.61,-166.868 L 370.501,-166.765
 L 370.385,-166.669 L 370.263,-166.579 L 370.134,-166.496 L 369.999,-166.418 L 369.857,-166.347 L 369.709,-166.282
 L 369.555,-166.223 L 369.394,-166.17 L 369.227,-166.124 L 369.053,-166.084 L 368.873,-166.049 L 368.687,-166.022
 L 368.494,-166 L 368.294,-165.984 L 368.089,-165.975 L 367.877,-165.972 z
M 367.443,-156.575 L 366.987,-156.621 L 366.562,-156.698 L 366.169,-156.806 L 365.807,-156.945 L 365.476,-157.115
 L 365.177,-157.315 L 364.91,-157.546 L 364.674,-157.808 L 364.469,-158.101 L 364.296,-158.425 L 364.154,-158.78
 L 364.044,-159.165 L 363.966,-159.581 L 363.918,-160.028 L 363.903,-160.506 L 363.907,-160.715 L 363.919,-160.919
 L 363.939,-161.117 L 363.968,-161.309 L 364.005,-161.495 L 364.05,-161.676 L 364.103,-161.851 L 364.164,-162.02
 L 364.233,-162.184 L 364.311,-162.342 L 364.396,-162.494 L 364.49,-162.641 L 364.592,-162.782 L 364.702,-162.918
 L 364.821,-163.047 L 364.947,-163.171 L 365.081,-163.289 L 365.221,-163.399 L 365.367,-163.501 L 365.52,-163.596
 L 365.679,-163.683 L 365.845,-163.762 L 366.017,-163.834 L 366.195,-163.899 L 366.379,-163.956 L 366.57,-164.005
 L 366.768,-164.046 L 366.971,-164.081 L 367.181,-164.107 L 367.398,-164.126 L 367.62,-164.137 L 367.849,-164.141
 L 368.085,-164.138 L 368.314,-164.127 L 368.536,-164.109 L 368.752,-164.085 L 368.961,-164.053 L 369.163,-164.014
 L 369.359,-163.969 L 369.548,-163.916 L 369.73,-163.856 L 369.906,-163.789 L 370.075,-163.715 L 370.237,-163.634
 L 370.393,-163.546 L 370.542,-163.451 L 370.684,-163.348 L 370.819,-163.239 L 370.948,-163.123 L 371.067,-163
 L 371.179,-162.87 L 371.282,-162.734 L 371.377,-162.59 L 371.464,-162.44 L 371.543,-162.283 L 371.613,-162.119
 L 371.675,-161.948 L 371.729,-161.77 L 371.774,-161.586 L 371.811,-161.394 L 371.84,-161.196 L 371.861,-160.991
 L 371.873,-160.779 L 371.877,-160.561 L 371.874,-160.304 L 371.862,-160.056 L 371.843,-159.817 L 371.816,-159.587
 L 371.782,-159.366 L 371.74,-159.153 L 371.691,-158.95 L 371.633,-158.755 L 371.568,-158.569 L 371.496,-158.392
 L 371.416,-158.224 L 371.328,-158.065 L 371.233,-157.914 L 371.13,-157.773 L 371.019,-157.64 L 370.901,-157.516
 L 370.775,-157.4 L 370.641,-157.292 L 370.499,-157.191 L 370.349,-157.097 L 370.191,-157.012 L 370.025,-156.933
 L 369.852,-156.862 L 369.67,-156.799 L 369.481,-156.743 L 369.283,-156.694 L 369.077,-156.653 L 368.864,-156.619
 L 368.643,-156.593 L 368.413,-156.575 L 368.176,-156.563 L 367.931,-156.56 z
M 337.893,-154.736 L 338.275,-154.756 L 338.646,-154.79 L 339.007,-154.837 L 339.356,-154.898 L 339.695,-154.973
 L 340.023,-155.061 L 340.34,-155.163 L 340.646,-155.278 L 340.941,-155.407 L 341.225,-155.549 L 341.499,-155.705
 L 341.761,-155.875 L 342.013,-156.058 L 342.254,-156.255 L 342.484,-156.465 L 342.702,-156.687 L 342.905,-156.919
 L 343.095,-157.161 L 343.27,-157.413 L 343.432,-157.676 L 343.579,-157.948 L 343.713,-158.23 L 343.832,-158.523
 L 343.937,-158.825 L 344.029,-159.138 L 344.106,-159.461 L 344.169,-159.794 L 344.218,-160.136 L 344.253,-160.489
 L 344.274,-160.852 L 344.281,-161.225 L 344.275,-161.554 L 344.255,-161.874 L 344.223,-162.187 L 344.177,-162.492
 L 344.118,-162.789 L 344.046,-163.078 L 343.961,-163.359 L 343.863,-163.632 L 343.751,-163.898 L 343.627,-164.156
 L 343.49,-164.406 L 343.339,-164.648 L 343.176,-164.882 L 342.999,-165.109 L 342.809,-165.327 L 342.606,-165.538
 L 342.393,-165.738 L 342.17,-165.926 L 341.938,-166.1 L 341.697,-166.262 L 341.448,-166.411 L 341.189,-166.546
 L 340.921,-166.669 L 340.645,-166.779 L 340.359,-166.876 L 340.065,-166.96 L 339.762,-167.031 L 339.449,-167.089
 L 339.128,-167.134 L 338.798,-167.167 L 338.459,-167.186 L 338.11,-167.193 L 337.818,-167.188 L 337.533,-167.174
 L 337.253,-167.15 L 336.979,-167.116 L 336.711,-167.073 L 336.449,-167.021 L 336.193,-166.959 L 335.944,-166.887
 L 335.7,-166.806 L 335.463,-166.716 L 335.231,-166.616 L 335.005,-166.506 L 334.786,-166.387 L 334.572,-166.258
 L 334.365,-166.12 L 334.164,-165.972 L 334.53,-172.035 L 343.169,-172.035 L 343.169,-174.11 L 332.306,-174.11
 L 331.668,-163.829 L 334.055,-163.829 L 334.162,-163.921 L 334.269,-164.009 L 334.376,-164.094 L 334.482,-164.175
 L 334.589,-164.253 L 334.696,-164.328 L 334.803,-164.399 L 334.91,-164.467 L 335.016,-164.531 L 335.123,-164.592
 L 335.23,-164.65 L 335.337,-164.704 L 335.444,-164.755 L 335.55,-164.802 L 335.657,-164.846 L 335.764,-164.887
 L 335.871,-164.925 L 335.98,-164.96 L 336.089,-164.993 L 336.2,-165.023 L 336.311,-165.052 L 336.424,-165.077
 L 336.538,-165.1 L 336.652,-165.121 L 336.768,-165.139 L 336.885,-165.155 L 337.003,-165.169 L 337.122,-165.179
 L 337.242,-165.188 L 337.363,-165.194 L 337.485,-165.198 L 337.609,-165.199 L 337.843,-165.195 L 338.071,-165.182
 L 338.293,-165.16 L 338.509,-165.129 L 338.719,-165.09 L 338.923,-165.043 L 339.121,-164.986 L 339.312,-164.921
 L 339.498,-164.847 L 339.677,-164.765 L 339.851,-164.673 L 340.018,-164.573 L 340.179,-164.465 L 340.334,-164.347
 L 340.483,-164.221 L 340.626,-164.087 L 340.762,-163.945 L 340.888,-163.798 L 341.006,-163.645 L 341.116,-163.488
 L 341.216,-163.324 L 341.308,-163.156 L 341.391,-162.981 L 341.465,-162.802 L 341.531,-162.617 L 341.588,-162.427
 L 341.636,-162.231 L 341.675,-162.03 L 341.706,-161.823 L 341.728,-161.611 L 341.741,-161.394 L 341.745,-161.171
 L 341.741,-160.915 L 341.728,-160.666 L 341.706,-160.424 L 341.676,-160.189 L 341.637,-159.961 L 341.589,-159.74
 L 341.532,-159.525 L 341.467,-159.318 L 341.393,-159.117 L 341.311,-158.924 L 341.219,-158.738 L 341.12,-158.558
 L 341.011,-158.385 L 340.894,-158.22 L 340.768,-158.061 L 340.633,-157.909 L 340.491,-157.765 L 340.342,-157.631
 L 340.186,-157.506 L 340.023,-157.39 L 339.854,-157.283 L 339.679,-157.186 L 339.496,-157.098 L 339.307,-157.019
 L 339.111,-156.95 L 338.909,-156.889 L 338.7,-156.838 L 338.484,-156.797 L 338.262,-156.764 L 338.033,-156.741
 L 337.797,-156.727 L 337.554,-156.722 L 337.164,-156.733 L 336.792,-156.767 L 336.439,-156.822 L 336.106,-156.9
 L 335.791,-156.999 L 335.495,-157.121 L 335.218,-157.265 L 334.961,-157.431 L 334.722,-157.619 L 334.502,-157.83
 L 334.301,-158.062 L 334.119,-158.317 L 333.956,-158.594 L 333.812,-158.893 L 333.687,-159.214 L 333.581,-159.557
 L 331.112,-159.272 L 331.171,-159 L 331.24,-158.736 L 331.317,-158.48 L 331.405,-158.232 L 331.501,-157.993
 L 331.607,-157.761 L 331.723,-157.538 L 331.848,-157.323 L 331.982,-157.116 L 332.126,-156.917 L 332.279,-156.726
 L 332.442,-156.544 L 332.614,-156.369 L 332.796,-156.203 L 332.987,-156.045 L 333.187,-155.895 L 333.396,-155.754
 L 333.614,-155.622 L 333.839,-155.499 L 334.072,-155.385 L 334.313,-155.28 L 334.563,-155.184 L 334.82,-155.098
 L 335.086,-155.02 L 335.359,-154.952 L 335.641,-154.893 L 335.931,-154.843 L 336.229,-154.802 L 336.534,-154.77
 L 336.848,-154.747 L 337.17,-154.733 L 337.5,-154.729 z
M 54.1779,-157.075 L 49.5261,-157.075 L 49.5261,-174.11 L 47.2747,-174.11 L 42.7583,-171.004 L 42.7583,-168.698
 L 47.0711,-171.777 L 47.0711,-157.075 L 42.2023,-157.075 L 42.2023,-155 L 54.1779,-155 z
M 674.178,-157.075 L 669.526,-157.075 L 669.526,-174.11 L 667.275,-174.11 L 662.758,-171.004 L 662.758,-168.698
 L 667.071,-171.777 L 667.071,-157.075 L 662.202,-157.075 L 662.202,-155 L 674.178,-155 z
M 652.502,-155.33 L 652.509,-155.658 L 652.521,-155.986 L 652.538,-156.311 L 652.559,-156.636 L 652.585,-156.959
 L 652.616,-157.28 L 652.651,-157.601 L 652.691,-157.919 L 652.736,-158.237 L 652.785,-158.553 L 652.84,-158.868
 L 652.898,-159.181 L 652.962,-159.493 L 653.031,-159.804 L 653.104,-160.113 L 653.181,-160.422 L 653.264,-160.731
 L 653.351,-161.041 L 653.443,-161.351 L 653.54,-161.662 L 653.641,-161.974 L 653.747,-162.286 L 653.858,-162.598
 L 653.974,-162.911 L 654.094,-163.225 L 654.219,-163.539 L 654.348,-163.854 L 654.483,-164.169 L 654.622,-164.485
 L 654.766,-164.801 L 654.914,-165.118 L 655.072,-165.442 L 655.243,-165.782 L 655.427,-166.137 L 655.625,-166.507
 L 655.837,-166.892 L 656.062,-167.292 L 656.3,-167.708 L 656.552,-168.139 L 656.817,-168.584 L 657.096,-169.045
 L 657.388,-169.522 L 657.694,-170.013 L 658.013,-170.519 L 658.345,-171.041 L 658.691,-171.578 L 659.051,-172.129
 L 659.051,-174.11 L 646.424,-174.11 L 646.424,-172.035 L 656.691,-172.035 L 656.245,-171.38 L 655.815,-170.735
 L 655.401,-170.099 L 655.004,-169.473 L 654.622,-168.857 L 654.258,-168.25 L 653.909,-167.653 L 653.577,-167.065
 L 653.26,-166.488 L 652.961,-165.919 L 652.677,-165.36 L 652.41,-164.811 L 652.159,-164.271 L 651.924,-163.741
 L 651.705,-163.221 L 651.503,-162.71 L 651.315,-162.206 L 651.139,-161.704 L 650.975,-161.206 L 650.824,-160.71
 L 650.684,-160.218 L 650.557,-159.728 L 650.442,-159.242 L 650.339,-158.758 L 650.248,-158.278 L 650.169,-157.801
 L 650.102,-157.326 L 650.047,-156.855 L 650.005,-156.387 L 649.975,-155.921 L 649.956,-155.459 L 649.95,-155
 L 652.5,-155 z
M 352.979,-154.736 L 353.362,-154.756 L 353.733,-154.79 L 354.093,-154.837 L 354.443,-154.898 L 354.781,-154.973
 L 355.109,-155.061 L 355.426,-155.163 L 355.732,-155.278 L 356.027,-155.407 L 356.312,-155.549 L 356.585,-155.705
 L 356.848,-155.875 L 357.1,-156.058 L 357.341,-156.255 L 357.571,-156.465 L 357.788,-156.687 L 357.992,-156.919
 L 358.181,-157.161 L 358.357,-157.413 L 358.518,-157.676 L 358.666,-157.948 L 358.799,-158.23 L 358.919,-158.523
 L 359.024,-158.825 L 359.115,-159.138 L 359.192,-159.461 L 359.256,-159.794 L 359.305,-160.136 L 359.34,-160.489
 L 359.361,-160.852 L 359.368,-161.225 L 359.361,-161.554 L 359.342,-161.874 L 359.309,-162.187 L 359.263,-162.492
 L 359.204,-162.789 L 359.132,-163.078 L 359.047,-163.359 L 358.949,-163.632 L 358.838,-163.898 L 358.714,-164.156
 L 358.576,-164.406 L 358.426,-164.648 L 358.262,-164.882 L 358.085,-165.109 L 357.896,-165.327 L 357.693,-165.538
 L 357.479,-165.738 L 357.256,-165.926 L 357.025,-166.1 L 356.784,-166.262 L 356.534,-166.411 L 356.276,-166.546
 L 356.008,-166.669 L 355.731,-166.779 L 355.446,-166.876 L 355.152,-166.96 L 354.848,-167.031 L 354.536,-167.089
 L 354.215,-167.134 L 353.884,-167.167 L 353.545,-167.186 L 353.197,-167.193 L 352.905,-167.188 L 352.619,-167.174
 L 352.339,-167.15 L 352.065,-167.116 L 351.798,-167.073 L 351.536,-167.021 L 351.28,-166.959 L 351.03,-166.887
 L 350.787,-166.806 L 350.549,-166.716 L 350.317,-166.616 L 350.092,-166.506 L 349.872,-166.387 L 349.659,-166.258
 L 349.452,-166.12 L 349.25,-165.972 L 349.616,-172.035 L 358.256,-172.035 L 358.256,-174.11 L 347.392,-174.11
 L 346.755,-163.829 L 349.142,-163.829 L 349.249,-163.921 L 349.355,-164.009 L 349.462,-164.094 L 349.569,-164.175
 L 349.676,-164.253 L 349.783,-164.328 L 349.889,-164.399 L 349.996,-164.467 L 350.103,-164.531 L 350.21,-164.592
 L 350.317,-164.65 L 350.423,-164.704 L 350.53,-164.755 L 350.637,-164.802 L 350.744,-164.846 L 350.851,-164.887
 L 350.958,-164.925 L 351.066,-164.96 L 351.176,-164.993 L 351.286,-165.023 L 351.398,-165.052 L 351.511,-165.077
 L 351.624,-165.1 L 351.739,-165.121 L 351.855,-165.139 L 351.972,-165.155 L 352.09,-165.169 L 352.209,-165.179
 L 352.329,-165.188 L 352.45,-165.194 L 352.572,-165.198 L 352.695,-165.199 L 352.929,-165.195 L 353.158,-165.182
 L 353.38,-165.16 L 353.596,-165.129 L 353.806,-165.09 L 354.01,-165.043 L 354.207,-164.986 L 354.399,-164.921
 L 354.584,-164.847 L 354.764,-164.765 L 354.937,-164.673 L 355.105,-164.573 L 355.266,-164.465 L 355.421,-164.347
 L 355.57,-164.221 L 355.713,-164.087 L 355.848,-163.945 L 355.975,-163.798 L 356.093,-163.645 L 356.202,-163.488
 L 356.303,-163.324 L 356.395,-163.156 L 356.478,-162.981 L 356.552,-162.802 L 356.618,-162.617 L 356.674,-162.427
 L 356.722,-162.231 L 356.762,-162.03 L 356.792,-161.823 L 356.814,-161.611 L 356.827,-161.394 L 356.832,-161.171
 L 356.827,-160.915 L 356.814,-160.666 L 356.793,-160.424 L 356.762,-160.189 L 356.723,-159.961 L 356.675,-159.74
 L 356.619,-159.525 L 356.554,-159.318 L 356.48,-159.117 L 356.397,-158.924 L 356.306,-158.738 L 356.206,-158.558
 L 356.097,-158.385 L 355.98,-158.22 L 355.854,-158.061 L 355.72,-157.909 L 355.577,-157.765 L 355.428,-157.631
 L 355.272,-157.506 L 355.11,-157.39 L 354.941,-157.283 L 354.765,-157.186 L 354.583,-157.098 L 354.394,-157.019
 L 354.198,-156.95 L 353.996,-156.889 L 353.786,-156.838 L 353.571,-156.797 L 353.348,-156.764 L 353.119,-156.741
 L 352.883,-156.727 L 352.641,-156.722 L 352.25,-156.733 L 351.879,-156.767 L 351.526,-156.822 L 351.192,-156.9
 L 350.878,-156.999 L 350.582,-157.121 L 350.305,-157.265 L 350.047,-157.431 L 349.808,-157.619 L 349.588,-157.83
 L 349.387,-158.062 L 349.205,-158.317 L 349.042,-158.594 L 348.898,-158.893 L 348.773,-159.214 L 348.667,-159.557
 L 346.199,-159.272 L 346.258,-159 L 346.326,-158.736 L 346.404,-158.48 L 346.491,-158.232 L 346.588,-157.993
 L 346.694,-157.761 L 346.809,-157.538 L 346.934,-157.323 L 347.069,-157.116 L 347.213,-156.917 L 347.366,-156.726
 L 347.529,-156.544 L 347.701,-156.369 L 347.882,-156.203 L 348.073,-156.045 L 348.274,-155.895 L 348.483,-155.754
 L 348.7,-155.622 L 348.925,-155.499 L 349.159,-155.385 L 349.4,-155.28 L 349.649,-155.184 L 349.907,-155.098
 L 350.172,-155.02 L 350.446,-154.952 L 350.728,-154.893 L 351.017,-154.843 L 351.315,-154.802 L 351.621,-154.77
 L 351.935,-154.747 L 352.257,-154.733 L 352.587,-154.729 z
M 32.5023,-155.33 L 32.5094,-155.658 L 32.5212,-155.986 L 32.5377,-156.311 L 32.5589,-156.636 L 32.5849,-156.959
 L 32.6155,-157.28 L 32.6509,-157.601 L 32.691,-157.919 L 32.7358,-158.237 L 32.7853,-158.553 L 32.8395,-158.868
 L 32.8985,-159.181 L 32.9621,-159.493 L 33.0305,-159.804 L 33.1036,-160.113 L 33.1814,-160.422 L 33.2639,-160.731
 L 33.3512,-161.041 L 33.4431,-161.351 L 33.5398,-161.662 L 33.6411,-161.974 L 33.7472,-162.286 L 33.858,-162.598
 L 33.9736,-162.911 L 34.0938,-163.225 L 34.2188,-163.539 L 34.3484,-163.854 L 34.4828,-164.169 L 34.6219,-164.485
 L 34.7657,-164.801 L 34.9142,-165.118 L 35.0718,-165.442 L 35.2429,-165.782 L 35.4274,-166.137 L 35.6254,-166.507
 L 35.8368,-166.892 L 36.0617,-167.292 L 36.3,-167.708 L 36.5518,-168.139 L 36.8171,-168.584 L 37.0958,-169.045
 L 37.388,-169.522 L 37.6936,-170.013 L 38.0128,-170.519 L 38.3453,-171.041 L 38.6913,-171.578 L 39.0508,-172.129
 L 39.0508,-174.11 L 26.424,-174.11 L 26.424,-172.035 L 36.6908,-172.035 L 36.2446,-171.38 L 35.8147,-170.735
 L 35.401,-170.099 L 35.0036,-169.473 L 34.6225,-168.857 L 34.2576,-168.25 L 33.909,-167.653 L 33.5766,-167.065
 L 33.2605,-166.488 L 32.9607,-165.919 L 32.6771,-165.36 L 32.4098,-164.811 L 32.1588,-164.271 L 31.924,-163.741
 L 31.7054,-163.221 L 31.5032,-162.71 L 31.3152,-162.206 L 31.1393,-161.704 L 30.9755,-161.206 L 30.8238,-160.71
 L 30.6843,-160.218 L 30.557,-159.728 L 30.4417,-159.242 L 30.3386,-158.758 L 30.2476,-158.278 L 30.1688,-157.801
 L 30.102,-157.326 L 30.0474,-156.855 L 30.005,-156.387 L 29.9747,-155.921 L 29.9565,-155.459 L 29.9504,-155
 L 32.5,-155 z
M 841,451 L 920,451 L 920,470 L 921,470 L 921,451 L 940,451
 L 940,450 L 921,450 L 921,1 L 940,1 L 940,-0 L 921,-0
 L 921,-20 L 920,-20 L 920,-0 L 841,-0 L 841,-20 L 840,-20
 L 840,-0 L 760,-0 L 760,1 L 840,1 L 840,70.7107 L 760,70.7107
 L 760,71.7107 L 840,71.7107 L 840,450 L 760,450 L 760,451 L 840,451
 L 840,470 L 841,470 z
M 841,450 L 841,71.7107 L 860,71.7107 L 860,70.7107 L 841,70.7107 L 841,1
 L 920,1 L 920,450 z
M 874.11,26.424 L 872.035,26.424 L 872.035,36.6908 L 871.38,36.2446 L 870.735,35.8147 L 870.099,35.401
 L 869.473,35.0036 L 868.857,34.6225 L 868.25,34.2576 L 867.653,33.909 L 867.065,33.5766 L 866.488,33.2605
 L 865.919,32.9607 L 865.36,32.6771 L 864.811,32.4098 L 864.271,32.1588 L 863.741,31.924 L 863.221,31.7054
 L 862.71,31.5032 L 862.206,31.3152 L 861.704,31.1393 L 861.206,30.9755 L 860.71,30.8238 L 860.218,30.6843
 L 859.728,30.557 L 859.242,30.4417 L 858.758,30.3386 L 858.278,30.2476 L 857.801,30.1688 L 857.326,30.102
 L 856.855,30.0474 L 856.387,30.005 L 855.921,29.9747 L 855.459,29.9565 L 855,29.9504 L 855,32.5
 L 855.33,32.5023 L 855.658,32.5094 L 855.986,32.5212 L 856.311,32.5377 L 856.636,32.5589 L 856.959,32.5849
 L 857.28,32.6155 L 857.601,32.6509 L 857.919,32.691 L 858.237,32.7358 L 858.553,32.7853 L 858.868,32.8395
 L 859.181,32.8985 L 859.493,32.9621 L 859.804,33.0305 L 860.113,33.1036 L 860.422,33.1814 L 860.731,33.2639
 L 861.041,33.3512 L 861.351,33.4431 L 861.662,33.5398 L 861.974,33.6411 L 862.286,33.7472 L 862.598,33.858
 L 862.911,33.9736 L 863.225,34.0938 L 863.539,34.2188 L 863.854,34.3484 L 864.169,34.4828 L 864.485,34.6219
 L 864.801,34.7657 L 865.118,34.9142 L 865.442,35.0718 L 865.782,35.2429 L 866.137,35.4274 L 866.507,35.6254
 L 866.892,35.8368 L 867.292,36.0617 L 867.708,36.3 L 868.139,36.5518 L 868.584,36.8171 L 869.045,37.0958
 L 869.522,37.388 L 870.013,37.6936 L 870.519,38.0128 L 871.041,38.3453 L 871.578,38.6913 L 872.129,39.0508
 L 874.11,39.0508 z
M 857.075,49.5261 L 874.11,49.5261 L 874.11,47.2747 L 871.004,42.7583 L 868.698,42.7583 L 871.777,47.0711
 L 857.075,47.0711 L 857.075,42.2023 L 855,42.2023 L 855,54.1779 L 857.075,54.1779 z
M 860.502,239.222 L 860.724,239.208 L 860.94,239.185 L 861.152,239.152 L 861.359,239.11 L 861.561,239.059
 L 861.758,238.999 L 861.951,238.929 L 862.138,238.849 L 862.321,238.761 L 862.498,238.663 L 862.671,238.556
 L 862.839,238.439 L 863.002,238.313 L 863.16,238.178 L 863.314,238.033 L 863.461,237.881 L 863.6,237.72
 L 863.732,237.552 L 863.856,237.377 L 863.973,237.195 L 864.082,237.005 L 864.183,236.807 L 864.277,236.603
 L 864.363,236.39 L 864.441,236.171 L 864.512,235.944 L 864.575,235.709 L 864.631,235.467 L 864.678,235.218
 L 864.719,234.961 L 864.751,234.697 L 864.806,234.697 L 864.859,234.938 L 864.919,235.171 L 864.984,235.397
 L 865.055,235.616 L 865.132,235.827 L 865.215,236.031 L 865.303,236.228 L 865.397,236.418 L 865.497,236.6
 L 865.603,236.776 L 865.715,236.943 L 865.832,237.104 L 865.955,237.258 L 866.084,237.404 L 866.218,237.543
 L 866.359,237.674 L 866.505,237.798 L 866.656,237.914 L 866.812,238.022 L 866.974,238.122 L 867.142,238.214
 L 867.314,238.298 L 867.492,238.374 L 867.676,238.442 L 867.865,238.502 L 868.059,238.554 L 868.258,238.598
 L 868.463,238.634 L 868.673,238.662 L 868.889,238.682 L 869.109,238.694 L 869.336,238.698 L 869.63,238.692
 L 869.916,238.673 L 870.194,238.642 L 870.463,238.599 L 870.725,238.543 L 870.978,238.474 L 871.223,238.393
 L 871.46,238.3 L 871.688,238.194 L 871.909,238.076 L 872.121,237.945 L 872.325,237.802 L 872.521,237.646
 L 872.708,237.478 L 872.887,237.298 L 873.058,237.105 L 873.22,236.9 L 873.372,236.686 L 873.512,236.462
 L 873.643,236.228 L 873.763,235.983 L 873.873,235.729 L 873.972,235.465 L 874.06,235.191 L 874.139,234.906
 L 874.207,234.612 L 874.264,234.308 L 874.311,233.993 L 874.347,233.669 L 874.374,233.334 L 874.389,232.99
 L 874.394,232.636 L 874.389,232.31 L 874.374,231.993 L 874.348,231.683 L 874.312,231.38 L 874.266,231.085
 L 874.209,230.797 L 874.143,230.516 L 874.065,230.244 L 873.978,229.978 L 873.88,229.72 L 873.773,229.47
 L 873.654,229.227 L 873.526,228.991 L 873.387,228.763 L 873.238,228.543 L 873.079,228.33 L 872.91,228.126
 L 872.734,227.933 L 872.549,227.751 L 872.357,227.58 L 872.156,227.42 L 871.947,227.271 L 871.73,227.133
 L 871.506,227.006 L 871.273,226.889 L 871.032,226.784 L 870.783,226.69 L 870.526,226.607 L 870.261,226.534
 L 869.987,226.473 L 869.706,226.423 L 869.417,226.383 L 869.227,228.838 L 869.413,228.862 L 869.593,228.892
 L 869.768,228.929 L 869.937,228.972 L 870.102,229.021 L 870.261,229.078 L 870.415,229.14 L 870.563,229.209
 L 870.706,229.285 L 870.844,229.367 L 870.977,229.456 L 871.104,229.552 L 871.226,229.653 L 871.342,229.762
 L 871.454,229.876 L 871.56,229.998 L 871.66,230.125 L 871.754,230.257 L 871.841,230.393 L 871.922,230.535
 L 871.996,230.681 L 872.064,230.832 L 872.125,230.988 L 872.18,231.149 L 872.229,231.314 L 872.271,231.485
 L 872.306,231.66 L 872.335,231.84 L 872.358,232.025 L 872.374,232.215 L 872.384,232.409 L 872.387,232.609
 L 872.384,232.827 L 872.373,233.039 L 872.356,233.244 L 872.332,233.442 L 872.3,233.634 L 872.262,233.818
 L 872.217,233.996 L 872.165,234.166 L 872.106,234.33 L 872.04,234.488 L 871.967,234.638 L 871.887,234.781
 L 871.801,234.918 L 871.707,235.048 L 871.606,235.171 L 871.499,235.287 L 871.385,235.396 L 871.267,235.498
 L 871.143,235.594 L 871.014,235.682 L 870.881,235.763 L 870.742,235.837 L 870.598,235.904 L 870.449,235.963
 L 870.296,236.016 L 870.137,236.062 L 869.973,236.101 L 869.804,236.133 L 869.63,236.157 L 869.451,236.175
 L 869.267,236.185 L 869.078,236.189 L 868.887,236.185 L 868.702,236.172 L 868.522,236.15 L 868.347,236.12
 L 868.177,236.081 L 868.013,236.034 L 867.854,235.977 L 867.7,235.913 L 867.551,235.839 L 867.407,235.757
 L 867.269,235.667 L 867.136,235.567 L 867.009,235.459 L 866.886,235.343 L 866.769,235.217 L 866.657,235.084
 L 866.551,234.942 L 866.452,234.793 L 866.36,234.637 L 866.274,234.475 L 866.196,234.305 L 866.124,234.128
 L 866.059,233.944 L 866.001,233.753 L 865.95,233.555 L 865.905,233.35 L 865.868,233.138 L 865.837,232.918
 L 865.813,232.692 L 865.796,232.459 L 865.786,232.219 L 865.782,231.971 L 865.782,230.642 L 863.666,230.642
 L 863.666,232.025 L 863.663,232.304 L 863.653,232.575 L 863.636,232.837 L 863.612,233.091 L 863.581,233.337
 L 863.543,233.574 L 863.499,233.803 L 863.448,234.024 L 863.39,234.237 L 863.325,234.441 L 863.253,234.636
 L 863.174,234.824 L 863.089,235.003 L 862.997,235.174 L 862.898,235.336 L 862.792,235.491 L 862.68,235.636
 L 862.562,235.772 L 862.439,235.898 L 862.311,236.016 L 862.178,236.124 L 862.039,236.222 L 861.895,236.311
 L 861.746,236.391 L 861.591,236.461 L 861.431,236.522 L 861.265,236.574 L 861.094,236.616 L 860.918,236.649
 L 860.736,236.672 L 860.549,236.686 L 860.357,236.691 L 860.137,236.687 L 859.923,236.674 L 859.717,236.654
 L 859.517,236.625 L 859.324,236.588 L 859.138,236.543 L 858.959,236.49 L 858.787,236.428 L 858.622,236.358
 L 858.464,236.28 L 858.312,236.194 L 858.168,236.099 L 858.03,235.997 L 857.899,235.886 L 857.775,235.767
 L 857.658,235.64 L 857.548,235.505 L 857.445,235.364 L 857.349,235.218 L 857.261,235.064 L 857.179,234.905
 L 857.105,234.74 L 857.037,234.568 L 856.977,234.39 L 856.924,234.206 L 856.877,234.016 L 856.838,233.819
 L 856.806,233.617 L 856.782,233.408 L 856.764,233.193 L 856.753,232.972 L 856.75,232.744 L 856.763,232.297
 L 856.803,231.875 L 856.869,231.478 L 856.962,231.106 L 857.081,230.758 L 857.226,230.436 L 857.399,230.138
 L 857.597,229.866 L 857.822,229.618 L 858.074,229.395 L 858.352,229.197 L 858.657,229.024 L 858.988,228.876
 L 859.346,228.752 L 859.73,228.654 L 860.14,228.581 L 859.91,226.058 L 859.594,226.104 L 859.288,226.161
 L 858.992,226.229 L 858.706,226.308 L 858.43,226.398 L 858.164,226.499 L 857.907,226.611 L 857.66,226.734
 L 857.423,226.868 L 857.196,227.013 L 856.978,227.169 L 856.77,227.336 L 856.572,227.513 L 856.384,227.702
 L 856.206,227.902 L 856.038,228.113 L 855.879,228.333 L 855.731,228.563 L 855.593,228.802 L 855.465,229.051
 L 855.347,229.308 L 855.24,229.574 L 855.143,229.85 L 855.056,230.135 L 854.979,230.429 L 854.913,230.732
 L 854.857,231.045 L 854.811,231.366 L 854.775,231.697 L 854.749,232.037 L 854.734,232.386 L 854.729,232.744
 L 854.734,233.128 L 854.751,233.502 L 854.78,233.863 L 854.82,234.214 L 854.871,234.553 L 854.933,234.882
 L 855.007,235.198 L 855.092,235.504 L 855.188,235.799 L 855.296,236.082 L 855.415,236.354 L 855.545,236.615
 L 855.687,236.864 L 855.84,237.102 L 856.004,237.329 L 856.18,237.545 L 856.366,237.749 L 856.561,237.939
 L 856.766,238.117 L 856.98,238.281 L 857.204,238.432 L 857.436,238.57 L 857.678,238.695 L 857.93,238.807
 L 858.19,238.905 L 858.46,238.99 L 858.739,239.063 L 859.028,239.122 L 859.326,239.168 L 859.633,239.201
 L 859.95,239.22 L 860.276,239.227 z
M 874.11,241.511 L 872.035,241.511 L 872.035,251.777 L 871.38,251.331 L 870.735,250.901 L 870.099,250.488
 L 869.473,250.09 L 868.857,249.709 L 868.25,249.344 L 867.653,248.995 L 867.065,248.663 L 866.488,248.347
 L 865.919,248.047 L 865.36,247.764 L 864.811,247.496 L 864.271,247.245 L 863.741,247.01 L 863.221,246.792
 L 862.71,246.59 L 862.206,246.402 L 861.704,246.226 L 861.206,246.062 L 860.71,245.91 L 860.218,245.771
 L 859.728,245.643 L 859.242,245.528 L 858.758,245.425 L 858.278,245.334 L 857.801,245.255 L 857.326,245.189
 L 856.855,245.134 L 856.387,245.092 L 855.921,245.061 L 855.459,245.043 L 855,245.037 L 855,247.587
 L 855.33,247.589 L 855.658,247.596 L 855.986,247.608 L 856.311,247.624 L 856.636,247.645 L 856.959,247.671
 L 857.28,247.702 L 857.601,247.737 L 857.919,247.777 L 858.237,247.822 L 858.553,247.872 L 858.868,247.926
 L 859.181,247.985 L 859.493,248.049 L 859.804,248.117 L 860.113,248.19 L 860.422,248.268 L 860.731,248.35
 L 861.041,248.438 L 861.351,248.53 L 861.662,248.626 L 861.974,248.728 L 862.286,248.834 L 862.598,248.945
 L 862.911,249.06 L 863.225,249.18 L 863.539,249.305 L 863.854,249.435 L 864.169,249.569 L 864.485,249.708
 L 864.801,249.852 L 865.118,250.001 L 865.442,250.158 L 865.782,250.329 L 866.137,250.514 L 866.507,250.712
 L 866.892,250.923 L 867.292,251.148 L 867.708,251.387 L 868.139,251.638 L 868.584,251.904 L 869.045,252.182
 L 869.522,252.475 L 870.013,252.78 L 870.519,253.099 L 871.041,253.432 L 871.578,253.778 L 872.129,254.137
 L 874.11,254.137 z
M 865.524,269.299 L 866.088,269.28 L 866.633,269.248 L 867.16,269.203 L 867.668,269.145 L 868.158,269.074
 L 868.629,268.991 L 869.081,268.895 L 869.515,268.786 L 869.931,268.664 L 870.328,268.53 L 870.706,268.382
 L 871.066,268.222 L 871.407,268.049 L 871.73,267.863 L 872.034,267.664 L 872.32,267.453 L 872.588,267.23
 L 872.836,266.994 L 873.067,266.747 L 873.279,266.487 L 873.473,266.216 L 873.648,265.932 L 873.804,265.636
 L 873.943,265.329 L 874.063,265.009 L 874.164,264.677 L 874.247,264.333 L 874.311,263.977 L 874.358,263.608
 L 874.385,263.228 L 874.394,262.836 L 874.388,262.466 L 874.368,262.107 L 874.334,261.758 L 874.287,261.419
 L 874.227,261.091 L 874.153,260.773 L 874.066,260.465 L 873.965,260.167 L 873.852,259.88 L 873.724,259.603
 L 873.583,259.336 L 873.429,259.08 L 873.262,258.834 L 873.081,258.598 L 872.886,258.372 L 872.679,258.157
 L 872.459,257.953 L 872.23,257.763 L 871.99,257.585 L 871.741,257.421 L 871.481,257.27 L 871.212,257.132
 L 870.932,257.007 L 870.643,256.895 L 870.343,256.797 L 870.033,256.712 L 869.714,256.639 L 869.384,256.58
 L 869.045,256.534 L 868.695,256.501 L 868.335,256.482 L 867.966,256.475 L 867.606,256.481 L 867.255,256.499
 L 866.913,256.529 L 866.58,256.572 L 866.256,256.626 L 865.941,256.692 L 865.635,256.771 L 865.338,256.862
 L 865.05,256.964 L 864.771,257.079 L 864.501,257.206 L 864.24,257.345 L 863.988,257.496 L 863.745,257.659
 L 863.511,257.834 L 863.287,258.021 L 863.073,258.218 L 862.873,258.424 L 862.687,258.637 L 862.515,258.859
 L 862.357,259.088 L 862.212,259.326 L 862.081,259.571 L 861.964,259.825 L 861.861,260.087 L 861.772,260.356
 L 861.696,260.634 L 861.634,260.92 L 861.586,261.214 L 861.551,261.516 L 861.53,261.826 L 861.524,262.144
 L 861.526,262.34 L 861.535,262.534 L 861.55,262.725 L 861.57,262.915 L 861.596,263.102 L 861.628,263.288
 L 861.665,263.471 L 861.708,263.653 L 861.757,263.833 L 861.812,264.01 L 861.873,264.186 L 861.939,264.359
 L 862.011,264.531 L 862.089,264.7 L 862.173,264.868 L 862.263,265.033 L 862.357,265.194 L 862.455,265.35
 L 862.557,265.499 L 862.662,265.643 L 862.772,265.78 L 862.885,265.911 L 863.002,266.036 L 863.122,266.155
 L 863.247,266.268 L 863.375,266.376 L 863.507,266.477 L 863.642,266.572 L 863.782,266.66 L 863.925,266.743
 L 864.072,266.82 L 864.223,266.891 L 863.776,266.88 L 863.343,266.86 L 862.923,266.832 L 862.516,266.795
 L 862.122,266.75 L 861.741,266.696 L 861.373,266.633 L 861.018,266.562 L 860.677,266.482 L 860.348,266.394
 L 860.032,266.297 L 859.729,266.192 L 859.439,266.078 L 859.163,265.955 L 858.899,265.824 L 858.648,265.684
 L 858.412,265.536 L 858.191,265.381 L 857.985,265.218 L 857.794,265.048 L 857.618,264.871 L 857.458,264.686
 L 857.313,264.494 L 857.184,264.294 L 857.069,264.087 L 856.97,263.872 L 856.886,263.65 L 856.817,263.421
 L 856.764,263.184 L 856.726,262.94 L 856.703,262.688 L 856.695,262.429 L 856.705,262.124 L 856.733,261.833
 L 856.779,261.555 L 856.845,261.291 L 856.928,261.041 L 857.031,260.805 L 857.152,260.583 L 857.292,260.374
 L 857.451,260.179 L 857.628,259.998 L 857.824,259.831 L 858.038,259.677 L 858.271,259.538 L 858.523,259.412
 L 858.793,259.299 L 859.082,259.201 L 858.716,256.868 L 858.458,256.944 L 858.209,257.026 L 857.969,257.114
 L 857.738,257.208 L 857.516,257.308 L 857.303,257.414 L 857.099,257.525 L 856.904,257.643 L 856.718,257.767
 L 856.541,257.897 L 856.374,258.032 L 856.215,258.174 L 856.066,258.322 L 855.925,258.476 L 855.794,258.635
 L 855.671,258.801 L 855.557,258.973 L 855.45,259.152 L 855.351,259.338 L 855.259,259.531 L 855.174,259.731
 L 855.097,259.938 L 855.027,260.152 L 854.964,260.373 L 854.909,260.6 L 854.861,260.835 L 854.821,261.076
 L 854.788,261.325 L 854.762,261.58 L 854.744,261.843 L 854.732,262.112 L 854.729,262.388 L 854.739,262.798
 L 854.77,263.195 L 854.822,263.581 L 854.894,263.954 L 854.987,264.316 L 855.101,264.666 L 855.235,265.004
 L 855.39,265.33 L 855.566,265.644 L 855.762,265.946 L 855.979,266.236 L 856.216,266.514 L 856.475,266.781
 L 856.754,267.035 L 857.053,267.277 L 857.373,267.508 L 857.713,267.726 L 858.07,267.929 L 858.445,268.119
 L 858.838,268.294 L 859.249,268.456 L 859.677,268.603 L 860.124,268.737 L 860.588,268.856 L 861.07,268.961
 L 861.569,269.053 L 862.087,269.13 L 862.622,269.193 L 863.175,269.242 L 863.746,269.277 L 864.335,269.298
 L 864.941,269.305 z
M 867.161,266.645 L 867.024,266.639 L 866.888,266.628 L 866.754,266.614 L 866.622,266.596 L 866.491,266.573
 L 866.363,266.547 L 866.237,266.516 L 866.112,266.482 L 865.99,266.443 L 865.869,266.4 L 865.75,266.353
 L 865.633,266.302 L 865.518,266.247 L 865.405,266.188 L 865.294,266.125 L 865.185,266.058 L 865.08,265.988
 L 864.977,265.915 L 864.878,265.839 L 864.782,265.761 L 864.689,265.679 L 864.599,265.594 L 864.512,265.506
 L 864.429,265.415 L 864.348,265.321 L 864.271,265.224 L 864.197,265.124 L 864.125,265.021 L 864.057,264.915
 L 863.993,264.806 L 863.931,264.694 L 863.872,264.58 L 863.818,264.464 L 863.767,264.348 L 863.72,264.23
 L 863.677,264.111 L 863.637,263.991 L 863.602,263.87 L 863.57,263.748 L 863.542,263.624 L 863.517,263.5
 L 863.496,263.374 L 863.479,263.247 L 863.466,263.119 L 863.457,262.99 L 863.451,262.859 L 863.449,262.727
 L 863.454,262.513 L 863.468,262.305 L 863.492,262.102 L 863.525,261.904 L 863.568,261.713 L 863.62,261.527
 L 863.682,261.346 L 863.753,261.171 L 863.833,261.002 L 863.924,260.838 L 864.023,260.68 L 864.132,260.528
 L 864.251,260.381 L 864.379,260.24 L 864.516,260.104 L 864.663,259.974 L 864.818,259.851 L 864.98,259.736
 L 865.149,259.629 L 865.325,259.529 L 865.507,259.438 L 865.697,259.354 L 865.893,259.279 L 866.096,259.211
 L 866.306,259.152 L 866.522,259.1 L 866.746,259.056 L 866.976,259.021 L 867.213,258.993 L 867.457,258.973
 L 867.708,258.961 L 867.966,258.957 L 868.218,258.961 L 868.464,258.973 L 868.704,258.993 L 868.937,259.021
 L 869.163,259.056 L 869.382,259.1 L 869.595,259.152 L 869.802,259.211 L 870.001,259.279 L 870.194,259.354
 L 870.381,259.438 L 870.561,259.529 L 870.734,259.629 L 870.9,259.736 L 871.06,259.851 L 871.214,259.974
 L 871.359,260.104 L 871.495,260.24 L 871.622,260.382 L 871.739,260.529 L 871.847,260.683 L 871.945,260.842
 L 872.034,261.007 L 872.114,261.178 L 872.184,261.355 L 872.245,261.537 L 872.297,261.725 L 872.339,261.92
 L 872.372,262.12 L 872.395,262.325 L 872.41,262.537 L 872.414,262.754 L 872.409,262.974 L 872.392,263.187
 L 872.365,263.395 L 872.326,263.598 L 872.277,263.795 L 872.217,263.986 L 872.145,264.172 L 872.063,264.351
 L 871.97,264.526 L 871.866,264.695 L 871.751,264.858 L 871.625,265.015 L 871.487,265.167 L 871.339,265.313
 L 871.18,265.454 L 871.01,265.589 L 870.831,265.717 L 870.645,265.837 L 870.452,265.949 L 870.252,266.052
 L 870.045,266.147 L 869.831,266.234 L 869.61,266.312 L 869.381,266.382 L 869.146,266.444 L 868.904,266.498
 L 868.654,266.544 L 868.398,266.581 L 868.134,266.61 L 867.863,266.63 L 867.586,266.643 L 867.301,266.647
 z
M 700,70.7 L 629.3,-0 L 70.7,-0 L 0,70.7 L 0,450 L 700,450
 z
M 941.252,236.949 L 954.11,236.949 L 954.11,234.385 L 941.225,225.637 L 939.326,225.637 L 939.326,234.643
 L 935,234.643 L 935,236.949 L 939.326,236.949 L 939.326,239.634 L 941.252,239.634 z
M 941.252,234.643 L 941.252,227.889 L 941.524,228.106 L 942.527,228.838 L 949.742,233.734 L 949.776,233.757
 L 949.813,233.781 L 949.852,233.807 L 949.895,233.833 L 949.941,233.862 L 949.989,233.891 L 950.041,233.922
 L 950.095,233.955 L 950.153,233.988 L 950.213,234.024 L 950.276,234.06 L 950.343,234.098 L 950.412,234.137
 L 950.484,234.178 L 950.559,234.22 L 950.638,234.263 L 950.715,234.306 L 950.788,234.346 L 950.857,234.384
 L 950.922,234.419 L 950.982,234.452 L 951.037,234.482 L 951.089,234.509 L 951.136,234.534 L 951.179,234.557
 L 951.217,234.577 L 951.251,234.594 L 951.281,234.609 L 951.306,234.621 L 951.327,234.631 L 951.344,234.638
 L 951.356,234.643 z
M 941.554,254.361 L 941.874,254.342 L 942.187,254.309 L 942.492,254.263 L 942.789,254.204 L 943.078,254.132
 L 943.359,254.047 L 943.632,253.949 L 943.898,253.838 L 944.156,253.714 L 944.406,253.576 L 944.648,253.426
 L 944.882,253.262 L 945.109,253.085 L 945.327,252.896 L 945.538,252.693 L 945.738,252.479 L 945.926,252.256
 L 946.1,252.025 L 946.262,251.784 L 946.411,251.534 L 946.546,251.276 L 946.669,251.008 L 946.779,250.731
 L 946.876,250.446 L 946.96,250.152 L 947.031,249.848 L 947.089,249.536 L 947.134,249.215 L 947.167,248.884
 L 947.186,248.545 L 947.193,248.197 L 947.188,247.905 L 947.174,247.619 L 947.15,247.339 L 947.116,247.065
 L 947.073,246.798 L 947.021,246.536 L 946.959,246.28 L 946.887,246.03 L 946.806,245.787 L 946.716,245.549
 L 946.616,245.317 L 946.506,245.092 L 946.387,244.872 L 946.258,244.659 L 946.12,244.452 L 945.972,244.25
 L 952.035,244.616 L 952.035,253.256 L 954.11,253.256 L 954.11,242.392 L 943.829,241.755 L 943.829,244.142
 L 943.921,244.249 L 944.009,244.355 L 944.094,244.462 L 944.175,244.569 L 944.253,244.676 L 944.328,244.783
 L 944.399,244.889 L 944.467,244.996 L 944.531,245.103 L 944.592,245.21 L 944.65,245.317 L 944.704,245.423
 L 944.755,245.53 L 944.802,245.637 L 944.846,245.744 L 944.887,245.851 L 944.925,245.958 L 944.96,246.066
 L 944.993,246.176 L 945.023,246.286 L 945.052,246.398 L 945.077,246.511 L 945.1,246.624 L 945.121,246.739
 L 945.139,246.855 L 945.155,246.972 L 945.169,247.09 L 945.179,247.209 L 945.188,247.329 L 945.194,247.45
 L 945.198,247.572 L 945.199,247.695 L 945.195,247.929 L 945.182,248.158 L 945.16,248.38 L 945.129,248.596
 L 945.09,248.806 L 945.043,249.01 L 944.986,249.207 L 944.921,249.399 L 944.847,249.584 L 944.765,249.764
 L 944.673,249.937 L 944.573,250.105 L 944.465,250.266 L 944.347,250.421 L 944.221,250.57 L 944.087,250.713
 L 943.945,250.848 L 943.798,250.975 L 943.645,251.093 L 943.488,251.202 L 943.324,251.303 L 943.156,251.395
 L 942.981,251.478 L 942.802,251.552 L 942.617,251.618 L 942.427,251.674 L 942.231,251.722 L 942.03,251.762
 L 941.823,251.792 L 941.611,251.814 L 941.394,251.827 L 941.171,251.832 L 940.915,251.827 L 940.666,251.814
 L 940.424,251.793 L 940.189,251.762 L 939.961,251.723 L 939.74,251.675 L 939.525,251.619 L 939.318,251.554
 L 939.117,251.48 L 938.924,251.397 L 938.738,251.306 L 938.558,251.206 L 938.385,251.097 L 938.22,250.98
 L 938.061,250.854 L 937.909,250.72 L 937.765,250.577 L 937.631,250.428 L 937.506,250.272 L 937.39,250.11
 L 937.283,249.941 L 937.186,249.765 L 937.098,249.583 L 937.019,249.394 L 936.95,249.198 L 936.889,248.996
 L 936.838,248.786 L 936.797,248.571 L 936.764,248.348 L 936.741,248.119 L 936.727,247.883 L 936.722,247.641
 L 936.733,247.25 L 936.767,246.879 L 936.822,246.526 L 936.9,246.192 L 936.999,245.878 L 937.121,245.582
 L 937.265,245.305 L 937.431,245.047 L 937.619,244.808 L 937.83,244.588 L 938.062,244.387 L 938.317,244.205
 L 938.594,244.042 L 938.893,243.898 L 939.214,243.773 L 939.557,243.667 L 939.272,241.199 L 939,241.258
 L 938.736,241.326 L 938.48,241.404 L 938.232,241.491 L 937.993,241.588 L 937.761,241.694 L 937.538,241.809
 L 937.323,241.934 L 937.116,242.069 L 936.917,242.213 L 936.726,242.366 L 936.544,242.529 L 936.369,242.701
 L 936.203,242.882 L 936.045,243.073 L 935.895,243.274 L 935.754,243.483 L 935.622,243.7 L 935.499,243.925
 L 935.385,244.159 L 935.28,244.4 L 935.184,244.649 L 935.098,244.907 L 935.02,245.172 L 934.952,245.446
 L 934.893,245.728 L 934.843,246.017 L 934.802,246.315 L 934.77,246.621 L 934.747,246.935 L 934.733,247.257
 L 934.729,247.587 L 934.736,247.979 L 934.756,248.362 L 934.79,248.733 L 934.837,249.093 L 934.898,249.443
 L 934.973,249.781 L 935.061,250.109 L 935.163,250.426 L 935.278,250.732 L 935.407,251.027 L 935.549,251.312
 L 935.705,251.585 L 935.875,251.848 L 936.058,252.1 L 936.255,252.341 L 936.465,252.571 L 936.687,252.788
 L 936.919,252.992 L 937.161,253.181 L 937.413,253.357 L 937.676,253.518 L 937.948,253.666 L 938.23,253.799
 L 938.523,253.919 L 938.825,254.024 L 939.138,254.115 L 939.461,254.192 L 939.794,254.256 L 940.136,254.305
 L 940.489,254.34 L 940.852,254.361 L 941.225,254.368 z
M 945.161,269.529 L 945.742,269.511 L 946.304,269.479 L 946.847,269.435 L 947.372,269.379 L 947.878,269.31
 L 948.365,269.228 L 948.834,269.134 L 949.284,269.027 L 949.715,268.908 L 950.128,268.776 L 950.522,268.632
 L 950.898,268.475 L 951.255,268.305 L 951.593,268.123 L 951.912,267.928 L 952.213,267.721 L 952.494,267.499
 L 952.756,267.264 L 952.998,267.014 L 953.221,266.751 L 953.425,266.474 L 953.609,266.184 L 953.774,265.879
 L 953.919,265.561 L 954.045,265.228 L 954.152,264.882 L 954.239,264.522 L 954.307,264.149 L 954.356,263.761
 L 954.385,263.36 L 954.394,262.944 L 954.385,262.518 L 954.356,262.106 L 954.308,261.708 L 954.241,261.325
 L 954.155,260.957 L 954.049,260.603 L 953.925,260.263 L 953.781,259.939 L 953.618,259.628 L 953.435,259.333
 L 953.234,259.052 L 953.014,258.785 L 952.774,258.533 L 952.515,258.296 L 952.237,258.073 L 951.94,257.865
 L 951.623,257.671 L 951.287,257.489 L 950.932,257.319 L 950.558,257.162 L 950.164,257.018 L 949.751,256.886
 L 949.319,256.767 L 948.868,256.66 L 948.397,256.566 L 947.907,256.484 L 947.398,256.415 L 946.869,256.358
 L 946.321,256.315 L 945.754,256.283 L 945.167,256.264 L 944.562,256.258 L 943.969,256.264 L 943.394,256.284
 L 942.837,256.316 L 942.298,256.361 L 941.778,256.42 L 941.275,256.491 L 940.79,256.575 L 940.323,256.672
 L 939.875,256.782 L 939.444,256.904 L 939.031,257.04 L 938.636,257.189 L 938.26,257.35 L 937.901,257.525
 L 937.56,257.712 L 937.238,257.913 L 936.934,258.126 L 936.65,258.352 L 936.385,258.591 L 936.14,258.843
 L 935.915,259.107 L 935.709,259.384 L 935.523,259.675 L 935.356,259.978 L 935.209,260.293 L 935.082,260.622
 L 934.974,260.963 L 934.886,261.318 L 934.817,261.685 L 934.768,262.065 L 934.739,262.457 L 934.729,262.863
 L 934.739,263.269 L 934.768,263.662 L 934.817,264.042 L 934.886,264.41 L 934.975,264.766 L 935.084,265.109
 L 935.212,265.439 L 935.359,265.757 L 935.527,266.062 L 935.714,266.355 L 935.921,266.635 L 936.148,266.902
 L 936.394,267.157 L 936.66,267.4 L 936.946,267.63 L 937.251,267.847 L 937.576,268.052 L 937.917,268.243
 L 938.277,268.421 L 938.654,268.586 L 939.049,268.738 L 939.462,268.876 L 939.892,269.001 L 940.34,269.113
 L 940.806,269.212 L 941.289,269.298 L 941.791,269.371 L 942.309,269.43 L 942.846,269.476 L 943.4,269.509
 L 943.972,269.529 L 944.562,269.536 z
M 944.071,267.05 L 943.597,267.038 L 943.139,267.019 L 942.697,266.991 L 942.271,266.956 L 941.861,266.913
 L 941.467,266.862 L 941.09,266.803 L 940.728,266.736 L 940.383,266.662 L 940.053,266.579 L 939.74,266.489
 L 939.443,266.391 L 939.162,266.285 L 938.897,266.172 L 938.648,266.05 L 938.415,265.92 L 938.197,265.781
 L 937.994,265.633 L 937.806,265.476 L 937.633,265.31 L 937.475,265.135 L 937.332,264.951 L 937.204,264.758
 L 937.091,264.556 L 936.993,264.345 L 936.91,264.125 L 936.843,263.896 L 936.79,263.658 L 936.752,263.411
 L 936.73,263.155 L 936.722,262.89 L 936.73,262.623 L 936.752,262.366 L 936.789,262.118 L 936.84,261.878
 L 936.906,261.648 L 936.988,261.428 L 937.083,261.216 L 937.194,261.013 L 937.319,260.82 L 937.459,260.636
 L 937.613,260.461 L 937.783,260.295 L 937.967,260.138 L 938.166,259.991 L 938.379,259.852 L 938.608,259.723
 L 938.852,259.603 L 939.113,259.49 L 939.391,259.384 L 939.687,259.287 L 939.999,259.198 L 940.329,259.116
 L 940.675,259.042 L 941.039,258.976 L 941.419,258.917 L 941.817,258.867 L 942.232,258.824 L 942.664,258.789
 L 943.113,258.761 L 943.579,258.742 L 944.062,258.73 L 944.562,258.726 L 945.076,258.73 L 945.572,258.742
 L 946.05,258.761 L 946.509,258.788 L 946.95,258.822 L 947.373,258.865 L 947.777,258.915 L 948.162,258.972
 L 948.53,259.038 L 948.878,259.111 L 949.208,259.191 L 949.52,259.279 L 949.814,259.376 L 950.089,259.479
 L 950.345,259.591 L 950.583,259.71 L 950.805,259.838 L 951.012,259.975 L 951.205,260.123 L 951.384,260.281
 L 951.549,260.448 L 951.699,260.626 L 951.835,260.813 L 951.956,261.01 L 952.064,261.217 L 952.157,261.434
 L 952.235,261.661 L 952.3,261.898 L 952.35,262.145 L 952.386,262.401 L 952.407,262.668 L 952.414,262.944
 L 952.407,263.214 L 952.385,263.474 L 952.349,263.725 L 952.298,263.965 L 952.233,264.196 L 952.153,264.418
 L 952.059,264.629 L 951.95,264.831 L 951.826,265.023 L 951.688,265.206 L 951.536,265.379 L 951.369,265.542
 L 951.188,265.695 L 950.992,265.839 L 950.781,265.973 L 950.556,266.098 L 950.315,266.213 L 950.056,266.322
 L 949.779,266.423 L 949.485,266.516 L 949.172,266.602 L 948.842,266.68 L 948.494,266.751 L 948.129,266.815
 L 947.745,266.871 L 947.344,266.919 L 946.924,266.96 L 946.487,266.994 L 946.033,267.02 L 945.56,267.039
 L 945.07,267.05 L 944.562,267.054 z
" stroke="black" fill="lightgray" stroke-width="0.5"/>
</svg>
